<svg id="Layer_1" data-name="Layer 1" xmlns="http://www.w3.org/2000/svg" viewBox="0 0 1203.52 588.86"><defs><style>.cls-1{fill:#565656;}.cls-1,.cls-13,.cls-14,.cls-15,.cls-16,.cls-17,.cls-18,.cls-19,.cls-2,.cls-3,.cls-4,.cls-5,.cls-6,.cls-7,.cls-8,.cls-9{stroke:#000;}.cls-1,.cls-17,.cls-2,.cls-3,.cls-4{stroke-linejoin:round;}.cls-1,.cls-3,.cls-4{stroke-width:2px;}.cls-2,.cls-27{fill:#eac663;}.cls-2{stroke-width:1.93px;}.cls-3{fill:#7f7f7f;}.cls-4{fill:#353535;}.cls-11,.cls-13,.cls-15,.cls-16,.cls-17,.cls-18,.cls-19,.cls-22,.cls-24,.cls-28,.cls-5,.cls-7{fill:none;}.cls-11,.cls-13,.cls-15,.cls-16,.cls-5,.cls-7{stroke-linecap:round;}.cls-11,.cls-13,.cls-14,.cls-15,.cls-16,.cls-18,.cls-19,.cls-22,.cls-24,.cls-28,.cls-5,.cls-6,.cls-7,.cls-8,.cls-9{stroke-miterlimit:10;}.cls-5{stroke-width:6px;}.cls-6,.cls-9{fill:#41a543;}.cls-6{stroke-width:1.74px;}.cls-10,.cls-14,.cls-20,.cls-6,.cls-8,.cls-9{opacity:0.8;}.cls-7{stroke-width:3.1px;}.cls-14,.cls-8{fill:#a6a6a6;}.cls-8{stroke-width:1.76px;}.cls-9{stroke-width:1.65px;}.cls-11{stroke:#e80000;stroke-width:5px;}.cls-12,.cls-20{fill:#e80000;}.cls-13{stroke-width:2.5px;}.cls-14{stroke-width:1.63px;}.cls-15{stroke-width:2.4px;}.cls-16{stroke-width:4px;}.cls-17{stroke-width:2.24px;}.cls-18{stroke-width:0px;}.cls-18,.cls-19{opacity:0;}.cls-19{stroke-width:0px;}.cls-21{fill:#c1c1c1;}.cls-21,.cls-23,.cls-27{opacity:0.6;}.cls-22{stroke:#777;}.cls-23{fill:#66b266;}.cls-24{stroke:#388e38;stroke-width:1.5px;}.cls-25{font-size:42px;font-family:LinLibertine, Linux Libertine;}.cls-26{letter-spacing:0.04em;}.cls-28{stroke:#ce9d21;}</style></defs><polygon class="cls-1" points="489.95 209.91 486.95 17.91 696.95 38.91 686.95 238.91 489.95 209.91"/><ellipse class="cls-2" cx="591.17" cy="127.41" rx="76.08" ry="84.92" transform="translate(169.58 560.98) rotate(-57.96)"/><polygon class="cls-3" points="486.95 17.91 501.95 4.91 705.95 24.91 696.95 38.91 486.95 17.91"/><polygon class="cls-4" points="696.95 38.91 686.95 238.91 696.95 220.6 705.95 24.91 696.95 38.91"/><line class="cls-5" x1="34.95" y1="389.91" x2="571.73" y2="140.82"/><polygon points="590.95 131.91 569 155.53 570.3 141.49 558.74 133.41 590.95 131.91"/><ellipse class="cls-6" cx="231.65" cy="298.78" rx="51.22" ry="98.63" transform="translate(-109.67 136.21) rotate(-26.75)"/><line class="cls-7" x1="164.02" y1="212.3" x2="300.87" y2="391.51"/><polygon points="161.16 216.19 159.98 207 168.53 210.57 161.16 216.19"/><polygon points="296.36 393.25 304.91 396.81 303.73 387.62 296.36 393.25"/><line class="cls-5" x1="146.95" y1="337.91" x2="212.69" y2="307.74"/><polygon points="231.95 298.91 209.9 322.44 211.25 308.4 199.73 300.27 231.95 298.91"/><ellipse class="cls-8" cx="150.47" cy="337.46" rx="51.23" ry="104.47" transform="translate(-130.95 98.04) rotate(-25.58)"/><line class="cls-5" x1="862.09" y1="327.08" x2="603.79" y2="130.59"/><polygon points="878.95 339.91 862.58 312.13 860.83 326.12 847.81 331.54 878.95 339.91"/><ellipse class="cls-9" cx="879.4" cy="340.07" rx="103.38" ry="69.65" transform="translate(67 818.61) rotate(-51.64)"/><g class="cls-10"><path class="cls-11" d="M824.79,395.8c-16.71-20.55-11.21-58.67,12.88-89.1C859,279.8,889.09,266.06,912,270.6"/><polygon class="cls-12" points="928.1 277.89 901.23 277.64 910.61 270.55 909.09 258.9 928.1 277.89"/></g><line class="cls-13" x1="974.54" y1="355.28" x2="784.49" y2="319.12"/><polygon points="974.17 351.4 979.83 356.29 972.77 358.75 974.17 351.4"/><polygon points="786.27 315.65 779.21 318.11 784.87 322.99 786.27 315.65"/><line class="cls-5" x1="878.95" y1="339.91" x2="932.06" y2="380.12"/><polygon points="948.95 392.91 917.79 384.61 930.8 379.16 932.51 365.17 948.95 392.91"/><ellipse class="cls-14" cx="948.64" cy="392.91" rx="111.86" ry="71.3" transform="translate(46.73 883.69) rotate(-51.05)"/><line class="cls-15" x1="941.16" y1="501.34" x2="947.06" y2="286.64"/><polygon points="944.77 500.39 941.02 506.5 937.6 500.19 944.77 500.39"/><polygon points="950.62 287.78 947.21 281.47 943.45 287.59 950.62 287.78"/><line class="cls-5" x1="34.95" y1="389.91" x2="127.73" y2="346.83"/><polygon points="146.95 337.91 125.01 361.54 126.3 347.49 114.74 339.42 146.95 337.91"/><line class="cls-5" x1="948.95" y1="392.91" x2="1042.19" y2="464.95"/><polygon points="1058.95 477.91 1027.87 469.31 1040.93 463.99 1042.78 450.01 1058.95 477.91"/><line class="cls-16" x1="598.2" y1="126.23" x2="479.87" y2="284.64"/><polygon points="475.75 279.16 474.2 292.23 486.29 287.04 475.75 279.16"/><path class="cls-17" d="M733.73,241.88c-42.15,7.76-92.89,13.51-140.3,12.14A677.22,677.22,0,0,1,509,245.91"/><polygon points="732 238.4 738.95 240.91 733.31 245.67 732 238.4"/><g class="cls-10"><path class="cls-11" d="M181.74,269.34c-1.13-18.77,4.14-33.11,14.83-38.5,19.44-9.79,51,12.94,69.82,50.38a134.7,134.7,0,0,1,12.44,36.47"/><polygon class="cls-12" points="184.4 286.79 191 260.74 181.76 268 170.87 263.57 184.4 286.79"/></g><polygon class="cls-18" points="440.89 246.82 440.89 246.82 440.89 246.82 440.89 246.82 440.89 246.82 440.89 246.82 440.89 246.82 440.89 246.82 440.89 246.82 440.89 246.82 440.89 246.82 440.89 246.82 440.89 246.82 440.89 246.82 440.89 246.82 440.89 246.82 440.89 246.82 440.89 246.82 440.89 246.82 440.89 246.82 440.89 246.82 440.89 246.82 440.89 246.82 440.89 246.82 440.89 246.82 440.89 246.82 440.89 246.82 440.89 246.82 440.89 246.82 440.89 246.82 440.89 246.82 440.89 246.82 440.89 246.82 440.89 246.82 440.89 246.82 440.89 246.82 440.89 246.82 440.89 246.82 440.89 246.82 440.89 246.82 440.89 246.82 440.89 246.82 440.89 246.82 440.89 246.82 440.89 246.82 440.89 246.82 440.89 246.82 440.89 246.82 440.89 246.82 440.89 246.82 440.89 246.82 440.89 246.82 440.89 246.82 440.89 246.82 440.89 246.82 440.89 246.82 440.89 246.82 440.89 246.82 440.89 246.82 440.89 246.82 440.89 246.82 440.89 246.82 440.89 246.82 440.89 246.82 440.89 246.82 440.89 246.82 440.89 246.82 440.89 246.82 440.89 246.82 440.89 246.82 440.89 246.82 440.89 246.82 440.89 246.82 440.89 246.82 440.89 246.82 440.89 246.82 440.89 246.82 440.89 246.82 440.89 246.82 440.89 246.82 440.89 246.82 440.89 246.82 440.89 246.82 440.89 246.82 440.89 246.82 440.89 246.82 440.89 246.82"/><path d="M422.45,267.1a62.58,62.58,0,0,1-4.9,14.23c-2.46,4.76-5.12,8.19-8.13,8.19-2.31,0-3.79-2-3.79-8.54,0-3,.42-7,2.25-13.88h14.57m-14-2.24c1.19-4.48,2.59-10.08,5.39-15.06,1.89-3.43,4.49-7.35,7.64-7.35,3.43,0,3.85,4.48,3.85,8.47,0,3.44-.56,7-2.24,13.94Zm21.5-9.6c0-4.62-1.26-14.35-8.4-14.35-9.74,0-20.53,19.75-20.53,35.79,0,6.59,2,14.36,8.41,14.36C419.29,291.06,429.94,271,429.94,255.26Z"/><path d="M436.71,295.1a6.31,6.31,0,0,0-.44,2.06,4.33,4.33,0,0,0,4.64,4.15c4.89,0,7-6.74,7-7.48s-.63-.63-.78-.63c-.69,0-.74.29-.93.83-1.12,3.91-3.28,5.91-5.18,5.91-1,0-1.23-.63-1.23-1.71a8,8,0,0,1,.79-3.13c.49-1.31,1-2.63,1.56-3.91s2.2-5.62,2.4-6.2a5.79,5.79,0,0,0,.29-1.57,4.34,4.34,0,0,0-4.64-4.15c-4.84,0-7.09,6.65-7.09,7.47,0,.64.68.64.83.64.68,0,.73-.24.88-.78,1.27-4.2,3.42-6,5.23-6,.78,0,1.22.4,1.22,1.72,0,1.12-.29,1.85-1.52,4.89l-3.07,7.86m10-24.83a1.87,1.87,0,0,0-1.95-1.86A2.89,2.89,0,0,0,442,271.1a1.87,1.87,0,0,0,1.95,1.86A2.9,2.9,0,0,0,446.68,270.27Z"/><polygon class="cls-18" points="716.38 267.09 716.38 267.09 716.38 267.09 716.38 267.09 716.38 267.09 716.38 267.09 716.38 267.09 716.38 267.09 716.38 267.09 716.38 267.09 716.38 267.09 716.38 267.09 716.38 267.09 716.38 267.09 716.38 267.09 716.38 267.09 716.38 267.09 716.38 267.09 716.38 267.09 716.38 267.09 716.38 267.09 716.38 267.09 716.38 267.09 716.38 267.09 716.38 267.09 716.38 267.09 716.38 267.09 716.38 267.09 716.38 267.09 716.38 267.09 716.38 267.09 716.38 267.09 716.38 267.09 716.38 267.09 716.38 267.09 716.38 267.09 716.38 267.09 716.38 267.09 716.38 267.09 716.38 267.09 716.38 267.09 716.38 267.09 716.38 267.09 716.38 267.09 716.38 267.09 716.38 267.09 716.38 267.09 716.38 267.09 716.38 267.09 716.38 267.09 716.38 267.09 716.38 267.09 716.38 267.09 716.38 267.09 716.38 267.09 716.38 267.09 716.38 267.09 716.38 267.09 716.38 267.09 716.38 267.09 716.38 267.09 716.38 267.09 716.38 267.09 716.38 267.09 716.38 267.09 716.38 267.09 716.38 267.09 716.38 267.09 716.38 267.09 716.38 267.09 716.38 267.09 716.38 267.09 716.38 267.09 716.38 267.09 716.38 267.09 716.38 267.09 716.38 267.09 716.38 267.09 716.38 267.09 716.38 267.09 716.38 267.09 716.38 267.09 716.38 267.09 716.38 267.09 716.38 267.09 716.38 267.09 716.38 267.09"/><polygon class="cls-18" points="796.54 364.31 796.54 364.31 796.54 364.31 796.54 364.31 796.54 364.31 796.54 364.31 796.54 364.31 796.54 364.31 796.54 364.31 796.54 364.31 796.54 364.31 796.54 364.31 796.54 364.31 796.54 364.31 796.54 364.31 796.54 364.31 796.54 364.31 796.54 364.31 796.54 364.31 796.54 364.31 796.54 364.31 796.54 364.31 796.54 364.31 796.54 364.31 796.54 364.31 796.54 364.31 796.54 364.31 796.54 364.31 796.54 364.31 796.54 364.31 796.54 364.31 796.54 364.31 796.54 364.31 796.54 364.31 796.54 364.31 796.54 364.31 796.54 364.31 796.54 364.31 796.54 364.31 796.54 364.31 796.54 364.31 796.54 364.31 796.54 364.31 796.54 364.31 796.54 364.31 796.54 364.31 796.54 364.31 796.54 364.31 796.54 364.31 796.54 364.31 796.54 364.31 796.54 364.31 796.54 364.31 796.54 364.31 796.54 364.31 796.54 364.31 796.54 364.31 796.54 364.31 796.54 364.31 796.54 364.31 796.54 364.31 796.54 364.31 796.54 364.31 796.54 364.31 796.54 364.31 796.54 364.31 796.54 364.31 796.54 364.31 796.54 364.31 796.54 364.31 796.54 364.31 796.54 364.31 796.54 364.31 796.54 364.31 796.54 364.31 796.54 364.31 796.54 364.31 796.54 364.31 796.54 364.31 796.54 364.31 796.54 364.31 796.54 364.31 796.54 364.31 796.54 364.31 796.54 364.31 796.54 364.31 796.54 364.31"/><path d="M639.32,294.92a62.19,62.19,0,0,1-4.91,14.23c-2.45,4.76-5.11,8.19-8.12,8.19-2.31,0-3.79-2-3.79-8.54,0-2.95.42-7,2.25-13.88h14.57m-14-2.24c1.19-4.48,2.59-10.08,5.39-15.06,1.89-3.43,4.49-7.35,7.64-7.35,3.43,0,3.85,4.48,3.85,8.47,0,3.44-.56,7-2.24,13.94Zm21.5-9.6c0-4.62-1.26-14.35-8.4-14.35-9.74,0-20.53,19.75-20.53,35.79,0,6.59,2,14.36,8.41,14.36C636.16,318.88,646.81,298.78,646.81,283.08Z"/><path d="M659.69,327.76c-2.45,0-4.89-1.56-4.89-5.42a20.85,20.85,0,0,1,2.83-9.58c2.11-3,4.94-4.31,7.14-4.31,2.64,0,4.89,1.81,4.89,5.43a21.67,21.67,0,0,1-2.74,9.44,9.16,9.16,0,0,1-7.23,4.44m14-12.12c0-5.42-4.06-8.55-8.85-8.55-7.24,0-14.08,6.79-14.08,13.49,0,4.89,3.57,8.55,8.9,8.55C666.63,329.13,673.67,322.68,673.67,315.64Z"/><polygon class="cls-19" points="477.29 319.17 477.29 319.17 477.29 319.17 477.29 319.17 477.29 319.17 477.29 319.17 477.29 319.17 477.29 319.17 477.29 319.17 477.29 319.17 477.29 319.17 477.29 319.17 477.29 319.17 477.29 319.17 477.29 319.17 477.29 319.17 477.29 319.17 477.29 319.17 477.29 319.17 477.29 319.17 477.29 319.17 477.29 319.17 477.29 319.17 477.29 319.17 477.29 319.17 477.29 319.17 477.29 319.17 477.29 319.17 477.29 319.17 477.29 319.17 477.29 319.17 477.29 319.17 477.29 319.17 477.29 319.17 477.29 319.17 477.29 319.17 477.29 319.17 477.29 319.17 477.29 319.17 477.29 319.17 477.29 319.17 477.29 319.17 477.29 319.17 477.29 319.17 477.29 319.17 477.29 319.17 477.29 319.17 477.29 319.17 477.29 319.17 477.29 319.17 477.29 319.17 477.29 319.17 477.29 319.17 477.29 319.17 477.29 319.17 477.29 319.17 477.29 319.17 477.29 319.17 477.29 319.17 477.29 319.17 477.29 319.17 477.29 319.17 477.29 319.17 477.29 319.17 477.29 319.17 477.29 319.17 477.29 319.17 477.29 319.17 477.29 319.17 477.29 319.17 477.29 319.17 477.29 319.17 477.29 319.17 477.29 319.17 477.29 319.17 477.29 319.17 477.29 319.17 477.29 319.17 477.29 319.17 477.29 319.17 477.29 319.17 477.29 319.17 477.29 319.17 477.29 319.17 477.29 319.17 477.29 319.17 477.29 319.17"/><path d="M460.28,311.1V330h-4.22v2.88c1.71-.06,5.39-.19,7.71-.19s6,.13,7.72.19V330h-4.23v-12.8a9.28,9.28,0,0,1,9.13-9.68c2.08,0,3.37,1.29,3.37,5.94V330h-4.23v2.88c1.71-.06,5.39-.19,7.72-.19s6,.13,7.71.19V330h-4.22V314.17c0-6.43-3.31-8.82-9.43-8.82A11.56,11.56,0,0,0,466.59,312v-6.61l-10.53.49v2.88c3.79,0,4.22,0,4.22,2.38"/><path class="cls-17" d="M509,245.91c-38.67-5.94-61.14-12.44-92-23.24"/><polygon points="419.19 219.47 411.95 220.91 416.81 226.47 419.19 219.47"/><polygon class="cls-20" points="1075.84 139.76 1075.84 139.76 1075.84 139.76 1075.84 139.76 1075.84 139.76 1075.84 139.76 1075.84 139.76 1075.84 139.76 1075.84 139.76 1075.84 139.76 1075.84 139.76 1075.84 139.76 1075.84 139.76 1075.84 139.76 1075.84 139.76 1075.84 139.76 1075.84 139.76 1075.84 139.76 1075.84 139.76 1075.84 139.76 1075.84 139.76 1075.84 139.76 1075.84 139.76 1075.84 139.76 1075.84 139.76 1075.84 139.76 1075.84 139.76 1075.84 139.76 1075.84 139.76 1075.84 139.76 1075.84 139.76 1075.84 139.76 1075.84 139.76 1075.84 139.76 1075.84 139.76 1075.84 139.76 1075.84 139.76 1075.84 139.76 1075.84 139.76 1075.84 139.76 1075.84 139.76 1075.84 139.76 1075.84 139.76 1075.84 139.76 1075.84 139.76 1075.84 139.76 1075.84 139.76 1075.84 139.76 1075.84 139.76 1075.84 139.76 1075.84 139.76 1075.84 139.76 1075.84 139.76 1075.84 139.76 1075.84 139.76 1075.84 139.76 1075.84 139.76 1075.84 139.76 1075.84 139.76 1075.84 139.76 1075.84 139.76 1075.84 139.76 1075.84 139.76 1075.84 139.76 1075.84 139.76 1075.84 139.76 1075.84 139.76 1075.84 139.76 1075.84 139.76 1075.84 139.76 1075.84 139.76 1075.84 139.76 1075.84 139.76 1075.84 139.76 1075.84 139.76 1075.84 139.76 1075.84 139.76 1075.84 139.76 1075.84 139.76 1075.84 139.76 1075.84 139.76 1075.84 139.76 1075.84 139.76 1075.84 139.76 1075.84 139.76 1075.84 139.76 1075.84 139.76"/><g class="cls-10"><path class="cls-12" d="M856.51,193.7c5.93.31,10.37,3.9,10.37,10.75,0,9.19-6.7,20.33-18.39,21.26l8-32m-10,32c-4.68-.23-10.29-3-10.29-10.75,0-9.34,6.7-20.25,18.31-21.26Zm14.87-51.41c0-.15.24-1,.24-1.09s0-.78-.93-.78c-.78,0-.86.23-1.17,1.56L855,192c-12.39.39-23.84,10.75-23.84,21.34,0,7.4,5.45,13.55,15,14.1-.62,2.41-1.17,4.91-1.79,7.32-.94,3.66-1.72,6.62-1.72,6.86,0,.78.55.85.94.85a.89.89,0,0,0,.78-.31,19.39,19.39,0,0,0,.85-3.11l3-11.61c12.55-.39,23.84-10.91,23.84-21.35,0-6.15-4.13-13.32-15-14.09Z"/><path class="cls-12" d="M901,228.31h-1.85c-.16,1.2-.71,4.41-1.41,4.95-.44.33-4.62.33-5.39.33h-10c5.71-5.06,7.61-6.58,10.87-9.14,4-3.21,7.78-6.57,7.78-11.74,0-6.58-5.77-10.6-12.72-10.6-6.74,0-11.31,4.73-11.31,9.73a2.88,2.88,0,1,0,5.76.16c0-1-.38-2.88-3.21-2.88a8.55,8.55,0,0,1,7.94-5.05c5.44,0,8.27,4.24,8.27,8.64,0,4.73-3.38,8.48-5.11,10.44l-13.11,12.94c-.54.49-.54.6-.54,2.12h22.4l1.63-9.9"/></g><polygon class="cls-20" points="912.14 102.97 912.14 102.97 912.14 102.97 912.14 102.97 912.14 102.97 912.14 102.97 912.14 102.97 912.14 102.97 912.14 102.97 912.14 102.97 912.14 102.97 912.14 102.97 912.14 102.97 912.14 102.97 912.14 102.97 912.14 102.97 912.14 102.97 912.14 102.97 912.14 102.97 912.14 102.97 912.14 102.97 912.14 102.97 912.14 102.97 912.14 102.97 912.14 102.97 912.14 102.97 912.14 102.97 912.14 102.97 912.14 102.97 912.14 102.97 912.14 102.97 912.14 102.97 912.14 102.97 912.14 102.97 912.14 102.97 912.14 102.97 912.14 102.97 912.14 102.97 912.14 102.97 912.14 102.97 912.14 102.97 912.14 102.97 912.14 102.97 912.14 102.97 912.14 102.97 912.14 102.97 912.14 102.97 912.14 102.97 912.14 102.97 912.14 102.97 912.14 102.97 912.14 102.97 912.14 102.97 912.14 102.97 912.14 102.97 912.14 102.97 912.14 102.97 912.14 102.97 912.14 102.97 912.14 102.97 912.14 102.97 912.14 102.97 912.14 102.97 912.14 102.97 912.14 102.97 912.14 102.97 912.14 102.97 912.14 102.97 912.14 102.97 912.14 102.97 912.14 102.97 912.14 102.97 912.14 102.97 912.14 102.97 912.14 102.97 912.14 102.97 912.14 102.97 912.14 102.97 912.14 102.97 912.14 102.97 912.14 102.97 912.14 102.97 912.14 102.97 912.14 102.97 912.14 102.97 912.14 102.97 912.14 102.97"/><g class="cls-10"><path class="cls-12" d="M279.9,192.91c5.92.31,10.36,3.9,10.36,10.75,0,9.19-6.69,20.33-18.38,21.27l8-32m-10,32c-4.67-.23-10.28-3-10.28-10.75,0-9.35,6.7-20.25,18.31-21.27Zm14.88-51.41c0-.16.24-1,.24-1.1s0-.78-.94-.78c-.77,0-.85.24-1.16,1.56l-4.52,18c-12.39.39-23.84,10.75-23.84,21.35,0,7.39,5.45,13.55,14.95,14.09-.62,2.42-1.16,4.91-1.78,7.32-.94,3.67-1.72,6.63-1.72,6.86,0,.78.55.86.94.86a.92.92,0,0,0,.78-.31,19.93,19.93,0,0,0,.85-3.12l3-11.61c12.54-.39,23.84-10.9,23.84-21.34,0-6.16-4.13-13.32-15-14.1Z"/><path class="cls-12" d="M315.11,202.85c0-1.47-.11-1.53-1.64-1.53-3.47,3.43-8.42,3.48-10.65,3.48v2a17.94,17.94,0,0,0,7.88-1.52V233c0,1.79,0,2.5-5.44,2.5H303.2v1.95c1,0,7.66-.22,9.68-.22,1.68,0,8.53.17,9.73.22v-1.95h-2.07c-5.43,0-5.43-.71-5.43-2.5V202.85"/></g><path class="cls-21" d="M62,464.91l79-33-4,33H248.48A11.47,11.47,0,0,1,260,476.37v34.07a11.48,11.48,0,0,1-11.47,11.47H16.41A11.47,11.47,0,0,1,5,510.44V476.37a11.46,11.46,0,0,1,11.46-11.46Z"/><path class="cls-22" d="M61.45,465.41l79-33-4,33H248a11.47,11.47,0,0,1,11.47,11.46v34.07A11.48,11.48,0,0,1,248,522.41H15.91A11.47,11.47,0,0,1,4.45,510.94V476.87a11.46,11.46,0,0,1,11.46-11.46Z"/><path class="cls-23" d="M148,158.91l54,39-4-39h29.53a11.47,11.47,0,0,0,11.46-11.47V113.37a11.46,11.46,0,0,0-11.46-11.46H70.42A11.46,11.46,0,0,0,59,113.37v34.07a11.47,11.47,0,0,0,11.47,11.47Z"/><path class="cls-24" d="M148,158.91l54,39-4-39h29.53a11.47,11.47,0,0,0,11.46-11.47V113.37a11.46,11.46,0,0,0-11.46-11.46H70.42A11.46,11.46,0,0,0,59,113.37v34.07a11.47,11.47,0,0,0,11.47,11.47Z"/><text class="cls-25" transform="translate(86.18 142.5)"><tspan class="cls-26">Q</tspan><tspan x="31.03" y="0">WP 1</tspan></text><path class="cls-23" d="M990,225.91l-16,44,101-44h41.53a11.47,11.47,0,0,0,11.47-11.47V180.37a11.46,11.46,0,0,0-11.47-11.46H954.41A11.46,11.46,0,0,0,943,180.37v34.07a11.47,11.47,0,0,0,11.46,11.47Z"/><path class="cls-27" d="M733,71.44a11.47,11.47,0,0,0,11.46,11.47H910.48A11.48,11.48,0,0,0,922,71.44V37.37a11.47,11.47,0,0,0-11.47-11.46H744.41A11.46,11.46,0,0,0,733,37.37v7.12L712,60.91Z"/><path class="cls-28" d="M733.45,71.94a11.47,11.47,0,0,0,11.46,11.47H911a11.48,11.48,0,0,0,11.47-11.47V37.87A11.47,11.47,0,0,0,911,26.41H744.91a11.46,11.46,0,0,0-11.46,11.46V45l-21,16.42Z"/><path class="cls-24" d="M990,225.91l-16,44,101-44h41.53a11.47,11.47,0,0,0,11.47-11.47V180.37a11.46,11.46,0,0,0-11.47-11.46H954.41A11.46,11.46,0,0,0,943,180.37v34.07a11.47,11.47,0,0,0,11.46,11.47Z"/><text class="cls-25" transform="translate(976.18 210.5)"><tspan class="cls-26">Q</tspan><tspan x="31.03" y="0">WP 2</tspan></text><text class="cls-25" transform="translate(42.18 506.5)">Polarizer 1</text><path class="cls-21" d="M957.19,525.91l6.76-35,56,36h24.53A11.47,11.47,0,0,1,1056,538.37v34.07a11.48,11.48,0,0,1-11.47,11.47H812.41A11.47,11.47,0,0,1,801,572.44V538.37a11.46,11.46,0,0,1,11.46-11.46Z"/><path class="cls-22" d="M957.69,526.41l6.76-35,56,36H1045a11.47,11.47,0,0,1,11.47,11.46v34.07A11.48,11.48,0,0,1,1045,584.41H812.91a11.47,11.47,0,0,1-11.46-11.47V538.87a11.46,11.46,0,0,1,11.46-11.46Z"/><text class="cls-25" transform="translate(838.18 569.5)">Polarizer 2</text><text class="cls-25" transform="translate(764.83 68.15)">Sample</text><line class="cls-13" x1="72.31" y1="293.39" x2="231.13" y2="386.76"/><polygon points="71.36 297.17 67.67 290.66 75.15 290.72 71.36 297.17"/><polygon points="228.29 389.43 235.77 389.49 232.08 382.98 228.29 389.43"/></svg>