<svg xmlns="http://www.w3.org/2000/svg" xmlns:xlink="http://www.w3.org/1999/xlink" viewBox="0 0 194.55 128.38"><defs><style>.cls-1,.cls-10,.cls-12,.cls-15,.cls-17,.cls-20,.cls-23,.cls-6,.cls-7{fill:none;}.cls-2{font-size:12px;font-family:LinLibertine, Linux Libertine;}.cls-16,.cls-2{fill:#231f20;}.cls-3{letter-spacing:0.01em;}.cls-4{letter-spacing:0em;}.cls-5{fill:#eaeaea;stroke:#010101;stroke-linejoin:round;}.cls-12,.cls-15,.cls-17,.cls-20,.cls-5,.cls-6,.cls-7{stroke-linecap:round;}.cls-11,.cls-14,.cls-5{stroke-width:0.63px;}.cls-23,.cls-6{stroke:#000;}.cls-10,.cls-11,.cls-12,.cls-14,.cls-15,.cls-17,.cls-20,.cls-23,.cls-6,.cls-7{stroke-miterlimit:10;}.cls-10,.cls-11,.cls-14,.cls-15,.cls-7{stroke:#231f20;}.cls-10,.cls-7{stroke-width:0.5px;}.cls-8{clip-path:url(#clip-path);}.cls-9{clip-path:url(#clip-path-2);}.cls-11,.cls-13{fill:#3b9b76;}.cls-11,.cls-14{opacity:0.8;}.cls-12{stroke:#3b9b76;}.cls-12,.cls-17,.cls-20{stroke-width:2px;}.cls-14,.cls-18{fill:#42a6d3;}.cls-17{stroke:#42a6d3;}.cls-19{fill:#010101;}.cls-20{stroke:#ed1c24;}.cls-21{fill:#ed1c24;}.cls-22{clip-path:url(#clip-path-3);}.cls-23{stroke-width:0px;opacity:0;}</style><clipPath id="clip-path"><rect class="cls-1" x="15.57" y="105.78" width="6.11" height="4.72"/></clipPath><clipPath id="clip-path-2"><rect class="cls-1" x="150.83" y="107.43" width="5.83" height="6.66"/></clipPath><clipPath id="clip-path-3"><rect class="cls-1" x="91.41" y="64.29" width="26.49" height="13.09"/></clipPath></defs><g id="Layer_4" data-name="Layer 4"><text class="cls-2" transform="translate(59.41 123.69)">L<tspan class="cls-3" x="6.31" y="0">o</tspan><tspan x="12.44" y="0">cal s</tspan><tspan class="cls-4" x="33.89" y="0">p</tspan><tspan x="40.17" y="0">ace</tspan></text><ellipse class="cls-5" cx="87" cy="94.5" rx="65.06" ry="16.27"/><line class="cls-6" x1="36.99" y1="78.95" x2="147.51" y2="108.47"/><polygon points="146.3 110.47 150.63 109.31 147.46 106.14 146.3 110.47"/><line class="cls-6" x1="138.02" y1="80.55" x2="25.79" y2="106.41"/><polygon points="25.93 104.08 22.64 107.14 26.93 108.45 25.93 104.08"/><line class="cls-6" x1="87" y1="91.92" x2="87" y2="31.11"/><polygon points="89.24 31.77 87 27.88 84.76 31.77 89.24 31.77"/><line class="cls-7" x1="25.34" y1="25.44" x2="9.37" y2="8.2"/><path d="M89,21.81c.08-.11.1-.13.1-.22s-.14-.21-.32-.21H85.14L85,23.13h.46c.06-1,.37-1.39,1.4-1.39h.85L85,25.37c-.09.11-.09.13-.09.22s.13.22.32.22H89l.18-2h-.46c-.09,1-.25,1.62-1.57,1.62h-.86L89,21.81"/><g class="cls-8"><path d="M19.05,107.88l1.16-1.3c.13-.14.19-.21,1-.21v-.47l-.92,0-1,0v.47a.66.66,0,0,1,.37.09.35.35,0,0,1-.07.12l-.84.94-1-1.15h.4v-.47l-1.21,0-1.09,0v.47h.7l1.56,1.84-1.31,1.46c-.17.19-.53.19-1,.19v.47l.91,0,1,0v-.47c-.18,0-.37,0-.37-.11s0,0,.07-.1l1-1.08,1.1,1.29h-.39v.47l1.19,0,1.1,0v-.47h-.71l-1.67-2"/></g><g class="cls-9"><path d="M155.82,108.24c.07-.14.1-.21.74-.21v-.47c-.24,0-.54,0-.79,0l-.9,0V108s.47,0,.47.12a.61.61,0,0,1-.05.12l-1.15,2.45L152.87,108h.54v-.47c-.33,0-1.23,0-1.24,0l-1.13,0V108h.64l1.86,4-.23.48c-.22.48-.54,1.15-1.25,1.15a.47.47,0,0,1-.23,0,.57.57,0,1,0-.83-.52,1,1,0,0,0,1.06.92,1.93,1.93,0,0,0,1.62-1.18l2.14-4.56"/></g><line class="cls-10" x1="146.78" y1="59.34" x2="116.61" y2="75.98"/><polygon class="cls-11" points="125.12 44.95 150.77 40.69 165.42 75.66 139.67 81.37 125.12 44.95"/><line class="cls-10" x1="171.62" y1="45.64" x2="145.27" y2="60.17"/><line class="cls-12" x1="87" y1="91.92" x2="120.59" y2="73.62"/><polygon class="cls-13" points="128.03 69.57 119.88 79.57 120.03 73.93 115.21 71 128.03 69.57"/><polygon class="cls-11" points="151.29 29.54 176.98 25.15 191.65 61.21 165.86 67.1 151.29 29.54"/><polygon class="cls-14" points="2.82 22.29 27.61 2.07 37.97 18.75 14.05 38.01 2.82 22.29"/><line class="cls-10" x1="38.4" y1="39.47" x2="20.39" y2="20.04"/><polygon class="cls-14" points="30.67 27.66 21.08 54.35 46.49 50.17 56.21 24.59 30.67 27.66"/><line class="cls-15" x1="6.24" y1="31.47" x2="35.43" y2="7.9"/><polygon class="cls-16" points="36.03 9.34 37.11 6.55 34.15 7.01 36.03 9.34"/><line class="cls-10" x1="84.84" y1="89.59" x2="38.4" y2="39.47"/><line class="cls-17" x1="79.72" y1="84.06" x2="50.51" y2="52.54"/><polygon class="cls-18" points="85.48 90.28 80.94 78.2 79.29 83.6 73.79 84.84 85.48 90.28"/><line class="cls-15" x1="180.05" y1="67.21" x2="163.68" y2="25.31"/><polygon class="cls-16" points="165.23 25.18 162.89 23.31 162.44 26.27 165.23 25.18"/><path class="cls-19" d="M89,92.31a2,2,0,1,1-2-2A2,2,0,0,1,89,92.31Z"/><line class="cls-7" x1="188.97" y1="36.07" x2="171.62" y2="45.64"/><line class="cls-15" x1="159.96" y1="57.31" x2="127.21" y2="63.21"/><polygon class="cls-16" points="127.38 61.66 125.09 63.6 127.91 64.61 127.38 61.66"/><line class="cls-15" x1="22.53" y1="41.37" x2="54.44" y2="37.55"/><polygon class="cls-16" points="23.14 42.81 20.39 41.63 22.79 39.84 23.14 42.81"/><path class="cls-20" d="M20.1,30a8,8,0,0,1-.18-1.69A8.3,8.3,0,0,1,32,21"/><polygon class="cls-21" points="29.84 22.59 34.78 23.25 32.88 18.64 29.84 22.59"/><path class="cls-20" d="M148.79,54.81a8.65,8.65,0,0,1-.17-1.69A8.31,8.31,0,0,1,151,47.35"/><polygon class="cls-21" points="151.9 49.91 153.96 45.37 148.99 45.86 151.9 49.91"/><g class="cls-22"><path class="cls-13" d="M95.4,73a3.65,3.65,0,0,0,.44-1.26.45.45,0,0,0-.43-.49c-.69,0-.77,1.19-.78,1.49s0,.18,0,.19a1.87,1.87,0,0,1-1.24.49,1.07,1.07,0,0,1-1.16-1.11,4.4,4.4,0,0,1,1-2.24c.1-.12.12-.15.12-.24a.23.23,0,0,0-.23-.24.36.36,0,0,0-.19.07,5.51,5.51,0,0,0-1.27,3.12c0,1.13.57,1.87,1.53,1.87a2.43,2.43,0,0,0,1.66-.8,1.26,1.26,0,0,0,1.21.8,3,3,0,0,0,2.32-1.46,6,6,0,0,0,.78-2.66c0-.86-.51-1-.75-1a.94.94,0,0,0-.85.85.66.66,0,0,0,.33.52,1,1,0,0,1,.53.81,2.15,2.15,0,0,1-2.12,1.75A.88.88,0,0,1,95.4,73"/><path class="cls-13" d="M101.4,64.48l-1.17.08v.29c.52,0,.59.05.59.43v4c0,.34-.08.34-.59.34v.28s.56,0,.88,0l.88,0v-.28c-.51,0-.59,0-.59-.34v-4.8"/><path class="cls-13" d="M104.54,69.73a1.16,1.16,0,0,1-1-.48,2,2,0,0,1-.24-1.08,1.8,1.8,0,0,1,.28-1.14,1.26,1.26,0,0,1,.93-.4,1.14,1.14,0,0,1,1,.47,1.77,1.77,0,0,1,.24,1.07,1.85,1.85,0,0,1-.25,1.1,1.14,1.14,0,0,1-.95.46m1.91-1.49a1.92,1.92,0,0,0-3.83,0,1.92,1.92,0,0,0,3.83,0Z"/><path class="cls-13" d="M110,66.78a.37.37,0,0,0-.22.35.35.35,0,0,0,.37.36.36.36,0,0,0,.38-.38c0-.69-1.09-.69-1.31-.69a1.78,1.78,0,1,0,0,3.56,1.36,1.36,0,0,0,1.44-1c0-.09-.1-.09-.13-.09s-.11,0-.15.13a1.07,1.07,0,0,1-1.06.73c-.54,0-1.25-.4-1.25-1.53s.49-1.53,1.21-1.53a2.27,2.27,0,0,1,.76.11"/><path class="cls-13" d="M113.85,68.8a1,1,0,0,1-1,1,.72.72,0,0,1-.77-.65c0-.43.37-1,1.78-1.09v.78m.62-1a1.06,1.06,0,0,0-.36-1,1.72,1.72,0,0,0-1.16-.39c-.74,0-1.26.28-1.26.75a.37.37,0,1,0,.74,0,.37.37,0,0,0-.28-.36,1.55,1.55,0,0,1,.78-.2.89.89,0,0,1,.92,1v.24a4.8,4.8,0,0,0-1.52.25c-.7.26-.92.69-.92,1,0,.67.81.87,1.37.87a1.25,1.25,0,0,0,1.15-.66.64.64,0,0,0,.61.62.74.74,0,0,0,.77-.74v-.43H115v.42c0,.08,0,.45-.28.45s-.29-.37-.29-.47Z"/><path class="cls-13" d="M117.05,64.48l-1.17.08v.29c.52,0,.58.05.58.43v4c0,.34-.08.34-.58.34v.28s.56,0,.87,0,.59,0,.88,0v-.28c-.5,0-.58,0-.58-.34v-4.8"/><path class="cls-13" d="M100.29,76.37a1.07,1.07,0,0,0-.07.33.7.7,0,0,0,.75.66c.78,0,1.12-1.07,1.12-1.19s-.1-.1-.12-.1-.12,0-.15.13c-.18.63-.53,1-.83,1s-.2-.11-.2-.28a1.28,1.28,0,0,1,.13-.5c.08-.21.16-.42.25-.62s.35-.9.38-1a.79.79,0,0,0,0-.25.69.69,0,0,0-.74-.67c-.78,0-1.14,1.06-1.14,1.2s.11.1.14.1.11,0,.14-.13c.2-.67.54-1,.83-1,.13,0,.2.06.2.27a2.16,2.16,0,0,1-.24.78l-.5,1.26m1.6-4a.3.3,0,0,0-.31-.29.46.46,0,0,0-.44.43.29.29,0,0,0,.31.29A.46.46,0,0,0,101.89,72.4Z"/></g><path class="cls-18" d="M41.33,11.62V8.78a1.92,1.92,0,0,1,1.47-.72c1.38,0,1.38,1.37,1.38,2.16a2.94,2.94,0,0,1-.29,1.59,1.46,1.46,0,0,1-1.21.59,1.69,1.69,0,0,1-1.35-.78M41.27,8.2V4.89l-2,.09v.53c.71,0,.78,0,.78.44v6.79h.54l.55-.63a2.25,2.25,0,0,0,1.65.7,2.58,2.58,0,0,0,2.85-2.59,2.5,2.5,0,0,0-2.7-2.57A2.62,2.62,0,0,0,41.27,8.2Z"/><path class="cls-18" d="M47.68,2.6l-1.18.09V3c.53,0,.59.06.59.44V7.46c0,.33-.08.33-.59.33v.29s.57,0,.88,0l.9,0V7.79c-.52,0-.6,0-.6-.33V2.6"/><path class="cls-18" d="M50.85,7.9a1.15,1.15,0,0,1-1-.48,2,2,0,0,1-.23-1.09,1.76,1.76,0,0,1,.28-1.15,1.23,1.23,0,0,1,.93-.4,1.16,1.16,0,0,1,1,.46,1.85,1.85,0,0,1,.25,1.09,2,2,0,0,1-.25,1.12,1.17,1.17,0,0,1-1,.45m1.94-1.5a1.94,1.94,0,0,0-3.87,0,1.94,1.94,0,0,0,3.87,0Z"/><path class="cls-18" d="M56.44,4.93a.36.36,0,0,0-.22.35.36.36,0,0,0,.37.37A.36.36,0,0,0,57,5.26c0-.7-1.1-.7-1.32-.7a1.85,1.85,0,0,0-1.92,1.81,1.83,1.83,0,0,0,1.88,1.79,1.37,1.37,0,0,0,1.45-1C57.06,7,57,7,56.93,7s-.11,0-.15.13a1.09,1.09,0,0,1-1.08.73c-.54,0-1.25-.4-1.25-1.53s.49-1.56,1.22-1.56a2.2,2.2,0,0,1,.77.12"/><path class="cls-18" d="M60.26,7a1,1,0,0,1-1,1,.73.73,0,0,1-.79-.66c0-.43.38-1,1.8-1.1V7m.63-1a1.06,1.06,0,0,0-.37-1,1.72,1.72,0,0,0-1.16-.39c-.75,0-1.28.28-1.28.76A.38.38,0,1,0,58.55,5a1.56,1.56,0,0,1,.79-.2.89.89,0,0,1,.92,1V6a4.62,4.62,0,0,0-1.53.25c-.71.26-.93.7-.93,1,0,.68.82.88,1.38.88a1.28,1.28,0,0,0,1.17-.67.64.64,0,0,0,.61.63.75.75,0,0,0,.78-.75V6.93h-.27v.43c0,.08,0,.46-.29.46s-.29-.37-.29-.48Z"/><path class="cls-18" d="M63.5,2.6l-1.19.09V3c.53,0,.6.06.6.44V7.46c0,.33-.08.33-.6.33v.29s.57,0,.89,0,.59,0,.89,0V7.79c-.51,0-.59,0-.59-.33V2.6"/><path class="cls-18" d="M48,15.4a.78.78,0,0,1-.79-.87A3.33,3.33,0,0,1,47.66,13a1.48,1.48,0,0,1,1.15-.7.79.79,0,0,1,.79.88,3.43,3.43,0,0,1-.44,1.52A1.47,1.47,0,0,1,48,15.4m2.26-2a1.35,1.35,0,0,0-1.43-1.38,2.37,2.37,0,0,0-2.27,2.18A1.35,1.35,0,0,0,48,15.62,2.36,2.36,0,0,0,50.25,13.44Z"/><path class="cls-13" d="M152.27,21.08V18.24a1.91,1.91,0,0,1,1.47-.72c1.38,0,1.38,1.37,1.38,2.16a3,3,0,0,1-.29,1.6,1.47,1.47,0,0,1-1.21.58,1.65,1.65,0,0,1-1.35-.78m-.07-3.41V14.35l-2,.09V15c.7,0,.78,0,.78.45V22.2h.53l.56-.63a2.25,2.25,0,0,0,1.65.7,2.58,2.58,0,0,0,2.85-2.59,2.51,2.51,0,0,0-2.71-2.57A2.58,2.58,0,0,0,152.2,17.67Z"/><path class="cls-13" d="M158.62,12.06l-1.18.09v.28c.53,0,.59.06.59.45v4c0,.34-.08.34-.59.34v.28s.56,0,.88,0,.59,0,.89,0v-.28c-.51,0-.59,0-.59-.34V12.06"/><path class="cls-13" d="M161.79,17.37a1.18,1.18,0,0,1-1-.48,2,2,0,0,1-.24-1.1,1.77,1.77,0,0,1,.29-1.15,1.23,1.23,0,0,1,.93-.4,1.16,1.16,0,0,1,1,.47,1.82,1.82,0,0,1,.24,1.08,1.89,1.89,0,0,1-.25,1.12,1.16,1.16,0,0,1-1,.46m1.93-1.51a1.94,1.94,0,0,0-3.87,0,1.94,1.94,0,0,0,3.87,0Z"/><path class="cls-13" d="M167.37,14.39a.36.36,0,0,0-.22.35.38.38,0,1,0,.75,0c0-.7-1.1-.7-1.32-.7a1.85,1.85,0,0,0-1.91,1.82,1.82,1.82,0,0,0,1.87,1.78,1.38,1.38,0,0,0,1.46-1c0-.09-.11-.09-.14-.09s-.11,0-.15.13a1.08,1.08,0,0,1-1.07.74c-.55,0-1.26-.4-1.26-1.54s.49-1.56,1.23-1.56a2.12,2.12,0,0,1,.76.12"/><path class="cls-13" d="M171.2,16.43a1,1,0,0,1-1,1,.73.73,0,0,1-.78-.66c0-.43.38-1,1.8-1.09v.78m.62-1a1.07,1.07,0,0,0-.36-1,1.73,1.73,0,0,0-1.17-.4c-.75,0-1.28.28-1.28.77a.36.36,0,0,0,.38.38.35.35,0,0,0,.37-.37.36.36,0,0,0-.27-.36,1.54,1.54,0,0,1,.79-.2.9.9,0,0,1,.92,1v.24a4.86,4.86,0,0,0-1.53.25c-.71.26-.93.7-.93,1,0,.68.82.88,1.38.88a1.29,1.29,0,0,0,1.17-.66.63.63,0,0,0,.6.62.75.75,0,0,0,.79-.75V16.4h-.27v.42c0,.08,0,.46-.29.46s-.3-.37-.3-.47Z"/><path class="cls-13" d="M174.43,12.06l-1.18.09v.28c.53,0,.59.06.59.45v4c0,.34-.08.34-.59.34v.28s.57,0,.88,0,.6,0,.9,0v-.28c-.52,0-.6,0-.6-.34V12.06"/><path class="cls-13" d="M157.94,24.08a1.14,1.14,0,0,0-.07.33.71.71,0,0,0,.75.68c.79,0,1.14-1.09,1.14-1.21s-.11-.1-.13-.1-.12,0-.15.13c-.18.63-.53.95-.84.95-.15,0-.19-.1-.19-.27a1.35,1.35,0,0,1,.12-.51c.08-.21.17-.42.26-.63s.35-.91.38-1a.74.74,0,0,0,0-.25.7.7,0,0,0-.75-.67c-.78,0-1.14,1.07-1.14,1.2s.11.11.13.11.12,0,.14-.13c.21-.68.55-1,.85-1,.12,0,.19.06.19.27a2,2,0,0,1-.24.79l-.5,1.27m1.61-4a.3.3,0,0,0-.31-.3.47.47,0,0,0-.45.44.31.31,0,0,0,.32.3A.47.47,0,0,0,159.55,20.07Z"/><path class="cls-18" d="M30.83,70.81c.15,0,.3,0,.3-.22s-.15-.23-.3-.23H26.24c-.14,0-.29,0-.29.23s.15.22.29.22h4.59"/><path class="cls-18" d="M36.09,71.81a3.56,3.56,0,0,0,.44-1.25.44.44,0,0,0-.42-.49c-.7,0-.77,1.19-.79,1.49s0,.18,0,.19a2,2,0,0,1-1.24.49,1.07,1.07,0,0,1-1.16-1.11,4.35,4.35,0,0,1,1-2.23c.1-.12.12-.16.12-.25a.23.23,0,0,0-.23-.23.36.36,0,0,0-.19.07A5.48,5.48,0,0,0,32.3,71.6c0,1.13.57,1.87,1.52,1.87a2.39,2.39,0,0,0,1.66-.81,1.25,1.25,0,0,0,1.21.81A3,3,0,0,0,39,72a6,6,0,0,0,.78-2.64c0-.86-.52-1-.75-1a.94.94,0,0,0-.85.85.62.62,0,0,0,.33.51,1,1,0,0,1,.53.82,2.15,2.15,0,0,1-2.12,1.74.89.89,0,0,1-.83-.43"/><path class="cls-18" d="M42.08,63.37l-1.17.09v.28c.53,0,.59,0,.59.43v4c0,.34-.08.34-.59.34v.28s.56,0,.88,0a8.72,8.72,0,0,1,.88,0V68.5c-.51,0-.59,0-.59-.34V63.37"/><path class="cls-18" d="M45.21,68.61a1.16,1.16,0,0,1-1-.48A1.94,1.94,0,0,1,44,67.05a1.7,1.7,0,0,1,.28-1.13,1.19,1.19,0,0,1,.92-.4,1.17,1.17,0,0,1,1,.46,1.84,1.84,0,0,1,.24,1.07,1.92,1.92,0,0,1-.25,1.1,1.14,1.14,0,0,1-.95.46m1.91-1.49a1.91,1.91,0,0,0-3.82,0,1.92,1.92,0,0,0,3.82,0Z"/><path class="cls-18" d="M50.72,65.67a.37.37,0,0,0,.15.71.35.35,0,0,0,.37-.38c0-.7-1.08-.7-1.3-.7a1.82,1.82,0,0,0-1.89,1.79,1.8,1.8,0,0,0,1.85,1.76,1.35,1.35,0,0,0,1.43-1c0-.09-.1-.09-.13-.09s-.11,0-.15.13a1.07,1.07,0,0,1-1.06.73c-.53,0-1.23-.4-1.23-1.52s.48-1.54,1.2-1.54a2.12,2.12,0,0,1,.76.12"/><path class="cls-18" d="M54.53,67.68a1,1,0,0,1-1,1,.72.72,0,0,1-.77-.65c0-.43.37-1,1.78-1.08v.77m.61-1a1.06,1.06,0,0,0-.36-1,1.74,1.74,0,0,0-1.15-.39c-.74,0-1.26.28-1.26.76a.35.35,0,0,0,.37.38.36.36,0,0,0,.37-.37.35.35,0,0,0-.27-.35,1.5,1.5,0,0,1,.77-.2.89.89,0,0,1,.92.94v.24A4.8,4.8,0,0,0,53,67c-.7.26-.92.69-.92,1,0,.67.81.86,1.37.86a1.26,1.26,0,0,0,1.15-.65.63.63,0,0,0,.6.62.74.74,0,0,0,.77-.74v-.43h-.26v.42c0,.08,0,.45-.29.45s-.29-.37-.29-.47Z"/><path class="cls-18" d="M57.72,63.37l-1.17.09v.28c.52,0,.58,0,.58.43v4c0,.34-.08.34-.58.34v.28s.56,0,.87,0a8.63,8.63,0,0,1,.88,0V68.5c-.51,0-.58,0-.58-.34V63.37"/><path class="cls-18" d="M42,76a.77.77,0,0,1-.78-.86,3.39,3.39,0,0,1,.45-1.53,1.46,1.46,0,0,1,1.14-.68.77.77,0,0,1,.78.86,3.33,3.33,0,0,1-.44,1.5A1.45,1.45,0,0,1,42,76m2.23-1.93a1.33,1.33,0,0,0-1.41-1.36,2.34,2.34,0,0,0-2.24,2.15A1.33,1.33,0,0,0,42,76.22,2.33,2.33,0,0,0,44.21,74.07Z"/><polygon class="cls-23" points="96.47 4.85 96.47 4.85 96.47 4.85 96.47 4.85 96.47 4.85 96.47 4.85 96.47 4.85 96.47 4.85 96.47 4.85 96.47 4.85 96.47 4.85 96.47 4.85 96.47 4.85 96.47 4.85 96.47 4.85 96.47 4.85 96.47 4.85 96.47 4.85 96.47 4.85 96.47 4.85 96.47 4.85 96.47 4.85 96.47 4.85 96.47 4.85 96.47 4.85 96.47 4.85 96.47 4.85 96.47 4.85 96.47 4.85 96.47 4.85 96.47 4.85 96.47 4.85 96.47 4.85 96.47 4.85 96.47 4.85 96.47 4.85 96.47 4.85 96.47 4.85 96.47 4.85 96.47 4.85 96.47 4.85 96.47 4.85 96.47 4.85 96.47 4.85 96.47 4.85 96.47 4.85 96.47 4.85 96.47 4.85 96.47 4.85 96.47 4.85 96.47 4.85 96.47 4.85 96.47 4.85 96.47 4.85 96.47 4.85 96.47 4.85 96.47 4.85 96.47 4.85 96.47 4.85 96.47 4.85 96.47 4.85 96.47 4.85 96.47 4.85 96.47 4.85 96.47 4.85 96.47 4.85 96.47 4.85 96.47 4.85 96.47 4.85 96.47 4.85 96.47 4.85 96.47 4.85 96.47 4.85 96.47 4.85 96.47 4.85 96.47 4.85 96.47 4.85 96.47 4.85 96.47 4.85 96.47 4.85 96.47 4.85 96.47 4.85 96.47 4.85 96.47 4.85 96.47 4.85 96.47 4.85 96.47 4.85"/><path class="cls-18" d="M15.67,47.36H8.75c-.16,0-.6,0-.6-.42s.44-.41.6-.41h3V39.85c0-.16,0-.6.41-.6s.42.41.42.6v6.68h3.05c.17,0,.58,0,.58.41S15.84,47.36,15.67,47.36Zm-6.92-.47c-.05,0-.2,0-.23,0v0s.18,0,.23,0h6.92a.72.72,0,0,0,.22,0v-.06a.62.62,0,0,0-.21,0H12.43l-.18-.18V39.85a.75.75,0,0,0,0-.23h-.05s0,.18,0,.23v6.86l-.18.18Z"/><path class="cls-18" d="M12.43,39.85c0-.21,0-.42-.23-.42s-.23.25-.23.42v6.86H8.75c-.17,0-.42,0-.42.23s.25.23.42.23h6.92c.19,0,.4,0,.4-.23s-.21-.23-.4-.23H12.43V39.85"/><path class="cls-18" d="M18.68,48.77a.8.8,0,0,1-.81-.9,3.38,3.38,0,0,1,.47-1.58,1.49,1.49,0,0,1,1.18-.71.79.79,0,0,1,.8.89A3.47,3.47,0,0,1,19.87,48a1.51,1.51,0,0,1-1.19.74m2.31-2a1.38,1.38,0,0,0-1.47-1.41,2.43,2.43,0,0,0-2.32,2.23A1.38,1.38,0,0,0,18.67,49,2.41,2.41,0,0,0,21,46.76Z"/><polygon class="cls-23" points="150.08 7.12 150.08 7.12 150.08 7.12 150.08 7.12 150.08 7.12 150.08 7.12 150.08 7.12 150.08 7.12 150.08 7.12 150.08 7.12 150.08 7.12 150.08 7.12 150.08 7.12 150.08 7.12 150.08 7.12 150.08 7.12 150.08 7.12 150.08 7.12 150.08 7.12 150.08 7.12 150.08 7.12 150.08 7.12 150.08 7.12 150.08 7.12 150.08 7.12 150.08 7.12 150.08 7.12 150.08 7.12 150.08 7.12 150.08 7.12 150.08 7.12 150.08 7.12 150.08 7.12 150.08 7.12 150.08 7.12 150.08 7.12 150.08 7.12 150.08 7.12 150.08 7.12 150.08 7.12 150.08 7.12 150.08 7.12 150.08 7.12 150.08 7.12 150.08 7.12 150.08 7.12 150.08 7.12 150.08 7.12 150.08 7.12 150.08 7.12 150.08 7.12 150.08 7.12 150.08 7.12 150.08 7.12 150.08 7.12 150.08 7.12 150.08 7.12 150.08 7.12 150.08 7.12 150.08 7.12 150.08 7.12 150.08 7.12 150.08 7.12 150.08 7.12 150.08 7.12 150.08 7.12 150.08 7.12 150.08 7.12 150.08 7.12 150.08 7.12 150.08 7.12 150.08 7.12 150.08 7.12 150.08 7.12 150.08 7.12 150.08 7.12 150.08 7.12 150.08 7.12 150.08 7.12 150.08 7.12 150.08 7.12 150.08 7.12 150.08 7.12 150.08 7.12 150.08 7.12 150.08 7.12 150.08 7.12"/><path class="cls-13" d="M122.61,59.39H115.7c-.17,0-.6,0-.6-.42s.43-.41.6-.41h3V51.89c0-.17,0-.6.42-.6s.41.4.41.6v6.67h3c.18,0,.59,0,.59.41S122.79,59.39,122.61,59.39Zm-6.91-.46a.86.86,0,0,0-.24,0v0a.75.75,0,0,0,.23,0h6.91a.65.65,0,0,0,.22,0v-.06h-3.45l-.18-.19V51.89a.79.79,0,0,0,0-.24h-.05a.58.58,0,0,0,0,.24v6.85l-.18.19Z"/><path class="cls-13" d="M119.38,51.89c0-.21,0-.42-.23-.42s-.23.24-.23.42v6.85H115.7c-.18,0-.42,0-.42.23s.24.24.42.24h6.91c.2,0,.41,0,.41-.24s-.21-.23-.41-.23h-3.23V51.89"/><path class="cls-13" d="M124.61,60a1.14,1.14,0,0,0-.07.34.72.72,0,0,0,.77.69c.81,0,1.16-1.12,1.16-1.24s-.1-.1-.13-.1-.12.05-.15.13c-.19.65-.54,1-.86,1-.16,0-.2-.1-.2-.28a1.37,1.37,0,0,1,.13-.52c.08-.22.17-.43.26-.64s.36-.93.39-1a.8.8,0,0,0,0-.26.72.72,0,0,0-.77-.69c-.8,0-1.17,1.1-1.17,1.24s.11.11.14.11.12,0,.14-.13c.21-.7.57-1,.87-1,.13,0,.2.06.2.28a2.19,2.19,0,0,1-.25.81l-.51,1.3m1.65-4.1a.31.31,0,0,0-.32-.31.48.48,0,0,0-.46.44.32.32,0,0,0,.33.31A.48.48,0,0,0,126.26,55.9Z"/></g><g id="Layer_3" data-name="Layer 3"><polygon class="cls-23" points="64.89 3.47 64.89 3.47 64.89 3.47 64.89 3.47 64.89 3.47 64.89 3.47 64.89 3.47 64.89 3.47 64.89 3.47 64.89 3.47 64.89 3.47 64.89 3.47 64.89 3.47 64.89 3.47 64.89 3.47 64.89 3.47 64.89 3.47 64.89 3.47 64.89 3.47 64.89 3.47 64.89 3.47 64.89 3.47 64.89 3.47 64.89 3.47 64.89 3.47 64.89 3.47 64.89 3.47 64.89 3.47 64.89 3.47 64.89 3.47 64.89 3.47 64.89 3.47 64.89 3.47 64.89 3.47 64.89 3.47 64.89 3.47 64.89 3.47 64.89 3.47 64.89 3.47 64.89 3.47 64.89 3.47 64.89 3.47 64.89 3.47 64.89 3.47 64.89 3.47 64.89 3.47 64.89 3.47 64.89 3.47 64.89 3.47 64.89 3.47 64.89 3.47 64.89 3.47 64.89 3.47 64.89 3.47 64.89 3.47 64.89 3.47 64.89 3.47 64.89 3.47 64.89 3.47 64.89 3.47 64.89 3.47 64.89 3.47 64.89 3.47 64.89 3.47 64.89 3.47 64.89 3.47 64.89 3.47 64.89 3.47 64.89 3.47 64.89 3.47 64.89 3.47 64.89 3.47 64.89 3.47 64.89 3.47 64.89 3.47 64.89 3.47 64.89 3.47 64.89 3.47 64.89 3.47 64.89 3.47 64.89 3.47 64.89 3.47 64.89 3.47 64.89 3.47 64.89 3.47 64.89 3.47 64.89 3.47 64.89 3.47 64.89 3.47"/><polygon class="cls-23" points="137.6 11.62 137.6 11.62 137.6 11.62 137.6 11.62 137.6 11.62 137.6 11.62 137.6 11.62 137.6 11.62 137.6 11.62 137.6 11.62 137.6 11.62 137.6 11.62 137.6 11.62 137.6 11.62 137.6 11.62 137.6 11.62 137.6 11.62 137.6 11.62 137.6 11.62 137.6 11.62 137.6 11.62 137.6 11.62 137.6 11.62 137.6 11.62 137.6 11.62 137.6 11.62 137.6 11.62 137.6 11.62 137.6 11.62 137.6 11.62 137.6 11.62 137.6 11.62 137.6 11.62 137.6 11.62 137.6 11.62 137.6 11.62 137.6 11.62 137.6 11.62 137.6 11.62 137.6 11.62 137.6 11.62 137.6 11.62 137.6 11.62 137.6 11.62 137.6 11.62 137.6 11.62 137.6 11.62 137.6 11.62 137.6 11.62 137.6 11.62 137.6 11.62 137.6 11.62 137.6 11.62 137.6 11.62 137.6 11.62 137.6 11.62 137.6 11.62 137.6 11.62 137.6 11.62 137.6 11.62 137.6 11.62 137.6 11.62 137.6 11.62 137.6 11.62 137.6 11.62 137.6 11.62 137.6 11.62 137.6 11.62 137.6 11.62 137.6 11.62 137.6 11.62 137.6 11.62 137.6 11.62 137.6 11.62 137.6 11.62 137.6 11.62 137.6 11.62 137.6 11.62 137.6 11.62 137.6 11.62 137.6 11.62 137.6 11.62 137.6 11.62 137.6 11.62 137.6 11.62 137.6 11.62 137.6 11.62 137.6 11.62 137.6 11.62"/><polygon class="cls-23" points="70.13 39.72 70.13 39.72 70.13 39.72 70.13 39.72 70.13 39.72 70.13 39.72 70.13 39.72 70.13 39.72 70.13 39.72 70.13 39.72 70.13 39.72 70.13 39.72 70.13 39.72 70.13 39.72 70.13 39.72 70.13 39.72 70.13 39.72 70.13 39.72 70.13 39.72 70.13 39.72 70.13 39.72 70.13 39.72 70.13 39.72 70.13 39.72 70.13 39.72 70.13 39.72 70.13 39.72 70.13 39.72 70.13 39.72 70.13 39.72 70.13 39.72 70.13 39.72 70.13 39.72 70.13 39.72 70.13 39.72 70.13 39.72 70.13 39.72 70.13 39.72 70.13 39.72 70.13 39.72 70.13 39.72 70.13 39.72 70.13 39.72 70.13 39.72 70.13 39.72 70.13 39.72 70.13 39.72 70.13 39.72 70.13 39.72 70.13 39.72 70.13 39.72 70.13 39.72 70.13 39.72 70.13 39.72 70.13 39.72 70.13 39.72 70.13 39.72 70.13 39.72 70.13 39.72 70.13 39.72 70.13 39.72 70.13 39.72 70.13 39.72 70.13 39.72 70.13 39.72 70.13 39.72 70.13 39.72 70.13 39.72 70.13 39.72 70.13 39.72 70.13 39.72 70.13 39.72 70.13 39.72 70.13 39.72 70.13 39.72 70.13 39.72 70.13 39.72 70.13 39.72 70.13 39.72 70.13 39.72 70.13 39.72 70.13 39.72 70.13 39.72 70.13 39.72 70.13 39.72 70.13 39.72 70.13 39.72 70.13 39.72 70.13 39.72 70.13 39.72 70.13 39.72"/></g></svg>