<svg id="Layer_5" data-name="Layer 5" xmlns="http://www.w3.org/2000/svg" xmlns:xlink="http://www.w3.org/1999/xlink" viewBox="0 0 111.3 92.37"><defs><style>.cls-1,.cls-12,.cls-15,.cls-18,.cls-20,.cls-22,.cls-23,.cls-4{fill:none;}.cls-2{clip-path:url(#clip-path);}.cls-3{fill:#c3996b;}.cls-12,.cls-13,.cls-3,.cls-4,.cls-5,.cls-6,.cls-7{stroke:#010101;}.cls-12,.cls-13,.cls-14,.cls-15,.cls-17,.cls-18,.cls-19,.cls-20,.cls-22,.cls-3,.cls-4,.cls-5,.cls-6{stroke-miterlimit:10;}.cls-14,.cls-17,.cls-18,.cls-3,.cls-4{stroke-width:0.63px;}.cls-5,.cls-6,.cls-7{fill:#eaeaea;}.cls-15,.cls-20,.cls-5,.cls-6,.cls-7{stroke-linecap:round;}.cls-5{stroke-width:0.69px;}.cls-6,.cls-7{stroke-width:0.63px;}.cls-23,.cls-7{stroke-linejoin:round;}.cls-8{fill:#010101;}.cls-17,.cls-19,.cls-9{fill:#bbbdbf;}.cls-10,.cls-13{fill:#fff;}.cls-11{fill:#212121;}.cls-12{stroke-width:1.31px;}.cls-14{fill:#3b9b76;opacity:0.8;}.cls-14,.cls-15,.cls-17,.cls-18,.cls-19{stroke:#231f20;}.cls-15{stroke-width:0.8px;}.cls-16{fill:#231f20;}.cls-19,.cls-23{stroke-width:0.3px;}.cls-20{stroke:#ed1c24;stroke-width:2px;}.cls-21{fill:#ed1c24;}.cls-22{stroke:#000;stroke-width:0px;opacity:0;}.cls-23{stroke:#4f6eb5;}.cls-24{fill:#889bcf;opacity:0.5;}.cls-25{fill:url(#linear-gradient);}</style><clipPath id="clip-path"><rect class="cls-1" width="111.3" height="92.37"/></clipPath><linearGradient id="linear-gradient" y1="46.59" x2="111.74" y2="46.59" gradientUnits="userSpaceOnUse"><stop offset="0.63" stop-color="#fff" stop-opacity="0"/><stop offset="0.64" stop-color="#fff" stop-opacity="0.04"/><stop offset="0.68" stop-color="#fff" stop-opacity="0.26"/><stop offset="0.73" stop-color="#fff" stop-opacity="0.46"/><stop offset="0.77" stop-color="#fff" stop-opacity="0.63"/><stop offset="0.81" stop-color="#fff" stop-opacity="0.76"/><stop offset="0.86" stop-color="#fff" stop-opacity="0.87"/><stop offset="0.9" stop-color="#fff" stop-opacity="0.94"/><stop offset="0.95" stop-color="#fff" stop-opacity="0.99"/><stop offset="1" stop-color="#fff"/></linearGradient></defs><g class="cls-2"><path class="cls-3" d="M130,42.46c.47.4,9.59,7.84,9.59,7.84v1.8h-3.25V88.63h-2.24l-2.3-31.48H129l-.49,19.76h-2l-2-19.75-42.33.68L80.26,77.58H78.17l-.7-19.76h-1.6L73.28,88.76H71L70.5,52.83H68V50.5s7.25-7.37,7.88-7.37C77.05,43.13,129.47,42.06,130,42.46Z"/><polyline class="cls-3" points="128.96 57.15 124.5 57.15 82.19 57.82 77.47 57.82"/><polyline class="cls-4" points="75.87 57.82 75.87 52.83 131.75 52.1 131.75 57.15"/><polyline class="cls-3" points="75.87 52.83 70.5 52.83 131.75 52.1 136.29 52.1"/><path class="cls-5" d="M91.72,44.22c0,5,16.88,4.52,16.87.31l0-4.39H91.72Z"/><path class="cls-6" d="M115.38,29.82c-1.29-2.7-7.46-.39-7.46-.39l2.66,9.07C110.35,38.74,116.74,32.67,115.38,29.82Zm-2,.53S114,32,110.62,35.6l-1.44-4.13a10,10,0,0,1,4.18-1.12"/><path class="cls-7" d="M92,27.84a31.75,31.75,0,0,0-2.41,5.91,9.12,9.12,0,0,1-2.32-1.9c-2.16-2.2-5.32-1-5.49.13-.26.91,2.64.79,3,1.81s4,8.05,6,8.74c.07,2.42,8.76,5.66,16.78,2.06s1.56-15.31,0-17.15"/><ellipse class="cls-8" cx="84" cy="31.69" rx="1.38" ry="0.38" transform="matrix(1, -0.08, 0.08, 1, -2.3, 6.93)"/><path class="cls-6" d="M99.76,25.64c-8,0-12.89,4.45.24,4.39S107.77,25.64,99.76,25.64Z"/><path class="cls-6" d="M97.86,27.07c1.18-1.23.11-2-.13-2.64s1.67-.76,2.07-.76,2.51.06,2.25.92-1.07.91-.45,2.48"/><g id="Eye"><path class="cls-9" d="M15.2,32c1.52,3.52.69,6.45-2.3,8.15A28.88,28.88,0,0,0,4,33.35l.35,0C7.58,33.51,11,33.66,15.2,32Z"/><path class="cls-8" d="M12.9,40.12c3-1.7,3.82-4.63,2.3-8.15C11,33.66,7.58,33.51,4.3,33.37l-.35,0A28.88,28.88,0,0,1,12.9,40.12Zm2.91-8.41c1.62,3.77.7,7.06-2.49,8.93.37.45.74.92,1.1,1.43l-.53.37A28,28,0,0,0,3,33.58l-.6-.32A.83.83,0,0,0,2.5,33a1,1,0,0,0,0-.34l1.81.07c3.9.17,7.57.34,12.67-2.27l.3.58C16.78,31.28,16.29,31.5,15.81,31.71Z"/><path class="cls-10" d="M15.4,36.54c-.41,1.37-1.46,2.26-2.32,2s-1.23-1.59-.81-3,1.46-2.25,2.33-2S15.82,35.18,15.4,36.54Z"/><path class="cls-11" d="M15.07,36.74a1,1,0,0,1-1.27.72,1,1,0,0,1-.52-1.35,1,1,0,0,1,1.27-.73A1,1,0,0,1,15.07,36.74Z"/></g><line class="cls-12" x1="101.41" y1="35.6" x2="84.82" y2="45.3"/><polygon class="cls-8" points="82.41 46.71 84.99 43.35 85 45.2 86.61 46.11 82.41 46.71"/><line class="cls-12" x1="106.91" y1="34.37" x2="136.76" y2="29.61"/><polygon class="cls-8" points="104.16 34.81 108.29 35.78 107.12 34.34 107.78 32.61 104.16 34.81"/><path class="cls-13" d="M103.39,35.6a2,2,0,1,1-2-2A2,2,0,0,1,103.39,35.6Z"/><line class="cls-12" x1="54.14" y1="42.9" x2="63.5" y2="44.7"/><polygon class="cls-8" points="51.41 42.37 54.96 44.69 54.35 42.94 55.56 41.54 51.41 42.37"/><polygon class="cls-14" points="58.28 41.76 66.26 33.5 68.9 46.9 60.92 55.16 58.28 41.76"/><line class="cls-15" x1="65.34" y1="52.83" x2="61.78" y2="34.78"/><polygon class="cls-16" points="63.02 34.89 61.44 33.09 60.67 35.36 63.02 34.89"/><line class="cls-12" x1="21.56" y1="37.34" x2="41.95" y2="41.23"/><polygon class="cls-8" points="18.82 36.82 22.38 39.13 21.76 37.38 22.98 35.98 18.82 36.82"/><polygon class="cls-17" points="33.76 55.32 33.76 32.5 49.58 28.5 49.58 51.32 33.76 55.32"/><line class="cls-9" x1="30.96" y1="44.62" x2="51.41" y2="39.45"/><line class="cls-18" x1="32.28" y1="44.28" x2="51.41" y2="39.45"/><polygon class="cls-16" points="32.78 45.13 30.96 44.62 32.32 43.3 32.78 45.13"/><line class="cls-19" x1="33.76" y1="38.43" x2="49.58" y2="34.43"/><line class="cls-19" x1="33.57" y1="49.39" x2="49.4" y2="45.39"/><line class="cls-18" x1="41.95" y1="55.08" x2="41.95" y2="28.74"/><polygon class="cls-16" points="42.9 29.01 41.95 27.37 41 29.01 42.9 29.01"/><line class="cls-19" x1="37.71" y1="54.13" x2="37.71" y2="31.31"/><line class="cls-19" x1="45.69" y1="52.43" x2="45.69" y2="29.61"/><path class="cls-20" d="M48,46.68a8.29,8.29,0,0,1,10.3-10.86"/><polygon class="cls-21" points="49.83 44.69 49.96 49.67 45.57 47.3 49.83 44.69"/><polygon class="cls-22" points="60.11 27.59 60.11 27.59 60.11 27.59 60.11 27.59 60.11 27.59 60.11 27.59 60.11 27.59 60.11 27.59 60.11 27.59 60.11 27.59 60.11 27.59 60.11 27.59 60.11 27.59 60.11 27.59 60.11 27.59 60.11 27.59 60.11 27.59 60.11 27.59 60.11 27.59 60.11 27.59 60.11 27.59 60.11 27.59 60.11 27.59 60.11 27.59 60.11 27.59 60.11 27.59 60.11 27.59 60.11 27.59 60.11 27.59 60.11 27.59 60.11 27.59 60.11 27.59 60.11 27.59 60.11 27.59 60.11 27.59 60.11 27.59 60.11 27.59 60.11 27.59 60.11 27.59 60.11 27.59 60.11 27.59 60.11 27.59 60.11 27.59 60.11 27.59 60.11 27.59 60.11 27.59 60.11 27.59 60.11 27.59 60.11 27.59 60.11 27.59 60.11 27.59 60.11 27.59 60.11 27.59 60.11 27.59 60.11 27.59 60.11 27.59 60.11 27.59 60.11 27.59 60.11 27.59 60.11 27.59 60.11 27.59 60.11 27.59 60.11 27.59 60.11 27.59 60.11 27.59 60.11 27.59 60.11 27.59 60.11 27.59 60.11 27.59 60.11 27.59 60.11 27.59 60.11 27.59 60.11 27.59 60.11 27.59 60.11 27.59 60.11 27.59 60.11 27.59 60.11 27.59 60.11 27.59 60.11 27.59 60.11 27.59 60.11 27.59 60.11 27.59 60.11 27.59 60.11 27.59 60.11 27.59 60.11 27.59"/><path d="M42.5,25.88v.4l.89,0V26c-.31,0-.35,0-.35-.2V24l-.92,0v.24c.31,0,.35,0,.35.2v1a.63.63,0,0,1-.63.69c-.39,0-.4-.13-.4-.4V24l-.93,0v.24c.31,0,.35,0,.35.2v1.18c0,.54.41.65.91.65a.79.79,0,0,0,.73-.4"/><polygon class="cls-22" points="79.58 15.24 79.58 15.24 79.58 15.24 79.58 15.24 79.58 15.24 79.58 15.24 79.58 15.24 79.58 15.24 79.58 15.24 79.58 15.24 79.58 15.24 79.58 15.24 79.58 15.24 79.58 15.24 79.58 15.24 79.58 15.24 79.58 15.24 79.58 15.24 79.58 15.24 79.58 15.24 79.58 15.24 79.58 15.24 79.58 15.24 79.58 15.24 79.58 15.24 79.58 15.24 79.58 15.24 79.58 15.24 79.58 15.24 79.58 15.24 79.58 15.24 79.58 15.24 79.58 15.24 79.58 15.24 79.58 15.24 79.58 15.24 79.58 15.24 79.58 15.24 79.58 15.24 79.58 15.24 79.58 15.24 79.58 15.24 79.58 15.24 79.58 15.24 79.58 15.24 79.58 15.24 79.58 15.24 79.58 15.24 79.58 15.24 79.58 15.24 79.58 15.24 79.58 15.24 79.58 15.24 79.58 15.24 79.58 15.24 79.58 15.24 79.58 15.24 79.58 15.24 79.58 15.24 79.58 15.24 79.58 15.24 79.58 15.24 79.58 15.24 79.58 15.24 79.58 15.24 79.58 15.24 79.58 15.24 79.58 15.24 79.58 15.24 79.58 15.24 79.58 15.24 79.58 15.24 79.58 15.24 79.58 15.24 79.58 15.24 79.58 15.24 79.58 15.24 79.58 15.24 79.58 15.24 79.58 15.24 79.58 15.24 79.58 15.24 79.58 15.24 79.58 15.24 79.58 15.24 79.58 15.24 79.58 15.24"/><line class="cls-12" x1="63.5" y1="44.7" x2="79.74" y2="47.83"/><polygon class="cls-22" points="60.8 29.55 60.8 29.55 60.8 29.55 60.8 29.55 60.8 29.55 60.8 29.55 60.8 29.55 60.8 29.55 60.8 29.55 60.8 29.55 60.8 29.55 60.8 29.55 60.8 29.55 60.8 29.55 60.8 29.55 60.8 29.55 60.8 29.55 60.8 29.55 60.8 29.55 60.8 29.55 60.8 29.55 60.8 29.55 60.8 29.55 60.8 29.55 60.8 29.55 60.8 29.55 60.8 29.55 60.8 29.55 60.8 29.55 60.8 29.55 60.8 29.55 60.8 29.55 60.8 29.55 60.8 29.55 60.8 29.55 60.8 29.55 60.8 29.55 60.8 29.55 60.8 29.55 60.8 29.55 60.8 29.55 60.8 29.55 60.8 29.55 60.8 29.55 60.8 29.55 60.8 29.55 60.8 29.55 60.8 29.55 60.8 29.55 60.8 29.55 60.8 29.55 60.8 29.55 60.8 29.55 60.8 29.55 60.8 29.55 60.8 29.55 60.8 29.55 60.8 29.55 60.8 29.55 60.8 29.55 60.8 29.55 60.8 29.55 60.8 29.55 60.8 29.55 60.8 29.55 60.8 29.55 60.8 29.55 60.8 29.55 60.8 29.55 60.8 29.55 60.8 29.55 60.8 29.55 60.8 29.55 60.8 29.55 60.8 29.55 60.8 29.55 60.8 29.55 60.8 29.55 60.8 29.55 60.8 29.55 60.8 29.55 60.8 29.55 60.8 29.55 60.8 29.55 60.8 29.55 60.8 29.55 60.8 29.55 60.8 29.55 60.8 29.55 60.8 29.55"/><path d="M59.46,30.55V29.07a1,1,0,0,1,.76-.38c.72,0,.72.72.72,1.13a1.54,1.54,0,0,1-.15.83.77.77,0,0,1-.63.31.87.87,0,0,1-.7-.41m0-1.78V27l-1,.05v.28c.36,0,.41,0,.41.23v3.53h.27l.29-.33a1.18,1.18,0,0,0,.86.37,1.35,1.35,0,0,0,1.49-1.35,1.31,1.31,0,0,0-1.41-1.34A1.35,1.35,0,0,0,59.42,28.77Z"/><path d="M63.09,31.93a.59.59,0,0,1-.51-.25,1.29,1.29,0,0,1,0-1.17.64.64,0,0,1,.49-.21.62.62,0,0,1,.5.24.93.93,0,0,1,.13.57,1,1,0,0,1-.13.58.59.59,0,0,1-.5.24m1-.79a1,1,0,0,0-2,0,1,1,0,0,0,2,0Z"/><path d="M65.75,30.25v.15c.27,0,.31,0,.31.23v.7a.57.57,0,0,1-.55.62c-.37,0-.39-.18-.39-.39V30.21l-.63,0v.15c.3,0,.3,0,.3.38v.62c0,.28,0,.66.69.66a.64.64,0,0,0,.59-.34h0v.34l.62,0v-.15c-.27,0-.31,0-.31-.23V30.21l-.63,0"/><path d="M67.68,30.4h.65v-.15h-.65v-.76h-.14c0,.37-.17.78-.56.79v.12h.38v1.11a.51.51,0,0,0,.57.55.5.5,0,0,0,.47-.56v-.22h-.14v.22c0,.28-.13.43-.29.43s-.29-.35-.29-.42V30.4"/><polygon class="cls-22" points="59.71 5.44 59.71 5.44 59.71 5.44 59.71 5.44 59.71 5.44 59.71 5.44 59.71 5.44 59.71 5.44 59.71 5.44 59.71 5.44 59.71 5.44 59.71 5.44 59.71 5.44 59.71 5.44 59.71 5.44 59.71 5.44 59.71 5.44 59.71 5.44 59.71 5.44 59.71 5.44 59.71 5.44 59.71 5.44 59.71 5.44 59.71 5.44 59.71 5.44 59.71 5.44 59.71 5.44 59.71 5.44 59.71 5.44 59.71 5.44 59.71 5.44 59.71 5.44 59.71 5.44 59.71 5.44 59.71 5.44 59.71 5.44 59.71 5.44 59.71 5.44 59.71 5.44 59.71 5.44 59.71 5.44 59.71 5.44 59.71 5.44 59.71 5.44 59.71 5.44 59.71 5.44 59.71 5.44 59.71 5.44 59.71 5.44 59.71 5.44 59.71 5.44 59.71 5.44 59.71 5.44 59.71 5.44 59.71 5.44 59.71 5.44 59.71 5.44 59.71 5.44 59.71 5.44 59.71 5.44 59.71 5.44 59.71 5.44 59.71 5.44 59.71 5.44 59.71 5.44 59.71 5.44 59.71 5.44 59.71 5.44 59.71 5.44 59.71 5.44 59.71 5.44 59.71 5.44 59.71 5.44 59.71 5.44 59.71 5.44 59.71 5.44 59.71 5.44 59.71 5.44 59.71 5.44 59.71 5.44 59.71 5.44 59.71 5.44 59.71 5.44 59.71 5.44 59.71 5.44 59.71 5.44 59.71 5.44 59.71 5.44 59.71 5.44 59.71 5.44"/><path d="M22.26,46.84V45.36A1,1,0,0,1,23,45c.72,0,.72.72.72,1.13a1.54,1.54,0,0,1-.15.83.77.77,0,0,1-.63.31.87.87,0,0,1-.7-.41m0-1.78V43.33l-1,.05v.28c.36,0,.41,0,.41.23v3.53h.27l.29-.33a1.18,1.18,0,0,0,.86.37,1.35,1.35,0,0,0,1.49-1.35,1.31,1.31,0,0,0-1.41-1.34A1.35,1.35,0,0,0,22.22,45.06Z"/><path d="M26.32,46.67a.18.18,0,0,0-.12.18.19.19,0,0,0,.2.19.18.18,0,0,0,.19-.2c0-.36-.57-.36-.68-.36a.94.94,0,1,0,0,1.87.71.71,0,0,0,.75-.53s-.05,0-.07,0-.05,0-.07.07a.57.57,0,0,1-.56.38c-.29,0-.66-.21-.66-.8s.26-.81.64-.81a1.19,1.19,0,0,1,.4.06"/><path d="M28.33,47.73a.51.51,0,0,1-.53.51.38.38,0,0,1-.41-.35c0-.22.2-.54.94-.57v.41m.32-.52a.56.56,0,0,0-.19-.53.87.87,0,0,0-.6-.2c-.4,0-.67.14-.67.4a.19.19,0,0,0,.2.2.2.2,0,0,0,.05-.39.8.8,0,0,1,.41-.1.47.47,0,0,1,.48.5v.13a2.25,2.25,0,0,0-.8.13c-.37.13-.48.36-.48.54,0,.36.42.46.71.46a.66.66,0,0,0,.61-.34.34.34,0,0,0,.32.32.39.39,0,0,0,.41-.39v-.23H29v.23s0,.23-.15.23-.16-.19-.16-.24Z"/><path d="M32.55,47.06c0-.35-.18-.56-.62-.56a.71.71,0,0,0-.66.38c-.08-.29-.3-.38-.6-.38a.72.72,0,0,0-.67.4h0v-.4l-.6,0v.15c.27,0,.31,0,.31.23V48c0,.17,0,.17-.31.17v.15l.47,0,.47,0v-.15c-.27,0-.31,0-.31-.17v-.74a.61.61,0,0,1,.61-.64c.29,0,.33.23.33.44V48c0,.17,0,.17-.31.17v.15l.47,0,.47,0v-.15c-.27,0-.31,0-.31-.17v-.74a.61.61,0,0,1,.62-.64c.28,0,.32.23.32.44V48c0,.17,0,.17-.31.17v.15l.47,0,.47,0v-.15c-.26,0-.3,0-.3-.17v-.93"/><path class="cls-13" d="M81.72,47.83a2,2,0,1,1-2-2A2,2,0,0,1,81.72,47.83Z"/><polygon class="cls-22" points="3.28 50.23 3.28 50.23 3.28 50.23 3.28 50.23 3.28 50.23 3.28 50.23 3.28 50.23 3.28 50.23 3.28 50.23 3.28 50.23 3.28 50.23 3.28 50.23 3.28 50.23 3.28 50.23 3.28 50.23 3.28 50.23 3.28 50.23 3.28 50.23 3.28 50.23 3.28 50.23 3.28 50.23 3.28 50.23 3.28 50.23 3.28 50.23 3.28 50.23 3.28 50.23 3.28 50.23 3.28 50.23 3.28 50.23 3.28 50.23 3.28 50.23 3.28 50.23 3.28 50.23 3.28 50.23 3.28 50.23 3.28 50.23 3.28 50.23 3.28 50.23 3.28 50.23 3.28 50.23 3.28 50.23 3.28 50.23 3.28 50.23 3.28 50.23 3.28 50.23 3.28 50.23 3.28 50.23 3.28 50.23 3.28 50.23 3.28 50.23 3.28 50.23 3.28 50.23 3.28 50.23 3.28 50.23 3.28 50.23 3.28 50.23 3.28 50.23 3.28 50.23 3.28 50.23 3.28 50.23 3.28 50.23 3.28 50.23 3.28 50.23 3.28 50.23 3.28 50.23 3.28 50.23 3.28 50.23 3.28 50.23 3.28 50.23 3.28 50.23 3.28 50.23 3.28 50.23 3.28 50.23 3.28 50.23 3.28 50.23 3.28 50.23 3.28 50.23 3.28 50.23 3.28 50.23 3.28 50.23 3.28 50.23 3.28 50.23 3.28 50.23 3.28 50.23 3.28 50.23 3.28 50.23 3.28 50.23 3.28 50.23 3.28 50.23 3.28 50.23 3.28 50.23 3.28 50.23 3.28 50.23 3.28 50.23 3.28 50.23"/><polygon class="cls-22" points="23.18 20.35 23.18 20.35 23.18 20.35 23.18 20.35 23.18 20.35 23.18 20.35 23.18 20.35 23.18 20.35 23.18 20.35 23.18 20.35 23.18 20.35 23.18 20.35 23.18 20.35 23.18 20.35 23.18 20.35 23.18 20.35 23.18 20.35 23.18 20.35 23.18 20.35 23.18 20.35 23.18 20.35 23.18 20.35 23.18 20.35 23.18 20.35 23.18 20.35 23.18 20.35 23.18 20.35 23.18 20.35 23.18 20.35 23.18 20.35 23.18 20.35 23.18 20.35 23.18 20.35 23.18 20.35 23.18 20.35 23.18 20.35 23.18 20.35 23.18 20.35 23.18 20.35 23.18 20.35 23.18 20.35 23.18 20.35 23.18 20.35 23.18 20.35 23.18 20.35 23.18 20.35 23.18 20.35 23.18 20.35 23.18 20.35 23.18 20.35 23.18 20.35 23.18 20.35 23.18 20.35 23.18 20.35 23.18 20.35 23.18 20.35 23.18 20.35 23.18 20.35 23.18 20.35 23.18 20.35 23.18 20.35 23.18 20.35 23.18 20.35 23.18 20.35 23.18 20.35 23.18 20.35 23.18 20.35 23.18 20.35 23.18 20.35 23.18 20.35 23.18 20.35 23.18 20.35 23.18 20.35 23.18 20.35 23.18 20.35 23.18 20.35 23.18 20.35 23.18 20.35 23.18 20.35 23.18 20.35 23.18 20.35 23.18 20.35 23.18 20.35 23.18 20.35 23.18 20.35 23.18 20.35 23.18 20.35"/><path d="M22.16,31.3c-.31-.06-.86-.15-.86-.55s.78-.52.94-.52c.64,0,1,.24,1,.71,0,.13,0,.17.2.17s.2,0,.2-.24V30.2c0-.16,0-.24-.15-.24s0,0-.38.16a2,2,0,0,0-.86-.16c-.25,0-1.55,0-1.55,1.11a.93.93,0,0,0,.34.71,2.42,2.42,0,0,0,1.31.46c.3,0,.93.16.93.66s-.77.63-1,.63a1.16,1.16,0,0,1-1.22-1c0-.12-.08-.12-.2-.12s-.2,0-.2.25v.92c0,.16,0,.24.15.24s.08,0,.25-.13l.22-.14a1.73,1.73,0,0,0,1,.27c.26,0,1.56,0,1.56-1.24a1.11,1.11,0,0,0-.46-.89,2.48,2.48,0,0,0-1.26-.41"/><path class="cls-23" d="M24.35,28.49c-.49.79,0,1.8.9,1.37l10.37-5.65a.82.82,0,0,0,.46-.74v-21a.83.83,0,0,0-.83-.83h-7.5a.83.83,0,0,0-.82.83V23.6Z"/><path class="cls-24" d="M24.35,28.49c-.49.79,0,1.8.9,1.37l10.37-5.65a.82.82,0,0,0,.46-.74v-21a.83.83,0,0,0-.83-.83h-7.5a.83.83,0,0,0-.82.83V23.6Z"/><polyline points="28.27 10.08 28.55 10.08 28.55 3.07 29.62 3.07 29.62 2.79 28.27 2.79 28.27 10.08"/><rect x="28.27" y="10.07" width="0.28" height="2.44"/><rect x="28.27" y="12.5" width="0.28" height="2.44"/><polyline points="28.27 22.21 29.62 22.21 29.62 21.93 28.55 21.93 28.55 14.92 28.27 14.92 28.27 22.21"/><path d="M30.5,5c-.15,0-.42-.07-.42-.26s.38-.25.46-.25c.3,0,.46.11.48.34,0,.06,0,.08.09.08s.1,0,.1-.12V4.46c0-.08,0-.11-.08-.11L31,4.42a1,1,0,0,0-.41-.07c-.12,0-.74,0-.74.53a.44.44,0,0,0,.16.34,1.16,1.16,0,0,0,.63.22c.14,0,.45.08.45.32s-.38.3-.47.3A.55.55,0,0,1,30,5.59c0-.06,0-.06-.1-.06s-.09,0-.09.12v.44c0,.08,0,.12.07.12s0,0,.12-.06l.11-.07a.79.79,0,0,0,.47.13c.13,0,.75,0,.75-.59a.53.53,0,0,0-.22-.43,1.17,1.17,0,0,0-.6-.2"/><path d="M32.28,6.77a.38.38,0,0,1-.36-.31,3.89,3.89,0,0,1,0-.61,2.51,2.51,0,0,1,0-.57.36.36,0,0,1,.7,0,2.1,2.1,0,0,1,0,.6,3.82,3.82,0,0,1,0,.6.37.37,0,0,1-.37.32m.66-.88a1.26,1.26,0,0,0-.17-.73.58.58,0,0,0-.49-.25c-.65,0-.65.78-.65,1s0,1,.65,1S32.94,6.09,32.94,5.89Z"/><path d="M30.5,9.85c-.15,0-.42-.07-.42-.26s.38-.25.46-.25c.3,0,.46.12.48.34,0,.06,0,.08.09.08s.1,0,.1-.11V9.32c0-.07,0-.11-.08-.11L31,9.29a.83.83,0,0,0-.41-.08c-.12,0-.74,0-.74.53a.44.44,0,0,0,.16.34,1.08,1.08,0,0,0,.63.22c.14,0,.45.08.45.32s-.38.3-.47.3a.55.55,0,0,1-.58-.47s0,0-.1,0-.09,0-.09.11V11c0,.07,0,.11.07.11s0,0,.12-.06l.11-.07a.79.79,0,0,0,.47.13c.13,0,.75,0,.75-.59a.53.53,0,0,0-.22-.43,1.27,1.27,0,0,0-.6-.2"/><path d="M32.43,9.84c0-.07,0-.07-.09-.07a.79.79,0,0,1-.55.18v.1A.93.93,0,0,0,32.2,10v1.44c0,.09,0,.13-.28.13h-.11v.1h1v-.1h-.11c-.28,0-.28,0-.28-.13V9.84"/><path d="M30.5,14.7c-.15,0-.42-.07-.42-.26s.38-.25.46-.25c.3,0,.46.12.48.34,0,.06,0,.08.09.08s.1,0,.1-.11v-.33c0-.07,0-.11-.08-.11l-.18.08a1,1,0,0,0-.41-.08c-.12,0-.74,0-.74.53a.44.44,0,0,0,.16.34,1.08,1.08,0,0,0,.63.22c.14,0,.45.08.45.32s-.38.3-.47.3A.55.55,0,0,1,30,15.3c0-.05,0-.05-.1-.05s-.09,0-.09.12v.44c0,.07,0,.11.07.11s0,0,.12-.06l.11-.07a.79.79,0,0,0,.47.13c.13,0,.75,0,.75-.59a.53.53,0,0,0-.22-.43,1.27,1.27,0,0,0-.6-.2"/><path d="M32.91,16h-.1c0,.06,0,.23-.07.26a1.23,1.23,0,0,1-.28,0h-.52c.3-.27.39-.35.56-.48s.41-.34.41-.61a.59.59,0,0,0-.66-.55.55.55,0,0,0-.59.5.14.14,0,0,0,.15.16.15.15,0,0,0,.15-.15c0-.05,0-.15-.17-.15a.44.44,0,0,1,.41-.26.42.42,0,0,1,.43.45.84.84,0,0,1-.26.54l-.68.67s0,0,0,.12h1.16l.09-.52"/><path d="M30.5,19.56c-.15,0-.42-.08-.42-.27s.38-.25.46-.25c.3,0,.46.12.48.34,0,.06,0,.08.09.08s.1,0,.1-.11V19c0-.08,0-.12-.08-.12L31,19a1,1,0,0,0-.41-.08c-.12,0-.74,0-.74.53a.44.44,0,0,0,.16.34,1.16,1.16,0,0,0,.63.23c.14,0,.45.07.45.31s-.38.31-.47.31a.56.56,0,0,1-.58-.47c0-.06,0-.06-.1-.06s-.09,0-.09.12v.44c0,.08,0,.11.07.11s0,0,.12-.06l.11-.07a.79.79,0,0,0,.47.13c.13,0,.75,0,.75-.59a.54.54,0,0,0-.22-.43,1.18,1.18,0,0,0-.6-.19"/><path d="M32.25,20.41c.22,0,.38.15.38.46s-.2.45-.37.45a.61.61,0,0,1-.48-.2c.14,0,.17-.09.17-.15a.16.16,0,0,0-.16-.16.15.15,0,0,0-.16.16c0,.27.3.44.64.44a.61.61,0,0,0,.66-.54.57.57,0,0,0-.49-.51.54.54,0,0,0,.41-.49c0-.22-.26-.39-.57-.39s-.56.15-.56.38a.14.14,0,0,0,.15.15.14.14,0,0,0,.14-.15.13.13,0,0,0-.14-.14.52.52,0,0,1,.4-.16.28.28,0,0,1,.3.31.58.58,0,0,1-.11.34.38.38,0,0,1-.31.12h-.09s0,0,0,0,0,0,.07,0h.15"/><polyline points="34.4 10.08 34.67 10.08 34.67 2.79 33.33 2.79 33.33 3.07 34.4 3.07 34.4 10.08"/><rect x="34.4" y="10.07" width="0.28" height="2.44"/><rect x="34.4" y="12.5" width="0.28" height="2.44"/><polyline points="34.4 21.93 33.33 21.93 33.33 22.21 34.67 22.21 34.67 14.92 34.4 14.92 34.4 21.93"/><rect class="cls-25" y="2.17" width="111.74" height="88.84"/></g></svg>