<svg xmlns="http://www.w3.org/2000/svg" xmlns:xlink="http://www.w3.org/1999/xlink" viewBox="0 0 302.81 111.41"><defs><style>.cls-1,.cls-10,.cls-8,.cls-9{fill:none;}.cls-2{fill:#989898;}.cls-10,.cls-12,.cls-13,.cls-14,.cls-2,.cls-4,.cls-5,.cls-6,.cls-7,.cls-9{stroke:#010101;}.cls-10,.cls-12,.cls-13,.cls-14,.cls-2,.cls-3,.cls-4,.cls-5,.cls-6,.cls-7,.cls-8,.cls-9{stroke-miterlimit:10;}.cls-10,.cls-12,.cls-13,.cls-14,.cls-2,.cls-3,.cls-4,.cls-5,.cls-6,.cls-7,.cls-9{stroke-width:0.41px;}.cls-3{fill:#dcdbdb;stroke:#606161;}.cls-4{fill:#8786c1;}.cls-5{fill:#9fdae6;}.cls-6{fill:#aad37a;}.cls-7{fill:#f9ad86;}.cls-10,.cls-8{stroke-linecap:round;}.cls-8{stroke-width:2.44px;stroke:url(#linear-gradient);}.cls-11,.cls-15,.cls-16{fill:#010101;}.cls-12{fill:#879cd0;}.cls-13{fill:#98cd71;}.cls-14{fill:#f37f81;}.cls-15,.cls-16{isolation:isolate;font-size:8.13px;}.cls-15{font-family:LinLibertine, Linux Libertine;}.cls-16{font-family:Menlo-Regular, Menlo;}.cls-17{clip-path:url(#clip-path);}.cls-18{clip-path:url(#clip-path-7);}.cls-19{clip-path:url(#clip-path-15);}</style><linearGradient id="linear-gradient" x1="470.62" y1="682.45" x2="538.36" y2="682.45" gradientTransform="matrix(0.67, -0.49, -0.6, -0.8, 343.78, 879.38)" gradientUnits="userSpaceOnUse"><stop offset="0" stop-color="#ed2224"/><stop offset="0.05" stop-color="#ef4423"/><stop offset="0.11" stop-color="#f8971d"/><stop offset="0.19" stop-color="#dedc1f"/><stop offset="0.22" stop-color="#cddc29"/><stop offset="0.32" stop-color="#78c143"/><stop offset="0.33" stop-color="#72bf44"/><stop offset="0.44" stop-color="#71bf4e"/><stop offset="0.56" stop-color="#70cddd"/><stop offset="0.67" stop-color="#416ab3"/><stop offset="0.78" stop-color="#4453a4"/><stop offset="0.89" stop-color="#9951a0"/><stop offset="1" stop-color="#ed2224"/></linearGradient><clipPath id="clip-path"><rect class="cls-1" x="25.68" y="103.79" width="29.71" height="6.34"/></clipPath><clipPath id="clip-path-7"><rect class="cls-1" x="116.64" y="103.79" width="36.46" height="6.34"/></clipPath><clipPath id="clip-path-15"><rect class="cls-1" x="228.77" y="103.79" width="36.46" height="6.34"/></clipPath></defs><g id="Layer_4" data-name="Layer 4"><path class="cls-2" d="M68.44,96.68H12.35a1.05,1.05,0,0,1-1.06-1.06V39.29a1.05,1.05,0,0,1,1.06-1.06H68.72a1.05,1.05,0,0,1,1.06,1.06V95.38A1.35,1.35,0,0,1,68.44,96.68Z"/><rect class="cls-3" x="13.53" y="40.43" width="11.14" height="11.14"/><rect class="cls-3" x="27.67" y="40.43" width="11.14" height="11.14"/><rect class="cls-3" x="41.81" y="40.43" width="11.14" height="11.14"/><rect class="cls-3" x="55.96" y="40.43" width="11.14" height="11.14"/><rect class="cls-3" x="13.53" y="54.73" width="11.14" height="11.14"/><rect class="cls-3" x="27.67" y="54.73" width="11.14" height="11.14"/><rect class="cls-3" x="41.81" y="54.73" width="11.14" height="11.14"/><rect class="cls-3" x="55.96" y="54.73" width="11.14" height="11.14"/><rect class="cls-3" x="13.53" y="69.04" width="11.14" height="11.14"/><rect class="cls-3" x="27.67" y="69.04" width="11.14" height="11.14"/><rect class="cls-3" x="41.81" y="69.04" width="11.14" height="11.14"/><rect class="cls-3" x="55.96" y="69.04" width="11.14" height="11.14"/><rect class="cls-3" x="13.53" y="83.35" width="11.14" height="11.14"/><rect class="cls-3" x="27.67" y="83.35" width="11.14" height="11.14"/><rect class="cls-3" x="41.81" y="83.35" width="11.14" height="11.14"/><rect class="cls-3" x="55.96" y="83.35" width="11.14" height="11.14"/><path class="cls-4" d="M226.37,13.81H282.7a1,1,0,0,1,1.06,1V71.19a1.05,1.05,0,0,1-1.06,1.06H226.37a1,1,0,0,1-1.05-1.06V14.86A1,1,0,0,1,226.37,13.81Z"/><rect class="cls-3" x="227.51" y="16" width="11.14" height="11.14"/><rect class="cls-3" x="241.66" y="16" width="11.14" height="11.14"/><rect class="cls-3" x="255.8" y="16" width="11.14" height="11.14"/><rect class="cls-3" x="269.94" y="16" width="11.14" height="11.14"/><rect class="cls-3" x="227.51" y="30.31" width="11.14" height="11.14"/><rect class="cls-3" x="241.66" y="30.31" width="11.14" height="11.14"/><rect class="cls-3" x="255.8" y="30.31" width="11.14" height="11.14"/><rect class="cls-3" x="269.94" y="30.31" width="11.14" height="11.14"/><rect class="cls-3" x="227.51" y="44.61" width="11.14" height="11.14"/><rect class="cls-3" x="241.66" y="44.61" width="11.14" height="11.14"/><rect class="cls-3" x="255.8" y="44.61" width="11.14" height="11.14"/><rect class="cls-3" x="269.94" y="44.61" width="11.14" height="11.14"/><rect class="cls-3" x="227.51" y="58.92" width="11.14" height="11.14"/><rect class="cls-3" x="241.66" y="58.92" width="11.14" height="11.14"/><rect class="cls-3" x="255.8" y="58.92" width="11.14" height="11.14"/><rect class="cls-3" x="269.94" y="58.92" width="11.14" height="11.14"/><path class="cls-5" d="M216.05,21.61h56.33a1.05,1.05,0,0,1,1.06,1.06V79a1,1,0,0,1-1.06,1H216.05A1,1,0,0,1,215,79V22.67A1,1,0,0,1,216.05,21.61Z"/><rect class="cls-3" x="217.19" y="23.8" width="11.14" height="11.14"/><rect class="cls-3" x="231.33" y="23.8" width="11.14" height="11.14"/><rect class="cls-3" x="245.48" y="23.8" width="11.14" height="11.14"/><rect class="cls-3" x="259.62" y="23.8" width="11.14" height="11.14"/><rect class="cls-3" x="217.19" y="38.11" width="11.14" height="11.14"/><rect class="cls-3" x="231.33" y="38.11" width="11.14" height="11.14"/><rect class="cls-3" x="245.48" y="38.11" width="11.14" height="11.14"/><rect class="cls-3" x="259.62" y="38.11" width="11.14" height="11.14"/><rect class="cls-3" x="217.19" y="52.42" width="11.14" height="11.14"/><rect class="cls-3" x="231.33" y="52.42" width="11.14" height="11.14"/><rect class="cls-3" x="245.48" y="52.42" width="11.14" height="11.14"/><rect class="cls-3" x="259.62" y="52.42" width="11.14" height="11.14"/><rect class="cls-3" x="217.19" y="66.72" width="11.14" height="11.14"/><rect class="cls-3" x="231.33" y="66.72" width="11.14" height="11.14"/><rect class="cls-3" x="245.48" y="66.72" width="11.14" height="11.14"/><rect class="cls-3" x="259.62" y="66.72" width="11.14" height="11.14"/><path class="cls-6" d="M209.26,26.73h56.33a1.05,1.05,0,0,1,1.06,1.06V84.12a1,1,0,0,1-1.06,1H209.26a1,1,0,0,1-1-1V27.79A1,1,0,0,1,209.26,26.73Z"/><rect class="cls-3" x="210.44" y="28.92" width="11.14" height="11.14"/><rect class="cls-3" x="224.59" y="28.92" width="11.14" height="11.14"/><rect class="cls-3" x="238.73" y="28.92" width="11.14" height="11.14"/><rect class="cls-3" x="252.87" y="28.92" width="11.14" height="11.14"/><rect class="cls-3" x="210.44" y="43.23" width="11.14" height="11.14"/><rect class="cls-3" x="224.59" y="43.23" width="11.14" height="11.14"/><rect class="cls-3" x="238.73" y="43.23" width="11.14" height="11.14"/><rect class="cls-3" x="252.87" y="43.23" width="11.14" height="11.14"/><rect class="cls-3" x="210.44" y="57.54" width="11.14" height="11.14"/><rect class="cls-3" x="224.59" y="57.54" width="11.14" height="11.14"/><rect class="cls-3" x="238.73" y="57.54" width="11.14" height="11.14"/><rect class="cls-3" x="252.87" y="57.54" width="11.14" height="11.14"/><rect class="cls-3" x="210.44" y="71.84" width="11.14" height="11.14"/><rect class="cls-3" x="224.59" y="71.84" width="11.14" height="11.14"/><rect class="cls-3" x="238.73" y="71.84" width="11.14" height="11.14"/><rect class="cls-3" x="252.87" y="71.84" width="11.14" height="11.14"/><path class="cls-7" d="M194.31,38h56.33a1,1,0,0,1,1.05,1.06V95.42a1,1,0,0,1-1.05,1H194.31a1,1,0,0,1-1.06-1V39.09A1.05,1.05,0,0,1,194.31,38Z"/><rect class="cls-3" x="195.48" y="40.22" width="11.14" height="11.14"/><rect class="cls-3" x="209.63" y="40.22" width="11.14" height="11.14"/><rect class="cls-3" x="223.77" y="40.22" width="11.14" height="11.14"/><rect class="cls-3" x="237.92" y="40.22" width="11.14" height="11.14"/><rect class="cls-3" x="195.48" y="54.53" width="11.14" height="11.14"/><rect class="cls-3" x="209.63" y="54.53" width="11.14" height="11.14"/><rect class="cls-3" x="223.77" y="54.53" width="11.14" height="11.14"/><rect class="cls-3" x="237.92" y="54.53" width="11.14" height="11.14"/><rect class="cls-3" x="195.48" y="68.84" width="11.14" height="11.14"/><rect class="cls-3" x="209.63" y="68.84" width="11.14" height="11.14"/><rect class="cls-3" x="223.77" y="68.84" width="11.14" height="11.14"/><rect class="cls-3" x="237.92" y="68.84" width="11.14" height="11.14"/><rect class="cls-3" x="195.48" y="83.14" width="11.14" height="11.14"/><rect class="cls-3" x="209.63" y="83.14" width="11.14" height="11.14"/><rect class="cls-3" x="223.77" y="83.14" width="11.14" height="11.14"/><rect class="cls-3" x="237.92" y="83.14" width="11.14" height="11.14"/><line class="cls-8" x1="252.47" y1="99.48" x2="295.71" y2="66.76"/><path class="cls-9" d="M252.47,100.7a1.2,1.2,0,0,1-1-.49,1.24,1.24,0,0,1,.24-1.71L295,65.79a1.22,1.22,0,1,1,1.46,1.95L253.2,100.46A1.25,1.25,0,0,1,252.47,100.7Z"/><line class="cls-10" x1="260.19" y1="96.51" x2="252.79" y2="96.51"/><line class="cls-10" x1="275.19" y1="85.21" x2="267.79" y2="85.21"/><line class="cls-10" x1="281.93" y1="80.09" x2="274.54" y2="80.09"/><line class="cls-10" x1="292.21" y1="72.29" x2="284.82" y2="72.29"/><path class="cls-11" d="M264.37,97.53c.33.77.65,1.91.78,2.11s.2.17.4.17h.17c.08,0,.08,0,.08-.09s0,0,0-.08a.71.71,0,0,1-.17-.32l-1.5-4.23a.85.85,0,0,0-.89-.53s-.13,0-.13.08a.1.1,0,0,0,.09.09c.24,0,.28.08.48.6l.73,2-2.07,2a.29.29,0,0,0-.12.24.23.23,0,0,0,.24.21.28.28,0,0,0,.25-.17l1.7-2.15"/><path class="cls-11" d="M267.54,100.78a.64.64,0,0,1-.65-.57,5.06,5.06,0,0,1-.08-1.14,4.31,4.31,0,0,1,.08-1,.7.7,0,0,1,.65-.53.64.64,0,0,1,.65.49,3.85,3.85,0,0,1,.09,1.09,4.34,4.34,0,0,1-.09,1.1.63.63,0,0,1-.65.61m1.22-1.58a2.33,2.33,0,0,0-.32-1.35,1.08,1.08,0,0,0-.9-.44c-1.21,0-1.21,1.42-1.21,1.79s0,1.74,1.21,1.74S268.76,99.56,268.76,99.2Z"/><path class="cls-11" d="M279.45,86.19c.33.77.65,1.91.78,2.11s.2.17.4.17h.16c.09,0,.09,0,.09-.09s0,0-.05-.08a.8.8,0,0,1-.16-.32l-1.5-4.23a.85.85,0,0,0-.9-.53s-.12,0-.12.08a.09.09,0,0,0,.08.09c.25,0,.29.08.49.61l.73,2-2.07,2a.29.29,0,0,0-.12.24.22.22,0,0,0,.24.21.28.28,0,0,0,.25-.17l1.7-2.15"/><path class="cls-11" d="M282.87,86.19c0-.12,0-.16-.17-.16a1.41,1.41,0,0,1-1,.32v.21a1.55,1.55,0,0,0,.77-.17V89c0,.16,0,.24-.53.24h-.2v.2l.93,0a7,7,0,0,1,.94,0v-.2h-.2c-.53,0-.53-.08-.53-.24V86.19"/><path class="cls-11" d="M286.16,81c.32.77.65,1.91.77,2.11s.2.16.41.16h.16c.08,0,.08,0,.08-.08s0,0,0-.08a.8.8,0,0,1-.16-.32l-1.51-4.23A.84.84,0,0,0,285,78s-.12,0-.12.08a.09.09,0,0,0,.08.08c.24,0,.28.08.49.61l.73,2-2.07,2c-.09.08-.13.12-.13.24s.13.2.25.2a.27.27,0,0,0,.24-.16L286.16,81"/><path class="cls-11" d="M290.47,83.3h-.17a1.68,1.68,0,0,1-.12.49,2.16,2.16,0,0,1-.53,0h-1c.53-.48.73-.61,1.06-.89s.73-.61.73-1.14a1.12,1.12,0,0,0-1.22-1,1,1,0,0,0-1.1.94c0,.28.2.28.28.28a.27.27,0,0,0,.29-.28.29.29,0,0,0-.33-.29.86.86,0,0,1,.78-.48.75.75,0,0,1,.77.81,1.75,1.75,0,0,1-.49,1L288.19,84s0,0,0,.2h2.15l.17-.9"/><path class="cls-11" d="M296.44,73.31c.33.77.65,1.91.77,2.11s.21.16.41.16h.16c.08,0,.08,0,.08-.08s0,0,0-.08a.78.78,0,0,1-.16-.33l-1.5-4.22a.86.86,0,0,0-.9-.53s-.12,0-.12.08a.09.09,0,0,0,.08.08c.25,0,.29.08.49.61l.73,2-2.07,2a.29.29,0,0,0-.12.24.22.22,0,0,0,.24.2.27.27,0,0,0,.24-.16l1.71-2.15"/><path class="cls-11" d="M299.57,74.85c.41,0,.69.29.69.85s-.36.86-.69.86a1.11,1.11,0,0,1-.89-.37.25.25,0,0,0,.28-.28.28.28,0,0,0-.28-.29.26.26,0,0,0-.29.29c0,.49.53.81,1.18.81a1.12,1.12,0,0,0,1.22-1,1,1,0,0,0-.89-.93,1,1,0,0,0,.73-.89c0-.41-.49-.74-1.06-.74s-1,.29-1,.69a.28.28,0,0,0,.29.29.28.28,0,0,0,.28-.29c0-.16-.12-.24-.28-.28a.9.9,0,0,1,.73-.28.53.53,0,0,1,.57.56,1.08,1.08,0,0,1-.2.61c-.17.21-.33.21-.57.25h-.16s0,0,0,.08,0,.08.13.08h.28"/><path class="cls-12" d="M118.1,15.19h56.33a1,1,0,0,1,1.06,1V72.57a1.05,1.05,0,0,1-1.06,1.06H118.1A1.05,1.05,0,0,1,117,72.57V16.24A1,1,0,0,1,118.1,15.19Z"/><rect class="cls-3" x="119.28" y="17.38" width="11.14" height="11.14"/><rect class="cls-3" x="133.42" y="17.38" width="11.14" height="11.14"/><rect class="cls-3" x="147.57" y="17.38" width="11.14" height="11.14"/><rect class="cls-3" x="161.71" y="17.38" width="11.14" height="11.14"/><rect class="cls-3" x="119.28" y="31.69" width="11.14" height="11.14"/><rect class="cls-3" x="133.42" y="31.69" width="11.14" height="11.14"/><rect class="cls-3" x="147.57" y="31.69" width="11.14" height="11.14"/><rect class="cls-3" x="161.71" y="31.69" width="11.14" height="11.14"/><rect class="cls-3" x="119.28" y="45.99" width="11.14" height="11.14"/><rect class="cls-3" x="133.42" y="45.99" width="11.14" height="11.14"/><rect class="cls-3" x="147.57" y="45.99" width="11.14" height="11.14"/><rect class="cls-3" x="161.71" y="45.99" width="11.14" height="11.14"/><rect class="cls-3" x="119.28" y="60.3" width="11.14" height="11.14"/><rect class="cls-3" x="133.42" y="60.3" width="11.14" height="11.14"/><rect class="cls-3" x="147.57" y="60.3" width="11.14" height="11.14"/><rect class="cls-3" x="161.71" y="60.3" width="11.14" height="11.14"/><path class="cls-13" d="M103.06,26.57h56.33a1,1,0,0,1,1.06,1.05V84A1.05,1.05,0,0,1,159.39,85H103.06A1,1,0,0,1,102,84V27.62A1,1,0,0,1,103.06,26.57Z"/><rect class="cls-3" x="104.24" y="28.76" width="11.14" height="11.14"/><rect class="cls-3" x="118.39" y="28.76" width="11.14" height="11.14"/><rect class="cls-3" x="132.53" y="28.76" width="11.14" height="11.14"/><rect class="cls-3" x="146.67" y="28.76" width="11.14" height="11.14"/><rect class="cls-3" x="104.24" y="43.07" width="11.14" height="11.14"/><rect class="cls-3" x="118.39" y="43.07" width="11.14" height="11.14"/><rect class="cls-3" x="132.53" y="43.07" width="11.14" height="11.14"/><rect class="cls-3" x="146.67" y="43.07" width="11.14" height="11.14"/><rect class="cls-3" x="104.24" y="57.37" width="11.14" height="11.14"/><rect class="cls-3" x="118.39" y="57.37" width="11.14" height="11.14"/><rect class="cls-3" x="132.53" y="57.37" width="11.14" height="11.14"/><rect class="cls-3" x="146.67" y="57.37" width="11.14" height="11.14"/><rect class="cls-3" x="104.24" y="71.68" width="11.14" height="11.14"/><rect class="cls-3" x="118.39" y="71.68" width="11.14" height="11.14"/><rect class="cls-3" x="132.53" y="71.68" width="11.14" height="11.14"/><rect class="cls-3" x="146.67" y="71.68" width="11.14" height="11.14"/><path class="cls-14" d="M88,38h56.33a1,1,0,0,1,1,1V95.33a1,1,0,0,1-1,1.06H88A1.05,1.05,0,0,1,87,95.33V39A1,1,0,0,1,88,38Z"/><rect class="cls-3" x="89.2" y="40.14" width="11.14" height="11.14"/><rect class="cls-3" x="103.35" y="40.14" width="11.14" height="11.14"/><rect class="cls-3" x="117.49" y="40.14" width="11.14" height="11.14"/><rect class="cls-3" x="131.63" y="40.14" width="11.14" height="11.14"/><rect class="cls-3" x="89.2" y="54.45" width="11.14" height="11.14"/><rect class="cls-3" x="103.35" y="54.45" width="11.14" height="11.14"/><rect class="cls-3" x="117.49" y="54.45" width="11.14" height="11.14"/><rect class="cls-3" x="131.63" y="54.45" width="11.14" height="11.14"/><rect class="cls-3" x="89.2" y="68.75" width="11.14" height="11.14"/><rect class="cls-3" x="103.35" y="68.75" width="11.14" height="11.14"/><rect class="cls-3" x="117.49" y="68.75" width="11.14" height="11.14"/><rect class="cls-3" x="131.63" y="68.75" width="11.14" height="11.14"/><rect class="cls-3" x="89.2" y="83.06" width="11.14" height="11.14"/><rect class="cls-3" x="103.35" y="83.06" width="11.14" height="11.14"/><rect class="cls-3" x="117.49" y="83.06" width="11.14" height="11.14"/><rect class="cls-3" x="131.63" y="83.06" width="11.14" height="11.14"/><text class="cls-15" transform="translate(147.89 97.72)">R</text><text class="cls-15" transform="translate(162.93 86.25)">G</text><text class="cls-15" transform="translate(177.97 74.87)">B</text><text class="cls-15" transform="translate(71.9 97.55)">L</text><text class="cls-16" transform="translate(1.38 8)">*_mono_polarized</text><text class="cls-16" transform="translate(98.14 7.76)">*_rgb_polarized</text><text class="cls-16" transform="translate(198.07 7.76)">*_spectral_polarized</text><g class="cls-17"><path class="cls-11" d="M29.26,108.83l-1.63-3.54a.25.25,0,0,0-.28-.16H25.84v.32h.73v3.78c0,.17,0,.17-.2.17h-.53v.32h1.79v-.32H27.1c-.2,0-.2,0-.2-.17v-3.69h0l1.83,4a.2.2,0,0,0,.2.16.18.18,0,0,0,.2-.16L31,105.41h0v4h-.73v.32h2.28v-.32h-.73v-4h.73v-.32H31.08c-.16,0-.2,0-.28.16l-1.54,3.58"/></g><g class="cls-17"><path class="cls-11" d="M38.44,108.18c.12,0,.24,0,.24-.12s-.12-.13-.24-.13H35.6a1.73,1.73,0,0,1,1.78-1.54h1.06c.12,0,.24,0,.24-.12s-.12-.12-.24-.12H37.38a2,2,0,1,0,0,3.9h1.06c.12,0,.24,0,.24-.12s-.12-.13-.24-.13H37.38a1.73,1.73,0,0,1-1.78-1.54h2.84"/></g><g class="cls-17"><path class="cls-11" d="M43.4,107.61h.12a1.3,1.3,0,0,0,.37,0,11.36,11.36,0,0,0,1.38,1.91h-.65l-1.22-1.87M42,109.48a1.45,1.45,0,0,0,0-.37v-3.37a1.33,1.33,0,0,0,0-.37h.77a.58.58,0,0,0-.08.33v3.41a1.3,1.3,0,0,0,0,.37Zm.89-3.74c0-.12,0-.37.41-.37.57,0,.85.25.85,1s-.2,1-1.26,1Zm1.3,1.54a1.4,1.4,0,0,0,.2-.89,1.51,1.51,0,0,0-.24-.94c.29,0,.94.29.94.94C45.07,106.84,44.86,107.16,44.17,107.28Zm-1.3.33h.24l1,1.54a5.21,5.21,0,0,1,.29.49c0,.08.08.08.2.08h.93c.13,0,.21,0,.21-.12s0-.08-.08-.12c-.25,0-.57-.49-.74-.73,0-.08-.36-.53-.81-1.22.61-.12,1.18-.37,1.18-1.18s-1-1.26-1.79-1.26H41.41c-.12,0-.25,0-.25.12s.13.12.17.12c.36,0,.4,0,.4.37v3.37c0,.33,0,.37-.4.37,0,0-.17,0-.17.12s.13.12.25.12h1.83c.12,0,.2,0,.2-.12s-.12-.12-.2-.12c-.37,0-.41,0-.41-.37v-1.46Z"/></g><g class="cls-17"><path class="cls-11" d="M47.5,104.32V106H46.28Zm.9,1.87V106h-.53V104c0-.08,0-.12-.12-.12s-.08,0-.12.08l-1.55,2.15v.17h1.38v.36c0,.17,0,.21-.36.21H47V107h1.38v-.16h-.12c-.37,0-.37,0-.37-.21v-.36h.53Z"/></g><g class="cls-17"><path class="cls-11" d="M51.89,104.76s.08-.08.08-.12a.11.11,0,0,0-.12-.12s0,0-.12.08l-1,1-1-1s-.08-.08-.12-.08a.11.11,0,0,0-.12.12s0,0,.08.12l1,1-1,1c-.08.08-.08.08-.08.12a.11.11,0,0,0,.12.12s0,0,.12-.08l1-1L51.77,107s0,0,.08,0a.13.13,0,0,0,.12-.12s0,0,0-.08l-1-1.06,1-1"/></g><g class="cls-17"><path class="cls-11" d="M54.41,104.32V106H53.19Zm.86,1.87V106h-.53V104c0-.08,0-.12-.12-.12s-.08,0-.13.08L53,106.06v.17h1.38v.36c0,.17,0,.21-.36.21h-.13V107h1.39v-.16H55.1c-.36,0-.36,0-.36-.21v-.36h.53Z"/></g><g class="cls-18"><path class="cls-11" d="M120.13,108.83l-1.62-3.54a.26.26,0,0,0-.29-.16h-1.5v.32h.73v3.78c0,.17,0,.17-.2.17h-.53v.32h1.79v-.32H118c-.2,0-.2,0-.2-.17v-3.69h0l1.82,4a.22.22,0,0,0,.21.16.18.18,0,0,0,.2-.16l1.87-4.15h0v4h-.73v.32h2.27v-.32h-.73v-4h.73v-.32H122c-.16,0-.2,0-.28.16l-1.55,3.58"/></g><g class="cls-18"><path class="cls-11" d="M129.32,108.18c.12,0,.24,0,.24-.12s-.12-.13-.24-.13h-2.85a1.74,1.74,0,0,1,1.79-1.54h1.06c.12,0,.24,0,.24-.12s-.12-.12-.24-.12h-1.06a2,2,0,1,0,0,3.9h1.06c.12,0,.24,0,.24-.12s-.12-.13-.24-.13h-1.06a1.74,1.74,0,0,1-1.79-1.54h2.85"/></g><g class="cls-18"><path class="cls-11" d="M134.28,107.61h.12a1.23,1.23,0,0,0,.36,0,12.21,12.21,0,0,0,1.39,1.91h-.65l-1.22-1.87m-1.43,1.87a1.45,1.45,0,0,0,0-.37v-3.37a1.33,1.33,0,0,0,0-.37h.78a.58.58,0,0,0-.08.33v3.41a1.3,1.3,0,0,0,0,.37Zm.94-3.74c0-.12,0-.37.41-.37.56,0,.85.25.85,1s-.2,1-1.26,1Zm1.3,1.54a1.4,1.4,0,0,0,.2-.89,1.51,1.51,0,0,0-.24-.94c.28,0,.93.29.93.94C136,106.84,135.78,107.16,135.09,107.28Zm-1.3.33H134l1,1.54a3.57,3.57,0,0,1,.28.49c0,.08.08.08.21.08h.93c.12,0,.2,0,.2-.12s0-.08-.08-.12c-.24,0-.57-.49-.73-.73,0-.08-.36-.53-.81-1.22.61-.12,1.18-.37,1.18-1.18s-1-1.26-1.79-1.26h-2.11c-.13,0-.25,0-.25.12s.12.12.16.12c.37,0,.41,0,.41.37v3.37c0,.33,0,.37-.41.37,0,0-.16,0-.16.12s.12.12.25.12h1.82c.13,0,.21,0,.21-.12s-.12-.12-.21-.12c-.36,0-.4,0-.4-.37v-1.46Z"/></g><g class="cls-18"><path class="cls-11" d="M138.42,104.32V106H137.2Zm.9,1.87V106h-.53V104c0-.08,0-.12-.12-.12a.12.12,0,0,0-.13.08L137,106.06v.17h1.38v.36c0,.17,0,.21-.36.21h-.13V107h1.39v-.16h-.13c-.36,0-.36,0-.36-.21v-.36h.53Z"/></g><g class="cls-18"><path class="cls-11" d="M142.77,104.76s.08-.08.08-.12a.11.11,0,0,0-.12-.12s0,0-.12.08l-1,1-1-1a.23.23,0,0,0-.13-.08.11.11,0,0,0-.12.12s0,0,.08.12l1,1-1,1c-.08.08-.08.08-.08.12a.11.11,0,0,0,.12.12c.05,0,.05,0,.13-.08l1-1,1.06,1.06s0,0,.08,0a.13.13,0,0,0,.12-.12s0,0,0-.08l-1.06-1.06,1-1"/></g><g class="cls-18"><path class="cls-11" d="M145.29,104.32V106h-1.22Zm.85,1.87V106h-.52V104c0-.08,0-.12-.13-.12s-.08,0-.12.08l-1.54,2.15v.17h1.38v.36c0,.17,0,.21-.37.21h-.12V107h1.38v-.16H146c-.36,0-.36,0-.36-.21v-.36h.52Z"/></g><g class="cls-18"><path class="cls-11" d="M149.64,104.76s.08-.08.08-.12a.11.11,0,0,0-.12-.12s0,0-.12.08l-1,1-1-1s-.08-.08-.12-.08a.11.11,0,0,0-.12.12s0,0,.08.12l1,1-1,1c-.08.08-.08.08-.08.12a.11.11,0,0,0,.12.12s0,0,.12-.08l1-1,1.06,1.06s0,0,.08,0a.13.13,0,0,0,.12-.12s0,0,0-.08l-1.06-1.06,1-1"/></g><g class="cls-18"><path class="cls-11" d="M151.83,105.41c.37,0,.61.25.61.78s-.32.77-.61.77a1,1,0,0,1-.81-.33.28.28,0,0,0,.29-.24.24.24,0,0,0-.25-.24c-.12,0-.24.08-.24.28,0,.45.49.73,1.05.73a1,1,0,0,0,1.1-.89.94.94,0,0,0-.81-.86.85.85,0,0,0,.65-.81c0-.36-.41-.65-.94-.65s-.93.24-.93.61a.23.23,0,0,0,.24.24.24.24,0,1,0,0-.48.87.87,0,0,1,.65-.25.48.48,0,0,1,.49.53,1,1,0,0,1-.2.57.63.63,0,0,1-.53.2h-.16s0,0,0,.08,0,.09.12.09h.32"/></g><g class="cls-19"><path class="cls-11" d="M232.31,108.83l-1.63-3.54a.25.25,0,0,0-.28-.16h-1.51v.32h.73v3.78c0,.17,0,.17-.2.17h-.53v.32h1.79v-.32h-.53c-.2,0-.2,0-.2-.17v-3.69h0l1.83,4a.2.2,0,0,0,.2.16.19.19,0,0,0,.21-.16l1.86-4.15h0v4h-.73v.32h2.28v-.32h-.73v-4h.73v-.32h-1.46c-.17,0-.21,0-.29.16l-1.54,3.58"/></g><g class="cls-19"><path class="cls-11" d="M241.49,108.18c.12,0,.25,0,.25-.12s-.13-.13-.25-.13h-2.84a1.74,1.74,0,0,1,1.79-1.54h1.05c.12,0,.25,0,.25-.12s-.13-.12-.25-.12h-1.05a2,2,0,1,0,0,3.9h1.05c.12,0,.25,0,.25-.12s-.13-.13-.25-.13h-1.05a1.74,1.74,0,0,1-1.79-1.54h2.84"/></g><g class="cls-19"><path class="cls-11" d="M246.45,107.61h.12a1.3,1.3,0,0,0,.37,0,11.36,11.36,0,0,0,1.38,1.91h-.65l-1.22-1.87M245,109.48a1.45,1.45,0,0,0,0-.37v-3.37a1.33,1.33,0,0,0,0-.37h.77a.58.58,0,0,0-.08.33v3.41a1.3,1.3,0,0,0,0,.37Zm.93-3.74c0-.12,0-.37.41-.37.57,0,.85.25.85,1s-.2,1-1.26,1Zm1.26,1.54a1.35,1.35,0,0,0,.21-.89,1.45,1.45,0,0,0-.25-.94c.29,0,.94.29.94.94C248.12,106.84,247.91,107.16,247.22,107.28Zm-1.26.33h.25l1,1.54a3.68,3.68,0,0,1,.29.49c0,.08.08.08.2.08h.94c.12,0,.2,0,.2-.12s0-.08-.08-.12c-.25,0-.57-.49-.73-.73,0-.08-.37-.53-.82-1.22.61-.12,1.18-.37,1.18-1.18s-1-1.26-1.79-1.26H244.5c-.12,0-.24,0-.24.12s.12.12.16.12c.36,0,.41,0,.41.37v3.37c0,.33-.05.37-.41.37,0,0-.16,0-.16.12s.12.12.24.12h1.83c.12,0,.2,0,.2-.12s-.12-.12-.2-.12c-.37,0-.41,0-.41-.37v-1.46Z"/></g><g class="cls-19"><path class="cls-11" d="M250.6,104.32V106h-1.22Zm.85,1.87V106h-.53V104c0-.08,0-.12-.12-.12s-.08,0-.12.08l-1.55,2.15v.17h1.39v.36c0,.17,0,.21-.37.21H250V107h1.38v-.16h-.12c-.37,0-.37,0-.37-.21v-.36h.53Z"/></g><g class="cls-19"><path class="cls-11" d="M255,104.76s.08-.08.08-.12,0-.12-.13-.12,0,0-.12.08l-1,1-1-1s-.08-.08-.12-.08a.11.11,0,0,0-.12.12s0,0,.08.12l1,1-1,1c-.08.08-.08.08-.08.12a.11.11,0,0,0,.12.12s0,0,.12-.08l1-1,1,1.06s0,0,.08,0a.13.13,0,0,0,.13-.12s0,0,0-.08l-1.06-1.06,1-1"/></g><g class="cls-19"><path class="cls-11" d="M257.42,104.32V106h-1.21Zm.9,1.87V106h-.53V104c0-.08,0-.12-.12-.12s-.08,0-.12.08L256,106.06v.17h1.38v.36c0,.17,0,.21-.36.21h-.12V107h1.38v-.16h-.12c-.37,0-.37,0-.37-.21v-.36h.53Z"/></g><g class="cls-19"><path class="cls-11" d="M261.81,104.76s.09-.08.09-.12,0-.12-.13-.12,0,0-.12.08l-1,1-1-1s-.08-.08-.12-.08a.11.11,0,0,0-.12.12s0,0,.08.12l1,1-1,1c-.08.08-.08.08-.08.12a.11.11,0,0,0,.12.12s0,0,.12-.08l1-1,1.05,1.06s0,0,.08,0,.13,0,.13-.12,0,0,0-.08l-1.05-1.06,1-1"/></g><g class="cls-19"><path class="cls-11" d="M264.29,104.32V106h-1.22Zm.9,1.87V106h-.53V104c0-.08,0-.12-.12-.12s-.08,0-.12.08l-1.55,2.15v.17h1.38v.36c0,.17,0,.21-.36.21h-.13V107h1.39v-.16H265c-.36,0-.36,0-.36-.21v-.36h.53Z"/></g></g></svg>