<?xml version="1.0" encoding="utf-8" standalone="no"?>
<!DOCTYPE svg PUBLIC "-//W3C//DTD SVG 1.1//EN"
  "http://www.w3.org/Graphics/SVG/1.1/DTD/svg11.dtd">
<!-- Created with matplotlib (https://matplotlib.org/) -->
<svg height="328.192187pt" version="1.1" viewBox="0 0 486.545312 328.192187" width="486.545312pt" xmlns="http://www.w3.org/2000/svg" xmlns:xlink="http://www.w3.org/1999/xlink">
 <defs>
  <style type="text/css">
*{stroke-linecap:butt;stroke-linejoin:round;}
  </style>
 </defs>
 <g id="figure_1">
  <g id="patch_1">
   <path d="M 0 328.192187 
L 486.545312 328.192187 
L 486.545312 0 
L 0 0 
z
" style="fill:#ffffff;"/>
  </g>
  <g id="axes_1">
   <g id="patch_2">
    <path d="M 31.282813 292.996875 
L 477.682813 292.996875 
L 477.682813 21.196875 
L 31.282813 21.196875 
z
" style="fill:#ffffff;"/>
   </g>
   <g id="matplotlib.axis_1">
    <g id="xtick_1">
     <g id="line2d_1">
      <path clip-path="url(#p2c601c9ef2)" d="M 31.282813 292.996875 
L 31.282813 21.196875 
" style="fill:none;stroke:#b0b0b0;stroke-linecap:square;stroke-width:0.8;"/>
     </g>
     <g id="line2d_2">
      <defs>
       <path d="M 0 0 
L 0 3.5 
" id="mcaa117dac0" style="stroke:#000000;stroke-width:0.8;"/>
      </defs>
      <g>
       <use style="stroke:#000000;stroke-width:0.8;" x="31.282813" xlink:href="#mcaa117dac0" y="292.996875"/>
      </g>
     </g>
     <g id="text_1">
      <!-- -90˚ -->
      <defs>
       <path d="M 4.390625 30.609375 
L 29.390625 30.609375 
L 29.390625 23 
L 4.390625 23 
z
" id="DejaVuSerif-45"/>
       <path d="M 46.78125 32.671875 
Q 43.5 29 39.25 27.1875 
Q 35.015625 25.390625 29.6875 25.390625 
Q 18.84375 25.390625 12.5625 31.9375 
Q 6.296875 38.484375 6.296875 49.8125 
Q 6.296875 60.890625 13.109375 67.546875 
Q 19.921875 74.21875 31.296875 74.21875 
Q 43.65625 74.21875 50.265625 65.015625 
Q 56.890625 55.8125 56.890625 38.71875 
Q 56.890625 19.578125 49.015625 9.078125 
Q 41.15625 -1.421875 26.90625 -1.421875 
Q 23.046875 -1.421875 18.796875 -0.6875 
Q 14.546875 0.046875 10.109375 1.515625 
L 10.109375 13.625 
L 15.578125 13.625 
Q 16.21875 8.6875 19.390625 6.046875 
Q 22.5625 3.421875 27.875 3.421875 
Q 37.359375 3.421875 41.984375 10.5625 
Q 46.625 17.71875 46.78125 32.671875 
z
M 30.90625 69.390625 
Q 23.96875 69.390625 20.28125 64.328125 
Q 16.609375 59.28125 16.609375 49.8125 
Q 16.609375 40.328125 20.28125 35.25 
Q 23.96875 30.171875 30.90625 30.171875 
Q 37.84375 30.171875 41.53125 35.078125 
Q 45.21875 39.984375 45.21875 49.21875 
Q 45.21875 58.9375 41.5 64.15625 
Q 37.796875 69.390625 30.90625 69.390625 
z
" id="DejaVuSerif-57"/>
       <path d="M 31.78125 3.421875 
Q 39.265625 3.421875 42.96875 11.625 
Q 46.6875 19.828125 46.6875 36.375 
Q 46.6875 52.984375 42.96875 61.1875 
Q 39.265625 69.390625 31.78125 69.390625 
Q 24.3125 69.390625 20.59375 61.1875 
Q 16.890625 52.984375 16.890625 36.375 
Q 16.890625 19.828125 20.59375 11.625 
Q 24.3125 3.421875 31.78125 3.421875 
z
M 31.78125 -1.421875 
Q 19.921875 -1.421875 13.25 8.53125 
Q 6.59375 18.5 6.59375 36.375 
Q 6.59375 54.296875 13.25 64.25 
Q 19.921875 74.21875 31.78125 74.21875 
Q 43.703125 74.21875 50.34375 64.25 
Q 56.984375 54.296875 56.984375 36.375 
Q 56.984375 18.5 50.34375 8.53125 
Q 43.703125 -1.421875 31.78125 -1.421875 
z
" id="DejaVuSerif-48"/>
       <path d="M 38.375 74.421875 
Q 38.375 68.796875 34.484375 64.890625 
Q 30.609375 60.984375 25 60.984375 
Q 19.390625 60.984375 15.5 64.890625 
Q 11.625 68.796875 11.625 74.421875 
Q 11.625 80.03125 15.5 83.90625 
Q 19.390625 87.796875 25 87.796875 
Q 30.609375 87.796875 34.484375 83.90625 
Q 38.375 80.03125 38.375 74.421875 
z
M 32.421875 74.421875 
Q 32.421875 77.484375 30.265625 79.625 
Q 28.125 81.78125 25 81.78125 
Q 21.828125 81.78125 19.703125 79.65625 
Q 17.578125 77.546875 17.578125 74.421875 
Q 17.578125 71.234375 19.703125 69.109375 
Q 21.828125 67 25 67 
Q 28.125 67 30.265625 69.140625 
Q 32.421875 71.296875 32.421875 74.421875 
z
" id="DejaVuSerif-730"/>
      </defs>
      <g transform="translate(20.730469 307.595312)scale(0.1 -0.1)">
       <use xlink:href="#DejaVuSerif-45"/>
       <use x="33.789062" xlink:href="#DejaVuSerif-57"/>
       <use x="97.412109" xlink:href="#DejaVuSerif-48"/>
       <use x="161.035156" xlink:href="#DejaVuSerif-730"/>
      </g>
     </g>
    </g>
    <g id="xtick_2">
     <g id="line2d_3">
      <path clip-path="url(#p2c601c9ef2)" d="M 105.682812 292.996875 
L 105.682812 21.196875 
" style="fill:none;stroke:#b0b0b0;stroke-linecap:square;stroke-width:0.8;"/>
     </g>
     <g id="line2d_4">
      <g>
       <use style="stroke:#000000;stroke-width:0.8;" x="105.682812" xlink:href="#mcaa117dac0" y="292.996875"/>
      </g>
     </g>
     <g id="text_2">
      <!-- -60˚ -->
      <defs>
       <path d="M 32.71875 3.421875 
Q 39.59375 3.421875 43.296875 8.46875 
Q 47.015625 13.53125 47.015625 23 
Q 47.015625 32.46875 43.296875 37.515625 
Q 39.59375 42.578125 32.71875 42.578125 
Q 25.734375 42.578125 22.0625 37.6875 
Q 18.40625 32.8125 18.40625 23.578125 
Q 18.40625 13.875 22.109375 8.640625 
Q 25.828125 3.421875 32.71875 3.421875 
z
M 16.796875 40.140625 
Q 20.125 43.796875 24.3125 45.59375 
Q 28.515625 47.40625 33.796875 47.40625 
Q 44.671875 47.40625 51 40.859375 
Q 57.328125 34.328125 57.328125 23 
Q 57.328125 11.921875 50.515625 5.25 
Q 43.703125 -1.421875 32.328125 -1.421875 
Q 19.96875 -1.421875 13.328125 7.78125 
Q 6.6875 17 6.6875 34.078125 
Q 6.6875 53.21875 14.546875 63.71875 
Q 22.40625 74.21875 36.71875 74.21875 
Q 40.578125 74.21875 44.828125 73.484375 
Q 49.078125 72.75 53.515625 71.296875 
L 53.515625 59.28125 
L 48 59.28125 
Q 47.40625 64.203125 44.234375 66.796875 
Q 41.0625 69.390625 35.6875 69.390625 
Q 26.21875 69.390625 21.578125 62.203125 
Q 16.9375 55.03125 16.796875 40.140625 
z
" id="DejaVuSerif-54"/>
      </defs>
      <g transform="translate(95.130469 307.595312)scale(0.1 -0.1)">
       <use xlink:href="#DejaVuSerif-45"/>
       <use x="33.789062" xlink:href="#DejaVuSerif-54"/>
       <use x="97.412109" xlink:href="#DejaVuSerif-48"/>
       <use x="161.035156" xlink:href="#DejaVuSerif-730"/>
      </g>
     </g>
    </g>
    <g id="xtick_3">
     <g id="line2d_5">
      <path clip-path="url(#p2c601c9ef2)" d="M 180.082812 292.996875 
L 180.082812 21.196875 
" style="fill:none;stroke:#b0b0b0;stroke-linecap:square;stroke-width:0.8;"/>
     </g>
     <g id="line2d_6">
      <g>
       <use style="stroke:#000000;stroke-width:0.8;" x="180.082812" xlink:href="#mcaa117dac0" y="292.996875"/>
      </g>
     </g>
     <g id="text_3">
      <!-- -30˚ -->
      <defs>
       <path d="M 9.71875 69.828125 
Q 15.4375 71.96875 20.671875 73.09375 
Q 25.921875 74.21875 30.515625 74.21875 
Q 41.21875 74.21875 47.21875 69.59375 
Q 53.21875 64.984375 53.21875 56.78125 
Q 53.21875 50.203125 49.0625 45.78125 
Q 44.921875 41.359375 37.3125 39.796875 
Q 46.296875 38.53125 51.25 33.28125 
Q 56.203125 28.03125 56.203125 19.671875 
Q 56.203125 9.46875 49.34375 4.015625 
Q 42.484375 -1.421875 29.59375 -1.421875 
Q 23.875 -1.421875 18.421875 -0.1875 
Q 12.984375 1.03125 7.625 3.515625 
L 7.625 17.671875 
L 13.09375 17.671875 
Q 13.578125 10.640625 17.828125 7.03125 
Q 22.078125 3.421875 29.78125 3.421875 
Q 37.25 3.421875 41.578125 7.734375 
Q 45.90625 12.0625 45.90625 19.578125 
Q 45.90625 28.171875 41.453125 32.59375 
Q 37.015625 37.015625 28.421875 37.015625 
L 23.78125 37.015625 
L 23.78125 42 
L 26.21875 42 
Q 34.765625 42 39.03125 45.53125 
Q 43.3125 49.078125 43.3125 56.203125 
Q 43.3125 62.59375 39.796875 65.984375 
Q 36.28125 69.390625 29.6875 69.390625 
Q 23.09375 69.390625 19.453125 66.265625 
Q 15.828125 63.140625 15.1875 56.984375 
L 9.71875 56.984375 
z
" id="DejaVuSerif-51"/>
      </defs>
      <g transform="translate(169.530469 307.595312)scale(0.1 -0.1)">
       <use xlink:href="#DejaVuSerif-45"/>
       <use x="33.789062" xlink:href="#DejaVuSerif-51"/>
       <use x="97.412109" xlink:href="#DejaVuSerif-48"/>
       <use x="161.035156" xlink:href="#DejaVuSerif-730"/>
      </g>
     </g>
    </g>
    <g id="xtick_4">
     <g id="line2d_7">
      <path clip-path="url(#p2c601c9ef2)" d="M 254.482812 292.996875 
L 254.482812 21.196875 
" style="fill:none;stroke:#b0b0b0;stroke-linecap:square;stroke-width:0.8;"/>
     </g>
     <g id="line2d_8">
      <g>
       <use style="stroke:#000000;stroke-width:0.8;" x="254.482812" xlink:href="#mcaa117dac0" y="292.996875"/>
      </g>
     </g>
     <g id="text_4">
      <!-- 0˚ -->
      <g transform="translate(248.801562 307.595312)scale(0.1 -0.1)">
       <use xlink:href="#DejaVuSerif-48"/>
       <use x="63.623047" xlink:href="#DejaVuSerif-730"/>
      </g>
     </g>
    </g>
    <g id="xtick_5">
     <g id="line2d_9">
      <path clip-path="url(#p2c601c9ef2)" d="M 328.882812 292.996875 
L 328.882812 21.196875 
" style="fill:none;stroke:#b0b0b0;stroke-linecap:square;stroke-width:0.8;"/>
     </g>
     <g id="line2d_10">
      <g>
       <use style="stroke:#000000;stroke-width:0.8;" x="328.882812" xlink:href="#mcaa117dac0" y="292.996875"/>
      </g>
     </g>
     <g id="text_5">
      <!-- 30˚ -->
      <g transform="translate(320.020312 307.595312)scale(0.1 -0.1)">
       <use xlink:href="#DejaVuSerif-51"/>
       <use x="63.623047" xlink:href="#DejaVuSerif-48"/>
       <use x="127.246094" xlink:href="#DejaVuSerif-730"/>
      </g>
     </g>
    </g>
    <g id="xtick_6">
     <g id="line2d_11">
      <path clip-path="url(#p2c601c9ef2)" d="M 403.282812 292.996875 
L 403.282812 21.196875 
" style="fill:none;stroke:#b0b0b0;stroke-linecap:square;stroke-width:0.8;"/>
     </g>
     <g id="line2d_12">
      <g>
       <use style="stroke:#000000;stroke-width:0.8;" x="403.282812" xlink:href="#mcaa117dac0" y="292.996875"/>
      </g>
     </g>
     <g id="text_6">
      <!-- 60˚ -->
      <g transform="translate(394.420312 307.595312)scale(0.1 -0.1)">
       <use xlink:href="#DejaVuSerif-54"/>
       <use x="63.623047" xlink:href="#DejaVuSerif-48"/>
       <use x="127.246094" xlink:href="#DejaVuSerif-730"/>
      </g>
     </g>
    </g>
    <g id="xtick_7">
     <g id="line2d_13">
      <path clip-path="url(#p2c601c9ef2)" d="M 477.682812 292.996875 
L 477.682812 21.196875 
" style="fill:none;stroke:#b0b0b0;stroke-linecap:square;stroke-width:0.8;"/>
     </g>
     <g id="line2d_14">
      <g>
       <use style="stroke:#000000;stroke-width:0.8;" x="477.682812" xlink:href="#mcaa117dac0" y="292.996875"/>
      </g>
     </g>
     <g id="text_7">
      <!-- 90˚ -->
      <g transform="translate(468.820312 307.595312)scale(0.1 -0.1)">
       <use xlink:href="#DejaVuSerif-57"/>
       <use x="63.623047" xlink:href="#DejaVuSerif-48"/>
       <use x="127.246094" xlink:href="#DejaVuSerif-730"/>
      </g>
     </g>
    </g>
    <g id="text_8">
     <!-- $\theta_i$ -->
     <defs>
      <path d="M 45.125 40.625 
Q 47.796875 56.296875 46.046875 64.265625 
Q 44.09375 73.09375 36.859375 73.09375 
Q 29.6875 73.09375 24.265625 64.265625 
Q 19.4375 56.296875 16.015625 40.625 
z
M 44.09375 35.40625 
L 14.984375 35.40625 
Q 12.359375 19.828125 14.109375 11.859375 
Q 16.109375 2.984375 23.25 2.984375 
Q 30.421875 2.984375 35.84375 11.859375 
Q 40.671875 19.828125 44.09375 35.40625 
z
M 37.640625 77.046875 
Q 49.03125 77.046875 53.8125 66.375 
Q 58.59375 55.71875 55.140625 38.015625 
Q 51.703125 20.3125 42.71875 9.609375 
Q 33.734375 -1.078125 22.40625 -1.078125 
Q 11.140625 -1.078125 6.34375 9.609375 
Q 1.5625 20.3125 5 38.015625 
Q 8.453125 55.71875 17.375 66.375 
Q 26.3125 77.046875 37.640625 77.046875 
z
" id="DejaVuSerif-Italic-952"/>
      <path d="M 15.765625 68.015625 
Q 16.21875 70.265625 18.171875 71.921875 
Q 20.125 73.578125 22.40625 73.578125 
Q 24.65625 73.578125 25.984375 71.921875 
Q 27 70.65625 27 69.09375 
Q 27 68.5625 26.859375 68.015625 
Q 26.421875 65.71875 24.484375 64.109375 
Q 22.5625 62.5 20.265625 62.5 
Q 17.96875 62.5 16.65625 64.109375 
Q 15.671875 65.328125 15.671875 66.890625 
Q 15.671875 67.4375 15.765625 68.015625 
z
M 15.046875 5.171875 
L 23.53125 5.171875 
L 22.5625 0 
L 5.078125 0 
L 14.109375 46.6875 
L 5.515625 46.6875 
L 6.546875 51.90625 
L 24.125 51.90625 
z
" id="DejaVuSerif-Italic-105"/>
     </defs>
     <g transform="translate(248.032813 325.072656)scale(0.15 -0.15)">
      <use transform="translate(0 0.953125)" xlink:href="#DejaVuSerif-Italic-952"/>
      <use transform="translate(60.205078 -14.61875)scale(0.7)" xlink:href="#DejaVuSerif-Italic-105"/>
     </g>
    </g>
   </g>
   <g id="matplotlib.axis_2">
    <g id="ytick_1">
     <g id="line2d_15">
      <path clip-path="url(#p2c601c9ef2)" d="M 31.282813 286.525446 
L 477.682813 286.525446 
" style="fill:none;stroke:#b0b0b0;stroke-linecap:square;stroke-width:0.8;"/>
     </g>
     <g id="line2d_16">
      <defs>
       <path d="M 0 0 
L -3.5 0 
" id="ma3c1d83e1f" style="stroke:#000000;stroke-width:0.8;"/>
      </defs>
      <g>
       <use style="stroke:#000000;stroke-width:0.8;" x="31.282813" xlink:href="#ma3c1d83e1f" y="286.525446"/>
      </g>
     </g>
     <g id="text_9">
      <!-- −1.0 -->
      <defs>
       <path d="M 10.59375 35.296875 
L 73.1875 35.296875 
L 73.1875 27.390625 
L 10.59375 27.390625 
z
" id="DejaVuSerif-8722"/>
       <path d="M 14.203125 0 
L 14.203125 5.171875 
L 26.90625 5.171875 
L 26.90625 65.828125 
L 12.203125 56.296875 
L 12.203125 62.703125 
L 29.984375 74.21875 
L 36.71875 74.21875 
L 36.71875 5.171875 
L 49.421875 5.171875 
L 49.421875 0 
z
" id="DejaVuSerif-49"/>
       <path d="M 9.421875 5.078125 
Q 9.421875 7.8125 11.28125 9.71875 
Q 13.140625 11.625 15.921875 11.625 
Q 18.609375 11.625 20.5 9.71875 
Q 22.40625 7.8125 22.40625 5.078125 
Q 22.40625 2.390625 20.5 0.484375 
Q 18.609375 -1.421875 15.921875 -1.421875 
Q 13.140625 -1.421875 11.28125 0.453125 
Q 9.421875 2.34375 9.421875 5.078125 
z
" id="DejaVuSerif-46"/>
      </defs>
      <g transform="translate(0 290.324665)scale(0.1 -0.1)">
       <use xlink:href="#DejaVuSerif-8722"/>
       <use x="83.789062" xlink:href="#DejaVuSerif-49"/>
       <use x="147.412109" xlink:href="#DejaVuSerif-46"/>
       <use x="179.199219" xlink:href="#DejaVuSerif-48"/>
      </g>
     </g>
    </g>
    <g id="ytick_2">
     <g id="line2d_17">
      <path clip-path="url(#p2c601c9ef2)" d="M 31.282813 221.811161 
L 477.682813 221.811161 
" style="fill:none;stroke:#b0b0b0;stroke-linecap:square;stroke-width:0.8;"/>
     </g>
     <g id="line2d_18">
      <g>
       <use style="stroke:#000000;stroke-width:0.8;" x="31.282813" xlink:href="#ma3c1d83e1f" y="221.811161"/>
      </g>
     </g>
     <g id="text_10">
      <!-- −0.5 -->
      <defs>
       <path d="M 50.296875 72.90625 
L 50.296875 64.890625 
L 16.890625 64.890625 
L 16.890625 44 
Q 19.4375 45.75 22.828125 46.625 
Q 26.21875 47.515625 30.421875 47.515625 
Q 42.234375 47.515625 49.0625 40.96875 
Q 55.90625 34.421875 55.90625 23.09375 
Q 55.90625 11.53125 49 5.046875 
Q 42.09375 -1.421875 29.59375 -1.421875 
Q 24.5625 -1.421875 19.28125 -0.1875 
Q 14.015625 1.03125 8.5 3.515625 
L 8.5 17.671875 
L 14.015625 17.671875 
Q 14.453125 10.75 18.421875 7.078125 
Q 22.40625 3.421875 29.59375 3.421875 
Q 37.3125 3.421875 41.453125 8.5 
Q 45.609375 13.578125 45.609375 23.09375 
Q 45.609375 32.5625 41.484375 37.609375 
Q 37.359375 42.671875 29.59375 42.671875 
Q 25.203125 42.671875 21.84375 41.109375 
Q 18.5 39.546875 15.921875 36.28125 
L 11.71875 36.28125 
L 11.71875 72.90625 
z
" id="DejaVuSerif-53"/>
      </defs>
      <g transform="translate(0 225.610379)scale(0.1 -0.1)">
       <use xlink:href="#DejaVuSerif-8722"/>
       <use x="83.789062" xlink:href="#DejaVuSerif-48"/>
       <use x="147.412109" xlink:href="#DejaVuSerif-46"/>
       <use x="179.199219" xlink:href="#DejaVuSerif-53"/>
      </g>
     </g>
    </g>
    <g id="ytick_3">
     <g id="line2d_19">
      <path clip-path="url(#p2c601c9ef2)" d="M 31.282813 157.096875 
L 477.682813 157.096875 
" style="fill:none;stroke:#b0b0b0;stroke-linecap:square;stroke-width:0.8;"/>
     </g>
     <g id="line2d_20">
      <g>
       <use style="stroke:#000000;stroke-width:0.8;" x="31.282813" xlink:href="#ma3c1d83e1f" y="157.096875"/>
      </g>
     </g>
     <g id="text_11">
      <!-- 0.0 -->
      <g transform="translate(8.379688 160.896094)scale(0.1 -0.1)">
       <use xlink:href="#DejaVuSerif-48"/>
       <use x="63.623047" xlink:href="#DejaVuSerif-46"/>
       <use x="95.410156" xlink:href="#DejaVuSerif-48"/>
      </g>
     </g>
    </g>
    <g id="ytick_4">
     <g id="line2d_21">
      <path clip-path="url(#p2c601c9ef2)" d="M 31.282813 92.382589 
L 477.682813 92.382589 
" style="fill:none;stroke:#b0b0b0;stroke-linecap:square;stroke-width:0.8;"/>
     </g>
     <g id="line2d_22">
      <g>
       <use style="stroke:#000000;stroke-width:0.8;" x="31.282813" xlink:href="#ma3c1d83e1f" y="92.382589"/>
      </g>
     </g>
     <g id="text_12">
      <!-- 0.5 -->
      <g transform="translate(8.379688 96.181808)scale(0.1 -0.1)">
       <use xlink:href="#DejaVuSerif-48"/>
       <use x="63.623047" xlink:href="#DejaVuSerif-46"/>
       <use x="95.410156" xlink:href="#DejaVuSerif-53"/>
      </g>
     </g>
    </g>
    <g id="ytick_5">
     <g id="line2d_23">
      <path clip-path="url(#p2c601c9ef2)" d="M 31.282813 27.668304 
L 477.682813 27.668304 
" style="fill:none;stroke:#b0b0b0;stroke-linecap:square;stroke-width:0.8;"/>
     </g>
     <g id="line2d_24">
      <g>
       <use style="stroke:#000000;stroke-width:0.8;" x="31.282813" xlink:href="#ma3c1d83e1f" y="27.668304"/>
      </g>
     </g>
     <g id="text_13">
      <!-- 1.0 -->
      <g transform="translate(8.379688 31.467522)scale(0.1 -0.1)">
       <use xlink:href="#DejaVuSerif-49"/>
       <use x="63.623047" xlink:href="#DejaVuSerif-46"/>
       <use x="95.410156" xlink:href="#DejaVuSerif-48"/>
      </g>
     </g>
    </g>
   </g>
   <g id="line2d_25">
    <path clip-path="url(#p2c601c9ef2)" d="M 31.282813 27.668304 
L 477.682812 27.668304 
L 477.682812 27.668304 
" style="fill:none;stroke:#1f77b4;stroke-linecap:square;stroke-width:2.5;"/>
   </g>
   <g id="line2d_26">
    <path clip-path="url(#p2c601c9ef2)" d="M 31.282813 157.09686 
L 38.764377 154.773037 
L 43.752086 153.434191 
L 48.739796 152.359007 
L 53.727505 151.572959 
L 58.715215 151.06101 
L 63.702924 150.783964 
L 68.690634 150.694189 
L 76.172198 150.811052 
L 86.147617 151.248543 
L 106.098455 152.46085 
L 131.037002 153.92989 
L 153.481695 155.010149 
L 175.926388 155.850053 
L 198.371081 156.465924 
L 220.815773 156.870815 
L 243.260466 157.071796 
L 265.705159 157.071796 
L 288.149852 156.870815 
L 310.594544 156.465924 
L 333.039237 155.850053 
L 355.48393 155.010149 
L 377.928623 153.92989 
L 400.373315 152.617115 
L 427.805718 151.001605 
L 435.287282 150.745349 
L 442.768846 150.718695 
L 447.756556 150.896041 
L 452.744265 151.284779 
L 457.731975 151.929995 
L 462.719684 152.860932 
L 467.707394 154.074251 
L 472.695103 155.519495 
L 477.682812 157.09686 
L 477.682812 157.09686 
" style="fill:none;stroke:#ff7f0e;stroke-linecap:square;stroke-width:2.5;"/>
   </g>
   <g id="line2d_27">
    <path clip-path="url(#p2c601c9ef2)" d="M 31.282813 27.668304 
L 33.776667 28.686631 
L 36.270522 31.699878 
L 38.764377 36.587196 
L 41.258231 43.160196 
L 43.752086 51.180305 
L 46.245941 60.378657 
L 48.739796 70.475907 
L 53.727505 92.297675 
L 61.209069 125.781442 
L 66.196779 146.806569 
L 68.690634 156.659562 
L 71.184488 166.013016 
L 73.678343 174.845831 
L 76.172198 183.151316 
L 78.666053 190.933706 
L 81.159907 198.205258 
L 83.653762 204.983923 
L 86.147617 211.291477 
L 88.641472 217.151977 
L 91.135326 222.590808 
L 93.629181 227.633597 
L 96.123036 232.305772 
L 98.616891 236.63215 
L 101.110745 240.636554 
L 103.6046 244.341625 
L 106.098455 247.768765 
L 108.59231 250.938054 
L 111.086164 253.868347 
L 113.580019 256.577085 
L 116.073874 259.080593 
L 118.567729 261.393915 
L 121.061583 263.53106 
L 123.555438 265.50488 
L 126.049293 267.327379 
L 131.037002 270.561717 
L 136.024712 273.312701 
L 141.012421 275.647546 
L 146.000131 277.623873 
L 150.98784 279.291094 
L 155.97555 280.691832 
L 160.963259 281.862946 
L 165.950969 282.836351 
L 170.938678 283.639883 
L 178.420243 284.578982 
L 185.901807 285.259551 
L 193.383371 285.738964 
L 203.35879 286.145852 
L 215.828064 286.403209 
L 233.285047 286.51453 
L 280.668287 286.499965 
L 298.125271 286.325779 
L 310.594544 285.970562 
L 320.569963 285.439177 
L 328.051528 284.83151 
L 335.533092 283.985664 
L 343.014656 282.836351 
L 348.002366 281.862946 
L 352.990075 280.691832 
L 357.977785 279.291094 
L 362.965494 277.623873 
L 367.953204 275.647546 
L 372.940913 273.312701 
L 377.928623 270.561717 
L 382.916332 267.327379 
L 385.410187 265.50488 
L 387.904042 263.53106 
L 390.397896 261.393915 
L 392.891751 259.080593 
L 395.385606 256.577085 
L 397.879461 253.868347 
L 400.373315 250.938054 
L 402.86717 247.768765 
L 405.361025 244.341625 
L 407.85488 240.636554 
L 410.348734 236.63215 
L 412.842589 232.305772 
L 415.336444 227.633597 
L 417.830299 222.590808 
L 420.324153 217.151977 
L 422.818008 211.291477 
L 425.311863 204.983923 
L 427.805718 198.205258 
L 430.299572 190.933706 
L 432.793427 183.151316 
L 435.287282 174.845831 
L 437.781137 166.013016 
L 440.274991 156.659562 
L 442.768846 146.806569 
L 447.756556 125.781442 
L 460.225829 70.475907 
L 462.719684 60.378657 
L 465.213539 51.180305 
L 467.707394 43.160196 
L 470.201248 36.587196 
L 472.695103 31.699878 
L 475.188958 28.686631 
L 477.682812 27.668304 
L 477.682812 27.668304 
" style="fill:none;stroke:#2ca02c;stroke-linecap:square;stroke-width:2.5;"/>
   </g>
   <g id="line2d_28">
    <path clip-path="url(#p2c601c9ef2)" d="M 31.282813 157.096874 
L 36.270522 189.110321 
L 38.764377 204.253757 
L 41.258231 218.424302 
L 43.752086 231.39372 
L 46.245941 243.000313 
L 48.739796 253.149567 
L 51.23365 261.809197 
L 53.727505 268.999962 
L 56.22136 274.784651 
L 58.715215 279.256124 
L 61.209069 282.526736 
L 63.702924 284.71897 
L 66.196779 285.957972 
L 68.690634 286.366249 
L 71.184488 286.059665 
L 73.678343 285.145245 
L 76.172198 283.719983 
L 78.666053 281.870244 
L 81.159907 279.67217 
L 83.653762 277.192067 
L 86.147617 274.48724 
L 91.135326 268.592727 
L 96.123036 262.299904 
L 116.073874 236.689037 
L 123.555438 227.712972 
L 128.543148 222.030639 
L 133.530857 216.606397 
L 138.518567 211.446497 
L 143.506276 206.552433 
L 148.493986 201.922588 
L 153.481695 197.553344 
L 158.469405 193.439853 
L 163.457114 189.576517 
L 168.444824 185.957457 
L 173.432533 182.576735 
L 178.420243 179.428492 
L 183.407952 176.507092 
L 188.395662 173.807193 
L 193.383371 171.323821 
L 198.371081 169.052281 
L 203.35879 166.988426 
L 208.3465 165.128265 
L 213.334209 163.468365 
L 218.321919 162.005609 
L 223.309628 160.737274 
L 228.297338 159.661001 
L 233.285047 158.774752 
L 238.272757 158.076912 
L 243.260466 157.566204 
L 248.248176 157.241651 
L 253.235885 157.10265 
L 258.223595 157.148989 
L 263.211304 157.380686 
L 268.199014 157.798254 
L 273.186723 158.402387 
L 278.174433 159.194218 
L 283.162142 160.175255 
L 288.149852 161.347307 
L 293.137561 162.712524 
L 298.125271 164.27348 
L 303.11298 166.033076 
L 308.10069 167.994654 
L 313.088399 170.161855 
L 318.076109 172.538751 
L 323.063818 175.129786 
L 328.051528 177.939777 
L 333.039237 180.973908 
L 338.026947 184.237688 
L 343.014656 187.73683 
L 348.002366 191.477269 
L 352.990075 195.464975 
L 357.977785 199.705675 
L 362.965494 204.20467 
L 367.953204 208.966287 
L 372.940913 213.993219 
L 377.928623 219.285731 
L 382.916332 224.840176 
L 387.904042 230.64716 
L 395.385606 239.789296 
L 402.86717 249.340434 
L 415.336444 265.480433 
L 420.324153 271.60683 
L 422.818008 274.48724 
L 425.311863 277.192067 
L 427.805718 279.67217 
L 430.299572 281.870244 
L 432.793427 283.719983 
L 435.287282 285.145245 
L 437.781137 286.059665 
L 440.274991 286.366249 
L 442.768846 285.957972 
L 445.262701 284.71897 
L 447.756556 282.526736 
L 450.25041 279.256124 
L 452.744265 274.784651 
L 455.23812 268.999962 
L 457.731975 261.809197 
L 460.225829 253.149567 
L 462.719684 243.000313 
L 465.213539 231.39372 
L 467.707394 218.424302 
L 470.201248 204.253757 
L 472.695103 189.110321 
L 477.682812 157.096874 
L 477.682812 157.096874 
" style="fill:none;stroke:#d62728;stroke-linecap:square;stroke-width:2.5;"/>
   </g>
   <g id="line2d_29">
    <path clip-path="url(#p2c601c9ef2)" d="M 31.282813 157.096876 
L 36.270522 125.083429 
L 38.764377 109.939993 
L 41.258231 95.769448 
L 43.752086 82.80003 
L 46.245941 71.193437 
L 48.739796 61.044183 
L 51.23365 52.384553 
L 53.727505 45.193788 
L 56.22136 39.409099 
L 58.715215 34.937626 
L 61.209069 31.667014 
L 63.702924 29.47478 
L 66.196779 28.235778 
L 68.690634 27.827501 
L 71.184488 28.134085 
L 73.678343 29.048505 
L 76.172198 30.473767 
L 78.666053 32.323506 
L 81.159907 34.52158 
L 83.653762 37.001683 
L 86.147617 39.70651 
L 91.135326 45.601023 
L 96.123036 51.893846 
L 116.073874 77.504713 
L 123.555438 86.480778 
L 128.543148 92.163111 
L 133.530857 97.587353 
L 138.518567 102.747253 
L 143.506276 107.641317 
L 148.493986 112.271162 
L 153.481695 116.640406 
L 158.469405 120.753897 
L 163.457114 124.617233 
L 168.444824 128.236293 
L 173.432533 131.617015 
L 178.420243 134.765258 
L 183.407952 137.686658 
L 188.395662 140.386557 
L 193.383371 142.869929 
L 198.371081 145.141469 
L 203.35879 147.205324 
L 208.3465 149.065485 
L 213.334209 150.725385 
L 218.321919 152.188141 
L 223.309628 153.456476 
L 228.297338 154.532749 
L 233.285047 155.418998 
L 238.272757 156.116838 
L 243.260466 156.627546 
L 248.248176 156.952099 
L 253.235885 157.0911 
L 258.223595 157.044761 
L 263.211304 156.813064 
L 268.199014 156.395496 
L 273.186723 155.791363 
L 278.174433 154.999532 
L 283.162142 154.018495 
L 288.149852 152.846443 
L 293.137561 151.481226 
L 298.125271 149.92027 
L 303.11298 148.160674 
L 308.10069 146.199096 
L 313.088399 144.031895 
L 318.076109 141.654999 
L 323.063818 139.063964 
L 328.051528 136.253973 
L 333.039237 133.219842 
L 338.026947 129.956062 
L 343.014656 126.45692 
L 348.002366 122.716481 
L 352.990075 118.728775 
L 357.977785 114.488075 
L 362.965494 109.98908 
L 367.953204 105.227463 
L 372.940913 100.200531 
L 377.928623 94.908019 
L 382.916332 89.353574 
L 387.904042 83.54659 
L 395.385606 74.404454 
L 402.86717 64.853316 
L 415.336444 48.713317 
L 420.324153 42.58692 
L 422.818008 39.70651 
L 425.311863 37.001683 
L 427.805718 34.52158 
L 430.299572 32.323506 
L 432.793427 30.473767 
L 435.287282 29.048505 
L 437.781137 28.134085 
L 440.274991 27.827501 
L 442.768846 28.235778 
L 445.262701 29.47478 
L 447.756556 31.667014 
L 450.25041 34.937626 
L 452.744265 39.409099 
L 455.23812 45.193788 
L 457.731975 52.384553 
L 460.225829 61.044183 
L 462.719684 71.193437 
L 465.213539 82.80003 
L 467.707394 95.769448 
L 470.201248 109.939993 
L 472.695103 125.083429 
L 477.682812 157.096876 
L 477.682812 157.096876 
" style="fill:none;stroke:#9467bd;stroke-linecap:square;stroke-width:2.5;"/>
   </g>
   <g id="patch_3">
    <path d="M 31.282813 292.996875 
L 31.282813 21.196875 
" style="fill:none;stroke:#000000;stroke-linecap:square;stroke-linejoin:miter;stroke-width:0.8;"/>
   </g>
   <g id="patch_4">
    <path d="M 477.682813 292.996875 
L 477.682813 21.196875 
" style="fill:none;stroke:#000000;stroke-linecap:square;stroke-linejoin:miter;stroke-width:0.8;"/>
   </g>
   <g id="patch_5">
    <path d="M 31.282813 292.996875 
L 477.682812 292.996875 
" style="fill:none;stroke:#000000;stroke-linecap:square;stroke-linejoin:miter;stroke-width:0.8;"/>
   </g>
   <g id="patch_6">
    <path d="M 31.282813 21.196875 
L 477.682812 21.196875 
" style="fill:none;stroke:#000000;stroke-linecap:square;stroke-linejoin:miter;stroke-width:0.8;"/>
   </g>
   <g id="text_14">
    <!-- Analytic Mueller matrix (Gold) -->
    <defs>
     <path d="M 20.015625 26.421875 
L 46.78125 26.421875 
L 33.40625 61.078125 
z
M -0.59375 0 
L -0.59375 5.171875 
L 5.8125 5.171875 
L 31.78125 72.90625 
L 39.984375 72.90625 
L 66.015625 5.171875 
L 73.1875 5.171875 
L 73.1875 0 
L 46.6875 0 
L 46.6875 5.171875 
L 54.78125 5.171875 
L 48.6875 21.1875 
L 18.015625 21.1875 
L 11.921875 5.171875 
L 19.921875 5.171875 
L 19.921875 0 
z
" id="DejaVuSerif-65"/>
     <path d="M 4.109375 0 
L 4.109375 5.171875 
L 12.203125 5.171875 
L 12.203125 46.6875 
L 3.609375 46.6875 
L 3.609375 51.90625 
L 21.1875 51.90625 
L 21.1875 42.671875 
Q 23.6875 47.953125 27.65625 50.640625 
Q 31.640625 53.328125 36.921875 53.328125 
Q 45.515625 53.328125 49.5625 48.390625 
Q 53.609375 43.453125 53.609375 33.015625 
L 53.609375 5.171875 
L 61.625 5.171875 
L 61.625 0 
L 36.8125 0 
L 36.8125 5.171875 
L 44.578125 5.171875 
L 44.578125 30.171875 
Q 44.578125 39.703125 42.234375 43.234375 
Q 39.890625 46.78125 33.984375 46.78125 
Q 27.734375 46.78125 24.453125 42.203125 
Q 21.1875 37.640625 21.1875 28.90625 
L 21.1875 5.171875 
L 29 5.171875 
L 29 0 
z
" id="DejaVuSerif-110"/>
     <path d="M 39.796875 16.3125 
L 39.796875 27.296875 
L 28.21875 27.296875 
Q 21.53125 27.296875 18.25 24.40625 
Q 14.984375 21.53125 14.984375 15.578125 
Q 14.984375 10.15625 18.296875 6.984375 
Q 21.625 3.8125 27.296875 3.8125 
Q 32.90625 3.8125 36.34375 7.28125 
Q 39.796875 10.75 39.796875 16.3125 
z
M 48.78125 32.421875 
L 48.78125 5.171875 
L 56.78125 5.171875 
L 56.78125 0 
L 39.796875 0 
L 39.796875 5.609375 
Q 36.8125 2 32.90625 0.28125 
Q 29 -1.421875 23.78125 -1.421875 
Q 15.140625 -1.421875 10.0625 3.171875 
Q 4.984375 7.765625 4.984375 15.578125 
Q 4.984375 23.640625 10.796875 28.078125 
Q 16.609375 32.515625 27.203125 32.515625 
L 39.796875 32.515625 
L 39.796875 36.078125 
Q 39.796875 42 36.203125 45.234375 
Q 32.625 48.484375 26.125 48.484375 
Q 20.75 48.484375 17.578125 46.046875 
Q 14.40625 43.609375 13.625 38.8125 
L 8.984375 38.8125 
L 8.984375 49.3125 
Q 13.671875 51.3125 18.09375 52.3125 
Q 22.515625 53.328125 26.703125 53.328125 
Q 37.5 53.328125 43.140625 47.96875 
Q 48.78125 42.625 48.78125 32.421875 
z
" id="DejaVuSerif-97"/>
     <path d="M 20.515625 5.171875 
L 29 5.171875 
L 29 0 
L 2.875 0 
L 2.875 5.171875 
L 11.53125 5.171875 
L 11.53125 70.796875 
L 2.875 70.796875 
L 2.875 75.984375 
L 20.515625 75.984375 
z
" id="DejaVuSerif-108"/>
     <path d="M 21.578125 -9.515625 
L 25 -0.875 
L 5.609375 46.6875 
L -0.296875 46.6875 
L -0.296875 51.90625 
L 23.578125 51.90625 
L 23.578125 46.6875 
L 15.28125 46.6875 
L 29.890625 10.984375 
L 44.484375 46.6875 
L 36.71875 46.6875 
L 36.71875 51.90625 
L 56.203125 51.90625 
L 56.203125 46.6875 
L 50.390625 46.6875 
L 26.609375 -11.71875 
Q 24.171875 -17.78125 21.1875 -20 
Q 18.21875 -22.21875 12.796875 -22.21875 
Q 10.5 -22.21875 8.078125 -21.828125 
Q 5.671875 -21.4375 3.21875 -20.703125 
L 3.21875 -10.796875 
L 7.8125 -10.796875 
Q 8.109375 -14.109375 9.5 -15.546875 
Q 10.890625 -17 13.8125 -17 
Q 16.5 -17 18.140625 -15.5 
Q 19.78125 -14.015625 21.578125 -9.515625 
z
" id="DejaVuSerif-121"/>
     <path d="M 10.796875 46.6875 
L 2.875 46.6875 
L 2.875 51.90625 
L 10.796875 51.90625 
L 10.796875 68.015625 
L 19.828125 68.015625 
L 19.828125 51.90625 
L 36.71875 51.90625 
L 36.71875 46.6875 
L 19.828125 46.6875 
L 19.828125 13.71875 
Q 19.828125 7.125 21.09375 5.265625 
Q 22.359375 3.421875 25.78125 3.421875 
Q 29.296875 3.421875 30.90625 5.484375 
Q 32.515625 7.5625 32.625 12.203125 
L 39.40625 12.203125 
Q 39.015625 5.125 35.546875 1.84375 
Q 32.078125 -1.421875 25 -1.421875 
Q 17.234375 -1.421875 14.015625 2.015625 
Q 10.796875 5.46875 10.796875 13.71875 
z
" id="DejaVuSerif-116"/>
     <path d="M 9.71875 68.015625 
Q 9.71875 70.265625 11.34375 71.921875 
Q 12.984375 73.578125 15.28125 73.578125 
Q 17.53125 73.578125 19.15625 71.921875 
Q 20.796875 70.265625 20.796875 68.015625 
Q 20.796875 65.71875 19.1875 64.109375 
Q 17.578125 62.5 15.28125 62.5 
Q 12.984375 62.5 11.34375 64.109375 
Q 9.71875 65.71875 9.71875 68.015625 
z
M 21.1875 5.171875 
L 29.6875 5.171875 
L 29.6875 0 
L 3.609375 0 
L 3.609375 5.171875 
L 12.203125 5.171875 
L 12.203125 46.6875 
L 3.609375 46.6875 
L 3.609375 51.90625 
L 21.1875 51.90625 
z
" id="DejaVuSerif-105"/>
     <path d="M 51.421875 15.578125 
Q 49.515625 7.28125 44.09375 2.921875 
Q 38.671875 -1.421875 30.078125 -1.421875 
Q 18.75 -1.421875 11.859375 6.078125 
Q 4.984375 13.578125 4.984375 25.984375 
Q 4.984375 38.421875 11.859375 45.875 
Q 18.75 53.328125 30.078125 53.328125 
Q 35.015625 53.328125 39.890625 52.171875 
Q 44.78125 51.03125 49.703125 48.6875 
L 49.703125 35.40625 
L 44.484375 35.40625 
Q 43.453125 42.234375 40.015625 45.359375 
Q 36.578125 48.484375 30.171875 48.484375 
Q 22.90625 48.484375 19.1875 42.84375 
Q 15.484375 37.203125 15.484375 25.984375 
Q 15.484375 14.75 19.171875 9.078125 
Q 22.859375 3.421875 30.171875 3.421875 
Q 35.984375 3.421875 39.453125 6.4375 
Q 42.921875 9.46875 44.1875 15.578125 
z
" id="DejaVuSerif-99"/>
     <path id="DejaVuSerif-32"/>
     <path d="M 5.515625 0 
L 5.515625 5.171875 
L 14.796875 5.171875 
L 14.796875 67.671875 
L 4.984375 67.671875 
L 4.984375 72.90625 
L 26.21875 72.90625 
L 51.8125 21 
L 77.390625 72.90625 
L 97.3125 72.90625 
L 97.3125 67.671875 
L 87.59375 67.671875 
L 87.59375 5.171875 
L 96.921875 5.171875 
L 96.921875 0 
L 68.40625 0 
L 68.40625 5.171875 
L 77.6875 5.171875 
L 77.6875 61.53125 
L 52.6875 10.6875 
L 45.796875 10.6875 
L 20.796875 61.53125 
L 20.796875 5.171875 
L 30.078125 5.171875 
L 30.078125 0 
z
" id="DejaVuSerif-77"/>
     <path d="M 35.40625 51.90625 
L 52.203125 51.90625 
L 52.203125 5.171875 
L 60.6875 5.171875 
L 60.6875 0 
L 43.21875 0 
L 43.21875 9.1875 
Q 40.71875 4 36.765625 1.28125 
Q 32.8125 -1.421875 27.59375 -1.421875 
Q 18.953125 -1.421875 14.875 3.484375 
Q 10.796875 8.40625 10.796875 18.890625 
L 10.796875 46.6875 
L 2.6875 46.6875 
L 2.6875 51.90625 
L 19.828125 51.90625 
L 19.828125 21.6875 
Q 19.828125 12.203125 22.140625 8.6875 
Q 24.46875 5.171875 30.421875 5.171875 
Q 36.671875 5.171875 39.9375 9.765625 
Q 43.21875 14.359375 43.21875 23.09375 
L 43.21875 46.6875 
L 35.40625 46.6875 
z
" id="DejaVuSerif-117"/>
     <path d="M 54.203125 25 
L 15.484375 25 
L 15.484375 24.609375 
Q 15.484375 14.109375 19.4375 8.765625 
Q 23.390625 3.421875 31.109375 3.421875 
Q 37.015625 3.421875 40.796875 6.515625 
Q 44.578125 9.625 46.09375 15.71875 
L 53.328125 15.71875 
Q 51.171875 7.171875 45.375 2.875 
Q 39.59375 -1.421875 30.171875 -1.421875 
Q 18.796875 -1.421875 11.890625 6.078125 
Q 4.984375 13.578125 4.984375 25.984375 
Q 4.984375 38.28125 11.765625 45.796875 
Q 18.5625 53.328125 29.59375 53.328125 
Q 41.359375 53.328125 47.65625 46.0625 
Q 53.953125 38.8125 54.203125 25 
z
M 43.609375 30.171875 
Q 43.3125 39.265625 39.765625 43.875 
Q 36.234375 48.484375 29.59375 48.484375 
Q 23.390625 48.484375 19.828125 43.84375 
Q 16.265625 39.203125 15.484375 30.171875 
z
" id="DejaVuSerif-101"/>
     <path d="M 47.796875 52 
L 47.796875 39.015625 
L 42.625 39.015625 
Q 42.390625 42.875 40.484375 44.78125 
Q 38.578125 46.6875 34.90625 46.6875 
Q 28.265625 46.6875 24.71875 42.09375 
Q 21.1875 37.5 21.1875 28.90625 
L 21.1875 5.171875 
L 31.59375 5.171875 
L 31.59375 0 
L 4.109375 0 
L 4.109375 5.171875 
L 12.203125 5.171875 
L 12.203125 46.78125 
L 3.609375 46.78125 
L 3.609375 51.90625 
L 21.1875 51.90625 
L 21.1875 42.671875 
Q 23.828125 48.09375 27.96875 50.703125 
Q 32.125 53.328125 38.09375 53.328125 
Q 40.28125 53.328125 42.703125 52.984375 
Q 45.125 52.640625 47.796875 52 
z
" id="DejaVuSerif-114"/>
     <path d="M 51.8125 41.796875 
Q 54.390625 47.515625 58.421875 50.421875 
Q 62.453125 53.328125 67.828125 53.328125 
Q 75.984375 53.328125 79.984375 48.265625 
Q 83.984375 43.21875 83.984375 33.015625 
L 83.984375 5.171875 
L 92.09375 5.171875 
L 92.09375 0 
L 67.1875 0 
L 67.1875 5.171875 
L 75 5.171875 
L 75 31.984375 
Q 75 39.9375 72.65625 43.3125 
Q 70.3125 46.6875 64.890625 46.6875 
Q 58.890625 46.6875 55.734375 42.140625 
Q 52.59375 37.59375 52.59375 28.90625 
L 52.59375 5.171875 
L 60.40625 5.171875 
L 60.40625 0 
L 35.796875 0 
L 35.796875 5.171875 
L 43.609375 5.171875 
L 43.609375 32.328125 
Q 43.609375 40.09375 41.265625 43.390625 
Q 38.921875 46.6875 33.5 46.6875 
Q 27.484375 46.6875 24.328125 42.140625 
Q 21.1875 37.59375 21.1875 28.90625 
L 21.1875 5.171875 
L 29 5.171875 
L 29 0 
L 4.109375 0 
L 4.109375 5.171875 
L 12.203125 5.171875 
L 12.203125 46.78125 
L 3.609375 46.78125 
L 3.609375 51.90625 
L 21.1875 51.90625 
L 21.1875 42.671875 
Q 23.6875 47.859375 27.53125 50.59375 
Q 31.390625 53.328125 36.28125 53.328125 
Q 42.328125 53.328125 46.375 50.3125 
Q 50.4375 47.3125 51.8125 41.796875 
z
" id="DejaVuSerif-109"/>
     <path d="M 29.109375 31.6875 
L 39.984375 46.6875 
L 33.015625 46.6875 
L 33.015625 51.90625 
L 52.984375 51.90625 
L 52.984375 46.6875 
L 46.09375 46.6875 
L 32.171875 27.484375 
L 48.390625 5.171875 
L 55.171875 5.171875 
L 55.171875 0 
L 31.203125 0 
L 31.203125 5.171875 
L 37.796875 5.171875 
L 26.515625 20.703125 
L 15.1875 5.171875 
L 21.921875 5.171875 
L 21.921875 0 
L 2.203125 0 
L 2.203125 5.171875 
L 9.078125 5.171875 
L 23.390625 24.90625 
L 7.625 46.6875 
L 1.21875 46.6875 
L 1.21875 51.90625 
L 24.421875 51.90625 
L 24.421875 46.6875 
L 18.21875 46.6875 
z
" id="DejaVuSerif-120"/>
     <path d="M 31.890625 -15.578125 
Q 20.015625 -10.25 13.953125 1.296875 
Q 7.90625 12.84375 7.90625 30.171875 
Q 7.90625 47.5625 13.953125 59.109375 
Q 20.015625 70.65625 31.890625 75.984375 
L 31.890625 71.1875 
Q 24.359375 66.015625 21.09375 56.609375 
Q 17.828125 47.21875 17.828125 30.171875 
Q 17.828125 13.1875 21.09375 3.78125 
Q 24.359375 -5.609375 31.890625 -10.796875 
z
" id="DejaVuSerif-40"/>
     <path d="M 64.015625 51.125 
Q 62.3125 60.25 56.890625 64.625 
Q 51.46875 69 41.796875 69 
Q 29.203125 69 23 60.890625 
Q 16.796875 52.78125 16.796875 36.375 
Q 16.796875 20.3125 23.1875 12.0625 
Q 29.59375 3.8125 42 3.8125 
Q 47.515625 3.8125 52.53125 5.171875 
Q 57.5625 6.546875 62.109375 9.28125 
L 62.109375 28.078125 
L 48.390625 28.078125 
L 48.390625 33.296875 
L 72.015625 33.296875 
L 72.015625 6.109375 
Q 65.53125 2.34375 58.03125 0.453125 
Q 50.53125 -1.421875 42 -1.421875 
Q 25.484375 -1.421875 15.546875 8.90625 
Q 5.609375 19.234375 5.609375 36.375 
Q 5.609375 53.65625 15.5625 63.9375 
Q 25.53125 74.21875 42.390625 74.21875 
Q 48.640625 74.21875 55.296875 72.78125 
Q 61.96875 71.34375 69.484375 68.40625 
L 69.484375 51.125 
z
" id="DejaVuSerif-71"/>
     <path d="M 30.078125 3.421875 
Q 37.3125 3.421875 40.984375 9.125 
Q 44.671875 14.84375 44.671875 25.984375 
Q 44.671875 37.109375 40.984375 42.796875 
Q 37.3125 48.484375 30.078125 48.484375 
Q 22.859375 48.484375 19.171875 42.796875 
Q 15.484375 37.109375 15.484375 25.984375 
Q 15.484375 14.84375 19.1875 9.125 
Q 22.90625 3.421875 30.078125 3.421875 
z
M 30.078125 -1.421875 
Q 18.75 -1.421875 11.859375 6.078125 
Q 4.984375 13.578125 4.984375 25.984375 
Q 4.984375 38.375 11.84375 45.84375 
Q 18.703125 53.328125 30.078125 53.328125 
Q 41.453125 53.328125 48.3125 45.84375 
Q 55.171875 38.375 55.171875 25.984375 
Q 55.171875 13.578125 48.3125 6.078125 
Q 41.453125 -1.421875 30.078125 -1.421875 
z
" id="DejaVuSerif-111"/>
     <path d="M 52.484375 5.171875 
L 61.078125 5.171875 
L 61.078125 0 
L 43.5 0 
L 43.5 8.109375 
Q 40.875 3.21875 36.796875 0.890625 
Q 32.71875 -1.421875 26.703125 -1.421875 
Q 17.140625 -1.421875 11.0625 6.171875 
Q 4.984375 13.765625 4.984375 25.984375 
Q 4.984375 38.1875 11.03125 45.75 
Q 17.09375 53.328125 26.703125 53.328125 
Q 32.71875 53.328125 36.796875 51 
Q 40.875 48.6875 43.5 43.796875 
L 43.5 70.796875 
L 35.015625 70.796875 
L 35.015625 75.984375 
L 52.484375 75.984375 
z
M 43.5 23.390625 
L 43.5 28.515625 
Q 43.5 37.84375 39.90625 42.765625 
Q 36.328125 47.703125 29.5 47.703125 
Q 22.5625 47.703125 19.015625 42.234375 
Q 15.484375 36.765625 15.484375 25.984375 
Q 15.484375 15.234375 19.015625 9.71875 
Q 22.5625 4.203125 29.5 4.203125 
Q 36.328125 4.203125 39.90625 9.109375 
Q 43.5 14.015625 43.5 23.390625 
z
" id="DejaVuSerif-100"/>
     <path d="M 7.078125 -15.578125 
L 7.078125 -10.796875 
Q 14.59375 -5.609375 17.890625 3.78125 
Q 21.1875 13.1875 21.1875 30.171875 
Q 21.1875 47.21875 17.890625 56.609375 
Q 14.59375 66.015625 7.078125 71.1875 
L 7.078125 75.984375 
Q 19 70.65625 25.046875 59.109375 
Q 31.109375 47.5625 31.109375 30.171875 
Q 31.109375 12.84375 25.046875 1.296875 
Q 19 -10.25 7.078125 -15.578125 
z
" id="DejaVuSerif-41"/>
    </defs>
    <g transform="translate(99.470312 15.196875)scale(0.2 -0.2)">
     <use xlink:href="#DejaVuSerif-65"/>
     <use x="72.216797" xlink:href="#DejaVuSerif-110"/>
     <use x="136.621094" xlink:href="#DejaVuSerif-97"/>
     <use x="196.240234" xlink:href="#DejaVuSerif-108"/>
     <use x="228.222656" xlink:href="#DejaVuSerif-121"/>
     <use x="284.716797" xlink:href="#DejaVuSerif-116"/>
     <use x="324.902344" xlink:href="#DejaVuSerif-105"/>
     <use x="356.884766" xlink:href="#DejaVuSerif-99"/>
     <use x="412.890625" xlink:href="#DejaVuSerif-32"/>
     <use x="444.677734" xlink:href="#DejaVuSerif-77"/>
     <use x="547.070312" xlink:href="#DejaVuSerif-117"/>
     <use x="611.474609" xlink:href="#DejaVuSerif-101"/>
     <use x="670.654297" xlink:href="#DejaVuSerif-108"/>
     <use x="702.636719" xlink:href="#DejaVuSerif-108"/>
     <use x="734.619141" xlink:href="#DejaVuSerif-101"/>
     <use x="793.798828" xlink:href="#DejaVuSerif-114"/>
     <use x="841.601562" xlink:href="#DejaVuSerif-32"/>
     <use x="873.388672" xlink:href="#DejaVuSerif-109"/>
     <use x="968.212891" xlink:href="#DejaVuSerif-97"/>
     <use x="1027.832031" xlink:href="#DejaVuSerif-116"/>
     <use x="1068.017578" xlink:href="#DejaVuSerif-114"/>
     <use x="1115.820312" xlink:href="#DejaVuSerif-105"/>
     <use x="1147.802734" xlink:href="#DejaVuSerif-120"/>
     <use x="1204.199219" xlink:href="#DejaVuSerif-32"/>
     <use x="1235.986328" xlink:href="#DejaVuSerif-40"/>
     <use x="1275" xlink:href="#DejaVuSerif-71"/>
     <use x="1354.882812" xlink:href="#DejaVuSerif-111"/>
     <use x="1415.087891" xlink:href="#DejaVuSerif-108"/>
     <use x="1447.070312" xlink:href="#DejaVuSerif-100"/>
     <use x="1511.083984" xlink:href="#DejaVuSerif-41"/>
    </g>
   </g>
   <g id="legend_1">
    <g id="patch_7">
     <path d="M 222.834062 135.14375 
L 286.131562 135.14375 
Q 288.931562 135.14375 288.931562 132.34375 
L 288.931562 30.996875 
Q 288.931562 28.196875 286.131562 28.196875 
L 222.834062 28.196875 
Q 220.034062 28.196875 220.034062 30.996875 
L 220.034062 132.34375 
Q 220.034062 135.14375 222.834062 135.14375 
z
" style="fill:#ffffff;opacity:0.8;stroke:#cccccc;stroke-linejoin:miter;"/>
    </g>
    <g id="line2d_30">
     <path d="M 225.634062 39.534687 
L 253.634062 39.534687 
" style="fill:none;stroke:#1f77b4;stroke-linecap:square;stroke-width:2.5;"/>
    </g>
    <g id="line2d_31"/>
    <g id="text_15">
     <!-- A -->
     <g transform="translate(264.834062 44.434687)scale(0.14 -0.14)">
      <use xlink:href="#DejaVuSerif-65"/>
     </g>
    </g>
    <g id="line2d_32">
     <path d="M 225.634062 60.084062 
L 253.634062 60.084062 
" style="fill:none;stroke:#ff7f0e;stroke-linecap:square;stroke-width:2.5;"/>
    </g>
    <g id="line2d_33"/>
    <g id="text_16">
     <!-- B -->
     <defs>
      <path d="M 24.703125 5.171875 
L 39.3125 5.171875 
Q 48.09375 5.171875 52.140625 8.984375 
Q 56.203125 12.796875 56.203125 21.09375 
Q 56.203125 29.34375 52.171875 33.125 
Q 48.140625 36.921875 39.3125 36.921875 
L 24.703125 36.921875 
z
M 24.703125 42.09375 
L 37.109375 42.09375 
Q 45.125 42.09375 48.796875 45.171875 
Q 52.484375 48.25 52.484375 54.890625 
Q 52.484375 61.578125 48.796875 64.625 
Q 45.125 67.671875 37.109375 67.671875 
L 24.703125 67.671875 
z
M 5.515625 0 
L 5.515625 5.171875 
L 14.796875 5.171875 
L 14.796875 67.671875 
L 5.515625 67.671875 
L 5.515625 72.90625 
L 41.5 72.90625 
Q 52.546875 72.90625 58.125 68.390625 
Q 63.71875 63.875 63.71875 54.890625 
Q 63.71875 48.390625 59.828125 44.53125 
Q 55.953125 40.671875 48.484375 39.796875 
Q 57.765625 38.625 62.578125 33.859375 
Q 67.390625 29.109375 67.390625 21.09375 
Q 67.390625 10.25 60.546875 5.125 
Q 53.71875 0 39.203125 0 
z
" id="DejaVuSerif-66"/>
     </defs>
     <g transform="translate(264.834062 64.984062)scale(0.14 -0.14)">
      <use xlink:href="#DejaVuSerif-66"/>
     </g>
    </g>
    <g id="line2d_34">
     <path d="M 225.634062 80.633437 
L 253.634062 80.633437 
" style="fill:none;stroke:#2ca02c;stroke-linecap:square;stroke-width:2.5;"/>
    </g>
    <g id="line2d_35"/>
    <g id="text_17">
     <!-- C -->
     <defs>
      <path d="M 70.515625 19.28125 
Q 67.28125 9.078125 59.6875 3.828125 
Q 52.09375 -1.421875 40.484375 -1.421875 
Q 33.34375 -1.421875 27.234375 1.015625 
Q 21.140625 3.46875 16.40625 8.203125 
Q 10.9375 13.671875 8.265625 20.625 
Q 5.609375 27.59375 5.609375 36.375 
Q 5.609375 53.375 15.421875 63.796875 
Q 25.25 74.21875 41.3125 74.21875 
Q 47.265625 74.21875 54 72.65625 
Q 60.75 71.09375 68.5 67.921875 
L 68.5 51.125 
L 62.984375 51.125 
Q 61.1875 60.296875 55.734375 64.640625 
Q 50.296875 69 40.484375 69 
Q 28.8125 69 22.796875 60.71875 
Q 16.796875 52.4375 16.796875 36.375 
Q 16.796875 20.359375 22.796875 12.078125 
Q 28.8125 3.8125 40.484375 3.8125 
Q 48.640625 3.8125 53.90625 7.6875 
Q 59.1875 11.578125 61.53125 19.28125 
z
" id="DejaVuSerif-67"/>
     </defs>
     <g transform="translate(264.834062 85.533437)scale(0.14 -0.14)">
      <use xlink:href="#DejaVuSerif-67"/>
     </g>
    </g>
    <g id="line2d_36">
     <path d="M 225.634062 101.182812 
L 253.634062 101.182812 
" style="fill:none;stroke:#d62728;stroke-linecap:square;stroke-width:2.5;"/>
    </g>
    <g id="line2d_37"/>
    <g id="text_18">
     <!-- S1 -->
     <defs>
      <path d="M 9.28125 3.515625 
L 9.28125 20.125 
L 14.890625 20.0625 
Q 15.140625 11.765625 19.703125 7.78125 
Q 24.265625 3.8125 33.59375 3.8125 
Q 42.28125 3.8125 46.84375 7.25 
Q 51.421875 10.6875 51.421875 17.28125 
Q 51.421875 22.5625 48.65625 25.390625 
Q 45.90625 28.21875 37.015625 30.90625 
L 27.390625 33.796875 
Q 16.9375 36.96875 12.671875 41.703125 
Q 8.40625 46.4375 8.40625 54.6875 
Q 8.40625 63.96875 14.984375 69.09375 
Q 21.578125 74.21875 33.5 74.21875 
Q 38.578125 74.21875 44.625 73.109375 
Q 50.6875 72.015625 57.515625 69.921875 
L 57.515625 54.390625 
L 52 54.390625 
Q 51.171875 62.109375 46.84375 65.546875 
Q 42.53125 69 33.6875 69 
Q 25.984375 69 21.953125 65.84375 
Q 17.921875 62.703125 17.921875 56.6875 
Q 17.921875 51.46875 20.9375 48.484375 
Q 23.96875 45.515625 33.796875 42.578125 
L 42.828125 39.890625 
Q 52.734375 36.921875 56.953125 32.296875 
Q 61.1875 27.6875 61.1875 19.921875 
Q 61.1875 9.328125 54.390625 3.953125 
Q 47.609375 -1.421875 34.1875 -1.421875 
Q 28.171875 -1.421875 21.9375 -0.1875 
Q 15.71875 1.03125 9.28125 3.515625 
z
" id="DejaVuSerif-83"/>
     </defs>
     <g transform="translate(264.834062 106.082812)scale(0.14 -0.14)">
      <use xlink:href="#DejaVuSerif-83"/>
      <use x="68.505859" xlink:href="#DejaVuSerif-49"/>
     </g>
    </g>
    <g id="line2d_38">
     <path d="M 225.634062 121.732187 
L 253.634062 121.732187 
" style="fill:none;stroke:#9467bd;stroke-linecap:square;stroke-width:2.5;"/>
    </g>
    <g id="line2d_39"/>
    <g id="text_19">
     <!-- S2 -->
     <defs>
      <path d="M 12.796875 55.515625 
L 7.328125 55.515625 
L 7.328125 68.5 
Q 12.546875 71.296875 17.84375 72.75 
Q 23.140625 74.21875 28.21875 74.21875 
Q 39.59375 74.21875 46.1875 68.703125 
Q 52.78125 63.1875 52.78125 53.71875 
Q 52.78125 43.015625 37.84375 28.125 
Q 36.671875 27 36.078125 26.421875 
L 17.671875 8.015625 
L 48.09375 8.015625 
L 48.09375 17 
L 53.8125 17 
L 53.8125 0 
L 6.78125 0 
L 6.78125 5.328125 
L 28.90625 27.390625 
Q 36.234375 34.71875 39.359375 40.84375 
Q 42.484375 46.96875 42.484375 53.71875 
Q 42.484375 61.078125 38.640625 65.234375 
Q 34.8125 69.390625 28.078125 69.390625 
Q 21.09375 69.390625 17.28125 65.921875 
Q 13.484375 62.453125 12.796875 55.515625 
z
" id="DejaVuSerif-50"/>
     </defs>
     <g transform="translate(264.834062 126.632187)scale(0.14 -0.14)">
      <use xlink:href="#DejaVuSerif-83"/>
      <use x="68.505859" xlink:href="#DejaVuSerif-50"/>
     </g>
    </g>
   </g>
  </g>
 </g>
 <defs>
  <clipPath id="p2c601c9ef2">
   <rect height="271.8" width="446.4" x="31.282813" y="21.196875"/>
  </clipPath>
 </defs>
</svg>
