<?xml version="1.0" encoding="utf-8" standalone="no"?>
<!DOCTYPE svg PUBLIC "-//W3C//DTD SVG 1.1//EN"
  "http://www.w3.org/Graphics/SVG/1.1/DTD/svg11.dtd">
<!-- Created with matplotlib (https://matplotlib.org/) -->
<svg height="328.192187pt" version="1.1" viewBox="0 0 486.545312 328.192187" width="486.545312pt" xmlns="http://www.w3.org/2000/svg" xmlns:xlink="http://www.w3.org/1999/xlink">
 <defs>
  <style type="text/css">
*{stroke-linecap:butt;stroke-linejoin:round;}
  </style>
 </defs>
 <g id="figure_1">
  <g id="patch_1">
   <path d="M 0 328.192187 
L 486.545312 328.192187 
L 486.545312 0 
L 0 0 
z
" style="fill:#ffffff;"/>
  </g>
  <g id="axes_1">
   <g id="patch_2">
    <path d="M 31.282813 292.996875 
L 477.682813 292.996875 
L 477.682813 21.196875 
L 31.282813 21.196875 
z
" style="fill:#ffffff;"/>
   </g>
   <g id="matplotlib.axis_1">
    <g id="xtick_1">
     <g id="line2d_1">
      <path clip-path="url(#pd6d37229ff)" d="M 31.282813 292.996875 
L 31.282813 21.196875 
" style="fill:none;stroke:#b0b0b0;stroke-linecap:square;stroke-width:0.8;"/>
     </g>
     <g id="line2d_2">
      <defs>
       <path d="M 0 0 
L 0 3.5 
" id="mf45d6ca3d4" style="stroke:#000000;stroke-width:0.8;"/>
      </defs>
      <g>
       <use style="stroke:#000000;stroke-width:0.8;" x="31.282813" xlink:href="#mf45d6ca3d4" y="292.996875"/>
      </g>
     </g>
     <g id="text_1">
      <!-- -90˚ -->
      <defs>
       <path d="M 4.390625 30.609375 
L 29.390625 30.609375 
L 29.390625 23 
L 4.390625 23 
z
" id="DejaVuSerif-45"/>
       <path d="M 46.78125 32.671875 
Q 43.5 29 39.25 27.1875 
Q 35.015625 25.390625 29.6875 25.390625 
Q 18.84375 25.390625 12.5625 31.9375 
Q 6.296875 38.484375 6.296875 49.8125 
Q 6.296875 60.890625 13.109375 67.546875 
Q 19.921875 74.21875 31.296875 74.21875 
Q 43.65625 74.21875 50.265625 65.015625 
Q 56.890625 55.8125 56.890625 38.71875 
Q 56.890625 19.578125 49.015625 9.078125 
Q 41.15625 -1.421875 26.90625 -1.421875 
Q 23.046875 -1.421875 18.796875 -0.6875 
Q 14.546875 0.046875 10.109375 1.515625 
L 10.109375 13.625 
L 15.578125 13.625 
Q 16.21875 8.6875 19.390625 6.046875 
Q 22.5625 3.421875 27.875 3.421875 
Q 37.359375 3.421875 41.984375 10.5625 
Q 46.625 17.71875 46.78125 32.671875 
z
M 30.90625 69.390625 
Q 23.96875 69.390625 20.28125 64.328125 
Q 16.609375 59.28125 16.609375 49.8125 
Q 16.609375 40.328125 20.28125 35.25 
Q 23.96875 30.171875 30.90625 30.171875 
Q 37.84375 30.171875 41.53125 35.078125 
Q 45.21875 39.984375 45.21875 49.21875 
Q 45.21875 58.9375 41.5 64.15625 
Q 37.796875 69.390625 30.90625 69.390625 
z
" id="DejaVuSerif-57"/>
       <path d="M 31.78125 3.421875 
Q 39.265625 3.421875 42.96875 11.625 
Q 46.6875 19.828125 46.6875 36.375 
Q 46.6875 52.984375 42.96875 61.1875 
Q 39.265625 69.390625 31.78125 69.390625 
Q 24.3125 69.390625 20.59375 61.1875 
Q 16.890625 52.984375 16.890625 36.375 
Q 16.890625 19.828125 20.59375 11.625 
Q 24.3125 3.421875 31.78125 3.421875 
z
M 31.78125 -1.421875 
Q 19.921875 -1.421875 13.25 8.53125 
Q 6.59375 18.5 6.59375 36.375 
Q 6.59375 54.296875 13.25 64.25 
Q 19.921875 74.21875 31.78125 74.21875 
Q 43.703125 74.21875 50.34375 64.25 
Q 56.984375 54.296875 56.984375 36.375 
Q 56.984375 18.5 50.34375 8.53125 
Q 43.703125 -1.421875 31.78125 -1.421875 
z
" id="DejaVuSerif-48"/>
       <path d="M 38.375 74.421875 
Q 38.375 68.796875 34.484375 64.890625 
Q 30.609375 60.984375 25 60.984375 
Q 19.390625 60.984375 15.5 64.890625 
Q 11.625 68.796875 11.625 74.421875 
Q 11.625 80.03125 15.5 83.90625 
Q 19.390625 87.796875 25 87.796875 
Q 30.609375 87.796875 34.484375 83.90625 
Q 38.375 80.03125 38.375 74.421875 
z
M 32.421875 74.421875 
Q 32.421875 77.484375 30.265625 79.625 
Q 28.125 81.78125 25 81.78125 
Q 21.828125 81.78125 19.703125 79.65625 
Q 17.578125 77.546875 17.578125 74.421875 
Q 17.578125 71.234375 19.703125 69.109375 
Q 21.828125 67 25 67 
Q 28.125 67 30.265625 69.140625 
Q 32.421875 71.296875 32.421875 74.421875 
z
" id="DejaVuSerif-730"/>
      </defs>
      <g transform="translate(20.730469 307.595312)scale(0.1 -0.1)">
       <use xlink:href="#DejaVuSerif-45"/>
       <use x="33.789062" xlink:href="#DejaVuSerif-57"/>
       <use x="97.412109" xlink:href="#DejaVuSerif-48"/>
       <use x="161.035156" xlink:href="#DejaVuSerif-730"/>
      </g>
     </g>
    </g>
    <g id="xtick_2">
     <g id="line2d_3">
      <path clip-path="url(#pd6d37229ff)" d="M 105.682812 292.996875 
L 105.682812 21.196875 
" style="fill:none;stroke:#b0b0b0;stroke-linecap:square;stroke-width:0.8;"/>
     </g>
     <g id="line2d_4">
      <g>
       <use style="stroke:#000000;stroke-width:0.8;" x="105.682812" xlink:href="#mf45d6ca3d4" y="292.996875"/>
      </g>
     </g>
     <g id="text_2">
      <!-- -60˚ -->
      <defs>
       <path d="M 32.71875 3.421875 
Q 39.59375 3.421875 43.296875 8.46875 
Q 47.015625 13.53125 47.015625 23 
Q 47.015625 32.46875 43.296875 37.515625 
Q 39.59375 42.578125 32.71875 42.578125 
Q 25.734375 42.578125 22.0625 37.6875 
Q 18.40625 32.8125 18.40625 23.578125 
Q 18.40625 13.875 22.109375 8.640625 
Q 25.828125 3.421875 32.71875 3.421875 
z
M 16.796875 40.140625 
Q 20.125 43.796875 24.3125 45.59375 
Q 28.515625 47.40625 33.796875 47.40625 
Q 44.671875 47.40625 51 40.859375 
Q 57.328125 34.328125 57.328125 23 
Q 57.328125 11.921875 50.515625 5.25 
Q 43.703125 -1.421875 32.328125 -1.421875 
Q 19.96875 -1.421875 13.328125 7.78125 
Q 6.6875 17 6.6875 34.078125 
Q 6.6875 53.21875 14.546875 63.71875 
Q 22.40625 74.21875 36.71875 74.21875 
Q 40.578125 74.21875 44.828125 73.484375 
Q 49.078125 72.75 53.515625 71.296875 
L 53.515625 59.28125 
L 48 59.28125 
Q 47.40625 64.203125 44.234375 66.796875 
Q 41.0625 69.390625 35.6875 69.390625 
Q 26.21875 69.390625 21.578125 62.203125 
Q 16.9375 55.03125 16.796875 40.140625 
z
" id="DejaVuSerif-54"/>
      </defs>
      <g transform="translate(95.130469 307.595312)scale(0.1 -0.1)">
       <use xlink:href="#DejaVuSerif-45"/>
       <use x="33.789062" xlink:href="#DejaVuSerif-54"/>
       <use x="97.412109" xlink:href="#DejaVuSerif-48"/>
       <use x="161.035156" xlink:href="#DejaVuSerif-730"/>
      </g>
     </g>
    </g>
    <g id="xtick_3">
     <g id="line2d_5">
      <path clip-path="url(#pd6d37229ff)" d="M 180.082812 292.996875 
L 180.082812 21.196875 
" style="fill:none;stroke:#b0b0b0;stroke-linecap:square;stroke-width:0.8;"/>
     </g>
     <g id="line2d_6">
      <g>
       <use style="stroke:#000000;stroke-width:0.8;" x="180.082812" xlink:href="#mf45d6ca3d4" y="292.996875"/>
      </g>
     </g>
     <g id="text_3">
      <!-- -30˚ -->
      <defs>
       <path d="M 9.71875 69.828125 
Q 15.4375 71.96875 20.671875 73.09375 
Q 25.921875 74.21875 30.515625 74.21875 
Q 41.21875 74.21875 47.21875 69.59375 
Q 53.21875 64.984375 53.21875 56.78125 
Q 53.21875 50.203125 49.0625 45.78125 
Q 44.921875 41.359375 37.3125 39.796875 
Q 46.296875 38.53125 51.25 33.28125 
Q 56.203125 28.03125 56.203125 19.671875 
Q 56.203125 9.46875 49.34375 4.015625 
Q 42.484375 -1.421875 29.59375 -1.421875 
Q 23.875 -1.421875 18.421875 -0.1875 
Q 12.984375 1.03125 7.625 3.515625 
L 7.625 17.671875 
L 13.09375 17.671875 
Q 13.578125 10.640625 17.828125 7.03125 
Q 22.078125 3.421875 29.78125 3.421875 
Q 37.25 3.421875 41.578125 7.734375 
Q 45.90625 12.0625 45.90625 19.578125 
Q 45.90625 28.171875 41.453125 32.59375 
Q 37.015625 37.015625 28.421875 37.015625 
L 23.78125 37.015625 
L 23.78125 42 
L 26.21875 42 
Q 34.765625 42 39.03125 45.53125 
Q 43.3125 49.078125 43.3125 56.203125 
Q 43.3125 62.59375 39.796875 65.984375 
Q 36.28125 69.390625 29.6875 69.390625 
Q 23.09375 69.390625 19.453125 66.265625 
Q 15.828125 63.140625 15.1875 56.984375 
L 9.71875 56.984375 
z
" id="DejaVuSerif-51"/>
      </defs>
      <g transform="translate(169.530469 307.595312)scale(0.1 -0.1)">
       <use xlink:href="#DejaVuSerif-45"/>
       <use x="33.789062" xlink:href="#DejaVuSerif-51"/>
       <use x="97.412109" xlink:href="#DejaVuSerif-48"/>
       <use x="161.035156" xlink:href="#DejaVuSerif-730"/>
      </g>
     </g>
    </g>
    <g id="xtick_4">
     <g id="line2d_7">
      <path clip-path="url(#pd6d37229ff)" d="M 254.482812 292.996875 
L 254.482812 21.196875 
" style="fill:none;stroke:#b0b0b0;stroke-linecap:square;stroke-width:0.8;"/>
     </g>
     <g id="line2d_8">
      <g>
       <use style="stroke:#000000;stroke-width:0.8;" x="254.482812" xlink:href="#mf45d6ca3d4" y="292.996875"/>
      </g>
     </g>
     <g id="text_4">
      <!-- 0˚ -->
      <g transform="translate(248.801562 307.595312)scale(0.1 -0.1)">
       <use xlink:href="#DejaVuSerif-48"/>
       <use x="63.623047" xlink:href="#DejaVuSerif-730"/>
      </g>
     </g>
    </g>
    <g id="xtick_5">
     <g id="line2d_9">
      <path clip-path="url(#pd6d37229ff)" d="M 328.882812 292.996875 
L 328.882812 21.196875 
" style="fill:none;stroke:#b0b0b0;stroke-linecap:square;stroke-width:0.8;"/>
     </g>
     <g id="line2d_10">
      <g>
       <use style="stroke:#000000;stroke-width:0.8;" x="328.882812" xlink:href="#mf45d6ca3d4" y="292.996875"/>
      </g>
     </g>
     <g id="text_5">
      <!-- 30˚ -->
      <g transform="translate(320.020312 307.595312)scale(0.1 -0.1)">
       <use xlink:href="#DejaVuSerif-51"/>
       <use x="63.623047" xlink:href="#DejaVuSerif-48"/>
       <use x="127.246094" xlink:href="#DejaVuSerif-730"/>
      </g>
     </g>
    </g>
    <g id="xtick_6">
     <g id="line2d_11">
      <path clip-path="url(#pd6d37229ff)" d="M 403.282812 292.996875 
L 403.282812 21.196875 
" style="fill:none;stroke:#b0b0b0;stroke-linecap:square;stroke-width:0.8;"/>
     </g>
     <g id="line2d_12">
      <g>
       <use style="stroke:#000000;stroke-width:0.8;" x="403.282812" xlink:href="#mf45d6ca3d4" y="292.996875"/>
      </g>
     </g>
     <g id="text_6">
      <!-- 60˚ -->
      <g transform="translate(394.420312 307.595312)scale(0.1 -0.1)">
       <use xlink:href="#DejaVuSerif-54"/>
       <use x="63.623047" xlink:href="#DejaVuSerif-48"/>
       <use x="127.246094" xlink:href="#DejaVuSerif-730"/>
      </g>
     </g>
    </g>
    <g id="xtick_7">
     <g id="line2d_13">
      <path clip-path="url(#pd6d37229ff)" d="M 477.682812 292.996875 
L 477.682812 21.196875 
" style="fill:none;stroke:#b0b0b0;stroke-linecap:square;stroke-width:0.8;"/>
     </g>
     <g id="line2d_14">
      <g>
       <use style="stroke:#000000;stroke-width:0.8;" x="477.682812" xlink:href="#mf45d6ca3d4" y="292.996875"/>
      </g>
     </g>
     <g id="text_7">
      <!-- 90˚ -->
      <g transform="translate(468.820312 307.595312)scale(0.1 -0.1)">
       <use xlink:href="#DejaVuSerif-57"/>
       <use x="63.623047" xlink:href="#DejaVuSerif-48"/>
       <use x="127.246094" xlink:href="#DejaVuSerif-730"/>
      </g>
     </g>
    </g>
    <g id="text_8">
     <!-- $\theta_i$ -->
     <defs>
      <path d="M 45.125 40.625 
Q 47.796875 56.296875 46.046875 64.265625 
Q 44.09375 73.09375 36.859375 73.09375 
Q 29.6875 73.09375 24.265625 64.265625 
Q 19.4375 56.296875 16.015625 40.625 
z
M 44.09375 35.40625 
L 14.984375 35.40625 
Q 12.359375 19.828125 14.109375 11.859375 
Q 16.109375 2.984375 23.25 2.984375 
Q 30.421875 2.984375 35.84375 11.859375 
Q 40.671875 19.828125 44.09375 35.40625 
z
M 37.640625 77.046875 
Q 49.03125 77.046875 53.8125 66.375 
Q 58.59375 55.71875 55.140625 38.015625 
Q 51.703125 20.3125 42.71875 9.609375 
Q 33.734375 -1.078125 22.40625 -1.078125 
Q 11.140625 -1.078125 6.34375 9.609375 
Q 1.5625 20.3125 5 38.015625 
Q 8.453125 55.71875 17.375 66.375 
Q 26.3125 77.046875 37.640625 77.046875 
z
" id="DejaVuSerif-Italic-952"/>
      <path d="M 15.765625 68.015625 
Q 16.21875 70.265625 18.171875 71.921875 
Q 20.125 73.578125 22.40625 73.578125 
Q 24.65625 73.578125 25.984375 71.921875 
Q 27 70.65625 27 69.09375 
Q 27 68.5625 26.859375 68.015625 
Q 26.421875 65.71875 24.484375 64.109375 
Q 22.5625 62.5 20.265625 62.5 
Q 17.96875 62.5 16.65625 64.109375 
Q 15.671875 65.328125 15.671875 66.890625 
Q 15.671875 67.4375 15.765625 68.015625 
z
M 15.046875 5.171875 
L 23.53125 5.171875 
L 22.5625 0 
L 5.078125 0 
L 14.109375 46.6875 
L 5.515625 46.6875 
L 6.546875 51.90625 
L 24.125 51.90625 
z
" id="DejaVuSerif-Italic-105"/>
     </defs>
     <g transform="translate(248.032813 325.072656)scale(0.15 -0.15)">
      <use transform="translate(0 0.953125)" xlink:href="#DejaVuSerif-Italic-952"/>
      <use transform="translate(60.205078 -14.61875)scale(0.7)" xlink:href="#DejaVuSerif-Italic-105"/>
     </g>
    </g>
   </g>
   <g id="matplotlib.axis_2">
    <g id="ytick_1">
     <g id="line2d_15">
      <path clip-path="url(#pd6d37229ff)" d="M 31.282813 286.525446 
L 477.682813 286.525446 
" style="fill:none;stroke:#b0b0b0;stroke-linecap:square;stroke-width:0.8;"/>
     </g>
     <g id="line2d_16">
      <defs>
       <path d="M 0 0 
L -3.5 0 
" id="m23caaf042e" style="stroke:#000000;stroke-width:0.8;"/>
      </defs>
      <g>
       <use style="stroke:#000000;stroke-width:0.8;" x="31.282813" xlink:href="#m23caaf042e" y="286.525446"/>
      </g>
     </g>
     <g id="text_9">
      <!-- −1.0 -->
      <defs>
       <path d="M 10.59375 35.296875 
L 73.1875 35.296875 
L 73.1875 27.390625 
L 10.59375 27.390625 
z
" id="DejaVuSerif-8722"/>
       <path d="M 14.203125 0 
L 14.203125 5.171875 
L 26.90625 5.171875 
L 26.90625 65.828125 
L 12.203125 56.296875 
L 12.203125 62.703125 
L 29.984375 74.21875 
L 36.71875 74.21875 
L 36.71875 5.171875 
L 49.421875 5.171875 
L 49.421875 0 
z
" id="DejaVuSerif-49"/>
       <path d="M 9.421875 5.078125 
Q 9.421875 7.8125 11.28125 9.71875 
Q 13.140625 11.625 15.921875 11.625 
Q 18.609375 11.625 20.5 9.71875 
Q 22.40625 7.8125 22.40625 5.078125 
Q 22.40625 2.390625 20.5 0.484375 
Q 18.609375 -1.421875 15.921875 -1.421875 
Q 13.140625 -1.421875 11.28125 0.453125 
Q 9.421875 2.34375 9.421875 5.078125 
z
" id="DejaVuSerif-46"/>
      </defs>
      <g transform="translate(0 290.324665)scale(0.1 -0.1)">
       <use xlink:href="#DejaVuSerif-8722"/>
       <use x="83.789062" xlink:href="#DejaVuSerif-49"/>
       <use x="147.412109" xlink:href="#DejaVuSerif-46"/>
       <use x="179.199219" xlink:href="#DejaVuSerif-48"/>
      </g>
     </g>
    </g>
    <g id="ytick_2">
     <g id="line2d_17">
      <path clip-path="url(#pd6d37229ff)" d="M 31.282813 221.811161 
L 477.682813 221.811161 
" style="fill:none;stroke:#b0b0b0;stroke-linecap:square;stroke-width:0.8;"/>
     </g>
     <g id="line2d_18">
      <g>
       <use style="stroke:#000000;stroke-width:0.8;" x="31.282813" xlink:href="#m23caaf042e" y="221.811161"/>
      </g>
     </g>
     <g id="text_10">
      <!-- −0.5 -->
      <defs>
       <path d="M 50.296875 72.90625 
L 50.296875 64.890625 
L 16.890625 64.890625 
L 16.890625 44 
Q 19.4375 45.75 22.828125 46.625 
Q 26.21875 47.515625 30.421875 47.515625 
Q 42.234375 47.515625 49.0625 40.96875 
Q 55.90625 34.421875 55.90625 23.09375 
Q 55.90625 11.53125 49 5.046875 
Q 42.09375 -1.421875 29.59375 -1.421875 
Q 24.5625 -1.421875 19.28125 -0.1875 
Q 14.015625 1.03125 8.5 3.515625 
L 8.5 17.671875 
L 14.015625 17.671875 
Q 14.453125 10.75 18.421875 7.078125 
Q 22.40625 3.421875 29.59375 3.421875 
Q 37.3125 3.421875 41.453125 8.5 
Q 45.609375 13.578125 45.609375 23.09375 
Q 45.609375 32.5625 41.484375 37.609375 
Q 37.359375 42.671875 29.59375 42.671875 
Q 25.203125 42.671875 21.84375 41.109375 
Q 18.5 39.546875 15.921875 36.28125 
L 11.71875 36.28125 
L 11.71875 72.90625 
z
" id="DejaVuSerif-53"/>
      </defs>
      <g transform="translate(0 225.610379)scale(0.1 -0.1)">
       <use xlink:href="#DejaVuSerif-8722"/>
       <use x="83.789062" xlink:href="#DejaVuSerif-48"/>
       <use x="147.412109" xlink:href="#DejaVuSerif-46"/>
       <use x="179.199219" xlink:href="#DejaVuSerif-53"/>
      </g>
     </g>
    </g>
    <g id="ytick_3">
     <g id="line2d_19">
      <path clip-path="url(#pd6d37229ff)" d="M 31.282813 157.096875 
L 477.682813 157.096875 
" style="fill:none;stroke:#b0b0b0;stroke-linecap:square;stroke-width:0.8;"/>
     </g>
     <g id="line2d_20">
      <g>
       <use style="stroke:#000000;stroke-width:0.8;" x="31.282813" xlink:href="#m23caaf042e" y="157.096875"/>
      </g>
     </g>
     <g id="text_11">
      <!-- 0.0 -->
      <g transform="translate(8.379688 160.896094)scale(0.1 -0.1)">
       <use xlink:href="#DejaVuSerif-48"/>
       <use x="63.623047" xlink:href="#DejaVuSerif-46"/>
       <use x="95.410156" xlink:href="#DejaVuSerif-48"/>
      </g>
     </g>
    </g>
    <g id="ytick_4">
     <g id="line2d_21">
      <path clip-path="url(#pd6d37229ff)" d="M 31.282813 92.382589 
L 477.682813 92.382589 
" style="fill:none;stroke:#b0b0b0;stroke-linecap:square;stroke-width:0.8;"/>
     </g>
     <g id="line2d_22">
      <g>
       <use style="stroke:#000000;stroke-width:0.8;" x="31.282813" xlink:href="#m23caaf042e" y="92.382589"/>
      </g>
     </g>
     <g id="text_12">
      <!-- 0.5 -->
      <g transform="translate(8.379688 96.181808)scale(0.1 -0.1)">
       <use xlink:href="#DejaVuSerif-48"/>
       <use x="63.623047" xlink:href="#DejaVuSerif-46"/>
       <use x="95.410156" xlink:href="#DejaVuSerif-53"/>
      </g>
     </g>
    </g>
    <g id="ytick_5">
     <g id="line2d_23">
      <path clip-path="url(#pd6d37229ff)" d="M 31.282813 27.668304 
L 477.682813 27.668304 
" style="fill:none;stroke:#b0b0b0;stroke-linecap:square;stroke-width:0.8;"/>
     </g>
     <g id="line2d_24">
      <g>
       <use style="stroke:#000000;stroke-width:0.8;" x="31.282813" xlink:href="#m23caaf042e" y="27.668304"/>
      </g>
     </g>
     <g id="text_13">
      <!-- 1.0 -->
      <g transform="translate(8.379688 31.467522)scale(0.1 -0.1)">
       <use xlink:href="#DejaVuSerif-49"/>
       <use x="63.623047" xlink:href="#DejaVuSerif-46"/>
       <use x="95.410156" xlink:href="#DejaVuSerif-48"/>
      </g>
     </g>
    </g>
   </g>
   <g id="line2d_25">
    <path clip-path="url(#pd6d37229ff)" d="M 31.282813 27.668304 
L 477.682812 27.668304 
L 477.682812 27.668304 
" style="fill:none;stroke:#1f77b4;stroke-linecap:square;stroke-width:2.5;"/>
   </g>
   <g id="line2d_26">
    <path clip-path="url(#pd6d37229ff)" d="M 31.282813 157.220908 
L 36.270522 155.601678 
L 38.764377 155.201974 
L 43.752086 153.803819 
L 48.739796 152.569312 
L 53.727505 151.678456 
L 58.715215 151.072981 
L 63.702924 150.71052 
L 71.184488 150.619143 
L 76.172198 150.705643 
L 86.147617 151.218891 
L 98.616891 152.04042 
L 128.543148 154.069159 
L 146.000131 154.978011 
L 173.432533 156.044931 
L 195.877226 156.621638 
L 203.35879 156.778426 
L 233.285047 157.177702 
L 235.778902 157.083471 
L 238.272757 156.227437 
L 240.766611 149.851866 
L 243.260466 147.747686 
L 245.754321 159.95194 
L 248.248176 151.789276 
L 250.74203 151.707825 
L 253.235885 155.781396 
L 255.72974 144.666791 
L 258.223595 165.547045 
L 260.717449 181.447882 
L 263.211304 147.323687 
L 265.705159 156.254427 
L 268.199014 157.253414 
L 308.10069 156.79825 
L 333.039237 156.173838 
L 360.471639 155.150831 
L 385.410187 153.792549 
L 435.287282 150.569078 
L 442.768846 150.434814 
L 450.25041 150.720877 
L 455.23812 151.212919 
L 460.225829 152.009264 
L 465.213539 153.100259 
L 470.201248 154.436195 
L 472.695103 155.219367 
L 475.188958 155.790885 
L 477.682812 155.924976 
L 477.682812 155.924976 
" style="fill:none;stroke:#ff7f0e;stroke-linecap:square;stroke-width:2.5;"/>
   </g>
   <g id="line2d_27">
    <path clip-path="url(#pd6d37229ff)" d="M 31.282813 27.964985 
L 33.776667 29.323765 
L 36.270522 32.099986 
L 38.764377 36.594462 
L 41.258231 43.163504 
L 43.752086 50.811661 
L 46.245941 59.920956 
L 51.23365 80.23004 
L 56.22136 101.915299 
L 61.209069 123.925403 
L 66.196779 144.344127 
L 68.690634 154.139103 
L 73.678343 172.221546 
L 76.172198 180.588565 
L 81.159907 195.399679 
L 83.653762 202.200341 
L 86.147617 208.554827 
L 88.641472 214.577696 
L 91.135326 219.990044 
L 96.123036 229.764047 
L 101.110745 238.30837 
L 103.6046 242.122554 
L 106.098455 245.559682 
L 111.086164 251.738986 
L 113.580019 254.558132 
L 116.073874 257.199088 
L 118.567729 259.499734 
L 123.555438 263.659778 
L 128.543148 267.446046 
L 131.037002 269.002484 
L 136.024712 271.788458 
L 143.506276 275.316084 
L 146.000131 276.292054 
L 153.481695 278.768758 
L 160.963259 280.730427 
L 168.444824 282.251359 
L 178.420243 283.499491 
L 180.914097 283.70387 
L 183.407952 284.026491 
L 200.864935 285.12563 
L 205.852645 285.190508 
L 208.3465 285.394181 
L 213.334209 285.417115 
L 215.828064 285.360161 
L 218.321919 285.505667 
L 223.309628 285.480473 
L 228.297338 285.563691 
L 230.791192 285.449099 
L 233.285047 285.516602 
L 235.778902 285.829794 
L 238.272757 300.963999 
L 239.780791 329.192187 
M 241.020591 329.192187 
L 243.260466 166.452302 
L 245.754321 151.802827 
L 248.248176 158.600275 
L 250.74203 152.81003 
L 253.235885 157.16002 
L 255.72974 202.829968 
L 258.223595 154.531218 
L 260.717449 118.790423 
L 263.211304 105.550841 
L 265.705159 326.266473 
L 268.199014 285.515447 
L 270.692868 285.408992 
L 275.680578 285.607964 
L 278.174433 285.484038 
L 285.655997 285.547575 
L 293.137561 285.473074 
L 300.619125 285.287813 
L 303.11298 285.34261 
L 305.606835 285.161004 
L 308.10069 285.185273 
L 315.582254 284.846471 
L 320.569963 284.601003 
L 323.063818 284.316059 
L 328.051528 284.091256 
L 330.545382 283.715391 
L 338.026947 282.862719 
L 343.014656 282.1332 
L 348.002366 281.103082 
L 350.49622 280.685489 
L 357.977785 278.748463 
L 360.471639 278.015825 
L 367.953204 275.241807 
L 375.434768 271.714778 
L 377.928623 270.35105 
L 380.422477 268.827109 
L 385.410187 265.480653 
L 390.397896 261.586854 
L 392.891751 259.321982 
L 395.385606 256.881332 
L 400.373315 251.552331 
L 405.361025 245.192822 
L 407.85488 241.627412 
L 410.348734 237.851354 
L 412.842589 233.727089 
L 417.830299 224.513476 
L 420.324153 219.404096 
L 425.311863 207.930365 
L 427.805718 201.430297 
L 430.299572 194.51795 
L 432.793427 187.239392 
L 435.287282 179.38774 
L 437.781137 171.090522 
L 440.274991 162.273365 
L 445.262701 143.225859 
L 447.756556 133.0508 
L 455.23812 100.657365 
L 460.225829 78.964744 
L 462.719684 68.499407 
L 465.213539 58.89127 
L 467.707394 50.053048 
L 470.201248 42.229723 
L 472.695103 36.060675 
L 475.188958 31.599099 
L 477.682812 29.552419 
L 477.682812 29.552419 
" style="fill:none;stroke:#2ca02c;stroke-linecap:square;stroke-width:2.5;"/>
   </g>
   <g id="line2d_28">
    <path clip-path="url(#pd6d37229ff)" d="M 31.282813 157.199021 
L 33.776667 165.449899 
L 36.270522 189.083764 
L 41.258231 217.91275 
L 43.752086 230.401061 
L 46.245941 242.028816 
L 48.739796 252.199884 
L 51.23365 260.575199 
L 53.727505 267.511711 
L 56.22136 273.494452 
L 58.715215 277.993348 
L 61.209069 281.464801 
L 63.702924 283.847384 
L 66.196779 285.124613 
L 68.690634 285.815503 
L 71.184488 285.665875 
L 73.678343 284.86657 
L 76.172198 283.552934 
L 78.666053 281.943273 
L 81.159907 279.944639 
L 83.653762 277.603696 
L 86.147617 274.99661 
L 93.629181 266.370472 
L 108.59231 247.282977 
L 118.567729 234.798428 
L 128.543148 223.183457 
L 131.037002 220.278853 
L 143.506276 207.453425 
L 150.98784 200.574722 
L 158.469405 194.173932 
L 160.963259 192.342779 
L 165.950969 188.495972 
L 170.938678 184.758797 
L 175.926388 181.668967 
L 178.420243 180.01024 
L 185.901807 175.605386 
L 198.371081 169.40656 
L 208.3465 165.439004 
L 213.334209 163.716278 
L 225.803483 160.248678 
L 233.285047 158.88056 
L 235.778902 158.721729 
L 238.272757 154.181114 
L 240.766611 174.330285 
L 243.260466 154.87726 
L 245.754321 159.572163 
L 248.248176 158.124545 
L 250.74203 161.882863 
L 253.235885 157.194782 
L 255.72974 178.864749 
L 258.223595 153.854333 
L 260.717449 173.936048 
L 263.211304 184.075093 
L 265.705159 161.629987 
L 268.199014 157.535302 
L 273.186723 158.081731 
L 280.668287 159.24877 
L 288.149852 160.923772 
L 293.137561 162.187879 
L 303.11298 165.477445 
L 308.10069 167.380322 
L 315.582254 170.644351 
L 320.569963 173.064702 
L 325.557673 175.742385 
L 328.051528 177.117754 
L 335.533092 181.678298 
L 343.014656 186.763197 
L 348.002366 190.403823 
L 355.48393 196.466028 
L 360.471639 200.753463 
L 365.459349 205.283654 
L 372.940913 212.615031 
L 380.422477 220.530982 
L 385.410187 226.182206 
L 392.891751 234.989517 
L 410.348734 257.090877 
L 417.830299 266.564383 
L 420.324153 269.622172 
L 425.311863 275.275545 
L 430.299572 280.157574 
L 435.287282 283.780824 
L 437.781137 284.940463 
L 440.274991 285.519398 
L 442.768846 285.581693 
L 445.262701 284.942941 
L 447.756556 283.352971 
L 450.25041 280.871165 
L 452.744265 277.444477 
L 455.23812 272.675567 
L 457.731975 266.544446 
L 460.225829 259.303568 
L 462.719684 250.497968 
L 465.213539 240.504989 
L 467.707394 228.828845 
L 472.695103 202.080443 
L 475.188958 186.911719 
L 477.682812 168.934509 
L 477.682812 168.934509 
" style="fill:none;stroke:#d62728;stroke-linecap:square;stroke-width:2.5;"/>
   </g>
   <g id="line2d_29">
    <path clip-path="url(#pd6d37229ff)" d="M 31.282813 157.006763 
L 33.776667 148.6426 
L 36.270522 125.44178 
L 41.258231 97.204672 
L 43.752086 84.863942 
L 46.245941 73.35291 
L 48.739796 63.254958 
L 51.23365 54.939956 
L 53.727505 48.028753 
L 56.22136 42.084244 
L 58.715215 37.568679 
L 61.209069 34.06791 
L 63.702924 31.639832 
L 66.196779 30.302595 
L 68.690634 29.563186 
L 71.184488 29.639804 
L 73.678343 30.37117 
L 76.172198 31.644688 
L 78.666053 33.174787 
L 81.159907 35.11506 
L 83.653762 37.376853 
L 86.147617 39.922032 
L 93.629181 48.382358 
L 118.567729 79.491063 
L 126.049293 88.252832 
L 133.530857 96.490012 
L 141.012421 104.198908 
L 143.506276 106.648481 
L 150.98784 113.505763 
L 158.469405 119.821749 
L 168.444824 127.410028 
L 170.938678 129.203263 
L 178.420243 134.02153 
L 185.901807 138.438294 
L 198.371081 144.605734 
L 205.852645 147.652421 
L 210.840354 149.503659 
L 215.828064 151.060096 
L 220.815773 152.471708 
L 225.803483 153.75057 
L 233.285047 155.191531 
L 235.778902 155.642999 
L 238.272757 158.154754 
L 240.766611 162.17411 
L 243.260466 162.499084 
L 245.754321 155.69422 
L 248.248176 166.469788 
L 250.74203 159.150867 
L 253.235885 159.462561 
L 255.72974 132.382101 
L 258.223595 138.654179 
L 260.717449 155.559938 
L 263.211304 115.264478 
L 265.705159 153.915661 
L 268.199014 156.562419 
L 273.186723 156.012427 
L 278.174433 155.28692 
L 283.162142 154.351411 
L 288.149852 153.243028 
L 295.631416 151.21013 
L 300.619125 149.595242 
L 305.606835 147.810854 
L 310.594544 145.779761 
L 315.582254 143.591244 
L 320.569963 141.175807 
L 325.557673 138.547607 
L 333.039237 134.17073 
L 338.026947 130.956364 
L 345.508511 125.755056 
L 352.990075 119.94914 
L 360.471639 113.56992 
L 365.459349 109.068305 
L 372.940913 101.764411 
L 382.916332 91.108876 
L 392.891751 79.503944 
L 410.348734 57.610901 
L 417.830299 48.288331 
L 420.324153 45.26553 
L 425.311863 39.707409 
L 430.299572 34.888778 
L 435.287282 31.394472 
L 437.781137 30.27409 
L 440.274991 29.723168 
L 442.768846 29.709053 
L 445.262701 30.392028 
L 447.756556 32.020003 
L 450.25041 34.523951 
L 452.744265 37.957839 
L 455.23812 42.726536 
L 457.731975 48.803167 
L 460.225829 56.003561 
L 462.719684 64.727654 
L 465.213539 74.631358 
L 467.707394 86.167685 
L 472.695103 112.566531 
L 475.188958 127.525059 
L 477.682812 145.302498 
L 477.682812 145.302498 
" style="fill:none;stroke:#9467bd;stroke-linecap:square;stroke-width:2.5;"/>
   </g>
   <g id="patch_3">
    <path d="M 31.282813 292.996875 
L 31.282813 21.196875 
" style="fill:none;stroke:#000000;stroke-linecap:square;stroke-linejoin:miter;stroke-width:0.8;"/>
   </g>
   <g id="patch_4">
    <path d="M 477.682813 292.996875 
L 477.682813 21.196875 
" style="fill:none;stroke:#000000;stroke-linecap:square;stroke-linejoin:miter;stroke-width:0.8;"/>
   </g>
   <g id="patch_5">
    <path d="M 31.282813 292.996875 
L 477.682812 292.996875 
" style="fill:none;stroke:#000000;stroke-linecap:square;stroke-linejoin:miter;stroke-width:0.8;"/>
   </g>
   <g id="patch_6">
    <path d="M 31.282813 21.196875 
L 477.682812 21.196875 
" style="fill:none;stroke:#000000;stroke-linecap:square;stroke-linejoin:miter;stroke-width:0.8;"/>
   </g>
   <g id="text_14">
    <!-- In-plane measurement (Gold) -->
    <defs>
     <path d="M 24.703125 5.171875 
L 33.984375 5.171875 
L 33.984375 0 
L 5.515625 0 
L 5.515625 5.171875 
L 14.796875 5.171875 
L 14.796875 67.671875 
L 5.515625 67.671875 
L 5.515625 72.90625 
L 33.984375 72.90625 
L 33.984375 67.671875 
L 24.703125 67.671875 
z
" id="DejaVuSerif-73"/>
     <path d="M 4.109375 0 
L 4.109375 5.171875 
L 12.203125 5.171875 
L 12.203125 46.6875 
L 3.609375 46.6875 
L 3.609375 51.90625 
L 21.1875 51.90625 
L 21.1875 42.671875 
Q 23.6875 47.953125 27.65625 50.640625 
Q 31.640625 53.328125 36.921875 53.328125 
Q 45.515625 53.328125 49.5625 48.390625 
Q 53.609375 43.453125 53.609375 33.015625 
L 53.609375 5.171875 
L 61.625 5.171875 
L 61.625 0 
L 36.8125 0 
L 36.8125 5.171875 
L 44.578125 5.171875 
L 44.578125 30.171875 
Q 44.578125 39.703125 42.234375 43.234375 
Q 39.890625 46.78125 33.984375 46.78125 
Q 27.734375 46.78125 24.453125 42.203125 
Q 21.1875 37.640625 21.1875 28.90625 
L 21.1875 5.171875 
L 29 5.171875 
L 29 0 
z
" id="DejaVuSerif-110"/>
     <path d="M 20.515625 28.515625 
L 20.515625 23.390625 
Q 20.515625 14.015625 24.09375 9.109375 
Q 27.6875 4.203125 34.515625 4.203125 
Q 41.40625 4.203125 44.9375 9.71875 
Q 48.484375 15.234375 48.484375 25.984375 
Q 48.484375 36.765625 44.9375 42.234375 
Q 41.40625 47.703125 34.515625 47.703125 
Q 27.6875 47.703125 24.09375 42.765625 
Q 20.515625 37.84375 20.515625 28.515625 
z
M 11.53125 46.6875 
L 2.875 46.6875 
L 2.875 51.90625 
L 20.515625 51.90625 
L 20.515625 43.796875 
Q 23.140625 48.6875 27.21875 51 
Q 31.296875 53.328125 37.3125 53.328125 
Q 46.875 53.328125 52.921875 45.75 
Q 58.984375 38.1875 58.984375 25.984375 
Q 58.984375 13.765625 52.921875 6.171875 
Q 46.875 -1.421875 37.3125 -1.421875 
Q 31.296875 -1.421875 27.21875 0.890625 
Q 23.140625 3.21875 20.515625 8.109375 
L 20.515625 -15.578125 
L 29 -15.578125 
L 29 -20.796875 
L 2.875 -20.796875 
L 2.875 -15.578125 
L 11.53125 -15.578125 
z
" id="DejaVuSerif-112"/>
     <path d="M 20.515625 5.171875 
L 29 5.171875 
L 29 0 
L 2.875 0 
L 2.875 5.171875 
L 11.53125 5.171875 
L 11.53125 70.796875 
L 2.875 70.796875 
L 2.875 75.984375 
L 20.515625 75.984375 
z
" id="DejaVuSerif-108"/>
     <path d="M 39.796875 16.3125 
L 39.796875 27.296875 
L 28.21875 27.296875 
Q 21.53125 27.296875 18.25 24.40625 
Q 14.984375 21.53125 14.984375 15.578125 
Q 14.984375 10.15625 18.296875 6.984375 
Q 21.625 3.8125 27.296875 3.8125 
Q 32.90625 3.8125 36.34375 7.28125 
Q 39.796875 10.75 39.796875 16.3125 
z
M 48.78125 32.421875 
L 48.78125 5.171875 
L 56.78125 5.171875 
L 56.78125 0 
L 39.796875 0 
L 39.796875 5.609375 
Q 36.8125 2 32.90625 0.28125 
Q 29 -1.421875 23.78125 -1.421875 
Q 15.140625 -1.421875 10.0625 3.171875 
Q 4.984375 7.765625 4.984375 15.578125 
Q 4.984375 23.640625 10.796875 28.078125 
Q 16.609375 32.515625 27.203125 32.515625 
L 39.796875 32.515625 
L 39.796875 36.078125 
Q 39.796875 42 36.203125 45.234375 
Q 32.625 48.484375 26.125 48.484375 
Q 20.75 48.484375 17.578125 46.046875 
Q 14.40625 43.609375 13.625 38.8125 
L 8.984375 38.8125 
L 8.984375 49.3125 
Q 13.671875 51.3125 18.09375 52.3125 
Q 22.515625 53.328125 26.703125 53.328125 
Q 37.5 53.328125 43.140625 47.96875 
Q 48.78125 42.625 48.78125 32.421875 
z
" id="DejaVuSerif-97"/>
     <path d="M 54.203125 25 
L 15.484375 25 
L 15.484375 24.609375 
Q 15.484375 14.109375 19.4375 8.765625 
Q 23.390625 3.421875 31.109375 3.421875 
Q 37.015625 3.421875 40.796875 6.515625 
Q 44.578125 9.625 46.09375 15.71875 
L 53.328125 15.71875 
Q 51.171875 7.171875 45.375 2.875 
Q 39.59375 -1.421875 30.171875 -1.421875 
Q 18.796875 -1.421875 11.890625 6.078125 
Q 4.984375 13.578125 4.984375 25.984375 
Q 4.984375 38.28125 11.765625 45.796875 
Q 18.5625 53.328125 29.59375 53.328125 
Q 41.359375 53.328125 47.65625 46.0625 
Q 53.953125 38.8125 54.203125 25 
z
M 43.609375 30.171875 
Q 43.3125 39.265625 39.765625 43.875 
Q 36.234375 48.484375 29.59375 48.484375 
Q 23.390625 48.484375 19.828125 43.84375 
Q 16.265625 39.203125 15.484375 30.171875 
z
" id="DejaVuSerif-101"/>
     <path id="DejaVuSerif-32"/>
     <path d="M 51.8125 41.796875 
Q 54.390625 47.515625 58.421875 50.421875 
Q 62.453125 53.328125 67.828125 53.328125 
Q 75.984375 53.328125 79.984375 48.265625 
Q 83.984375 43.21875 83.984375 33.015625 
L 83.984375 5.171875 
L 92.09375 5.171875 
L 92.09375 0 
L 67.1875 0 
L 67.1875 5.171875 
L 75 5.171875 
L 75 31.984375 
Q 75 39.9375 72.65625 43.3125 
Q 70.3125 46.6875 64.890625 46.6875 
Q 58.890625 46.6875 55.734375 42.140625 
Q 52.59375 37.59375 52.59375 28.90625 
L 52.59375 5.171875 
L 60.40625 5.171875 
L 60.40625 0 
L 35.796875 0 
L 35.796875 5.171875 
L 43.609375 5.171875 
L 43.609375 32.328125 
Q 43.609375 40.09375 41.265625 43.390625 
Q 38.921875 46.6875 33.5 46.6875 
Q 27.484375 46.6875 24.328125 42.140625 
Q 21.1875 37.59375 21.1875 28.90625 
L 21.1875 5.171875 
L 29 5.171875 
L 29 0 
L 4.109375 0 
L 4.109375 5.171875 
L 12.203125 5.171875 
L 12.203125 46.78125 
L 3.609375 46.78125 
L 3.609375 51.90625 
L 21.1875 51.90625 
L 21.1875 42.671875 
Q 23.6875 47.859375 27.53125 50.59375 
Q 31.390625 53.328125 36.28125 53.328125 
Q 42.328125 53.328125 46.375 50.3125 
Q 50.4375 47.3125 51.8125 41.796875 
z
" id="DejaVuSerif-109"/>
     <path d="M 5.609375 2.875 
L 5.609375 14.984375 
L 10.796875 14.984375 
Q 10.984375 9.1875 14.421875 6.296875 
Q 17.875 3.421875 24.609375 3.421875 
Q 30.671875 3.421875 33.84375 5.6875 
Q 37.015625 7.953125 37.015625 12.3125 
Q 37.015625 15.71875 34.6875 17.8125 
Q 32.375 19.921875 24.90625 22.3125 
L 18.40625 24.515625 
Q 11.71875 26.65625 8.71875 29.875 
Q 5.71875 33.109375 5.71875 38.09375 
Q 5.71875 45.21875 10.9375 49.265625 
Q 16.15625 53.328125 25.390625 53.328125 
Q 29.5 53.328125 34.03125 52.25 
Q 38.578125 51.171875 43.40625 49.125 
L 43.40625 37.796875 
L 38.234375 37.796875 
Q 38.03125 42.828125 34.703125 45.65625 
Q 31.390625 48.484375 25.6875 48.484375 
Q 20.015625 48.484375 17.109375 46.484375 
Q 14.203125 44.484375 14.203125 40.484375 
Q 14.203125 37.203125 16.40625 35.21875 
Q 18.609375 33.25 25.203125 31.203125 
L 32.328125 29 
Q 39.703125 26.703125 42.9375 23.265625 
Q 46.1875 19.828125 46.1875 14.40625 
Q 46.1875 7.03125 40.546875 2.796875 
Q 34.90625 -1.421875 25 -1.421875 
Q 19.96875 -1.421875 15.1875 -0.34375 
Q 10.40625 0.734375 5.609375 2.875 
z
" id="DejaVuSerif-115"/>
     <path d="M 35.40625 51.90625 
L 52.203125 51.90625 
L 52.203125 5.171875 
L 60.6875 5.171875 
L 60.6875 0 
L 43.21875 0 
L 43.21875 9.1875 
Q 40.71875 4 36.765625 1.28125 
Q 32.8125 -1.421875 27.59375 -1.421875 
Q 18.953125 -1.421875 14.875 3.484375 
Q 10.796875 8.40625 10.796875 18.890625 
L 10.796875 46.6875 
L 2.6875 46.6875 
L 2.6875 51.90625 
L 19.828125 51.90625 
L 19.828125 21.6875 
Q 19.828125 12.203125 22.140625 8.6875 
Q 24.46875 5.171875 30.421875 5.171875 
Q 36.671875 5.171875 39.9375 9.765625 
Q 43.21875 14.359375 43.21875 23.09375 
L 43.21875 46.6875 
L 35.40625 46.6875 
z
" id="DejaVuSerif-117"/>
     <path d="M 47.796875 52 
L 47.796875 39.015625 
L 42.625 39.015625 
Q 42.390625 42.875 40.484375 44.78125 
Q 38.578125 46.6875 34.90625 46.6875 
Q 28.265625 46.6875 24.71875 42.09375 
Q 21.1875 37.5 21.1875 28.90625 
L 21.1875 5.171875 
L 31.59375 5.171875 
L 31.59375 0 
L 4.109375 0 
L 4.109375 5.171875 
L 12.203125 5.171875 
L 12.203125 46.78125 
L 3.609375 46.78125 
L 3.609375 51.90625 
L 21.1875 51.90625 
L 21.1875 42.671875 
Q 23.828125 48.09375 27.96875 50.703125 
Q 32.125 53.328125 38.09375 53.328125 
Q 40.28125 53.328125 42.703125 52.984375 
Q 45.125 52.640625 47.796875 52 
z
" id="DejaVuSerif-114"/>
     <path d="M 10.796875 46.6875 
L 2.875 46.6875 
L 2.875 51.90625 
L 10.796875 51.90625 
L 10.796875 68.015625 
L 19.828125 68.015625 
L 19.828125 51.90625 
L 36.71875 51.90625 
L 36.71875 46.6875 
L 19.828125 46.6875 
L 19.828125 13.71875 
Q 19.828125 7.125 21.09375 5.265625 
Q 22.359375 3.421875 25.78125 3.421875 
Q 29.296875 3.421875 30.90625 5.484375 
Q 32.515625 7.5625 32.625 12.203125 
L 39.40625 12.203125 
Q 39.015625 5.125 35.546875 1.84375 
Q 32.078125 -1.421875 25 -1.421875 
Q 17.234375 -1.421875 14.015625 2.015625 
Q 10.796875 5.46875 10.796875 13.71875 
z
" id="DejaVuSerif-116"/>
     <path d="M 31.890625 -15.578125 
Q 20.015625 -10.25 13.953125 1.296875 
Q 7.90625 12.84375 7.90625 30.171875 
Q 7.90625 47.5625 13.953125 59.109375 
Q 20.015625 70.65625 31.890625 75.984375 
L 31.890625 71.1875 
Q 24.359375 66.015625 21.09375 56.609375 
Q 17.828125 47.21875 17.828125 30.171875 
Q 17.828125 13.1875 21.09375 3.78125 
Q 24.359375 -5.609375 31.890625 -10.796875 
z
" id="DejaVuSerif-40"/>
     <path d="M 64.015625 51.125 
Q 62.3125 60.25 56.890625 64.625 
Q 51.46875 69 41.796875 69 
Q 29.203125 69 23 60.890625 
Q 16.796875 52.78125 16.796875 36.375 
Q 16.796875 20.3125 23.1875 12.0625 
Q 29.59375 3.8125 42 3.8125 
Q 47.515625 3.8125 52.53125 5.171875 
Q 57.5625 6.546875 62.109375 9.28125 
L 62.109375 28.078125 
L 48.390625 28.078125 
L 48.390625 33.296875 
L 72.015625 33.296875 
L 72.015625 6.109375 
Q 65.53125 2.34375 58.03125 0.453125 
Q 50.53125 -1.421875 42 -1.421875 
Q 25.484375 -1.421875 15.546875 8.90625 
Q 5.609375 19.234375 5.609375 36.375 
Q 5.609375 53.65625 15.5625 63.9375 
Q 25.53125 74.21875 42.390625 74.21875 
Q 48.640625 74.21875 55.296875 72.78125 
Q 61.96875 71.34375 69.484375 68.40625 
L 69.484375 51.125 
z
" id="DejaVuSerif-71"/>
     <path d="M 30.078125 3.421875 
Q 37.3125 3.421875 40.984375 9.125 
Q 44.671875 14.84375 44.671875 25.984375 
Q 44.671875 37.109375 40.984375 42.796875 
Q 37.3125 48.484375 30.078125 48.484375 
Q 22.859375 48.484375 19.171875 42.796875 
Q 15.484375 37.109375 15.484375 25.984375 
Q 15.484375 14.84375 19.1875 9.125 
Q 22.90625 3.421875 30.078125 3.421875 
z
M 30.078125 -1.421875 
Q 18.75 -1.421875 11.859375 6.078125 
Q 4.984375 13.578125 4.984375 25.984375 
Q 4.984375 38.375 11.84375 45.84375 
Q 18.703125 53.328125 30.078125 53.328125 
Q 41.453125 53.328125 48.3125 45.84375 
Q 55.171875 38.375 55.171875 25.984375 
Q 55.171875 13.578125 48.3125 6.078125 
Q 41.453125 -1.421875 30.078125 -1.421875 
z
" id="DejaVuSerif-111"/>
     <path d="M 52.484375 5.171875 
L 61.078125 5.171875 
L 61.078125 0 
L 43.5 0 
L 43.5 8.109375 
Q 40.875 3.21875 36.796875 0.890625 
Q 32.71875 -1.421875 26.703125 -1.421875 
Q 17.140625 -1.421875 11.0625 6.171875 
Q 4.984375 13.765625 4.984375 25.984375 
Q 4.984375 38.1875 11.03125 45.75 
Q 17.09375 53.328125 26.703125 53.328125 
Q 32.71875 53.328125 36.796875 51 
Q 40.875 48.6875 43.5 43.796875 
L 43.5 70.796875 
L 35.015625 70.796875 
L 35.015625 75.984375 
L 52.484375 75.984375 
z
M 43.5 23.390625 
L 43.5 28.515625 
Q 43.5 37.84375 39.90625 42.765625 
Q 36.328125 47.703125 29.5 47.703125 
Q 22.5625 47.703125 19.015625 42.234375 
Q 15.484375 36.765625 15.484375 25.984375 
Q 15.484375 15.234375 19.015625 9.71875 
Q 22.5625 4.203125 29.5 4.203125 
Q 36.328125 4.203125 39.90625 9.109375 
Q 43.5 14.015625 43.5 23.390625 
z
" id="DejaVuSerif-100"/>
     <path d="M 7.078125 -15.578125 
L 7.078125 -10.796875 
Q 14.59375 -5.609375 17.890625 3.78125 
Q 21.1875 13.1875 21.1875 30.171875 
Q 21.1875 47.21875 17.890625 56.609375 
Q 14.59375 66.015625 7.078125 71.1875 
L 7.078125 75.984375 
Q 19 70.65625 25.046875 59.109375 
Q 31.109375 47.5625 31.109375 30.171875 
Q 31.109375 12.84375 25.046875 1.296875 
Q 19 -10.25 7.078125 -15.578125 
z
" id="DejaVuSerif-41"/>
    </defs>
    <g transform="translate(105.526562 15.196875)scale(0.2 -0.2)">
     <use xlink:href="#DejaVuSerif-73"/>
     <use x="39.501953" xlink:href="#DejaVuSerif-110"/>
     <use x="103.90625" xlink:href="#DejaVuSerif-45"/>
     <use x="137.695312" xlink:href="#DejaVuSerif-112"/>
     <use x="201.708984" xlink:href="#DejaVuSerif-108"/>
     <use x="233.691406" xlink:href="#DejaVuSerif-97"/>
     <use x="293.310547" xlink:href="#DejaVuSerif-110"/>
     <use x="357.714844" xlink:href="#DejaVuSerif-101"/>
     <use x="416.894531" xlink:href="#DejaVuSerif-32"/>
     <use x="448.681641" xlink:href="#DejaVuSerif-109"/>
     <use x="543.505859" xlink:href="#DejaVuSerif-101"/>
     <use x="602.685547" xlink:href="#DejaVuSerif-97"/>
     <use x="662.304688" xlink:href="#DejaVuSerif-115"/>
     <use x="713.623047" xlink:href="#DejaVuSerif-117"/>
     <use x="778.027344" xlink:href="#DejaVuSerif-114"/>
     <use x="825.830078" xlink:href="#DejaVuSerif-101"/>
     <use x="885.009766" xlink:href="#DejaVuSerif-109"/>
     <use x="979.833984" xlink:href="#DejaVuSerif-101"/>
     <use x="1039.013672" xlink:href="#DejaVuSerif-110"/>
     <use x="1103.417969" xlink:href="#DejaVuSerif-116"/>
     <use x="1143.603516" xlink:href="#DejaVuSerif-32"/>
     <use x="1175.390625" xlink:href="#DejaVuSerif-40"/>
     <use x="1214.404297" xlink:href="#DejaVuSerif-71"/>
     <use x="1294.287109" xlink:href="#DejaVuSerif-111"/>
     <use x="1354.492188" xlink:href="#DejaVuSerif-108"/>
     <use x="1386.474609" xlink:href="#DejaVuSerif-100"/>
     <use x="1450.488281" xlink:href="#DejaVuSerif-41"/>
    </g>
   </g>
   <g id="PolyCollection_1">
    <path clip-path="url(#pd6d37229ff)" d="M 28.802812 14.725446 
L 28.802812 299.468304 
L 35.002813 299.468304 
L 35.002813 14.725446 
L 35.002813 14.725446 
L 28.802812 14.725446 
z
" style="fill:#808080;fill-opacity:0.8;"/>
   </g>
   <g id="PolyCollection_2">
    <path clip-path="url(#pd6d37229ff)" d="M 473.962812 14.725446 
L 473.962812 299.468304 
L 480.162812 299.468304 
L 480.162812 14.725446 
L 480.162812 14.725446 
L 473.962812 14.725446 
z
" style="fill:#808080;fill-opacity:0.8;"/>
   </g>
   <g id="PolyCollection_3">
    <path clip-path="url(#pd6d37229ff)" d="M 234.642812 14.725446 
L 234.642812 299.468304 
L 266.882812 299.468304 
L 266.882812 14.725446 
L 266.882812 14.725446 
L 234.642812 14.725446 
z
" style="fill:#808080;fill-opacity:0.8;"/>
   </g>
   <g id="legend_1">
    <g id="patch_7">
     <path d="M 222.834062 135.14375 
L 286.131562 135.14375 
Q 288.931562 135.14375 288.931562 132.34375 
L 288.931562 30.996875 
Q 288.931562 28.196875 286.131562 28.196875 
L 222.834062 28.196875 
Q 220.034062 28.196875 220.034062 30.996875 
L 220.034062 132.34375 
Q 220.034062 135.14375 222.834062 135.14375 
z
" style="fill:#ffffff;opacity:0.8;stroke:#cccccc;stroke-linejoin:miter;"/>
    </g>
    <g id="line2d_30">
     <path d="M 225.634062 39.534687 
L 253.634062 39.534687 
" style="fill:none;stroke:#1f77b4;stroke-linecap:square;stroke-width:2.5;"/>
    </g>
    <g id="line2d_31"/>
    <g id="text_15">
     <!-- A -->
     <defs>
      <path d="M 20.015625 26.421875 
L 46.78125 26.421875 
L 33.40625 61.078125 
z
M -0.59375 0 
L -0.59375 5.171875 
L 5.8125 5.171875 
L 31.78125 72.90625 
L 39.984375 72.90625 
L 66.015625 5.171875 
L 73.1875 5.171875 
L 73.1875 0 
L 46.6875 0 
L 46.6875 5.171875 
L 54.78125 5.171875 
L 48.6875 21.1875 
L 18.015625 21.1875 
L 11.921875 5.171875 
L 19.921875 5.171875 
L 19.921875 0 
z
" id="DejaVuSerif-65"/>
     </defs>
     <g transform="translate(264.834062 44.434687)scale(0.14 -0.14)">
      <use xlink:href="#DejaVuSerif-65"/>
     </g>
    </g>
    <g id="line2d_32">
     <path d="M 225.634062 60.084062 
L 253.634062 60.084062 
" style="fill:none;stroke:#ff7f0e;stroke-linecap:square;stroke-width:2.5;"/>
    </g>
    <g id="line2d_33"/>
    <g id="text_16">
     <!-- B -->
     <defs>
      <path d="M 24.703125 5.171875 
L 39.3125 5.171875 
Q 48.09375 5.171875 52.140625 8.984375 
Q 56.203125 12.796875 56.203125 21.09375 
Q 56.203125 29.34375 52.171875 33.125 
Q 48.140625 36.921875 39.3125 36.921875 
L 24.703125 36.921875 
z
M 24.703125 42.09375 
L 37.109375 42.09375 
Q 45.125 42.09375 48.796875 45.171875 
Q 52.484375 48.25 52.484375 54.890625 
Q 52.484375 61.578125 48.796875 64.625 
Q 45.125 67.671875 37.109375 67.671875 
L 24.703125 67.671875 
z
M 5.515625 0 
L 5.515625 5.171875 
L 14.796875 5.171875 
L 14.796875 67.671875 
L 5.515625 67.671875 
L 5.515625 72.90625 
L 41.5 72.90625 
Q 52.546875 72.90625 58.125 68.390625 
Q 63.71875 63.875 63.71875 54.890625 
Q 63.71875 48.390625 59.828125 44.53125 
Q 55.953125 40.671875 48.484375 39.796875 
Q 57.765625 38.625 62.578125 33.859375 
Q 67.390625 29.109375 67.390625 21.09375 
Q 67.390625 10.25 60.546875 5.125 
Q 53.71875 0 39.203125 0 
z
" id="DejaVuSerif-66"/>
     </defs>
     <g transform="translate(264.834062 64.984062)scale(0.14 -0.14)">
      <use xlink:href="#DejaVuSerif-66"/>
     </g>
    </g>
    <g id="line2d_34">
     <path d="M 225.634062 80.633437 
L 253.634062 80.633437 
" style="fill:none;stroke:#2ca02c;stroke-linecap:square;stroke-width:2.5;"/>
    </g>
    <g id="line2d_35"/>
    <g id="text_17">
     <!-- C -->
     <defs>
      <path d="M 70.515625 19.28125 
Q 67.28125 9.078125 59.6875 3.828125 
Q 52.09375 -1.421875 40.484375 -1.421875 
Q 33.34375 -1.421875 27.234375 1.015625 
Q 21.140625 3.46875 16.40625 8.203125 
Q 10.9375 13.671875 8.265625 20.625 
Q 5.609375 27.59375 5.609375 36.375 
Q 5.609375 53.375 15.421875 63.796875 
Q 25.25 74.21875 41.3125 74.21875 
Q 47.265625 74.21875 54 72.65625 
Q 60.75 71.09375 68.5 67.921875 
L 68.5 51.125 
L 62.984375 51.125 
Q 61.1875 60.296875 55.734375 64.640625 
Q 50.296875 69 40.484375 69 
Q 28.8125 69 22.796875 60.71875 
Q 16.796875 52.4375 16.796875 36.375 
Q 16.796875 20.359375 22.796875 12.078125 
Q 28.8125 3.8125 40.484375 3.8125 
Q 48.640625 3.8125 53.90625 7.6875 
Q 59.1875 11.578125 61.53125 19.28125 
z
" id="DejaVuSerif-67"/>
     </defs>
     <g transform="translate(264.834062 85.533437)scale(0.14 -0.14)">
      <use xlink:href="#DejaVuSerif-67"/>
     </g>
    </g>
    <g id="line2d_36">
     <path d="M 225.634062 101.182812 
L 253.634062 101.182812 
" style="fill:none;stroke:#d62728;stroke-linecap:square;stroke-width:2.5;"/>
    </g>
    <g id="line2d_37"/>
    <g id="text_18">
     <!-- S1 -->
     <defs>
      <path d="M 9.28125 3.515625 
L 9.28125 20.125 
L 14.890625 20.0625 
Q 15.140625 11.765625 19.703125 7.78125 
Q 24.265625 3.8125 33.59375 3.8125 
Q 42.28125 3.8125 46.84375 7.25 
Q 51.421875 10.6875 51.421875 17.28125 
Q 51.421875 22.5625 48.65625 25.390625 
Q 45.90625 28.21875 37.015625 30.90625 
L 27.390625 33.796875 
Q 16.9375 36.96875 12.671875 41.703125 
Q 8.40625 46.4375 8.40625 54.6875 
Q 8.40625 63.96875 14.984375 69.09375 
Q 21.578125 74.21875 33.5 74.21875 
Q 38.578125 74.21875 44.625 73.109375 
Q 50.6875 72.015625 57.515625 69.921875 
L 57.515625 54.390625 
L 52 54.390625 
Q 51.171875 62.109375 46.84375 65.546875 
Q 42.53125 69 33.6875 69 
Q 25.984375 69 21.953125 65.84375 
Q 17.921875 62.703125 17.921875 56.6875 
Q 17.921875 51.46875 20.9375 48.484375 
Q 23.96875 45.515625 33.796875 42.578125 
L 42.828125 39.890625 
Q 52.734375 36.921875 56.953125 32.296875 
Q 61.1875 27.6875 61.1875 19.921875 
Q 61.1875 9.328125 54.390625 3.953125 
Q 47.609375 -1.421875 34.1875 -1.421875 
Q 28.171875 -1.421875 21.9375 -0.1875 
Q 15.71875 1.03125 9.28125 3.515625 
z
" id="DejaVuSerif-83"/>
     </defs>
     <g transform="translate(264.834062 106.082812)scale(0.14 -0.14)">
      <use xlink:href="#DejaVuSerif-83"/>
      <use x="68.505859" xlink:href="#DejaVuSerif-49"/>
     </g>
    </g>
    <g id="line2d_38">
     <path d="M 225.634062 121.732187 
L 253.634062 121.732187 
" style="fill:none;stroke:#9467bd;stroke-linecap:square;stroke-width:2.5;"/>
    </g>
    <g id="line2d_39"/>
    <g id="text_19">
     <!-- S2 -->
     <defs>
      <path d="M 12.796875 55.515625 
L 7.328125 55.515625 
L 7.328125 68.5 
Q 12.546875 71.296875 17.84375 72.75 
Q 23.140625 74.21875 28.21875 74.21875 
Q 39.59375 74.21875 46.1875 68.703125 
Q 52.78125 63.1875 52.78125 53.71875 
Q 52.78125 43.015625 37.84375 28.125 
Q 36.671875 27 36.078125 26.421875 
L 17.671875 8.015625 
L 48.09375 8.015625 
L 48.09375 17 
L 53.8125 17 
L 53.8125 0 
L 6.78125 0 
L 6.78125 5.328125 
L 28.90625 27.390625 
Q 36.234375 34.71875 39.359375 40.84375 
Q 42.484375 46.96875 42.484375 53.71875 
Q 42.484375 61.078125 38.640625 65.234375 
Q 34.8125 69.390625 28.078125 69.390625 
Q 21.09375 69.390625 17.28125 65.921875 
Q 13.484375 62.453125 12.796875 55.515625 
z
" id="DejaVuSerif-50"/>
     </defs>
     <g transform="translate(264.834062 126.632187)scale(0.14 -0.14)">
      <use xlink:href="#DejaVuSerif-83"/>
      <use x="68.505859" xlink:href="#DejaVuSerif-50"/>
     </g>
    </g>
   </g>
  </g>
 </g>
 <defs>
  <clipPath id="pd6d37229ff">
   <rect height="271.8" width="446.4" x="31.282813" y="21.196875"/>
  </clipPath>
 </defs>
</svg>
