<?xml version="1.0" encoding="utf-8" standalone="no"?>
<!DOCTYPE svg PUBLIC "-//W3C//DTD SVG 1.1//EN"
  "http://www.w3.org/Graphics/SVG/1.1/DTD/svg11.dtd">
<!-- Created with matplotlib (https://matplotlib.org/) -->
<svg height="339.349219pt" version="1.1" viewBox="0 0 554.736719 339.349219" width="554.736719pt" xmlns="http://www.w3.org/2000/svg" xmlns:xlink="http://www.w3.org/1999/xlink">
 <defs>
  <style type="text/css">
*{stroke-linecap:butt;stroke-linejoin:round;}
  </style>
 </defs>
 <g id="figure_1">
  <g id="patch_1">
   <path d="M 0 339.349219 
L 554.736719 339.349219 
L 554.736719 0 
L 0 0 
z
" style="fill:#ffffff;"/>
  </g>
  <g id="axes_1">
   <g id="patch_2">
    <path d="M 47.996094 303.940625 
L 545.192969 303.940625 
L 545.192969 21.196875 
L 47.996094 21.196875 
z
" style="fill:#ffffff;"/>
   </g>
   <g id="matplotlib.axis_1">
    <g id="xtick_1">
     <g id="line2d_1">
      <path clip-path="url(#p9aeb821f3b)" d="M 47.996094 303.940625 
L 47.996094 21.196875 
" style="fill:none;stroke:#b0b0b0;stroke-linecap:square;stroke-width:0.8;"/>
     </g>
     <g id="line2d_2">
      <defs>
       <path d="M 0 0 
L 0 3.5 
" id="me6fb271395" style="stroke:#000000;stroke-width:0.8;"/>
      </defs>
      <g>
       <use style="stroke:#000000;stroke-width:0.8;" x="47.996094" xlink:href="#me6fb271395" y="303.940625"/>
      </g>
     </g>
     <g id="text_1">
      <!-- 0 -->
      <defs>
       <path d="M 31.78125 3.421875 
Q 39.265625 3.421875 42.96875 11.625 
Q 46.6875 19.828125 46.6875 36.375 
Q 46.6875 52.984375 42.96875 61.1875 
Q 39.265625 69.390625 31.78125 69.390625 
Q 24.3125 69.390625 20.59375 61.1875 
Q 16.890625 52.984375 16.890625 36.375 
Q 16.890625 19.828125 20.59375 11.625 
Q 24.3125 3.421875 31.78125 3.421875 
z
M 31.78125 -1.421875 
Q 19.921875 -1.421875 13.25 8.53125 
Q 6.59375 18.5 6.59375 36.375 
Q 6.59375 54.296875 13.25 64.25 
Q 19.921875 74.21875 31.78125 74.21875 
Q 43.703125 74.21875 50.34375 64.25 
Q 56.984375 54.296875 56.984375 36.375 
Q 56.984375 18.5 50.34375 8.53125 
Q 43.703125 -1.421875 31.78125 -1.421875 
z
" id="DejaVuSerif-48"/>
      </defs>
      <g transform="translate(44.814844 318.539062)scale(0.1 -0.1)">
       <use xlink:href="#DejaVuSerif-48"/>
      </g>
     </g>
    </g>
    <g id="xtick_2">
     <g id="line2d_3">
      <path clip-path="url(#p9aeb821f3b)" d="M 172.295313 303.940625 
L 172.295313 21.196875 
" style="fill:none;stroke:#b0b0b0;stroke-linecap:square;stroke-width:0.8;"/>
     </g>
     <g id="line2d_4">
      <g>
       <use style="stroke:#000000;stroke-width:0.8;" x="172.295313" xlink:href="#me6fb271395" y="303.940625"/>
      </g>
     </g>
     <g id="text_2">
      <!-- 45 -->
      <defs>
       <path d="M 34.90625 24.703125 
L 34.90625 63.484375 
L 10.015625 24.703125 
z
M 56.390625 0 
L 23.1875 0 
L 23.1875 5.171875 
L 34.90625 5.171875 
L 34.90625 19.484375 
L 3.078125 19.484375 
L 3.078125 24.8125 
L 35.015625 74.21875 
L 44.671875 74.21875 
L 44.671875 24.703125 
L 58.59375 24.703125 
L 58.59375 19.484375 
L 44.671875 19.484375 
L 44.671875 5.171875 
L 56.390625 5.171875 
z
" id="DejaVuSerif-52"/>
       <path d="M 50.296875 72.90625 
L 50.296875 64.890625 
L 16.890625 64.890625 
L 16.890625 44 
Q 19.4375 45.75 22.828125 46.625 
Q 26.21875 47.515625 30.421875 47.515625 
Q 42.234375 47.515625 49.0625 40.96875 
Q 55.90625 34.421875 55.90625 23.09375 
Q 55.90625 11.53125 49 5.046875 
Q 42.09375 -1.421875 29.59375 -1.421875 
Q 24.5625 -1.421875 19.28125 -0.1875 
Q 14.015625 1.03125 8.5 3.515625 
L 8.5 17.671875 
L 14.015625 17.671875 
Q 14.453125 10.75 18.421875 7.078125 
Q 22.40625 3.421875 29.59375 3.421875 
Q 37.3125 3.421875 41.453125 8.5 
Q 45.609375 13.578125 45.609375 23.09375 
Q 45.609375 32.5625 41.484375 37.609375 
Q 37.359375 42.671875 29.59375 42.671875 
Q 25.203125 42.671875 21.84375 41.109375 
Q 18.5 39.546875 15.921875 36.28125 
L 11.71875 36.28125 
L 11.71875 72.90625 
z
" id="DejaVuSerif-53"/>
      </defs>
      <g transform="translate(165.932813 318.539062)scale(0.1 -0.1)">
       <use xlink:href="#DejaVuSerif-52"/>
       <use x="63.623047" xlink:href="#DejaVuSerif-53"/>
      </g>
     </g>
    </g>
    <g id="xtick_3">
     <g id="line2d_5">
      <path clip-path="url(#p9aeb821f3b)" d="M 296.594531 303.940625 
L 296.594531 21.196875 
" style="fill:none;stroke:#b0b0b0;stroke-linecap:square;stroke-width:0.8;"/>
     </g>
     <g id="line2d_6">
      <g>
       <use style="stroke:#000000;stroke-width:0.8;" x="296.594531" xlink:href="#me6fb271395" y="303.940625"/>
      </g>
     </g>
     <g id="text_3">
      <!-- 90 -->
      <defs>
       <path d="M 46.78125 32.671875 
Q 43.5 29 39.25 27.1875 
Q 35.015625 25.390625 29.6875 25.390625 
Q 18.84375 25.390625 12.5625 31.9375 
Q 6.296875 38.484375 6.296875 49.8125 
Q 6.296875 60.890625 13.109375 67.546875 
Q 19.921875 74.21875 31.296875 74.21875 
Q 43.65625 74.21875 50.265625 65.015625 
Q 56.890625 55.8125 56.890625 38.71875 
Q 56.890625 19.578125 49.015625 9.078125 
Q 41.15625 -1.421875 26.90625 -1.421875 
Q 23.046875 -1.421875 18.796875 -0.6875 
Q 14.546875 0.046875 10.109375 1.515625 
L 10.109375 13.625 
L 15.578125 13.625 
Q 16.21875 8.6875 19.390625 6.046875 
Q 22.5625 3.421875 27.875 3.421875 
Q 37.359375 3.421875 41.984375 10.5625 
Q 46.625 17.71875 46.78125 32.671875 
z
M 30.90625 69.390625 
Q 23.96875 69.390625 20.28125 64.328125 
Q 16.609375 59.28125 16.609375 49.8125 
Q 16.609375 40.328125 20.28125 35.25 
Q 23.96875 30.171875 30.90625 30.171875 
Q 37.84375 30.171875 41.53125 35.078125 
Q 45.21875 39.984375 45.21875 49.21875 
Q 45.21875 58.9375 41.5 64.15625 
Q 37.796875 69.390625 30.90625 69.390625 
z
" id="DejaVuSerif-57"/>
      </defs>
      <g transform="translate(290.232031 318.539062)scale(0.1 -0.1)">
       <use xlink:href="#DejaVuSerif-57"/>
       <use x="63.623047" xlink:href="#DejaVuSerif-48"/>
      </g>
     </g>
    </g>
    <g id="xtick_4">
     <g id="line2d_7">
      <path clip-path="url(#p9aeb821f3b)" d="M 420.89375 303.940625 
L 420.89375 21.196875 
" style="fill:none;stroke:#b0b0b0;stroke-linecap:square;stroke-width:0.8;"/>
     </g>
     <g id="line2d_8">
      <g>
       <use style="stroke:#000000;stroke-width:0.8;" x="420.89375" xlink:href="#me6fb271395" y="303.940625"/>
      </g>
     </g>
     <g id="text_4">
      <!-- 135 -->
      <defs>
       <path d="M 14.203125 0 
L 14.203125 5.171875 
L 26.90625 5.171875 
L 26.90625 65.828125 
L 12.203125 56.296875 
L 12.203125 62.703125 
L 29.984375 74.21875 
L 36.71875 74.21875 
L 36.71875 5.171875 
L 49.421875 5.171875 
L 49.421875 0 
z
" id="DejaVuSerif-49"/>
       <path d="M 9.71875 69.828125 
Q 15.4375 71.96875 20.671875 73.09375 
Q 25.921875 74.21875 30.515625 74.21875 
Q 41.21875 74.21875 47.21875 69.59375 
Q 53.21875 64.984375 53.21875 56.78125 
Q 53.21875 50.203125 49.0625 45.78125 
Q 44.921875 41.359375 37.3125 39.796875 
Q 46.296875 38.53125 51.25 33.28125 
Q 56.203125 28.03125 56.203125 19.671875 
Q 56.203125 9.46875 49.34375 4.015625 
Q 42.484375 -1.421875 29.59375 -1.421875 
Q 23.875 -1.421875 18.421875 -0.1875 
Q 12.984375 1.03125 7.625 3.515625 
L 7.625 17.671875 
L 13.09375 17.671875 
Q 13.578125 10.640625 17.828125 7.03125 
Q 22.078125 3.421875 29.78125 3.421875 
Q 37.25 3.421875 41.578125 7.734375 
Q 45.90625 12.0625 45.90625 19.578125 
Q 45.90625 28.171875 41.453125 32.59375 
Q 37.015625 37.015625 28.421875 37.015625 
L 23.78125 37.015625 
L 23.78125 42 
L 26.21875 42 
Q 34.765625 42 39.03125 45.53125 
Q 43.3125 49.078125 43.3125 56.203125 
Q 43.3125 62.59375 39.796875 65.984375 
Q 36.28125 69.390625 29.6875 69.390625 
Q 23.09375 69.390625 19.453125 66.265625 
Q 15.828125 63.140625 15.1875 56.984375 
L 9.71875 56.984375 
z
" id="DejaVuSerif-51"/>
      </defs>
      <g transform="translate(411.35 318.539062)scale(0.1 -0.1)">
       <use xlink:href="#DejaVuSerif-49"/>
       <use x="63.623047" xlink:href="#DejaVuSerif-51"/>
       <use x="127.246094" xlink:href="#DejaVuSerif-53"/>
      </g>
     </g>
    </g>
    <g id="xtick_5">
     <g id="line2d_9">
      <path clip-path="url(#p9aeb821f3b)" d="M 545.192969 303.940625 
L 545.192969 21.196875 
" style="fill:none;stroke:#b0b0b0;stroke-linecap:square;stroke-width:0.8;"/>
     </g>
     <g id="line2d_10">
      <g>
       <use style="stroke:#000000;stroke-width:0.8;" x="545.192969" xlink:href="#me6fb271395" y="303.940625"/>
      </g>
     </g>
     <g id="text_5">
      <!-- 180 -->
      <defs>
       <path d="M 46.578125 19.921875 
Q 46.578125 27.734375 42.6875 32.046875 
Q 38.8125 36.375 31.78125 36.375 
Q 24.75 36.375 20.875 32.046875 
Q 17 27.734375 17 19.921875 
Q 17 12.0625 20.875 7.734375 
Q 24.75 3.421875 31.78125 3.421875 
Q 38.8125 3.421875 42.6875 7.734375 
Q 46.578125 12.0625 46.578125 19.921875 
z
M 44.578125 55.328125 
Q 44.578125 61.96875 41.203125 65.671875 
Q 37.84375 69.390625 31.78125 69.390625 
Q 25.78125 69.390625 22.390625 65.671875 
Q 19 61.96875 19 55.328125 
Q 19 48.640625 22.390625 44.921875 
Q 25.78125 41.21875 31.78125 41.21875 
Q 37.84375 41.21875 41.203125 44.921875 
Q 44.578125 48.640625 44.578125 55.328125 
z
M 39.3125 38.8125 
Q 47.609375 37.703125 52.25 32.6875 
Q 56.890625 27.6875 56.890625 19.921875 
Q 56.890625 9.671875 50.390625 4.125 
Q 43.890625 -1.421875 31.78125 -1.421875 
Q 19.734375 -1.421875 13.203125 4.125 
Q 6.6875 9.671875 6.6875 19.921875 
Q 6.6875 27.6875 11.328125 32.6875 
Q 15.96875 37.703125 24.3125 38.8125 
Q 16.9375 40.140625 13 44.40625 
Q 9.078125 48.6875 9.078125 55.328125 
Q 9.078125 64.109375 15.125 69.15625 
Q 21.1875 74.21875 31.78125 74.21875 
Q 42.390625 74.21875 48.4375 69.15625 
Q 54.5 64.109375 54.5 55.328125 
Q 54.5 48.6875 50.5625 44.40625 
Q 46.625 40.140625 39.3125 38.8125 
z
" id="DejaVuSerif-56"/>
      </defs>
      <g transform="translate(535.649219 318.539062)scale(0.1 -0.1)">
       <use xlink:href="#DejaVuSerif-49"/>
       <use x="63.623047" xlink:href="#DejaVuSerif-56"/>
       <use x="127.246094" xlink:href="#DejaVuSerif-48"/>
      </g>
     </g>
    </g>
    <g id="text_6">
     <!-- Time / Retarder angle -->
     <defs>
      <path d="M 19.09375 0 
L 19.09375 5.171875 
L 28.421875 5.171875 
L 28.421875 67.09375 
L 6.984375 67.09375 
L 6.984375 55.71875 
L 0.984375 55.71875 
L 0.984375 72.90625 
L 65.71875 72.90625 
L 65.71875 55.71875 
L 59.71875 55.71875 
L 59.71875 67.09375 
L 38.28125 67.09375 
L 38.28125 5.171875 
L 47.609375 5.171875 
L 47.609375 0 
z
" id="DejaVuSerif-84"/>
      <path d="M 9.71875 68.015625 
Q 9.71875 70.265625 11.34375 71.921875 
Q 12.984375 73.578125 15.28125 73.578125 
Q 17.53125 73.578125 19.15625 71.921875 
Q 20.796875 70.265625 20.796875 68.015625 
Q 20.796875 65.71875 19.1875 64.109375 
Q 17.578125 62.5 15.28125 62.5 
Q 12.984375 62.5 11.34375 64.109375 
Q 9.71875 65.71875 9.71875 68.015625 
z
M 21.1875 5.171875 
L 29.6875 5.171875 
L 29.6875 0 
L 3.609375 0 
L 3.609375 5.171875 
L 12.203125 5.171875 
L 12.203125 46.6875 
L 3.609375 46.6875 
L 3.609375 51.90625 
L 21.1875 51.90625 
z
" id="DejaVuSerif-105"/>
      <path d="M 51.8125 41.796875 
Q 54.390625 47.515625 58.421875 50.421875 
Q 62.453125 53.328125 67.828125 53.328125 
Q 75.984375 53.328125 79.984375 48.265625 
Q 83.984375 43.21875 83.984375 33.015625 
L 83.984375 5.171875 
L 92.09375 5.171875 
L 92.09375 0 
L 67.1875 0 
L 67.1875 5.171875 
L 75 5.171875 
L 75 31.984375 
Q 75 39.9375 72.65625 43.3125 
Q 70.3125 46.6875 64.890625 46.6875 
Q 58.890625 46.6875 55.734375 42.140625 
Q 52.59375 37.59375 52.59375 28.90625 
L 52.59375 5.171875 
L 60.40625 5.171875 
L 60.40625 0 
L 35.796875 0 
L 35.796875 5.171875 
L 43.609375 5.171875 
L 43.609375 32.328125 
Q 43.609375 40.09375 41.265625 43.390625 
Q 38.921875 46.6875 33.5 46.6875 
Q 27.484375 46.6875 24.328125 42.140625 
Q 21.1875 37.59375 21.1875 28.90625 
L 21.1875 5.171875 
L 29 5.171875 
L 29 0 
L 4.109375 0 
L 4.109375 5.171875 
L 12.203125 5.171875 
L 12.203125 46.78125 
L 3.609375 46.78125 
L 3.609375 51.90625 
L 21.1875 51.90625 
L 21.1875 42.671875 
Q 23.6875 47.859375 27.53125 50.59375 
Q 31.390625 53.328125 36.28125 53.328125 
Q 42.328125 53.328125 46.375 50.3125 
Q 50.4375 47.3125 51.8125 41.796875 
z
" id="DejaVuSerif-109"/>
      <path d="M 54.203125 25 
L 15.484375 25 
L 15.484375 24.609375 
Q 15.484375 14.109375 19.4375 8.765625 
Q 23.390625 3.421875 31.109375 3.421875 
Q 37.015625 3.421875 40.796875 6.515625 
Q 44.578125 9.625 46.09375 15.71875 
L 53.328125 15.71875 
Q 51.171875 7.171875 45.375 2.875 
Q 39.59375 -1.421875 30.171875 -1.421875 
Q 18.796875 -1.421875 11.890625 6.078125 
Q 4.984375 13.578125 4.984375 25.984375 
Q 4.984375 38.28125 11.765625 45.796875 
Q 18.5625 53.328125 29.59375 53.328125 
Q 41.359375 53.328125 47.65625 46.0625 
Q 53.953125 38.8125 54.203125 25 
z
M 43.609375 30.171875 
Q 43.3125 39.265625 39.765625 43.875 
Q 36.234375 48.484375 29.59375 48.484375 
Q 23.390625 48.484375 19.828125 43.84375 
Q 16.265625 39.203125 15.484375 30.171875 
z
" id="DejaVuSerif-101"/>
      <path id="DejaVuSerif-32"/>
      <path d="M 25.875 72.90625 
L 33.6875 72.90625 
L 7.8125 -9.28125 
L 0 -9.28125 
z
" id="DejaVuSerif-47"/>
      <path d="M 47.90625 36.1875 
Q 51.3125 35.25 53.78125 33.03125 
Q 56.25 30.8125 58.203125 26.8125 
L 68.796875 5.171875 
L 77.6875 5.171875 
L 77.6875 0 
L 60.5 0 
L 49.125 23.1875 
Q 45.84375 29.9375 43.109375 31.90625 
Q 40.375 33.890625 35.59375 33.890625 
L 24.703125 33.890625 
L 24.703125 5.171875 
L 35.015625 5.171875 
L 35.015625 0 
L 5.515625 0 
L 5.515625 5.171875 
L 14.796875 5.171875 
L 14.796875 67.671875 
L 5.515625 67.671875 
L 5.515625 72.90625 
L 42.484375 72.90625 
Q 53.125 72.90625 58.90625 67.828125 
Q 64.703125 62.75 64.703125 53.421875 
Q 64.703125 45.90625 60.46875 41.578125 
Q 56.25 37.25 47.90625 36.1875 
z
M 24.703125 39.109375 
L 39.109375 39.109375 
Q 46.484375 39.109375 50 42.59375 
Q 53.515625 46.09375 53.515625 53.421875 
Q 53.515625 60.75 50 64.203125 
Q 46.484375 67.671875 39.109375 67.671875 
L 24.703125 67.671875 
z
" id="DejaVuSerif-82"/>
      <path d="M 10.796875 46.6875 
L 2.875 46.6875 
L 2.875 51.90625 
L 10.796875 51.90625 
L 10.796875 68.015625 
L 19.828125 68.015625 
L 19.828125 51.90625 
L 36.71875 51.90625 
L 36.71875 46.6875 
L 19.828125 46.6875 
L 19.828125 13.71875 
Q 19.828125 7.125 21.09375 5.265625 
Q 22.359375 3.421875 25.78125 3.421875 
Q 29.296875 3.421875 30.90625 5.484375 
Q 32.515625 7.5625 32.625 12.203125 
L 39.40625 12.203125 
Q 39.015625 5.125 35.546875 1.84375 
Q 32.078125 -1.421875 25 -1.421875 
Q 17.234375 -1.421875 14.015625 2.015625 
Q 10.796875 5.46875 10.796875 13.71875 
z
" id="DejaVuSerif-116"/>
      <path d="M 39.796875 16.3125 
L 39.796875 27.296875 
L 28.21875 27.296875 
Q 21.53125 27.296875 18.25 24.40625 
Q 14.984375 21.53125 14.984375 15.578125 
Q 14.984375 10.15625 18.296875 6.984375 
Q 21.625 3.8125 27.296875 3.8125 
Q 32.90625 3.8125 36.34375 7.28125 
Q 39.796875 10.75 39.796875 16.3125 
z
M 48.78125 32.421875 
L 48.78125 5.171875 
L 56.78125 5.171875 
L 56.78125 0 
L 39.796875 0 
L 39.796875 5.609375 
Q 36.8125 2 32.90625 0.28125 
Q 29 -1.421875 23.78125 -1.421875 
Q 15.140625 -1.421875 10.0625 3.171875 
Q 4.984375 7.765625 4.984375 15.578125 
Q 4.984375 23.640625 10.796875 28.078125 
Q 16.609375 32.515625 27.203125 32.515625 
L 39.796875 32.515625 
L 39.796875 36.078125 
Q 39.796875 42 36.203125 45.234375 
Q 32.625 48.484375 26.125 48.484375 
Q 20.75 48.484375 17.578125 46.046875 
Q 14.40625 43.609375 13.625 38.8125 
L 8.984375 38.8125 
L 8.984375 49.3125 
Q 13.671875 51.3125 18.09375 52.3125 
Q 22.515625 53.328125 26.703125 53.328125 
Q 37.5 53.328125 43.140625 47.96875 
Q 48.78125 42.625 48.78125 32.421875 
z
" id="DejaVuSerif-97"/>
      <path d="M 47.796875 52 
L 47.796875 39.015625 
L 42.625 39.015625 
Q 42.390625 42.875 40.484375 44.78125 
Q 38.578125 46.6875 34.90625 46.6875 
Q 28.265625 46.6875 24.71875 42.09375 
Q 21.1875 37.5 21.1875 28.90625 
L 21.1875 5.171875 
L 31.59375 5.171875 
L 31.59375 0 
L 4.109375 0 
L 4.109375 5.171875 
L 12.203125 5.171875 
L 12.203125 46.78125 
L 3.609375 46.78125 
L 3.609375 51.90625 
L 21.1875 51.90625 
L 21.1875 42.671875 
Q 23.828125 48.09375 27.96875 50.703125 
Q 32.125 53.328125 38.09375 53.328125 
Q 40.28125 53.328125 42.703125 52.984375 
Q 45.125 52.640625 47.796875 52 
z
" id="DejaVuSerif-114"/>
      <path d="M 52.484375 5.171875 
L 61.078125 5.171875 
L 61.078125 0 
L 43.5 0 
L 43.5 8.109375 
Q 40.875 3.21875 36.796875 0.890625 
Q 32.71875 -1.421875 26.703125 -1.421875 
Q 17.140625 -1.421875 11.0625 6.171875 
Q 4.984375 13.765625 4.984375 25.984375 
Q 4.984375 38.1875 11.03125 45.75 
Q 17.09375 53.328125 26.703125 53.328125 
Q 32.71875 53.328125 36.796875 51 
Q 40.875 48.6875 43.5 43.796875 
L 43.5 70.796875 
L 35.015625 70.796875 
L 35.015625 75.984375 
L 52.484375 75.984375 
z
M 43.5 23.390625 
L 43.5 28.515625 
Q 43.5 37.84375 39.90625 42.765625 
Q 36.328125 47.703125 29.5 47.703125 
Q 22.5625 47.703125 19.015625 42.234375 
Q 15.484375 36.765625 15.484375 25.984375 
Q 15.484375 15.234375 19.015625 9.71875 
Q 22.5625 4.203125 29.5 4.203125 
Q 36.328125 4.203125 39.90625 9.109375 
Q 43.5 14.015625 43.5 23.390625 
z
" id="DejaVuSerif-100"/>
      <path d="M 4.109375 0 
L 4.109375 5.171875 
L 12.203125 5.171875 
L 12.203125 46.6875 
L 3.609375 46.6875 
L 3.609375 51.90625 
L 21.1875 51.90625 
L 21.1875 42.671875 
Q 23.6875 47.953125 27.65625 50.640625 
Q 31.640625 53.328125 36.921875 53.328125 
Q 45.515625 53.328125 49.5625 48.390625 
Q 53.609375 43.453125 53.609375 33.015625 
L 53.609375 5.171875 
L 61.625 5.171875 
L 61.625 0 
L 36.8125 0 
L 36.8125 5.171875 
L 44.578125 5.171875 
L 44.578125 30.171875 
Q 44.578125 39.703125 42.234375 43.234375 
Q 39.890625 46.78125 33.984375 46.78125 
Q 27.734375 46.78125 24.453125 42.203125 
Q 21.1875 37.640625 21.1875 28.90625 
L 21.1875 5.171875 
L 29 5.171875 
L 29 0 
z
" id="DejaVuSerif-110"/>
      <path d="M 52.484375 46.6875 
L 52.484375 1.125 
Q 52.484375 -10.0625 46.328125 -16.140625 
Q 40.1875 -22.21875 28.8125 -22.21875 
Q 23.6875 -22.21875 19 -21.28125 
Q 14.3125 -20.359375 10.015625 -18.5 
L 10.015625 -7.625 
L 14.703125 -7.625 
Q 15.578125 -12.703125 18.84375 -15.046875 
Q 22.125 -17.390625 28.21875 -17.390625 
Q 36.140625 -17.390625 39.8125 -12.921875 
Q 43.5 -8.453125 43.5 1.125 
L 43.5 8.109375 
Q 40.875 3.21875 36.796875 0.890625 
Q 32.71875 -1.421875 26.703125 -1.421875 
Q 17.140625 -1.421875 11.0625 6.171875 
Q 4.984375 13.765625 4.984375 25.984375 
Q 4.984375 38.1875 11.03125 45.75 
Q 17.09375 53.328125 26.703125 53.328125 
Q 32.71875 53.328125 36.796875 51 
Q 40.875 48.6875 43.5 43.796875 
L 43.5 51.90625 
L 61.078125 51.90625 
L 61.078125 46.6875 
z
M 43.5 28.515625 
Q 43.5 37.84375 39.90625 42.765625 
Q 36.328125 47.703125 29.5 47.703125 
Q 22.5625 47.703125 19.015625 42.234375 
Q 15.484375 36.765625 15.484375 25.984375 
Q 15.484375 15.234375 19.015625 9.71875 
Q 22.5625 4.203125 29.5 4.203125 
Q 36.328125 4.203125 39.90625 9.109375 
Q 43.5 14.015625 43.5 23.390625 
z
" id="DejaVuSerif-103"/>
      <path d="M 20.515625 5.171875 
L 29 5.171875 
L 29 0 
L 2.875 0 
L 2.875 5.171875 
L 11.53125 5.171875 
L 11.53125 70.796875 
L 2.875 70.796875 
L 2.875 75.984375 
L 20.515625 75.984375 
z
" id="DejaVuSerif-108"/>
     </defs>
     <g transform="translate(213.041016 336.016406)scale(0.15 -0.15)">
      <use xlink:href="#DejaVuSerif-84"/>
      <use x="66.699219" xlink:href="#DejaVuSerif-105"/>
      <use x="98.681641" xlink:href="#DejaVuSerif-109"/>
      <use x="193.505859" xlink:href="#DejaVuSerif-101"/>
      <use x="252.685547" xlink:href="#DejaVuSerif-32"/>
      <use x="284.472656" xlink:href="#DejaVuSerif-47"/>
      <use x="318.164062" xlink:href="#DejaVuSerif-32"/>
      <use x="349.951172" xlink:href="#DejaVuSerif-82"/>
      <use x="425.244141" xlink:href="#DejaVuSerif-101"/>
      <use x="484.423828" xlink:href="#DejaVuSerif-116"/>
      <use x="524.609375" xlink:href="#DejaVuSerif-97"/>
      <use x="584.228516" xlink:href="#DejaVuSerif-114"/>
      <use x="632.03125" xlink:href="#DejaVuSerif-100"/>
      <use x="696.044922" xlink:href="#DejaVuSerif-101"/>
      <use x="755.224609" xlink:href="#DejaVuSerif-114"/>
      <use x="803.027344" xlink:href="#DejaVuSerif-32"/>
      <use x="834.814453" xlink:href="#DejaVuSerif-97"/>
      <use x="894.433594" xlink:href="#DejaVuSerif-110"/>
      <use x="958.837891" xlink:href="#DejaVuSerif-103"/>
      <use x="1022.851562" xlink:href="#DejaVuSerif-108"/>
      <use x="1054.833984" xlink:href="#DejaVuSerif-101"/>
     </g>
    </g>
   </g>
   <g id="matplotlib.axis_2">
    <g id="ytick_1">
     <g id="line2d_11">
      <path clip-path="url(#p9aeb821f3b)" d="M 47.996094 291.056327 
L 545.192969 291.056327 
" style="fill:none;stroke:#b0b0b0;stroke-linecap:square;stroke-width:0.8;"/>
     </g>
     <g id="line2d_12">
      <defs>
       <path d="M 0 0 
L -3.5 0 
" id="m10d7183149" style="stroke:#000000;stroke-width:0.8;"/>
      </defs>
      <g>
       <use style="stroke:#000000;stroke-width:0.8;" x="47.996094" xlink:href="#m10d7183149" y="291.056327"/>
      </g>
     </g>
     <g id="text_7">
      <!-- 0.00 -->
      <defs>
       <path d="M 9.421875 5.078125 
Q 9.421875 7.8125 11.28125 9.71875 
Q 13.140625 11.625 15.921875 11.625 
Q 18.609375 11.625 20.5 9.71875 
Q 22.40625 7.8125 22.40625 5.078125 
Q 22.40625 2.390625 20.5 0.484375 
Q 18.609375 -1.421875 15.921875 -1.421875 
Q 13.140625 -1.421875 11.28125 0.453125 
Q 9.421875 2.34375 9.421875 5.078125 
z
" id="DejaVuSerif-46"/>
      </defs>
      <g transform="translate(18.730469 294.855546)scale(0.1 -0.1)">
       <use xlink:href="#DejaVuSerif-48"/>
       <use x="63.623047" xlink:href="#DejaVuSerif-46"/>
       <use x="95.410156" xlink:href="#DejaVuSerif-48"/>
       <use x="159.033203" xlink:href="#DejaVuSerif-48"/>
      </g>
     </g>
    </g>
    <g id="ytick_2">
     <g id="line2d_13">
      <path clip-path="url(#p9aeb821f3b)" d="M 47.996094 226.804461 
L 545.192969 226.804461 
" style="fill:none;stroke:#b0b0b0;stroke-linecap:square;stroke-width:0.8;"/>
     </g>
     <g id="line2d_14">
      <g>
       <use style="stroke:#000000;stroke-width:0.8;" x="47.996094" xlink:href="#m10d7183149" y="226.804461"/>
      </g>
     </g>
     <g id="text_8">
      <!-- 0.25 -->
      <defs>
       <path d="M 12.796875 55.515625 
L 7.328125 55.515625 
L 7.328125 68.5 
Q 12.546875 71.296875 17.84375 72.75 
Q 23.140625 74.21875 28.21875 74.21875 
Q 39.59375 74.21875 46.1875 68.703125 
Q 52.78125 63.1875 52.78125 53.71875 
Q 52.78125 43.015625 37.84375 28.125 
Q 36.671875 27 36.078125 26.421875 
L 17.671875 8.015625 
L 48.09375 8.015625 
L 48.09375 17 
L 53.8125 17 
L 53.8125 0 
L 6.78125 0 
L 6.78125 5.328125 
L 28.90625 27.390625 
Q 36.234375 34.71875 39.359375 40.84375 
Q 42.484375 46.96875 42.484375 53.71875 
Q 42.484375 61.078125 38.640625 65.234375 
Q 34.8125 69.390625 28.078125 69.390625 
Q 21.09375 69.390625 17.28125 65.921875 
Q 13.484375 62.453125 12.796875 55.515625 
z
" id="DejaVuSerif-50"/>
      </defs>
      <g transform="translate(18.730469 230.60368)scale(0.1 -0.1)">
       <use xlink:href="#DejaVuSerif-48"/>
       <use x="63.623047" xlink:href="#DejaVuSerif-46"/>
       <use x="95.410156" xlink:href="#DejaVuSerif-50"/>
       <use x="159.033203" xlink:href="#DejaVuSerif-53"/>
      </g>
     </g>
    </g>
    <g id="ytick_3">
     <g id="line2d_15">
      <path clip-path="url(#p9aeb821f3b)" d="M 47.996094 162.552595 
L 545.192969 162.552595 
" style="fill:none;stroke:#b0b0b0;stroke-linecap:square;stroke-width:0.8;"/>
     </g>
     <g id="line2d_16">
      <g>
       <use style="stroke:#000000;stroke-width:0.8;" x="47.996094" xlink:href="#m10d7183149" y="162.552595"/>
      </g>
     </g>
     <g id="text_9">
      <!-- 0.50 -->
      <g transform="translate(18.730469 166.351814)scale(0.1 -0.1)">
       <use xlink:href="#DejaVuSerif-48"/>
       <use x="63.623047" xlink:href="#DejaVuSerif-46"/>
       <use x="95.410156" xlink:href="#DejaVuSerif-53"/>
       <use x="159.033203" xlink:href="#DejaVuSerif-48"/>
      </g>
     </g>
    </g>
    <g id="ytick_4">
     <g id="line2d_17">
      <path clip-path="url(#p9aeb821f3b)" d="M 47.996094 98.300729 
L 545.192969 98.300729 
" style="fill:none;stroke:#b0b0b0;stroke-linecap:square;stroke-width:0.8;"/>
     </g>
     <g id="line2d_18">
      <g>
       <use style="stroke:#000000;stroke-width:0.8;" x="47.996094" xlink:href="#m10d7183149" y="98.300729"/>
      </g>
     </g>
     <g id="text_10">
      <!-- 0.75 -->
      <defs>
       <path d="M 56.390625 67.921875 
L 27.875 0 
L 20.609375 0 
L 47.796875 64.890625 
L 14.109375 64.890625 
L 14.109375 55.90625 
L 8.40625 55.90625 
L 8.40625 72.90625 
L 56.390625 72.90625 
z
" id="DejaVuSerif-55"/>
      </defs>
      <g transform="translate(18.730469 102.099948)scale(0.1 -0.1)">
       <use xlink:href="#DejaVuSerif-48"/>
       <use x="63.623047" xlink:href="#DejaVuSerif-46"/>
       <use x="95.410156" xlink:href="#DejaVuSerif-55"/>
       <use x="159.033203" xlink:href="#DejaVuSerif-53"/>
      </g>
     </g>
    </g>
    <g id="ytick_5">
     <g id="line2d_19">
      <path clip-path="url(#p9aeb821f3b)" d="M 47.996094 34.048864 
L 545.192969 34.048864 
" style="fill:none;stroke:#b0b0b0;stroke-linecap:square;stroke-width:0.8;"/>
     </g>
     <g id="line2d_20">
      <g>
       <use style="stroke:#000000;stroke-width:0.8;" x="47.996094" xlink:href="#m10d7183149" y="34.048864"/>
      </g>
     </g>
     <g id="text_11">
      <!-- 1.00 -->
      <g transform="translate(18.730469 37.848082)scale(0.1 -0.1)">
       <use xlink:href="#DejaVuSerif-49"/>
       <use x="63.623047" xlink:href="#DejaVuSerif-46"/>
       <use x="95.410156" xlink:href="#DejaVuSerif-48"/>
       <use x="159.033203" xlink:href="#DejaVuSerif-48"/>
      </g>
     </g>
    </g>
    <g id="text_12">
     <!-- Intensity (normalized) -->
     <defs>
      <path d="M 24.703125 5.171875 
L 33.984375 5.171875 
L 33.984375 0 
L 5.515625 0 
L 5.515625 5.171875 
L 14.796875 5.171875 
L 14.796875 67.671875 
L 5.515625 67.671875 
L 5.515625 72.90625 
L 33.984375 72.90625 
L 33.984375 67.671875 
L 24.703125 67.671875 
z
" id="DejaVuSerif-73"/>
      <path d="M 5.609375 2.875 
L 5.609375 14.984375 
L 10.796875 14.984375 
Q 10.984375 9.1875 14.421875 6.296875 
Q 17.875 3.421875 24.609375 3.421875 
Q 30.671875 3.421875 33.84375 5.6875 
Q 37.015625 7.953125 37.015625 12.3125 
Q 37.015625 15.71875 34.6875 17.8125 
Q 32.375 19.921875 24.90625 22.3125 
L 18.40625 24.515625 
Q 11.71875 26.65625 8.71875 29.875 
Q 5.71875 33.109375 5.71875 38.09375 
Q 5.71875 45.21875 10.9375 49.265625 
Q 16.15625 53.328125 25.390625 53.328125 
Q 29.5 53.328125 34.03125 52.25 
Q 38.578125 51.171875 43.40625 49.125 
L 43.40625 37.796875 
L 38.234375 37.796875 
Q 38.03125 42.828125 34.703125 45.65625 
Q 31.390625 48.484375 25.6875 48.484375 
Q 20.015625 48.484375 17.109375 46.484375 
Q 14.203125 44.484375 14.203125 40.484375 
Q 14.203125 37.203125 16.40625 35.21875 
Q 18.609375 33.25 25.203125 31.203125 
L 32.328125 29 
Q 39.703125 26.703125 42.9375 23.265625 
Q 46.1875 19.828125 46.1875 14.40625 
Q 46.1875 7.03125 40.546875 2.796875 
Q 34.90625 -1.421875 25 -1.421875 
Q 19.96875 -1.421875 15.1875 -0.34375 
Q 10.40625 0.734375 5.609375 2.875 
z
" id="DejaVuSerif-115"/>
      <path d="M 21.578125 -9.515625 
L 25 -0.875 
L 5.609375 46.6875 
L -0.296875 46.6875 
L -0.296875 51.90625 
L 23.578125 51.90625 
L 23.578125 46.6875 
L 15.28125 46.6875 
L 29.890625 10.984375 
L 44.484375 46.6875 
L 36.71875 46.6875 
L 36.71875 51.90625 
L 56.203125 51.90625 
L 56.203125 46.6875 
L 50.390625 46.6875 
L 26.609375 -11.71875 
Q 24.171875 -17.78125 21.1875 -20 
Q 18.21875 -22.21875 12.796875 -22.21875 
Q 10.5 -22.21875 8.078125 -21.828125 
Q 5.671875 -21.4375 3.21875 -20.703125 
L 3.21875 -10.796875 
L 7.8125 -10.796875 
Q 8.109375 -14.109375 9.5 -15.546875 
Q 10.890625 -17 13.8125 -17 
Q 16.5 -17 18.140625 -15.5 
Q 19.78125 -14.015625 21.578125 -9.515625 
z
" id="DejaVuSerif-121"/>
      <path d="M 31.890625 -15.578125 
Q 20.015625 -10.25 13.953125 1.296875 
Q 7.90625 12.84375 7.90625 30.171875 
Q 7.90625 47.5625 13.953125 59.109375 
Q 20.015625 70.65625 31.890625 75.984375 
L 31.890625 71.1875 
Q 24.359375 66.015625 21.09375 56.609375 
Q 17.828125 47.21875 17.828125 30.171875 
Q 17.828125 13.1875 21.09375 3.78125 
Q 24.359375 -5.609375 31.890625 -10.796875 
z
" id="DejaVuSerif-40"/>
      <path d="M 30.078125 3.421875 
Q 37.3125 3.421875 40.984375 9.125 
Q 44.671875 14.84375 44.671875 25.984375 
Q 44.671875 37.109375 40.984375 42.796875 
Q 37.3125 48.484375 30.078125 48.484375 
Q 22.859375 48.484375 19.171875 42.796875 
Q 15.484375 37.109375 15.484375 25.984375 
Q 15.484375 14.84375 19.1875 9.125 
Q 22.90625 3.421875 30.078125 3.421875 
z
M 30.078125 -1.421875 
Q 18.75 -1.421875 11.859375 6.078125 
Q 4.984375 13.578125 4.984375 25.984375 
Q 4.984375 38.375 11.84375 45.84375 
Q 18.703125 53.328125 30.078125 53.328125 
Q 41.453125 53.328125 48.3125 45.84375 
Q 55.171875 38.375 55.171875 25.984375 
Q 55.171875 13.578125 48.3125 6.078125 
Q 41.453125 -1.421875 30.078125 -1.421875 
z
" id="DejaVuSerif-111"/>
      <path d="M 4 0 
L 4 4.203125 
L 36.53125 46.6875 
L 10.796875 46.6875 
L 10.796875 37.703125 
L 5.609375 37.703125 
L 5.609375 51.90625 
L 48.09375 51.90625 
L 48.09375 47.703125 
L 15.578125 5.171875 
L 43.796875 5.171875 
L 43.796875 14.59375 
L 49.03125 14.59375 
L 49.03125 0 
z
" id="DejaVuSerif-122"/>
      <path d="M 7.078125 -15.578125 
L 7.078125 -10.796875 
Q 14.59375 -5.609375 17.890625 3.78125 
Q 21.1875 13.1875 21.1875 30.171875 
Q 21.1875 47.21875 17.890625 56.609375 
Q 14.59375 66.015625 7.078125 71.1875 
L 7.078125 75.984375 
Q 19 70.65625 25.046875 59.109375 
Q 31.109375 47.5625 31.109375 30.171875 
Q 31.109375 12.84375 25.046875 1.296875 
Q 19 -10.25 7.078125 -15.578125 
z
" id="DejaVuSerif-41"/>
     </defs>
     <g transform="translate(11.397656 246.883984)rotate(-90)scale(0.15 -0.15)">
      <use xlink:href="#DejaVuSerif-73"/>
      <use x="39.501953" xlink:href="#DejaVuSerif-110"/>
      <use x="103.90625" xlink:href="#DejaVuSerif-116"/>
      <use x="144.091797" xlink:href="#DejaVuSerif-101"/>
      <use x="203.271484" xlink:href="#DejaVuSerif-110"/>
      <use x="267.675781" xlink:href="#DejaVuSerif-115"/>
      <use x="318.994141" xlink:href="#DejaVuSerif-105"/>
      <use x="350.976562" xlink:href="#DejaVuSerif-116"/>
      <use x="391.162109" xlink:href="#DejaVuSerif-121"/>
      <use x="447.65625" xlink:href="#DejaVuSerif-32"/>
      <use x="479.443359" xlink:href="#DejaVuSerif-40"/>
      <use x="518.457031" xlink:href="#DejaVuSerif-110"/>
      <use x="582.861328" xlink:href="#DejaVuSerif-111"/>
      <use x="643.066406" xlink:href="#DejaVuSerif-114"/>
      <use x="690.869141" xlink:href="#DejaVuSerif-109"/>
      <use x="785.693359" xlink:href="#DejaVuSerif-97"/>
      <use x="845.3125" xlink:href="#DejaVuSerif-108"/>
      <use x="877.294922" xlink:href="#DejaVuSerif-105"/>
      <use x="909.277344" xlink:href="#DejaVuSerif-122"/>
      <use x="961.962891" xlink:href="#DejaVuSerif-101"/>
      <use x="1021.142578" xlink:href="#DejaVuSerif-100"/>
      <use x="1085.15625" xlink:href="#DejaVuSerif-41"/>
     </g>
    </g>
   </g>
   <g id="line2d_21">
    <path clip-path="url(#p9aeb821f3b)" d="M 47.996094 291.056327 
L 545.192969 291.056327 
" style="fill:none;stroke:#000000;stroke-linecap:square;"/>
   </g>
   <g id="line2d_22">
    <path clip-path="url(#p9aeb821f3b)" d="M 47.996094 291.033249 
L 49.381043 289.945505 
L 50.765993 286.868407 
L 52.150942 281.666696 
L 53.535892 274.963126 
L 54.920841 266.467533 
L 56.305791 256.403636 
L 57.69074 245.243525 
L 59.07569 232.988505 
L 61.845589 206.668448 
L 66.000437 167.85701 
L 67.385387 155.985648 
L 68.770336 145.305265 
L 70.155286 135.796687 
L 71.540235 127.544151 
L 72.925185 121.048229 
L 74.310134 116.57174 
L 75.695084 114.127438 
L 77.080034 113.27785 
L 78.464983 114.412144 
L 79.849933 117.051558 
L 81.234882 121.89593 
L 82.619832 127.655104 
L 84.004781 135.007256 
L 85.389731 143.905286 
L 86.77468 153.828543 
L 89.544579 176.011274 
L 92.314478 199.708107 
L 96.469327 235.250246 
L 97.854276 245.106463 
L 100.624175 262.667128 
L 102.009125 270.078395 
L 103.394074 276.552488 
L 104.779024 281.652786 
L 106.163973 285.739133 
L 107.548923 288.445427 
L 108.933872 290.237824 
L 110.318822 290.782467 
L 111.703771 290.562456 
L 113.088721 289.279313 
L 114.47367 287.41615 
L 115.85862 284.675994 
L 117.243569 281.397434 
L 120.013468 273.641728 
L 121.398418 269.699733 
L 135.247913 226.502192 
L 136.632863 221.546896 
L 140.787711 204.517683 
L 142.172661 198.336508 
L 143.55761 191.449532 
L 146.327509 175.928625 
L 147.712459 167.376589 
L 153.252257 129.168905 
L 158.792055 88.836496 
L 161.561954 70.051136 
L 162.946903 62.161576 
L 164.331853 55.001292 
L 165.716802 48.493294 
L 167.101752 43.245639 
L 168.486701 39.069328 
L 169.871651 36.237821 
L 171.2566 34.603028 
L 172.64155 34.438107 
L 174.026499 35.713244 
L 175.411449 38.089992 
L 176.796398 42.064171 
L 178.181348 46.790117 
L 180.951247 60.06727 
L 182.336196 67.740885 
L 186.491045 95.483073 
L 187.875995 106.239765 
L 190.645894 126.31332 
L 194.800742 156.213066 
L 197.570641 174.399955 
L 200.34054 190.526805 
L 201.72549 197.887032 
L 204.495389 210.766186 
L 207.265288 221.999209 
L 211.420136 235.951896 
L 216.959934 252.841948 
L 219.729833 260.928568 
L 223.884682 273.189316 
L 226.654581 280.840492 
L 228.03953 283.874405 
L 229.42448 286.582266 
L 230.809429 288.766975 
L 232.194379 290.228595 
L 233.579328 290.985554 
L 234.964278 290.767083 
L 236.349227 289.568555 
L 237.734177 287.266917 
L 239.119126 283.902105 
L 240.504076 279.115804 
L 241.889026 273.489231 
L 243.273975 266.570591 
L 244.658925 258.015989 
L 247.428824 239.153316 
L 248.813773 228.890473 
L 252.968622 193.783257 
L 254.353571 181.243682 
L 258.50842 148.61742 
L 259.893369 139.25278 
L 261.278319 130.973373 
L 262.663268 124.198332 
L 264.048218 118.761754 
L 265.433167 115.064204 
L 266.818117 113.065302 
L 268.203066 113.004165 
L 269.588016 114.967365 
L 270.972965 118.878142 
L 272.357915 124.231165 
L 273.742864 131.002961 
L 275.127814 139.593869 
L 276.512763 149.679329 
L 277.897713 160.964297 
L 287.592359 250.09746 
L 288.977309 260.876246 
L 290.362258 270.172252 
L 291.747208 278.141812 
L 293.132157 284.143675 
L 294.517107 288.437732 
L 295.902056 290.560918 
L 297.287006 290.788622 
L 298.671956 288.753126 
L 300.056905 285.032957 
L 301.441855 279.401876 
L 302.826804 271.44157 
L 305.596703 251.997553 
L 311.136501 202.562786 
L 313.9064 176.862975 
L 316.676299 153.654414 
L 318.061249 143.63628 
L 319.446198 135.039636 
L 320.831148 128.003136 
L 322.216097 122.49123 
L 323.601047 118.876406 
L 324.985996 117.058804 
L 326.370946 117.140924 
L 327.755895 118.968188 
L 329.140845 122.588824 
L 330.525794 127.819346 
L 331.910744 134.968988 
L 333.295693 142.781861 
L 334.680643 152.008979 
L 338.835491 184.548365 
L 344.375289 231.370612 
L 348.530138 260.882541 
L 349.915087 268.824384 
L 351.300037 275.143195 
L 352.684987 280.729629 
L 354.069936 285.085268 
L 355.454886 288.020783 
L 356.839835 290.007039 
L 358.224785 290.887089 
L 359.609734 290.797851 
L 360.994684 289.870122 
L 362.379633 288.025392 
L 363.764583 285.371413 
L 365.149532 282.155904 
L 367.919431 274.715556 
L 370.68933 266.654976 
L 373.459229 257.388557 
L 374.844179 253.143621 
L 376.229128 248.48356 
L 381.768926 231.361026 
L 387.308724 211.171053 
L 388.693674 205.761044 
L 390.078623 199.871895 
L 394.233472 178.425761 
L 395.618421 170.384414 
L 398.38832 152.528197 
L 402.543169 123.113703 
L 408.082967 83.504003 
L 409.467917 73.969536 
L 412.237816 58.148224 
L 413.622765 51.353105 
L 415.007715 45.485921 
L 416.392664 40.506895 
L 417.777614 36.869653 
L 419.162563 34.827502 
L 420.547513 34.048864 
L 421.932462 34.452071 
L 423.317412 36.396628 
L 424.702361 39.397207 
L 426.087311 43.546723 
L 427.47226 48.858535 
L 428.85721 55.334455 
L 430.242159 62.736045 
L 431.627109 71.073872 
L 435.781957 99.448798 
L 444.091654 160.155242 
L 446.861553 178.312468 
L 448.246503 186.470656 
L 451.016402 200.087387 
L 453.786301 212.222094 
L 456.5562 222.919543 
L 459.326099 232.389098 
L 463.480948 245.310618 
L 474.560544 278.695758 
L 477.330443 285.109896 
L 478.715392 287.536146 
L 480.100342 289.448552 
L 481.485291 290.577842 
L 482.870241 291.088636 
L 484.25519 290.427064 
L 485.64014 288.946992 
L 487.025089 286.177606 
L 488.410039 282.208196 
L 489.794988 277.386376 
L 491.179938 271.304614 
L 492.564887 263.959489 
L 493.949837 255.639241 
L 495.334786 246.297011 
L 498.104685 225.366706 
L 500.874584 202.403978 
L 505.029433 166.433633 
L 507.799332 147.049652 
L 509.184281 138.69288 
L 510.569231 131.147125 
L 511.95418 125.169063 
L 513.33913 120.680572 
L 514.724079 118.040781 
L 516.109029 116.984985 
L 517.493978 117.897825 
L 518.878928 120.781261 
L 520.263878 125.565854 
L 521.648827 131.623396 
L 523.033777 139.962129 
L 525.803676 159.6598 
L 528.573575 182.699666 
L 534.113373 234.294641 
L 535.498322 246.308182 
L 536.883272 257.303636 
L 538.268221 267.201465 
L 539.653171 275.4585 
L 541.03812 282.249792 
L 542.42307 287.060708 
L 543.808019 290.119362 
L 545.192969 291.050173 
L 545.192969 291.050173 
" style="fill:none;stroke:#1f77b4;stroke-linecap:square;stroke-width:3;"/>
   </g>
   <g id="line2d_23">
    <path clip-path="url(#p9aeb821f3b)" d="M 47.996094 291.056327 
L 49.381043 290.034747 
L 50.765993 286.994318 
L 52.150942 282.007333 
L 53.535892 275.192257 
L 54.920841 266.710688 
L 56.305791 256.76326 
L 57.69074 245.58462 
L 60.460639 220.606189 
L 66.000437 168.470467 
L 67.385387 156.724986 
L 68.770336 146.044076 
L 70.155286 136.660192 
L 71.540235 128.772744 
L 72.925185 122.543759 
L 74.310134 118.09457 
L 75.695084 115.503637 
L 77.080034 114.805455 
L 78.464983 115.990704 
L 79.849933 119.007409 
L 81.234882 123.763274 
L 82.619832 130.129013 
L 84.004781 137.942398 
L 85.389731 147.0134 
L 88.15963 168.061874 
L 92.314478 203.352649 
L 95.084377 226.593206 
L 97.854276 247.629364 
L 99.239226 256.896713 
L 100.624175 265.158815 
L 102.009125 272.324882 
L 103.394074 278.335316 
L 104.779024 283.161604 
L 106.163973 286.804979 
L 107.548923 289.294411 
L 108.933872 290.683906 
L 110.318822 291.048973 
L 111.703771 290.482806 
L 113.088721 289.091841 
L 114.47367 286.991264 
L 115.85862 284.300412 
L 117.243569 281.138134 
L 120.013468 273.847086 
L 133.862964 234.225601 
L 136.632863 225.525173 
L 139.402762 215.518224 
L 140.787711 209.848067 
L 142.172661 203.654846 
L 143.55761 196.895559 
L 144.94256 189.543462 
L 147.712459 173.049642 
L 150.482358 154.361745 
L 153.252257 134.013076 
L 160.177004 82.07878 
L 162.946903 64.03857 
L 164.331853 56.233438 
L 165.716802 49.428715 
L 167.101752 43.748822 
L 168.486701 39.299396 
L 169.871651 36.164223 
L 171.2566 34.402825 
L 172.64155 34.048864 
L 174.026499 35.109081 
L 175.411449 37.563225 
L 176.796398 41.36452 
L 178.181348 46.441044 
L 179.566297 52.697854 
L 180.951247 60.019375 
L 182.336196 68.273063 
L 185.106095 86.98247 
L 189.260944 118.165378 
L 193.415793 149.401988 
L 196.185692 168.568427 
L 198.955591 185.641879 
L 201.72549 200.348032 
L 203.110439 206.819912 
L 204.495389 212.745283 
L 207.265288 223.169043 
L 210.035187 232.140273 
L 212.805086 240.250261 
L 222.499732 267.917202 
L 225.269631 275.758146 
L 228.03953 282.770907 
L 229.42448 285.712111 
L 230.809429 288.122845 
L 232.194379 289.883362 
L 233.579328 290.875901 
L 234.964278 290.989039 
L 236.349227 290.122376 
L 237.734177 288.191106 
L 239.119126 285.129961 
L 240.504076 280.897044 
L 241.889026 275.477042 
L 243.273975 268.883249 
L 244.658925 261.159792 
L 246.043874 252.381843 
L 247.428824 242.655407 
L 250.198723 220.929873 
L 258.50842 151.95482 
L 259.893369 142.333566 
L 261.278319 133.865982 
L 262.663268 126.754347 
L 264.048218 121.175155 
L 265.433167 117.274947 
L 266.818117 115.16489 
L 268.203066 114.917495 
L 269.588016 116.5636 
L 270.972965 120.090757 
L 272.357915 125.442349 
L 273.742864 132.518368 
L 275.127814 141.176699 
L 276.512763 151.236155 
L 277.897713 162.480334 
L 280.667612 187.509244 
L 286.20741 239.614762 
L 287.592359 251.312042 
L 288.977309 261.906242 
L 290.362258 271.148056 
L 291.747208 278.819189 
L 293.132157 284.737777 
L 294.517107 288.76347 
L 295.902056 290.800558 
L 297.287006 290.800574 
L 298.671956 288.763458 
L 300.056905 284.737828 
L 301.441855 278.819235 
L 302.826804 271.148019 
L 304.211754 261.906229 
L 305.596703 251.312001 
L 308.366602 227.089084 
L 315.29135 162.480431 
L 316.676299 151.236144 
L 318.061249 141.176672 
L 319.446198 132.51837 
L 320.831148 125.442407 
L 322.216097 120.090775 
L 323.601047 116.563631 
L 324.985996 114.91753 
L 326.370946 115.164903 
L 327.755895 117.274945 
L 329.140845 121.175142 
L 330.525794 126.754385 
L 331.910744 133.866063 
L 333.295693 142.333537 
L 334.680643 151.954753 
L 337.450542 173.759821 
L 344.375289 232.11694 
L 347.145188 252.381774 
L 348.530138 261.159766 
L 349.915087 268.883406 
L 351.300037 275.477093 
L 352.684987 280.89709 
L 354.069936 285.129965 
L 355.454886 288.191077 
L 356.839835 290.122406 
L 358.224785 290.989038 
L 359.609734 290.875897 
L 360.994684 289.883373 
L 362.379633 288.122859 
L 363.764583 285.712089 
L 365.149532 282.770869 
L 366.534482 279.416179 
L 369.304381 271.896575 
L 384.538825 227.799422 
L 387.308724 218.174357 
L 388.693674 212.745308 
L 390.078623 206.819943 
L 391.463573 200.347986 
L 392.848522 193.294527 
L 395.618421 177.39208 
L 398.38832 159.216021 
L 401.158219 139.214185 
L 409.467917 77.312664 
L 410.852866 68.273119 
L 412.237816 60.019349 
L 413.622765 52.697841 
L 415.007715 46.441087 
L 416.392664 41.364552 
L 417.777614 37.563181 
L 419.162563 35.109074 
L 420.547513 34.048864 
L 421.932462 34.402823 
L 423.317412 36.164199 
L 424.702361 39.299414 
L 426.087311 43.748841 
L 427.47226 49.428714 
L 428.85721 56.233429 
L 430.242159 64.038506 
L 431.627109 72.704206 
L 434.397008 92.003662 
L 444.091654 163.954583 
L 446.861553 181.59066 
L 449.631452 196.895512 
L 451.016402 203.654818 
L 452.401351 209.848133 
L 455.17125 220.721769 
L 457.941149 230.001299 
L 460.711048 238.272 
L 474.560544 277.61859 
L 475.945493 281.138152 
L 477.330443 284.300388 
L 478.715392 286.99124 
L 480.100342 289.091856 
L 481.485291 290.482801 
L 482.870241 291.048969 
L 484.25519 290.683895 
L 485.64014 289.294381 
L 487.025089 286.804955 
L 488.410039 283.161583 
L 489.794988 278.335328 
L 491.179938 272.324913 
L 492.564887 265.158693 
L 493.949837 256.896664 
L 495.334786 247.629335 
L 498.104685 226.593278 
L 502.259534 191.415222 
L 505.029433 168.061999 
L 507.799332 147.013311 
L 509.184281 137.942347 
L 510.569231 130.129055 
L 511.95418 123.763346 
L 513.33913 119.007328 
L 514.724079 115.990655 
L 516.109029 114.805418 
L 517.493978 115.50359 
L 518.878928 118.094564 
L 520.263878 122.543783 
L 521.648827 128.77275 
L 523.033777 136.660164 
L 524.418726 146.044003 
L 525.803676 156.724858 
L 528.573575 181.020234 
L 535.498322 245.584648 
L 536.883272 256.763231 
L 538.268221 266.710616 
L 539.653171 275.192179 
L 541.03812 282.007373 
L 542.42307 286.994329 
L 543.808019 290.034729 
L 545.192969 291.056327 
L 545.192969 291.056327 
" style="fill:none;stroke:#ff7f0e;stroke-dasharray:7.4,3.2;stroke-dashoffset:0;stroke-width:2;"/>
   </g>
   <g id="patch_3">
    <path d="M 47.996094 303.940625 
L 47.996094 21.196875 
" style="fill:none;stroke:#000000;stroke-linecap:square;stroke-linejoin:miter;stroke-width:0.8;"/>
   </g>
   <g id="patch_4">
    <path d="M 545.192969 303.940625 
L 545.192969 21.196875 
" style="fill:none;stroke:#000000;stroke-linecap:square;stroke-linejoin:miter;stroke-width:0.8;"/>
   </g>
   <g id="patch_5">
    <path d="M 47.996094 303.940625 
L 545.192969 303.940625 
" style="fill:none;stroke:#000000;stroke-linecap:square;stroke-linejoin:miter;stroke-width:0.8;"/>
   </g>
   <g id="patch_6">
    <path d="M 47.996094 21.196875 
L 545.192969 21.196875 
" style="fill:none;stroke:#000000;stroke-linecap:square;stroke-linejoin:miter;stroke-width:0.8;"/>
   </g>
   <g id="text_13">
    <!-- DRR signal (Air) -->
    <defs>
     <path d="M 24.703125 5.171875 
L 33.796875 5.171875 
Q 48 5.171875 55.59375 13.28125 
Q 63.1875 21.390625 63.1875 36.53125 
Q 63.1875 51.65625 55.609375 59.65625 
Q 48.046875 67.671875 33.796875 67.671875 
L 24.703125 67.671875 
z
M 5.515625 0 
L 5.515625 5.171875 
L 14.796875 5.171875 
L 14.796875 67.671875 
L 5.515625 67.671875 
L 5.515625 72.90625 
L 34.515625 72.90625 
Q 53.375 72.90625 63.890625 63.28125 
Q 74.421875 53.65625 74.421875 36.53125 
Q 74.421875 19.34375 63.875 9.671875 
Q 53.328125 0 34.515625 0 
z
" id="DejaVuSerif-68"/>
     <path d="M 20.015625 26.421875 
L 46.78125 26.421875 
L 33.40625 61.078125 
z
M -0.59375 0 
L -0.59375 5.171875 
L 5.8125 5.171875 
L 31.78125 72.90625 
L 39.984375 72.90625 
L 66.015625 5.171875 
L 73.1875 5.171875 
L 73.1875 0 
L 46.6875 0 
L 46.6875 5.171875 
L 54.78125 5.171875 
L 48.6875 21.1875 
L 18.015625 21.1875 
L 11.921875 5.171875 
L 19.921875 5.171875 
L 19.921875 0 
z
" id="DejaVuSerif-65"/>
    </defs>
    <g transform="translate(213.825781 15.196875)scale(0.2 -0.2)">
     <use xlink:href="#DejaVuSerif-68"/>
     <use x="80.175781" xlink:href="#DejaVuSerif-82"/>
     <use x="155.46875" xlink:href="#DejaVuSerif-82"/>
     <use x="230.761719" xlink:href="#DejaVuSerif-32"/>
     <use x="262.548828" xlink:href="#DejaVuSerif-115"/>
     <use x="313.867188" xlink:href="#DejaVuSerif-105"/>
     <use x="345.849609" xlink:href="#DejaVuSerif-103"/>
     <use x="409.863281" xlink:href="#DejaVuSerif-110"/>
     <use x="474.267578" xlink:href="#DejaVuSerif-97"/>
     <use x="533.886719" xlink:href="#DejaVuSerif-108"/>
     <use x="565.869141" xlink:href="#DejaVuSerif-32"/>
     <use x="597.65625" xlink:href="#DejaVuSerif-40"/>
     <use x="636.669922" xlink:href="#DejaVuSerif-65"/>
     <use x="708.886719" xlink:href="#DejaVuSerif-105"/>
     <use x="740.869141" xlink:href="#DejaVuSerif-114"/>
     <use x="788.671875" xlink:href="#DejaVuSerif-41"/>
    </g>
   </g>
   <g id="legend_1">
    <g id="patch_7">
     <path d="M 234.500391 77.444531 
L 358.688672 77.444531 
Q 361.688672 77.444531 361.688672 74.444531 
L 361.688672 31.696875 
Q 361.688672 28.696875 358.688672 28.696875 
L 234.500391 28.696875 
Q 231.500391 28.696875 231.500391 31.696875 
L 231.500391 74.444531 
Q 231.500391 77.444531 234.500391 77.444531 
z
" style="fill:#ffffff;opacity:0.8;stroke:#cccccc;stroke-linejoin:miter;"/>
    </g>
    <g id="line2d_24">
     <path d="M 237.500391 40.844531 
L 267.500391 40.844531 
" style="fill:none;stroke:#1f77b4;stroke-linecap:square;stroke-width:3;"/>
    </g>
    <g id="line2d_25"/>
    <g id="text_14">
     <!-- Measured -->
     <defs>
      <path d="M 5.515625 0 
L 5.515625 5.171875 
L 14.796875 5.171875 
L 14.796875 67.671875 
L 4.984375 67.671875 
L 4.984375 72.90625 
L 26.21875 72.90625 
L 51.8125 21 
L 77.390625 72.90625 
L 97.3125 72.90625 
L 97.3125 67.671875 
L 87.59375 67.671875 
L 87.59375 5.171875 
L 96.921875 5.171875 
L 96.921875 0 
L 68.40625 0 
L 68.40625 5.171875 
L 77.6875 5.171875 
L 77.6875 61.53125 
L 52.6875 10.6875 
L 45.796875 10.6875 
L 20.796875 61.53125 
L 20.796875 5.171875 
L 30.078125 5.171875 
L 30.078125 0 
z
" id="DejaVuSerif-77"/>
      <path d="M 35.40625 51.90625 
L 52.203125 51.90625 
L 52.203125 5.171875 
L 60.6875 5.171875 
L 60.6875 0 
L 43.21875 0 
L 43.21875 9.1875 
Q 40.71875 4 36.765625 1.28125 
Q 32.8125 -1.421875 27.59375 -1.421875 
Q 18.953125 -1.421875 14.875 3.484375 
Q 10.796875 8.40625 10.796875 18.890625 
L 10.796875 46.6875 
L 2.6875 46.6875 
L 2.6875 51.90625 
L 19.828125 51.90625 
L 19.828125 21.6875 
Q 19.828125 12.203125 22.140625 8.6875 
Q 24.46875 5.171875 30.421875 5.171875 
Q 36.671875 5.171875 39.9375 9.765625 
Q 43.21875 14.359375 43.21875 23.09375 
L 43.21875 46.6875 
L 35.40625 46.6875 
z
" id="DejaVuSerif-117"/>
     </defs>
     <g transform="translate(279.500391 46.094531)scale(0.15 -0.15)">
      <use xlink:href="#DejaVuSerif-77"/>
      <use x="102.392578" xlink:href="#DejaVuSerif-101"/>
      <use x="161.572266" xlink:href="#DejaVuSerif-97"/>
      <use x="221.191406" xlink:href="#DejaVuSerif-115"/>
      <use x="272.509766" xlink:href="#DejaVuSerif-117"/>
      <use x="336.914062" xlink:href="#DejaVuSerif-114"/>
      <use x="384.716797" xlink:href="#DejaVuSerif-101"/>
      <use x="443.896484" xlink:href="#DejaVuSerif-100"/>
     </g>
    </g>
    <g id="line2d_26">
     <path d="M 237.500391 62.861719 
L 267.500391 62.861719 
" style="fill:none;stroke:#ff7f0e;stroke-dasharray:7.4,3.2;stroke-dashoffset:0;stroke-width:2;"/>
    </g>
    <g id="line2d_27"/>
    <g id="text_15">
     <!-- Analytical -->
     <defs>
      <path d="M 51.421875 15.578125 
Q 49.515625 7.28125 44.09375 2.921875 
Q 38.671875 -1.421875 30.078125 -1.421875 
Q 18.75 -1.421875 11.859375 6.078125 
Q 4.984375 13.578125 4.984375 25.984375 
Q 4.984375 38.421875 11.859375 45.875 
Q 18.75 53.328125 30.078125 53.328125 
Q 35.015625 53.328125 39.890625 52.171875 
Q 44.78125 51.03125 49.703125 48.6875 
L 49.703125 35.40625 
L 44.484375 35.40625 
Q 43.453125 42.234375 40.015625 45.359375 
Q 36.578125 48.484375 30.171875 48.484375 
Q 22.90625 48.484375 19.1875 42.84375 
Q 15.484375 37.203125 15.484375 25.984375 
Q 15.484375 14.75 19.171875 9.078125 
Q 22.859375 3.421875 30.171875 3.421875 
Q 35.984375 3.421875 39.453125 6.4375 
Q 42.921875 9.46875 44.1875 15.578125 
z
" id="DejaVuSerif-99"/>
     </defs>
     <g transform="translate(279.500391 68.111719)scale(0.15 -0.15)">
      <use xlink:href="#DejaVuSerif-65"/>
      <use x="72.216797" xlink:href="#DejaVuSerif-110"/>
      <use x="136.621094" xlink:href="#DejaVuSerif-97"/>
      <use x="196.240234" xlink:href="#DejaVuSerif-108"/>
      <use x="228.222656" xlink:href="#DejaVuSerif-121"/>
      <use x="284.716797" xlink:href="#DejaVuSerif-116"/>
      <use x="324.902344" xlink:href="#DejaVuSerif-105"/>
      <use x="356.884766" xlink:href="#DejaVuSerif-99"/>
      <use x="412.890625" xlink:href="#DejaVuSerif-97"/>
      <use x="472.509766" xlink:href="#DejaVuSerif-108"/>
     </g>
    </g>
   </g>
  </g>
 </g>
 <defs>
  <clipPath id="p9aeb821f3b">
   <rect height="282.74375" width="497.196875" x="47.996094" y="21.196875"/>
  </clipPath>
 </defs>
</svg>
