<?xml version="1.0" encoding="utf-8" standalone="no"?>
<!DOCTYPE svg PUBLIC "-//W3C//DTD SVG 1.1//EN"
  "http://www.w3.org/Graphics/SVG/1.1/DTD/svg11.dtd">
<!-- Created with matplotlib (https://matplotlib.org/) -->
<svg height="325.912656pt" version="1.1" viewBox="0 0 486.545312 325.912656" width="486.545312pt" xmlns="http://www.w3.org/2000/svg" xmlns:xlink="http://www.w3.org/1999/xlink">
 <defs>
  <style type="text/css">
*{stroke-linecap:butt;stroke-linejoin:round;}
  </style>
 </defs>
 <g id="figure_1">
  <g id="patch_1">
   <path d="M 0 325.912656 
L 486.545312 325.912656 
L 486.545312 0 
L 0 0 
z
" style="fill:#ffffff;"/>
  </g>
  <g id="axes_1">
   <g id="patch_2">
    <path d="M 31.282813 290.717344 
L 477.682813 290.717344 
L 477.682813 18.917344 
L 31.282813 18.917344 
z
" style="fill:#ffffff;"/>
   </g>
   <g id="matplotlib.axis_1">
    <g id="xtick_1">
     <g id="line2d_1">
      <path clip-path="url(#p47340dcf97)" d="M 31.282813 290.717344 
L 31.282813 18.917344 
" style="fill:none;stroke:#b0b0b0;stroke-linecap:square;stroke-width:0.8;"/>
     </g>
     <g id="line2d_2">
      <defs>
       <path d="M 0 0 
L 0 3.5 
" id="m800611d8b8" style="stroke:#000000;stroke-width:0.8;"/>
      </defs>
      <g>
       <use style="stroke:#000000;stroke-width:0.8;" x="31.282813" xlink:href="#m800611d8b8" y="290.717344"/>
      </g>
     </g>
     <g id="text_1">
      <!-- -90˚ -->
      <defs>
       <path d="M 4.390625 30.609375 
L 29.390625 30.609375 
L 29.390625 23 
L 4.390625 23 
z
" id="DejaVuSerif-45"/>
       <path d="M 46.78125 32.671875 
Q 43.5 29 39.25 27.1875 
Q 35.015625 25.390625 29.6875 25.390625 
Q 18.84375 25.390625 12.5625 31.9375 
Q 6.296875 38.484375 6.296875 49.8125 
Q 6.296875 60.890625 13.109375 67.546875 
Q 19.921875 74.21875 31.296875 74.21875 
Q 43.65625 74.21875 50.265625 65.015625 
Q 56.890625 55.8125 56.890625 38.71875 
Q 56.890625 19.578125 49.015625 9.078125 
Q 41.15625 -1.421875 26.90625 -1.421875 
Q 23.046875 -1.421875 18.796875 -0.6875 
Q 14.546875 0.046875 10.109375 1.515625 
L 10.109375 13.625 
L 15.578125 13.625 
Q 16.21875 8.6875 19.390625 6.046875 
Q 22.5625 3.421875 27.875 3.421875 
Q 37.359375 3.421875 41.984375 10.5625 
Q 46.625 17.71875 46.78125 32.671875 
z
M 30.90625 69.390625 
Q 23.96875 69.390625 20.28125 64.328125 
Q 16.609375 59.28125 16.609375 49.8125 
Q 16.609375 40.328125 20.28125 35.25 
Q 23.96875 30.171875 30.90625 30.171875 
Q 37.84375 30.171875 41.53125 35.078125 
Q 45.21875 39.984375 45.21875 49.21875 
Q 45.21875 58.9375 41.5 64.15625 
Q 37.796875 69.390625 30.90625 69.390625 
z
" id="DejaVuSerif-57"/>
       <path d="M 31.78125 3.421875 
Q 39.265625 3.421875 42.96875 11.625 
Q 46.6875 19.828125 46.6875 36.375 
Q 46.6875 52.984375 42.96875 61.1875 
Q 39.265625 69.390625 31.78125 69.390625 
Q 24.3125 69.390625 20.59375 61.1875 
Q 16.890625 52.984375 16.890625 36.375 
Q 16.890625 19.828125 20.59375 11.625 
Q 24.3125 3.421875 31.78125 3.421875 
z
M 31.78125 -1.421875 
Q 19.921875 -1.421875 13.25 8.53125 
Q 6.59375 18.5 6.59375 36.375 
Q 6.59375 54.296875 13.25 64.25 
Q 19.921875 74.21875 31.78125 74.21875 
Q 43.703125 74.21875 50.34375 64.25 
Q 56.984375 54.296875 56.984375 36.375 
Q 56.984375 18.5 50.34375 8.53125 
Q 43.703125 -1.421875 31.78125 -1.421875 
z
" id="DejaVuSerif-48"/>
       <path d="M 38.375 74.421875 
Q 38.375 68.796875 34.484375 64.890625 
Q 30.609375 60.984375 25 60.984375 
Q 19.390625 60.984375 15.5 64.890625 
Q 11.625 68.796875 11.625 74.421875 
Q 11.625 80.03125 15.5 83.90625 
Q 19.390625 87.796875 25 87.796875 
Q 30.609375 87.796875 34.484375 83.90625 
Q 38.375 80.03125 38.375 74.421875 
z
M 32.421875 74.421875 
Q 32.421875 77.484375 30.265625 79.625 
Q 28.125 81.78125 25 81.78125 
Q 21.828125 81.78125 19.703125 79.65625 
Q 17.578125 77.546875 17.578125 74.421875 
Q 17.578125 71.234375 19.703125 69.109375 
Q 21.828125 67 25 67 
Q 28.125 67 30.265625 69.140625 
Q 32.421875 71.296875 32.421875 74.421875 
z
" id="DejaVuSerif-730"/>
      </defs>
      <g transform="translate(20.730469 305.315781)scale(0.1 -0.1)">
       <use xlink:href="#DejaVuSerif-45"/>
       <use x="33.789062" xlink:href="#DejaVuSerif-57"/>
       <use x="97.412109" xlink:href="#DejaVuSerif-48"/>
       <use x="161.035156" xlink:href="#DejaVuSerif-730"/>
      </g>
     </g>
    </g>
    <g id="xtick_2">
     <g id="line2d_3">
      <path clip-path="url(#p47340dcf97)" d="M 105.682812 290.717344 
L 105.682812 18.917344 
" style="fill:none;stroke:#b0b0b0;stroke-linecap:square;stroke-width:0.8;"/>
     </g>
     <g id="line2d_4">
      <g>
       <use style="stroke:#000000;stroke-width:0.8;" x="105.682812" xlink:href="#m800611d8b8" y="290.717344"/>
      </g>
     </g>
     <g id="text_2">
      <!-- -60˚ -->
      <defs>
       <path d="M 32.71875 3.421875 
Q 39.59375 3.421875 43.296875 8.46875 
Q 47.015625 13.53125 47.015625 23 
Q 47.015625 32.46875 43.296875 37.515625 
Q 39.59375 42.578125 32.71875 42.578125 
Q 25.734375 42.578125 22.0625 37.6875 
Q 18.40625 32.8125 18.40625 23.578125 
Q 18.40625 13.875 22.109375 8.640625 
Q 25.828125 3.421875 32.71875 3.421875 
z
M 16.796875 40.140625 
Q 20.125 43.796875 24.3125 45.59375 
Q 28.515625 47.40625 33.796875 47.40625 
Q 44.671875 47.40625 51 40.859375 
Q 57.328125 34.328125 57.328125 23 
Q 57.328125 11.921875 50.515625 5.25 
Q 43.703125 -1.421875 32.328125 -1.421875 
Q 19.96875 -1.421875 13.328125 7.78125 
Q 6.6875 17 6.6875 34.078125 
Q 6.6875 53.21875 14.546875 63.71875 
Q 22.40625 74.21875 36.71875 74.21875 
Q 40.578125 74.21875 44.828125 73.484375 
Q 49.078125 72.75 53.515625 71.296875 
L 53.515625 59.28125 
L 48 59.28125 
Q 47.40625 64.203125 44.234375 66.796875 
Q 41.0625 69.390625 35.6875 69.390625 
Q 26.21875 69.390625 21.578125 62.203125 
Q 16.9375 55.03125 16.796875 40.140625 
z
" id="DejaVuSerif-54"/>
      </defs>
      <g transform="translate(95.130469 305.315781)scale(0.1 -0.1)">
       <use xlink:href="#DejaVuSerif-45"/>
       <use x="33.789062" xlink:href="#DejaVuSerif-54"/>
       <use x="97.412109" xlink:href="#DejaVuSerif-48"/>
       <use x="161.035156" xlink:href="#DejaVuSerif-730"/>
      </g>
     </g>
    </g>
    <g id="xtick_3">
     <g id="line2d_5">
      <path clip-path="url(#p47340dcf97)" d="M 180.082812 290.717344 
L 180.082812 18.917344 
" style="fill:none;stroke:#b0b0b0;stroke-linecap:square;stroke-width:0.8;"/>
     </g>
     <g id="line2d_6">
      <g>
       <use style="stroke:#000000;stroke-width:0.8;" x="180.082812" xlink:href="#m800611d8b8" y="290.717344"/>
      </g>
     </g>
     <g id="text_3">
      <!-- -30˚ -->
      <defs>
       <path d="M 9.71875 69.828125 
Q 15.4375 71.96875 20.671875 73.09375 
Q 25.921875 74.21875 30.515625 74.21875 
Q 41.21875 74.21875 47.21875 69.59375 
Q 53.21875 64.984375 53.21875 56.78125 
Q 53.21875 50.203125 49.0625 45.78125 
Q 44.921875 41.359375 37.3125 39.796875 
Q 46.296875 38.53125 51.25 33.28125 
Q 56.203125 28.03125 56.203125 19.671875 
Q 56.203125 9.46875 49.34375 4.015625 
Q 42.484375 -1.421875 29.59375 -1.421875 
Q 23.875 -1.421875 18.421875 -0.1875 
Q 12.984375 1.03125 7.625 3.515625 
L 7.625 17.671875 
L 13.09375 17.671875 
Q 13.578125 10.640625 17.828125 7.03125 
Q 22.078125 3.421875 29.78125 3.421875 
Q 37.25 3.421875 41.578125 7.734375 
Q 45.90625 12.0625 45.90625 19.578125 
Q 45.90625 28.171875 41.453125 32.59375 
Q 37.015625 37.015625 28.421875 37.015625 
L 23.78125 37.015625 
L 23.78125 42 
L 26.21875 42 
Q 34.765625 42 39.03125 45.53125 
Q 43.3125 49.078125 43.3125 56.203125 
Q 43.3125 62.59375 39.796875 65.984375 
Q 36.28125 69.390625 29.6875 69.390625 
Q 23.09375 69.390625 19.453125 66.265625 
Q 15.828125 63.140625 15.1875 56.984375 
L 9.71875 56.984375 
z
" id="DejaVuSerif-51"/>
      </defs>
      <g transform="translate(169.530469 305.315781)scale(0.1 -0.1)">
       <use xlink:href="#DejaVuSerif-45"/>
       <use x="33.789062" xlink:href="#DejaVuSerif-51"/>
       <use x="97.412109" xlink:href="#DejaVuSerif-48"/>
       <use x="161.035156" xlink:href="#DejaVuSerif-730"/>
      </g>
     </g>
    </g>
    <g id="xtick_4">
     <g id="line2d_7">
      <path clip-path="url(#p47340dcf97)" d="M 254.482812 290.717344 
L 254.482812 18.917344 
" style="fill:none;stroke:#b0b0b0;stroke-linecap:square;stroke-width:0.8;"/>
     </g>
     <g id="line2d_8">
      <g>
       <use style="stroke:#000000;stroke-width:0.8;" x="254.482812" xlink:href="#m800611d8b8" y="290.717344"/>
      </g>
     </g>
     <g id="text_4">
      <!-- 0˚ -->
      <g transform="translate(248.801562 305.315781)scale(0.1 -0.1)">
       <use xlink:href="#DejaVuSerif-48"/>
       <use x="63.623047" xlink:href="#DejaVuSerif-730"/>
      </g>
     </g>
    </g>
    <g id="xtick_5">
     <g id="line2d_9">
      <path clip-path="url(#p47340dcf97)" d="M 328.882812 290.717344 
L 328.882812 18.917344 
" style="fill:none;stroke:#b0b0b0;stroke-linecap:square;stroke-width:0.8;"/>
     </g>
     <g id="line2d_10">
      <g>
       <use style="stroke:#000000;stroke-width:0.8;" x="328.882812" xlink:href="#m800611d8b8" y="290.717344"/>
      </g>
     </g>
     <g id="text_5">
      <!-- 30˚ -->
      <g transform="translate(320.020312 305.315781)scale(0.1 -0.1)">
       <use xlink:href="#DejaVuSerif-51"/>
       <use x="63.623047" xlink:href="#DejaVuSerif-48"/>
       <use x="127.246094" xlink:href="#DejaVuSerif-730"/>
      </g>
     </g>
    </g>
    <g id="xtick_6">
     <g id="line2d_11">
      <path clip-path="url(#p47340dcf97)" d="M 403.282812 290.717344 
L 403.282812 18.917344 
" style="fill:none;stroke:#b0b0b0;stroke-linecap:square;stroke-width:0.8;"/>
     </g>
     <g id="line2d_12">
      <g>
       <use style="stroke:#000000;stroke-width:0.8;" x="403.282812" xlink:href="#m800611d8b8" y="290.717344"/>
      </g>
     </g>
     <g id="text_6">
      <!-- 60˚ -->
      <g transform="translate(394.420312 305.315781)scale(0.1 -0.1)">
       <use xlink:href="#DejaVuSerif-54"/>
       <use x="63.623047" xlink:href="#DejaVuSerif-48"/>
       <use x="127.246094" xlink:href="#DejaVuSerif-730"/>
      </g>
     </g>
    </g>
    <g id="xtick_7">
     <g id="line2d_13">
      <path clip-path="url(#p47340dcf97)" d="M 477.682812 290.717344 
L 477.682812 18.917344 
" style="fill:none;stroke:#b0b0b0;stroke-linecap:square;stroke-width:0.8;"/>
     </g>
     <g id="line2d_14">
      <g>
       <use style="stroke:#000000;stroke-width:0.8;" x="477.682812" xlink:href="#m800611d8b8" y="290.717344"/>
      </g>
     </g>
     <g id="text_7">
      <!-- 90˚ -->
      <g transform="translate(468.820312 305.315781)scale(0.1 -0.1)">
       <use xlink:href="#DejaVuSerif-57"/>
       <use x="63.623047" xlink:href="#DejaVuSerif-48"/>
       <use x="127.246094" xlink:href="#DejaVuSerif-730"/>
      </g>
     </g>
    </g>
    <g id="text_8">
     <!-- $\theta_i$ -->
     <defs>
      <path d="M 45.125 40.625 
Q 47.796875 56.296875 46.046875 64.265625 
Q 44.09375 73.09375 36.859375 73.09375 
Q 29.6875 73.09375 24.265625 64.265625 
Q 19.4375 56.296875 16.015625 40.625 
z
M 44.09375 35.40625 
L 14.984375 35.40625 
Q 12.359375 19.828125 14.109375 11.859375 
Q 16.109375 2.984375 23.25 2.984375 
Q 30.421875 2.984375 35.84375 11.859375 
Q 40.671875 19.828125 44.09375 35.40625 
z
M 37.640625 77.046875 
Q 49.03125 77.046875 53.8125 66.375 
Q 58.59375 55.71875 55.140625 38.015625 
Q 51.703125 20.3125 42.71875 9.609375 
Q 33.734375 -1.078125 22.40625 -1.078125 
Q 11.140625 -1.078125 6.34375 9.609375 
Q 1.5625 20.3125 5 38.015625 
Q 8.453125 55.71875 17.375 66.375 
Q 26.3125 77.046875 37.640625 77.046875 
z
" id="DejaVuSerif-Italic-952"/>
      <path d="M 15.765625 68.015625 
Q 16.21875 70.265625 18.171875 71.921875 
Q 20.125 73.578125 22.40625 73.578125 
Q 24.65625 73.578125 25.984375 71.921875 
Q 27 70.65625 27 69.09375 
Q 27 68.5625 26.859375 68.015625 
Q 26.421875 65.71875 24.484375 64.109375 
Q 22.5625 62.5 20.265625 62.5 
Q 17.96875 62.5 16.65625 64.109375 
Q 15.671875 65.328125 15.671875 66.890625 
Q 15.671875 67.4375 15.765625 68.015625 
z
M 15.046875 5.171875 
L 23.53125 5.171875 
L 22.5625 0 
L 5.078125 0 
L 14.109375 46.6875 
L 5.515625 46.6875 
L 6.546875 51.90625 
L 24.125 51.90625 
z
" id="DejaVuSerif-Italic-105"/>
     </defs>
     <g transform="translate(248.032813 322.793125)scale(0.15 -0.15)">
      <use transform="translate(0 0.953125)" xlink:href="#DejaVuSerif-Italic-952"/>
      <use transform="translate(60.205078 -14.61875)scale(0.7)" xlink:href="#DejaVuSerif-Italic-105"/>
     </g>
    </g>
   </g>
   <g id="matplotlib.axis_2">
    <g id="ytick_1">
     <g id="line2d_15">
      <path clip-path="url(#p47340dcf97)" d="M 31.282813 284.245915 
L 477.682813 284.245915 
" style="fill:none;stroke:#b0b0b0;stroke-linecap:square;stroke-width:0.8;"/>
     </g>
     <g id="line2d_16">
      <defs>
       <path d="M 0 0 
L -3.5 0 
" id="m21de81b865" style="stroke:#000000;stroke-width:0.8;"/>
      </defs>
      <g>
       <use style="stroke:#000000;stroke-width:0.8;" x="31.282813" xlink:href="#m21de81b865" y="284.245915"/>
      </g>
     </g>
     <g id="text_9">
      <!-- −1.0 -->
      <defs>
       <path d="M 10.59375 35.296875 
L 73.1875 35.296875 
L 73.1875 27.390625 
L 10.59375 27.390625 
z
" id="DejaVuSerif-8722"/>
       <path d="M 14.203125 0 
L 14.203125 5.171875 
L 26.90625 5.171875 
L 26.90625 65.828125 
L 12.203125 56.296875 
L 12.203125 62.703125 
L 29.984375 74.21875 
L 36.71875 74.21875 
L 36.71875 5.171875 
L 49.421875 5.171875 
L 49.421875 0 
z
" id="DejaVuSerif-49"/>
       <path d="M 9.421875 5.078125 
Q 9.421875 7.8125 11.28125 9.71875 
Q 13.140625 11.625 15.921875 11.625 
Q 18.609375 11.625 20.5 9.71875 
Q 22.40625 7.8125 22.40625 5.078125 
Q 22.40625 2.390625 20.5 0.484375 
Q 18.609375 -1.421875 15.921875 -1.421875 
Q 13.140625 -1.421875 11.28125 0.453125 
Q 9.421875 2.34375 9.421875 5.078125 
z
" id="DejaVuSerif-46"/>
      </defs>
      <g transform="translate(0 288.045134)scale(0.1 -0.1)">
       <use xlink:href="#DejaVuSerif-8722"/>
       <use x="83.789062" xlink:href="#DejaVuSerif-49"/>
       <use x="147.412109" xlink:href="#DejaVuSerif-46"/>
       <use x="179.199219" xlink:href="#DejaVuSerif-48"/>
      </g>
     </g>
    </g>
    <g id="ytick_2">
     <g id="line2d_17">
      <path clip-path="url(#p47340dcf97)" d="M 31.282813 219.531629 
L 477.682813 219.531629 
" style="fill:none;stroke:#b0b0b0;stroke-linecap:square;stroke-width:0.8;"/>
     </g>
     <g id="line2d_18">
      <g>
       <use style="stroke:#000000;stroke-width:0.8;" x="31.282813" xlink:href="#m21de81b865" y="219.531629"/>
      </g>
     </g>
     <g id="text_10">
      <!-- −0.5 -->
      <defs>
       <path d="M 50.296875 72.90625 
L 50.296875 64.890625 
L 16.890625 64.890625 
L 16.890625 44 
Q 19.4375 45.75 22.828125 46.625 
Q 26.21875 47.515625 30.421875 47.515625 
Q 42.234375 47.515625 49.0625 40.96875 
Q 55.90625 34.421875 55.90625 23.09375 
Q 55.90625 11.53125 49 5.046875 
Q 42.09375 -1.421875 29.59375 -1.421875 
Q 24.5625 -1.421875 19.28125 -0.1875 
Q 14.015625 1.03125 8.5 3.515625 
L 8.5 17.671875 
L 14.015625 17.671875 
Q 14.453125 10.75 18.421875 7.078125 
Q 22.40625 3.421875 29.59375 3.421875 
Q 37.3125 3.421875 41.453125 8.5 
Q 45.609375 13.578125 45.609375 23.09375 
Q 45.609375 32.5625 41.484375 37.609375 
Q 37.359375 42.671875 29.59375 42.671875 
Q 25.203125 42.671875 21.84375 41.109375 
Q 18.5 39.546875 15.921875 36.28125 
L 11.71875 36.28125 
L 11.71875 72.90625 
z
" id="DejaVuSerif-53"/>
      </defs>
      <g transform="translate(0 223.330848)scale(0.1 -0.1)">
       <use xlink:href="#DejaVuSerif-8722"/>
       <use x="83.789062" xlink:href="#DejaVuSerif-48"/>
       <use x="147.412109" xlink:href="#DejaVuSerif-46"/>
       <use x="179.199219" xlink:href="#DejaVuSerif-53"/>
      </g>
     </g>
    </g>
    <g id="ytick_3">
     <g id="line2d_19">
      <path clip-path="url(#p47340dcf97)" d="M 31.282813 154.817344 
L 477.682813 154.817344 
" style="fill:none;stroke:#b0b0b0;stroke-linecap:square;stroke-width:0.8;"/>
     </g>
     <g id="line2d_20">
      <g>
       <use style="stroke:#000000;stroke-width:0.8;" x="31.282813" xlink:href="#m21de81b865" y="154.817344"/>
      </g>
     </g>
     <g id="text_11">
      <!-- 0.0 -->
      <g transform="translate(8.379688 158.616562)scale(0.1 -0.1)">
       <use xlink:href="#DejaVuSerif-48"/>
       <use x="63.623047" xlink:href="#DejaVuSerif-46"/>
       <use x="95.410156" xlink:href="#DejaVuSerif-48"/>
      </g>
     </g>
    </g>
    <g id="ytick_4">
     <g id="line2d_21">
      <path clip-path="url(#p47340dcf97)" d="M 31.282813 90.103058 
L 477.682813 90.103058 
" style="fill:none;stroke:#b0b0b0;stroke-linecap:square;stroke-width:0.8;"/>
     </g>
     <g id="line2d_22">
      <g>
       <use style="stroke:#000000;stroke-width:0.8;" x="31.282813" xlink:href="#m21de81b865" y="90.103058"/>
      </g>
     </g>
     <g id="text_12">
      <!-- 0.5 -->
      <g transform="translate(8.379688 93.902277)scale(0.1 -0.1)">
       <use xlink:href="#DejaVuSerif-48"/>
       <use x="63.623047" xlink:href="#DejaVuSerif-46"/>
       <use x="95.410156" xlink:href="#DejaVuSerif-53"/>
      </g>
     </g>
    </g>
    <g id="ytick_5">
     <g id="line2d_23">
      <path clip-path="url(#p47340dcf97)" d="M 31.282813 25.388772 
L 477.682813 25.388772 
" style="fill:none;stroke:#b0b0b0;stroke-linecap:square;stroke-width:0.8;"/>
     </g>
     <g id="line2d_24">
      <g>
       <use style="stroke:#000000;stroke-width:0.8;" x="31.282813" xlink:href="#m21de81b865" y="25.388772"/>
      </g>
     </g>
     <g id="text_13">
      <!-- 1.0 -->
      <g transform="translate(8.379688 29.187991)scale(0.1 -0.1)">
       <use xlink:href="#DejaVuSerif-49"/>
       <use x="63.623047" xlink:href="#DejaVuSerif-46"/>
       <use x="95.410156" xlink:href="#DejaVuSerif-48"/>
      </g>
     </g>
    </g>
   </g>
   <g id="line2d_25">
    <path clip-path="url(#p47340dcf97)" d="M 31.282813 25.388772 
L 477.682812 25.388772 
L 477.682812 25.388772 
" style="fill:none;stroke:#1f77b4;stroke-linecap:square;stroke-width:2.5;"/>
   </g>
   <g id="line2d_26">
    <path clip-path="url(#p47340dcf97)" d="M 31.282813 154.817344 
L 53.727505 108.193459 
L 63.702924 87.985153 
L 71.184488 73.464106 
L 76.172198 64.293341 
L 81.159907 55.69775 
L 86.147617 47.842863 
L 88.641472 44.248449 
L 91.135326 40.906122 
L 93.629181 37.838241 
L 96.123036 35.066352 
L 98.616891 32.610812 
L 101.110745 30.490308 
L 103.6046 28.721401 
L 106.098455 27.318018 
L 108.59231 26.291104 
L 111.086164 25.648266 
L 113.580019 25.393463 
L 116.073874 25.526901 
L 118.567729 26.04484 
L 121.061583 26.939704 
L 123.555438 28.200184 
L 126.049293 29.811405 
L 128.543148 31.755315 
L 131.037002 34.01104 
L 133.530857 36.555197 
L 136.024712 39.362681 
L 138.518567 42.406786 
L 143.506276 49.094301 
L 148.493986 56.394844 
L 155.97555 68.026471 
L 168.444824 87.697825 
L 173.432533 95.247984 
L 178.420243 102.463632 
L 183.407952 109.277499 
L 188.395662 115.642924 
L 193.383371 121.530405 
L 198.371081 126.923695 
L 203.35879 131.816751 
L 208.3465 136.210826 
L 213.334209 140.112197 
L 218.321919 143.530308 
L 223.309628 146.476017 
L 228.297338 148.960819 
L 233.285047 150.995555 
L 238.272757 152.590107 
L 243.260466 153.752551 
L 248.248176 154.489226 
L 253.235885 154.804248 
L 258.223595 154.699227 
L 263.211304 154.173832 
L 268.199014 153.224847 
L 273.186723 151.847304 
L 278.174433 150.033812 
L 283.162142 147.775379 
L 288.149852 145.061487 
L 293.137561 141.881013 
L 298.125271 138.222592 
L 303.11298 134.075849 
L 308.10069 129.432795 
L 313.088399 124.289435 
L 318.076109 118.647731 
L 323.063818 112.518483 
L 328.051528 105.924176 
L 333.039237 98.902367 
L 338.026947 91.509612 
L 345.508511 79.904678 
L 360.471639 56.394844 
L 365.459349 49.094301 
L 370.447058 42.406786 
L 372.940913 39.362681 
L 375.434768 36.555197 
L 377.928623 34.01104 
L 380.422477 31.755315 
L 382.916332 29.811405 
L 385.410187 28.200184 
L 387.904042 26.939704 
L 390.397896 26.04484 
L 392.891751 25.526901 
L 395.385606 25.393463 
L 397.879461 25.648266 
L 400.373315 26.291104 
L 402.86717 27.318018 
L 405.361025 28.721401 
L 407.85488 30.490308 
L 410.348734 32.610812 
L 412.842589 35.066352 
L 415.336444 37.838241 
L 417.830299 40.906122 
L 420.324153 44.248449 
L 422.818008 47.842863 
L 425.311863 51.666785 
L 430.299572 59.913671 
L 435.287282 68.816479 
L 440.274991 78.21861 
L 447.756556 92.969567 
L 457.731975 113.329564 
L 477.682812 154.817344 
L 477.682812 154.817344 
" style="fill:none;stroke:#ff7f0e;stroke-linecap:square;stroke-width:2.5;"/>
   </g>
   <g id="line2d_27">
    <path clip-path="url(#p47340dcf97)" d="M 31.282813 25.388772 
L 33.776667 25.493289 
L 36.270522 25.807302 
L 38.764377 26.33206 
L 41.258231 27.069687 
L 43.752086 28.02315 
L 46.245941 29.196046 
L 48.739796 30.592811 
L 51.23365 32.218327 
L 53.727505 34.07808 
L 56.22136 36.177917 
L 58.715215 38.523871 
L 61.209069 41.122099 
L 63.702924 43.978671 
L 66.196779 47.099235 
L 68.690634 50.489075 
L 71.184488 54.152511 
L 73.678343 58.092954 
L 76.172198 62.312432 
L 78.666053 66.811392 
L 81.159907 71.588384 
L 83.653762 76.63986 
L 88.641472 87.539762 
L 93.629181 99.431022 
L 98.616891 112.187325 
L 103.6046 125.635746 
L 111.086164 146.625748 
L 121.061583 174.793939 
L 126.049293 188.362388 
L 131.037002 201.26723 
L 136.024712 213.315007 
L 141.012421 224.361759 
L 143.506276 229.479195 
L 146.000131 234.316268 
L 148.493986 238.869523 
L 150.98784 243.138458 
L 153.481695 247.124972 
L 155.97555 250.833492 
L 158.469405 254.270352 
L 160.963259 257.443607 
L 163.457114 260.362813 
L 165.950969 263.038533 
L 168.444824 265.482262 
L 170.938678 267.706157 
L 173.432533 269.722723 
L 175.926388 271.544667 
L 178.420243 273.184748 
L 180.914097 274.655626 
L 183.407952 275.969629 
L 185.901807 277.138899 
L 188.395662 278.175032 
L 193.383371 279.892266 
L 198.371081 281.204441 
L 203.35879 282.185823 
L 208.3465 282.901502 
L 213.334209 283.407823 
L 220.815773 283.877715 
L 228.297338 284.113341 
L 240.766611 284.236118 
L 273.186723 284.211825 
L 283.162142 284.054186 
L 290.643706 283.752817 
L 298.125271 283.177659 
L 303.11298 282.573147 
L 308.10069 281.732193 
L 313.088399 280.594128 
L 318.076109 279.089267 
L 320.569963 278.175032 
L 323.063818 277.138899 
L 325.557673 275.969629 
L 328.051528 274.655626 
L 330.545382 273.184748 
L 333.039237 271.544667 
L 335.533092 269.722723 
L 338.026947 267.706157 
L 340.520801 265.482262 
L 343.014656 263.038533 
L 345.508511 260.362813 
L 348.002366 257.443607 
L 350.49622 254.270352 
L 352.990075 250.833492 
L 355.48393 247.124972 
L 357.977785 243.138458 
L 360.471639 238.869523 
L 362.965494 234.316268 
L 365.459349 229.479195 
L 367.953204 224.361759 
L 372.940913 213.315007 
L 377.928623 201.26723 
L 382.916332 188.362388 
L 387.904042 174.793939 
L 397.879461 146.625748 
L 405.361025 125.635746 
L 410.348734 112.187325 
L 415.336444 99.431022 
L 420.324153 87.539762 
L 425.311863 76.63986 
L 427.805718 71.588384 
L 430.299572 66.811392 
L 432.793427 62.312432 
L 435.287282 58.092954 
L 437.781137 54.152511 
L 440.274991 50.489075 
L 442.768846 47.099235 
L 445.262701 43.978671 
L 447.756556 41.122099 
L 450.25041 38.523871 
L 452.744265 36.177917 
L 455.23812 34.07808 
L 457.731975 32.218327 
L 460.225829 30.592811 
L 462.719684 29.196046 
L 465.213539 28.02315 
L 467.707394 27.069687 
L 470.201248 26.33206 
L 472.695103 25.807302 
L 475.188958 25.493289 
L 477.682812 25.388772 
L 477.682812 25.388772 
" style="fill:none;stroke:#2ca02c;stroke-linecap:square;stroke-width:2.5;"/>
   </g>
   <g id="line2d_28">
    <path clip-path="url(#p47340dcf97)" d="M 31.282813 154.817344 
L 477.682812 154.817344 
L 477.682812 154.817344 
" style="fill:none;stroke:#d62728;stroke-linecap:square;stroke-width:2.5;"/>
   </g>
   <g id="line2d_29">
    <path clip-path="url(#p47340dcf97)" d="M 31.282813 154.817344 
L 477.682812 154.817344 
L 477.682812 154.817344 
" style="fill:none;stroke:#9467bd;stroke-linecap:square;stroke-width:2.5;"/>
   </g>
   <g id="patch_3">
    <path d="M 31.282813 290.717344 
L 31.282813 18.917344 
" style="fill:none;stroke:#000000;stroke-linecap:square;stroke-linejoin:miter;stroke-width:0.8;"/>
   </g>
   <g id="patch_4">
    <path d="M 477.682813 290.717344 
L 477.682813 18.917344 
" style="fill:none;stroke:#000000;stroke-linecap:square;stroke-linejoin:miter;stroke-width:0.8;"/>
   </g>
   <g id="patch_5">
    <path d="M 31.282813 290.717344 
L 477.682812 290.717344 
" style="fill:none;stroke:#000000;stroke-linecap:square;stroke-linejoin:miter;stroke-width:0.8;"/>
   </g>
   <g id="patch_6">
    <path d="M 31.282813 18.917344 
L 477.682812 18.917344 
" style="fill:none;stroke:#000000;stroke-linecap:square;stroke-linejoin:miter;stroke-width:0.8;"/>
   </g>
   <g id="text_14">
    <!-- Analytic Mueller matrix (Schott NG1) -->
    <defs>
     <path d="M 20.015625 26.421875 
L 46.78125 26.421875 
L 33.40625 61.078125 
z
M -0.59375 0 
L -0.59375 5.171875 
L 5.8125 5.171875 
L 31.78125 72.90625 
L 39.984375 72.90625 
L 66.015625 5.171875 
L 73.1875 5.171875 
L 73.1875 0 
L 46.6875 0 
L 46.6875 5.171875 
L 54.78125 5.171875 
L 48.6875 21.1875 
L 18.015625 21.1875 
L 11.921875 5.171875 
L 19.921875 5.171875 
L 19.921875 0 
z
" id="DejaVuSerif-65"/>
     <path d="M 4.109375 0 
L 4.109375 5.171875 
L 12.203125 5.171875 
L 12.203125 46.6875 
L 3.609375 46.6875 
L 3.609375 51.90625 
L 21.1875 51.90625 
L 21.1875 42.671875 
Q 23.6875 47.953125 27.65625 50.640625 
Q 31.640625 53.328125 36.921875 53.328125 
Q 45.515625 53.328125 49.5625 48.390625 
Q 53.609375 43.453125 53.609375 33.015625 
L 53.609375 5.171875 
L 61.625 5.171875 
L 61.625 0 
L 36.8125 0 
L 36.8125 5.171875 
L 44.578125 5.171875 
L 44.578125 30.171875 
Q 44.578125 39.703125 42.234375 43.234375 
Q 39.890625 46.78125 33.984375 46.78125 
Q 27.734375 46.78125 24.453125 42.203125 
Q 21.1875 37.640625 21.1875 28.90625 
L 21.1875 5.171875 
L 29 5.171875 
L 29 0 
z
" id="DejaVuSerif-110"/>
     <path d="M 39.796875 16.3125 
L 39.796875 27.296875 
L 28.21875 27.296875 
Q 21.53125 27.296875 18.25 24.40625 
Q 14.984375 21.53125 14.984375 15.578125 
Q 14.984375 10.15625 18.296875 6.984375 
Q 21.625 3.8125 27.296875 3.8125 
Q 32.90625 3.8125 36.34375 7.28125 
Q 39.796875 10.75 39.796875 16.3125 
z
M 48.78125 32.421875 
L 48.78125 5.171875 
L 56.78125 5.171875 
L 56.78125 0 
L 39.796875 0 
L 39.796875 5.609375 
Q 36.8125 2 32.90625 0.28125 
Q 29 -1.421875 23.78125 -1.421875 
Q 15.140625 -1.421875 10.0625 3.171875 
Q 4.984375 7.765625 4.984375 15.578125 
Q 4.984375 23.640625 10.796875 28.078125 
Q 16.609375 32.515625 27.203125 32.515625 
L 39.796875 32.515625 
L 39.796875 36.078125 
Q 39.796875 42 36.203125 45.234375 
Q 32.625 48.484375 26.125 48.484375 
Q 20.75 48.484375 17.578125 46.046875 
Q 14.40625 43.609375 13.625 38.8125 
L 8.984375 38.8125 
L 8.984375 49.3125 
Q 13.671875 51.3125 18.09375 52.3125 
Q 22.515625 53.328125 26.703125 53.328125 
Q 37.5 53.328125 43.140625 47.96875 
Q 48.78125 42.625 48.78125 32.421875 
z
" id="DejaVuSerif-97"/>
     <path d="M 20.515625 5.171875 
L 29 5.171875 
L 29 0 
L 2.875 0 
L 2.875 5.171875 
L 11.53125 5.171875 
L 11.53125 70.796875 
L 2.875 70.796875 
L 2.875 75.984375 
L 20.515625 75.984375 
z
" id="DejaVuSerif-108"/>
     <path d="M 21.578125 -9.515625 
L 25 -0.875 
L 5.609375 46.6875 
L -0.296875 46.6875 
L -0.296875 51.90625 
L 23.578125 51.90625 
L 23.578125 46.6875 
L 15.28125 46.6875 
L 29.890625 10.984375 
L 44.484375 46.6875 
L 36.71875 46.6875 
L 36.71875 51.90625 
L 56.203125 51.90625 
L 56.203125 46.6875 
L 50.390625 46.6875 
L 26.609375 -11.71875 
Q 24.171875 -17.78125 21.1875 -20 
Q 18.21875 -22.21875 12.796875 -22.21875 
Q 10.5 -22.21875 8.078125 -21.828125 
Q 5.671875 -21.4375 3.21875 -20.703125 
L 3.21875 -10.796875 
L 7.8125 -10.796875 
Q 8.109375 -14.109375 9.5 -15.546875 
Q 10.890625 -17 13.8125 -17 
Q 16.5 -17 18.140625 -15.5 
Q 19.78125 -14.015625 21.578125 -9.515625 
z
" id="DejaVuSerif-121"/>
     <path d="M 10.796875 46.6875 
L 2.875 46.6875 
L 2.875 51.90625 
L 10.796875 51.90625 
L 10.796875 68.015625 
L 19.828125 68.015625 
L 19.828125 51.90625 
L 36.71875 51.90625 
L 36.71875 46.6875 
L 19.828125 46.6875 
L 19.828125 13.71875 
Q 19.828125 7.125 21.09375 5.265625 
Q 22.359375 3.421875 25.78125 3.421875 
Q 29.296875 3.421875 30.90625 5.484375 
Q 32.515625 7.5625 32.625 12.203125 
L 39.40625 12.203125 
Q 39.015625 5.125 35.546875 1.84375 
Q 32.078125 -1.421875 25 -1.421875 
Q 17.234375 -1.421875 14.015625 2.015625 
Q 10.796875 5.46875 10.796875 13.71875 
z
" id="DejaVuSerif-116"/>
     <path d="M 9.71875 68.015625 
Q 9.71875 70.265625 11.34375 71.921875 
Q 12.984375 73.578125 15.28125 73.578125 
Q 17.53125 73.578125 19.15625 71.921875 
Q 20.796875 70.265625 20.796875 68.015625 
Q 20.796875 65.71875 19.1875 64.109375 
Q 17.578125 62.5 15.28125 62.5 
Q 12.984375 62.5 11.34375 64.109375 
Q 9.71875 65.71875 9.71875 68.015625 
z
M 21.1875 5.171875 
L 29.6875 5.171875 
L 29.6875 0 
L 3.609375 0 
L 3.609375 5.171875 
L 12.203125 5.171875 
L 12.203125 46.6875 
L 3.609375 46.6875 
L 3.609375 51.90625 
L 21.1875 51.90625 
z
" id="DejaVuSerif-105"/>
     <path d="M 51.421875 15.578125 
Q 49.515625 7.28125 44.09375 2.921875 
Q 38.671875 -1.421875 30.078125 -1.421875 
Q 18.75 -1.421875 11.859375 6.078125 
Q 4.984375 13.578125 4.984375 25.984375 
Q 4.984375 38.421875 11.859375 45.875 
Q 18.75 53.328125 30.078125 53.328125 
Q 35.015625 53.328125 39.890625 52.171875 
Q 44.78125 51.03125 49.703125 48.6875 
L 49.703125 35.40625 
L 44.484375 35.40625 
Q 43.453125 42.234375 40.015625 45.359375 
Q 36.578125 48.484375 30.171875 48.484375 
Q 22.90625 48.484375 19.1875 42.84375 
Q 15.484375 37.203125 15.484375 25.984375 
Q 15.484375 14.75 19.171875 9.078125 
Q 22.859375 3.421875 30.171875 3.421875 
Q 35.984375 3.421875 39.453125 6.4375 
Q 42.921875 9.46875 44.1875 15.578125 
z
" id="DejaVuSerif-99"/>
     <path id="DejaVuSerif-32"/>
     <path d="M 5.515625 0 
L 5.515625 5.171875 
L 14.796875 5.171875 
L 14.796875 67.671875 
L 4.984375 67.671875 
L 4.984375 72.90625 
L 26.21875 72.90625 
L 51.8125 21 
L 77.390625 72.90625 
L 97.3125 72.90625 
L 97.3125 67.671875 
L 87.59375 67.671875 
L 87.59375 5.171875 
L 96.921875 5.171875 
L 96.921875 0 
L 68.40625 0 
L 68.40625 5.171875 
L 77.6875 5.171875 
L 77.6875 61.53125 
L 52.6875 10.6875 
L 45.796875 10.6875 
L 20.796875 61.53125 
L 20.796875 5.171875 
L 30.078125 5.171875 
L 30.078125 0 
z
" id="DejaVuSerif-77"/>
     <path d="M 35.40625 51.90625 
L 52.203125 51.90625 
L 52.203125 5.171875 
L 60.6875 5.171875 
L 60.6875 0 
L 43.21875 0 
L 43.21875 9.1875 
Q 40.71875 4 36.765625 1.28125 
Q 32.8125 -1.421875 27.59375 -1.421875 
Q 18.953125 -1.421875 14.875 3.484375 
Q 10.796875 8.40625 10.796875 18.890625 
L 10.796875 46.6875 
L 2.6875 46.6875 
L 2.6875 51.90625 
L 19.828125 51.90625 
L 19.828125 21.6875 
Q 19.828125 12.203125 22.140625 8.6875 
Q 24.46875 5.171875 30.421875 5.171875 
Q 36.671875 5.171875 39.9375 9.765625 
Q 43.21875 14.359375 43.21875 23.09375 
L 43.21875 46.6875 
L 35.40625 46.6875 
z
" id="DejaVuSerif-117"/>
     <path d="M 54.203125 25 
L 15.484375 25 
L 15.484375 24.609375 
Q 15.484375 14.109375 19.4375 8.765625 
Q 23.390625 3.421875 31.109375 3.421875 
Q 37.015625 3.421875 40.796875 6.515625 
Q 44.578125 9.625 46.09375 15.71875 
L 53.328125 15.71875 
Q 51.171875 7.171875 45.375 2.875 
Q 39.59375 -1.421875 30.171875 -1.421875 
Q 18.796875 -1.421875 11.890625 6.078125 
Q 4.984375 13.578125 4.984375 25.984375 
Q 4.984375 38.28125 11.765625 45.796875 
Q 18.5625 53.328125 29.59375 53.328125 
Q 41.359375 53.328125 47.65625 46.0625 
Q 53.953125 38.8125 54.203125 25 
z
M 43.609375 30.171875 
Q 43.3125 39.265625 39.765625 43.875 
Q 36.234375 48.484375 29.59375 48.484375 
Q 23.390625 48.484375 19.828125 43.84375 
Q 16.265625 39.203125 15.484375 30.171875 
z
" id="DejaVuSerif-101"/>
     <path d="M 47.796875 52 
L 47.796875 39.015625 
L 42.625 39.015625 
Q 42.390625 42.875 40.484375 44.78125 
Q 38.578125 46.6875 34.90625 46.6875 
Q 28.265625 46.6875 24.71875 42.09375 
Q 21.1875 37.5 21.1875 28.90625 
L 21.1875 5.171875 
L 31.59375 5.171875 
L 31.59375 0 
L 4.109375 0 
L 4.109375 5.171875 
L 12.203125 5.171875 
L 12.203125 46.78125 
L 3.609375 46.78125 
L 3.609375 51.90625 
L 21.1875 51.90625 
L 21.1875 42.671875 
Q 23.828125 48.09375 27.96875 50.703125 
Q 32.125 53.328125 38.09375 53.328125 
Q 40.28125 53.328125 42.703125 52.984375 
Q 45.125 52.640625 47.796875 52 
z
" id="DejaVuSerif-114"/>
     <path d="M 51.8125 41.796875 
Q 54.390625 47.515625 58.421875 50.421875 
Q 62.453125 53.328125 67.828125 53.328125 
Q 75.984375 53.328125 79.984375 48.265625 
Q 83.984375 43.21875 83.984375 33.015625 
L 83.984375 5.171875 
L 92.09375 5.171875 
L 92.09375 0 
L 67.1875 0 
L 67.1875 5.171875 
L 75 5.171875 
L 75 31.984375 
Q 75 39.9375 72.65625 43.3125 
Q 70.3125 46.6875 64.890625 46.6875 
Q 58.890625 46.6875 55.734375 42.140625 
Q 52.59375 37.59375 52.59375 28.90625 
L 52.59375 5.171875 
L 60.40625 5.171875 
L 60.40625 0 
L 35.796875 0 
L 35.796875 5.171875 
L 43.609375 5.171875 
L 43.609375 32.328125 
Q 43.609375 40.09375 41.265625 43.390625 
Q 38.921875 46.6875 33.5 46.6875 
Q 27.484375 46.6875 24.328125 42.140625 
Q 21.1875 37.59375 21.1875 28.90625 
L 21.1875 5.171875 
L 29 5.171875 
L 29 0 
L 4.109375 0 
L 4.109375 5.171875 
L 12.203125 5.171875 
L 12.203125 46.78125 
L 3.609375 46.78125 
L 3.609375 51.90625 
L 21.1875 51.90625 
L 21.1875 42.671875 
Q 23.6875 47.859375 27.53125 50.59375 
Q 31.390625 53.328125 36.28125 53.328125 
Q 42.328125 53.328125 46.375 50.3125 
Q 50.4375 47.3125 51.8125 41.796875 
z
" id="DejaVuSerif-109"/>
     <path d="M 29.109375 31.6875 
L 39.984375 46.6875 
L 33.015625 46.6875 
L 33.015625 51.90625 
L 52.984375 51.90625 
L 52.984375 46.6875 
L 46.09375 46.6875 
L 32.171875 27.484375 
L 48.390625 5.171875 
L 55.171875 5.171875 
L 55.171875 0 
L 31.203125 0 
L 31.203125 5.171875 
L 37.796875 5.171875 
L 26.515625 20.703125 
L 15.1875 5.171875 
L 21.921875 5.171875 
L 21.921875 0 
L 2.203125 0 
L 2.203125 5.171875 
L 9.078125 5.171875 
L 23.390625 24.90625 
L 7.625 46.6875 
L 1.21875 46.6875 
L 1.21875 51.90625 
L 24.421875 51.90625 
L 24.421875 46.6875 
L 18.21875 46.6875 
z
" id="DejaVuSerif-120"/>
     <path d="M 31.890625 -15.578125 
Q 20.015625 -10.25 13.953125 1.296875 
Q 7.90625 12.84375 7.90625 30.171875 
Q 7.90625 47.5625 13.953125 59.109375 
Q 20.015625 70.65625 31.890625 75.984375 
L 31.890625 71.1875 
Q 24.359375 66.015625 21.09375 56.609375 
Q 17.828125 47.21875 17.828125 30.171875 
Q 17.828125 13.1875 21.09375 3.78125 
Q 24.359375 -5.609375 31.890625 -10.796875 
z
" id="DejaVuSerif-40"/>
     <path d="M 9.28125 3.515625 
L 9.28125 20.125 
L 14.890625 20.0625 
Q 15.140625 11.765625 19.703125 7.78125 
Q 24.265625 3.8125 33.59375 3.8125 
Q 42.28125 3.8125 46.84375 7.25 
Q 51.421875 10.6875 51.421875 17.28125 
Q 51.421875 22.5625 48.65625 25.390625 
Q 45.90625 28.21875 37.015625 30.90625 
L 27.390625 33.796875 
Q 16.9375 36.96875 12.671875 41.703125 
Q 8.40625 46.4375 8.40625 54.6875 
Q 8.40625 63.96875 14.984375 69.09375 
Q 21.578125 74.21875 33.5 74.21875 
Q 38.578125 74.21875 44.625 73.109375 
Q 50.6875 72.015625 57.515625 69.921875 
L 57.515625 54.390625 
L 52 54.390625 
Q 51.171875 62.109375 46.84375 65.546875 
Q 42.53125 69 33.6875 69 
Q 25.984375 69 21.953125 65.84375 
Q 17.921875 62.703125 17.921875 56.6875 
Q 17.921875 51.46875 20.9375 48.484375 
Q 23.96875 45.515625 33.796875 42.578125 
L 42.828125 39.890625 
Q 52.734375 36.921875 56.953125 32.296875 
Q 61.1875 27.6875 61.1875 19.921875 
Q 61.1875 9.328125 54.390625 3.953125 
Q 47.609375 -1.421875 34.1875 -1.421875 
Q 28.171875 -1.421875 21.9375 -0.1875 
Q 15.71875 1.03125 9.28125 3.515625 
z
" id="DejaVuSerif-83"/>
     <path d="M 4.109375 0 
L 4.109375 5.171875 
L 12.203125 5.171875 
L 12.203125 70.796875 
L 3.609375 70.796875 
L 3.609375 75.984375 
L 21.1875 75.984375 
L 21.1875 42.671875 
Q 23.6875 47.953125 27.65625 50.640625 
Q 31.640625 53.328125 36.921875 53.328125 
Q 45.515625 53.328125 49.5625 48.390625 
Q 53.609375 43.453125 53.609375 33.015625 
L 53.609375 5.171875 
L 61.625 5.171875 
L 61.625 0 
L 36.8125 0 
L 36.8125 5.171875 
L 44.578125 5.171875 
L 44.578125 30.171875 
Q 44.578125 39.703125 42.25 43.1875 
Q 39.9375 46.6875 33.984375 46.6875 
Q 27.734375 46.6875 24.453125 42.140625 
Q 21.1875 37.59375 21.1875 28.90625 
L 21.1875 5.171875 
L 29 5.171875 
L 29 0 
z
" id="DejaVuSerif-104"/>
     <path d="M 30.078125 3.421875 
Q 37.3125 3.421875 40.984375 9.125 
Q 44.671875 14.84375 44.671875 25.984375 
Q 44.671875 37.109375 40.984375 42.796875 
Q 37.3125 48.484375 30.078125 48.484375 
Q 22.859375 48.484375 19.171875 42.796875 
Q 15.484375 37.109375 15.484375 25.984375 
Q 15.484375 14.84375 19.1875 9.125 
Q 22.90625 3.421875 30.078125 3.421875 
z
M 30.078125 -1.421875 
Q 18.75 -1.421875 11.859375 6.078125 
Q 4.984375 13.578125 4.984375 25.984375 
Q 4.984375 38.375 11.84375 45.84375 
Q 18.703125 53.328125 30.078125 53.328125 
Q 41.453125 53.328125 48.3125 45.84375 
Q 55.171875 38.375 55.171875 25.984375 
Q 55.171875 13.578125 48.3125 6.078125 
Q 41.453125 -1.421875 30.078125 -1.421875 
z
" id="DejaVuSerif-111"/>
     <path d="M 4.890625 0 
L 4.890625 5.171875 
L 14.703125 5.171875 
L 14.703125 67.671875 
L 4.890625 67.671875 
L 4.890625 72.90625 
L 23.578125 72.90625 
L 67.28125 15.375 
L 67.28125 67.671875 
L 57.515625 67.671875 
L 57.515625 72.90625 
L 83.109375 72.90625 
L 83.109375 67.671875 
L 73.296875 67.671875 
L 73.296875 -1.421875 
L 67.390625 -1.421875 
L 20.703125 60.015625 
L 20.703125 5.171875 
L 30.515625 5.171875 
L 30.515625 0 
z
" id="DejaVuSerif-78"/>
     <path d="M 64.015625 51.125 
Q 62.3125 60.25 56.890625 64.625 
Q 51.46875 69 41.796875 69 
Q 29.203125 69 23 60.890625 
Q 16.796875 52.78125 16.796875 36.375 
Q 16.796875 20.3125 23.1875 12.0625 
Q 29.59375 3.8125 42 3.8125 
Q 47.515625 3.8125 52.53125 5.171875 
Q 57.5625 6.546875 62.109375 9.28125 
L 62.109375 28.078125 
L 48.390625 28.078125 
L 48.390625 33.296875 
L 72.015625 33.296875 
L 72.015625 6.109375 
Q 65.53125 2.34375 58.03125 0.453125 
Q 50.53125 -1.421875 42 -1.421875 
Q 25.484375 -1.421875 15.546875 8.90625 
Q 5.609375 19.234375 5.609375 36.375 
Q 5.609375 53.65625 15.5625 63.9375 
Q 25.53125 74.21875 42.390625 74.21875 
Q 48.640625 74.21875 55.296875 72.78125 
Q 61.96875 71.34375 69.484375 68.40625 
L 69.484375 51.125 
z
" id="DejaVuSerif-71"/>
     <path d="M 7.078125 -15.578125 
L 7.078125 -10.796875 
Q 14.59375 -5.609375 17.890625 3.78125 
Q 21.1875 13.1875 21.1875 30.171875 
Q 21.1875 47.21875 17.890625 56.609375 
Q 14.59375 66.015625 7.078125 71.1875 
L 7.078125 75.984375 
Q 19 70.65625 25.046875 59.109375 
Q 31.109375 47.5625 31.109375 30.171875 
Q 31.109375 12.84375 25.046875 1.296875 
Q 19 -10.25 7.078125 -15.578125 
z
" id="DejaVuSerif-41"/>
    </defs>
    <g transform="translate(92.44625 12.917344)scale(0.17 -0.17)">
     <use xlink:href="#DejaVuSerif-65"/>
     <use x="72.216797" xlink:href="#DejaVuSerif-110"/>
     <use x="136.621094" xlink:href="#DejaVuSerif-97"/>
     <use x="196.240234" xlink:href="#DejaVuSerif-108"/>
     <use x="228.222656" xlink:href="#DejaVuSerif-121"/>
     <use x="284.716797" xlink:href="#DejaVuSerif-116"/>
     <use x="324.902344" xlink:href="#DejaVuSerif-105"/>
     <use x="356.884766" xlink:href="#DejaVuSerif-99"/>
     <use x="412.890625" xlink:href="#DejaVuSerif-32"/>
     <use x="444.677734" xlink:href="#DejaVuSerif-77"/>
     <use x="547.070312" xlink:href="#DejaVuSerif-117"/>
     <use x="611.474609" xlink:href="#DejaVuSerif-101"/>
     <use x="670.654297" xlink:href="#DejaVuSerif-108"/>
     <use x="702.636719" xlink:href="#DejaVuSerif-108"/>
     <use x="734.619141" xlink:href="#DejaVuSerif-101"/>
     <use x="793.798828" xlink:href="#DejaVuSerif-114"/>
     <use x="841.601562" xlink:href="#DejaVuSerif-32"/>
     <use x="873.388672" xlink:href="#DejaVuSerif-109"/>
     <use x="968.212891" xlink:href="#DejaVuSerif-97"/>
     <use x="1027.832031" xlink:href="#DejaVuSerif-116"/>
     <use x="1068.017578" xlink:href="#DejaVuSerif-114"/>
     <use x="1115.820312" xlink:href="#DejaVuSerif-105"/>
     <use x="1147.802734" xlink:href="#DejaVuSerif-120"/>
     <use x="1204.199219" xlink:href="#DejaVuSerif-32"/>
     <use x="1235.986328" xlink:href="#DejaVuSerif-40"/>
     <use x="1275" xlink:href="#DejaVuSerif-83"/>
     <use x="1343.505859" xlink:href="#DejaVuSerif-99"/>
     <use x="1399.511719" xlink:href="#DejaVuSerif-104"/>
     <use x="1463.916016" xlink:href="#DejaVuSerif-111"/>
     <use x="1524.121094" xlink:href="#DejaVuSerif-116"/>
     <use x="1564.306641" xlink:href="#DejaVuSerif-116"/>
     <use x="1604.492188" xlink:href="#DejaVuSerif-32"/>
     <use x="1636.279297" xlink:href="#DejaVuSerif-78"/>
     <use x="1723.779297" xlink:href="#DejaVuSerif-71"/>
     <use x="1803.662109" xlink:href="#DejaVuSerif-49"/>
     <use x="1867.285156" xlink:href="#DejaVuSerif-41"/>
    </g>
   </g>
   <g id="legend_1">
    <g id="patch_7">
     <path d="M 41.082813 283.717344 
L 104.380313 283.717344 
Q 107.180313 283.717344 107.180313 280.917344 
L 107.180313 179.570469 
Q 107.180313 176.770469 104.380313 176.770469 
L 41.082813 176.770469 
Q 38.282813 176.770469 38.282813 179.570469 
L 38.282813 280.917344 
Q 38.282813 283.717344 41.082813 283.717344 
z
" style="fill:#ffffff;opacity:0.8;stroke:#cccccc;stroke-linejoin:miter;"/>
    </g>
    <g id="line2d_30">
     <path d="M 43.882813 188.108281 
L 71.882813 188.108281 
" style="fill:none;stroke:#1f77b4;stroke-linecap:square;stroke-width:2.5;"/>
    </g>
    <g id="line2d_31"/>
    <g id="text_15">
     <!-- A -->
     <g transform="translate(83.082813 193.008281)scale(0.14 -0.14)">
      <use xlink:href="#DejaVuSerif-65"/>
     </g>
    </g>
    <g id="line2d_32">
     <path d="M 43.882813 208.657656 
L 71.882813 208.657656 
" style="fill:none;stroke:#ff7f0e;stroke-linecap:square;stroke-width:2.5;"/>
    </g>
    <g id="line2d_33"/>
    <g id="text_16">
     <!-- B -->
     <defs>
      <path d="M 24.703125 5.171875 
L 39.3125 5.171875 
Q 48.09375 5.171875 52.140625 8.984375 
Q 56.203125 12.796875 56.203125 21.09375 
Q 56.203125 29.34375 52.171875 33.125 
Q 48.140625 36.921875 39.3125 36.921875 
L 24.703125 36.921875 
z
M 24.703125 42.09375 
L 37.109375 42.09375 
Q 45.125 42.09375 48.796875 45.171875 
Q 52.484375 48.25 52.484375 54.890625 
Q 52.484375 61.578125 48.796875 64.625 
Q 45.125 67.671875 37.109375 67.671875 
L 24.703125 67.671875 
z
M 5.515625 0 
L 5.515625 5.171875 
L 14.796875 5.171875 
L 14.796875 67.671875 
L 5.515625 67.671875 
L 5.515625 72.90625 
L 41.5 72.90625 
Q 52.546875 72.90625 58.125 68.390625 
Q 63.71875 63.875 63.71875 54.890625 
Q 63.71875 48.390625 59.828125 44.53125 
Q 55.953125 40.671875 48.484375 39.796875 
Q 57.765625 38.625 62.578125 33.859375 
Q 67.390625 29.109375 67.390625 21.09375 
Q 67.390625 10.25 60.546875 5.125 
Q 53.71875 0 39.203125 0 
z
" id="DejaVuSerif-66"/>
     </defs>
     <g transform="translate(83.082813 213.557656)scale(0.14 -0.14)">
      <use xlink:href="#DejaVuSerif-66"/>
     </g>
    </g>
    <g id="line2d_34">
     <path d="M 43.882813 229.207031 
L 71.882813 229.207031 
" style="fill:none;stroke:#2ca02c;stroke-linecap:square;stroke-width:2.5;"/>
    </g>
    <g id="line2d_35"/>
    <g id="text_17">
     <!-- C -->
     <defs>
      <path d="M 70.515625 19.28125 
Q 67.28125 9.078125 59.6875 3.828125 
Q 52.09375 -1.421875 40.484375 -1.421875 
Q 33.34375 -1.421875 27.234375 1.015625 
Q 21.140625 3.46875 16.40625 8.203125 
Q 10.9375 13.671875 8.265625 20.625 
Q 5.609375 27.59375 5.609375 36.375 
Q 5.609375 53.375 15.421875 63.796875 
Q 25.25 74.21875 41.3125 74.21875 
Q 47.265625 74.21875 54 72.65625 
Q 60.75 71.09375 68.5 67.921875 
L 68.5 51.125 
L 62.984375 51.125 
Q 61.1875 60.296875 55.734375 64.640625 
Q 50.296875 69 40.484375 69 
Q 28.8125 69 22.796875 60.71875 
Q 16.796875 52.4375 16.796875 36.375 
Q 16.796875 20.359375 22.796875 12.078125 
Q 28.8125 3.8125 40.484375 3.8125 
Q 48.640625 3.8125 53.90625 7.6875 
Q 59.1875 11.578125 61.53125 19.28125 
z
" id="DejaVuSerif-67"/>
     </defs>
     <g transform="translate(83.082813 234.107031)scale(0.14 -0.14)">
      <use xlink:href="#DejaVuSerif-67"/>
     </g>
    </g>
    <g id="line2d_36">
     <path d="M 43.882813 249.756406 
L 71.882813 249.756406 
" style="fill:none;stroke:#d62728;stroke-linecap:square;stroke-width:2.5;"/>
    </g>
    <g id="line2d_37"/>
    <g id="text_18">
     <!-- S1 -->
     <g transform="translate(83.082813 254.656406)scale(0.14 -0.14)">
      <use xlink:href="#DejaVuSerif-83"/>
      <use x="68.505859" xlink:href="#DejaVuSerif-49"/>
     </g>
    </g>
    <g id="line2d_38">
     <path d="M 43.882813 270.305781 
L 71.882813 270.305781 
" style="fill:none;stroke:#9467bd;stroke-linecap:square;stroke-width:2.5;"/>
    </g>
    <g id="line2d_39"/>
    <g id="text_19">
     <!-- S2 -->
     <defs>
      <path d="M 12.796875 55.515625 
L 7.328125 55.515625 
L 7.328125 68.5 
Q 12.546875 71.296875 17.84375 72.75 
Q 23.140625 74.21875 28.21875 74.21875 
Q 39.59375 74.21875 46.1875 68.703125 
Q 52.78125 63.1875 52.78125 53.71875 
Q 52.78125 43.015625 37.84375 28.125 
Q 36.671875 27 36.078125 26.421875 
L 17.671875 8.015625 
L 48.09375 8.015625 
L 48.09375 17 
L 53.8125 17 
L 53.8125 0 
L 6.78125 0 
L 6.78125 5.328125 
L 28.90625 27.390625 
Q 36.234375 34.71875 39.359375 40.84375 
Q 42.484375 46.96875 42.484375 53.71875 
Q 42.484375 61.078125 38.640625 65.234375 
Q 34.8125 69.390625 28.078125 69.390625 
Q 21.09375 69.390625 17.28125 65.921875 
Q 13.484375 62.453125 12.796875 55.515625 
z
" id="DejaVuSerif-50"/>
     </defs>
     <g transform="translate(83.082813 275.205781)scale(0.14 -0.14)">
      <use xlink:href="#DejaVuSerif-83"/>
      <use x="68.505859" xlink:href="#DejaVuSerif-50"/>
     </g>
    </g>
   </g>
  </g>
 </g>
 <defs>
  <clipPath id="p47340dcf97">
   <rect height="271.8" width="446.4" x="31.282813" y="18.917344"/>
  </clipPath>
 </defs>
</svg>
