<?xml version="1.0" encoding="utf-8" standalone="no"?>
<!DOCTYPE svg PUBLIC "-//W3C//DTD SVG 1.1//EN"
  "http://www.w3.org/Graphics/SVG/1.1/DTD/svg11.dtd">
<!-- Created with matplotlib (https://matplotlib.org/) -->
<svg height="328.192187pt" version="1.1" viewBox="0 0 486.545312 328.192187" width="486.545312pt" xmlns="http://www.w3.org/2000/svg" xmlns:xlink="http://www.w3.org/1999/xlink">
 <defs>
  <style type="text/css">
*{stroke-linecap:butt;stroke-linejoin:round;}
  </style>
 </defs>
 <g id="figure_1">
  <g id="patch_1">
   <path d="M 0 328.192187 
L 486.545312 328.192187 
L 486.545312 0 
L 0 0 
z
" style="fill:#ffffff;"/>
  </g>
  <g id="axes_1">
   <g id="patch_2">
    <path d="M 31.282813 292.996875 
L 477.682813 292.996875 
L 477.682813 21.196875 
L 31.282813 21.196875 
z
" style="fill:#ffffff;"/>
   </g>
   <g id="matplotlib.axis_1">
    <g id="xtick_1">
     <g id="line2d_1">
      <path clip-path="url(#p8b2a6be010)" d="M 31.282813 292.996875 
L 31.282813 21.196875 
" style="fill:none;stroke:#b0b0b0;stroke-linecap:square;stroke-width:0.8;"/>
     </g>
     <g id="line2d_2">
      <defs>
       <path d="M 0 0 
L 0 3.5 
" id="m80822eab98" style="stroke:#000000;stroke-width:0.8;"/>
      </defs>
      <g>
       <use style="stroke:#000000;stroke-width:0.8;" x="31.282813" xlink:href="#m80822eab98" y="292.996875"/>
      </g>
     </g>
     <g id="text_1">
      <!-- -90˚ -->
      <defs>
       <path d="M 4.390625 30.609375 
L 29.390625 30.609375 
L 29.390625 23 
L 4.390625 23 
z
" id="DejaVuSerif-45"/>
       <path d="M 46.78125 32.671875 
Q 43.5 29 39.25 27.1875 
Q 35.015625 25.390625 29.6875 25.390625 
Q 18.84375 25.390625 12.5625 31.9375 
Q 6.296875 38.484375 6.296875 49.8125 
Q 6.296875 60.890625 13.109375 67.546875 
Q 19.921875 74.21875 31.296875 74.21875 
Q 43.65625 74.21875 50.265625 65.015625 
Q 56.890625 55.8125 56.890625 38.71875 
Q 56.890625 19.578125 49.015625 9.078125 
Q 41.15625 -1.421875 26.90625 -1.421875 
Q 23.046875 -1.421875 18.796875 -0.6875 
Q 14.546875 0.046875 10.109375 1.515625 
L 10.109375 13.625 
L 15.578125 13.625 
Q 16.21875 8.6875 19.390625 6.046875 
Q 22.5625 3.421875 27.875 3.421875 
Q 37.359375 3.421875 41.984375 10.5625 
Q 46.625 17.71875 46.78125 32.671875 
z
M 30.90625 69.390625 
Q 23.96875 69.390625 20.28125 64.328125 
Q 16.609375 59.28125 16.609375 49.8125 
Q 16.609375 40.328125 20.28125 35.25 
Q 23.96875 30.171875 30.90625 30.171875 
Q 37.84375 30.171875 41.53125 35.078125 
Q 45.21875 39.984375 45.21875 49.21875 
Q 45.21875 58.9375 41.5 64.15625 
Q 37.796875 69.390625 30.90625 69.390625 
z
" id="DejaVuSerif-57"/>
       <path d="M 31.78125 3.421875 
Q 39.265625 3.421875 42.96875 11.625 
Q 46.6875 19.828125 46.6875 36.375 
Q 46.6875 52.984375 42.96875 61.1875 
Q 39.265625 69.390625 31.78125 69.390625 
Q 24.3125 69.390625 20.59375 61.1875 
Q 16.890625 52.984375 16.890625 36.375 
Q 16.890625 19.828125 20.59375 11.625 
Q 24.3125 3.421875 31.78125 3.421875 
z
M 31.78125 -1.421875 
Q 19.921875 -1.421875 13.25 8.53125 
Q 6.59375 18.5 6.59375 36.375 
Q 6.59375 54.296875 13.25 64.25 
Q 19.921875 74.21875 31.78125 74.21875 
Q 43.703125 74.21875 50.34375 64.25 
Q 56.984375 54.296875 56.984375 36.375 
Q 56.984375 18.5 50.34375 8.53125 
Q 43.703125 -1.421875 31.78125 -1.421875 
z
" id="DejaVuSerif-48"/>
       <path d="M 38.375 74.421875 
Q 38.375 68.796875 34.484375 64.890625 
Q 30.609375 60.984375 25 60.984375 
Q 19.390625 60.984375 15.5 64.890625 
Q 11.625 68.796875 11.625 74.421875 
Q 11.625 80.03125 15.5 83.90625 
Q 19.390625 87.796875 25 87.796875 
Q 30.609375 87.796875 34.484375 83.90625 
Q 38.375 80.03125 38.375 74.421875 
z
M 32.421875 74.421875 
Q 32.421875 77.484375 30.265625 79.625 
Q 28.125 81.78125 25 81.78125 
Q 21.828125 81.78125 19.703125 79.65625 
Q 17.578125 77.546875 17.578125 74.421875 
Q 17.578125 71.234375 19.703125 69.109375 
Q 21.828125 67 25 67 
Q 28.125 67 30.265625 69.140625 
Q 32.421875 71.296875 32.421875 74.421875 
z
" id="DejaVuSerif-730"/>
      </defs>
      <g transform="translate(20.730469 307.595312)scale(0.1 -0.1)">
       <use xlink:href="#DejaVuSerif-45"/>
       <use x="33.789062" xlink:href="#DejaVuSerif-57"/>
       <use x="97.412109" xlink:href="#DejaVuSerif-48"/>
       <use x="161.035156" xlink:href="#DejaVuSerif-730"/>
      </g>
     </g>
    </g>
    <g id="xtick_2">
     <g id="line2d_3">
      <path clip-path="url(#p8b2a6be010)" d="M 105.682812 292.996875 
L 105.682812 21.196875 
" style="fill:none;stroke:#b0b0b0;stroke-linecap:square;stroke-width:0.8;"/>
     </g>
     <g id="line2d_4">
      <g>
       <use style="stroke:#000000;stroke-width:0.8;" x="105.682812" xlink:href="#m80822eab98" y="292.996875"/>
      </g>
     </g>
     <g id="text_2">
      <!-- -60˚ -->
      <defs>
       <path d="M 32.71875 3.421875 
Q 39.59375 3.421875 43.296875 8.46875 
Q 47.015625 13.53125 47.015625 23 
Q 47.015625 32.46875 43.296875 37.515625 
Q 39.59375 42.578125 32.71875 42.578125 
Q 25.734375 42.578125 22.0625 37.6875 
Q 18.40625 32.8125 18.40625 23.578125 
Q 18.40625 13.875 22.109375 8.640625 
Q 25.828125 3.421875 32.71875 3.421875 
z
M 16.796875 40.140625 
Q 20.125 43.796875 24.3125 45.59375 
Q 28.515625 47.40625 33.796875 47.40625 
Q 44.671875 47.40625 51 40.859375 
Q 57.328125 34.328125 57.328125 23 
Q 57.328125 11.921875 50.515625 5.25 
Q 43.703125 -1.421875 32.328125 -1.421875 
Q 19.96875 -1.421875 13.328125 7.78125 
Q 6.6875 17 6.6875 34.078125 
Q 6.6875 53.21875 14.546875 63.71875 
Q 22.40625 74.21875 36.71875 74.21875 
Q 40.578125 74.21875 44.828125 73.484375 
Q 49.078125 72.75 53.515625 71.296875 
L 53.515625 59.28125 
L 48 59.28125 
Q 47.40625 64.203125 44.234375 66.796875 
Q 41.0625 69.390625 35.6875 69.390625 
Q 26.21875 69.390625 21.578125 62.203125 
Q 16.9375 55.03125 16.796875 40.140625 
z
" id="DejaVuSerif-54"/>
      </defs>
      <g transform="translate(95.130469 307.595312)scale(0.1 -0.1)">
       <use xlink:href="#DejaVuSerif-45"/>
       <use x="33.789062" xlink:href="#DejaVuSerif-54"/>
       <use x="97.412109" xlink:href="#DejaVuSerif-48"/>
       <use x="161.035156" xlink:href="#DejaVuSerif-730"/>
      </g>
     </g>
    </g>
    <g id="xtick_3">
     <g id="line2d_5">
      <path clip-path="url(#p8b2a6be010)" d="M 180.082812 292.996875 
L 180.082812 21.196875 
" style="fill:none;stroke:#b0b0b0;stroke-linecap:square;stroke-width:0.8;"/>
     </g>
     <g id="line2d_6">
      <g>
       <use style="stroke:#000000;stroke-width:0.8;" x="180.082812" xlink:href="#m80822eab98" y="292.996875"/>
      </g>
     </g>
     <g id="text_3">
      <!-- -30˚ -->
      <defs>
       <path d="M 9.71875 69.828125 
Q 15.4375 71.96875 20.671875 73.09375 
Q 25.921875 74.21875 30.515625 74.21875 
Q 41.21875 74.21875 47.21875 69.59375 
Q 53.21875 64.984375 53.21875 56.78125 
Q 53.21875 50.203125 49.0625 45.78125 
Q 44.921875 41.359375 37.3125 39.796875 
Q 46.296875 38.53125 51.25 33.28125 
Q 56.203125 28.03125 56.203125 19.671875 
Q 56.203125 9.46875 49.34375 4.015625 
Q 42.484375 -1.421875 29.59375 -1.421875 
Q 23.875 -1.421875 18.421875 -0.1875 
Q 12.984375 1.03125 7.625 3.515625 
L 7.625 17.671875 
L 13.09375 17.671875 
Q 13.578125 10.640625 17.828125 7.03125 
Q 22.078125 3.421875 29.78125 3.421875 
Q 37.25 3.421875 41.578125 7.734375 
Q 45.90625 12.0625 45.90625 19.578125 
Q 45.90625 28.171875 41.453125 32.59375 
Q 37.015625 37.015625 28.421875 37.015625 
L 23.78125 37.015625 
L 23.78125 42 
L 26.21875 42 
Q 34.765625 42 39.03125 45.53125 
Q 43.3125 49.078125 43.3125 56.203125 
Q 43.3125 62.59375 39.796875 65.984375 
Q 36.28125 69.390625 29.6875 69.390625 
Q 23.09375 69.390625 19.453125 66.265625 
Q 15.828125 63.140625 15.1875 56.984375 
L 9.71875 56.984375 
z
" id="DejaVuSerif-51"/>
      </defs>
      <g transform="translate(169.530469 307.595312)scale(0.1 -0.1)">
       <use xlink:href="#DejaVuSerif-45"/>
       <use x="33.789062" xlink:href="#DejaVuSerif-51"/>
       <use x="97.412109" xlink:href="#DejaVuSerif-48"/>
       <use x="161.035156" xlink:href="#DejaVuSerif-730"/>
      </g>
     </g>
    </g>
    <g id="xtick_4">
     <g id="line2d_7">
      <path clip-path="url(#p8b2a6be010)" d="M 254.482812 292.996875 
L 254.482812 21.196875 
" style="fill:none;stroke:#b0b0b0;stroke-linecap:square;stroke-width:0.8;"/>
     </g>
     <g id="line2d_8">
      <g>
       <use style="stroke:#000000;stroke-width:0.8;" x="254.482812" xlink:href="#m80822eab98" y="292.996875"/>
      </g>
     </g>
     <g id="text_4">
      <!-- 0˚ -->
      <g transform="translate(248.801562 307.595312)scale(0.1 -0.1)">
       <use xlink:href="#DejaVuSerif-48"/>
       <use x="63.623047" xlink:href="#DejaVuSerif-730"/>
      </g>
     </g>
    </g>
    <g id="xtick_5">
     <g id="line2d_9">
      <path clip-path="url(#p8b2a6be010)" d="M 328.882812 292.996875 
L 328.882812 21.196875 
" style="fill:none;stroke:#b0b0b0;stroke-linecap:square;stroke-width:0.8;"/>
     </g>
     <g id="line2d_10">
      <g>
       <use style="stroke:#000000;stroke-width:0.8;" x="328.882812" xlink:href="#m80822eab98" y="292.996875"/>
      </g>
     </g>
     <g id="text_5">
      <!-- 30˚ -->
      <g transform="translate(320.020312 307.595312)scale(0.1 -0.1)">
       <use xlink:href="#DejaVuSerif-51"/>
       <use x="63.623047" xlink:href="#DejaVuSerif-48"/>
       <use x="127.246094" xlink:href="#DejaVuSerif-730"/>
      </g>
     </g>
    </g>
    <g id="xtick_6">
     <g id="line2d_11">
      <path clip-path="url(#p8b2a6be010)" d="M 403.282812 292.996875 
L 403.282812 21.196875 
" style="fill:none;stroke:#b0b0b0;stroke-linecap:square;stroke-width:0.8;"/>
     </g>
     <g id="line2d_12">
      <g>
       <use style="stroke:#000000;stroke-width:0.8;" x="403.282812" xlink:href="#m80822eab98" y="292.996875"/>
      </g>
     </g>
     <g id="text_6">
      <!-- 60˚ -->
      <g transform="translate(394.420312 307.595312)scale(0.1 -0.1)">
       <use xlink:href="#DejaVuSerif-54"/>
       <use x="63.623047" xlink:href="#DejaVuSerif-48"/>
       <use x="127.246094" xlink:href="#DejaVuSerif-730"/>
      </g>
     </g>
    </g>
    <g id="xtick_7">
     <g id="line2d_13">
      <path clip-path="url(#p8b2a6be010)" d="M 477.682812 292.996875 
L 477.682812 21.196875 
" style="fill:none;stroke:#b0b0b0;stroke-linecap:square;stroke-width:0.8;"/>
     </g>
     <g id="line2d_14">
      <g>
       <use style="stroke:#000000;stroke-width:0.8;" x="477.682812" xlink:href="#m80822eab98" y="292.996875"/>
      </g>
     </g>
     <g id="text_7">
      <!-- 90˚ -->
      <g transform="translate(468.820312 307.595312)scale(0.1 -0.1)">
       <use xlink:href="#DejaVuSerif-57"/>
       <use x="63.623047" xlink:href="#DejaVuSerif-48"/>
       <use x="127.246094" xlink:href="#DejaVuSerif-730"/>
      </g>
     </g>
    </g>
    <g id="text_8">
     <!-- $\theta_i$ -->
     <defs>
      <path d="M 45.125 40.625 
Q 47.796875 56.296875 46.046875 64.265625 
Q 44.09375 73.09375 36.859375 73.09375 
Q 29.6875 73.09375 24.265625 64.265625 
Q 19.4375 56.296875 16.015625 40.625 
z
M 44.09375 35.40625 
L 14.984375 35.40625 
Q 12.359375 19.828125 14.109375 11.859375 
Q 16.109375 2.984375 23.25 2.984375 
Q 30.421875 2.984375 35.84375 11.859375 
Q 40.671875 19.828125 44.09375 35.40625 
z
M 37.640625 77.046875 
Q 49.03125 77.046875 53.8125 66.375 
Q 58.59375 55.71875 55.140625 38.015625 
Q 51.703125 20.3125 42.71875 9.609375 
Q 33.734375 -1.078125 22.40625 -1.078125 
Q 11.140625 -1.078125 6.34375 9.609375 
Q 1.5625 20.3125 5 38.015625 
Q 8.453125 55.71875 17.375 66.375 
Q 26.3125 77.046875 37.640625 77.046875 
z
" id="DejaVuSerif-Italic-952"/>
      <path d="M 15.765625 68.015625 
Q 16.21875 70.265625 18.171875 71.921875 
Q 20.125 73.578125 22.40625 73.578125 
Q 24.65625 73.578125 25.984375 71.921875 
Q 27 70.65625 27 69.09375 
Q 27 68.5625 26.859375 68.015625 
Q 26.421875 65.71875 24.484375 64.109375 
Q 22.5625 62.5 20.265625 62.5 
Q 17.96875 62.5 16.65625 64.109375 
Q 15.671875 65.328125 15.671875 66.890625 
Q 15.671875 67.4375 15.765625 68.015625 
z
M 15.046875 5.171875 
L 23.53125 5.171875 
L 22.5625 0 
L 5.078125 0 
L 14.109375 46.6875 
L 5.515625 46.6875 
L 6.546875 51.90625 
L 24.125 51.90625 
z
" id="DejaVuSerif-Italic-105"/>
     </defs>
     <g transform="translate(248.032813 325.072656)scale(0.15 -0.15)">
      <use transform="translate(0 0.953125)" xlink:href="#DejaVuSerif-Italic-952"/>
      <use transform="translate(60.205078 -14.61875)scale(0.7)" xlink:href="#DejaVuSerif-Italic-105"/>
     </g>
    </g>
   </g>
   <g id="matplotlib.axis_2">
    <g id="ytick_1">
     <g id="line2d_15">
      <path clip-path="url(#p8b2a6be010)" d="M 31.282813 286.525446 
L 477.682813 286.525446 
" style="fill:none;stroke:#b0b0b0;stroke-linecap:square;stroke-width:0.8;"/>
     </g>
     <g id="line2d_16">
      <defs>
       <path d="M 0 0 
L -3.5 0 
" id="m298c211727" style="stroke:#000000;stroke-width:0.8;"/>
      </defs>
      <g>
       <use style="stroke:#000000;stroke-width:0.8;" x="31.282813" xlink:href="#m298c211727" y="286.525446"/>
      </g>
     </g>
     <g id="text_9">
      <!-- −1.0 -->
      <defs>
       <path d="M 10.59375 35.296875 
L 73.1875 35.296875 
L 73.1875 27.390625 
L 10.59375 27.390625 
z
" id="DejaVuSerif-8722"/>
       <path d="M 14.203125 0 
L 14.203125 5.171875 
L 26.90625 5.171875 
L 26.90625 65.828125 
L 12.203125 56.296875 
L 12.203125 62.703125 
L 29.984375 74.21875 
L 36.71875 74.21875 
L 36.71875 5.171875 
L 49.421875 5.171875 
L 49.421875 0 
z
" id="DejaVuSerif-49"/>
       <path d="M 9.421875 5.078125 
Q 9.421875 7.8125 11.28125 9.71875 
Q 13.140625 11.625 15.921875 11.625 
Q 18.609375 11.625 20.5 9.71875 
Q 22.40625 7.8125 22.40625 5.078125 
Q 22.40625 2.390625 20.5 0.484375 
Q 18.609375 -1.421875 15.921875 -1.421875 
Q 13.140625 -1.421875 11.28125 0.453125 
Q 9.421875 2.34375 9.421875 5.078125 
z
" id="DejaVuSerif-46"/>
      </defs>
      <g transform="translate(0 290.324665)scale(0.1 -0.1)">
       <use xlink:href="#DejaVuSerif-8722"/>
       <use x="83.789062" xlink:href="#DejaVuSerif-49"/>
       <use x="147.412109" xlink:href="#DejaVuSerif-46"/>
       <use x="179.199219" xlink:href="#DejaVuSerif-48"/>
      </g>
     </g>
    </g>
    <g id="ytick_2">
     <g id="line2d_17">
      <path clip-path="url(#p8b2a6be010)" d="M 31.282813 221.811161 
L 477.682813 221.811161 
" style="fill:none;stroke:#b0b0b0;stroke-linecap:square;stroke-width:0.8;"/>
     </g>
     <g id="line2d_18">
      <g>
       <use style="stroke:#000000;stroke-width:0.8;" x="31.282813" xlink:href="#m298c211727" y="221.811161"/>
      </g>
     </g>
     <g id="text_10">
      <!-- −0.5 -->
      <defs>
       <path d="M 50.296875 72.90625 
L 50.296875 64.890625 
L 16.890625 64.890625 
L 16.890625 44 
Q 19.4375 45.75 22.828125 46.625 
Q 26.21875 47.515625 30.421875 47.515625 
Q 42.234375 47.515625 49.0625 40.96875 
Q 55.90625 34.421875 55.90625 23.09375 
Q 55.90625 11.53125 49 5.046875 
Q 42.09375 -1.421875 29.59375 -1.421875 
Q 24.5625 -1.421875 19.28125 -0.1875 
Q 14.015625 1.03125 8.5 3.515625 
L 8.5 17.671875 
L 14.015625 17.671875 
Q 14.453125 10.75 18.421875 7.078125 
Q 22.40625 3.421875 29.59375 3.421875 
Q 37.3125 3.421875 41.453125 8.5 
Q 45.609375 13.578125 45.609375 23.09375 
Q 45.609375 32.5625 41.484375 37.609375 
Q 37.359375 42.671875 29.59375 42.671875 
Q 25.203125 42.671875 21.84375 41.109375 
Q 18.5 39.546875 15.921875 36.28125 
L 11.71875 36.28125 
L 11.71875 72.90625 
z
" id="DejaVuSerif-53"/>
      </defs>
      <g transform="translate(0 225.610379)scale(0.1 -0.1)">
       <use xlink:href="#DejaVuSerif-8722"/>
       <use x="83.789062" xlink:href="#DejaVuSerif-48"/>
       <use x="147.412109" xlink:href="#DejaVuSerif-46"/>
       <use x="179.199219" xlink:href="#DejaVuSerif-53"/>
      </g>
     </g>
    </g>
    <g id="ytick_3">
     <g id="line2d_19">
      <path clip-path="url(#p8b2a6be010)" d="M 31.282813 157.096875 
L 477.682813 157.096875 
" style="fill:none;stroke:#b0b0b0;stroke-linecap:square;stroke-width:0.8;"/>
     </g>
     <g id="line2d_20">
      <g>
       <use style="stroke:#000000;stroke-width:0.8;" x="31.282813" xlink:href="#m298c211727" y="157.096875"/>
      </g>
     </g>
     <g id="text_11">
      <!-- 0.0 -->
      <g transform="translate(8.379688 160.896094)scale(0.1 -0.1)">
       <use xlink:href="#DejaVuSerif-48"/>
       <use x="63.623047" xlink:href="#DejaVuSerif-46"/>
       <use x="95.410156" xlink:href="#DejaVuSerif-48"/>
      </g>
     </g>
    </g>
    <g id="ytick_4">
     <g id="line2d_21">
      <path clip-path="url(#p8b2a6be010)" d="M 31.282813 92.382589 
L 477.682813 92.382589 
" style="fill:none;stroke:#b0b0b0;stroke-linecap:square;stroke-width:0.8;"/>
     </g>
     <g id="line2d_22">
      <g>
       <use style="stroke:#000000;stroke-width:0.8;" x="31.282813" xlink:href="#m298c211727" y="92.382589"/>
      </g>
     </g>
     <g id="text_12">
      <!-- 0.5 -->
      <g transform="translate(8.379688 96.181808)scale(0.1 -0.1)">
       <use xlink:href="#DejaVuSerif-48"/>
       <use x="63.623047" xlink:href="#DejaVuSerif-46"/>
       <use x="95.410156" xlink:href="#DejaVuSerif-53"/>
      </g>
     </g>
    </g>
    <g id="ytick_5">
     <g id="line2d_23">
      <path clip-path="url(#p8b2a6be010)" d="M 31.282813 27.668304 
L 477.682813 27.668304 
" style="fill:none;stroke:#b0b0b0;stroke-linecap:square;stroke-width:0.8;"/>
     </g>
     <g id="line2d_24">
      <g>
       <use style="stroke:#000000;stroke-width:0.8;" x="31.282813" xlink:href="#m298c211727" y="27.668304"/>
      </g>
     </g>
     <g id="text_13">
      <!-- 1.0 -->
      <g transform="translate(8.379688 31.467522)scale(0.1 -0.1)">
       <use xlink:href="#DejaVuSerif-49"/>
       <use x="63.623047" xlink:href="#DejaVuSerif-46"/>
       <use x="95.410156" xlink:href="#DejaVuSerif-48"/>
      </g>
     </g>
    </g>
   </g>
   <g id="line2d_25">
    <path clip-path="url(#p8b2a6be010)" d="M 31.282813 157.096875 
L 42.912472 157.096875 
L 43.807061 27.668304 
L 241.511269 27.668304 
L 242.405859 157.096875 
L 266.559766 157.096875 
L 267.454356 27.668304 
L 465.158564 27.668304 
L 466.053153 157.096875 
L 477.682812 157.096875 
L 477.682812 157.096875 
" style="fill:none;stroke:#1f77b4;stroke-linecap:square;stroke-width:2.5;"/>
   </g>
   <g id="line2d_26">
    <path clip-path="url(#p8b2a6be010)" d="M 31.282813 157.096875 
L 42.912472 157.096875 
L 43.807061 150.16046 
L 45.596239 151.076096 
L 46.490829 151.078408 
L 48.280007 149.369466 
L 49.174596 148.857315 
L 50.963774 148.416365 
L 51.858364 149.01342 
L 53.647542 150.529826 
L 55.43672 144.449199 
L 56.331309 142.559864 
L 58.120488 142.400567 
L 59.015077 142.659106 
L 60.804255 143.75922 
L 61.698845 143.737939 
L 63.488023 143.218198 
L 66.17179 137.018678 
L 67.960969 138.651351 
L 68.855558 138.885945 
L 70.644736 137.719537 
L 71.539326 137.706301 
L 73.328504 138.258629 
L 74.223093 137.702009 
L 76.012271 136.144145 
L 77.80145 136.124378 
L 78.696039 137.154205 
L 80.485217 142.989562 
L 81.379806 143.278409 
L 83.168985 139.63058 
L 84.063574 139.121857 
L 84.958163 138.994251 
L 85.852752 138.987341 
L 88.53652 142.890333 
L 90.325698 141.436719 
L 91.220287 141.191801 
L 93.009466 141.674941 
L 95.693233 142.906874 
L 98.377001 136.766342 
L 101.060768 139.05715 
L 102.849947 139.991875 
L 103.744536 139.758121 
L 104.639125 139.016894 
L 105.533714 138.446789 
L 106.428303 139.259431 
L 108.217482 141.974669 
L 110.00666 142.282311 
L 110.901249 142.610682 
L 112.690428 144.299331 
L 113.585017 144.191981 
L 115.374195 142.241547 
L 116.268784 141.867579 
L 118.057963 141.469235 
L 119.847141 145.47217 
L 120.74173 147.00258 
L 122.530909 145.871327 
L 123.425498 145.674173 
L 125.214676 146.426371 
L 126.109265 145.425277 
L 127.898444 141.910351 
L 128.793033 141.970185 
L 129.687622 142.296707 
L 130.582211 142.823681 
L 132.37139 146.617663 
L 133.265979 148.130671 
L 134.160568 148.697575 
L 135.055157 149.921684 
L 135.949746 148.886849 
L 137.738925 143.812596 
L 139.528103 140.907546 
L 140.422692 139.548099 
L 142.211871 142.066265 
L 143.10646 143.243191 
L 144.895638 142.294809 
L 145.790227 142.692265 
L 146.684817 144.417544 
L 147.579406 145.719137 
L 148.473995 145.818549 
L 150.263173 144.891838 
L 151.157762 145.908694 
L 152.052352 147.275796 
L 152.946941 147.993472 
L 154.736119 147.082303 
L 155.630708 147.075735 
L 156.525297 147.323547 
L 157.419887 148.536902 
L 158.314476 148.664237 
L 160.103654 148.130685 
L 161.892833 148.564434 
L 162.787422 148.867451 
L 163.682011 150.123074 
L 165.471189 151.903651 
L 167.260368 149.268394 
L 168.154957 148.623529 
L 169.944135 148.629117 
L 170.838724 150.351735 
L 172.627903 154.91674 
L 174.417081 153.677528 
L 177.100849 151.420352 
L 177.995438 150.561451 
L 178.890027 150.234573 
L 179.784616 149.729803 
L 180.679205 149.548428 
L 182.468384 149.730051 
L 184.257562 148.980265 
L 185.152151 148.889929 
L 186.94133 151.366991 
L 187.835919 151.642748 
L 189.625097 148.890141 
L 190.519686 148.492335 
L 193.203454 149.579988 
L 194.992632 149.936119 
L 196.78181 147.821973 
L 197.6764 146.967813 
L 198.570989 146.698406 
L 199.465578 145.834989 
L 200.360167 146.22279 
L 201.254756 147.552165 
L 202.149346 149.26915 
L 203.938524 148.949582 
L 204.833113 148.964813 
L 205.727702 148.350099 
L 206.622291 147.923091 
L 207.516881 147.368269 
L 208.41147 147.319643 
L 209.306059 147.535169 
L 210.200648 148.405429 
L 211.989827 154.204387 
L 212.884416 155.443905 
L 214.673594 155.990113 
L 215.568183 155.423829 
L 217.357362 153.910719 
L 219.14654 153.678141 
L 220.041129 153.302566 
L 220.935718 152.557698 
L 222.724897 151.436291 
L 224.514075 149.754238 
L 225.408664 150.037512 
L 226.303253 150.809494 
L 227.197843 152.098776 
L 228.092432 150.884871 
L 228.987021 150.008758 
L 229.88161 149.717172 
L 233.459967 156.228639 
L 234.354556 157.967209 
L 235.249145 157.284428 
L 237.038324 153.223445 
L 238.827502 154.329403 
L 239.722091 155.509412 
L 240.61668 157.548679 
L 241.511269 160.494486 
L 242.405859 157.096875 
L 266.559766 157.096875 
L 267.454356 160.494486 
L 268.348945 157.548679 
L 269.243534 155.509412 
L 270.138123 154.329403 
L 271.927301 153.223445 
L 273.71648 157.284428 
L 274.611069 157.967209 
L 277.294837 152.933193 
L 279.084015 149.717172 
L 279.978604 150.008758 
L 280.873193 150.884871 
L 281.767782 152.098776 
L 282.662372 150.809494 
L 283.556961 150.037512 
L 284.45155 149.754238 
L 285.346139 150.517742 
L 286.240728 151.436291 
L 288.029907 152.557698 
L 288.924496 153.302566 
L 289.819085 153.678141 
L 291.608263 153.910719 
L 293.397442 155.423829 
L 294.292031 155.990113 
L 296.081209 155.443905 
L 296.975798 154.204387 
L 298.764977 148.405429 
L 299.659566 147.535169 
L 300.554155 147.319643 
L 301.448744 147.368269 
L 304.132512 148.964813 
L 305.027101 148.949582 
L 306.816279 149.26915 
L 307.710869 147.552165 
L 308.605458 146.22279 
L 309.500047 145.834989 
L 310.394636 146.698406 
L 311.289225 146.967813 
L 312.183815 147.821973 
L 313.972993 149.936119 
L 316.65676 149.338601 
L 318.445939 148.492335 
L 319.340528 148.890141 
L 321.129706 151.642748 
L 322.024295 151.366991 
L 323.813474 148.889929 
L 324.708063 148.980265 
L 326.497241 149.730051 
L 328.28642 149.548428 
L 329.181009 149.729803 
L 330.075598 150.234573 
L 330.970187 150.561451 
L 332.759366 152.2112 
L 335.443133 154.343329 
L 336.337722 154.91674 
L 338.126901 150.351735 
L 339.02149 148.629117 
L 340.810668 148.623529 
L 341.705257 149.268394 
L 343.494436 151.903651 
L 345.283614 150.123074 
L 346.178203 148.867451 
L 347.967382 148.314615 
L 348.861971 148.130685 
L 350.651149 148.664237 
L 351.545738 148.536902 
L 352.440328 147.323547 
L 353.334917 147.075735 
L 354.229506 147.082303 
L 356.018684 147.993472 
L 356.913273 147.275796 
L 357.807863 145.908694 
L 358.702452 144.891838 
L 360.49163 145.818549 
L 361.386219 145.719137 
L 362.280808 144.417544 
L 363.175398 142.692265 
L 364.069987 142.294809 
L 365.859165 143.243191 
L 368.542933 139.548099 
L 371.2267 143.812596 
L 373.015879 148.886849 
L 373.910468 149.921684 
L 374.805057 148.697575 
L 375.699646 148.130671 
L 376.594235 146.617663 
L 378.383414 142.823681 
L 379.278003 142.296707 
L 380.172592 141.970185 
L 381.067181 141.910351 
L 382.85636 145.425277 
L 383.750949 146.426371 
L 385.540127 145.674173 
L 386.434716 145.871327 
L 388.223895 147.00258 
L 389.118484 145.47217 
L 390.907662 141.469235 
L 392.696841 141.867579 
L 393.59143 142.241547 
L 395.380608 144.191981 
L 396.275197 144.299331 
L 398.064376 142.610682 
L 398.958965 142.282311 
L 400.748143 141.974669 
L 402.537322 139.259431 
L 403.431911 138.446789 
L 404.3265 139.016894 
L 405.221089 139.758121 
L 406.115678 139.991875 
L 407.904857 139.05715 
L 410.588624 136.766342 
L 411.483213 138.544343 
L 413.272392 142.906874 
L 415.06157 142.050118 
L 415.956159 141.674941 
L 417.745338 141.191801 
L 418.639927 141.436719 
L 420.429105 142.890333 
L 421.323694 141.876034 
L 423.112873 138.987341 
L 424.007462 138.994251 
L 424.902051 139.121857 
L 425.79664 139.63058 
L 427.585819 143.278409 
L 428.480408 142.989562 
L 430.269586 137.154205 
L 431.164175 136.124378 
L 432.953354 136.144145 
L 434.742532 137.702009 
L 435.637121 138.258629 
L 437.426299 137.706301 
L 438.320889 137.719537 
L 440.110067 138.885945 
L 441.004656 138.651351 
L 442.793835 137.018678 
L 443.688424 138.870449 
L 445.477602 143.218198 
L 447.26678 143.737939 
L 448.16137 143.75922 
L 449.950548 142.659106 
L 450.845137 142.400567 
L 452.634316 142.559864 
L 453.528905 144.449199 
L 455.318083 150.529826 
L 458.001851 148.416365 
L 459.791029 148.857315 
L 460.685618 149.369466 
L 462.474796 151.078408 
L 463.369386 151.076096 
L 465.158564 150.16046 
L 466.053153 157.096875 
L 477.682812 157.096875 
L 477.682812 157.096875 
" style="fill:none;stroke:#ff7f0e;stroke-linecap:square;stroke-width:2.5;"/>
   </g>
   <g id="line2d_27">
    <path clip-path="url(#p8b2a6be010)" d="M 31.282813 157.096875 
L 42.912472 157.096875 
L 43.807061 42.382986 
L 44.70165 47.925702 
L 46.490829 57.081304 
L 48.280007 67.41195 
L 50.963774 87.548478 
L 51.858364 87.44605 
L 53.647542 84.106033 
L 55.43672 84.290503 
L 56.331309 84.538911 
L 58.120488 87.304619 
L 59.015077 90.276402 
L 63.488023 114.083942 
L 64.382612 114.359314 
L 65.277201 114.45507 
L 66.17179 115.724801 
L 67.960969 128.063577 
L 68.855558 132.66919 
L 70.644736 138.106658 
L 71.539326 139.958112 
L 73.328504 142.537909 
L 75.117682 146.361778 
L 76.012271 149.547141 
L 77.80145 174.660508 
L 78.696039 180.603064 
L 80.485217 166.543266 
L 81.379806 163.031844 
L 82.274396 161.810031 
L 83.168985 160.923406 
L 84.063574 159.331005 
L 85.852752 157.066799 
L 87.641931 185.185746 
L 88.53652 196.865387 
L 89.431109 198.53475 
L 90.325698 200.920765 
L 91.220287 201.355924 
L 93.904055 197.608054 
L 94.798644 196.04011 
L 95.693233 194.825824 
L 98.377001 225.790308 
L 100.166179 232.223773 
L 101.060768 231.813033 
L 102.849947 220.250886 
L 103.744536 221.691215 
L 105.533714 234.445442 
L 106.428303 235.927192 
L 107.322893 236.048107 
L 108.217482 236.415238 
L 110.00666 245.079748 
L 110.901249 247.786658 
L 111.795839 245.510746 
L 112.690428 242.921432 
L 113.585017 245.112106 
L 115.374195 256.976054 
L 116.268784 258.078379 
L 118.057963 257.510186 
L 119.847141 253.686247 
L 120.74173 252.689538 
L 122.530909 258.745707 
L 123.425498 259.611274 
L 125.214676 254.680124 
L 126.109265 254.677529 
L 127.898444 257.351429 
L 128.793033 260.386617 
L 130.582211 267.118554 
L 131.4768 265.908528 
L 132.37139 264.415167 
L 133.265979 263.25625 
L 134.160568 262.545665 
L 135.055157 261.457334 
L 135.949746 261.163755 
L 137.738925 261.634559 
L 138.633514 264.254222 
L 140.422692 271.099376 
L 141.317281 272.263743 
L 142.211871 272.809782 
L 144.895638 279.322391 
L 145.790227 278.823168 
L 147.579406 270.935759 
L 148.473995 272.037056 
L 151.157762 281.48571 
L 152.052352 286.149335 
L 152.946941 288.072956 
L 154.736119 278.591302 
L 155.630708 276.008951 
L 157.419887 278.576905 
L 158.314476 281.306716 
L 160.103654 289.501176 
L 160.998243 287.53647 
L 161.892833 284.635203 
L 162.787422 282.494135 
L 163.682011 287.090652 
L 165.471189 294.31343 
L 167.260368 289.531962 
L 168.154957 288.240834 
L 169.944135 287.798901 
L 170.838724 283.230934 
L 172.627903 271.262225 
L 175.31167 282.220663 
L 177.100849 280.773176 
L 177.995438 281.518174 
L 178.890027 281.692211 
L 179.784616 282.634725 
L 180.679205 283.961769 
L 181.573794 280.869769 
L 182.468384 279.753292 
L 184.257562 289.356482 
L 185.152151 293.955834 
L 186.04674 291.343508 
L 186.94133 289.405411 
L 187.835919 289.211902 
L 189.625097 295.056835 
L 190.519686 296.067053 
L 192.308865 294.931005 
L 193.203454 293.525416 
L 194.992632 290.099204 
L 196.78181 288.965737 
L 197.6764 289.791912 
L 198.570989 293.427734 
L 199.465578 298.897451 
L 200.360167 298.720202 
L 202.149346 289.444914 
L 203.043935 291.238912 
L 203.938524 295.980972 
L 204.833113 299.107337 
L 205.727702 298.886668 
L 206.622291 295.167801 
L 207.516881 293.873841 
L 208.41147 291.975876 
L 209.306059 289.426761 
L 210.200648 290.070515 
L 212.884416 296.660184 
L 214.673594 302.140886 
L 215.568183 298.437261 
L 217.357362 288.413314 
L 219.14654 292.847555 
L 220.041129 294.226271 
L 220.935718 293.643019 
L 222.724897 292.833547 
L 223.619486 292.194476 
L 224.514075 292.073969 
L 225.408664 290.947594 
L 226.303253 290.090554 
L 227.197843 288.919392 
L 228.987021 293.602052 
L 229.88161 295.548388 
L 231.670788 297.257259 
L 232.565378 297.421423 
L 234.354556 296.11631 
L 235.249145 296.755186 
L 237.038324 299.528089 
L 237.932913 298.661266 
L 238.827502 298.004655 
L 239.722091 297.174982 
L 241.511269 301.658413 
L 242.405859 157.096875 
L 266.559766 157.096875 
L 267.454356 301.658413 
L 269.243534 297.174982 
L 270.138123 298.004655 
L 271.032712 298.661266 
L 271.927301 299.528089 
L 273.71648 296.755186 
L 274.611069 296.11631 
L 276.400247 297.421423 
L 277.294837 297.257259 
L 279.084015 295.548388 
L 279.978604 293.602052 
L 281.767782 288.919392 
L 282.662372 290.090554 
L 283.556961 290.947594 
L 284.45155 292.073969 
L 285.346139 292.194476 
L 286.240728 292.833547 
L 288.029907 293.643019 
L 288.924496 294.226271 
L 289.819085 292.847555 
L 291.608263 288.413314 
L 293.397442 298.437261 
L 294.292031 302.140886 
L 296.081209 296.660184 
L 297.870388 292.181027 
L 298.764977 290.070515 
L 299.659566 289.426761 
L 300.554155 291.975876 
L 301.448744 293.873841 
L 302.343334 295.167801 
L 303.237923 298.886668 
L 304.132512 299.107337 
L 305.027101 295.980972 
L 305.92169 291.238912 
L 306.816279 289.444914 
L 308.605458 298.720202 
L 309.500047 298.897451 
L 310.394636 293.427734 
L 311.289225 289.791912 
L 312.183815 288.965737 
L 313.972993 290.099204 
L 315.762171 293.525416 
L 316.65676 294.931005 
L 318.445939 296.067053 
L 319.340528 295.056835 
L 321.129706 289.211902 
L 322.024295 289.405411 
L 322.918885 291.343508 
L 323.813474 293.955834 
L 326.497241 279.753292 
L 327.391831 280.869769 
L 328.28642 283.961769 
L 329.181009 282.634725 
L 330.075598 281.692211 
L 330.970187 281.518174 
L 331.864776 280.773176 
L 333.653955 282.220663 
L 334.548544 278.952046 
L 336.337722 271.262225 
L 338.126901 283.230934 
L 339.02149 287.798901 
L 340.810668 288.240834 
L 341.705257 289.531962 
L 343.494436 294.31343 
L 345.283614 287.090652 
L 346.178203 282.494135 
L 347.072792 284.635203 
L 347.967382 287.53647 
L 348.861971 289.501176 
L 350.651149 281.306716 
L 351.545738 278.576905 
L 353.334917 276.008951 
L 354.229506 278.591302 
L 356.018684 288.072956 
L 356.913273 286.149335 
L 357.807863 281.48571 
L 358.702452 277.770284 
L 360.49163 272.037056 
L 361.386219 270.935759 
L 362.280808 274.619583 
L 363.175398 278.823168 
L 364.069987 279.322391 
L 366.753754 272.809782 
L 367.648344 272.263743 
L 368.542933 271.099376 
L 370.332111 264.254222 
L 371.2267 261.634559 
L 373.015879 261.163755 
L 373.910468 261.457334 
L 374.805057 262.545665 
L 375.699646 263.25625 
L 376.594235 264.415167 
L 377.488825 265.908528 
L 378.383414 267.118554 
L 381.067181 257.351429 
L 382.85636 254.677529 
L 383.750949 254.680124 
L 385.540127 259.611274 
L 386.434716 258.745707 
L 388.223895 252.689538 
L 389.118484 253.686247 
L 390.907662 257.510186 
L 392.696841 258.078379 
L 393.59143 256.976054 
L 394.486019 251.400223 
L 395.380608 245.112106 
L 396.275197 242.921432 
L 398.064376 247.786658 
L 398.958965 245.079748 
L 400.748143 236.415238 
L 401.642732 236.048107 
L 402.537322 235.927192 
L 403.431911 234.445442 
L 405.221089 221.691215 
L 406.115678 220.250886 
L 407.904857 231.813033 
L 408.799446 232.223773 
L 410.588624 225.790308 
L 411.483213 216.11121 
L 413.272392 194.825824 
L 414.166981 196.04011 
L 415.956159 198.952908 
L 417.745338 201.355924 
L 418.639927 200.920765 
L 419.534516 198.53475 
L 420.429105 196.865387 
L 421.323694 185.185746 
L 423.112873 157.066799 
L 424.902051 159.331005 
L 425.79664 160.923406 
L 426.691229 161.810031 
L 427.585819 163.031844 
L 428.480408 166.543266 
L 430.269586 180.603064 
L 431.164175 174.660508 
L 432.953354 149.547141 
L 433.847943 146.361778 
L 435.637121 142.537909 
L 437.426299 139.958112 
L 438.320889 138.106658 
L 440.110067 132.66919 
L 441.004656 128.063577 
L 442.793835 115.724801 
L 443.688424 114.45507 
L 444.583013 114.359314 
L 445.477602 114.083942 
L 449.950548 90.276402 
L 450.845137 87.304619 
L 452.634316 84.538911 
L 453.528905 84.290503 
L 455.318083 84.106033 
L 457.107261 87.44605 
L 458.001851 87.548478 
L 460.685618 67.41195 
L 462.474796 57.081304 
L 464.263975 47.925702 
L 465.158564 42.382986 
L 466.053153 157.096875 
L 477.682812 157.096875 
L 477.682812 157.096875 
" style="fill:none;stroke:#2ca02c;stroke-linecap:square;stroke-width:2.5;"/>
   </g>
   <g id="line2d_28">
    <path clip-path="url(#p8b2a6be010)" d="M 31.282813 157.096875 
L 42.912472 157.096875 
L 43.807061 223.406858 
L 44.70165 222.315814 
L 45.596239 221.425468 
L 46.490829 222.94922 
L 48.280007 235.246806 
L 49.174596 239.495756 
L 50.963774 244.476221 
L 51.858364 245.419737 
L 52.752953 246.095257 
L 53.647542 246.94706 
L 55.43672 252.95707 
L 56.331309 254.6497 
L 58.120488 252.996404 
L 59.015077 253.97839 
L 60.804255 259.931929 
L 61.698845 261.735915 
L 63.488023 264.539014 
L 66.17179 271.311475 
L 67.960969 267.23378 
L 68.855558 267.327971 
L 70.644736 273.663022 
L 71.539326 273.699051 
L 73.328504 270.29182 
L 74.223093 269.464009 
L 76.012271 268.222206 
L 77.80145 269.744819 
L 78.696039 268.994758 
L 80.485217 261.891061 
L 81.379806 261.763338 
L 83.168985 267.178806 
L 84.063574 268.740112 
L 85.852752 271.195849 
L 87.641931 271.857426 
L 88.53652 272.013907 
L 89.431109 271.66685 
L 91.220287 271.226848 
L 93.009466 270.662599 
L 93.904055 268.905908 
L 95.693233 264.163441 
L 97.482412 256.40978 
L 98.377001 253.378906 
L 100.166179 256.447052 
L 101.060768 257.020116 
L 102.849947 255.213584 
L 103.744536 253.648512 
L 105.533714 249.72845 
L 106.428303 249.201673 
L 110.901249 248.315692 
L 112.690428 246.991309 
L 113.585017 244.714727 
L 115.374195 238.408769 
L 116.268784 237.406454 
L 118.057963 236.646071 
L 119.847141 235.042996 
L 120.74173 234.439183 
L 122.530909 234.936204 
L 123.425498 234.953466 
L 125.214676 234.292753 
L 126.109265 233.17366 
L 127.898444 230.061144 
L 130.582211 226.65936 
L 132.37139 223.671253 
L 133.265979 222.96768 
L 134.160568 223.610585 
L 135.055157 224.713016 
L 135.949746 222.85348 
L 137.738925 214.955131 
L 138.633514 213.792423 
L 140.422692 212.834872 
L 141.317281 213.015931 
L 142.211871 213.401205 
L 143.10646 213.22785 
L 144.895638 212.080844 
L 145.790227 211.856312 
L 147.579406 212.326434 
L 148.473995 210.443359 
L 150.263173 205.668146 
L 151.157762 204.700811 
L 152.052352 203.971842 
L 152.946941 202.877555 
L 155.630708 200.573812 
L 156.525297 200.185142 
L 157.419887 199.602382 
L 160.998243 198.131996 
L 162.787422 197.039974 
L 163.682011 196.002506 
L 164.5766 194.696893 
L 167.260368 192.830433 
L 168.154957 192.368942 
L 170.838724 191.360887 
L 172.627903 190.514669 
L 175.31167 184.288998 
L 177.100849 184.626656 
L 177.995438 184.592168 
L 178.890027 183.49297 
L 179.784616 182.632272 
L 180.679205 181.563924 
L 181.573794 179.944782 
L 182.468384 178.656254 
L 183.362973 178.971622 
L 184.257562 179.461004 
L 185.152151 179.618991 
L 186.94133 177.462335 
L 187.835919 176.677703 
L 189.625097 175.88911 
L 190.519686 174.679019 
L 192.308865 170.543957 
L 193.203454 170.7651 
L 194.992632 172.581583 
L 196.78181 173.547455 
L 197.6764 173.643736 
L 200.360167 170.886349 
L 201.254756 169.658843 
L 202.149346 168.704661 
L 203.043935 168.349403 
L 204.833113 168.942792 
L 206.622291 169.099625 
L 207.516881 168.848332 
L 209.306059 165.752886 
L 210.200648 164.560417 
L 211.989827 162.788992 
L 212.884416 162.979595 
L 214.673594 164.794771 
L 216.462772 165.484428 
L 217.357362 165.637905 
L 219.14654 162.010318 
L 220.041129 160.922612 
L 220.935718 161.502575 
L 221.830307 161.926094 
L 223.619486 162.330167 
L 224.514075 162.111196 
L 225.408664 162.790651 
L 227.197843 163.553523 
L 228.987021 159.174406 
L 229.88161 157.756575 
L 230.776199 157.748811 
L 231.670788 158.114931 
L 232.565378 158.170662 
L 237.038324 156.488655 
L 238.827502 156.507294 
L 239.722091 156.783574 
L 241.511269 158.181716 
L 242.405859 157.096875 
L 266.559766 157.096875 
L 267.454356 158.181716 
L 269.243534 156.783574 
L 270.138123 156.507294 
L 271.927301 156.488655 
L 276.400247 158.170662 
L 277.294837 158.114931 
L 278.189426 157.748811 
L 279.084015 157.756575 
L 279.978604 159.174406 
L 281.767782 163.553523 
L 283.556961 162.790651 
L 284.45155 162.111196 
L 285.346139 162.330167 
L 287.135318 161.926094 
L 288.029907 161.502575 
L 288.924496 160.922612 
L 289.819085 162.010318 
L 291.608263 165.637905 
L 292.502853 165.484428 
L 294.292031 164.794771 
L 296.081209 162.979595 
L 296.975798 162.788992 
L 298.764977 164.560417 
L 299.659566 165.752886 
L 301.448744 168.848332 
L 302.343334 169.099625 
L 305.027101 168.611277 
L 305.92169 168.349403 
L 306.816279 168.704661 
L 307.710869 169.658843 
L 309.500047 171.937893 
L 311.289225 173.643736 
L 312.183815 173.547455 
L 313.972993 172.581583 
L 315.762171 170.7651 
L 316.65676 170.543957 
L 318.445939 174.679019 
L 319.340528 175.88911 
L 321.129706 176.677703 
L 322.024295 177.462335 
L 323.813474 179.618991 
L 324.708063 179.461004 
L 325.602652 178.971622 
L 326.497241 178.656254 
L 327.391831 179.944782 
L 328.28642 181.563924 
L 329.181009 182.632272 
L 330.075598 183.49297 
L 330.970187 184.592168 
L 331.864776 184.626656 
L 333.653955 184.288998 
L 334.548544 186.16019 
L 336.337722 190.514669 
L 339.02149 191.754227 
L 340.810668 192.368942 
L 341.705257 192.830433 
L 344.389025 194.696893 
L 345.283614 196.002506 
L 346.178203 197.039974 
L 348.861971 198.686536 
L 351.545738 199.602382 
L 352.440328 200.185142 
L 353.334917 200.573812 
L 355.124095 202.101682 
L 356.018684 202.877555 
L 356.913273 203.971842 
L 357.807863 204.700811 
L 358.702452 205.668146 
L 361.386219 212.326434 
L 363.175398 211.856312 
L 364.069987 212.080844 
L 365.859165 213.22785 
L 366.753754 213.401205 
L 367.648344 213.015931 
L 368.542933 212.834872 
L 370.332111 213.792423 
L 371.2267 214.955131 
L 373.015879 222.85348 
L 373.910468 224.713016 
L 374.805057 223.610585 
L 375.699646 222.96768 
L 376.594235 223.671253 
L 379.278003 227.881293 
L 381.067181 230.061144 
L 382.85636 233.17366 
L 383.750949 234.292753 
L 385.540127 234.953466 
L 386.434716 234.936204 
L 388.223895 234.439183 
L 389.118484 235.042996 
L 390.907662 236.646071 
L 392.696841 237.406454 
L 393.59143 238.408769 
L 396.275197 246.991309 
L 398.064376 248.315692 
L 398.958965 248.585426 
L 402.537322 249.201673 
L 403.431911 249.72845 
L 405.221089 253.648512 
L 406.115678 255.213584 
L 407.904857 257.020116 
L 408.799446 256.447052 
L 410.588624 253.378906 
L 411.483213 256.40978 
L 413.272392 264.163441 
L 415.06157 268.905908 
L 415.956159 270.662599 
L 418.639927 271.489022 
L 419.534516 271.66685 
L 420.429105 272.013907 
L 421.323694 271.857426 
L 423.112873 271.195849 
L 424.902051 268.740112 
L 425.79664 267.178806 
L 427.585819 261.763338 
L 428.480408 261.891061 
L 430.269586 268.994758 
L 431.164175 269.744819 
L 432.953354 268.222206 
L 434.742532 269.464009 
L 435.637121 270.29182 
L 437.426299 273.699051 
L 438.320889 273.663022 
L 440.110067 267.327971 
L 441.004656 267.23378 
L 442.793835 271.311475 
L 443.688424 269.453785 
L 445.477602 264.539014 
L 447.26678 261.735915 
L 448.16137 259.931929 
L 449.950548 253.97839 
L 450.845137 252.996404 
L 452.634316 254.6497 
L 453.528905 252.95707 
L 455.318083 246.94706 
L 456.212672 246.095257 
L 457.107261 245.419737 
L 458.001851 244.476221 
L 459.791029 239.495756 
L 460.685618 235.246806 
L 462.474796 222.94922 
L 463.369386 221.425468 
L 464.263975 222.315814 
L 465.158564 223.406858 
L 466.053153 157.096875 
L 477.682812 157.096875 
L 477.682812 157.096875 
" style="fill:none;stroke:#d62728;stroke-linecap:square;stroke-width:2.5;"/>
   </g>
   <g id="line2d_29">
    <path clip-path="url(#p8b2a6be010)" d="M 31.282813 157.096875 
L 42.912472 157.096875 
L 43.807061 100.61939 
L 44.70165 94.239012 
L 45.596239 88.733388 
L 46.490829 85.181443 
L 48.280007 82.007921 
L 49.174596 76.79042 
L 50.963774 62.287715 
L 51.858364 60.457653 
L 53.647542 58.787236 
L 55.43672 54.686827 
L 56.331309 53.004105 
L 58.120488 50.521369 
L 60.804255 47.176939 
L 61.698845 45.260382 
L 63.488023 40.578134 
L 66.17179 24.660504 
L 67.960969 28.602855 
L 68.855558 29.447834 
L 70.644736 28.032779 
L 71.539326 31.425433 
L 73.328504 42.270446 
L 74.223093 41.203627 
L 76.012271 36.729403 
L 77.80145 40.453675 
L 78.696039 40.308588 
L 80.485217 32.445055 
L 81.379806 30.999386 
L 82.274396 31.310361 
L 83.168985 31.874823 
L 84.063574 28.76112 
L 85.852752 21.464136 
L 87.641931 27.277995 
L 88.53652 29.527939 
L 89.431109 29.078239 
L 90.325698 28.908954 
L 91.220287 27.751094 
L 93.009466 23.47677 
L 93.904055 25.562906 
L 96.587823 38.022702 
L 98.377001 46.924551 
L 100.166179 51.143166 
L 101.060768 51.325101 
L 102.849947 45.218895 
L 103.744536 46.329771 
L 105.533714 54.112353 
L 106.428303 54.475777 
L 108.217482 53.272979 
L 110.901249 54.607692 
L 112.690428 54.559126 
L 113.585017 57.21834 
L 115.374195 66.090432 
L 116.268784 67.023335 
L 118.057963 66.875431 
L 120.74173 69.508386 
L 122.530909 70.946603 
L 123.425498 71.262083 
L 125.214676 70.614414 
L 126.109265 73.680312 
L 127.898444 83.54426 
L 128.793033 82.767069 
L 129.687622 81.107362 
L 130.582211 79.826095 
L 132.37139 85.404913 
L 133.265979 86.816057 
L 135.055157 84.188358 
L 135.949746 85.71971 
L 137.738925 93.209806 
L 138.633514 94.438053 
L 140.422692 95.704013 
L 141.317281 96.680475 
L 142.211871 97.427752 
L 143.10646 98.348322 
L 144.895638 96.715169 
L 145.790227 95.391604 
L 146.684817 93.742541 
L 147.579406 91.519081 
L 148.473995 93.754569 
L 150.263173 100.703712 
L 152.052352 103.458187 
L 152.946941 104.421233 
L 155.630708 106.194393 
L 156.525297 106.485448 
L 157.419887 106.548329 
L 158.314476 108.460805 
L 160.103654 115.188479 
L 160.998243 117.122887 
L 161.892833 118.59937 
L 162.787422 119.678566 
L 164.5766 114.934541 
L 165.471189 113.968543 
L 167.260368 121.233945 
L 168.154957 122.991785 
L 169.944135 122.901522 
L 171.733314 123.580467 
L 172.627903 123.974004 
L 174.417081 128.033238 
L 175.31167 129.25613 
L 177.100849 123.722903 
L 177.995438 122.203963 
L 178.890027 120.995985 
L 179.784616 120.248943 
L 180.679205 121.998171 
L 182.468384 127.558443 
L 184.257562 132.385851 
L 185.152151 134.462792 
L 186.04674 135.688899 
L 186.94133 136.692489 
L 187.835919 137.451819 
L 189.625097 138.369838 
L 190.519686 138.598686 
L 192.308865 138.70054 
L 194.992632 138.176457 
L 196.78181 142.914887 
L 197.6764 144.152105 
L 199.465578 141.568829 
L 200.360167 141.179238 
L 201.254756 141.695343 
L 202.149346 142.352323 
L 203.043935 143.679432 
L 204.833113 147.689833 
L 206.622291 147.322036 
L 207.516881 147.342585 
L 209.306059 148.64024 
L 210.200648 149.230155 
L 211.989827 149.898356 
L 212.884416 150.014147 
L 214.673594 149.982953 
L 216.462772 151.04123 
L 217.357362 151.554666 
L 219.14654 149.948103 
L 220.041129 149.676951 
L 220.935718 150.472232 
L 224.514075 152.829546 
L 225.408664 153.191481 
L 229.88161 153.924288 
L 230.776199 155.441167 
L 231.670788 156.738529 
L 232.565378 157.251103 
L 234.354556 156.292657 
L 235.249145 156.426583 
L 237.038324 157.382399 
L 239.722091 154.791486 
L 240.61668 154.713743 
L 241.511269 154.452171 
L 242.405859 157.096875 
L 266.559766 157.096875 
L 267.454356 154.452171 
L 268.348945 154.713743 
L 269.243534 154.791486 
L 271.032712 156.49331 
L 271.927301 157.382399 
L 273.71648 156.426583 
L 274.611069 156.292657 
L 276.400247 157.251103 
L 277.294837 156.738529 
L 278.189426 155.441167 
L 279.084015 153.924288 
L 282.662372 153.326884 
L 283.556961 153.191481 
L 284.45155 152.829546 
L 285.346139 152.301506 
L 286.240728 151.561875 
L 288.029907 150.472232 
L 288.924496 149.676951 
L 289.819085 149.948103 
L 291.608263 151.554666 
L 294.292031 149.982953 
L 296.081209 150.014147 
L 296.975798 149.898356 
L 298.764977 149.230155 
L 301.448744 147.342585 
L 302.343334 147.322036 
L 304.132512 147.689833 
L 305.92169 143.679432 
L 306.816279 142.352323 
L 307.710869 141.695343 
L 308.605458 141.179238 
L 309.500047 141.568829 
L 311.289225 144.152105 
L 312.183815 142.914887 
L 313.972993 138.176457 
L 317.55135 138.646746 
L 318.445939 138.598686 
L 319.340528 138.369838 
L 321.129706 137.451819 
L 322.024295 136.692489 
L 322.918885 135.688899 
L 323.813474 134.462792 
L 324.708063 132.385851 
L 327.391831 124.917947 
L 328.28642 121.998171 
L 329.181009 120.248943 
L 330.075598 120.995985 
L 330.970187 122.203963 
L 331.864776 123.722903 
L 333.653955 129.25613 
L 334.548544 128.033238 
L 336.337722 123.974004 
L 339.02149 122.901522 
L 340.810668 122.991785 
L 341.705257 121.233945 
L 343.494436 113.968543 
L 344.389025 114.934541 
L 346.178203 119.678566 
L 347.072792 118.59937 
L 347.967382 117.122887 
L 348.861971 115.188479 
L 350.651149 108.460805 
L 351.545738 106.548329 
L 352.440328 106.485448 
L 353.334917 106.194393 
L 354.229506 105.705138 
L 356.018684 104.421233 
L 356.913273 103.458187 
L 358.702452 100.703712 
L 360.49163 93.754569 
L 361.386219 91.519081 
L 362.280808 93.742541 
L 363.175398 95.391604 
L 364.069987 96.715169 
L 365.859165 98.348322 
L 366.753754 97.427752 
L 367.648344 96.680475 
L 368.542933 95.704013 
L 370.332111 94.438053 
L 371.2267 93.209806 
L 373.015879 85.71971 
L 373.910468 84.188358 
L 375.699646 86.816057 
L 376.594235 85.404913 
L 378.383414 79.826095 
L 379.278003 81.107362 
L 380.172592 82.767069 
L 381.067181 83.54426 
L 382.85636 73.680312 
L 383.750949 70.614414 
L 385.540127 71.262083 
L 386.434716 70.946603 
L 389.118484 68.650509 
L 390.907662 66.875431 
L 392.696841 67.023335 
L 393.59143 66.090432 
L 394.486019 61.920723 
L 395.380608 57.21834 
L 396.275197 54.559126 
L 398.064376 54.607692 
L 398.958965 54.242817 
L 400.748143 53.272979 
L 402.537322 54.475777 
L 403.431911 54.112353 
L 405.221089 46.329771 
L 406.115678 45.218895 
L 407.904857 51.325101 
L 408.799446 51.143166 
L 410.588624 46.924551 
L 412.377802 38.022702 
L 413.272392 33.322976 
L 415.06157 25.562906 
L 415.956159 23.47677 
L 417.745338 27.751094 
L 418.639927 28.908954 
L 419.534516 29.078239 
L 420.429105 29.527939 
L 421.323694 27.277995 
L 423.112873 21.464136 
L 425.79664 31.874823 
L 426.691229 31.310361 
L 427.585819 30.999386 
L 428.480408 32.445055 
L 430.269586 40.308588 
L 431.164175 40.453675 
L 432.953354 36.729403 
L 433.847943 38.815125 
L 434.742532 41.203627 
L 435.637121 42.270446 
L 437.426299 31.425433 
L 438.320889 28.032779 
L 440.110067 29.447834 
L 441.004656 28.602855 
L 442.793835 24.660504 
L 443.688424 29.409703 
L 445.477602 40.578134 
L 447.26678 45.260382 
L 448.16137 47.176939 
L 452.634316 53.004105 
L 453.528905 54.686827 
L 455.318083 58.787236 
L 457.107261 60.457653 
L 458.001851 62.287715 
L 459.791029 76.79042 
L 460.685618 82.007921 
L 462.474796 85.181443 
L 463.369386 88.733388 
L 464.263975 94.239012 
L 465.158564 100.61939 
L 466.053153 157.096875 
L 477.682812 157.096875 
L 477.682812 157.096875 
" style="fill:none;stroke:#9467bd;stroke-linecap:square;stroke-width:2.5;"/>
   </g>
   <g id="patch_3">
    <path d="M 31.282813 292.996875 
L 31.282813 21.196875 
" style="fill:none;stroke:#000000;stroke-linecap:square;stroke-linejoin:miter;stroke-width:0.8;"/>
   </g>
   <g id="patch_4">
    <path d="M 477.682813 292.996875 
L 477.682813 21.196875 
" style="fill:none;stroke:#000000;stroke-linecap:square;stroke-linejoin:miter;stroke-width:0.8;"/>
   </g>
   <g id="patch_5">
    <path d="M 31.282813 292.996875 
L 477.682812 292.996875 
" style="fill:none;stroke:#000000;stroke-linecap:square;stroke-linejoin:miter;stroke-width:0.8;"/>
   </g>
   <g id="patch_6">
    <path d="M 31.282813 21.196875 
L 477.682812 21.196875 
" style="fill:none;stroke:#000000;stroke-linecap:square;stroke-linejoin:miter;stroke-width:0.8;"/>
   </g>
   <g id="text_14">
    <!-- Image-based measurement (Gold) -->
    <defs>
     <path d="M 24.703125 5.171875 
L 33.984375 5.171875 
L 33.984375 0 
L 5.515625 0 
L 5.515625 5.171875 
L 14.796875 5.171875 
L 14.796875 67.671875 
L 5.515625 67.671875 
L 5.515625 72.90625 
L 33.984375 72.90625 
L 33.984375 67.671875 
L 24.703125 67.671875 
z
" id="DejaVuSerif-73"/>
     <path d="M 51.8125 41.796875 
Q 54.390625 47.515625 58.421875 50.421875 
Q 62.453125 53.328125 67.828125 53.328125 
Q 75.984375 53.328125 79.984375 48.265625 
Q 83.984375 43.21875 83.984375 33.015625 
L 83.984375 5.171875 
L 92.09375 5.171875 
L 92.09375 0 
L 67.1875 0 
L 67.1875 5.171875 
L 75 5.171875 
L 75 31.984375 
Q 75 39.9375 72.65625 43.3125 
Q 70.3125 46.6875 64.890625 46.6875 
Q 58.890625 46.6875 55.734375 42.140625 
Q 52.59375 37.59375 52.59375 28.90625 
L 52.59375 5.171875 
L 60.40625 5.171875 
L 60.40625 0 
L 35.796875 0 
L 35.796875 5.171875 
L 43.609375 5.171875 
L 43.609375 32.328125 
Q 43.609375 40.09375 41.265625 43.390625 
Q 38.921875 46.6875 33.5 46.6875 
Q 27.484375 46.6875 24.328125 42.140625 
Q 21.1875 37.59375 21.1875 28.90625 
L 21.1875 5.171875 
L 29 5.171875 
L 29 0 
L 4.109375 0 
L 4.109375 5.171875 
L 12.203125 5.171875 
L 12.203125 46.78125 
L 3.609375 46.78125 
L 3.609375 51.90625 
L 21.1875 51.90625 
L 21.1875 42.671875 
Q 23.6875 47.859375 27.53125 50.59375 
Q 31.390625 53.328125 36.28125 53.328125 
Q 42.328125 53.328125 46.375 50.3125 
Q 50.4375 47.3125 51.8125 41.796875 
z
" id="DejaVuSerif-109"/>
     <path d="M 39.796875 16.3125 
L 39.796875 27.296875 
L 28.21875 27.296875 
Q 21.53125 27.296875 18.25 24.40625 
Q 14.984375 21.53125 14.984375 15.578125 
Q 14.984375 10.15625 18.296875 6.984375 
Q 21.625 3.8125 27.296875 3.8125 
Q 32.90625 3.8125 36.34375 7.28125 
Q 39.796875 10.75 39.796875 16.3125 
z
M 48.78125 32.421875 
L 48.78125 5.171875 
L 56.78125 5.171875 
L 56.78125 0 
L 39.796875 0 
L 39.796875 5.609375 
Q 36.8125 2 32.90625 0.28125 
Q 29 -1.421875 23.78125 -1.421875 
Q 15.140625 -1.421875 10.0625 3.171875 
Q 4.984375 7.765625 4.984375 15.578125 
Q 4.984375 23.640625 10.796875 28.078125 
Q 16.609375 32.515625 27.203125 32.515625 
L 39.796875 32.515625 
L 39.796875 36.078125 
Q 39.796875 42 36.203125 45.234375 
Q 32.625 48.484375 26.125 48.484375 
Q 20.75 48.484375 17.578125 46.046875 
Q 14.40625 43.609375 13.625 38.8125 
L 8.984375 38.8125 
L 8.984375 49.3125 
Q 13.671875 51.3125 18.09375 52.3125 
Q 22.515625 53.328125 26.703125 53.328125 
Q 37.5 53.328125 43.140625 47.96875 
Q 48.78125 42.625 48.78125 32.421875 
z
" id="DejaVuSerif-97"/>
     <path d="M 52.484375 46.6875 
L 52.484375 1.125 
Q 52.484375 -10.0625 46.328125 -16.140625 
Q 40.1875 -22.21875 28.8125 -22.21875 
Q 23.6875 -22.21875 19 -21.28125 
Q 14.3125 -20.359375 10.015625 -18.5 
L 10.015625 -7.625 
L 14.703125 -7.625 
Q 15.578125 -12.703125 18.84375 -15.046875 
Q 22.125 -17.390625 28.21875 -17.390625 
Q 36.140625 -17.390625 39.8125 -12.921875 
Q 43.5 -8.453125 43.5 1.125 
L 43.5 8.109375 
Q 40.875 3.21875 36.796875 0.890625 
Q 32.71875 -1.421875 26.703125 -1.421875 
Q 17.140625 -1.421875 11.0625 6.171875 
Q 4.984375 13.765625 4.984375 25.984375 
Q 4.984375 38.1875 11.03125 45.75 
Q 17.09375 53.328125 26.703125 53.328125 
Q 32.71875 53.328125 36.796875 51 
Q 40.875 48.6875 43.5 43.796875 
L 43.5 51.90625 
L 61.078125 51.90625 
L 61.078125 46.6875 
z
M 43.5 28.515625 
Q 43.5 37.84375 39.90625 42.765625 
Q 36.328125 47.703125 29.5 47.703125 
Q 22.5625 47.703125 19.015625 42.234375 
Q 15.484375 36.765625 15.484375 25.984375 
Q 15.484375 15.234375 19.015625 9.71875 
Q 22.5625 4.203125 29.5 4.203125 
Q 36.328125 4.203125 39.90625 9.109375 
Q 43.5 14.015625 43.5 23.390625 
z
" id="DejaVuSerif-103"/>
     <path d="M 54.203125 25 
L 15.484375 25 
L 15.484375 24.609375 
Q 15.484375 14.109375 19.4375 8.765625 
Q 23.390625 3.421875 31.109375 3.421875 
Q 37.015625 3.421875 40.796875 6.515625 
Q 44.578125 9.625 46.09375 15.71875 
L 53.328125 15.71875 
Q 51.171875 7.171875 45.375 2.875 
Q 39.59375 -1.421875 30.171875 -1.421875 
Q 18.796875 -1.421875 11.890625 6.078125 
Q 4.984375 13.578125 4.984375 25.984375 
Q 4.984375 38.28125 11.765625 45.796875 
Q 18.5625 53.328125 29.59375 53.328125 
Q 41.359375 53.328125 47.65625 46.0625 
Q 53.953125 38.8125 54.203125 25 
z
M 43.609375 30.171875 
Q 43.3125 39.265625 39.765625 43.875 
Q 36.234375 48.484375 29.59375 48.484375 
Q 23.390625 48.484375 19.828125 43.84375 
Q 16.265625 39.203125 15.484375 30.171875 
z
" id="DejaVuSerif-101"/>
     <path d="M 11.53125 5.171875 
L 11.53125 70.796875 
L 2.875 70.796875 
L 2.875 75.984375 
L 20.515625 75.984375 
L 20.515625 43.796875 
Q 23.140625 48.6875 27.21875 51 
Q 31.296875 53.328125 37.3125 53.328125 
Q 46.875 53.328125 52.921875 45.75 
Q 58.984375 38.1875 58.984375 25.984375 
Q 58.984375 13.765625 52.921875 6.171875 
Q 46.875 -1.421875 37.3125 -1.421875 
Q 31.296875 -1.421875 27.21875 0.890625 
Q 23.140625 3.21875 20.515625 8.109375 
L 20.515625 0 
L 2.875 0 
L 2.875 5.171875 
z
M 20.515625 23.390625 
Q 20.515625 14.015625 24.09375 9.109375 
Q 27.6875 4.203125 34.515625 4.203125 
Q 41.40625 4.203125 44.9375 9.71875 
Q 48.484375 15.234375 48.484375 25.984375 
Q 48.484375 36.765625 44.9375 42.234375 
Q 41.40625 47.703125 34.515625 47.703125 
Q 27.6875 47.703125 24.09375 42.765625 
Q 20.515625 37.84375 20.515625 28.515625 
z
" id="DejaVuSerif-98"/>
     <path d="M 5.609375 2.875 
L 5.609375 14.984375 
L 10.796875 14.984375 
Q 10.984375 9.1875 14.421875 6.296875 
Q 17.875 3.421875 24.609375 3.421875 
Q 30.671875 3.421875 33.84375 5.6875 
Q 37.015625 7.953125 37.015625 12.3125 
Q 37.015625 15.71875 34.6875 17.8125 
Q 32.375 19.921875 24.90625 22.3125 
L 18.40625 24.515625 
Q 11.71875 26.65625 8.71875 29.875 
Q 5.71875 33.109375 5.71875 38.09375 
Q 5.71875 45.21875 10.9375 49.265625 
Q 16.15625 53.328125 25.390625 53.328125 
Q 29.5 53.328125 34.03125 52.25 
Q 38.578125 51.171875 43.40625 49.125 
L 43.40625 37.796875 
L 38.234375 37.796875 
Q 38.03125 42.828125 34.703125 45.65625 
Q 31.390625 48.484375 25.6875 48.484375 
Q 20.015625 48.484375 17.109375 46.484375 
Q 14.203125 44.484375 14.203125 40.484375 
Q 14.203125 37.203125 16.40625 35.21875 
Q 18.609375 33.25 25.203125 31.203125 
L 32.328125 29 
Q 39.703125 26.703125 42.9375 23.265625 
Q 46.1875 19.828125 46.1875 14.40625 
Q 46.1875 7.03125 40.546875 2.796875 
Q 34.90625 -1.421875 25 -1.421875 
Q 19.96875 -1.421875 15.1875 -0.34375 
Q 10.40625 0.734375 5.609375 2.875 
z
" id="DejaVuSerif-115"/>
     <path d="M 52.484375 5.171875 
L 61.078125 5.171875 
L 61.078125 0 
L 43.5 0 
L 43.5 8.109375 
Q 40.875 3.21875 36.796875 0.890625 
Q 32.71875 -1.421875 26.703125 -1.421875 
Q 17.140625 -1.421875 11.0625 6.171875 
Q 4.984375 13.765625 4.984375 25.984375 
Q 4.984375 38.1875 11.03125 45.75 
Q 17.09375 53.328125 26.703125 53.328125 
Q 32.71875 53.328125 36.796875 51 
Q 40.875 48.6875 43.5 43.796875 
L 43.5 70.796875 
L 35.015625 70.796875 
L 35.015625 75.984375 
L 52.484375 75.984375 
z
M 43.5 23.390625 
L 43.5 28.515625 
Q 43.5 37.84375 39.90625 42.765625 
Q 36.328125 47.703125 29.5 47.703125 
Q 22.5625 47.703125 19.015625 42.234375 
Q 15.484375 36.765625 15.484375 25.984375 
Q 15.484375 15.234375 19.015625 9.71875 
Q 22.5625 4.203125 29.5 4.203125 
Q 36.328125 4.203125 39.90625 9.109375 
Q 43.5 14.015625 43.5 23.390625 
z
" id="DejaVuSerif-100"/>
     <path id="DejaVuSerif-32"/>
     <path d="M 35.40625 51.90625 
L 52.203125 51.90625 
L 52.203125 5.171875 
L 60.6875 5.171875 
L 60.6875 0 
L 43.21875 0 
L 43.21875 9.1875 
Q 40.71875 4 36.765625 1.28125 
Q 32.8125 -1.421875 27.59375 -1.421875 
Q 18.953125 -1.421875 14.875 3.484375 
Q 10.796875 8.40625 10.796875 18.890625 
L 10.796875 46.6875 
L 2.6875 46.6875 
L 2.6875 51.90625 
L 19.828125 51.90625 
L 19.828125 21.6875 
Q 19.828125 12.203125 22.140625 8.6875 
Q 24.46875 5.171875 30.421875 5.171875 
Q 36.671875 5.171875 39.9375 9.765625 
Q 43.21875 14.359375 43.21875 23.09375 
L 43.21875 46.6875 
L 35.40625 46.6875 
z
" id="DejaVuSerif-117"/>
     <path d="M 47.796875 52 
L 47.796875 39.015625 
L 42.625 39.015625 
Q 42.390625 42.875 40.484375 44.78125 
Q 38.578125 46.6875 34.90625 46.6875 
Q 28.265625 46.6875 24.71875 42.09375 
Q 21.1875 37.5 21.1875 28.90625 
L 21.1875 5.171875 
L 31.59375 5.171875 
L 31.59375 0 
L 4.109375 0 
L 4.109375 5.171875 
L 12.203125 5.171875 
L 12.203125 46.78125 
L 3.609375 46.78125 
L 3.609375 51.90625 
L 21.1875 51.90625 
L 21.1875 42.671875 
Q 23.828125 48.09375 27.96875 50.703125 
Q 32.125 53.328125 38.09375 53.328125 
Q 40.28125 53.328125 42.703125 52.984375 
Q 45.125 52.640625 47.796875 52 
z
" id="DejaVuSerif-114"/>
     <path d="M 4.109375 0 
L 4.109375 5.171875 
L 12.203125 5.171875 
L 12.203125 46.6875 
L 3.609375 46.6875 
L 3.609375 51.90625 
L 21.1875 51.90625 
L 21.1875 42.671875 
Q 23.6875 47.953125 27.65625 50.640625 
Q 31.640625 53.328125 36.921875 53.328125 
Q 45.515625 53.328125 49.5625 48.390625 
Q 53.609375 43.453125 53.609375 33.015625 
L 53.609375 5.171875 
L 61.625 5.171875 
L 61.625 0 
L 36.8125 0 
L 36.8125 5.171875 
L 44.578125 5.171875 
L 44.578125 30.171875 
Q 44.578125 39.703125 42.234375 43.234375 
Q 39.890625 46.78125 33.984375 46.78125 
Q 27.734375 46.78125 24.453125 42.203125 
Q 21.1875 37.640625 21.1875 28.90625 
L 21.1875 5.171875 
L 29 5.171875 
L 29 0 
z
" id="DejaVuSerif-110"/>
     <path d="M 10.796875 46.6875 
L 2.875 46.6875 
L 2.875 51.90625 
L 10.796875 51.90625 
L 10.796875 68.015625 
L 19.828125 68.015625 
L 19.828125 51.90625 
L 36.71875 51.90625 
L 36.71875 46.6875 
L 19.828125 46.6875 
L 19.828125 13.71875 
Q 19.828125 7.125 21.09375 5.265625 
Q 22.359375 3.421875 25.78125 3.421875 
Q 29.296875 3.421875 30.90625 5.484375 
Q 32.515625 7.5625 32.625 12.203125 
L 39.40625 12.203125 
Q 39.015625 5.125 35.546875 1.84375 
Q 32.078125 -1.421875 25 -1.421875 
Q 17.234375 -1.421875 14.015625 2.015625 
Q 10.796875 5.46875 10.796875 13.71875 
z
" id="DejaVuSerif-116"/>
     <path d="M 31.890625 -15.578125 
Q 20.015625 -10.25 13.953125 1.296875 
Q 7.90625 12.84375 7.90625 30.171875 
Q 7.90625 47.5625 13.953125 59.109375 
Q 20.015625 70.65625 31.890625 75.984375 
L 31.890625 71.1875 
Q 24.359375 66.015625 21.09375 56.609375 
Q 17.828125 47.21875 17.828125 30.171875 
Q 17.828125 13.1875 21.09375 3.78125 
Q 24.359375 -5.609375 31.890625 -10.796875 
z
" id="DejaVuSerif-40"/>
     <path d="M 64.015625 51.125 
Q 62.3125 60.25 56.890625 64.625 
Q 51.46875 69 41.796875 69 
Q 29.203125 69 23 60.890625 
Q 16.796875 52.78125 16.796875 36.375 
Q 16.796875 20.3125 23.1875 12.0625 
Q 29.59375 3.8125 42 3.8125 
Q 47.515625 3.8125 52.53125 5.171875 
Q 57.5625 6.546875 62.109375 9.28125 
L 62.109375 28.078125 
L 48.390625 28.078125 
L 48.390625 33.296875 
L 72.015625 33.296875 
L 72.015625 6.109375 
Q 65.53125 2.34375 58.03125 0.453125 
Q 50.53125 -1.421875 42 -1.421875 
Q 25.484375 -1.421875 15.546875 8.90625 
Q 5.609375 19.234375 5.609375 36.375 
Q 5.609375 53.65625 15.5625 63.9375 
Q 25.53125 74.21875 42.390625 74.21875 
Q 48.640625 74.21875 55.296875 72.78125 
Q 61.96875 71.34375 69.484375 68.40625 
L 69.484375 51.125 
z
" id="DejaVuSerif-71"/>
     <path d="M 30.078125 3.421875 
Q 37.3125 3.421875 40.984375 9.125 
Q 44.671875 14.84375 44.671875 25.984375 
Q 44.671875 37.109375 40.984375 42.796875 
Q 37.3125 48.484375 30.078125 48.484375 
Q 22.859375 48.484375 19.171875 42.796875 
Q 15.484375 37.109375 15.484375 25.984375 
Q 15.484375 14.84375 19.1875 9.125 
Q 22.90625 3.421875 30.078125 3.421875 
z
M 30.078125 -1.421875 
Q 18.75 -1.421875 11.859375 6.078125 
Q 4.984375 13.578125 4.984375 25.984375 
Q 4.984375 38.375 11.84375 45.84375 
Q 18.703125 53.328125 30.078125 53.328125 
Q 41.453125 53.328125 48.3125 45.84375 
Q 55.171875 38.375 55.171875 25.984375 
Q 55.171875 13.578125 48.3125 6.078125 
Q 41.453125 -1.421875 30.078125 -1.421875 
z
" id="DejaVuSerif-111"/>
     <path d="M 20.515625 5.171875 
L 29 5.171875 
L 29 0 
L 2.875 0 
L 2.875 5.171875 
L 11.53125 5.171875 
L 11.53125 70.796875 
L 2.875 70.796875 
L 2.875 75.984375 
L 20.515625 75.984375 
z
" id="DejaVuSerif-108"/>
     <path d="M 7.078125 -15.578125 
L 7.078125 -10.796875 
Q 14.59375 -5.609375 17.890625 3.78125 
Q 21.1875 13.1875 21.1875 30.171875 
Q 21.1875 47.21875 17.890625 56.609375 
Q 14.59375 66.015625 7.078125 71.1875 
L 7.078125 75.984375 
Q 19 70.65625 25.046875 59.109375 
Q 31.109375 47.5625 31.109375 30.171875 
Q 31.109375 12.84375 25.046875 1.296875 
Q 19 -10.25 7.078125 -15.578125 
z
" id="DejaVuSerif-41"/>
    </defs>
    <g transform="translate(82.307812 15.196875)scale(0.2 -0.2)">
     <use xlink:href="#DejaVuSerif-73"/>
     <use x="39.501953" xlink:href="#DejaVuSerif-109"/>
     <use x="134.326172" xlink:href="#DejaVuSerif-97"/>
     <use x="193.945312" xlink:href="#DejaVuSerif-103"/>
     <use x="257.958984" xlink:href="#DejaVuSerif-101"/>
     <use x="317.138672" xlink:href="#DejaVuSerif-45"/>
     <use x="350.927734" xlink:href="#DejaVuSerif-98"/>
     <use x="414.941406" xlink:href="#DejaVuSerif-97"/>
     <use x="474.560547" xlink:href="#DejaVuSerif-115"/>
     <use x="525.878906" xlink:href="#DejaVuSerif-101"/>
     <use x="585.058594" xlink:href="#DejaVuSerif-100"/>
     <use x="649.072266" xlink:href="#DejaVuSerif-32"/>
     <use x="680.859375" xlink:href="#DejaVuSerif-109"/>
     <use x="775.683594" xlink:href="#DejaVuSerif-101"/>
     <use x="834.863281" xlink:href="#DejaVuSerif-97"/>
     <use x="894.482422" xlink:href="#DejaVuSerif-115"/>
     <use x="945.800781" xlink:href="#DejaVuSerif-117"/>
     <use x="1010.205078" xlink:href="#DejaVuSerif-114"/>
     <use x="1058.007812" xlink:href="#DejaVuSerif-101"/>
     <use x="1117.1875" xlink:href="#DejaVuSerif-109"/>
     <use x="1212.011719" xlink:href="#DejaVuSerif-101"/>
     <use x="1271.191406" xlink:href="#DejaVuSerif-110"/>
     <use x="1335.595703" xlink:href="#DejaVuSerif-116"/>
     <use x="1375.78125" xlink:href="#DejaVuSerif-32"/>
     <use x="1407.568359" xlink:href="#DejaVuSerif-40"/>
     <use x="1446.582031" xlink:href="#DejaVuSerif-71"/>
     <use x="1526.464844" xlink:href="#DejaVuSerif-111"/>
     <use x="1586.669922" xlink:href="#DejaVuSerif-108"/>
     <use x="1618.652344" xlink:href="#DejaVuSerif-100"/>
     <use x="1682.666016" xlink:href="#DejaVuSerif-41"/>
    </g>
   </g>
   <g id="PolyCollection_1">
    <path clip-path="url(#p8b2a6be010)" d="M 28.802812 14.725446 
L 28.802812 299.468304 
L 44.922812 299.468304 
L 44.922812 14.725446 
L 44.922812 14.725446 
L 28.802812 14.725446 
z
" style="fill:#808080;fill-opacity:0.8;"/>
   </g>
   <g id="PolyCollection_2">
    <path clip-path="url(#p8b2a6be010)" d="M 464.042812 14.725446 
L 464.042812 299.468304 
L 480.162812 299.468304 
L 480.162812 14.725446 
L 480.162812 14.725446 
L 464.042812 14.725446 
z
" style="fill:#808080;fill-opacity:0.8;"/>
   </g>
   <g id="PolyCollection_3">
    <path clip-path="url(#p8b2a6be010)" d="M 239.602812 14.725446 
L 239.602812 299.468304 
L 269.362813 299.468304 
L 269.362813 14.725446 
L 269.362813 14.725446 
L 239.602812 14.725446 
z
" style="fill:#808080;fill-opacity:0.8;"/>
   </g>
   <g id="legend_1">
    <g id="patch_7">
     <path d="M 222.834062 135.14375 
L 286.131562 135.14375 
Q 288.931562 135.14375 288.931562 132.34375 
L 288.931562 30.996875 
Q 288.931562 28.196875 286.131562 28.196875 
L 222.834062 28.196875 
Q 220.034062 28.196875 220.034062 30.996875 
L 220.034062 132.34375 
Q 220.034062 135.14375 222.834062 135.14375 
z
" style="fill:#ffffff;opacity:0.8;stroke:#cccccc;stroke-linejoin:miter;"/>
    </g>
    <g id="line2d_30">
     <path d="M 225.634062 39.534687 
L 253.634062 39.534687 
" style="fill:none;stroke:#1f77b4;stroke-linecap:square;stroke-width:2.5;"/>
    </g>
    <g id="line2d_31"/>
    <g id="text_15">
     <!-- A -->
     <defs>
      <path d="M 20.015625 26.421875 
L 46.78125 26.421875 
L 33.40625 61.078125 
z
M -0.59375 0 
L -0.59375 5.171875 
L 5.8125 5.171875 
L 31.78125 72.90625 
L 39.984375 72.90625 
L 66.015625 5.171875 
L 73.1875 5.171875 
L 73.1875 0 
L 46.6875 0 
L 46.6875 5.171875 
L 54.78125 5.171875 
L 48.6875 21.1875 
L 18.015625 21.1875 
L 11.921875 5.171875 
L 19.921875 5.171875 
L 19.921875 0 
z
" id="DejaVuSerif-65"/>
     </defs>
     <g transform="translate(264.834062 44.434687)scale(0.14 -0.14)">
      <use xlink:href="#DejaVuSerif-65"/>
     </g>
    </g>
    <g id="line2d_32">
     <path d="M 225.634062 60.084062 
L 253.634062 60.084062 
" style="fill:none;stroke:#ff7f0e;stroke-linecap:square;stroke-width:2.5;"/>
    </g>
    <g id="line2d_33"/>
    <g id="text_16">
     <!-- B -->
     <defs>
      <path d="M 24.703125 5.171875 
L 39.3125 5.171875 
Q 48.09375 5.171875 52.140625 8.984375 
Q 56.203125 12.796875 56.203125 21.09375 
Q 56.203125 29.34375 52.171875 33.125 
Q 48.140625 36.921875 39.3125 36.921875 
L 24.703125 36.921875 
z
M 24.703125 42.09375 
L 37.109375 42.09375 
Q 45.125 42.09375 48.796875 45.171875 
Q 52.484375 48.25 52.484375 54.890625 
Q 52.484375 61.578125 48.796875 64.625 
Q 45.125 67.671875 37.109375 67.671875 
L 24.703125 67.671875 
z
M 5.515625 0 
L 5.515625 5.171875 
L 14.796875 5.171875 
L 14.796875 67.671875 
L 5.515625 67.671875 
L 5.515625 72.90625 
L 41.5 72.90625 
Q 52.546875 72.90625 58.125 68.390625 
Q 63.71875 63.875 63.71875 54.890625 
Q 63.71875 48.390625 59.828125 44.53125 
Q 55.953125 40.671875 48.484375 39.796875 
Q 57.765625 38.625 62.578125 33.859375 
Q 67.390625 29.109375 67.390625 21.09375 
Q 67.390625 10.25 60.546875 5.125 
Q 53.71875 0 39.203125 0 
z
" id="DejaVuSerif-66"/>
     </defs>
     <g transform="translate(264.834062 64.984062)scale(0.14 -0.14)">
      <use xlink:href="#DejaVuSerif-66"/>
     </g>
    </g>
    <g id="line2d_34">
     <path d="M 225.634062 80.633437 
L 253.634062 80.633437 
" style="fill:none;stroke:#2ca02c;stroke-linecap:square;stroke-width:2.5;"/>
    </g>
    <g id="line2d_35"/>
    <g id="text_17">
     <!-- C -->
     <defs>
      <path d="M 70.515625 19.28125 
Q 67.28125 9.078125 59.6875 3.828125 
Q 52.09375 -1.421875 40.484375 -1.421875 
Q 33.34375 -1.421875 27.234375 1.015625 
Q 21.140625 3.46875 16.40625 8.203125 
Q 10.9375 13.671875 8.265625 20.625 
Q 5.609375 27.59375 5.609375 36.375 
Q 5.609375 53.375 15.421875 63.796875 
Q 25.25 74.21875 41.3125 74.21875 
Q 47.265625 74.21875 54 72.65625 
Q 60.75 71.09375 68.5 67.921875 
L 68.5 51.125 
L 62.984375 51.125 
Q 61.1875 60.296875 55.734375 64.640625 
Q 50.296875 69 40.484375 69 
Q 28.8125 69 22.796875 60.71875 
Q 16.796875 52.4375 16.796875 36.375 
Q 16.796875 20.359375 22.796875 12.078125 
Q 28.8125 3.8125 40.484375 3.8125 
Q 48.640625 3.8125 53.90625 7.6875 
Q 59.1875 11.578125 61.53125 19.28125 
z
" id="DejaVuSerif-67"/>
     </defs>
     <g transform="translate(264.834062 85.533437)scale(0.14 -0.14)">
      <use xlink:href="#DejaVuSerif-67"/>
     </g>
    </g>
    <g id="line2d_36">
     <path d="M 225.634062 101.182812 
L 253.634062 101.182812 
" style="fill:none;stroke:#d62728;stroke-linecap:square;stroke-width:2.5;"/>
    </g>
    <g id="line2d_37"/>
    <g id="text_18">
     <!-- S1 -->
     <defs>
      <path d="M 9.28125 3.515625 
L 9.28125 20.125 
L 14.890625 20.0625 
Q 15.140625 11.765625 19.703125 7.78125 
Q 24.265625 3.8125 33.59375 3.8125 
Q 42.28125 3.8125 46.84375 7.25 
Q 51.421875 10.6875 51.421875 17.28125 
Q 51.421875 22.5625 48.65625 25.390625 
Q 45.90625 28.21875 37.015625 30.90625 
L 27.390625 33.796875 
Q 16.9375 36.96875 12.671875 41.703125 
Q 8.40625 46.4375 8.40625 54.6875 
Q 8.40625 63.96875 14.984375 69.09375 
Q 21.578125 74.21875 33.5 74.21875 
Q 38.578125 74.21875 44.625 73.109375 
Q 50.6875 72.015625 57.515625 69.921875 
L 57.515625 54.390625 
L 52 54.390625 
Q 51.171875 62.109375 46.84375 65.546875 
Q 42.53125 69 33.6875 69 
Q 25.984375 69 21.953125 65.84375 
Q 17.921875 62.703125 17.921875 56.6875 
Q 17.921875 51.46875 20.9375 48.484375 
Q 23.96875 45.515625 33.796875 42.578125 
L 42.828125 39.890625 
Q 52.734375 36.921875 56.953125 32.296875 
Q 61.1875 27.6875 61.1875 19.921875 
Q 61.1875 9.328125 54.390625 3.953125 
Q 47.609375 -1.421875 34.1875 -1.421875 
Q 28.171875 -1.421875 21.9375 -0.1875 
Q 15.71875 1.03125 9.28125 3.515625 
z
" id="DejaVuSerif-83"/>
     </defs>
     <g transform="translate(264.834062 106.082812)scale(0.14 -0.14)">
      <use xlink:href="#DejaVuSerif-83"/>
      <use x="68.505859" xlink:href="#DejaVuSerif-49"/>
     </g>
    </g>
    <g id="line2d_38">
     <path d="M 225.634062 121.732187 
L 253.634062 121.732187 
" style="fill:none;stroke:#9467bd;stroke-linecap:square;stroke-width:2.5;"/>
    </g>
    <g id="line2d_39"/>
    <g id="text_19">
     <!-- S2 -->
     <defs>
      <path d="M 12.796875 55.515625 
L 7.328125 55.515625 
L 7.328125 68.5 
Q 12.546875 71.296875 17.84375 72.75 
Q 23.140625 74.21875 28.21875 74.21875 
Q 39.59375 74.21875 46.1875 68.703125 
Q 52.78125 63.1875 52.78125 53.71875 
Q 52.78125 43.015625 37.84375 28.125 
Q 36.671875 27 36.078125 26.421875 
L 17.671875 8.015625 
L 48.09375 8.015625 
L 48.09375 17 
L 53.8125 17 
L 53.8125 0 
L 6.78125 0 
L 6.78125 5.328125 
L 28.90625 27.390625 
Q 36.234375 34.71875 39.359375 40.84375 
Q 42.484375 46.96875 42.484375 53.71875 
Q 42.484375 61.078125 38.640625 65.234375 
Q 34.8125 69.390625 28.078125 69.390625 
Q 21.09375 69.390625 17.28125 65.921875 
Q 13.484375 62.453125 12.796875 55.515625 
z
" id="DejaVuSerif-50"/>
     </defs>
     <g transform="translate(264.834062 126.632187)scale(0.14 -0.14)">
      <use xlink:href="#DejaVuSerif-83"/>
      <use x="68.505859" xlink:href="#DejaVuSerif-50"/>
     </g>
    </g>
   </g>
  </g>
 </g>
 <defs>
  <clipPath id="p8b2a6be010">
   <rect height="271.8" width="446.4" x="31.282813" y="21.196875"/>
  </clipPath>
 </defs>
</svg>
