<svg id="Layer_3" data-name="Layer 3" xmlns="http://www.w3.org/2000/svg" xmlns:xlink="http://www.w3.org/1999/xlink" viewBox="0 0 742.69 390.19"><defs><style>.cls-1,.cls-10,.cls-27,.cls-4,.cls-5,.cls-8{fill:none;}.cls-2{clip-path:url(#clip-path);}.cls-3{clip-path:url(#clip-path-3);}.cls-26,.cls-27,.cls-4,.cls-5,.cls-6{stroke:#000;}.cls-4{stroke-linecap:round;stroke-width:4px;}.cls-10,.cls-12,.cls-13,.cls-26,.cls-27,.cls-4,.cls-5,.cls-6,.cls-8{stroke-miterlimit:10;}.cls-5{stroke-width:2px;}.cls-6{stroke-width:0.57px;}.cls-12,.cls-13,.cls-26,.cls-7{fill:#fff;}.cls-12,.cls-8{stroke:#ea49e6;}.cls-10,.cls-8{stroke-width:3px;}.cls-9{fill:#ea49e6;}.cls-10,.cls-13{stroke:#00d3cd;}.cls-11{fill:#00d3cd;}.cls-12,.cls-13,.cls-26,.cls-27{stroke-width:2.42px;}.cls-14{clip-path:url(#clip-path-5);}.cls-15{clip-path:url(#clip-path-7);}.cls-16,.cls-25{font-size:25px;}.cls-16{font-family:LinLibertineZ, Linux Libertine;}.cls-17{letter-spacing:-0.01em;}.cls-18,.cls-19,.cls-20,.cls-21,.cls-25{font-family:LinLibertine, Linux Libertine;}.cls-19{letter-spacing:0em;}.cls-20{letter-spacing:0.01em;}.cls-21{letter-spacing:0em;}.cls-22{letter-spacing:0.01em;}.cls-23{clip-path:url(#clip-path-9);}.cls-24{clip-path:url(#clip-path-10);}.cls-28,.cls-29{font-size:20px;}.cls-28{font-family:LinLibertineZI, Linux Libertine;}.cls-29{font-family:LinLibertineI, Linux Libertine;}</style><clipPath id="clip-path"><rect class="cls-1" x="65.24" y="169.32" width="18" height="16.5"/></clipPath><clipPath id="clip-path-3"><rect class="cls-1" x="66.44" y="196.02" width="18" height="16.5"/></clipPath><clipPath id="clip-path-5"><rect class="cls-1" x="469.59" y="169.31" width="18" height="16.5"/></clipPath><clipPath id="clip-path-7"><rect class="cls-1" x="470.79" y="196.01" width="18" height="16.5"/></clipPath><clipPath id="clip-path-9"><rect class="cls-1" x="234.04" y="11.15" width="21.64" height="20.04"/></clipPath><clipPath id="clip-path-10"><rect class="cls-1" x="610.82" y="11.15" width="21.64" height="20.04"/></clipPath></defs><g class="cls-2"><path d="M76.74,173.62a4.64,4.64,0,0,0,.2-1.4,2.45,2.45,0,0,0-2.7-2.6,4.45,4.45,0,0,0-3.7,2.1,2.13,2.13,0,0,0-2.2-2.1,2,2,0,0,0-1.8,1.4,10.16,10.16,0,0,0-.7,2.3c0,.2.2.2.3.2s.3,0,.4-.5c.4-1.7.9-2.8,1.7-2.8.4,0,.7.2.7,1.1a8.21,8.21,0,0,1-.4,2l-1.4,5.5a8.38,8.38,0,0,0-.2,1c0,.4.3.6.7.6a1,1,0,0,0,.9-.7s.3-1.2.5-1.8l.5-2.1c.1-.5.3-1.1.4-1.6a6.15,6.15,0,0,1,.3-1.1,7.22,7.22,0,0,1,1.6-2.2,3.71,3.71,0,0,1,2.3-.8c1,0,1.3.8,1.3,1.7a7.65,7.65,0,0,1-.2,1.5l-2.7,11c-.1.3-.1.3-.1.4,0,.4.3.6.7.6.7,0,.9-.7,1-1l2.6-10.7"/></g><g class="cls-2"><path d="M78.94,181.92a1.54,1.54,0,0,0,1.5,2.1c1.7,0,2.4-2.3,2.4-2.6s-.2-.2-.3-.2a.27.27,0,0,0-.3.3c-.4,1.3-1.1,2-1.8,2-.3,0-.4-.2-.4-.6a2.28,2.28,0,0,1,.3-1.1,6.94,6.94,0,0,0,.5-1.3,14.46,14.46,0,0,0,.8-2.1,1.09,1.09,0,0,0,.1-.5,1.48,1.48,0,0,0-1.6-1.4c-1.7,0-2.4,2.3-2.4,2.5s.2.2.3.2.2-.1.3-.3c.4-1.4,1.2-2,1.8-2,.3,0,.4.1.4.6a5,5,0,0,1-.5,1.7l-1.1,2.7m3.4-8.5c0-.3-.2-.6-.7-.6a.9.9,0,0,0-.9.9c0,.3.2.6.7.6A1,1,0,0,0,82.34,173.42Z"/></g><g class="cls-3"><path d="M77.74,200.32a4.64,4.64,0,0,0,.2-1.4,2.45,2.45,0,0,0-2.7-2.6,4.45,4.45,0,0,0-3.7,2.1,2.13,2.13,0,0,0-2.2-2.1,2,2,0,0,0-1.8,1.4,10.16,10.16,0,0,0-.7,2.3c0,.2.2.2.3.2s.3,0,.4-.5c.4-1.7.9-2.8,1.7-2.8.4,0,.7.2.7,1.1a8.21,8.21,0,0,1-.4,2l-1.4,5.5a8.38,8.38,0,0,0-.2,1c0,.4.3.6.7.6a1,1,0,0,0,.9-.7s.3-1.2.5-1.8l.5-2.1c.1-.5.3-1.1.4-1.6a6.15,6.15,0,0,1,.3-1.1,7.22,7.22,0,0,1,1.6-2.2,3.71,3.71,0,0,1,2.3-.8c1,0,1.3.8,1.3,1.7a7.65,7.65,0,0,1-.2,1.5l-2.7,11c-.1.3-.1.3-.1.4,0,.4.3.6.7.6.7,0,.9-.7,1-1l2.6-10.7"/></g><g class="cls-3"><path d="M82,203.92h1.7c.3,0,.5,0,.5-.4,0-.2-.2-.2-.5-.2h-1.6l.6-2.5v-.2c0-.3-.2-.5-.6-.5a.85.85,0,0,0-.8.7c-.1.4.1-.4-.6,2.5H79c-.3,0-.5,0-.5.4,0,.2.2.2.5.2h1.6l-1,3.9a7.38,7.38,0,0,0-.2,1.2,1.63,1.63,0,0,0,1.8,1.6c1.9,0,2.9-2.3,2.9-2.6s-.2-.2-.3-.2-.2,0-.4.3c-.5,1.1-1.3,2-2.2,2-.4,0-.6-.2-.6-.8,0-.2.1-.5.1-.7l1.3-4.7"/></g><line x1="47.72" y1="91.89" x2="182.74" y2="185.72"/><line class="cls-4" x1="47.72" y1="91.89" x2="173.46" y2="179.28"/><polygon points="182.74 185.72 165.95 181.98 172.77 178.79 173.38 171.3 182.74 185.72"/><line x1="191.04" y1="185.72" x2="326.95" y2="91"/><line class="cls-4" x1="191.04" y1="185.72" x2="317.69" y2="97.45"/><polygon points="326.95 91 317.61 105.43 316.99 97.94 310.18 94.76 326.95 91"/><line x1="595.69" y1="185.43" x2="731.61" y2="90.7"/><line class="cls-4" x1="595.69" y1="185.43" x2="722.34" y2="97.16"/><polygon points="731.61 90.7 722.27 105.14 721.65 97.64 714.83 94.47 731.61 90.7"/><line x1="191.04" y1="194.22" x2="299.74" y2="350.62"/><line class="cls-4" x1="191.04" y1="194.22" x2="293.29" y2="341.35"/><polygon points="299.74 350.62 285.31 341.26 292.81 340.65 295.99 333.84 299.74 350.62"/><line x1="450.93" y1="91.15" x2="585.94" y2="184.98"/><line class="cls-4" x1="450.93" y1="91.15" x2="576.67" y2="178.53"/><polygon points="585.94 184.98 569.16 181.23 575.97 178.05 576.58 170.55 585.94 184.98"/><line x1="595.39" y1="194.21" x2="704.09" y2="350.61"/><line class="cls-4" x1="595.39" y1="194.21" x2="697.64" y2="341.34"/><polygon points="704.09 350.62 689.66 341.25 697.16 340.64 700.34 333.83 704.09 350.62"/><line class="cls-5" x1="186.94" y1="320.92" x2="186.94" y2="59.52"/><polygon class="cls-6" points="191.24 61.52 182.74 61.52 186.94 51.42 191.24 61.52"/><line class="cls-5" x1="65.54" y1="189.82" x2="294.63" y2="189.82"/><polygon class="cls-6" points="292.83 194.12 292.83 185.62 302.83 189.82 292.83 194.12"/><line class="cls-7" x1="117.33" y1="138.32" x2="143.51" y2="103.22"/><line class="cls-8" x1="117.33" y1="138.32" x2="138.36" y2="110.12"/><polygon class="cls-9" points="142.11 115.1 143.51 103.22 132.52 107.95 142.11 115.1"/><line class="cls-7" x1="237.7" y1="260.13" x2="271.7" y2="232.54"/><line class="cls-8" x1="237.7" y1="260.13" x2="265.01" y2="237.97"/><polygon class="cls-9" points="267.42 243.72 271.7 232.54 259.88 234.42 267.42 243.72"/><line class="cls-7" x1="643.55" y1="260.15" x2="677.55" y2="232.56"/><line class="cls-10" x1="643.55" y1="260.15" x2="670.86" y2="237.98"/><polygon class="cls-11" points="673.27 243.73 677.55 232.56 665.74 234.44 673.27 243.73"/><line class="cls-7" x1="256.58" y1="139.05" x2="231.54" y2="103.13"/><line class="cls-8" x1="256.58" y1="139.05" x2="236.47" y2="110.19"/><polygon class="cls-9" points="242.38 108.21 231.54 103.13 232.56 115.05 242.38 108.21"/><line class="cls-7" x1="663.65" y1="139.23" x2="638.62" y2="103.31"/><line class="cls-10" x1="663.65" y1="139.23" x2="643.54" y2="110.38"/><polygon class="cls-11" points="649.45 108.39 638.62 103.31 639.63 115.23 649.45 108.39"/><line class="cls-7" x1="519.36" y1="139.86" x2="545.54" y2="104.76"/><line class="cls-10" x1="519.36" y1="139.86" x2="540.39" y2="111.66"/><polygon class="cls-11" points="544.14 116.64 545.54 104.76 534.55 109.49 544.14 116.64"/><circle class="cls-12" cx="519.23" cy="139.23" r="8.92"/><circle class="cls-9" cx="519.23" cy="139.23" r="3.15"/><circle class="cls-12" cx="663.65" cy="139.23" r="8.92"/><circle class="cls-9" cx="663.65" cy="139.23" r="3.15"/><circle class="cls-13" cx="237.06" cy="260.28" r="8.92"/><line class="cls-13" x1="231.42" y1="254.64" x2="242.71" y2="265.92"/><line class="cls-13" x1="242.71" y1="254.64" x2="231.42" y2="265.92"/><circle class="cls-13" cx="257.25" cy="138.82" r="8.92"/><line class="cls-13" x1="251.6" y1="133.18" x2="262.89" y2="144.46"/><line class="cls-13" x1="262.89" y1="133.18" x2="251.6" y2="144.46"/><circle class="cls-13" cx="116.77" cy="139.13" r="8.92"/><line class="cls-13" x1="111.13" y1="133.48" x2="122.42" y2="144.77"/><line class="cls-13" x1="122.42" y1="133.48" x2="111.13" y2="144.77"/><path class="cls-11" d="M112.53,171.83a1.85,1.85,0,0,0,.14-.38.3.3,0,0,0-.33-.31c-.25,0-.31.17-.36.33-1.8,4.1-2.82,5.95-7.55,5.95h-4a2.73,2.73,0,0,1-.6,0c-.28,0-.36,0-.36-.27a2.37,2.37,0,0,1,.13-.64l1.88-7.55h2.74c2.35,0,2.35.58,2.35,1.27a5.46,5.46,0,0,1-.19,1.36.74.74,0,0,0-.08.3.33.33,0,0,0,.36.31c.22,0,.3-.14.41-.56l1.58-6.47a.32.32,0,0,0-.34-.3c-.25,0-.3.16-.38.5-.58,2.1-1.08,2.73-3.63,2.73h-2.59l1.65-6.66c.25-1,.28-1.08,1.5-1.08h3.9c3.37,0,4.2.8,4.2,3.07a7,7,0,0,1-.11,1.47c0,.16,0,.36,0,.49a.32.32,0,0,0,.33.34c.31,0,.33-.17.39-.7l.55-4.78c.09-.74,0-.74-.74-.74h-14c-.55,0-.83,0-.83.55,0,.3.25.3.78.3,1,0,1.8,0,1.8.5a2.11,2.11,0,0,1-.14.66L97.3,176.12c-.28,1.08-.33,1.3-2.52,1.3-.47,0-.77,0-.77.52,0,.34.25.34.77.34h14.35c.64,0,.66,0,.86-.47l2.54-6"/><path class="cls-11" d="M124.06,154.24c0-.28,0-.75-.46-.75s-.48.45-.48.75v11.7h-5.89c-.29,0-.77,0-.77.46s.44.48.77.48H130c.31,0,.77,0,.77-.46s-.45-.48-.77-.48h-5.89v-11.7"/><path class="cls-11" d="M115.67,182.87a2.7,2.7,0,0,0-.17.81,1.71,1.71,0,0,0,1.83,1.64c1.93,0,2.78-2.66,2.78-2.95s-.25-.25-.31-.25c-.27,0-.29.11-.36.33-.45,1.54-1.3,2.33-2,2.33-.39,0-.48-.25-.48-.68a3,3,0,0,1,.31-1.23c.19-.52.4-1,.61-1.54s.87-2.22,1-2.45a2.34,2.34,0,0,0,.12-.62,1.72,1.72,0,0,0-1.84-1.64c-1.91,0-2.8,2.62-2.8,2.95s.27.25.33.25c.27,0,.29-.09.35-.31.5-1.66,1.35-2.35,2.06-2.35.31,0,.49.15.49.67a5.19,5.19,0,0,1-.6,1.93l-1.22,3.11m3.94-9.8a.74.74,0,0,0-.77-.74,1.15,1.15,0,0,0-1.08,1.07.74.74,0,0,0,.77.73A1.14,1.14,0,0,0,119.61,173.07Z"/><path class="cls-11" d="M284.16,150.78a2.76,2.76,0,0,0,.14-.38.3.3,0,0,0-.33-.31c-.25,0-.31.17-.36.33-1.8,4.1-2.82,6-7.55,6h-4a2.89,2.89,0,0,1-.61,0c-.27,0-.35-.05-.35-.28a2.42,2.42,0,0,1,.13-.63l1.88-7.55h2.74c2.35,0,2.35.58,2.35,1.27a5.46,5.46,0,0,1-.19,1.36.79.79,0,0,0-.09.3.32.32,0,0,0,.36.3c.23,0,.31-.13.42-.55l1.57-6.47a.31.31,0,0,0-.33-.3c-.25,0-.3.16-.38.5-.59,2.1-1.08,2.73-3.63,2.73h-2.6l1.66-6.66c.25-1,.28-1.08,1.5-1.08h3.89c3.38,0,4.21.8,4.21,3.07a7,7,0,0,1-.11,1.47c0,.16,0,.36,0,.49a.32.32,0,0,0,.33.34c.3,0,.33-.17.39-.7l.55-4.78c.08-.75-.05-.75-.75-.75H271c-.55,0-.83,0-.83.56,0,.3.25.3.78.3,1,0,1.79,0,1.79.5a2.25,2.25,0,0,1-.13.66l-3.65,14.63c-.28,1.08-.34,1.3-2.52,1.3-.47,0-.77,0-.77.52,0,.34.24.34.77.34h14.35c.64,0,.66,0,.86-.47l2.54-6"/><path class="cls-11" d="M295.69,133.19c0-.29,0-.75-.46-.75s-.49.45-.49.75v11.7h-5.88c-.29,0-.77,0-.77.46s.44.48.77.48h12.72c.3,0,.77,0,.77-.46s-.45-.48-.77-.48h-5.89v-11.7"/><path class="cls-11" d="M289.52,160.18c0-.12.46-1.85.5-2a4.73,4.73,0,0,1,1.22-1.58,2.49,2.49,0,0,1,1.56-.54,2,2,0,0,1,1.06.27,1.13,1.13,0,0,0-.85,1.06.72.72,0,0,0,.77.71,1.12,1.12,0,0,0,1.09-1.17c0-1-1.07-1.41-2.05-1.41a3.47,3.47,0,0,0-2.72,1.37,2,2,0,0,0-2-1.37,1.72,1.72,0,0,0-1.5,1,6.84,6.84,0,0,0-.72,2c0,.25.27.25.33.25.27,0,.29-.06.42-.58.29-1.18.66-2.08,1.41-2.08.51,0,.64.42.64.94a8.32,8.32,0,0,1-.31,1.61c-.13.52-.33,1.31-.42,1.73l-.62,2.47a6.37,6.37,0,0,0-.19.79.61.61,0,0,0,.65.62.9.9,0,0,0,.83-.56c0-.12.25-1,.37-1.45l.52-2.08"/><path class="cls-11" d="M219,290.05a2.78,2.78,0,0,0,.14-.39.29.29,0,0,0-.33-.3c-.25,0-.31.16-.36.33-1.8,4.09-2.82,5.94-7.55,5.94h-4a2.84,2.84,0,0,1-.61,0c-.27,0-.35-.05-.35-.27a2.37,2.37,0,0,1,.13-.64l1.88-7.55h2.74c2.35,0,2.35.58,2.35,1.27a5.46,5.46,0,0,1-.19,1.36.79.79,0,0,0-.09.3.33.33,0,0,0,.36.31c.22,0,.31-.14.42-.55l1.57-6.47a.31.31,0,0,0-.33-.31c-.25,0-.3.17-.39.5-.58,2.1-1.07,2.74-3.62,2.74h-2.6l1.66-6.67c.25-1,.28-1.07,1.5-1.07h3.89c3.38,0,4.21.8,4.21,3.06a7,7,0,0,1-.11,1.47c0,.16,0,.36,0,.5a.31.31,0,0,0,.33.33c.3,0,.33-.17.39-.69l.55-4.79c.08-.74-.05-.74-.75-.74h-14c-.55,0-.83,0-.83.55,0,.31.25.31.78.31,1,0,1.79,0,1.79.49a2.34,2.34,0,0,1-.13.67l-3.65,14.62c-.28,1.08-.34,1.3-2.52,1.3-.47,0-.78,0-.78.53,0,.33.25.33.78.33h14.35c.63,0,.66,0,.86-.47l2.54-6"/><path class="cls-11" d="M230.51,272.46c0-.29,0-.76-.46-.76s-.49.45-.49.76v11.69h-5.88c-.29,0-.77,0-.77.46s.44.48.77.48H236.4c.3,0,.77,0,.77-.46s-.45-.48-.77-.48h-5.89V272.46"/><path class="cls-11" d="M224.55,295.72h2c.37,0,.62,0,.62-.43,0-.27-.25-.27-.58-.27h-1.83l.71-2.85a1.68,1.68,0,0,0,.06-.27.62.62,0,0,0-.66-.62c-.48,0-.77.33-.91.83s.12-.44-.73,2.91h-2c-.36,0-.61,0-.61.43,0,.27.23.27.57.27H223l-1.14,4.55a10,10,0,0,0-.29,1.43,1.9,1.9,0,0,0,2.06,1.83c2.15,0,3.36-2.7,3.36-2.95s-.25-.25-.31-.25c-.23,0-.25,0-.4.37-.54,1.21-1.53,2.29-2.59,2.29-.4,0-.67-.25-.67-.94a5.18,5.18,0,0,1,.11-.79l1.39-5.54"/><path class="cls-11" d="M691.83,219a2.12,2.12,0,0,0,.14-.39.3.3,0,0,0-.33-.31c-.25,0-.3.17-.36.34-1.8,4.09-2.82,5.94-7.55,5.94h-4a2.79,2.79,0,0,1-.61,0c-.28,0-.36,0-.36-.27a2.22,2.22,0,0,1,.14-.64l1.88-7.55h2.73c2.35,0,2.35.58,2.35,1.27a5.46,5.46,0,0,1-.19,1.36.74.74,0,0,0-.08.3.33.33,0,0,0,.36.31c.22,0,.3-.14.41-.55l1.58-6.47a.32.32,0,0,0-.33-.31c-.25,0-.31.17-.39.5-.58,2.1-1.08,2.74-3.62,2.74H681l1.66-6.67c.24-1,.27-1.08,1.49-1.08H688c3.37,0,4.2.81,4.2,3.07a7,7,0,0,1-.11,1.47c0,.16,0,.36,0,.5a.32.32,0,0,0,.33.33c.31,0,.34-.17.39-.69l.55-4.79c.09-.74-.05-.74-.74-.74h-14c-.56,0-.83,0-.83.55,0,.3.24.3.77.3,1,0,1.8,0,1.8.5a2.19,2.19,0,0,1-.14.67l-3.65,14.62c-.28,1.08-.33,1.3-2.52,1.3-.47,0-.77,0-.77.53,0,.33.25.33.77.33h14.35c.64,0,.67,0,.86-.47l2.54-6"/><path class="cls-11" d="M702.44,197.44c0-.35,0-.83-.49-.83s-.46.44-.46.73v17.81c0,.29,0,.73.46.73s.49-.48.49-.83V197.44m-4.27-.1c0-.29,0-.73-.46-.73s-.48.48-.48.83v17.61c0,.35,0,.83.48.83s.46-.44.46-.73Z"/><path class="cls-11" d="M697.41,224.63h2c.37,0,.62,0,.62-.43,0-.27-.25-.27-.58-.27h-1.83l.71-2.85a2,2,0,0,0,.06-.27.62.62,0,0,0-.65-.62c-.49,0-.78.33-.91.83s.11-.44-.74,2.91h-2c-.37,0-.62,0-.62.43,0,.27.23.27.58.27h1.83l-1.14,4.55a11.26,11.26,0,0,0-.29,1.43,1.9,1.9,0,0,0,2.07,1.83c2.14,0,3.35-2.7,3.35-2.95s-.25-.25-.3-.25c-.24,0-.25,0-.41.37-.54,1.21-1.52,2.29-2.58,2.29-.41,0-.68-.25-.68-.94a5.19,5.19,0,0,1,.12-.79l1.39-5.54"/><path class="cls-11" d="M666,91.75a1.89,1.89,0,0,0,.14-.39.29.29,0,0,0-.33-.3c-.25,0-.31.16-.36.33-1.8,4.09-2.82,5.94-7.55,5.94h-4a2.73,2.73,0,0,1-.6,0c-.28,0-.36,0-.36-.27a2.44,2.44,0,0,1,.13-.64l1.88-7.55h2.74c2.35,0,2.35.58,2.35,1.28a5.46,5.46,0,0,1-.19,1.35.74.74,0,0,0-.08.3.33.33,0,0,0,.36.31c.22,0,.3-.14.41-.55l1.58-6.47a.32.32,0,0,0-.34-.31c-.24,0-.3.17-.38.5-.58,2.1-1.08,2.74-3.62,2.74h-2.6l1.65-6.67c.25-1,.28-1.07,1.5-1.07h3.9c3.37,0,4.2.8,4.2,3.06a7,7,0,0,1-.11,1.47c0,.17,0,.36,0,.5a.31.31,0,0,0,.33.33c.31,0,.33-.17.39-.69l.55-4.78c.09-.75,0-.75-.74-.75h-14c-.55,0-.83,0-.83.55,0,.31.25.31.78.31,1,0,1.8,0,1.8.49a2.19,2.19,0,0,1-.14.67L650.8,96c-.28,1.08-.33,1.3-2.52,1.3-.47,0-.77,0-.77.53,0,.33.25.33.77.33h14.35c.64,0,.66,0,.86-.47l2.54-6"/><path class="cls-11" d="M676.64,73.15c0-.34,0-.82-.49-.82s-.46.44-.46.73V90.87c0,.29,0,.73.46.73s.49-.48.49-.83V73.15m-4.27-.09c0-.29,0-.73-.46-.73s-.48.48-.48.82V90.77c0,.35,0,.83.48.83s.46-.44.46-.73Z"/><path class="cls-11" d="M671.39,101.14c0-.11.47-1.85.5-2a4.73,4.73,0,0,1,1.22-1.58,2.55,2.55,0,0,1,1.56-.54,2,2,0,0,1,1.06.27,1.16,1.16,0,0,0-.85,1.06.72.72,0,0,0,.78.72,1.13,1.13,0,0,0,1.08-1.18c0-1-1.06-1.41-2-1.41A3.5,3.5,0,0,0,672,97.9a2,2,0,0,0-2-1.37,1.73,1.73,0,0,0-1.5,1,6.92,6.92,0,0,0-.72,2c0,.25.27.25.33.25.27,0,.29,0,.43-.57.29-1.18.65-2.09,1.41-2.09.5,0,.63.43.63,1a8.23,8.23,0,0,1-.31,1.6c-.13.52-.32,1.31-.42,1.73l-.62,2.47a6.86,6.86,0,0,0-.19.8.61.61,0,0,0,.65.61.9.9,0,0,0,.83-.56c0-.11.26-1,.37-1.44l.52-2.09"/><path class="cls-11" d="M556.25,91.74a2.48,2.48,0,0,0,.13-.39.29.29,0,0,0-.33-.3c-.25,0-.3.16-.36.33-1.79,4.09-2.82,5.94-7.54,5.94h-4a2.84,2.84,0,0,1-.61,0c-.28,0-.36-.05-.36-.27a2.29,2.29,0,0,1,.14-.64l1.88-7.55h2.74c2.35,0,2.35.59,2.35,1.28a5.2,5.2,0,0,1-.2,1.35,1,1,0,0,0-.08.3.33.33,0,0,0,.36.31c.22,0,.3-.14.41-.55l1.58-6.47a.32.32,0,0,0-.33-.31c-.25,0-.31.17-.39.5C551,87.34,550.52,88,548,88h-2.6L547,81.31c.25-1,.28-1.07,1.49-1.07h3.9c3.37,0,4.2.8,4.2,3.06a7,7,0,0,1-.11,1.47c0,.17,0,.36,0,.5a.32.32,0,0,0,.34.33c.3,0,.33-.17.38-.69l.56-4.78c.08-.75-.06-.75-.75-.75h-14c-.55,0-.83,0-.83.55,0,.31.25.31.77.31,1,0,1.8,0,1.8.49a2.19,2.19,0,0,1-.14.67L541,96c-.27,1.08-.33,1.3-2.51,1.3-.47,0-.78,0-.78.53,0,.33.25.33.78.33h14.35c.63,0,.66,0,.85-.47l2.55-6"/><path class="cls-11" d="M566.85,70.22c0-.35,0-.83-.48-.83s-.47.44-.47.73V87.93c0,.29,0,.73.47.73s.48-.48.48-.83V70.22m-4.26-.1c0-.29,0-.73-.47-.73s-.48.48-.48.83V87.83c0,.35,0,.83.48.83s.47-.44.47-.73Z"/><path class="cls-11" d="M559.39,103.62a2.42,2.42,0,0,0-.18.81,1.72,1.72,0,0,0,1.84,1.64c1.93,0,2.77-2.66,2.77-2.95s-.25-.25-.3-.25c-.27,0-.29.11-.37.33-.44,1.54-1.29,2.33-2,2.33-.38,0-.48-.25-.48-.67a3.19,3.19,0,0,1,.31-1.24c.19-.52.41-1,.62-1.54s.87-2.22.94-2.45a2.34,2.34,0,0,0,.12-.62,1.71,1.71,0,0,0-1.83-1.64c-1.91,0-2.8,2.62-2.8,2.95s.27.25.33.25c.27,0,.29-.09.34-.31.51-1.66,1.35-2.35,2.07-2.35.31,0,.48.15.48.67a5.19,5.19,0,0,1-.6,1.93l-1.21,3.11m3.93-9.8a.73.73,0,0,0-.77-.73,1.14,1.14,0,0,0-1.08,1.06.74.74,0,0,0,.77.73A1.14,1.14,0,0,0,563.32,93.82Z"/><path class="cls-9" d="M515.42,159.41c.25-1,.3-1.27,2.32-1.27.72,0,.94,0,.94-.55,0-.3-.3-.3-.38-.3-.78,0-2.77.08-3.54.08s-2.77-.08-3.57-.08c-.22,0-.53,0-.53.55,0,.3.25.3.78.3a9.33,9.33,0,0,1,1.05.06c.5.05.75.08.75.44a3.09,3.09,0,0,1-.11.53l-1.66,6.74H503l1.63-6.5c.25-1,.34-1.27,2.33-1.27.72,0,.94,0,.94-.55,0-.3-.31-.3-.39-.3-.77,0-2.77.08-3.54.08s-2.76-.08-3.56-.08c-.23,0-.53,0-.53.55,0,.3.25.3.77.3a9.23,9.23,0,0,1,1.05.06c.5.05.75.08.75.44a2.75,2.75,0,0,1-.11.53L498.67,174c-.28,1.08-.34,1.3-2.52,1.3-.5,0-.75,0-.75.56,0,.3.33.3.39.3.77,0,2.74-.08,3.51-.08l1.77,0c.61,0,1.22.06,1.8.06.22,0,.55,0,.55-.55,0-.31-.25-.31-.77-.31-1,0-1.8,0-1.8-.5a2.72,2.72,0,0,1,.08-.47l1.88-7.57h8.44c-1.17,4.59-1.8,7.22-1.91,7.63-.28.88-.8.91-2.52.91-.41,0-.66,0-.66.56,0,.3.33.3.38.3.78,0,2.74-.08,3.52-.08l1.77,0c.6,0,1.21.06,1.79.06.22,0,.56,0,.56-.55,0-.31-.25-.31-.78-.31-1,0-1.8,0-1.8-.5a2.77,2.77,0,0,1,.09-.47l3.73-14.93"/><path class="cls-9" d="M528.66,152.14c0-.29,0-.75-.46-.75s-.48.44-.48.75v11.69h-5.89c-.29,0-.77,0-.77.46s.44.49.77.49h12.72c.31,0,.77,0,.77-.47s-.44-.48-.77-.48h-5.89V152.14"/><path class="cls-9" d="M519.58,180.76a2.48,2.48,0,0,0-.17.81,1.71,1.71,0,0,0,1.83,1.64c1.93,0,2.78-2.66,2.78-3s-.25-.25-.31-.25c-.27,0-.29.12-.37.33-.44,1.54-1.29,2.33-2,2.33-.39,0-.48-.25-.48-.67a3.22,3.22,0,0,1,.3-1.24c.2-.52.41-1,.62-1.54s.87-2.22,1-2.45a2.18,2.18,0,0,0,.11-.62,1.72,1.72,0,0,0-1.83-1.64c-1.91,0-2.8,2.63-2.8,3s.27.26.33.26c.27,0,.29-.1.35-.31.5-1.66,1.35-2.36,2.06-2.36.31,0,.48.16.48.68a5.19,5.19,0,0,1-.59,1.93l-1.22,3.1m3.94-9.8a.73.73,0,0,0-.77-.73,1.14,1.14,0,0,0-1.09,1.06.74.74,0,0,0,.78.73A1.14,1.14,0,0,0,523.52,171Z"/><path class="cls-9" d="M693.44,143.5c.24-1,.3-1.27,2.32-1.27.72,0,.94,0,.94-.55,0-.31-.31-.31-.39-.31-.77,0-2.76.08-3.54.08s-2.76-.08-3.57-.08c-.22,0-.52,0-.52.56,0,.3.25.3.77.3.06,0,.58,0,1,.05s.75.09.75.45a3.07,3.07,0,0,1-.11.52L689.48,150h-8.43l1.63-6.5c.25-1,.33-1.27,2.32-1.27.72,0,.94,0,.94-.55,0-.31-.3-.31-.38-.31-.78,0-2.77.08-3.54.08s-2.77-.08-3.57-.08c-.22,0-.53,0-.53.56,0,.3.25.3.78.3,0,0,.58,0,1,.05s.75.09.75.45a2.58,2.58,0,0,1-.11.52l-3.71,14.85c-.28,1.08-.33,1.3-2.52,1.3-.49,0-.74,0-.74.55,0,.31.33.31.38.31.78,0,2.74-.09,3.52-.09l1.77,0c.6,0,1.21.06,1.79.06.22,0,.56,0,.56-.56,0-.3-.25-.3-.78-.3-1,0-1.8,0-1.8-.5a2.77,2.77,0,0,1,.09-.47l1.88-7.57h8.43c-1.16,4.59-1.8,7.21-1.91,7.63-.27.88-.8.91-2.51.91-.42,0-.67,0-.67.55,0,.31.33.31.39.31.77,0,2.74-.09,3.51-.09l1.77,0c.61,0,1.22.06,1.8.06.22,0,.55,0,.55-.56,0-.3-.25-.3-.77-.3-1,0-1.8,0-1.8-.5a4.2,4.2,0,0,1,.08-.47l3.74-14.93"/><path class="cls-9" d="M706.68,136.22c0-.29,0-.75-.47-.75s-.48.45-.48.75v11.7h-5.88c-.29,0-.77,0-.77.46s.44.48.77.48h12.71c.31,0,.77,0,.77-.46s-.44-.48-.77-.48h-5.88v-11.7"/><path class="cls-9" d="M699.82,163.21c0-.12.46-1.85.5-2a4.66,4.66,0,0,1,1.21-1.58,2.52,2.52,0,0,1,1.56-.54,2.05,2.05,0,0,1,1.07.27,1.13,1.13,0,0,0-.85,1.06.72.72,0,0,0,.77.71,1.12,1.12,0,0,0,1.08-1.17c0-1-1.06-1.41-2-1.41a3.47,3.47,0,0,0-2.72,1.37,2,2,0,0,0-2-1.37,1.72,1.72,0,0,0-1.51,1,7,7,0,0,0-.71,2c0,.25.27.25.33.25.27,0,.28-.06.42-.58.29-1.17.66-2.08,1.41-2.08.5,0,.64.42.64.94a9.15,9.15,0,0,1-.31,1.61c-.14.52-.33,1.31-.43,1.73l-.62,2.47c-.07.25-.19.73-.19.79a.62.62,0,0,0,.66.62.91.91,0,0,0,.83-.56c0-.12.25-1,.36-1.45l.53-2.08"/><path class="cls-9" d="M614.48,270.76c.25-1,.31-1.28,2.32-1.28.72,0,.94,0,.94-.55,0-.3-.3-.3-.38-.3-.78,0-2.77.08-3.54.08s-2.77-.08-3.57-.08c-.22,0-.52,0-.52.55,0,.3.24.3.77.3a9.23,9.23,0,0,1,1,.06c.5,0,.75.08.75.44a3.09,3.09,0,0,1-.11.53l-1.66,6.74h-8.44l1.64-6.49c.25-1,.33-1.28,2.32-1.28.72,0,.94,0,.94-.55,0-.3-.3-.3-.39-.3-.77,0-2.76.08-3.54.08s-2.76-.08-3.56-.08c-.22,0-.53,0-.53.55,0,.3.25.3.78.3a9.33,9.33,0,0,1,1,.06c.49,0,.74.08.74.44a2.1,2.1,0,0,1-.11.53l-3.7,14.84c-.28,1.08-.33,1.3-2.52,1.3-.5,0-.75,0-.75.56,0,.3.34.3.39.3.78,0,2.74-.08,3.51-.08l1.77,0c.61,0,1.22.06,1.8.06.22,0,.55,0,.55-.55,0-.31-.25-.31-.77-.31-1,0-1.8,0-1.8-.49a3.55,3.55,0,0,1,.08-.47l1.88-7.58h8.44c-1.17,4.59-1.8,7.22-1.91,7.63-.28.88-.8.91-2.52.91-.41,0-.66,0-.66.56,0,.3.33.3.39.3.77,0,2.73-.08,3.51-.08l1.77,0c.61,0,1.21.06,1.8.06.22,0,.55,0,.55-.55,0-.31-.25-.31-.78-.31-1,0-1.79,0-1.79-.49a2.43,2.43,0,0,1,.08-.47l3.73-14.93"/><path class="cls-9" d="M627.72,263.48c0-.29,0-.75-.46-.75s-.48.44-.48.75v11.69h-5.89c-.29,0-.77,0-.77.46s.45.49.77.49h12.72c.31,0,.77,0,.77-.47s-.44-.48-.77-.48h-5.89V263.48"/><path class="cls-9" d="M621.07,286.74h2c.37,0,.62,0,.62-.42s-.25-.28-.58-.28h-1.83l.71-2.85a1.68,1.68,0,0,0,.06-.27.62.62,0,0,0-.66-.62c-.48,0-.77.33-.9.83s.11-.44-.74,2.91h-2c-.37,0-.62,0-.62.43,0,.27.23.27.58.27h1.83l-1.14,4.55a11.61,11.61,0,0,0-.29,1.43,1.9,1.9,0,0,0,2.07,1.83c2.14,0,3.35-2.7,3.35-2.95s-.25-.25-.3-.25c-.24,0-.26,0-.41.37-.54,1.21-1.53,2.29-2.59,2.29-.4,0-.67-.25-.67-.94a7.14,7.14,0,0,1,.11-.79l1.39-5.54"/><path class="cls-9" d="M293.3,227.56c.25-1,.3-1.27,2.32-1.27.72,0,.94,0,.94-.56,0-.3-.3-.3-.39-.3-.77,0-2.76.08-3.53.08s-2.77-.08-3.57-.08c-.22,0-.53,0-.53.55,0,.31.25.31.78.31.05,0,.58,0,1.05.05s.75.09.75.44a3.09,3.09,0,0,1-.11.53l-1.66,6.75h-8.44l1.63-6.5c.25-1,.34-1.27,2.33-1.27.72,0,.94,0,.94-.56,0-.3-.31-.3-.39-.3-.77,0-2.77.08-3.54.08s-2.76-.08-3.57-.08c-.22,0-.52,0-.52.55,0,.31.25.31.77.31.06,0,.58,0,1.05.05s.75.09.75.44a2.61,2.61,0,0,1-.11.53l-3.7,14.85c-.28,1.08-.34,1.3-2.52,1.3-.5,0-.75,0-.75.55,0,.3.33.3.39.3.77,0,2.74-.08,3.51-.08l1.77,0c.61,0,1.22.05,1.8.05.22,0,.55,0,.55-.55,0-.3-.25-.3-.77-.3-1,0-1.8,0-1.8-.5a2.43,2.43,0,0,1,.08-.47l1.88-7.58h8.43c-1.16,4.59-1.79,7.22-1.9,7.63-.28.89-.81.92-2.52.92-.41,0-.66,0-.66.55,0,.3.33.3.38.3.78,0,2.74-.08,3.52-.08l1.77,0c.6,0,1.21.05,1.79.05.22,0,.56,0,.56-.55,0-.3-.25-.3-.78-.3-1,0-1.8,0-1.8-.5a2.44,2.44,0,0,1,.09-.47l3.73-14.93"/><path class="cls-9" d="M305.62,216.35c0-.34,0-.83-.49-.83s-.46.45-.46.74v17.81c0,.29,0,.73.46.73s.49-.48.49-.83V216.35m-4.27-.09c0-.29,0-.74-.46-.74s-.48.49-.48.83V234c0,.35,0,.83.48.83s.46-.44.46-.73Z"/><path class="cls-9" d="M299.89,243.54h2c.37,0,.62,0,.62-.42s-.25-.27-.58-.27h-1.84l.72-2.86a1.47,1.47,0,0,0,.06-.27.62.62,0,0,0-.66-.61c-.48,0-.77.32-.91.83s.12-.45-.73,2.91h-2c-.36,0-.61,0-.61.42,0,.27.23.27.57.27h1.84l-1.14,4.56a9.47,9.47,0,0,0-.29,1.43,1.9,1.9,0,0,0,2.06,1.83c2.15,0,3.36-2.7,3.36-3s-.25-.25-.31-.25c-.23,0-.25,0-.4.36-.54,1.22-1.53,2.3-2.59,2.3-.4,0-.67-.25-.67-.95a5.36,5.36,0,0,1,.11-.79l1.39-5.54"/><path class="cls-9" d="M245.93,82.21c.25-1,.3-1.28,2.32-1.28.72,0,.94,0,.94-.55,0-.3-.3-.3-.39-.3-.77,0-2.76.08-3.53.08s-2.77-.08-3.57-.08c-.22,0-.53,0-.53.55,0,.3.25.3.78.3A9.33,9.33,0,0,1,243,81c.5.05.75.08.75.44a2.63,2.63,0,0,1-.12.53L242,88.7h-8.44l1.63-6.49c.25-1,.34-1.28,2.33-1.28.72,0,.94,0,.94-.55,0-.3-.31-.3-.39-.3-.77,0-2.77.08-3.54.08s-2.76-.08-3.57-.08c-.22,0-.52,0-.52.55,0,.3.25.3.77.3a9.23,9.23,0,0,1,1.05.06c.5.05.75.08.75.44a2.75,2.75,0,0,1-.11.53l-3.7,14.84c-.28,1.08-.34,1.3-2.52,1.3-.5,0-.75,0-.75.56,0,.3.33.3.39.3.77,0,2.74-.08,3.51-.08l1.77,0c.61,0,1.22,0,1.8,0,.22,0,.55,0,.55-.55,0-.31-.25-.31-.77-.31-1,0-1.8,0-1.8-.49a2.43,2.43,0,0,1,.08-.47l1.88-7.58h8.43c-1.16,4.59-1.79,7.22-1.9,7.63-.28.89-.81.91-2.52.91-.41,0-.66,0-.66.56,0,.3.33.3.38.3.78,0,2.74-.08,3.52-.08.58,0,1.18,0,1.77,0s1.21,0,1.79,0c.22,0,.55,0,.55-.55,0-.31-.24-.31-.77-.31-1,0-1.8,0-1.8-.49a2.44,2.44,0,0,1,.09-.47l3.73-14.93"/><path class="cls-9" d="M258.25,73.93c0-.35,0-.83-.49-.83s-.46.44-.46.73V91.64c0,.29,0,.73.46.73s.49-.48.49-.83V73.93m-4.27-.1c0-.29,0-.73-.46-.73s-.48.48-.48.83V91.54c0,.35,0,.83.48.83s.46-.44.46-.73Z"/><path class="cls-9" d="M252.31,101.91c0-.11.46-1.85.5-1.94A4.74,4.74,0,0,1,254,98.38a2.55,2.55,0,0,1,1.56-.54,2,2,0,0,1,1.06.27,1.15,1.15,0,0,0-.85,1.06.72.72,0,0,0,.77.72,1.12,1.12,0,0,0,1.08-1.18c0-1-1.06-1.41-2-1.41a3.49,3.49,0,0,0-2.72,1.37,2,2,0,0,0-2-1.37,1.72,1.72,0,0,0-1.5,1,6.92,6.92,0,0,0-.72,2c0,.26.27.26.33.26.27,0,.29-.06.42-.58.29-1.18.66-2.09,1.41-2.09.51,0,.64.43.64,1a8.1,8.1,0,0,1-.31,1.6c-.13.52-.33,1.31-.42,1.74l-.62,2.47a6.37,6.37,0,0,0-.19.79.61.61,0,0,0,.65.61.91.91,0,0,0,.83-.55c0-.12.25-1,.37-1.45l.52-2.09"/><path class="cls-9" d="M123.62,80.11c.25-1,.3-1.27,2.32-1.27.72,0,.94,0,.94-.56,0-.3-.3-.3-.38-.3-.78,0-2.77.08-3.54.08s-2.77-.08-3.57-.08c-.22,0-.52,0-.52.55,0,.31.24.31.77.31.06,0,.58,0,1,0s.75.08.75.44a3.09,3.09,0,0,1-.11.53l-1.66,6.75h-8.44l1.64-6.5c.24-1,.33-1.27,2.32-1.27.72,0,.94,0,.94-.56,0-.3-.31-.3-.39-.3-.77,0-2.76.08-3.54.08s-2.76-.08-3.56-.08c-.23,0-.53,0-.53.55,0,.31.25.31.78.31,0,0,.57,0,1,0s.74.08.74.44a2.61,2.61,0,0,1-.11.53l-3.7,14.85c-.28,1.07-.34,1.29-2.52,1.29-.5,0-.75,0-.75.56,0,.3.34.3.39.3.78,0,2.74-.08,3.51-.08l1.77,0c.61,0,1.22,0,1.8,0,.22,0,.55,0,.55-.55,0-.31-.25-.31-.77-.31-1,0-1.8,0-1.8-.49a3.55,3.55,0,0,1,.08-.47L111,87.46h8.44c-1.17,4.59-1.8,7.22-1.91,7.63-.28.89-.8.91-2.52.91-.41,0-.66,0-.66.56,0,.3.33.3.39.3.77,0,2.73-.08,3.51-.08l1.77,0c.6,0,1.21,0,1.79,0,.22,0,.56,0,.56-.55,0-.31-.25-.31-.78-.31-1,0-1.79,0-1.79-.49a2.43,2.43,0,0,1,.08-.47l3.73-14.93"/><path class="cls-9" d="M135.94,68.9c0-.34,0-.83-.48-.83s-.47.45-.47.74V86.62c0,.28,0,.73.47.73s.48-.48.48-.83V68.9m-4.27-.09c0-.29,0-.74-.46-.74s-.48.49-.48.83V86.52c0,.35,0,.83.48.83s.46-.45.46-.73Z"/><path class="cls-9" d="M127.78,102.3a2.76,2.76,0,0,0-.17.81,1.71,1.71,0,0,0,1.83,1.64c1.93,0,2.78-2.66,2.78-3s-.25-.25-.31-.25c-.27,0-.29.12-.37.33-.44,1.54-1.29,2.33-2,2.33-.39,0-.48-.25-.48-.67a3.07,3.07,0,0,1,.31-1.24c.19-.52.4-1,.61-1.54s.87-2.22.95-2.45a2.18,2.18,0,0,0,.11-.62,1.72,1.72,0,0,0-1.83-1.64c-1.91,0-2.8,2.63-2.8,3s.27.26.33.26c.27,0,.29-.1.35-.31.5-1.66,1.35-2.36,2.06-2.36.31,0,.49.16.49.68a5.3,5.3,0,0,1-.6,1.93l-1.22,3.1m3.94-9.8a.73.73,0,0,0-.77-.73,1.13,1.13,0,0,0-1.08,1.06.74.74,0,0,0,.77.73A1.14,1.14,0,0,0,131.72,92.5Z"/><g class="cls-14"><path d="M481.09,173.61a4.64,4.64,0,0,0,.2-1.4,2.45,2.45,0,0,0-2.7-2.6,4.45,4.45,0,0,0-3.7,2.1,2.13,2.13,0,0,0-2.2-2.1,2,2,0,0,0-1.8,1.4,10.16,10.16,0,0,0-.7,2.3c0,.2.2.2.3.2s.3,0,.4-.5c.4-1.7.9-2.8,1.7-2.8.4,0,.7.2.7,1.1a8.21,8.21,0,0,1-.4,2l-1.4,5.5a8.38,8.38,0,0,0-.2,1c0,.4.3.6.7.6a1,1,0,0,0,.9-.7s.3-1.2.5-1.8l.5-2.1c.1-.5.3-1.1.4-1.6a6.15,6.15,0,0,1,.3-1.1,7.22,7.22,0,0,1,1.6-2.2,3.71,3.71,0,0,1,2.3-.8c1,0,1.3.8,1.3,1.7a7.65,7.65,0,0,1-.2,1.5l-2.7,11c-.1.3-.1.3-.1.4,0,.4.3.6.7.6.7,0,.9-.7,1-1l2.6-10.7"/></g><g class="cls-14"><path d="M483.29,181.91a1.54,1.54,0,0,0,1.5,2.1c1.7,0,2.4-2.3,2.4-2.6s-.2-.2-.3-.2a.27.27,0,0,0-.3.3c-.4,1.3-1.1,2-1.8,2-.3,0-.4-.2-.4-.6a2.28,2.28,0,0,1,.3-1.1,6.94,6.94,0,0,0,.5-1.3,14.46,14.46,0,0,0,.8-2.1,1.09,1.09,0,0,0,.1-.5,1.48,1.48,0,0,0-1.6-1.4c-1.7,0-2.4,2.3-2.4,2.5s.2.2.3.2.2-.1.3-.3c.4-1.4,1.2-2,1.8-2,.3,0,.4.1.4.6a5,5,0,0,1-.5,1.7l-1.1,2.7m3.4-8.5c0-.3-.2-.6-.7-.6a.9.9,0,0,0-.9.9c0,.3.2.6.7.6A1,1,0,0,0,486.69,173.41Z"/></g><g class="cls-15"><path d="M482.09,200.31a4.64,4.64,0,0,0,.2-1.4,2.45,2.45,0,0,0-2.7-2.6,4.45,4.45,0,0,0-3.7,2.1,2.13,2.13,0,0,0-2.2-2.1,2,2,0,0,0-1.8,1.4,10.16,10.16,0,0,0-.7,2.3c0,.2.2.2.3.2s.3,0,.4-.5c.4-1.7.9-2.8,1.7-2.8.4,0,.7.2.7,1.1a8.21,8.21,0,0,1-.4,2l-1.4,5.5a8.38,8.38,0,0,0-.2,1c0,.4.3.6.7.6a1,1,0,0,0,.9-.7s.3-1.2.5-1.8l.5-2.1c.1-.5.3-1.1.4-1.6a6.15,6.15,0,0,1,.3-1.1,7.22,7.22,0,0,1,1.6-2.2,3.71,3.71,0,0,1,2.3-.8c1,0,1.3.8,1.3,1.7a7.65,7.65,0,0,1-.2,1.5l-2.7,11c-.1.3-.1.3-.1.4,0,.4.3.6.7.6.7,0,.9-.7,1-1l2.6-10.7"/></g><g class="cls-15"><path d="M486.39,203.91h1.7c.3,0,.5,0,.5-.4,0-.2-.2-.2-.5-.2h-1.6l.6-2.5v-.2c0-.3-.2-.5-.6-.5a.85.85,0,0,0-.8.7c-.1.4.1-.4-.6,2.5h-1.7c-.3,0-.5,0-.5.4,0,.2.2.2.5.2H485l-1,3.9a7.38,7.38,0,0,0-.2,1.2,1.63,1.63,0,0,0,1.8,1.6c1.9,0,2.9-2.3,2.9-2.6s-.2-.2-.3-.2-.2,0-.4.3c-.5,1.1-1.3,2-2.2,2-.4,0-.6-.2-.6-.8,0-.2.1-.5.1-.7l1.3-4.7"/></g><line class="cls-5" x1="591.29" y1="320.91" x2="591.29" y2="59.51"/><polygon class="cls-6" points="595.59 61.52 587.09 61.52 591.28 51.41 595.59 61.52"/><line class="cls-5" x1="469.89" y1="189.81" x2="698.98" y2="189.81"/><polygon class="cls-6" points="697.18 194.12 697.18 185.62 707.18 189.81 697.18 194.12"/><text class="cls-16" transform="translate(51.34 30.31)"><tspan class="cls-17">(</tspan><tspan x="7.57" y="0">a) P</tspan><tspan class="cls-18" x="47.33" y="0">e</tspan><tspan class="cls-19" x="58.5" y="0">r</tspan><tspan class="cls-20" x="67.83" y="0">p</tspan><tspan class="cls-21" x="80.97" y="0">endicular</tspan></text><text class="cls-16" transform="translate(492.1 30.31)"><tspan class="cls-22">(</tspan><tspan x="8.18" y="0">b) </tspan><tspan class="cls-18" x="34.92" y="0">Parallel</tspan></text><g class="cls-23"><path d="M253.37,24.16a2.11,2.11,0,0,0,.15-.4.31.31,0,0,0-.35-.32c-.26,0-.31.18-.37.35-1.87,4.26-2.94,6.19-7.86,6.19h-4.2a3.13,3.13,0,0,1-.64,0c-.29,0-.37-.06-.37-.29a2.47,2.47,0,0,1,.14-.66l2-7.86h2.85c2.45,0,2.45.61,2.45,1.33a5.67,5.67,0,0,1-.2,1.41.83.83,0,0,0-.09.31.33.33,0,0,0,.37.32c.23,0,.32-.14.43-.58l1.65-6.73a.33.33,0,0,0-.35-.32c-.26,0-.32.17-.4.52-.61,2.19-1.12,2.85-3.77,2.85h-2.71l1.73-6.94c.26-1,.29-1.12,1.55-1.12h4.06c3.51,0,4.38.83,4.38,3.19a6.93,6.93,0,0,1-.12,1.53c0,.17,0,.37,0,.52a.33.33,0,0,0,.35.34c.31,0,.34-.17.4-.72l.58-5c.08-.77-.06-.77-.78-.77H239.64c-.57,0-.86,0-.86.57,0,.32.26.32.81.32,1.06,0,1.87,0,1.87.52a2.22,2.22,0,0,1-.15.69l-3.8,15.23c-.29,1.12-.34,1.35-2.62,1.35-.49,0-.8,0-.8.55,0,.34.26.34.8.34h14.94c.66,0,.69,0,.9-.49l2.64-6.22"/></g><g class="cls-24"><path d="M630.16,24.16a1.93,1.93,0,0,0,.14-.4.31.31,0,0,0-.34-.32c-.26,0-.32.18-.38.35-1.87,4.26-2.93,6.19-7.85,6.19h-4.21a3,3,0,0,1-.63,0c-.29,0-.37-.06-.37-.29a2.47,2.47,0,0,1,.14-.66l2-7.86h2.85c2.44,0,2.44.61,2.44,1.33a5.67,5.67,0,0,1-.2,1.41.78.78,0,0,0-.08.31.33.33,0,0,0,.37.32c.23,0,.32-.14.43-.58l1.64-6.73a.32.32,0,0,0-.34-.32c-.26,0-.32.17-.41.52-.6,2.19-1.12,2.85-3.77,2.85h-2.7l1.72-6.94c.26-1,.29-1.12,1.56-1.12h4.06c3.51,0,4.37.83,4.37,3.19a7.55,7.55,0,0,1-.11,1.53c0,.17,0,.37,0,.52a.32.32,0,0,0,.34.34c.32,0,.35-.17.41-.72l.57-5c.09-.77,0-.77-.77-.77H616.43c-.58,0-.87,0-.87.57,0,.32.26.32.81.32,1.07,0,1.87,0,1.87.52a2.36,2.36,0,0,1-.14.69l-3.8,15.23C614,29.75,614,30,611.68,30c-.49,0-.81,0-.81.55,0,.34.26.34.81.34h14.94c.66,0,.69,0,.89-.49l2.65-6.22"/></g><path d="M9.61,287.92a.72.72,0,0,1-.44.1.7.7,0,0,1-.46-.1c0-1.57,0-2.48,0-2.72s0-.87,0-2.2a.69.69,0,0,1,.46-.12.63.63,0,0,1,.44.12,3,3,0,0,0,.23.85,2.76,2.76,0,0,0,.31.58,1.7,1.7,0,0,0,.52.44l.56.3.69.28,12.68,5.18c.38.14.58.34.59.6s-.2.42-.59.57l-12.73,4.93a7.12,7.12,0,0,0-1.82.9A2.13,2.13,0,0,0,9.61,299a.67.67,0,0,1-.45.12.75.75,0,0,1-.45-.1c0-1.57,0-2.44,0-2.6,0-.45,0-1.46,0-3a.86.86,0,0,1,.46-.09.78.78,0,0,1,.44.09c.09.84.26,1.34.5,1.49s.74.08,1.48-.22l10.13-4v-.12l-10-3.94a1.89,1.89,0,0,0-1.53-.23C9.88,286.54,9.68,287.06,9.61,287.92Z"/><path d="M19.25,276.7v1.43H23a1.38,1.38,0,0,0,.75-.24.68.68,0,0,0,.36-.57v-2.07c0-1.31-.91-2.2-2.73-2.7a.87.87,0,0,1,.1-.7q2,.36,3.45.75c0,1.1-.05,2-.05,2.65v3.85c0,1.17,0,2.1.05,2.8a.5.5,0,0,1-.4.12.59.59,0,0,1-.42-.12,2.44,2.44,0,0,0-.43-1.5,3.35,3.35,0,0,0-1.83-.3H16.49a3.35,3.35,0,0,0-1.83.3,2.37,2.37,0,0,0-.44,1.5.67.67,0,0,1-.46.12.58.58,0,0,1-.43-.12l.05-2.77V274a7.34,7.34,0,0,0-.1-1,.07.07,0,0,1,.08-.08,28.69,28.69,0,0,1,3-.45,1.33,1.33,0,0,1,.12.67,5.4,5.4,0,0,0-1.71.83,1.93,1.93,0,0,0-.49,1.51v1.91a.89.89,0,0,0,.18.58.6.6,0,0,0,.5.23h3.49V276.7a3.73,3.73,0,0,0-.07-.85c0-.2-.08-.36-.1-.49s-.12-.21-.29-.26a1.4,1.4,0,0,0-.36-.08l-.58,0a.47.47,0,0,1-.1-.35.43.43,0,0,1,.12-.35c.82,0,1.4.05,1.75.05s.86,0,1.83-.05a.66.66,0,0,1,0,.7,2.06,2.06,0,0,0-1.06.22A2.16,2.16,0,0,0,19.25,276.7Z"/><path d="M21.83,266.46a3.81,3.81,0,0,0,1.77-.24A1.79,1.79,0,0,0,24,265a.76.76,0,0,1,.46-.1.66.66,0,0,1,.44.1c0,1.43-.05,2.23-.05,2.4,0,.47,0,1.4.05,2.8a.66.66,0,0,1-.44.1.76.76,0,0,1-.46-.1,2.43,2.43,0,0,0-.44-1.5,3.28,3.28,0,0,0-1.82-.3H16.42a3.37,3.37,0,0,0-1.84.3,2.38,2.38,0,0,0-.43,1.5.65.65,0,0,1-.42.1.57.57,0,0,1-.4-.1c0-1.43.05-2.36.05-2.77s0-.81,0-1.39,0-1,0-1.14a6,6,0,0,1,.68-3.38,2.55,2.55,0,0,1,2.22-.91,2.66,2.66,0,0,1,2,.85,3.54,3.54,0,0,1,.91,2.16h0a1.76,1.76,0,0,1,.55-1.08,3.19,3.19,0,0,1,1.13-.75L22.7,261a3.55,3.55,0,0,0,1.09-.73,1.57,1.57,0,0,0,.29-1,1,1,0,0,1,.83-.15,3.53,3.53,0,0,1,.22,1.44,2,2,0,0,1-.54,1.43,5.49,5.49,0,0,1-1.73,1.1l-1.45.68a6,6,0,0,0-.75.43,2.26,2.26,0,0,0-.59.78,2.9,2.9,0,0,0-.29,1.33v.21Zm-5.6-3.68a2.39,2.39,0,0,0-1.65.49,2.06,2.06,0,0,0-.53,1.56c0,1.09.26,1.63.79,1.63h4v-.86a3.17,3.17,0,0,0-.61-2.13A2.62,2.62,0,0,0,16.23,262.78Z"/><path d="M13.38,254.89c0-.15,0-.68,0-1.6s0-1.5,0-1.72A6.11,6.11,0,0,1,15,247a5.86,5.86,0,0,1,4.27-1.6,6.72,6.72,0,0,1,2.73.51,4.19,4.19,0,0,1,1.77,1.4,6.44,6.44,0,0,1,.89,1.85,7.43,7.43,0,0,1,.29,2.09c0,.77,0,1.53,0,2.28s0,1.22,0,1.37c0,.47,0,1.4.05,2.8a.59.59,0,0,1-.44.12.69.69,0,0,1-.46-.12,2.51,2.51,0,0,0-.43-1.5,3.3,3.3,0,0,0-1.82-.3h-5.3a3.33,3.33,0,0,0-1.82.3,2.33,2.33,0,0,0-.42,1.5.72.72,0,0,1-.47.12.61.61,0,0,1-.44-.12C13.37,256.22,13.38,255.3,13.38,254.89Zm9.53-1a1,1,0,0,0,.85-.37,3.36,3.36,0,0,0,.27-1.7,4.76,4.76,0,0,0-1-3.25,4.47,4.47,0,0,0-3.41-1.05,11.3,11.3,0,0,0-2,.16,5.73,5.73,0,0,0-1.7.64,3.23,3.23,0,0,0-1.32,1.47,6,6,0,0,0-.46,2.51c0,1.06.25,1.59.77,1.59Z"/><path d="M19.25,238.33v1.43H23a1.38,1.38,0,0,0,.75-.24.67.67,0,0,0,.36-.56v-2.08q0-1.95-2.73-2.7a.85.85,0,0,1,.1-.69,35.11,35.11,0,0,1,3.45.74c0,1.1-.05,2-.05,2.65v3.86c0,1.16,0,2.09.05,2.79a.5.5,0,0,1-.4.13.58.58,0,0,1-.42-.13,2.43,2.43,0,0,0-.43-1.49,3.35,3.35,0,0,0-1.83-.3H16.49a3.35,3.35,0,0,0-1.83.3,2.35,2.35,0,0,0-.44,1.49.66.66,0,0,1-.46.13.58.58,0,0,1-.43-.13l.05-2.77v-5.17a7.45,7.45,0,0,0-.1-1c0-.05,0-.07.08-.07a23.9,23.9,0,0,1,3-.45,1.31,1.31,0,0,1,.12.67,5.19,5.19,0,0,0-1.71.83,1.89,1.89,0,0,0-.49,1.5V239a.88.88,0,0,0,.18.57.57.57,0,0,0,.5.23h3.49v-1.43a3.79,3.79,0,0,0-.07-.85c0-.2-.08-.36-.1-.48s-.12-.22-.29-.27a2,2,0,0,0-.36-.08l-.58,0a.46.46,0,0,1-.1-.35.41.41,0,0,1,.12-.34c.82,0,1.4,0,1.75,0l1.83,0a.49.49,0,0,1,.1.34.5.5,0,0,1-.1.35,2.17,2.17,0,0,0-1.06.22A2.16,2.16,0,0,0,19.25,238.33Z"/><path d="M21.78,225.64a3.33,3.33,0,0,0,1.82-.3,2.38,2.38,0,0,0,.43-1.5.74.74,0,0,1,.46-.13.55.55,0,0,1,.44.13c0,1.44-.05,2.36-.05,2.77s0,1.4.05,2.8a.72.72,0,0,1-.44.1.7.7,0,0,1-.46-.1,2.43,2.43,0,0,0-.44-1.5,3.26,3.26,0,0,0-1.81-.3H15.54a1.58,1.58,0,0,0-.87.24.8.8,0,0,0-.38.74v1.08a1.38,1.38,0,0,0,.44,1.17,5.77,5.77,0,0,0,1.82.76,1.89,1.89,0,0,1-.07.67,23.8,23.8,0,0,0-3.45-.21,2.12,2.12,0,0,1,0-.62c.23-.09.35-.31.35-.67v-8c0-.36-.12-.59-.35-.68a.94.94,0,0,1,0-.62,25.45,25.45,0,0,0,3.45-.2,1,1,0,0,1,.07.67,5.76,5.76,0,0,0-1.81.74,1.41,1.41,0,0,0-.45,1.17v.82a.83.83,0,0,0,.39.73,1.5,1.5,0,0,0,.88.27Z"/><path d="M25.13,207.52a6,6,0,0,1-1.41,4.23,5.69,5.69,0,0,1-4.39,1.72,6.2,6.2,0,0,1-4.46-1.67,5.53,5.53,0,0,1-1.74-4.16,14.32,14.32,0,0,1,.22-2.43,14.52,14.52,0,0,0,.21-1.65,16.44,16.44,0,0,1,3.23-.3.92.92,0,0,1,.07.75,3.25,3.25,0,0,0-2.09,1.11,3.61,3.61,0,0,0-.74,2.37q0,3.82,5.06,3.83a6,6,0,0,0,3.56-1.09,3.3,3.3,0,0,0,1.57-2.84,4.53,4.53,0,0,0-.41-2,6,6,0,0,0-1.44-1.68,1.42,1.42,0,0,1,.5-.5,6.13,6.13,0,0,1,1.72,1.9A5.09,5.09,0,0,1,25.13,207.52Z"/><path d="M19,189a6.06,6.06,0,0,1,4.34,1.67,6,6,0,0,1,1.78,4.61,5.84,5.84,0,0,1-1.64,4.23,5.55,5.55,0,0,1-4.17,1.7,6.22,6.22,0,0,1-4.55-10.43A5.48,5.48,0,0,1,19,189Zm-5,6.3a3.35,3.35,0,0,0,1.32,2.64A5.47,5.47,0,0,0,19,199a5.85,5.85,0,0,0,3.73-1.16,3.68,3.68,0,0,0,1.46-3,3.32,3.32,0,0,0-1.31-2.73,5.69,5.69,0,0,0-3.57-1,5.82,5.82,0,0,0-3.85,1.21A3.71,3.71,0,0,0,14,195.27Z"/><path d="M21.78,184.16a3.12,3.12,0,0,0,1.81-.31,2.5,2.5,0,0,0,.44-1.5.69.69,0,0,1,.46-.12.59.59,0,0,1,.44.12c0,1-.05,1.8-.05,2.41s0,1.37.05,2.36a.66.66,0,0,1-.44.1.76.76,0,0,1-.46-.1,2.32,2.32,0,0,0-.42-1.49,3.35,3.35,0,0,0-1.83-.3H15.05a1.68,1.68,0,0,0-.81,1.48c0,.14-.06.22-.16.22h-.67l-.08-.05.05-3.55,7.74-5.73a5.29,5.29,0,0,0,.53-.45c.11-.11.13-.2.09-.26a.45.45,0,0,0-.23-.11l-.43,0h-4.6a3.33,3.33,0,0,0-1.82.3,2.29,2.29,0,0,0-.42,1.49.72.72,0,0,1-.47.12.61.61,0,0,1-.44-.12c0-1,.06-1.79.06-2.38s0-1.4-.06-2.39a.68.68,0,0,1,.44-.1.8.8,0,0,1,.47.1,2.44,2.44,0,0,0,.43,1.5,3.39,3.39,0,0,0,1.81.29h8c.48,0,.72.19.73.55a1.59,1.59,0,0,1-.58,1.16l-7.77,5.87a3.79,3.79,0,0,0-.53.51.17.17,0,0,0,0,.28,1.58,1.58,0,0,0,.77.12Z"/><path d="M15.91,168.41l6.64-2.55c.09-.05.15-.09.15-.12s-.05-.12-.15-.15l-6.64-2.67c-.63-.26-1.06-.33-1.27-.22s-.35.52-.4,1.19a.8.8,0,0,1-.47.1.68.68,0,0,1-.44-.1c0-1.23.06-2,.06-2.45s0-.91-.06-1.65a.74.74,0,0,1,.44-.1.73.73,0,0,1,.47.1,2,2,0,0,0,.48,1.35,4.75,4.75,0,0,0,1.36.79l8.11,3.4a3.54,3.54,0,0,1,.78.43.58.58,0,0,1,.22.5c0,.35-.33.66-1,.93l-8.14,3.28a1.41,1.41,0,0,1-.21.1,3.76,3.76,0,0,0-1.2.67,2.34,2.34,0,0,0-.4,1.25.89.89,0,0,1-.47.1.74.74,0,0,1-.44-.1c0-1.24.06-2,.06-2.2,0-.54,0-1.42-.06-2.65a.74.74,0,0,1,.44-.1.89.89,0,0,1,.47.1,3,3,0,0,0,.07.5l.08.34a.29.29,0,0,0,.13.21.83.83,0,0,1,.15.09s.1,0,.23,0l.26-.08.35-.13Z"/><path d="M19.25,153.16v1.43H23a1.38,1.38,0,0,0,.75-.24.66.66,0,0,0,.36-.56v-2.08q0-2-2.73-2.7a.86.86,0,0,1,.1-.69,35.11,35.11,0,0,1,3.45.74c0,1.1-.05,2-.05,2.65v3.86c0,1.16,0,2.09.05,2.79-.06.09-.2.13-.4.13a.54.54,0,0,1-.42-.13,2.43,2.43,0,0,0-.43-1.49,3.35,3.35,0,0,0-1.83-.3H16.49a3.35,3.35,0,0,0-1.83.3,2.35,2.35,0,0,0-.44,1.49.62.62,0,0,1-.46.13.54.54,0,0,1-.43-.13l.05-2.77v-5.17a7.58,7.58,0,0,0-.1-1s0-.07.08-.07a28.69,28.69,0,0,1,3-.45,1.31,1.31,0,0,1,.12.67,5.19,5.19,0,0,0-1.71.83,1.89,1.89,0,0,0-.49,1.5v1.92a.91.91,0,0,0,.18.58.59.59,0,0,0,.5.22h3.49v-1.43a3.69,3.69,0,0,0-.07-.84c0-.2-.08-.37-.1-.49a.33.33,0,0,0-.29-.26l-.36-.09-.58,0a.45.45,0,0,1-.1-.34.42.42,0,0,1,.12-.35l1.75.05,1.83-.05a.5.5,0,0,1,.1.35.49.49,0,0,1-.1.34,2.3,2.3,0,0,0-1.06.22A2.18,2.18,0,0,0,19.25,153.16Z"/><path d="M21.78,143.83a3.21,3.21,0,0,0,1.81-.31A2.5,2.5,0,0,0,24,142a.69.69,0,0,1,.46-.12.59.59,0,0,1,.44.12c0,1-.05,1.8-.05,2.4s0,1.38.05,2.37a.66.66,0,0,1-.44.1.76.76,0,0,1-.46-.1,2.29,2.29,0,0,0-.42-1.49,3.35,3.35,0,0,0-1.83-.3H15.05a1.67,1.67,0,0,0-.81,1.47c0,.15-.06.22-.16.22h-.67l-.08,0,.05-3.56,7.74-5.72a5.29,5.29,0,0,0,.53-.45c.11-.12.13-.2.09-.26a.38.38,0,0,0-.23-.11,2.5,2.5,0,0,0-.43,0h-4.6a3.33,3.33,0,0,0-1.82.3,2.27,2.27,0,0,0-.42,1.49.72.72,0,0,1-.47.12.61.61,0,0,1-.44-.12c0-1,.06-1.79.06-2.38s0-1.4-.06-2.39a.68.68,0,0,1,.44-.1.8.8,0,0,1,.47.1,2.41,2.41,0,0,0,.43,1.49,3.26,3.26,0,0,0,1.81.3h8c.48,0,.72.19.73.55a1.59,1.59,0,0,1-.58,1.16l-7.77,5.87a4.63,4.63,0,0,0-.53.5.18.18,0,0,0,0,.29,1.58,1.58,0,0,0,.77.12Z"/><path d="M21.78,125.43a3.33,3.33,0,0,0,1.82-.3,2.37,2.37,0,0,0,.43-1.49.63.63,0,0,1,.46-.13.52.52,0,0,1,.44.13c0,1.43-.05,2.35-.05,2.77s0,1.39.05,2.79a.71.71,0,0,1-.44.11.69.69,0,0,1-.46-.11,2.39,2.39,0,0,0-.44-1.49,3.26,3.26,0,0,0-1.81-.3H15.54a1.58,1.58,0,0,0-.87.24.78.78,0,0,0-.38.73v1.08a1.42,1.42,0,0,0,.44,1.18,6.07,6.07,0,0,0,1.82.75,1.87,1.87,0,0,1-.07.67,23.8,23.8,0,0,0-3.45-.21,2.12,2.12,0,0,1,0-.62c.23-.08.35-.31.35-.67v-8c0-.37-.12-.6-.35-.69a.94.94,0,0,1,0-.62,25.64,25.64,0,0,0,3.45-.19,1,1,0,0,1,.07.67,5.52,5.52,0,0,0-1.81.74,1.39,1.39,0,0,0-.45,1.16v.82a.85.85,0,0,0,.39.74,1.57,1.57,0,0,0,.88.26Z"/><path d="M16.48,115.66h5.3a3.3,3.3,0,0,0,1.82-.3,2.35,2.35,0,0,0,.43-1.5.69.69,0,0,1,.46-.12.59.59,0,0,1,.44.12c0,1.43-.05,2.36-.05,2.78s0,1.4.05,2.8a.74.74,0,0,1-.44.09.86.86,0,0,1-.46-.09,2.51,2.51,0,0,0-.43-1.5,3.3,3.3,0,0,0-1.82-.3h-5.3a3.33,3.33,0,0,0-1.82.3,2.33,2.33,0,0,0-.42,1.5.9.9,0,0,1-.47.09.76.76,0,0,1-.44-.09c0-1.44.06-2.36.06-2.77s0-1.4-.06-2.81a.61.61,0,0,1,.44-.12.72.72,0,0,1,.47.12,2.47,2.47,0,0,0,.43,1.5A3.26,3.26,0,0,0,16.48,115.66Z"/><path d="M19,99.73a6.11,6.11,0,0,1,4.34,1.67A6,6,0,0,1,25.13,106a5.86,5.86,0,0,1-1.64,4.24,5.54,5.54,0,0,1-4.17,1.69,6,6,0,0,1-6.19-6.13,6.1,6.1,0,0,1,1.64-4.3A5.51,5.51,0,0,1,19,99.73ZM14,106a3.35,3.35,0,0,0,1.32,2.64A5.52,5.52,0,0,0,19,109.79a5.79,5.79,0,0,0,3.73-1.16,3.65,3.65,0,0,0,1.46-3,3.29,3.29,0,0,0-1.31-2.73,5.63,5.63,0,0,0-3.57-1,5.82,5.82,0,0,0-3.85,1.22A3.71,3.71,0,0,0,14,106Z"/><path d="M21.78,94.93a3.21,3.21,0,0,0,1.81-.31,2.5,2.5,0,0,0,.44-1.5.69.69,0,0,1,.46-.12.59.59,0,0,1,.44.12c0,1-.05,1.8-.05,2.4s0,1.38.05,2.37a.66.66,0,0,1-.44.1.76.76,0,0,1-.46-.1,2.29,2.29,0,0,0-.42-1.49,3.35,3.35,0,0,0-1.83-.3H15.05a1.66,1.66,0,0,0-.81,1.47c0,.15-.06.22-.16.22h-.67l-.08-.05.05-3.55,7.74-5.72a5.29,5.29,0,0,0,.53-.45c.11-.12.13-.2.09-.26a.38.38,0,0,0-.23-.11,2.31,2.31,0,0,0-.43,0h-4.6a3.33,3.33,0,0,0-1.82.3,2.33,2.33,0,0,0-.42,1.5.72.72,0,0,1-.47.12.61.61,0,0,1-.44-.12c0-1,.06-1.8.06-2.38s0-1.4-.06-2.39a.68.68,0,0,1,.44-.1.8.8,0,0,1,.47.1,2.43,2.43,0,0,0,.43,1.49,3.26,3.26,0,0,0,1.81.3h8c.48,0,.72.18.73.55a1.59,1.59,0,0,1-.58,1.16L16.84,94a4.63,4.63,0,0,0-.53.5.18.18,0,0,0,0,.29,1.58,1.58,0,0,0,.77.12Z"/><path d="M669.15,7.12c0-.49,0-1.12-.61-1.12s-.6.54-.6,1V35.32c0,.48,0,1,.6,1s.61-.67.61-1.12V7.12M663.23,7c0-.49,0-1-.61-1s-.6.66-.6,1.12V35.23c0,.48,0,1.12.6,1.12s.61-.55.61-1Z"/><text class="cls-25" transform="translate(673.4 28.11)">&quot;)</text><text class="cls-25" transform="translate(640.81 28.11)">(&quot;</text><text class="cls-25" transform="translate(299.26 28.02)">&quot;)</text><text class="cls-25" transform="translate(265.68 28.02)">(&quot;</text><path d="M291.59,12.4c0-.55,0-1.09-.61-1.09s-.6.63-.6,1.09v18h-8.44c-.46,0-1.09,0-1.09.61s.63.6,1.09.6h18.12c.52,0,1.06,0,1.06-.6s-.54-.61-1.06-.61h-8.47v-18"/><circle class="cls-12" cx="642.25" cy="260.15" r="8.92"/><circle class="cls-9" cx="642.25" cy="260.15" r="3.15"/><circle class="cls-26" cx="423.38" cy="370" r="8.92"/><circle cx="423.38" cy="370" r="3.15"/><circle class="cls-26" cx="151.83" cy="370" r="8.92"/><line class="cls-27" x1="146.19" y1="364.35" x2="157.48" y2="375.64"/><line class="cls-27" x1="157.48" y1="364.35" x2="146.19" y2="375.64"/><text class="cls-28" transform="translate(63.18 375.61)">Legend</text><text class="cls-29" transform="translate(164.86 375.61)">: point into the screen / plane</text><text class="cls-29" transform="translate(436.41 375.61)">: point out of the screen / plane</text></svg>