<?xml version="1.0" encoding="utf-8"?>
<!-- Generator: Adobe Illustrator 25.2.0, SVG Export Plug-In . SVG Version: 6.00 Build 0)  -->
<svg version="1.1" id="Layer_1" xmlns="http://www.w3.org/2000/svg" xmlns:xlink="http://www.w3.org/1999/xlink" x="0px" y="0px"
	 viewBox="0 0 272.1 260.4" style="enable-background:new 0 0 272.1 260.4;" xml:space="preserve">
<style type="text/css">
	.st0{fill:none;stroke:#000000;stroke-miterlimit:10;}
	.st1{opacity:0.4;fill:#529DD6;}
	.st2{fill:none;stroke:#000000;stroke-linecap:round;stroke-miterlimit:10;stroke-dasharray:1,2;}
	.st3{fill:none;stroke:#E73634;stroke-width:3;stroke-linecap:round;stroke-linejoin:round;stroke-miterlimit:10;}
	.st4{fill:none;stroke:#E73634;stroke-width:3;stroke-linecap:round;stroke-linejoin:round;}
	.st5{fill:#E73634;}
	.st6{opacity:0;fill:none;stroke:#010202;stroke-width:1.000000e-06;stroke-miterlimit:10;}
	.st7{opacity:0;fill:none;stroke:#010202;stroke-width:9.999999e-07;stroke-miterlimit:10;}
</style>
<path class="st0" d="M180.7,17"/>
<polygon class="st1" points="43.5,257.7 43.5,197.7 43.5,197.7 43.5,137.8 43.5,137.8 216,1.9 216,61.9 216,61.9 216,121.9 
	216,121.9 "/>
<line class="st2" x1="175" y1="85" x2="146.8" y2="49.2"/>
<line class="st2" x1="121.1" y1="203.5" x2="93.3" y2="168.2"/>
<path class="st0" d="M175.3,54.4c-0.4,3.5-1.5,6.9-3.1,10s-4,5.8-6.7,8"/>
<path class="st0" d="M92.7,197.7c0.4-3.5,1.5-6.9,3.1-10c1.7-3.1,4-5.8,6.7-8"/>
<g>
	<path class="st0" d="M43.5,208.5c-2.9,0-5.6-1.1-7.6-3.1s-3.2-4.7-3.2-7.6"/>
	<circle cx="38.9" cy="202.4" r="1.1"/>
</g>
<g>
	<path class="st0" d="M226.7,54.5c0,2.9-1.1,5.6-3.1,7.6s-4.7,3.2-7.6,3.2"/>
	<circle cx="220.6" cy="59.1" r="1.1"/>
</g>
<polyline class="st3" points="253.5,54.8 151.2,54.8 116.7,197.7 16.8,197.7 "/>
<polygon class="st0" points="43.5,257.7 43.5,197.7 43.5,197.7 43.5,137.8 43.5,137.8 216,1.9 216,61.9 216,61.9 216,121.9 
	216,121.9 "/>
<g>
	<g>
		<line class="st4" x1="132.6" y1="131.9" x2="135.5" y2="119.6"/>
		<g>
			<polygon class="st5" points="138.4,123.2 135.2,120.8 131.3,121.5 136.9,113.9 			"/>
		</g>
	</g>
</g>
<g>
	<g>
		<line class="st4" x1="65.2" y1="197.7" x2="77.8" y2="197.7"/>
		<g>
			<polygon class="st5" points="75.1,201.4 76.6,197.7 75.1,194.1 83.8,197.7 			"/>
		</g>
	</g>
</g>
<g>
	<g>
		<line class="st4" x1="181.9" y1="54.8" x2="194.5" y2="54.8"/>
		<g>
			<polygon class="st5" points="191.7,58.5 193.3,54.8 191.7,51.1 200.4,54.8 			"/>
		</g>
	</g>
</g>
<g>
	<g>
		<line class="st4" x1="247.7" y1="54.8" x2="260.4" y2="54.8"/>
		<g>
			<polygon class="st5" points="257.6,58.5 259.2,54.8 257.6,51.1 266.3,54.8 			"/>
		</g>
	</g>
</g>
<polygon class="st6" points="69.8,53.7 69.8,53.7 69.8,53.7 69.8,53.7 69.8,53.7 69.8,53.7 69.8,53.7 69.8,53.7 69.8,53.7 
	69.8,53.7 69.8,53.7 69.8,53.7 69.8,53.7 69.8,53.7 69.8,53.7 69.8,53.7 69.8,53.7 69.8,53.7 69.8,53.7 69.8,53.7 69.8,53.7 
	69.8,53.7 69.8,53.7 69.8,53.7 69.8,53.7 69.8,53.7 69.8,53.7 69.8,53.7 69.8,53.7 69.8,53.7 69.8,53.7 69.8,53.7 69.8,53.7 
	69.8,53.7 69.8,53.7 69.8,53.7 69.8,53.7 69.8,53.7 69.8,53.7 69.8,53.7 69.8,53.7 69.8,53.7 69.8,53.7 69.8,53.7 69.8,53.7 
	69.8,53.7 69.8,53.7 69.8,53.7 69.8,53.7 69.8,53.7 69.8,53.7 69.8,53.7 69.8,53.7 69.8,53.7 69.8,53.7 69.8,53.7 69.8,53.7 
	69.8,53.7 69.8,53.7 69.8,53.7 69.8,53.7 69.8,53.7 69.8,53.7 69.8,53.7 69.8,53.7 69.8,53.7 69.8,53.7 69.8,53.7 69.8,53.7 
	69.8,53.7 69.8,53.7 69.8,53.7 69.8,53.7 69.8,53.7 69.8,53.7 69.8,53.7 69.8,53.7 69.8,53.7 69.8,53.7 69.8,53.7 69.8,53.7 
	69.8,53.7 69.8,53.7 69.8,53.7 69.8,53.7 69.8,53.7 "/>
<g>
	<path class="st7" d="M84.5,181L84.5,181z"/>
	<path d="M83.7,179.7c-0.2,0.9-0.7,2.7-1.4,4.1c-0.7,1.4-1.5,2.4-2.4,2.4c-0.7,0-1.1-0.6-1.1-2.5c0-0.9,0.1-2,0.7-4H83.7 M79.6,179
		c0.3-1.3,0.8-2.9,1.6-4.4c0.5-1,1.3-2.1,2.2-2.1c1,0,1.1,1.3,1.1,2.5c0,1-0.2,2-0.7,4.1H79.6z M85.8,176.3c0-1.3-0.4-4.2-2.4-4.2
		c-2.8,0-6,5.7-6,10.4c0,1.9,0.6,4.2,2.4,4.2C82.7,186.7,85.8,180.8,85.8,176.3z"/>
	<path d="M87.8,187.8c-0.1,0.2-0.1,0.4-0.1,0.6c0,0.7,0.6,1.2,1.3,1.2c1.4,0,2-2,2-2.2c0-0.2-0.2-0.2-0.2-0.2
		c-0.2,0-0.2,0.1-0.3,0.2c-0.3,1.1-1,1.7-1.5,1.7c-0.3,0-0.4-0.2-0.4-0.5c0-0.3,0.1-0.6,0.2-0.9c0.1-0.4,0.3-0.8,0.5-1.1
		c0.1-0.3,0.6-1.6,0.7-1.8c0-0.1,0.1-0.3,0.1-0.5c0-0.7-0.6-1.2-1.4-1.2c-1.4,0-2.1,1.9-2.1,2.2c0,0.2,0.2,0.2,0.2,0.2
		c0.2,0,0.2-0.1,0.3-0.2c0.4-1.2,1-1.7,1.5-1.7c0.2,0,0.4,0.1,0.4,0.5c0,0.3-0.1,0.5-0.4,1.4L87.8,187.8 M90.7,180.6
		c0-0.2-0.2-0.5-0.6-0.5c-0.4,0-0.8,0.4-0.8,0.8c0,0.2,0.2,0.5,0.6,0.5C90.3,181.4,90.7,181,90.7,180.6z"/>
</g>
<g>
	<path class="st7" d="M182.3,68.8L182.3,68.8z"/>
	<path d="M181.5,67.6c-0.2,0.9-0.7,2.7-1.4,4.1c-0.7,1.4-1.5,2.4-2.4,2.4c-0.7,0-1.1-0.6-1.1-2.5c0-0.9,0.1-2,0.7-4H181.5
		 M177.4,66.9c0.3-1.3,0.8-2.9,1.6-4.4c0.5-1,1.3-2.1,2.2-2.1c1,0,1.1,1.3,1.1,2.5c0,1-0.2,2-0.7,4.1H177.4z M183.7,64.1
		c0-1.3-0.4-4.2-2.4-4.2c-2.8,0-6,5.7-6,10.4c0,1.9,0.6,4.2,2.4,4.2C180.6,74.5,183.7,68.7,183.7,64.1z"/>
	<path d="M185.7,75.7c-0.1,0.2-0.1,0.4-0.1,0.6c0,0.7,0.6,1.2,1.3,1.2c1.4,0,2-2,2-2.2c0-0.2-0.2-0.2-0.2-0.2
		c-0.2,0-0.2,0.1-0.3,0.2c-0.3,1.1-1,1.7-1.5,1.7c-0.3,0-0.4-0.2-0.4-0.5c0-0.3,0.1-0.6,0.2-0.9c0.1-0.4,0.3-0.8,0.5-1.1
		c0.1-0.3,0.6-1.6,0.7-1.8c0-0.1,0.1-0.3,0.1-0.5c0-0.7-0.6-1.2-1.4-1.2c-1.4,0-2.1,1.9-2.1,2.2c0,0.2,0.2,0.2,0.2,0.2
		c0.2,0,0.2-0.1,0.3-0.2c0.4-1.2,1-1.7,1.5-1.7c0.2,0,0.4,0.1,0.4,0.5c0,0.3-0.1,0.5-0.4,1.4L185.7,75.7 M188.5,68.5
		c0-0.2-0.2-0.5-0.6-0.5c-0.4,0-0.8,0.4-0.8,0.8c0,0.2,0.2,0.5,0.6,0.5C188.2,69.3,188.5,68.9,188.5,68.5z"/>
</g>
</svg>
