<svg xmlns="http://www.w3.org/2000/svg" xmlns:xlink="http://www.w3.org/1999/xlink" viewBox="0 0 189.11 101.99"><defs><style>.cls-1,.cls-13,.cls-15,.cls-21,.cls-3{fill:none;}.cls-2{fill:#c3996b;}.cls-13,.cls-16,.cls-2,.cls-3,.cls-4,.cls-5,.cls-6{stroke:#010101;}.cls-13,.cls-15,.cls-16,.cls-2,.cls-21,.cls-3,.cls-4,.cls-5{stroke-miterlimit:10;}.cls-2,.cls-3{stroke-width:0.63px;}.cls-4,.cls-5,.cls-6{fill:#eaeaea;stroke-linecap:round;}.cls-4{stroke-width:0.69px;}.cls-5,.cls-6{stroke-width:0.63px;}.cls-6{stroke-linejoin:round;}.cls-7{fill:#010101;}.cls-8{fill:#bbbdbf;}.cls-16,.cls-9{fill:#fff;}.cls-10{fill:#212121;}.cls-11{fill:#aaa134;}.cls-12{fill:#faf4a0;}.cls-13{stroke-width:1.31px;}.cls-14{fill:#889bcf;opacity:0.5;}.cls-15{stroke:#4f6eb5;stroke-width:0.3px;}.cls-17{clip-path:url(#clip-path);}.cls-18{clip-path:url(#clip-path-2);}.cls-19{clip-path:url(#clip-path-3);}.cls-20{clip-path:url(#clip-path-4);}.cls-21{stroke:#000;stroke-width:0px;opacity:0;}.cls-22{clip-path:url(#clip-path-5);}</style><clipPath id="clip-path"><rect class="cls-1" x="98.79" y="48.32" width="6.39" height="4.45"/></clipPath><clipPath id="clip-path-2"><rect class="cls-1" x="81.57" y="56.97" width="6.58" height="4.45"/></clipPath><clipPath id="clip-path-3"><rect class="cls-1" x="24.7" y="47.22" width="6.58" height="4.45"/></clipPath><clipPath id="clip-path-4"><rect class="cls-1" x="154.43" y="38.93" width="6.36" height="4.3"/></clipPath><clipPath id="clip-path-5"><rect class="cls-1" x="26" y="4.52" width="121.36" height="10.66"/></clipPath></defs><g id="Layer_3" data-name="Layer 3"><path class="cls-2" d="M128.71,51.85l9.59,7.84v1.8h-3.25V98h-2.23l-2.3-31.48h-2.79l-.49,19.76h-1.95l-2-19.75L81,67.23,79,87h-2.1l-.69-19.76H74.63L72.05,98.15H69.71l-.45-35.94H66.75V59.89s7.26-7.37,7.88-7.37C75.82,52.52,128.24,51.45,128.71,51.85Z"/><polyline class="cls-2" points="127.73 66.54 123.26 66.54 80.96 67.2 76.24 67.2"/><polyline class="cls-3" points="74.63 67.2 74.63 62.22 130.52 61.49 130.52 66.54"/><polyline class="cls-2" points="74.63 62.22 69.26 62.22 130.52 61.49 135.05 61.49"/><path class="cls-4" d="M90.49,53.61c0,5,16.87,4.52,16.87.31l0-4.39H90.49Z"/><path class="cls-5" d="M114.15,39.21c-1.29-2.71-7.47-.39-7.47-.39l2.66,9.07C109.12,48.13,115.51,42.06,114.15,39.21Zm-2,.53s.63,1.68-2.74,5.24L108,40.86a10,10,0,0,1,4.18-1.12"/><path class="cls-6" d="M90.73,37.23a31.75,31.75,0,0,0-2.41,5.91A9.31,9.31,0,0,1,86,41.24c-2.15-2.2-5.31-1-5.48.13-.27.91,2.64.79,3,1.81s4,8,6,8.74c.06,2.42,8.76,5.66,16.78,2.06s1.55-15.31,0-17.15"/><ellipse class="cls-7" cx="82.76" cy="41.08" rx="1.38" ry="0.38" transform="matrix(1, -0.08, 0.08, 1, -3.07, 6.86)"/><path class="cls-5" d="M98.52,35c-8,0-12.88,4.45.25,4.39S106.54,35,98.52,35Z"/><path class="cls-5" d="M96.63,36.45c1.18-1.22.11-2-.13-2.63s1.67-.76,2.07-.76,2.5.06,2.25.92-1.08.91-.46,2.48"/><g id="Eye"><path class="cls-8" d="M20.77,33.75c2.44,4.85,1.49,9.06-2.6,11.71A40.64,40.64,0,0,0,5,36.62h.5C10.13,36.54,14.93,36.48,20.77,33.75Z"/><path class="cls-7" d="M18.17,45.46c4.09-2.65,5-6.86,2.6-11.71-5.84,2.73-10.64,2.79-15.28,2.86H5A40.64,40.64,0,0,1,18.17,45.46ZM21.6,33.34c2.6,5.19,1.56,9.91-2.78,12.81.56.61,1.12,1.24,1.66,1.93l-.72.57C14.23,41.75,7.83,38.9,3.6,37l-.88-.4a1.13,1.13,0,0,0,.18-.41,1.29,1.29,0,0,0,0-.47c.86,0,1.71-.05,2.57-.05,5.51-.08,10.71-.14,17.7-4.25l.47.8C23,32.65,22.27,33,21.6,33.34Z"/><path class="cls-9" d="M21.43,40.2c-.48,2-1.88,3.31-3.13,3s-1.86-2.14-1.38-4.1,1.88-3.31,3.13-3S21.91,38.24,21.43,40.2Z"/><path class="cls-10" d="M21,40.51a1.47,1.47,0,0,1-1.73,1.12A1.58,1.58,0,1,1,21,40.51Z"/></g><path class="cls-11" d="M181.81,31a2.64,2.64,0,0,0-2.74,1.16h0a3.2,3.2,0,0,0-.2,2.14,2.62,2.62,0,0,0-3,0l0,0a3.13,3.13,0,0,0-1.06,1.87,2.63,2.63,0,0,0-2.69-1.26v0a3.15,3.15,0,0,0-1.72,1.28A2.62,2.62,0,0,0,168.52,34v0a3.15,3.15,0,0,0-2.09.47,2.64,2.64,0,0,0-.87-2.84l0,0a3.07,3.07,0,0,0-2.1-.42,2.62,2.62,0,0,0,.36-2.95h0A3.18,3.18,0,0,0,162,27a2.64,2.64,0,0,0,1.53-2.55h0a3.11,3.11,0,0,0-1.09-1.85,2.62,2.62,0,0,0,2.43-1.71h0a3.17,3.17,0,0,0-.25-2.13,2.62,2.62,0,0,0,2.91-.57h0a3.16,3.16,0,0,0,.65-2.05,2.62,2.62,0,0,0,2.89.66l0-.06a3.26,3.26,0,0,0,1.37-1.57A2.7,2.7,0,0,0,174.77,17v0a3.91,3.91,0,0,0,2-.89,2.62,2.62,0,0,0,1.42,2.6v0a3.15,3.15,0,0,0,2.15,0,2.62,2.62,0,0,0,.25,3l0,0a3.14,3.14,0,0,0,2,.86,2.63,2.63,0,0,0-1,2.81h0a3.14,3.14,0,0,0,1.45,1.58,2.62,2.62,0,0,0-2,2.17h0A3.11,3.11,0,0,0,181.81,31Z"/><path class="cls-7" d="M183.83,27.08l1-.11-1-.33s-2-.72-1.87-2.35h0a3,3,0,0,1,1.4-1.9l.89-.51-1,.09s-2.16.17-2.67-1.39h0a2.9,2.9,0,0,1,.5-2.31l.61-.82-.9.49s-1.91,1-3-.18h0a2.83,2.83,0,0,1-.48-2.3l.22-1-.62.82s-1.32,1.72-2.82,1.06l0,0a3.07,3.07,0,0,1-1.44-1.94l-.17-1-.15,1s-.56,2.1-2.1,2.1v0a3.62,3.62,0,0,1-2-1.19l-.65-.83.16,1s.39,2.13-1.11,2.8v0a2.9,2.9,0,0,1-2.35-.26l-.89-.52.59.84s1.24,1.79.14,3v0a2.93,2.93,0,0,1-2.24.72l-1-.12.89.53s1.85,1.13,1.34,2.7h0a2.86,2.86,0,0,1-1.76,1.57l-1,.32,1,.12s2.15.28,2.32,1.92h0a2.9,2.9,0,0,1-1,2.15l-.77.69,1-.3s2.08-.62,2.9.8h0a2.93,2.93,0,0,1,0,2.36l-.42.93.78-.67s1.64-1.41,3-.45h0a2.92,2.92,0,0,1,.95,2.16v1l.44-.94s.92-2,2.53-1.62v0a2.85,2.85,0,0,1,1.74,1.59l.42.94,0-1s.05-2.17,1.66-2.51v0a2.87,2.87,0,0,1,2.24.74l.76.69-.4-.95s-.83-2,.5-3l0,0a2.92,2.92,0,0,1,2.35-.24l1,.32-.76-.7s-1.57-1.48-.75-2.91h0A2.88,2.88,0,0,1,183.83,27.08Zm-2,3.91a2.64,2.64,0,0,0-2.74,1.16h0a3.2,3.2,0,0,0-.2,2.14,2.62,2.62,0,0,0-3,0l0,0a3.13,3.13,0,0,0-1.06,1.87,2.63,2.63,0,0,0-2.69-1.26v0a3.15,3.15,0,0,0-1.72,1.28A2.62,2.62,0,0,0,168.52,34v0a3.15,3.15,0,0,0-2.09.47,2.64,2.64,0,0,0-.87-2.84l0,0a3.07,3.07,0,0,0-2.1-.42,2.62,2.62,0,0,0,.36-2.95h0A3.18,3.18,0,0,0,162,27a2.64,2.64,0,0,0,1.53-2.55h0a3.11,3.11,0,0,0-1.09-1.85,2.62,2.62,0,0,0,2.43-1.71h0a3.17,3.17,0,0,0-.25-2.13,2.62,2.62,0,0,0,2.91-.57h0a3.16,3.16,0,0,0,.65-2.05,2.62,2.62,0,0,0,2.89.66l0-.06a3.26,3.26,0,0,0,1.37-1.57A2.7,2.7,0,0,0,174.77,17v0a3.91,3.91,0,0,0,2-.89,2.62,2.62,0,0,0,1.42,2.6v0a3.15,3.15,0,0,0,2.15,0,2.62,2.62,0,0,0,.25,3l0,0a3.14,3.14,0,0,0,2,.86,2.63,2.63,0,0,0-1,2.81h0a3.14,3.14,0,0,0,1.45,1.58,2.62,2.62,0,0,0-2,2.17h0A3.11,3.11,0,0,0,181.81,31Z"/><path class="cls-12" d="M180.67,25.79a8.12,8.12,0,1,1-8.11-8.12A8.11,8.11,0,0,1,180.67,25.79Z"/><line class="cls-13" x1="31.56" y1="42.51" x2="78.51" y2="57.22"/><polygon class="cls-7" points="28.9 41.67 32.16 44.38 31.75 42.57 33.12 41.32 28.9 41.67"/><line class="cls-13" x1="100.17" y1="44.98" x2="83.58" y2="54.69"/><polygon class="cls-7" points="81.18 56.1 83.76 52.74 83.76 54.59 85.37 55.5 81.18 56.1"/><line class="cls-13" x1="105.68" y1="43.75" x2="160.28" y2="34.76"/><polygon class="cls-7" points="102.93 44.2 107.06 45.15 105.88 43.72 106.54 41.98 102.93 44.2"/><path class="cls-14" d="M77.73,55.56l3.18-37.21V2.78A.83.83,0,0,1,81.74,2H99.23a.83.83,0,0,1,.83.82V18.11a.79.79,0,0,1-.1.4L79.28,56A.83.83,0,0,1,77.73,55.56Z"/><path class="cls-14" d="M108.32,2.78V18.2a1,1,0,0,1,0,.24l-8.16,25.45a.83.83,0,0,0,1.37.84l25.73-26.17a.8.8,0,0,0,.25-.59V2.78a.83.83,0,0,0-.83-.82h-17.5A.82.82,0,0,0,108.32,2.78Z"/><path class="cls-14" d="M135.84,2.78V17.89a.87.87,0,0,0,.35.68l22,16.12a.83.83,0,0,0,1.18-1.12l-10.27-15a.83.83,0,0,1-.12-.44V2.78a.83.83,0,0,0-.83-.82H136.67A.83.83,0,0,0,135.84,2.78Z"/><path class="cls-14" d="M52.6,18.57,26.14,39.82a.83.83,0,0,0,.91,1.37L71.59,18.55a.82.82,0,0,0,.45-.74v-15A.82.82,0,0,0,71.22,2H53.72a.83.83,0,0,0-.83.82V17.94A.82.82,0,0,1,52.6,18.57Z"/><path class="cls-15" d="M77.89,55.56l3.18-37.21V2.78A.82.82,0,0,1,81.89,2h17.5a.83.83,0,0,1,.83.82V18.11a.91.91,0,0,1-.1.4L79.44,56A.83.83,0,0,1,77.89,55.56Z"/><path class="cls-15" d="M108.47,2.78V18.2a1,1,0,0,1,0,.24l-8.16,25.45a.83.83,0,0,0,1.36.84l25.74-26.17a.8.8,0,0,0,.25-.59V2.78A.83.83,0,0,0,126.8,2H109.3A.83.83,0,0,0,108.47,2.78Z"/><path class="cls-15" d="M136,2.78V17.89a.84.84,0,0,0,.35.68l22,16.12a.82.82,0,0,0,1.17-1.12l-10.26-15a.84.84,0,0,1-.13-.44V2.78a.82.82,0,0,0-.82-.82H136.83A.83.83,0,0,0,136,2.78Z"/><path class="cls-15" d="M52.76,18.57,26.3,39.82a.83.83,0,0,0,.91,1.37L71.75,18.55a.82.82,0,0,0,.45-.74v-15A.82.82,0,0,0,71.38,2H53.88a.83.83,0,0,0-.83.82V17.94A.82.82,0,0,1,52.76,18.57Z"/><path class="cls-16" d="M80.49,57.22a2,2,0,1,1-2-2A2,2,0,0,1,80.49,57.22Z"/><path class="cls-16" d="M28,41.2a2,2,0,1,1-2-2A2,2,0,0,1,28,41.2Z"/><path class="cls-16" d="M102.16,45a2,2,0,1,1-2-2A2,2,0,0,1,102.16,45Z"/><path class="cls-16" d="M161.58,35.1a2,2,0,1,1-2-2A2,2,0,0,1,161.58,35.1Z"/><g class="cls-17"><path d="M101.06,49.86l.81-.91c.09-.09.13-.14.71-.14v-.33c-.24,0-.6,0-.64,0l-.72,0v.33a.51.51,0,0,1,.27.06s0,.06-.06.08l-.58.66-.68-.8h.28v-.33l-.85,0-.76,0v.33h.49l1.09,1.28-.91,1c-.12.13-.37.13-.71.13v.33c.25,0,.61,0,.64,0l.72,0v-.33c-.12,0-.26,0-.26-.07s0,0,0-.07l.68-.76.76.9h-.27v.33l.83,0,.77,0v-.33h-.49l-1.17-1.38"/><path d="M104.48,49.53c0-.13,0-.14-.15-.14a1.3,1.3,0,0,1-1,.31v.18a1.52,1.52,0,0,0,.7-.14v2.48c0,.16,0,.22-.48.22h-.18v.17l.86,0,.87,0v-.17H105c-.48,0-.48-.06-.48-.22V49.53"/></g><g class="cls-18"><path d="M83.84,58.52l.81-.91c.09-.09.13-.14.71-.14v-.33l-.64,0-.72,0v.33a.51.51,0,0,1,.27.06s0,.06-.06.08l-.58.66-.68-.8h.27v-.33l-.84,0-.76,0v.33h.49l1.09,1.28-.91,1c-.12.13-.37.13-.71.13v.33c.25,0,.61,0,.64,0l.72,0V59.9c-.13,0-.26,0-.26-.08l0-.07.68-.75.76.9H83.9v.33l.83,0,.77,0V59.9H85l-1.16-1.38"/><path d="M88.08,60.39h-.16a1.27,1.27,0,0,1-.13.44,2.42,2.42,0,0,1-.48,0h-.89c.51-.45.68-.59,1-.82a1.37,1.37,0,0,0,.69-1,1,1,0,0,0-1.13-1,.93.93,0,0,0-1,.87.25.25,0,0,0,.25.27.25.25,0,0,0,.26-.26c0-.08,0-.25-.29-.25a.77.77,0,0,1,.71-.45.72.72,0,0,1,.74.77,1.47,1.47,0,0,1-.46.93L86,61.08c0,.05,0,.06,0,.19h2l.14-.88"/></g><g class="cls-19"><path d="M27,48.68l.81-.9c.09-.1.13-.15.71-.15v-.32l-.64,0-.72,0v.32a.5.5,0,0,1,.27.07l-.06.08-.58.65-.68-.8h.28v-.32l-.85,0-.76,0v.32h.49l1.09,1.28-.91,1c-.12.13-.37.13-.7.13v.32l.63,0,.72,0v-.32c-.12,0-.26,0-.26-.08s0,0,.05-.07l.68-.76.76.91H27v.32l.83,0,.77,0v-.32h-.49L27,48.68"/><path d="M30.09,49.82c.38,0,.65.26.65.78s-.35.78-.63.78a1.05,1.05,0,0,1-.83-.34.26.26,0,0,0,.28-.27.25.25,0,0,0-.26-.27.27.27,0,0,0-.28.28c0,.46.51.76,1.1.76a1,1,0,0,0,1.14-.94,1,1,0,0,0-.85-.87.93.93,0,0,0,.7-.84c0-.39-.45-.67-1-.67s-1,.26-1,.65a.25.25,0,0,0,.26.26.25.25,0,0,0,0-.5.89.89,0,0,1,.68-.27.49.49,0,0,1,.53.53.9.9,0,0,1-.2.57.6.6,0,0,1-.54.21l-.15,0a.06.06,0,0,0-.05.06c0,.07,0,.07.13.07h.26"/></g><g class="cls-20"><path d="M156.62,40.35l.79-.88c.09-.09.13-.14.69-.14V39l-.62,0-.69,0v.31a.54.54,0,0,1,.25.06s0,.06,0,.08l-.57.63-.65-.77H156V39l-.81,0-.74,0v.31H155l1,1.24-.88,1c-.12.13-.36.13-.68.13V42c.23,0,.58,0,.62,0l.69,0v-.32c-.12,0-.25,0-.25-.07l.05-.07.65-.73.74.87h-.26V42l.8,0,.74,0v-.32h-.48l-1.13-1.33"/><path d="M159.69,43a.62.62,0,0,1-.6-.51,5.33,5.33,0,0,1-.06-1,4,4,0,0,1,.07-1,.6.6,0,0,1,.59-.47.6.6,0,0,1,.58.42,3.63,3.63,0,0,1,.08,1,5.16,5.16,0,0,1-.06,1,.61.61,0,0,1-.6.53m1.09-1.46a2.05,2.05,0,0,0-.28-1.21,1,1,0,0,0-.81-.4c-1.09,0-1.09,1.28-1.09,1.61s0,1.59,1.09,1.59S160.78,41.85,160.78,41.51Z"/></g><polygon class="cls-21" points="73.68 10.56 73.68 10.56 73.68 10.56 73.68 10.56 73.68 10.56 73.68 10.56 73.68 10.56 73.68 10.56 73.68 10.56 73.68 10.56 73.68 10.56 73.68 10.56 73.68 10.56 73.68 10.56 73.68 10.56 73.68 10.56 73.68 10.56 73.68 10.56 73.68 10.56 73.68 10.56 73.68 10.56 73.68 10.56 73.68 10.56 73.68 10.56 73.68 10.56 73.68 10.56 73.68 10.56 73.68 10.56 73.68 10.56 73.68 10.56 73.68 10.56 73.68 10.56 73.68 10.56 73.68 10.56 73.68 10.56 73.68 10.56 73.68 10.56 73.68 10.56 73.68 10.56 73.68 10.56 73.68 10.56 73.68 10.56 73.68 10.56 73.68 10.56 73.68 10.56 73.68 10.56 73.68 10.56 73.68 10.56 73.68 10.56 73.68 10.56 73.68 10.56 73.68 10.56 73.68 10.56 73.68 10.56 73.68 10.56 73.68 10.56 73.68 10.56 73.68 10.56 73.68 10.56 73.68 10.56 73.68 10.56 73.68 10.56 73.68 10.56 73.68 10.56 73.68 10.56 73.68 10.56 73.68 10.56 73.68 10.56 73.68 10.56 73.68 10.56 73.68 10.56 73.68 10.56 73.68 10.56 73.68 10.56 73.68 10.56 73.68 10.56 73.68 10.56 73.68 10.56 73.68 10.56 73.68 10.56 73.68 10.56 73.68 10.56 73.68 10.56 73.68 10.56 73.68 10.56 73.68 10.56 73.68 10.56 73.68 10.56 73.68 10.56 73.68 10.56 73.68 10.56 73.68 10.56 73.68 10.56"/><g class="cls-22"><path d="M28.47,9.35c-.46-.09-1.26-.23-1.26-.81,0-.76,1.15-.76,1.39-.76.92,0,1.39.36,1.45,1,0,.18,0,.24.29.24s.29-.06.29-.34v-1c0-.24,0-.35-.22-.35-.05,0-.07,0-.56.24a2.83,2.83,0,0,0-1.24-.24c-.37,0-2.27,0-2.27,1.62a1.33,1.33,0,0,0,.49,1,3.53,3.53,0,0,0,1.91.68c.45.07,1.37.23,1.37,1,0,.93-1.13.93-1.4.93a1.7,1.7,0,0,1-1.78-1.44c-.06-.17-.13-.17-.3-.17s-.29.07-.29.36V12.7c0,.24,0,.35.22.35s.11,0,.37-.18l.32-.21a2.54,2.54,0,0,0,1.46.39c.38,0,2.28,0,2.28-1.8a1.64,1.64,0,0,0-.68-1.31,3.67,3.67,0,0,0-1.84-.59"/><path d="M33.82,12c.67,0,1.16.47,1.16,1.39,0,1.07-.62,1.39-1.12,1.39a1.9,1.9,0,0,1-1.47-.6.47.47,0,0,0,.5-.49.48.48,0,1,0-.95,0c0,.81.89,1.34,1.93,1.34a1.87,1.87,0,0,0,2-1.67,1.7,1.7,0,0,0-1.5-1.54,1.65,1.65,0,0,0,1.23-1.5c0-.68-.78-1.19-1.74-1.19s-1.69.47-1.69,1.16a.42.42,0,0,0,.45.45.43.43,0,0,0,.44-.44.44.44,0,0,0-.44-.45,1.68,1.68,0,0,1,1.22-.47.87.87,0,0,1,.93.94,1.64,1.64,0,0,1-.35,1,1.13,1.13,0,0,1-1,.37l-.28,0a.1.1,0,0,0-.09.11c0,.12.08.12.23.12h.46"/><path d="M48.9,11.33c.18,0,.41,0,.41-.24s-.23-.25-.42-.25H41.52c-.18,0-.42,0-.42.25s.24.24.41.24H48.9m0-2.39c.19,0,.42,0,.42-.25s-.23-.25-.41-.25H41.51c-.17,0-.41,0-.41.25s.24.25.42.25Z"/><path d="M60.18,11.35l-3-6.54c-.14-.3-.27-.3-.55-.3H53.93v.58h1.34v7c0,.27,0,.28-.36.32a3.5,3.5,0,0,1-.67,0h-.31V13c.47,0,1.18,0,1.66,0s1.16,0,1.66,0V12.4H57c-.23,0-.44,0-.66,0s-.37,0-.37-.32V5.25h0l3.36,7.42a.44.44,0,0,0,.4.31.43.43,0,0,0,.39-.3l3.45-7.59h0V12.4H62.21V13c.44,0,1.59,0,2.1,0s1.66,0,2.11,0V12.4H65.08V5.09h1.34V4.51H63.69c-.27,0-.41,0-.55.3l-3,6.54"/><path d="M69.23,12c.68,0,1.16.47,1.16,1.39,0,1.07-.62,1.39-1.12,1.39a1.91,1.91,0,0,1-1.47-.6.47.47,0,0,0,.5-.49.48.48,0,1,0-1,0c0,.81.89,1.34,1.94,1.34a1.86,1.86,0,0,0,2-1.67,1.7,1.7,0,0,0-1.5-1.54A1.63,1.63,0,0,0,71,10.3c0-.68-.78-1.19-1.74-1.19s-1.69.47-1.69,1.16a.42.42,0,0,0,.45.45.43.43,0,0,0,.44-.44.44.44,0,0,0-.44-.45,1.68,1.68,0,0,1,1.22-.47.86.86,0,0,1,.93.94,1.64,1.64,0,0,1-.35,1,1.13,1.13,0,0,1-1,.37l-.28,0s-.08,0-.08.11.07.12.22.12h.46"/><path d="M77.54,9.89a.66.66,0,1,0-.66.65.66.66,0,0,0,.66-.65"/><path d="M88.06,11.35l-3-6.54c-.14-.3-.27-.3-.54-.3H81.82v.58h1.33v7c0,.27,0,.28-.36.32a3.45,3.45,0,0,1-.67,0h-.3V13c.46,0,1.17,0,1.65,0s1.16,0,1.67,0V12.4h-.31c-.22,0-.43,0-.66,0s-.37,0-.37-.32V5.25h0l3.35,7.42c.12.24.26.31.4.31a.41.41,0,0,0,.39-.3l3.45-7.59h0V12.4H90.09V13c.44,0,1.59,0,2.1,0s1.66,0,2.11,0V12.4H93V5.09H94.3V4.51H91.57c-.27,0-.41,0-.54.3l-3,6.54"/><path d="M99.15,13.26h-.29c0,.19-.11.7-.23.79a4.57,4.57,0,0,1-.85,0H96.19c.91-.8,1.21-1,1.73-1.45a2.48,2.48,0,0,0,1.23-1.86,1.8,1.8,0,0,0-2-1.68,1.67,1.67,0,0,0-1.79,1.54.46.46,0,0,0,.46.49.45.45,0,0,0,.46-.46c0-.16-.07-.46-.51-.46A1.34,1.34,0,0,1,97,9.42a1.28,1.28,0,0,1,1.31,1.37,2.61,2.61,0,0,1-.81,1.66L95.43,14.5c-.09.07-.09.09-.09.33h3.55l.26-1.57"/><path d="M105.42,9.89a.66.66,0,1,0-.65.65.66.66,0,0,0,.65-.65"/><path d="M116,11.35l-3-6.54c-.14-.3-.27-.3-.55-.3h-2.74v.58h1.34v7c0,.27,0,.28-.36.32a3.5,3.5,0,0,1-.67,0h-.31V13c.47,0,1.18,0,1.66,0s1.16,0,1.66,0V12.4h-.3c-.23,0-.44,0-.66,0s-.37,0-.37-.32V5.25h0l3.36,7.42a.44.44,0,0,0,.4.31.43.43,0,0,0,.39-.3l3.45-7.59h0V12.4H118V13c.45,0,1.6,0,2.1,0s1.67,0,2.12,0V12.4h-1.34V5.09h1.34V4.51h-2.73c-.27,0-.41,0-.55.3l-3,6.54"/><path d="M125.57,9.35c0-.23,0-.24-.26-.24a2.37,2.37,0,0,1-1.69.55V10a2.84,2.84,0,0,0,1.25-.24v4.4c0,.28,0,.39-.86.39h-.33v.31l1.53,0,1.55,0v-.31h-.33c-.86,0-.86-.11-.86-.39V9.35"/><path d="M132.34,9.89a.66.66,0,0,0-.66-.65.65.65,0,0,0,0,1.3.66.66,0,0,0,.66-.65"/><path d="M139.73,9.35c-.46-.09-1.26-.23-1.26-.81,0-.76,1.15-.76,1.38-.76.93,0,1.39.36,1.46,1,0,.18,0,.24.28.24s.3-.06.3-.34v-1c0-.24,0-.35-.23-.35,0,0-.07,0-.55.24a2.84,2.84,0,0,0-1.25-.24c-.37,0-2.27,0-2.27,1.62a1.36,1.36,0,0,0,.49,1,3.6,3.6,0,0,0,1.92.68c.44.07,1.37.23,1.37,1,0,.93-1.14.93-1.41.93a1.7,1.7,0,0,1-1.78-1.44c-.06-.17-.12-.17-.29-.17s-.3.07-.3.36V12.7c0,.24,0,.35.22.35s.11,0,.37-.18c0,0,.29-.19.32-.21a2.54,2.54,0,0,0,1.46.39c.38,0,2.29,0,2.29-1.8a1.64,1.64,0,0,0-.68-1.31,3.71,3.71,0,0,0-1.84-.59"/><path d="M145.17,14.76a1.12,1.12,0,0,1-1.09-.94A8.89,8.89,0,0,1,144,12a7.38,7.38,0,0,1,.13-1.76,1.11,1.11,0,0,1,2.15-.07,6.83,6.83,0,0,1,.15,1.83,9.57,9.57,0,0,1-.11,1.82,1.14,1.14,0,0,1-1.11,1m2-2.68a3.83,3.83,0,0,0-.51-2.23,1.79,1.79,0,0,0-1.49-.74c-2,0-2,2.35-2,3s0,2.93,2,2.93S147.17,12.7,147.17,12.08Z"/></g></g></svg>