<?xml version="1.0" encoding="utf-8" standalone="no"?>
<!DOCTYPE svg PUBLIC "-//W3C//DTD SVG 1.1//EN"
  "http://www.w3.org/Graphics/SVG/1.1/DTD/svg11.dtd">
<!-- Created with matplotlib (https://matplotlib.org/) -->
<svg height="695.403437pt" version="1.1" viewBox="0 0 1058.49375 695.403437" width="1058.49375pt" xmlns="http://www.w3.org/2000/svg" xmlns:xlink="http://www.w3.org/1999/xlink">
 <defs>
  <style type="text/css">
*{stroke-linecap:butt;stroke-linejoin:round;}
  </style>
 </defs>
 <g id="figure_1">
  <g id="patch_1">
   <path d="M 0 695.403437 
L 1058.49375 695.403437 
L 1058.49375 0 
L 0 0 
z
" style="fill:#ffffff;"/>
  </g>
  <g id="axes_1">
   <g id="patch_2">
    <path d="M 26.08375 302.477187 
L 508.32125 302.477187 
L 508.32125 19.677187 
L 26.08375 19.677187 
z
" style="fill:#ffffff;"/>
   </g>
   <g id="matplotlib.axis_1">
    <g id="xtick_1">
     <g id="line2d_1">
      <defs>
       <path d="M 0 0 
L 0 3.5 
" id="m2ffc01f03e" style="stroke:#000000;stroke-width:0.8;"/>
      </defs>
      <g>
       <use style="stroke:#000000;stroke-width:0.8;" x="26.08375" xlink:href="#m2ffc01f03e" y="302.477187"/>
      </g>
     </g>
     <g id="text_1">
      <!-- 0˚ -->
      <defs>
       <path d="M 31.78125 3.421875 
Q 39.265625 3.421875 42.96875 11.625 
Q 46.6875 19.828125 46.6875 36.375 
Q 46.6875 52.984375 42.96875 61.1875 
Q 39.265625 69.390625 31.78125 69.390625 
Q 24.3125 69.390625 20.59375 61.1875 
Q 16.890625 52.984375 16.890625 36.375 
Q 16.890625 19.828125 20.59375 11.625 
Q 24.3125 3.421875 31.78125 3.421875 
z
M 31.78125 -1.421875 
Q 19.921875 -1.421875 13.25 8.53125 
Q 6.59375 18.5 6.59375 36.375 
Q 6.59375 54.296875 13.25 64.25 
Q 19.921875 74.21875 31.78125 74.21875 
Q 43.703125 74.21875 50.34375 64.25 
Q 56.984375 54.296875 56.984375 36.375 
Q 56.984375 18.5 50.34375 8.53125 
Q 43.703125 -1.421875 31.78125 -1.421875 
z
" id="DejaVuSerif-48"/>
       <path d="M 38.375 74.421875 
Q 38.375 68.796875 34.484375 64.890625 
Q 30.609375 60.984375 25 60.984375 
Q 19.390625 60.984375 15.5 64.890625 
Q 11.625 68.796875 11.625 74.421875 
Q 11.625 80.03125 15.5 83.90625 
Q 19.390625 87.796875 25 87.796875 
Q 30.609375 87.796875 34.484375 83.90625 
Q 38.375 80.03125 38.375 74.421875 
z
M 32.421875 74.421875 
Q 32.421875 77.484375 30.265625 79.625 
Q 28.125 81.78125 25 81.78125 
Q 21.828125 81.78125 19.703125 79.65625 
Q 17.578125 77.546875 17.578125 74.421875 
Q 17.578125 71.234375 19.703125 69.109375 
Q 21.828125 67 25 67 
Q 28.125 67 30.265625 69.140625 
Q 32.421875 71.296875 32.421875 74.421875 
z
" id="DejaVuSerif-730"/>
      </defs>
      <g transform="translate(19.26625 318.595312)scale(0.12 -0.12)">
       <use xlink:href="#DejaVuSerif-48"/>
       <use x="63.623047" xlink:href="#DejaVuSerif-730"/>
      </g>
     </g>
    </g>
    <g id="xtick_2">
     <g id="line2d_2">
      <g>
       <use style="stroke:#000000;stroke-width:0.8;" x="186.829583" xlink:href="#m2ffc01f03e" y="302.477187"/>
      </g>
     </g>
     <g id="text_2">
      <!-- 30˚ -->
      <defs>
       <path d="M 9.71875 69.828125 
Q 15.4375 71.96875 20.671875 73.09375 
Q 25.921875 74.21875 30.515625 74.21875 
Q 41.21875 74.21875 47.21875 69.59375 
Q 53.21875 64.984375 53.21875 56.78125 
Q 53.21875 50.203125 49.0625 45.78125 
Q 44.921875 41.359375 37.3125 39.796875 
Q 46.296875 38.53125 51.25 33.28125 
Q 56.203125 28.03125 56.203125 19.671875 
Q 56.203125 9.46875 49.34375 4.015625 
Q 42.484375 -1.421875 29.59375 -1.421875 
Q 23.875 -1.421875 18.421875 -0.1875 
Q 12.984375 1.03125 7.625 3.515625 
L 7.625 17.671875 
L 13.09375 17.671875 
Q 13.578125 10.640625 17.828125 7.03125 
Q 22.078125 3.421875 29.78125 3.421875 
Q 37.25 3.421875 41.578125 7.734375 
Q 45.90625 12.0625 45.90625 19.578125 
Q 45.90625 28.171875 41.453125 32.59375 
Q 37.015625 37.015625 28.421875 37.015625 
L 23.78125 37.015625 
L 23.78125 42 
L 26.21875 42 
Q 34.765625 42 39.03125 45.53125 
Q 43.3125 49.078125 43.3125 56.203125 
Q 43.3125 62.59375 39.796875 65.984375 
Q 36.28125 69.390625 29.6875 69.390625 
Q 23.09375 69.390625 19.453125 66.265625 
Q 15.828125 63.140625 15.1875 56.984375 
L 9.71875 56.984375 
z
" id="DejaVuSerif-51"/>
      </defs>
      <g transform="translate(176.194583 318.595312)scale(0.12 -0.12)">
       <use xlink:href="#DejaVuSerif-51"/>
       <use x="63.623047" xlink:href="#DejaVuSerif-48"/>
       <use x="127.246094" xlink:href="#DejaVuSerif-730"/>
      </g>
     </g>
    </g>
    <g id="xtick_3">
     <g id="line2d_3">
      <g>
       <use style="stroke:#000000;stroke-width:0.8;" x="347.575417" xlink:href="#m2ffc01f03e" y="302.477187"/>
      </g>
     </g>
     <g id="text_3">
      <!-- 60˚ -->
      <defs>
       <path d="M 32.71875 3.421875 
Q 39.59375 3.421875 43.296875 8.46875 
Q 47.015625 13.53125 47.015625 23 
Q 47.015625 32.46875 43.296875 37.515625 
Q 39.59375 42.578125 32.71875 42.578125 
Q 25.734375 42.578125 22.0625 37.6875 
Q 18.40625 32.8125 18.40625 23.578125 
Q 18.40625 13.875 22.109375 8.640625 
Q 25.828125 3.421875 32.71875 3.421875 
z
M 16.796875 40.140625 
Q 20.125 43.796875 24.3125 45.59375 
Q 28.515625 47.40625 33.796875 47.40625 
Q 44.671875 47.40625 51 40.859375 
Q 57.328125 34.328125 57.328125 23 
Q 57.328125 11.921875 50.515625 5.25 
Q 43.703125 -1.421875 32.328125 -1.421875 
Q 19.96875 -1.421875 13.328125 7.78125 
Q 6.6875 17 6.6875 34.078125 
Q 6.6875 53.21875 14.546875 63.71875 
Q 22.40625 74.21875 36.71875 74.21875 
Q 40.578125 74.21875 44.828125 73.484375 
Q 49.078125 72.75 53.515625 71.296875 
L 53.515625 59.28125 
L 48 59.28125 
Q 47.40625 64.203125 44.234375 66.796875 
Q 41.0625 69.390625 35.6875 69.390625 
Q 26.21875 69.390625 21.578125 62.203125 
Q 16.9375 55.03125 16.796875 40.140625 
z
" id="DejaVuSerif-54"/>
      </defs>
      <g transform="translate(336.940417 318.595312)scale(0.12 -0.12)">
       <use xlink:href="#DejaVuSerif-54"/>
       <use x="63.623047" xlink:href="#DejaVuSerif-48"/>
       <use x="127.246094" xlink:href="#DejaVuSerif-730"/>
      </g>
     </g>
    </g>
    <g id="xtick_4">
     <g id="line2d_4">
      <g>
       <use style="stroke:#000000;stroke-width:0.8;" x="508.32125" xlink:href="#m2ffc01f03e" y="302.477187"/>
      </g>
     </g>
     <g id="text_4">
      <!-- 90˚ -->
      <defs>
       <path d="M 46.78125 32.671875 
Q 43.5 29 39.25 27.1875 
Q 35.015625 25.390625 29.6875 25.390625 
Q 18.84375 25.390625 12.5625 31.9375 
Q 6.296875 38.484375 6.296875 49.8125 
Q 6.296875 60.890625 13.109375 67.546875 
Q 19.921875 74.21875 31.296875 74.21875 
Q 43.65625 74.21875 50.265625 65.015625 
Q 56.890625 55.8125 56.890625 38.71875 
Q 56.890625 19.578125 49.015625 9.078125 
Q 41.15625 -1.421875 26.90625 -1.421875 
Q 23.046875 -1.421875 18.796875 -0.6875 
Q 14.546875 0.046875 10.109375 1.515625 
L 10.109375 13.625 
L 15.578125 13.625 
Q 16.21875 8.6875 19.390625 6.046875 
Q 22.5625 3.421875 27.875 3.421875 
Q 37.359375 3.421875 41.984375 10.5625 
Q 46.625 17.71875 46.78125 32.671875 
z
M 30.90625 69.390625 
Q 23.96875 69.390625 20.28125 64.328125 
Q 16.609375 59.28125 16.609375 49.8125 
Q 16.609375 40.328125 20.28125 35.25 
Q 23.96875 30.171875 30.90625 30.171875 
Q 37.84375 30.171875 41.53125 35.078125 
Q 45.21875 39.984375 45.21875 49.21875 
Q 45.21875 58.9375 41.5 64.15625 
Q 37.796875 69.390625 30.90625 69.390625 
z
" id="DejaVuSerif-57"/>
      </defs>
      <g transform="translate(497.68625 318.595312)scale(0.12 -0.12)">
       <use xlink:href="#DejaVuSerif-57"/>
       <use x="63.623047" xlink:href="#DejaVuSerif-48"/>
       <use x="127.246094" xlink:href="#DejaVuSerif-730"/>
      </g>
     </g>
    </g>
    <g id="text_5">
     <!-- Angle of incidence -->
     <defs>
      <path d="M 20.015625 26.421875 
L 46.78125 26.421875 
L 33.40625 61.078125 
z
M -0.59375 0 
L -0.59375 5.171875 
L 5.8125 5.171875 
L 31.78125 72.90625 
L 39.984375 72.90625 
L 66.015625 5.171875 
L 73.1875 5.171875 
L 73.1875 0 
L 46.6875 0 
L 46.6875 5.171875 
L 54.78125 5.171875 
L 48.6875 21.1875 
L 18.015625 21.1875 
L 11.921875 5.171875 
L 19.921875 5.171875 
L 19.921875 0 
z
" id="DejaVuSerif-65"/>
      <path d="M 4.109375 0 
L 4.109375 5.171875 
L 12.203125 5.171875 
L 12.203125 46.6875 
L 3.609375 46.6875 
L 3.609375 51.90625 
L 21.1875 51.90625 
L 21.1875 42.671875 
Q 23.6875 47.953125 27.65625 50.640625 
Q 31.640625 53.328125 36.921875 53.328125 
Q 45.515625 53.328125 49.5625 48.390625 
Q 53.609375 43.453125 53.609375 33.015625 
L 53.609375 5.171875 
L 61.625 5.171875 
L 61.625 0 
L 36.8125 0 
L 36.8125 5.171875 
L 44.578125 5.171875 
L 44.578125 30.171875 
Q 44.578125 39.703125 42.234375 43.234375 
Q 39.890625 46.78125 33.984375 46.78125 
Q 27.734375 46.78125 24.453125 42.203125 
Q 21.1875 37.640625 21.1875 28.90625 
L 21.1875 5.171875 
L 29 5.171875 
L 29 0 
z
" id="DejaVuSerif-110"/>
      <path d="M 52.484375 46.6875 
L 52.484375 1.125 
Q 52.484375 -10.0625 46.328125 -16.140625 
Q 40.1875 -22.21875 28.8125 -22.21875 
Q 23.6875 -22.21875 19 -21.28125 
Q 14.3125 -20.359375 10.015625 -18.5 
L 10.015625 -7.625 
L 14.703125 -7.625 
Q 15.578125 -12.703125 18.84375 -15.046875 
Q 22.125 -17.390625 28.21875 -17.390625 
Q 36.140625 -17.390625 39.8125 -12.921875 
Q 43.5 -8.453125 43.5 1.125 
L 43.5 8.109375 
Q 40.875 3.21875 36.796875 0.890625 
Q 32.71875 -1.421875 26.703125 -1.421875 
Q 17.140625 -1.421875 11.0625 6.171875 
Q 4.984375 13.765625 4.984375 25.984375 
Q 4.984375 38.1875 11.03125 45.75 
Q 17.09375 53.328125 26.703125 53.328125 
Q 32.71875 53.328125 36.796875 51 
Q 40.875 48.6875 43.5 43.796875 
L 43.5 51.90625 
L 61.078125 51.90625 
L 61.078125 46.6875 
z
M 43.5 28.515625 
Q 43.5 37.84375 39.90625 42.765625 
Q 36.328125 47.703125 29.5 47.703125 
Q 22.5625 47.703125 19.015625 42.234375 
Q 15.484375 36.765625 15.484375 25.984375 
Q 15.484375 15.234375 19.015625 9.71875 
Q 22.5625 4.203125 29.5 4.203125 
Q 36.328125 4.203125 39.90625 9.109375 
Q 43.5 14.015625 43.5 23.390625 
z
" id="DejaVuSerif-103"/>
      <path d="M 20.515625 5.171875 
L 29 5.171875 
L 29 0 
L 2.875 0 
L 2.875 5.171875 
L 11.53125 5.171875 
L 11.53125 70.796875 
L 2.875 70.796875 
L 2.875 75.984375 
L 20.515625 75.984375 
z
" id="DejaVuSerif-108"/>
      <path d="M 54.203125 25 
L 15.484375 25 
L 15.484375 24.609375 
Q 15.484375 14.109375 19.4375 8.765625 
Q 23.390625 3.421875 31.109375 3.421875 
Q 37.015625 3.421875 40.796875 6.515625 
Q 44.578125 9.625 46.09375 15.71875 
L 53.328125 15.71875 
Q 51.171875 7.171875 45.375 2.875 
Q 39.59375 -1.421875 30.171875 -1.421875 
Q 18.796875 -1.421875 11.890625 6.078125 
Q 4.984375 13.578125 4.984375 25.984375 
Q 4.984375 38.28125 11.765625 45.796875 
Q 18.5625 53.328125 29.59375 53.328125 
Q 41.359375 53.328125 47.65625 46.0625 
Q 53.953125 38.8125 54.203125 25 
z
M 43.609375 30.171875 
Q 43.3125 39.265625 39.765625 43.875 
Q 36.234375 48.484375 29.59375 48.484375 
Q 23.390625 48.484375 19.828125 43.84375 
Q 16.265625 39.203125 15.484375 30.171875 
z
" id="DejaVuSerif-101"/>
      <path id="DejaVuSerif-32"/>
      <path d="M 30.078125 3.421875 
Q 37.3125 3.421875 40.984375 9.125 
Q 44.671875 14.84375 44.671875 25.984375 
Q 44.671875 37.109375 40.984375 42.796875 
Q 37.3125 48.484375 30.078125 48.484375 
Q 22.859375 48.484375 19.171875 42.796875 
Q 15.484375 37.109375 15.484375 25.984375 
Q 15.484375 14.84375 19.1875 9.125 
Q 22.90625 3.421875 30.078125 3.421875 
z
M 30.078125 -1.421875 
Q 18.75 -1.421875 11.859375 6.078125 
Q 4.984375 13.578125 4.984375 25.984375 
Q 4.984375 38.375 11.84375 45.84375 
Q 18.703125 53.328125 30.078125 53.328125 
Q 41.453125 53.328125 48.3125 45.84375 
Q 55.171875 38.375 55.171875 25.984375 
Q 55.171875 13.578125 48.3125 6.078125 
Q 41.453125 -1.421875 30.078125 -1.421875 
z
" id="DejaVuSerif-111"/>
      <path d="M 43.015625 63.71875 
L 38.28125 63.71875 
Q 38.234375 67.390625 36.203125 69.28125 
Q 34.1875 71.1875 30.328125 71.1875 
Q 25.296875 71.1875 23.234375 68.421875 
Q 21.1875 65.671875 21.1875 58.59375 
L 21.1875 51.90625 
L 35.6875 51.90625 
L 35.6875 46.6875 
L 21.1875 46.6875 
L 21.1875 5.171875 
L 32.71875 5.171875 
L 32.71875 0 
L 3.609375 0 
L 3.609375 5.171875 
L 12.203125 5.171875 
L 12.203125 46.6875 
L 3.609375 46.6875 
L 3.609375 51.90625 
L 12.203125 51.90625 
L 12.203125 58.40625 
Q 12.203125 67.09375 16.71875 71.53125 
Q 21.234375 75.984375 29.984375 75.984375 
Q 33.25 75.984375 36.515625 75.390625 
Q 39.796875 74.8125 43.015625 73.578125 
z
" id="DejaVuSerif-102"/>
      <path d="M 9.71875 68.015625 
Q 9.71875 70.265625 11.34375 71.921875 
Q 12.984375 73.578125 15.28125 73.578125 
Q 17.53125 73.578125 19.15625 71.921875 
Q 20.796875 70.265625 20.796875 68.015625 
Q 20.796875 65.71875 19.1875 64.109375 
Q 17.578125 62.5 15.28125 62.5 
Q 12.984375 62.5 11.34375 64.109375 
Q 9.71875 65.71875 9.71875 68.015625 
z
M 21.1875 5.171875 
L 29.6875 5.171875 
L 29.6875 0 
L 3.609375 0 
L 3.609375 5.171875 
L 12.203125 5.171875 
L 12.203125 46.6875 
L 3.609375 46.6875 
L 3.609375 51.90625 
L 21.1875 51.90625 
z
" id="DejaVuSerif-105"/>
      <path d="M 51.421875 15.578125 
Q 49.515625 7.28125 44.09375 2.921875 
Q 38.671875 -1.421875 30.078125 -1.421875 
Q 18.75 -1.421875 11.859375 6.078125 
Q 4.984375 13.578125 4.984375 25.984375 
Q 4.984375 38.421875 11.859375 45.875 
Q 18.75 53.328125 30.078125 53.328125 
Q 35.015625 53.328125 39.890625 52.171875 
Q 44.78125 51.03125 49.703125 48.6875 
L 49.703125 35.40625 
L 44.484375 35.40625 
Q 43.453125 42.234375 40.015625 45.359375 
Q 36.578125 48.484375 30.171875 48.484375 
Q 22.90625 48.484375 19.1875 42.84375 
Q 15.484375 37.203125 15.484375 25.984375 
Q 15.484375 14.75 19.171875 9.078125 
Q 22.859375 3.421875 30.171875 3.421875 
Q 35.984375 3.421875 39.453125 6.4375 
Q 42.921875 9.46875 44.1875 15.578125 
z
" id="DejaVuSerif-99"/>
      <path d="M 52.484375 5.171875 
L 61.078125 5.171875 
L 61.078125 0 
L 43.5 0 
L 43.5 8.109375 
Q 40.875 3.21875 36.796875 0.890625 
Q 32.71875 -1.421875 26.703125 -1.421875 
Q 17.140625 -1.421875 11.0625 6.171875 
Q 4.984375 13.765625 4.984375 25.984375 
Q 4.984375 38.1875 11.03125 45.75 
Q 17.09375 53.328125 26.703125 53.328125 
Q 32.71875 53.328125 36.796875 51 
Q 40.875 48.6875 43.5 43.796875 
L 43.5 70.796875 
L 35.015625 70.796875 
L 35.015625 75.984375 
L 52.484375 75.984375 
z
M 43.5 23.390625 
L 43.5 28.515625 
Q 43.5 37.84375 39.90625 42.765625 
Q 36.328125 47.703125 29.5 47.703125 
Q 22.5625 47.703125 19.015625 42.234375 
Q 15.484375 36.765625 15.484375 25.984375 
Q 15.484375 15.234375 19.015625 9.71875 
Q 22.5625 4.203125 29.5 4.203125 
Q 36.328125 4.203125 39.90625 9.109375 
Q 43.5 14.015625 43.5 23.390625 
z
" id="DejaVuSerif-100"/>
     </defs>
     <g transform="translate(192.02125 337.248437)scale(0.16 -0.16)">
      <use xlink:href="#DejaVuSerif-65"/>
      <use x="72.216797" xlink:href="#DejaVuSerif-110"/>
      <use x="136.621094" xlink:href="#DejaVuSerif-103"/>
      <use x="200.634766" xlink:href="#DejaVuSerif-108"/>
      <use x="232.617188" xlink:href="#DejaVuSerif-101"/>
      <use x="291.796875" xlink:href="#DejaVuSerif-32"/>
      <use x="323.583984" xlink:href="#DejaVuSerif-111"/>
      <use x="383.789062" xlink:href="#DejaVuSerif-102"/>
      <use x="420.800781" xlink:href="#DejaVuSerif-32"/>
      <use x="452.587891" xlink:href="#DejaVuSerif-105"/>
      <use x="484.570312" xlink:href="#DejaVuSerif-110"/>
      <use x="548.974609" xlink:href="#DejaVuSerif-99"/>
      <use x="604.980469" xlink:href="#DejaVuSerif-105"/>
      <use x="636.962891" xlink:href="#DejaVuSerif-100"/>
      <use x="700.976562" xlink:href="#DejaVuSerif-101"/>
      <use x="760.15625" xlink:href="#DejaVuSerif-110"/>
      <use x="824.560547" xlink:href="#DejaVuSerif-99"/>
      <use x="880.566406" xlink:href="#DejaVuSerif-101"/>
     </g>
    </g>
   </g>
   <g id="matplotlib.axis_2">
    <g id="ytick_1">
     <g id="line2d_5">
      <defs>
       <path d="M 0 0 
L -3.5 0 
" id="me76bb0d0e9" style="stroke:#000000;stroke-width:0.8;"/>
      </defs>
      <g>
       <use style="stroke:#000000;stroke-width:0.8;" x="26.08375" xlink:href="#me76bb0d0e9" y="289.622642"/>
      </g>
     </g>
     <g id="text_6">
      <!-- 0 -->
      <g transform="translate(11.44875 294.181705)scale(0.12 -0.12)">
       <use xlink:href="#DejaVuSerif-48"/>
      </g>
     </g>
    </g>
    <g id="ytick_2">
     <g id="line2d_6">
      <g>
       <use style="stroke:#000000;stroke-width:0.8;" x="26.08375" xlink:href="#me76bb0d0e9" y="161.077187"/>
      </g>
     </g>
     <g id="text_7">
      <!-- 0.5 -->
      <defs>
       <path d="M 9.421875 5.078125 
Q 9.421875 7.8125 11.28125 9.71875 
Q 13.140625 11.625 15.921875 11.625 
Q 18.609375 11.625 20.5 9.71875 
Q 22.40625 7.8125 22.40625 5.078125 
Q 22.40625 2.390625 20.5 0.484375 
Q 18.609375 -1.421875 15.921875 -1.421875 
Q 13.140625 -1.421875 11.28125 0.453125 
Q 9.421875 2.34375 9.421875 5.078125 
z
" id="DejaVuSerif-46"/>
       <path d="M 50.296875 72.90625 
L 50.296875 64.890625 
L 16.890625 64.890625 
L 16.890625 44 
Q 19.4375 45.75 22.828125 46.625 
Q 26.21875 47.515625 30.421875 47.515625 
Q 42.234375 47.515625 49.0625 40.96875 
Q 55.90625 34.421875 55.90625 23.09375 
Q 55.90625 11.53125 49 5.046875 
Q 42.09375 -1.421875 29.59375 -1.421875 
Q 24.5625 -1.421875 19.28125 -0.1875 
Q 14.015625 1.03125 8.5 3.515625 
L 8.5 17.671875 
L 14.015625 17.671875 
Q 14.453125 10.75 18.421875 7.078125 
Q 22.40625 3.421875 29.59375 3.421875 
Q 37.3125 3.421875 41.453125 8.5 
Q 45.609375 13.578125 45.609375 23.09375 
Q 45.609375 32.5625 41.484375 37.609375 
Q 37.359375 42.671875 29.59375 42.671875 
Q 25.203125 42.671875 21.84375 41.109375 
Q 18.5 39.546875 15.921875 36.28125 
L 11.71875 36.28125 
L 11.71875 72.90625 
z
" id="DejaVuSerif-53"/>
      </defs>
      <g transform="translate(0 165.63625)scale(0.12 -0.12)">
       <use xlink:href="#DejaVuSerif-48"/>
       <use x="63.623047" xlink:href="#DejaVuSerif-46"/>
       <use x="95.410156" xlink:href="#DejaVuSerif-53"/>
      </g>
     </g>
    </g>
    <g id="ytick_3">
     <g id="line2d_7">
      <g>
       <use style="stroke:#000000;stroke-width:0.8;" x="26.08375" xlink:href="#me76bb0d0e9" y="32.531733"/>
      </g>
     </g>
     <g id="text_8">
      <!-- 1 -->
      <defs>
       <path d="M 14.203125 0 
L 14.203125 5.171875 
L 26.90625 5.171875 
L 26.90625 65.828125 
L 12.203125 56.296875 
L 12.203125 62.703125 
L 29.984375 74.21875 
L 36.71875 74.21875 
L 36.71875 5.171875 
L 49.421875 5.171875 
L 49.421875 0 
z
" id="DejaVuSerif-49"/>
      </defs>
      <g transform="translate(11.44875 37.090795)scale(0.12 -0.12)">
       <use xlink:href="#DejaVuSerif-49"/>
      </g>
     </g>
    </g>
   </g>
   <g id="line2d_8">
    <path clip-path="url(#p3ce2f7c0f8)" d="M 26.08375 289.622642 
L 508.315892 289.622642 
L 508.315892 289.622642 
" style="fill:none;stroke:#000000;stroke-linecap:square;"/>
   </g>
   <g id="line2d_9">
    <path clip-path="url(#p3ce2f7c0f8)" d="M 26.08375 32.531733 
L 508.315892 32.531733 
L 508.315892 32.531733 
" style="fill:none;stroke:#000000;stroke-linecap:square;"/>
   </g>
   <g id="line2d_10">
    <path clip-path="url(#p3ce2f7c0f8)" d="M 327.803317 546.713551 
L 327.803317 -1 
" style="fill:none;stroke:#555555;stroke-dasharray:3,4.95;stroke-dashoffset:0;stroke-width:3;"/>
   </g>
   <g id="line2d_11">
    <path clip-path="url(#p3ce2f7c0f8)" d="M 26.08375 279.339006 
L 54.109265 279.224078 
L 81.168383 278.887554 
L 106.294707 278.357202 
L 129.488237 277.654177 
L 150.748973 276.798087 
L 170.076915 275.810869 
L 188.438459 274.652689 
L 204.867209 273.399328 
L 220.329563 271.996948 
L 234.825519 270.450348 
L 247.388681 268.897312 
L 259.951843 267.114454 
L 271.548608 265.233167 
L 282.178976 263.280419 
L 291.842946 261.289631 
L 301.506917 259.066682 
L 310.204491 256.843063 
L 318.902065 254.382892 
L 326.633241 251.975311 
L 334.364418 249.337552 
L 342.095594 246.445702 
L 348.860374 243.686137 
L 355.625154 240.692262 
L 362.389933 237.442739 
L 369.154713 233.914271 
L 374.953095 230.648641 
L 380.751478 227.142087 
L 386.54986 223.375943 
L 392.348242 219.330141 
L 398.146625 214.983118 
L 403.945007 210.31173 
L 408.776993 206.153274 
L 413.608978 201.737061 
L 418.440964 197.046905 
L 423.272949 192.065692 
L 428.104934 186.775341 
L 432.93692 181.156771 
L 437.768905 175.189865 
L 442.600891 168.85343 
L 447.432876 162.125172 
L 452.264861 154.98166 
L 457.096847 147.398296 
L 461.928832 139.349294 
L 466.760817 130.807653 
L 471.592803 121.745139 
L 476.424788 112.132271 
L 481.256774 101.938311 
L 486.088759 91.131256 
L 490.920744 79.677844 
L 495.75273 67.543554 
L 500.584715 54.692627 
L 505.416701 41.088082 
L 508.315892 32.547786 
L 508.315892 32.547786 
" style="fill:none;stroke:#0000ff;stroke-linecap:square;stroke-width:3;"/>
   </g>
   <g id="line2d_12">
    <path clip-path="url(#p3ce2f7c0f8)" d="M 26.08375 279.339006 
L 54.109265 279.453348 
L 82.134781 279.797253 
L 109.193899 280.349152 
L 136.253017 281.118798 
L 163.312135 282.104989 
L 191.33765 283.344907 
L 223.228754 284.988041 
L 296.674932 288.892138 
L 312.137285 289.411489 
L 324.700447 289.61339 
L 335.330815 289.562702 
L 344.028389 289.320878 
L 352.725962 288.849832 
L 360.457139 288.193715 
L 367.221918 287.397963 
L 373.986698 286.356467 
L 379.78508 285.23536 
L 385.583463 283.870218 
L 390.415448 282.520251 
L 395.247434 280.952148 
L 400.079419 279.139437 
L 404.911404 277.052471 
L 408.776993 275.163234 
L 412.642581 273.058428 
L 416.508169 270.717376 
L 420.373758 268.117384 
L 424.239346 265.233533 
L 428.104934 262.038446 
L 431.970523 258.502021 
L 435.836111 254.59114 
L 439.701699 250.269338 
L 442.600891 246.734299 
L 445.500082 242.927144 
L 448.399273 238.828004 
L 451.298464 234.415476 
L 454.197655 229.66649 
L 457.096847 224.556173 
L 459.996038 219.057684 
L 462.895229 213.14205 
L 465.79442 206.777971 
L 468.693612 199.931616 
L 471.592803 192.566391 
L 474.491994 184.642691 
L 477.391185 176.117618 
L 480.290377 166.944675 
L 483.189568 157.073425 
L 486.088759 146.449116 
L 488.98795 135.01226 
L 491.887141 122.69817 
L 494.786333 109.436447 
L 497.685524 95.150398 
L 500.584715 79.756402 
L 503.483906 63.163187 
L 506.383098 45.271033 
L 508.315892 32.567851 
L 508.315892 32.567851 
" style="fill:none;stroke:#ff0000;stroke-linecap:square;stroke-width:3;"/>
   </g>
   <g id="line2d_13">
    <path clip-path="url(#p3ce2f7c0f8)" d="M 26.08375 279.339006 
L 145.916988 279.229364 
L 184.572871 278.971357 
L 212.598386 278.572392 
L 234.825519 278.040092 
L 253.187063 277.385386 
L 268.649417 276.625626 
L 282.178976 275.755664 
L 294.742138 274.73013 
L 306.338903 273.552312 
L 316.96927 272.234352 
L 326.633241 270.798307 
L 335.330815 269.276593 
L 343.061992 267.711606 
L 350.793168 265.916281 
L 357.557948 264.129929 
L 364.322727 262.115462 
L 371.087507 259.843476 
L 376.885889 257.665898 
L 382.684272 255.250975 
L 388.482654 252.572239 
L 393.31464 250.117176 
L 398.146625 247.439407 
L 402.97861 244.518031 
L 407.810596 241.330035 
L 412.642581 237.850058 
L 417.474566 234.050124 
L 421.340155 230.759149 
L 425.205743 227.22638 
L 429.071331 223.433047 
L 432.93692 219.358771 
L 436.802508 214.981415 
L 440.668096 210.276904 
L 444.533685 205.219029 
L 448.399273 199.779232 
L 452.264861 193.926357 
L 456.13045 187.626376 
L 459.996038 180.842078 
L 463.861626 173.532721 
L 467.727215 165.653632 
L 471.592803 157.155765 
L 475.458391 147.985184 
L 479.323979 138.082491 
L 483.189568 127.38216 
L 487.055156 115.811783 
L 489.954347 106.51513 
L 492.853539 96.647174 
L 495.75273 86.16789 
L 498.651921 75.033924 
L 501.551112 63.198266 
L 504.450303 50.609871 
L 507.349495 37.213252 
L 508.315892 32.557818 
L 508.315892 32.557818 
" style="fill:none;stroke:#bf00bf;stroke-linecap:square;stroke-width:2;"/>
   </g>
   <g id="patch_3">
    <path d="M 26.08375 302.477187 
L 26.08375 19.677187 
" style="fill:none;stroke:#000000;stroke-linecap:square;stroke-linejoin:miter;stroke-width:0.8;"/>
   </g>
   <g id="patch_4">
    <path d="M 508.32125 302.477187 
L 508.32125 19.677187 
" style="fill:none;stroke:#000000;stroke-linecap:square;stroke-linejoin:miter;stroke-width:0.8;"/>
   </g>
   <g id="patch_5">
    <path d="M 26.08375 302.477187 
L 508.32125 302.477187 
" style="fill:none;stroke:#000000;stroke-linecap:square;stroke-linejoin:miter;stroke-width:0.8;"/>
   </g>
   <g id="patch_6">
    <path d="M 26.08375 19.677187 
L 508.32125 19.677187 
" style="fill:none;stroke:#000000;stroke-linecap:square;stroke-linejoin:miter;stroke-width:0.8;"/>
   </g>
   <g id="text_9">
    <!-- Brewster's angle -->
    <defs>
     <path d="M 24.703125 5.171875 
L 39.3125 5.171875 
Q 48.09375 5.171875 52.140625 8.984375 
Q 56.203125 12.796875 56.203125 21.09375 
Q 56.203125 29.34375 52.171875 33.125 
Q 48.140625 36.921875 39.3125 36.921875 
L 24.703125 36.921875 
z
M 24.703125 42.09375 
L 37.109375 42.09375 
Q 45.125 42.09375 48.796875 45.171875 
Q 52.484375 48.25 52.484375 54.890625 
Q 52.484375 61.578125 48.796875 64.625 
Q 45.125 67.671875 37.109375 67.671875 
L 24.703125 67.671875 
z
M 5.515625 0 
L 5.515625 5.171875 
L 14.796875 5.171875 
L 14.796875 67.671875 
L 5.515625 67.671875 
L 5.515625 72.90625 
L 41.5 72.90625 
Q 52.546875 72.90625 58.125 68.390625 
Q 63.71875 63.875 63.71875 54.890625 
Q 63.71875 48.390625 59.828125 44.53125 
Q 55.953125 40.671875 48.484375 39.796875 
Q 57.765625 38.625 62.578125 33.859375 
Q 67.390625 29.109375 67.390625 21.09375 
Q 67.390625 10.25 60.546875 5.125 
Q 53.71875 0 39.203125 0 
z
" id="DejaVuSerif-66"/>
     <path d="M 47.796875 52 
L 47.796875 39.015625 
L 42.625 39.015625 
Q 42.390625 42.875 40.484375 44.78125 
Q 38.578125 46.6875 34.90625 46.6875 
Q 28.265625 46.6875 24.71875 42.09375 
Q 21.1875 37.5 21.1875 28.90625 
L 21.1875 5.171875 
L 31.59375 5.171875 
L 31.59375 0 
L 4.109375 0 
L 4.109375 5.171875 
L 12.203125 5.171875 
L 12.203125 46.78125 
L 3.609375 46.78125 
L 3.609375 51.90625 
L 21.1875 51.90625 
L 21.1875 42.671875 
Q 23.828125 48.09375 27.96875 50.703125 
Q 32.125 53.328125 38.09375 53.328125 
Q 40.28125 53.328125 42.703125 52.984375 
Q 45.125 52.640625 47.796875 52 
z
" id="DejaVuSerif-114"/>
     <path d="M 48 51.90625 
L 61.28125 11.375 
L 73 46.6875 
L 65.484375 46.6875 
L 65.484375 51.90625 
L 84.28125 51.90625 
L 84.28125 46.6875 
L 78.515625 46.6875 
L 63.09375 0 
L 55.609375 0 
L 42.828125 38.8125 
L 29.984375 0 
L 22.796875 0 
L 7.421875 46.6875 
L 1.609375 46.6875 
L 1.609375 51.90625 
L 25.09375 51.90625 
L 25.09375 46.6875 
L 16.703125 46.6875 
L 28.328125 11.375 
L 41.703125 51.90625 
z
" id="DejaVuSerif-119"/>
     <path d="M 5.609375 2.875 
L 5.609375 14.984375 
L 10.796875 14.984375 
Q 10.984375 9.1875 14.421875 6.296875 
Q 17.875 3.421875 24.609375 3.421875 
Q 30.671875 3.421875 33.84375 5.6875 
Q 37.015625 7.953125 37.015625 12.3125 
Q 37.015625 15.71875 34.6875 17.8125 
Q 32.375 19.921875 24.90625 22.3125 
L 18.40625 24.515625 
Q 11.71875 26.65625 8.71875 29.875 
Q 5.71875 33.109375 5.71875 38.09375 
Q 5.71875 45.21875 10.9375 49.265625 
Q 16.15625 53.328125 25.390625 53.328125 
Q 29.5 53.328125 34.03125 52.25 
Q 38.578125 51.171875 43.40625 49.125 
L 43.40625 37.796875 
L 38.234375 37.796875 
Q 38.03125 42.828125 34.703125 45.65625 
Q 31.390625 48.484375 25.6875 48.484375 
Q 20.015625 48.484375 17.109375 46.484375 
Q 14.203125 44.484375 14.203125 40.484375 
Q 14.203125 37.203125 16.40625 35.21875 
Q 18.609375 33.25 25.203125 31.203125 
L 32.328125 29 
Q 39.703125 26.703125 42.9375 23.265625 
Q 46.1875 19.828125 46.1875 14.40625 
Q 46.1875 7.03125 40.546875 2.796875 
Q 34.90625 -1.421875 25 -1.421875 
Q 19.96875 -1.421875 15.1875 -0.34375 
Q 10.40625 0.734375 5.609375 2.875 
z
" id="DejaVuSerif-115"/>
     <path d="M 10.796875 46.6875 
L 2.875 46.6875 
L 2.875 51.90625 
L 10.796875 51.90625 
L 10.796875 68.015625 
L 19.828125 68.015625 
L 19.828125 51.90625 
L 36.71875 51.90625 
L 36.71875 46.6875 
L 19.828125 46.6875 
L 19.828125 13.71875 
Q 19.828125 7.125 21.09375 5.265625 
Q 22.359375 3.421875 25.78125 3.421875 
Q 29.296875 3.421875 30.90625 5.484375 
Q 32.515625 7.5625 32.625 12.203125 
L 39.40625 12.203125 
Q 39.015625 5.125 35.546875 1.84375 
Q 32.078125 -1.421875 25 -1.421875 
Q 17.234375 -1.421875 14.015625 2.015625 
Q 10.796875 5.46875 10.796875 13.71875 
z
" id="DejaVuSerif-116"/>
     <path d="M 17.578125 72.90625 
L 17.578125 45.796875 
L 9.8125 45.796875 
L 9.8125 72.90625 
z
" id="DejaVuSerif-39"/>
     <path d="M 39.796875 16.3125 
L 39.796875 27.296875 
L 28.21875 27.296875 
Q 21.53125 27.296875 18.25 24.40625 
Q 14.984375 21.53125 14.984375 15.578125 
Q 14.984375 10.15625 18.296875 6.984375 
Q 21.625 3.8125 27.296875 3.8125 
Q 32.90625 3.8125 36.34375 7.28125 
Q 39.796875 10.75 39.796875 16.3125 
z
M 48.78125 32.421875 
L 48.78125 5.171875 
L 56.78125 5.171875 
L 56.78125 0 
L 39.796875 0 
L 39.796875 5.609375 
Q 36.8125 2 32.90625 0.28125 
Q 29 -1.421875 23.78125 -1.421875 
Q 15.140625 -1.421875 10.0625 3.171875 
Q 4.984375 7.765625 4.984375 15.578125 
Q 4.984375 23.640625 10.796875 28.078125 
Q 16.609375 32.515625 27.203125 32.515625 
L 39.796875 32.515625 
L 39.796875 36.078125 
Q 39.796875 42 36.203125 45.234375 
Q 32.625 48.484375 26.125 48.484375 
Q 20.75 48.484375 17.578125 46.046875 
Q 14.40625 43.609375 13.625 38.8125 
L 8.984375 38.8125 
L 8.984375 49.3125 
Q 13.671875 51.3125 18.09375 52.3125 
Q 22.515625 53.328125 26.703125 53.328125 
Q 37.5 53.328125 43.140625 47.96875 
Q 48.78125 42.625 48.78125 32.421875 
z
" id="DejaVuSerif-97"/>
    </defs>
    <g transform="translate(319.11231 225.152969)rotate(-90)scale(0.15 -0.15)">
     <use xlink:href="#DejaVuSerif-66"/>
     <use x="73.486328" xlink:href="#DejaVuSerif-114"/>
     <use x="121.289062" xlink:href="#DejaVuSerif-101"/>
     <use x="180.46875" xlink:href="#DejaVuSerif-119"/>
     <use x="266.064453" xlink:href="#DejaVuSerif-115"/>
     <use x="317.382812" xlink:href="#DejaVuSerif-116"/>
     <use x="357.568359" xlink:href="#DejaVuSerif-101"/>
     <use x="416.748047" xlink:href="#DejaVuSerif-114"/>
     <use x="464.550781" xlink:href="#DejaVuSerif-39"/>
     <use x="492.041016" xlink:href="#DejaVuSerif-115"/>
     <use x="543.359375" xlink:href="#DejaVuSerif-32"/>
     <use x="575.146484" xlink:href="#DejaVuSerif-97"/>
     <use x="634.765625" xlink:href="#DejaVuSerif-110"/>
     <use x="699.169922" xlink:href="#DejaVuSerif-103"/>
     <use x="763.183594" xlink:href="#DejaVuSerif-108"/>
     <use x="795.166016" xlink:href="#DejaVuSerif-101"/>
    </g>
   </g>
   <g id="text_10">
    <!-- Reflectance -->
    <defs>
     <path d="M 53.078125 35.59375 
Q 57.421875 34.96875 60.390625 32.71875 
Q 63.375 30.46875 65.578125 26.21875 
L 76.21875 5.90625 
L 83.6875 5.90625 
L 83.6875 0 
L 59.71875 0 
L 48.09375 22.015625 
Q 44.734375 28.859375 42.359375 30.734375 
Q 39.984375 32.625 35.796875 32.625 
L 32.8125 32.625 
L 32.8125 5.90625 
L 42.1875 5.90625 
L 42.1875 0 
L 4.6875 0 
L 4.6875 5.90625 
L 14.015625 5.90625 
L 14.015625 67 
L 4.6875 67 
L 4.6875 72.90625 
L 46.296875 72.90625 
Q 58.984375 72.90625 65.890625 67.796875 
Q 72.796875 62.703125 72.796875 53.328125 
Q 72.796875 45.703125 67.890625 41.28125 
Q 62.984375 36.859375 53.078125 35.59375 
z
M 32.8125 38.484375 
L 39.203125 38.484375 
Q 46.046875 38.484375 49.734375 42.1875 
Q 53.421875 45.90625 53.421875 52.78125 
Q 53.421875 59.671875 49.734375 63.328125 
Q 46.046875 67 39.203125 67 
L 32.8125 67 
z
" id="DejaVuSerif-Bold-82"/>
     <path d="M 40.09375 29.296875 
Q 40.09375 39.546875 38.1875 43.671875 
Q 36.28125 47.796875 31.6875 47.796875 
Q 27.25 47.796875 25.3125 43.75 
Q 23.390625 39.703125 23.390625 30.171875 
L 23.390625 29.296875 
z
M 59.078125 23.484375 
L 23.390625 23.484375 
L 23.390625 23.09375 
Q 23.390625 13.03125 26.40625 8.5625 
Q 29.4375 4.109375 36.1875 4.109375 
Q 41.796875 4.109375 45.265625 7.078125 
Q 48.734375 10.0625 49.703125 15.71875 
L 57.8125 15.71875 
Q 55.71875 6.890625 49.46875 2.734375 
Q 43.21875 -1.421875 31.984375 -1.421875 
Q 18.5 -1.421875 11.296875 5.6875 
Q 4.109375 12.796875 4.109375 25.984375 
Q 4.109375 38.875 11.46875 46.09375 
Q 18.84375 53.328125 31.984375 53.328125 
Q 44.875 53.328125 51.75 45.734375 
Q 58.640625 38.140625 59.078125 23.484375 
z
" id="DejaVuSerif-Bold-101"/>
     <path d="M 48.390625 62.984375 
L 42.921875 62.984375 
Q 42.53125 66.796875 40.703125 68.65625 
Q 38.875 70.515625 35.5 70.515625 
Q 31.59375 70.515625 29.828125 67.703125 
Q 28.078125 64.890625 28.078125 58.59375 
L 28.078125 51.90625 
L 41.109375 51.90625 
L 41.109375 46 
L 28.078125 46 
L 28.078125 5.90625 
L 38.09375 5.90625 
L 38.09375 0 
L 3.421875 0 
L 3.421875 5.90625 
L 10.796875 5.90625 
L 10.796875 46 
L 3.078125 46 
L 3.078125 51.90625 
L 10.796875 51.90625 
L 10.796875 58.40625 
Q 10.796875 67.046875 16.3125 71.515625 
Q 21.828125 75.984375 32.515625 75.984375 
Q 36.671875 75.984375 40.625 75.515625 
Q 44.578125 75.046875 48.390625 74.125 
z
" id="DejaVuSerif-Bold-102"/>
     <path d="M 28.078125 5.90625 
L 35.5 5.90625 
L 35.5 0 
L 3.421875 0 
L 3.421875 5.90625 
L 10.796875 5.90625 
L 10.796875 70.125 
L 3.421875 70.125 
L 3.421875 75.984375 
L 28.078125 75.984375 
z
" id="DejaVuSerif-Bold-108"/>
     <path d="M 56.390625 16.21875 
Q 54.546875 7.328125 48.796875 2.953125 
Q 43.0625 -1.421875 33.203125 -1.421875 
Q 19.34375 -1.421875 11.71875 5.75 
Q 4.109375 12.9375 4.109375 25.984375 
Q 4.109375 38.875 11.625 46.09375 
Q 19.140625 53.328125 32.515625 53.328125 
Q 37.9375 53.328125 43.453125 52.296875 
Q 48.96875 51.265625 54.6875 49.21875 
L 54.6875 34.8125 
L 49.21875 34.8125 
Q 48.4375 41.40625 45.359375 44.59375 
Q 42.28125 47.796875 36.71875 47.796875 
Q 29.5 47.796875 26.4375 42.90625 
Q 23.390625 38.03125 23.390625 25.984375 
Q 23.390625 14.203125 26.359375 9.15625 
Q 29.34375 4.109375 36.078125 4.109375 
Q 41.3125 4.109375 44.453125 7.234375 
Q 47.609375 10.359375 48.296875 16.21875 
z
" id="DejaVuSerif-Bold-99"/>
     <path d="M 9.90625 46 
L 2.390625 46 
L 2.390625 51.90625 
L 9.90625 51.90625 
L 9.90625 68.015625 
L 27.203125 68.015625 
L 27.203125 51.90625 
L 41.609375 51.90625 
L 41.609375 46 
L 27.203125 46 
L 27.203125 14.203125 
Q 27.203125 7.421875 28.265625 5.765625 
Q 29.34375 4.109375 32.171875 4.109375 
Q 35.296875 4.109375 36.8125 6.203125 
Q 38.328125 8.296875 38.421875 12.703125 
L 45.703125 12.703125 
Q 45.265625 4.890625 41.421875 1.734375 
Q 37.59375 -1.421875 28.21875 -1.421875 
Q 17.53125 -1.421875 13.71875 1.921875 
Q 9.90625 5.28125 9.90625 14.203125 
z
" id="DejaVuSerif-Bold-116"/>
     <path d="M 55.078125 31.890625 
L 55.078125 5.90625 
L 62.5 5.90625 
L 62.5 0 
L 37.796875 0 
L 37.796875 6.59375 
Q 34.375 2.484375 30.171875 0.53125 
Q 25.984375 -1.421875 20.609375 -1.421875 
Q 12.640625 -1.421875 8.375 2.84375 
Q 4.109375 7.125 4.109375 15.09375 
Q 4.109375 23.828125 10.234375 28.171875 
Q 16.359375 32.515625 28.71875 32.515625 
L 37.796875 32.515625 
L 37.796875 35.59375 
Q 37.796875 41.890625 34.8125 44.890625 
Q 31.84375 47.90625 25.59375 47.90625 
Q 20.40625 47.90625 17.59375 45.78125 
Q 14.796875 43.65625 13.625 38.8125 
L 8.109375 38.8125 
L 8.109375 50 
Q 12.75 51.65625 17.71875 52.484375 
Q 22.703125 53.328125 28.21875 53.328125 
Q 42.140625 53.328125 48.609375 48.140625 
Q 55.078125 42.96875 55.078125 31.890625 
z
M 37.796875 16.3125 
L 37.796875 26.703125 
L 31.296875 26.703125 
Q 26.46875 26.703125 23.875 24.0625 
Q 21.296875 21.4375 21.296875 16.5 
Q 21.296875 11.578125 23.171875 9.125 
Q 25.046875 6.6875 28.90625 6.6875 
Q 32.90625 6.6875 35.34375 9.328125 
Q 37.796875 11.96875 37.796875 16.3125 
z
" id="DejaVuSerif-Bold-97"/>
     <path d="M 3.421875 0 
L 3.421875 5.90625 
L 10.796875 5.90625 
L 10.796875 46 
L 3.421875 46 
L 3.421875 51.90625 
L 28.078125 51.90625 
L 28.078125 44.578125 
Q 31.203125 49.21875 35.203125 51.265625 
Q 39.203125 53.328125 45.3125 53.328125 
Q 54.046875 53.328125 58.515625 48.171875 
Q 62.984375 43.015625 62.984375 33.015625 
L 62.984375 5.90625 
L 70.40625 5.90625 
L 70.40625 0 
L 39.40625 0 
L 39.40625 5.90625 
L 45.703125 5.90625 
L 45.703125 33.5 
Q 45.703125 40.09375 44.015625 42.65625 
Q 42.328125 45.21875 38.1875 45.21875 
Q 32.953125 45.21875 30.515625 41.375 
Q 28.078125 37.546875 28.078125 29.203125 
L 28.078125 5.90625 
L 34.421875 5.90625 
L 34.421875 0 
z
" id="DejaVuSerif-Bold-110"/>
    </defs>
    <g transform="translate(207.761719 13.677187)scale(0.18 -0.18)">
     <use xlink:href="#DejaVuSerif-Bold-82"/>
     <use x="83.105469" xlink:href="#DejaVuSerif-Bold-101"/>
     <use x="146.728516" xlink:href="#DejaVuSerif-Bold-102"/>
     <use x="189.746094" xlink:href="#DejaVuSerif-Bold-108"/>
     <use x="227.734375" xlink:href="#DejaVuSerif-Bold-101"/>
     <use x="291.357422" xlink:href="#DejaVuSerif-Bold-99"/>
     <use x="352.246094" xlink:href="#DejaVuSerif-Bold-116"/>
     <use x="398.4375" xlink:href="#DejaVuSerif-Bold-97"/>
     <use x="463.232422" xlink:href="#DejaVuSerif-Bold-110"/>
     <use x="535.9375" xlink:href="#DejaVuSerif-Bold-99"/>
     <use x="596.826172" xlink:href="#DejaVuSerif-Bold-101"/>
    </g>
   </g>
   <g id="legend_1">
    <g id="patch_7">
     <path d="M 38.9285 121.485187 
L 122.7685 121.485187 
Q 125.9685 121.485187 125.9685 118.285187 
L 125.9685 47.285187 
Q 125.9685 44.085187 122.7685 44.085187 
L 38.9285 44.085187 
Q 35.7285 44.085187 35.7285 47.285187 
L 35.7285 118.285187 
Q 35.7285 121.485187 38.9285 121.485187 
z
" style="fill:#ffffff;opacity:0.8;stroke:#cccccc;stroke-linejoin:miter;"/>
    </g>
    <g id="line2d_14">
     <path d="M 42.1285 57.042687 
L 74.1285 57.042687 
" style="fill:none;stroke:#0000ff;stroke-linecap:square;stroke-width:3;"/>
    </g>
    <g id="line2d_15"/>
    <g id="text_11">
     <!-- $R_\bot$ -->
     <defs>
      <path d="M 47.90625 36.1875 
Q 51.125 35.25 53.171875 33.03125 
Q 55.21875 30.8125 56.390625 26.8125 
L 62.75 5.171875 
L 71.625 5.171875 
L 70.65625 0 
L 53.46875 0 
L 46.578125 23.1875 
Q 44.625 29.9375 42.28125 31.90625 
Q 39.9375 33.890625 35.15625 33.890625 
L 24.265625 33.890625 
L 18.65625 5.171875 
L 28.953125 5.171875 
L 27.984375 0 
L -1.515625 0 
L -0.53125 5.171875 
L 8.734375 5.171875 
L 20.90625 67.671875 
L 11.625 67.671875 
L 12.640625 72.90625 
L 49.609375 72.90625 
Q 60.25 72.90625 65.0625 67.828125 
Q 69.875 62.75 68.0625 53.421875 
Q 66.609375 45.90625 61.53125 41.578125 
Q 56.453125 37.25 47.90625 36.1875 
z
M 25.296875 39.109375 
L 39.703125 39.109375 
Q 47.078125 39.109375 51.25 42.59375 
Q 55.421875 46.09375 56.859375 53.421875 
Q 58.296875 60.75 55.4375 64.203125 
Q 52.59375 67.671875 45.21875 67.671875 
L 30.8125 67.671875 
z
" id="DejaVuSerif-Italic-82"/>
      <path d="M 10.59375 0 
L 10.59375 7.90625 
L 43.0625 7.90625 
L 43.0625 68.84375 
L 50.984375 68.84375 
L 50.984375 7.90625 
L 83.453125 7.90625 
L 83.453125 0 
z
" id="DejaVuSerif-8869"/>
     </defs>
     <g transform="translate(86.9285 62.642687)scale(0.16 -0.16)">
      <use transform="translate(0 0.09375)" xlink:href="#DejaVuSerif-Italic-82"/>
      <use transform="translate(75.292969 -15.478125)scale(0.7)" xlink:href="#DejaVuSerif-8869"/>
     </g>
    </g>
    <g id="line2d_16">
     <path d="M 42.1285 80.527687 
L 74.1285 80.527687 
" style="fill:none;stroke:#ff0000;stroke-linecap:square;stroke-width:3;"/>
    </g>
    <g id="line2d_17"/>
    <g id="text_12">
     <!-- $R_\parallel$ -->
     <defs>
      <path d="M 35.59375 82.671875 
L 35.59375 -9.765625 
L 27.6875 -9.765625 
L 27.6875 82.671875 
z
M 18.5 82.671875 
L 18.5 -9.765625 
L 10.59375 -9.765625 
L 10.59375 82.671875 
z
" id="DejaVuSerif-8741"/>
     </defs>
     <g transform="translate(86.9285 86.127687)scale(0.16 -0.16)">
      <use transform="translate(0 0.09375)" xlink:href="#DejaVuSerif-Italic-82"/>
      <use transform="translate(88.568359 -15.478125)scale(0.7)" xlink:href="#DejaVuSerif-8741"/>
     </g>
    </g>
    <g id="line2d_18">
     <path d="M 42.1285 104.365187 
L 74.1285 104.365187 
" style="fill:none;stroke:#bf00bf;stroke-linecap:square;stroke-width:2;"/>
    </g>
    <g id="line2d_19"/>
    <g id="text_13">
     <!-- $R_{avg}$ -->
     <defs>
      <path d="M 36.328125 8.109375 
Q 29.828125 -1.421875 19.34375 -1.421875 
Q 10.75 -1.421875 6.390625 4.390625 
Q 3.375 8.5 3.375 14.359375 
Q 3.375 16.84375 3.90625 19.625 
Q 7.234375 36.859375 19.234375 45.75 
Q 29.4375 53.328125 41.796875 53.328125 
Q 50.09375 53.328125 52.9375 51.90625 
L 43.84375 5.171875 
L 51.5625 5.171875 
L 50.59375 0 
L 34.765625 0 
z
M 12.84375 14.65625 
Q 12.84375 4.203125 22.953125 4.203125 
Q 29.109375 4.203125 33.28125 9.109375 
Q 37.453125 14.015625 39.3125 23.390625 
L 43.84375 46.921875 
L 43.84375 46.921875 
Q 43.84375 48.34375 39.9375 48.34375 
Q 30.5625 48.34375 23.296875 41.015625 
Q 16.0625 33.640625 13.484375 20.265625 
Q 12.84375 17.140625 12.84375 14.65625 
z
" id="DejaVuSerif-Italic-97"/>
      <path d="M 26.265625 0 
L 19.671875 0 
L 9.671875 46.6875 
L 3.765625 46.6875 
L 4.734375 51.90625 
L 18.171875 51.90625 
L 26.953125 10.984375 
Q 32.5625 15.875 36.328125 22.078125 
Q 44.140625 34.96875 46.921875 46.6875 
L 40.96875 46.6875 
L 42 51.90625 
L 55.421875 51.90625 
Q 50.09375 31.78125 43.359375 20.515625 
Q 37.5 10.75 26.265625 0 
z
" id="DejaVuSerif-Italic-118"/>
      <path d="M 59.71875 51.90625 
L 49.8125 1.125 
Q 47.5625 -10.5 40.328125 -16.109375 
Q 32.46875 -22.21875 21.578125 -22.21875 
Q 16.453125 -22.21875 11.953125 -21.28125 
Q 7.46875 -20.359375 3.515625 -18.5 
L 5.671875 -7.625 
L 10.359375 -7.625 
Q 10.203125 -12.703125 13.03125 -15.046875 
Q 15.875 -17.390625 21.96875 -17.390625 
Q 29.890625 -17.390625 34.421875 -12.890625 
Q 38.96875 -8.5 40.828125 1.125 
L 42.1875 8.109375 
Q 38.625 3.21875 34.078125 0.890625 
Q 29.546875 -1.421875 23.828125 -1.421875 
Q 15.234375 -1.421875 10.890625 4.390625 
Q 8.15625 8.0625 7.859375 13.140625 
Q 7.671875 16.109375 8.34375 19.625 
Q 11.71875 36.859375 23.6875 45.75 
Q 33.890625 53.265625 45.796875 53.328125 
Q 56.734375 53.375 59.71875 51.90625 
z
M 49.75 46.6875 
Q 49.703125 48.34375 44.4375 48.34375 
Q 34.90625 48.34375 27.734375 41.015625 
Q 20.5625 33.640625 17.921875 20.265625 
Q 17.1875 16.3125 17.390625 13.328125 
Q 17.578125 10.296875 18.796875 8.25 
Q 21.1875 4.203125 27.4375 4.203125 
Q 34.28125 4.203125 38.8125 9.109375 
Q 43.359375 14.015625 45.171875 23.390625 
L 46.140625 28.515625 
z
" id="DejaVuSerif-Italic-103"/>
     </defs>
     <g transform="translate(86.9285 109.965187)scale(0.16 -0.16)">
      <use transform="translate(0 0.09375)" xlink:href="#DejaVuSerif-Italic-82"/>
      <use transform="translate(75.292969 -15.478125)scale(0.7)" xlink:href="#DejaVuSerif-Italic-97"/>
      <use transform="translate(117.026367 -15.478125)scale(0.7)" xlink:href="#DejaVuSerif-Italic-118"/>
      <use transform="translate(156.572266 -15.478125)scale(0.7)" xlink:href="#DejaVuSerif-Italic-103"/>
     </g>
    </g>
   </g>
  </g>
  <g id="axes_2">
   <g id="patch_8">
    <path d="M 565.62125 302.477187 
L 1047.85875 302.477187 
L 1047.85875 19.677187 
L 565.62125 19.677187 
z
" style="fill:#ffffff;"/>
   </g>
   <g id="matplotlib.axis_3">
    <g id="xtick_5">
     <g id="line2d_20">
      <g>
       <use style="stroke:#000000;stroke-width:0.8;" x="565.62125" xlink:href="#m2ffc01f03e" y="302.477187"/>
      </g>
     </g>
     <g id="text_14">
      <!-- 0˚ -->
      <g transform="translate(558.80375 318.595312)scale(0.12 -0.12)">
       <use xlink:href="#DejaVuSerif-48"/>
       <use x="63.623047" xlink:href="#DejaVuSerif-730"/>
      </g>
     </g>
    </g>
    <g id="xtick_6">
     <g id="line2d_21">
      <g>
       <use style="stroke:#000000;stroke-width:0.8;" x="726.367083" xlink:href="#m2ffc01f03e" y="302.477187"/>
      </g>
     </g>
     <g id="text_15">
      <!-- 30˚ -->
      <g transform="translate(715.732083 318.595312)scale(0.12 -0.12)">
       <use xlink:href="#DejaVuSerif-51"/>
       <use x="63.623047" xlink:href="#DejaVuSerif-48"/>
       <use x="127.246094" xlink:href="#DejaVuSerif-730"/>
      </g>
     </g>
    </g>
    <g id="xtick_7">
     <g id="line2d_22">
      <g>
       <use style="stroke:#000000;stroke-width:0.8;" x="887.112917" xlink:href="#m2ffc01f03e" y="302.477187"/>
      </g>
     </g>
     <g id="text_16">
      <!-- 60˚ -->
      <g transform="translate(876.477917 318.595312)scale(0.12 -0.12)">
       <use xlink:href="#DejaVuSerif-54"/>
       <use x="63.623047" xlink:href="#DejaVuSerif-48"/>
       <use x="127.246094" xlink:href="#DejaVuSerif-730"/>
      </g>
     </g>
    </g>
    <g id="xtick_8">
     <g id="line2d_23">
      <g>
       <use style="stroke:#000000;stroke-width:0.8;" x="1047.85875" xlink:href="#m2ffc01f03e" y="302.477187"/>
      </g>
     </g>
     <g id="text_17">
      <!-- 90˚ -->
      <g transform="translate(1037.22375 318.595312)scale(0.12 -0.12)">
       <use xlink:href="#DejaVuSerif-57"/>
       <use x="63.623047" xlink:href="#DejaVuSerif-48"/>
       <use x="127.246094" xlink:href="#DejaVuSerif-730"/>
      </g>
     </g>
    </g>
    <g id="text_18">
     <!-- Angle of incidence -->
     <g transform="translate(731.55875 337.248437)scale(0.16 -0.16)">
      <use xlink:href="#DejaVuSerif-65"/>
      <use x="72.216797" xlink:href="#DejaVuSerif-110"/>
      <use x="136.621094" xlink:href="#DejaVuSerif-103"/>
      <use x="200.634766" xlink:href="#DejaVuSerif-108"/>
      <use x="232.617188" xlink:href="#DejaVuSerif-101"/>
      <use x="291.796875" xlink:href="#DejaVuSerif-32"/>
      <use x="323.583984" xlink:href="#DejaVuSerif-111"/>
      <use x="383.789062" xlink:href="#DejaVuSerif-102"/>
      <use x="420.800781" xlink:href="#DejaVuSerif-32"/>
      <use x="452.587891" xlink:href="#DejaVuSerif-105"/>
      <use x="484.570312" xlink:href="#DejaVuSerif-110"/>
      <use x="548.974609" xlink:href="#DejaVuSerif-99"/>
      <use x="604.980469" xlink:href="#DejaVuSerif-105"/>
      <use x="636.962891" xlink:href="#DejaVuSerif-100"/>
      <use x="700.976562" xlink:href="#DejaVuSerif-101"/>
      <use x="760.15625" xlink:href="#DejaVuSerif-110"/>
      <use x="824.560547" xlink:href="#DejaVuSerif-99"/>
      <use x="880.566406" xlink:href="#DejaVuSerif-101"/>
     </g>
    </g>
   </g>
   <g id="matplotlib.axis_4">
    <g id="ytick_4">
     <g id="line2d_24">
      <g>
       <use style="stroke:#000000;stroke-width:0.8;" x="565.62125" xlink:href="#me76bb0d0e9" y="289.622642"/>
      </g>
     </g>
     <g id="text_19">
      <!-- 0˚ -->
      <g transform="translate(544.98625 294.181705)scale(0.12 -0.12)">
       <use xlink:href="#DejaVuSerif-48"/>
       <use x="63.623047" xlink:href="#DejaVuSerif-730"/>
      </g>
     </g>
    </g>
    <g id="ytick_5">
     <g id="line2d_25">
      <g>
       <use style="stroke:#000000;stroke-width:0.8;" x="565.62125" xlink:href="#me76bb0d0e9" y="161.077187"/>
      </g>
     </g>
     <g id="text_20">
      <!-- 90˚ -->
      <g transform="translate(537.35125 165.63625)scale(0.12 -0.12)">
       <use xlink:href="#DejaVuSerif-57"/>
       <use x="63.623047" xlink:href="#DejaVuSerif-48"/>
       <use x="127.246094" xlink:href="#DejaVuSerif-730"/>
      </g>
     </g>
    </g>
    <g id="ytick_6">
     <g id="line2d_26">
      <g>
       <use style="stroke:#000000;stroke-width:0.8;" x="565.62125" xlink:href="#me76bb0d0e9" y="32.531733"/>
      </g>
     </g>
     <g id="text_21">
      <!-- 180˚ -->
      <defs>
       <path d="M 46.578125 19.921875 
Q 46.578125 27.734375 42.6875 32.046875 
Q 38.8125 36.375 31.78125 36.375 
Q 24.75 36.375 20.875 32.046875 
Q 17 27.734375 17 19.921875 
Q 17 12.0625 20.875 7.734375 
Q 24.75 3.421875 31.78125 3.421875 
Q 38.8125 3.421875 42.6875 7.734375 
Q 46.578125 12.0625 46.578125 19.921875 
z
M 44.578125 55.328125 
Q 44.578125 61.96875 41.203125 65.671875 
Q 37.84375 69.390625 31.78125 69.390625 
Q 25.78125 69.390625 22.390625 65.671875 
Q 19 61.96875 19 55.328125 
Q 19 48.640625 22.390625 44.921875 
Q 25.78125 41.21875 31.78125 41.21875 
Q 37.84375 41.21875 41.203125 44.921875 
Q 44.578125 48.640625 44.578125 55.328125 
z
M 39.3125 38.8125 
Q 47.609375 37.703125 52.25 32.6875 
Q 56.890625 27.6875 56.890625 19.921875 
Q 56.890625 9.671875 50.390625 4.125 
Q 43.890625 -1.421875 31.78125 -1.421875 
Q 19.734375 -1.421875 13.203125 4.125 
Q 6.6875 9.671875 6.6875 19.921875 
Q 6.6875 27.6875 11.328125 32.6875 
Q 15.96875 37.703125 24.3125 38.8125 
Q 16.9375 40.140625 13 44.40625 
Q 9.078125 48.6875 9.078125 55.328125 
Q 9.078125 64.109375 15.125 69.15625 
Q 21.1875 74.21875 31.78125 74.21875 
Q 42.390625 74.21875 48.4375 69.15625 
Q 54.5 64.109375 54.5 55.328125 
Q 54.5 48.6875 50.5625 44.40625 
Q 46.625 40.140625 39.3125 38.8125 
z
" id="DejaVuSerif-56"/>
      </defs>
      <g transform="translate(529.71625 37.090795)scale(0.12 -0.12)">
       <use xlink:href="#DejaVuSerif-49"/>
       <use x="63.623047" xlink:href="#DejaVuSerif-56"/>
       <use x="127.246094" xlink:href="#DejaVuSerif-48"/>
       <use x="190.869141" xlink:href="#DejaVuSerif-730"/>
      </g>
     </g>
    </g>
   </g>
   <g id="line2d_27">
    <path clip-path="url(#p81d8b16400)" d="M 565.62125 289.622642 
L 1047.853392 289.622642 
L 1047.853392 289.622642 
" style="fill:none;stroke:#000000;stroke-linecap:square;"/>
   </g>
   <g id="line2d_28">
    <path clip-path="url(#p81d8b16400)" d="M 565.62125 32.531733 
L 1047.853392 32.531733 
L 1047.853392 32.531733 
" style="fill:none;stroke:#000000;stroke-linecap:square;"/>
   </g>
   <g id="line2d_29">
    <path clip-path="url(#p81d8b16400)" d="M 867.340817 371.45722 
L 867.340817 -1 
" style="fill:none;stroke:#555555;stroke-dasharray:3,4.95;stroke-dashoffset:0;stroke-width:3;"/>
   </g>
   <g id="line2d_30">
    <path clip-path="url(#p81d8b16400)" d="M 867.340817 371.45722 
L 867.340817 -1 
" style="fill:none;stroke:#555555;stroke-dasharray:3,4.95;stroke-dashoffset:0;stroke-width:3;"/>
   </g>
   <g id="line2d_31">
    <path clip-path="url(#p81d8b16400)" d="M 565.62125 32.531733 
L 867.137138 32.531733 
L 868.103535 289.622642 
L 1047.853392 289.622642 
L 1047.853392 289.622642 
" style="fill:none;stroke:#000000;stroke-dasharray:14.8,6.4;stroke-dashoffset:0;stroke-width:4;"/>
   </g>
   <g id="line2d_32">
    <path clip-path="url(#p81d8b16400)" d="M 565.62125 32.531733 
L 1047.853392 32.531733 
L 1047.853392 32.531733 
" style="fill:none;stroke:#0000ff;stroke-linecap:square;stroke-width:2;"/>
   </g>
   <g id="line2d_33">
    <path clip-path="url(#p81d8b16400)" d="M 565.62125 289.622642 
L 867.137138 289.622642 
L 868.103535 32.531733 
L 1047.853392 32.531733 
L 1047.853392 32.531733 
" style="fill:none;stroke:#ff0000;stroke-linecap:square;stroke-width:2;"/>
   </g>
   <g id="patch_9">
    <path d="M 565.62125 302.477187 
L 565.62125 19.677187 
" style="fill:none;stroke:#000000;stroke-linecap:square;stroke-linejoin:miter;stroke-width:0.8;"/>
   </g>
   <g id="patch_10">
    <path d="M 1047.85875 302.477187 
L 1047.85875 19.677187 
" style="fill:none;stroke:#000000;stroke-linecap:square;stroke-linejoin:miter;stroke-width:0.8;"/>
   </g>
   <g id="patch_11">
    <path d="M 565.62125 302.477187 
L 1047.85875 302.477187 
" style="fill:none;stroke:#000000;stroke-linecap:square;stroke-linejoin:miter;stroke-width:0.8;"/>
   </g>
   <g id="patch_12">
    <path d="M 565.62125 19.677187 
L 1047.85875 19.677187 
" style="fill:none;stroke:#000000;stroke-linecap:square;stroke-linejoin:miter;stroke-width:0.8;"/>
   </g>
   <g id="text_22">
    <!-- Brewster's angle -->
    <g transform="translate(858.64981 225.152969)rotate(-90)scale(0.15 -0.15)">
     <use xlink:href="#DejaVuSerif-66"/>
     <use x="73.486328" xlink:href="#DejaVuSerif-114"/>
     <use x="121.289062" xlink:href="#DejaVuSerif-101"/>
     <use x="180.46875" xlink:href="#DejaVuSerif-119"/>
     <use x="266.064453" xlink:href="#DejaVuSerif-115"/>
     <use x="317.382812" xlink:href="#DejaVuSerif-116"/>
     <use x="357.568359" xlink:href="#DejaVuSerif-101"/>
     <use x="416.748047" xlink:href="#DejaVuSerif-114"/>
     <use x="464.550781" xlink:href="#DejaVuSerif-39"/>
     <use x="492.041016" xlink:href="#DejaVuSerif-115"/>
     <use x="543.359375" xlink:href="#DejaVuSerif-32"/>
     <use x="575.146484" xlink:href="#DejaVuSerif-97"/>
     <use x="634.765625" xlink:href="#DejaVuSerif-110"/>
     <use x="699.169922" xlink:href="#DejaVuSerif-103"/>
     <use x="763.183594" xlink:href="#DejaVuSerif-108"/>
     <use x="795.166016" xlink:href="#DejaVuSerif-101"/>
    </g>
   </g>
   <g id="text_23">
    <!-- Brewster's angle -->
    <g transform="translate(858.64981 225.152969)rotate(-90)scale(0.15 -0.15)">
     <use xlink:href="#DejaVuSerif-66"/>
     <use x="73.486328" xlink:href="#DejaVuSerif-114"/>
     <use x="121.289062" xlink:href="#DejaVuSerif-101"/>
     <use x="180.46875" xlink:href="#DejaVuSerif-119"/>
     <use x="266.064453" xlink:href="#DejaVuSerif-115"/>
     <use x="317.382812" xlink:href="#DejaVuSerif-116"/>
     <use x="357.568359" xlink:href="#DejaVuSerif-101"/>
     <use x="416.748047" xlink:href="#DejaVuSerif-114"/>
     <use x="464.550781" xlink:href="#DejaVuSerif-39"/>
     <use x="492.041016" xlink:href="#DejaVuSerif-115"/>
     <use x="543.359375" xlink:href="#DejaVuSerif-32"/>
     <use x="575.146484" xlink:href="#DejaVuSerif-97"/>
     <use x="634.765625" xlink:href="#DejaVuSerif-110"/>
     <use x="699.169922" xlink:href="#DejaVuSerif-103"/>
     <use x="763.183594" xlink:href="#DejaVuSerif-108"/>
     <use x="795.166016" xlink:href="#DejaVuSerif-101"/>
    </g>
   </g>
   <g id="text_24">
    <!-- Phase delay -->
    <defs>
     <path d="M 4.6875 0 
L 4.6875 5.90625 
L 14.015625 5.90625 
L 14.015625 67 
L 4.6875 67 
L 4.6875 72.90625 
L 46.1875 72.90625 
Q 58.34375 72.90625 65.515625 67.109375 
Q 72.703125 61.328125 72.703125 51.609375 
Q 72.703125 41.84375 65.5 36 
Q 58.296875 30.171875 46.1875 30.171875 
L 32.8125 30.171875 
L 32.8125 5.90625 
L 44.578125 5.90625 
L 44.578125 0 
z
M 32.8125 36.078125 
L 38.28125 36.078125 
Q 44.625 36.078125 48.40625 40.296875 
Q 52.203125 44.53125 52.203125 51.609375 
Q 52.203125 58.640625 48.4375 62.8125 
Q 44.671875 67 38.28125 67 
L 32.8125 67 
z
" id="DejaVuSerif-Bold-80"/>
     <path d="M 3.421875 0 
L 3.421875 5.90625 
L 10.796875 5.90625 
L 10.796875 70.125 
L 3.078125 70.125 
L 3.078125 75.984375 
L 28.078125 75.984375 
L 28.078125 44.578125 
Q 31.203125 49.21875 35.203125 51.265625 
Q 39.203125 53.328125 45.3125 53.328125 
Q 54.046875 53.328125 58.515625 48.171875 
Q 62.984375 43.015625 62.984375 33.015625 
L 62.984375 5.90625 
L 70.40625 5.90625 
L 70.40625 0 
L 39.40625 0 
L 39.40625 5.90625 
L 45.703125 5.90625 
L 45.703125 33.5 
Q 45.703125 40.09375 44.015625 42.65625 
Q 42.328125 45.21875 38.1875 45.21875 
Q 32.953125 45.21875 30.515625 41.375 
Q 28.078125 37.546875 28.078125 29.203125 
L 28.078125 5.90625 
L 34.421875 5.90625 
L 34.421875 0 
z
" id="DejaVuSerif-Bold-104"/>
     <path d="M 4.6875 1.515625 
L 4.6875 16.015625 
L 10.203125 16.015625 
Q 10.890625 10.203125 14.546875 7.15625 
Q 18.21875 4.109375 24.515625 4.109375 
Q 29.78125 4.109375 32.59375 5.9375 
Q 35.40625 7.765625 35.40625 11.1875 
Q 35.40625 14.3125 33.625 16.015625 
Q 31.84375 17.71875 26.703125 19 
L 19.578125 20.796875 
Q 11.53125 22.796875 7.90625 26.53125 
Q 4.296875 30.28125 4.296875 36.625 
Q 4.296875 45.0625 10.15625 49.1875 
Q 16.015625 53.328125 28.21875 53.328125 
Q 32.8125 53.328125 38.015625 52.5625 
Q 43.21875 51.8125 49.515625 50.203125 
L 49.515625 37.109375 
L 44 37.109375 
Q 43.5625 42.4375 40.203125 45.109375 
Q 36.859375 47.796875 30.609375 47.796875 
Q 25.34375 47.796875 22.625 46.109375 
Q 19.921875 44.4375 19.921875 41.21875 
Q 19.921875 38.578125 21.484375 37.0625 
Q 23.046875 35.546875 27.09375 34.515625 
L 34.1875 32.71875 
Q 44.390625 30.125 48.296875 26.3125 
Q 52.203125 22.515625 52.203125 15.71875 
Q 52.203125 6.9375 45.921875 2.75 
Q 39.65625 -1.421875 26.421875 -1.421875 
Q 21.578125 -1.421875 16.15625 -0.6875 
Q 10.75 0.046875 4.6875 1.515625 
z
" id="DejaVuSerif-Bold-115"/>
     <path id="DejaVuSerif-Bold-32"/>
     <path d="M 42.921875 23.390625 
L 42.921875 28.515625 
Q 42.921875 37.59375 40.578125 41.640625 
Q 38.234375 45.703125 33.109375 45.703125 
Q 27.734375 45.703125 25.5625 41.421875 
Q 23.390625 37.15625 23.390625 25.984375 
Q 23.390625 14.796875 25.578125 10.5 
Q 27.78125 6.203125 33.109375 6.203125 
Q 38.234375 6.203125 40.578125 10.25 
Q 42.921875 14.3125 42.921875 23.390625 
z
M 60.203125 5.90625 
L 67.578125 5.90625 
L 67.578125 0 
L 42.921875 0 
L 42.921875 6.59375 
Q 40.71875 2.546875 36.984375 0.5625 
Q 33.25 -1.421875 27.78125 -1.421875 
Q 16.75 -1.421875 10.421875 5.90625 
Q 4.109375 13.234375 4.109375 25.984375 
Q 4.109375 38.765625 10.421875 46.046875 
Q 16.75 53.328125 27.78125 53.328125 
Q 33.25 53.328125 36.984375 51.34375 
Q 40.71875 49.359375 42.921875 45.3125 
L 42.921875 70.125 
L 35.5 70.125 
L 35.5 75.984375 
L 60.203125 75.984375 
z
" id="DejaVuSerif-Bold-100"/>
     <path d="M 31.203125 -11.71875 
Q 28.859375 -17.4375 25.53125 -19.828125 
Q 22.21875 -22.21875 16.609375 -22.21875 
Q 14.203125 -22.21875 11.265625 -21.671875 
Q 8.34375 -21.140625 4.890625 -20.125 
L 4.890625 -9.28125 
L 10.40625 -9.328125 
Q 10.546875 -13.09375 12.171875 -14.890625 
Q 13.8125 -16.703125 17.09375 -16.703125 
Q 20.265625 -16.703125 22.21875 -14.96875 
Q 24.171875 -13.234375 26.125 -8.40625 
L 26.90625 -6.59375 
L 4.296875 46 
L -1.3125 46 
L -1.3125 51.90625 
L 28.609375 51.90625 
L 28.609375 46 
L 22.40625 46 
L 35.59375 15.28125 
L 47.90625 46 
L 41.015625 46 
L 41.015625 51.90625 
L 60.5 51.90625 
L 60.5 46 
L 54.203125 46 
z
" id="DejaVuSerif-Bold-121"/>
    </defs>
    <g transform="translate(747.17125 13.677187)scale(0.18 -0.18)">
     <use xlink:href="#DejaVuSerif-Bold-80"/>
     <use x="75.195312" xlink:href="#DejaVuSerif-Bold-104"/>
     <use x="147.900391" xlink:href="#DejaVuSerif-Bold-97"/>
     <use x="212.695312" xlink:href="#DejaVuSerif-Bold-115"/>
     <use x="268.994141" xlink:href="#DejaVuSerif-Bold-101"/>
     <use x="332.617188" xlink:href="#DejaVuSerif-Bold-32"/>
     <use x="367.431641" xlink:href="#DejaVuSerif-Bold-100"/>
     <use x="437.353516" xlink:href="#DejaVuSerif-Bold-101"/>
     <use x="500.976562" xlink:href="#DejaVuSerif-Bold-108"/>
     <use x="538.964844" xlink:href="#DejaVuSerif-Bold-97"/>
     <use x="603.759766" xlink:href="#DejaVuSerif-Bold-121"/>
    </g>
   </g>
   <g id="legend_2">
    <g id="patch_13">
     <path d="M 578.466 121.485187 
L 689.346 121.485187 
Q 692.546 121.485187 692.546 118.285187 
L 692.546 48.400188 
Q 692.546 45.200187 689.346 45.200187 
L 578.466 45.200187 
Q 575.266 45.200187 575.266 48.400188 
L 575.266 118.285187 
Q 575.266 121.485187 578.466 121.485187 
z
" style="fill:#ffffff;opacity:0.8;stroke:#cccccc;stroke-linejoin:miter;"/>
    </g>
    <g id="line2d_34">
     <path d="M 581.666 58.320187 
L 613.666 58.320187 
" style="fill:none;stroke:#000000;stroke-dasharray:14.8,6.4;stroke-dashoffset:0;stroke-width:4;"/>
    </g>
    <g id="line2d_35"/>
    <g id="text_25">
     <!-- $\delta_\parallel - \delta_\bot$ -->
     <defs>
      <path d="M 20.40625 50.59375 
Q 17.328125 51.859375 16.265625 54.203125 
Q 14.9375 56.9375 16.265625 63.625 
Q 17.484375 69.921875 22.90625 73.25 
Q 28.328125 76.515625 37.890625 76.515625 
Q 40.53125 76.515625 45.453125 75.734375 
Q 50.390625 74.90625 55.5625 73.390625 
L 53.65625 63.765625 
L 48.1875 62.546875 
Q 48.4375 66.890625 45.359375 69.140625 
Q 42.28125 71.34375 37.6875 71.34375 
Q 33.109375 71.34375 29.25 68.953125 
Q 25.203125 66.40625 24.703125 63.1875 
Q 24.03125 58.546875 25.296875 56.984375 
Q 28.375 53.328125 33.15625 53.328125 
Q 44.53125 53.328125 49.921875 45.84375 
Q 55.328125 38.375 52.921875 25.96875 
Q 50.53125 13.578125 42.203125 6.078125 
Q 33.890625 -1.421875 22.515625 -1.421875 
Q 11.1875 -1.421875 5.765625 6.078125 
Q 0.34375 13.578125 2.734375 25.96875 
Q 5.125 38.375 13.484375 45.84375 
Q 17.140625 49.125 20.40625 50.59375 
z
M 23.4375 3.421875 
Q 30.671875 3.421875 35.46875 9.125 
Q 40.28125 14.84375 42.421875 25.96875 
Q 44.578125 37.109375 42.015625 42.796875 
Q 39.453125 48.484375 32.21875 48.484375 
Q 25 48.484375 20.1875 42.796875 
Q 15.375 37.109375 13.21875 25.96875 
Q 11.078125 14.84375 13.671875 9.125 
Q 16.265625 3.421875 23.4375 3.421875 
z
" id="DejaVuSerif-Italic-948"/>
      <path d="M 10.59375 35.296875 
L 73.1875 35.296875 
L 73.1875 27.390625 
L 10.59375 27.390625 
z
" id="DejaVuSerif-8722"/>
     </defs>
     <g transform="translate(626.466 63.920187)scale(0.16 -0.16)">
      <use transform="translate(0 0.484375)" xlink:href="#DejaVuSerif-Italic-948"/>
      <use transform="translate(73.480469 -15.0875)scale(0.7)" xlink:href="#DejaVuSerif-8741"/>
      <use transform="translate(140.65 0.484375)" xlink:href="#DejaVuSerif-8722"/>
      <use transform="translate(243.403906 0.484375)" xlink:href="#DejaVuSerif-Italic-948"/>
      <use transform="translate(303.608984 -15.0875)scale(0.7)" xlink:href="#DejaVuSerif-8869"/>
     </g>
    </g>
    <g id="line2d_36">
     <path d="M 581.666 82.157687 
L 613.666 82.157687 
" style="fill:none;stroke:#0000ff;stroke-linecap:square;stroke-width:2;"/>
    </g>
    <g id="line2d_37"/>
    <g id="text_26">
     <!-- $\delta_\bot$ -->
     <g transform="translate(626.466 87.757687)scale(0.16 -0.16)">
      <use transform="translate(0 0.484375)" xlink:href="#DejaVuSerif-Italic-948"/>
      <use transform="translate(60.205078 -15.0875)scale(0.7)" xlink:href="#DejaVuSerif-8869"/>
     </g>
    </g>
    <g id="line2d_38">
     <path d="M 581.666 105.805187 
L 613.666 105.805187 
" style="fill:none;stroke:#ff0000;stroke-linecap:square;stroke-width:2;"/>
    </g>
    <g id="line2d_39"/>
    <g id="text_27">
     <!-- $\delta_\parallel$ -->
     <g transform="translate(626.466 111.405187)scale(0.16 -0.16)">
      <use transform="translate(0 0.484375)" xlink:href="#DejaVuSerif-Italic-948"/>
      <use transform="translate(73.480469 -15.0875)scale(0.7)" xlink:href="#DejaVuSerif-8741"/>
     </g>
    </g>
   </g>
  </g>
  <g id="axes_3">
   <g id="patch_14">
    <path d="M 26.08375 657.077187 
L 508.32125 657.077187 
L 508.32125 374.277187 
L 26.08375 374.277187 
z
" style="fill:#ffffff;"/>
   </g>
   <g id="matplotlib.axis_5">
    <g id="xtick_9">
     <g id="line2d_40">
      <g>
       <use style="stroke:#000000;stroke-width:0.8;" x="26.08375" xlink:href="#m2ffc01f03e" y="657.077187"/>
      </g>
     </g>
     <g id="text_28">
      <!-- 0˚ -->
      <g transform="translate(19.26625 673.195312)scale(0.12 -0.12)">
       <use xlink:href="#DejaVuSerif-48"/>
       <use x="63.623047" xlink:href="#DejaVuSerif-730"/>
      </g>
     </g>
    </g>
    <g id="xtick_10">
     <g id="line2d_41">
      <g>
       <use style="stroke:#000000;stroke-width:0.8;" x="186.829583" xlink:href="#m2ffc01f03e" y="657.077187"/>
      </g>
     </g>
     <g id="text_29">
      <!-- 30˚ -->
      <g transform="translate(176.194583 673.195312)scale(0.12 -0.12)">
       <use xlink:href="#DejaVuSerif-51"/>
       <use x="63.623047" xlink:href="#DejaVuSerif-48"/>
       <use x="127.246094" xlink:href="#DejaVuSerif-730"/>
      </g>
     </g>
    </g>
    <g id="xtick_11">
     <g id="line2d_42">
      <g>
       <use style="stroke:#000000;stroke-width:0.8;" x="347.575417" xlink:href="#m2ffc01f03e" y="657.077187"/>
      </g>
     </g>
     <g id="text_30">
      <!-- 60˚ -->
      <g transform="translate(336.940417 673.195312)scale(0.12 -0.12)">
       <use xlink:href="#DejaVuSerif-54"/>
       <use x="63.623047" xlink:href="#DejaVuSerif-48"/>
       <use x="127.246094" xlink:href="#DejaVuSerif-730"/>
      </g>
     </g>
    </g>
    <g id="xtick_12">
     <g id="line2d_43">
      <g>
       <use style="stroke:#000000;stroke-width:0.8;" x="508.32125" xlink:href="#m2ffc01f03e" y="657.077187"/>
      </g>
     </g>
     <g id="text_31">
      <!-- 90˚ -->
      <g transform="translate(497.68625 673.195312)scale(0.12 -0.12)">
       <use xlink:href="#DejaVuSerif-57"/>
       <use x="63.623047" xlink:href="#DejaVuSerif-48"/>
       <use x="127.246094" xlink:href="#DejaVuSerif-730"/>
      </g>
     </g>
    </g>
    <g id="text_32">
     <!-- Angle of incidence -->
     <g transform="translate(192.02125 691.848437)scale(0.16 -0.16)">
      <use xlink:href="#DejaVuSerif-65"/>
      <use x="72.216797" xlink:href="#DejaVuSerif-110"/>
      <use x="136.621094" xlink:href="#DejaVuSerif-103"/>
      <use x="200.634766" xlink:href="#DejaVuSerif-108"/>
      <use x="232.617188" xlink:href="#DejaVuSerif-101"/>
      <use x="291.796875" xlink:href="#DejaVuSerif-32"/>
      <use x="323.583984" xlink:href="#DejaVuSerif-111"/>
      <use x="383.789062" xlink:href="#DejaVuSerif-102"/>
      <use x="420.800781" xlink:href="#DejaVuSerif-32"/>
      <use x="452.587891" xlink:href="#DejaVuSerif-105"/>
      <use x="484.570312" xlink:href="#DejaVuSerif-110"/>
      <use x="548.974609" xlink:href="#DejaVuSerif-99"/>
      <use x="604.980469" xlink:href="#DejaVuSerif-105"/>
      <use x="636.962891" xlink:href="#DejaVuSerif-100"/>
      <use x="700.976562" xlink:href="#DejaVuSerif-101"/>
      <use x="760.15625" xlink:href="#DejaVuSerif-110"/>
      <use x="824.560547" xlink:href="#DejaVuSerif-99"/>
      <use x="880.566406" xlink:href="#DejaVuSerif-101"/>
     </g>
    </g>
   </g>
   <g id="matplotlib.axis_6">
    <g id="ytick_7">
     <g id="line2d_44">
      <g>
       <use style="stroke:#000000;stroke-width:0.8;" x="26.08375" xlink:href="#me76bb0d0e9" y="644.222642"/>
      </g>
     </g>
     <g id="text_33">
      <!-- 0 -->
      <g transform="translate(11.44875 648.781705)scale(0.12 -0.12)">
       <use xlink:href="#DejaVuSerif-48"/>
      </g>
     </g>
    </g>
    <g id="ytick_8">
     <g id="line2d_45">
      <g>
       <use style="stroke:#000000;stroke-width:0.8;" x="26.08375" xlink:href="#me76bb0d0e9" y="515.677187"/>
      </g>
     </g>
     <g id="text_34">
      <!-- 0.5 -->
      <g transform="translate(0 520.23625)scale(0.12 -0.12)">
       <use xlink:href="#DejaVuSerif-48"/>
       <use x="63.623047" xlink:href="#DejaVuSerif-46"/>
       <use x="95.410156" xlink:href="#DejaVuSerif-53"/>
      </g>
     </g>
    </g>
    <g id="ytick_9">
     <g id="line2d_46">
      <g>
       <use style="stroke:#000000;stroke-width:0.8;" x="26.08375" xlink:href="#me76bb0d0e9" y="387.131733"/>
      </g>
     </g>
     <g id="text_35">
      <!-- 1 -->
      <g transform="translate(11.44875 391.690795)scale(0.12 -0.12)">
       <use xlink:href="#DejaVuSerif-49"/>
      </g>
     </g>
    </g>
   </g>
   <g id="line2d_47">
    <path clip-path="url(#pce3f145cd8)" d="M 26.08375 644.222642 
L 508.315892 644.222642 
L 508.315892 644.222642 
" style="fill:none;stroke:#000000;stroke-linecap:square;"/>
   </g>
   <g id="line2d_48">
    <path clip-path="url(#pce3f145cd8)" d="M 327.803317 696.403437 
L 327.803317 -1 
" style="fill:none;stroke:#555555;stroke-dasharray:3,4.95;stroke-dashoffset:0;stroke-width:3;"/>
   </g>
   <g id="line2d_49">
    <path clip-path="url(#pce3f145cd8)" d="M 26.08375 387.131733 
L 508.315892 387.131733 
L 508.315892 387.131733 
" style="fill:none;stroke:#000000;stroke-linecap:square;"/>
   </g>
   <g id="line2d_50">
    <path clip-path="url(#pce3f145cd8)" d="M 26.08375 644.222642 
L 31.882132 644.100345 
L 37.680515 643.733249 
L 43.478897 643.120748 
L 49.27728 642.261833 
L 55.075662 641.155108 
L 60.874045 639.7988 
L 66.672427 638.190775 
L 72.47081 636.328567 
L 78.269192 634.209402 
L 84.067575 631.830231 
L 89.865957 629.18778 
L 95.66434 626.27859 
L 101.462722 623.099086 
L 107.261105 619.645641 
L 113.059487 615.91466 
L 118.857869 611.902677 
L 124.656252 607.606463 
L 130.454634 603.023156 
L 136.253017 598.150404 
L 142.051399 592.986532 
L 147.849782 587.530726 
L 153.648164 581.783245 
L 159.446547 575.745653 
L 165.244929 569.421073 
L 172.009709 561.686414 
L 178.774488 553.579592 
L 185.539268 545.116888 
L 192.304047 536.319987 
L 200.035224 525.893194 
L 208.732798 513.751148 
L 218.396768 499.861361 
L 233.859122 477.178482 
L 247.388681 457.472917 
L 255.119857 446.561612 
L 261.884637 437.372168 
L 267.683019 429.847445 
L 273.481402 422.721485 
L 278.313387 417.138651 
L 283.145373 411.922039 
L 287.010961 408.038919 
L 290.876549 404.434828 
L 294.742138 401.128346 
L 298.607726 398.137007 
L 302.473314 395.477105 
L 305.372505 393.708694 
L 308.271697 392.140819 
L 311.170888 390.778643 
L 314.070079 389.626761 
L 316.96927 388.689168 
L 319.868462 387.96924 
L 322.767653 387.469711 
L 325.666844 387.192661 
L 328.566035 387.139506 
L 331.465227 387.310993 
L 334.364418 387.707204 
L 337.263609 388.327559 
L 340.1628 389.170831 
L 343.061992 390.235161 
L 345.961183 391.518079 
L 348.860374 393.016533 
L 351.759565 394.726911 
L 354.658756 396.645082 
L 358.524345 399.517833 
L 362.389933 402.739574 
L 366.255521 406.296903 
L 370.12111 410.175368 
L 373.986698 414.359641 
L 377.852286 418.833716 
L 382.684272 424.808663 
L 387.516257 431.177716 
L 392.348242 437.907713 
L 398.146625 446.413801 
L 403.945007 455.336568 
L 410.709787 466.201949 
L 417.474566 477.482138 
L 425.205743 490.788325 
L 434.869714 507.902455 
L 446.466479 528.938515 
L 461.928832 557.494273 
L 488.98795 608.024084 
L 508.315892 644.212609 
L 508.315892 644.212609 
" style="fill:none;stroke:#000000;stroke-linecap:square;stroke-width:3;"/>
   </g>
   <g id="patch_15">
    <path d="M 26.08375 657.077187 
L 26.08375 374.277187 
" style="fill:none;stroke:#000000;stroke-linecap:square;stroke-linejoin:miter;stroke-width:0.8;"/>
   </g>
   <g id="patch_16">
    <path d="M 508.32125 657.077187 
L 508.32125 374.277187 
" style="fill:none;stroke:#000000;stroke-linecap:square;stroke-linejoin:miter;stroke-width:0.8;"/>
   </g>
   <g id="patch_17">
    <path d="M 26.08375 657.077187 
L 508.32125 657.077187 
" style="fill:none;stroke:#000000;stroke-linecap:square;stroke-linejoin:miter;stroke-width:0.8;"/>
   </g>
   <g id="patch_18">
    <path d="M 26.08375 374.277187 
L 508.32125 374.277187 
" style="fill:none;stroke:#000000;stroke-linecap:square;stroke-linejoin:miter;stroke-width:0.8;"/>
   </g>
   <g id="text_36">
    <!-- Brewster's angle -->
    <g transform="translate(319.11231 579.752969)rotate(-90)scale(0.15 -0.15)">
     <use xlink:href="#DejaVuSerif-66"/>
     <use x="73.486328" xlink:href="#DejaVuSerif-114"/>
     <use x="121.289062" xlink:href="#DejaVuSerif-101"/>
     <use x="180.46875" xlink:href="#DejaVuSerif-119"/>
     <use x="266.064453" xlink:href="#DejaVuSerif-115"/>
     <use x="317.382812" xlink:href="#DejaVuSerif-116"/>
     <use x="357.568359" xlink:href="#DejaVuSerif-101"/>
     <use x="416.748047" xlink:href="#DejaVuSerif-114"/>
     <use x="464.550781" xlink:href="#DejaVuSerif-39"/>
     <use x="492.041016" xlink:href="#DejaVuSerif-115"/>
     <use x="543.359375" xlink:href="#DejaVuSerif-32"/>
     <use x="575.146484" xlink:href="#DejaVuSerif-97"/>
     <use x="634.765625" xlink:href="#DejaVuSerif-110"/>
     <use x="699.169922" xlink:href="#DejaVuSerif-103"/>
     <use x="763.183594" xlink:href="#DejaVuSerif-108"/>
     <use x="795.166016" xlink:href="#DejaVuSerif-101"/>
    </g>
   </g>
   <g id="text_37">
    <!-- Degree of polarization -->
    <defs>
     <path d="M 32.8125 5.90625 
L 39.59375 5.90625 
Q 51.03125 5.90625 56.328125 13.234375 
Q 61.625 20.5625 61.625 36.53125 
Q 61.625 52.390625 56.34375 59.6875 
Q 51.078125 67 39.59375 67 
L 32.8125 67 
z
M 4.6875 0 
L 4.6875 5.90625 
L 14.015625 5.90625 
L 14.015625 67 
L 4.6875 67 
L 4.6875 72.90625 
L 42.09375 72.90625 
Q 61.71875 72.90625 72.109375 63.53125 
Q 82.515625 54.15625 82.515625 36.53125 
Q 82.515625 18.796875 72.09375 9.390625 
Q 61.671875 0 42.09375 0 
z
" id="DejaVuSerif-Bold-68"/>
     <path d="M 60.203125 46 
L 60.203125 0.6875 
Q 60.203125 -10.25 52.40625 -16.234375 
Q 44.625 -22.21875 30.421875 -22.21875 
Q 25.25 -22.21875 19.921875 -21.40625 
Q 14.59375 -20.609375 8.984375 -19 
L 8.984375 -6.59375 
L 14.5 -6.59375 
Q 15.234375 -11.71875 18.625 -14.203125 
Q 22.015625 -16.703125 28.328125 -16.703125 
Q 36.328125 -16.703125 39.625 -12.859375 
Q 42.921875 -9.03125 42.921875 0.6875 
L 42.921875 6.59375 
Q 40.71875 2.546875 36.984375 0.5625 
Q 33.25 -1.421875 27.78125 -1.421875 
Q 16.75 -1.421875 10.421875 5.90625 
Q 4.109375 13.234375 4.109375 25.984375 
Q 4.109375 38.765625 10.421875 46.046875 
Q 16.75 53.328125 27.78125 53.328125 
Q 33.25 53.328125 36.984375 51.34375 
Q 40.71875 49.359375 42.921875 45.3125 
L 42.921875 51.90625 
L 67.578125 51.90625 
L 67.578125 46 
z
M 42.921875 28.515625 
Q 42.921875 37.59375 40.578125 41.640625 
Q 38.234375 45.703125 33.109375 45.703125 
Q 27.734375 45.703125 25.5625 41.421875 
Q 23.390625 37.15625 23.390625 25.984375 
Q 23.390625 14.796875 25.578125 10.5 
Q 27.78125 6.203125 33.109375 6.203125 
Q 38.234375 6.203125 40.578125 10.25 
Q 42.921875 14.3125 42.921875 23.390625 
z
" id="DejaVuSerif-Bold-103"/>
     <path d="M 53.71875 52.484375 
L 53.71875 37.015625 
L 48.1875 37.015625 
Q 47.90625 41.15625 45.953125 43.1875 
Q 44 45.21875 40.28125 45.21875 
Q 34.625 45.21875 31.34375 40.234375 
Q 28.078125 35.25 28.078125 26.421875 
L 28.078125 5.90625 
L 37.5 5.90625 
L 37.5 0 
L 3.421875 0 
L 3.421875 5.90625 
L 10.796875 5.90625 
L 10.796875 46 
L 2.875 46 
L 2.875 51.90625 
L 28.078125 51.90625 
L 28.078125 42.671875 
Q 30.609375 48.09375 34.78125 50.703125 
Q 38.96875 53.328125 45.015625 53.328125 
Q 46.53125 53.328125 48.703125 53.09375 
Q 50.875 52.875 53.71875 52.484375 
z
" id="DejaVuSerif-Bold-114"/>
     <path d="M 33.40625 4.109375 
Q 38.875 4.109375 41.09375 8.796875 
Q 43.3125 13.484375 43.3125 25.984375 
Q 43.3125 38.484375 41.109375 43.140625 
Q 38.921875 47.796875 33.40625 47.796875 
Q 27.875 47.796875 25.625 43.078125 
Q 23.390625 38.375 23.390625 25.984375 
Q 23.390625 13.578125 25.625 8.84375 
Q 27.875 4.109375 33.40625 4.109375 
z
M 33.40625 -1.421875 
Q 19.671875 -1.421875 11.890625 5.875 
Q 4.109375 13.1875 4.109375 25.984375 
Q 4.109375 38.8125 11.890625 46.0625 
Q 19.671875 53.328125 33.40625 53.328125 
Q 47.171875 53.328125 54.9375 46.0625 
Q 62.703125 38.8125 62.703125 25.984375 
Q 62.703125 13.1875 54.90625 5.875 
Q 47.125 -1.421875 33.40625 -1.421875 
z
" id="DejaVuSerif-Bold-111"/>
     <path d="M 27 28.515625 
L 27 23.390625 
Q 27 14.3125 29.3125 10.25 
Q 31.640625 6.203125 36.8125 6.203125 
Q 42.140625 6.203125 44.3125 10.5 
Q 46.484375 14.796875 46.484375 25.984375 
Q 46.484375 37.15625 44.3125 41.421875 
Q 42.140625 45.703125 36.8125 45.703125 
Q 31.640625 45.703125 29.3125 41.640625 
Q 27 37.59375 27 28.515625 
z
M 9.71875 46 
L 2.296875 46 
L 2.296875 51.90625 
L 27 51.90625 
L 27 45.3125 
Q 29.203125 49.359375 32.90625 51.34375 
Q 36.625 53.328125 42.09375 53.328125 
Q 53.171875 53.328125 59.546875 46.015625 
Q 65.921875 38.71875 65.921875 25.984375 
Q 65.921875 13.234375 59.546875 5.90625 
Q 53.171875 -1.421875 42.09375 -1.421875 
Q 36.625 -1.421875 32.90625 0.5625 
Q 29.203125 2.546875 27 6.59375 
L 27 -14.890625 
L 35.015625 -14.890625 
L 35.015625 -20.796875 
L 2.296875 -20.796875 
L 2.296875 -14.890625 
L 9.71875 -14.890625 
z
" id="DejaVuSerif-Bold-112"/>
     <path d="M 9.1875 66.609375 
Q 9.1875 70.5625 11.921875 73.265625 
Q 14.65625 75.984375 18.609375 75.984375 
Q 22.46875 75.984375 25.171875 73.265625 
Q 27.875 70.5625 27.875 66.609375 
Q 27.875 62.75 25.171875 60.03125 
Q 22.46875 57.328125 18.609375 57.328125 
Q 14.65625 57.328125 11.921875 60.015625 
Q 9.1875 62.703125 9.1875 66.609375 
z
M 28.078125 5.90625 
L 35.5 5.90625 
L 35.5 0 
L 3.421875 0 
L 3.421875 5.90625 
L 10.796875 5.90625 
L 10.796875 46 
L 3.421875 46 
L 3.421875 51.90625 
L 28.078125 51.90625 
z
" id="DejaVuSerif-Bold-105"/>
     <path d="M 3.515625 0 
L 3.515625 5.90625 
L 33.296875 46.1875 
L 10.890625 46.1875 
L 10.890625 37.3125 
L 5.078125 37.3125 
L 5.078125 51.90625 
L 53.421875 51.90625 
L 53.421875 46.09375 
L 23.578125 5.8125 
L 47.609375 5.8125 
L 47.609375 15.1875 
L 53.421875 15.1875 
L 53.421875 0 
z
" id="DejaVuSerif-Bold-122"/>
    </defs>
    <g transform="translate(154.272187 368.277187)scale(0.18 -0.18)">
     <use xlink:href="#DejaVuSerif-Bold-68"/>
     <use x="86.71875" xlink:href="#DejaVuSerif-Bold-101"/>
     <use x="150.341797" xlink:href="#DejaVuSerif-Bold-103"/>
     <use x="220.263672" xlink:href="#DejaVuSerif-Bold-114"/>
     <use x="272.949219" xlink:href="#DejaVuSerif-Bold-101"/>
     <use x="336.572266" xlink:href="#DejaVuSerif-Bold-101"/>
     <use x="400.195312" xlink:href="#DejaVuSerif-Bold-32"/>
     <use x="435.009766" xlink:href="#DejaVuSerif-Bold-111"/>
     <use x="501.708984" xlink:href="#DejaVuSerif-Bold-102"/>
     <use x="544.726562" xlink:href="#DejaVuSerif-Bold-32"/>
     <use x="579.541016" xlink:href="#DejaVuSerif-Bold-112"/>
     <use x="649.462891" xlink:href="#DejaVuSerif-Bold-111"/>
     <use x="716.162109" xlink:href="#DejaVuSerif-Bold-108"/>
     <use x="754.150391" xlink:href="#DejaVuSerif-Bold-97"/>
     <use x="818.945312" xlink:href="#DejaVuSerif-Bold-114"/>
     <use x="871.630859" xlink:href="#DejaVuSerif-Bold-105"/>
     <use x="909.619141" xlink:href="#DejaVuSerif-Bold-122"/>
     <use x="966.40625" xlink:href="#DejaVuSerif-Bold-97"/>
     <use x="1031.201172" xlink:href="#DejaVuSerif-Bold-116"/>
     <use x="1077.392578" xlink:href="#DejaVuSerif-Bold-105"/>
     <use x="1115.380859" xlink:href="#DejaVuSerif-Bold-111"/>
     <use x="1182.080078" xlink:href="#DejaVuSerif-Bold-110"/>
    </g>
   </g>
   <g id="legend_3">
    <g id="patch_19">
     <path d="M 38.9285 428.009187 
L 126.8385 428.009187 
Q 130.0385 428.009187 130.0385 424.809187 
L 130.0385 402.924187 
Q 130.0385 399.724187 126.8385 399.724187 
L 38.9285 399.724187 
Q 35.7285 399.724187 35.7285 402.924187 
L 35.7285 424.809187 
Q 35.7285 428.009187 38.9285 428.009187 
z
" style="fill:#ffffff;opacity:0.8;stroke:#cccccc;stroke-linejoin:miter;"/>
    </g>
    <g id="line2d_51">
     <path d="M 42.1285 412.681687 
L 74.1285 412.681687 
" style="fill:none;stroke:#000000;stroke-linecap:square;stroke-width:3;"/>
    </g>
    <g id="line2d_52"/>
    <g id="text_38">
     <!-- DOP -->
     <defs>
      <path d="M 24.703125 5.171875 
L 33.796875 5.171875 
Q 48 5.171875 55.59375 13.28125 
Q 63.1875 21.390625 63.1875 36.53125 
Q 63.1875 51.65625 55.609375 59.65625 
Q 48.046875 67.671875 33.796875 67.671875 
L 24.703125 67.671875 
z
M 5.515625 0 
L 5.515625 5.171875 
L 14.796875 5.171875 
L 14.796875 67.671875 
L 5.515625 67.671875 
L 5.515625 72.90625 
L 34.515625 72.90625 
Q 53.375 72.90625 63.890625 63.28125 
Q 74.421875 53.65625 74.421875 36.53125 
Q 74.421875 19.34375 63.875 9.671875 
Q 53.328125 0 34.515625 0 
z
" id="DejaVuSerif-68"/>
      <path d="M 41.015625 3.8125 
Q 52.984375 3.8125 59.078125 12.03125 
Q 65.1875 20.265625 65.1875 36.375 
Q 65.1875 52.546875 59.078125 60.765625 
Q 52.984375 69 41.015625 69 
Q 29 69 22.890625 60.765625 
Q 16.796875 52.546875 16.796875 36.375 
Q 16.796875 20.265625 22.890625 12.03125 
Q 29 3.8125 41.015625 3.8125 
z
M 41.015625 -1.421875 
Q 33.59375 -1.421875 27.359375 1.015625 
Q 21.140625 3.46875 16.40625 8.203125 
Q 10.9375 13.671875 8.265625 20.609375 
Q 5.609375 27.546875 5.609375 36.375 
Q 5.609375 45.21875 8.265625 52.171875 
Q 10.9375 59.125 16.40625 64.59375 
Q 21.1875 69.390625 27.34375 71.796875 
Q 33.5 74.21875 41.015625 74.21875 
Q 56.890625 74.21875 66.65625 63.8125 
Q 76.421875 53.421875 76.421875 36.375 
Q 76.421875 27.640625 73.734375 20.625 
Q 71.046875 13.625 65.578125 8.203125 
Q 60.796875 3.421875 54.640625 1 
Q 48.484375 -1.421875 41.015625 -1.421875 
z
" id="DejaVuSerif-79"/>
      <path d="M 24.703125 37.109375 
L 37.59375 37.109375 
Q 44.875 37.109375 48.671875 41.03125 
Q 52.484375 44.96875 52.484375 52.390625 
Q 52.484375 59.859375 48.671875 63.765625 
Q 44.875 67.671875 37.59375 67.671875 
L 24.703125 67.671875 
z
M 5.515625 0 
L 5.515625 5.171875 
L 14.796875 5.171875 
L 14.796875 67.671875 
L 5.515625 67.671875 
L 5.515625 72.90625 
L 39.984375 72.90625 
Q 50.921875 72.90625 57.3125 67.359375 
Q 63.71875 61.8125 63.71875 52.390625 
Q 63.71875 43.015625 57.3125 37.453125 
Q 50.921875 31.890625 39.984375 31.890625 
L 24.703125 31.890625 
L 24.703125 5.171875 
L 35.984375 5.171875 
L 35.984375 0 
z
" id="DejaVuSerif-80"/>
     </defs>
     <g transform="translate(86.9285 418.281687)scale(0.16 -0.16)">
      <use xlink:href="#DejaVuSerif-68"/>
      <use x="80.175781" xlink:href="#DejaVuSerif-79"/>
      <use x="162.158203" xlink:href="#DejaVuSerif-80"/>
     </g>
    </g>
   </g>
  </g>
  <g id="axes_4"/>
 </g>
 <defs>
  <clipPath id="p3ce2f7c0f8">
   <rect height="282.8" width="482.2375" x="26.08375" y="19.677187"/>
  </clipPath>
  <clipPath id="p81d8b16400">
   <rect height="282.8" width="482.2375" x="565.62125" y="19.677187"/>
  </clipPath>
  <clipPath id="pce3f145cd8">
   <rect height="282.8" width="482.2375" x="26.08375" y="374.277187"/>
  </clipPath>
 </defs>
</svg>
