<?xml version="1.0" encoding="utf-8"?>
<!-- Generator: Adobe Illustrator 25.1.0, SVG Export Plug-In . SVG Version: 6.00 Build 0)  -->
<svg version="1.1" id="Layer_1" xmlns="http://www.w3.org/2000/svg" xmlns:xlink="http://www.w3.org/1999/xlink" x="0px" y="0px"
	 viewBox="0 0 1103.3 396.9" style="enable-background:new 0 0 1103.3 396.9;" xml:space="preserve">
<style type="text/css">
	.st0{opacity:0.8;fill:#4F94B7;stroke:#17556D;stroke-miterlimit:10;enable-background:new    ;}
	.st1{opacity:0.8;fill:#4B9581;stroke:#176851;stroke-miterlimit:10;enable-background:new    ;}
	.st2{fill:none;stroke:#000000;stroke-miterlimit:10;}
	.st3{font-family:'LinLibertineB';}
	.st4{font-size:23.672px;}
	.st5{clip-path:url(#SVGID_2_);}
	.st6{clip-path:url(#SVGID_4_);}
	.st7{clip-path:url(#SVGID_6_);}
	.st8{clip-path:url(#SVGID_8_);}
	.st9{clip-path:url(#SVGID_10_);}
	.st10{clip-path:url(#SVGID_12_);}
	.st11{clip-path:url(#SVGID_14_);}
	.st12{clip-path:url(#SVGID_16_);}
	.st13{clip-path:url(#SVGID_18_);}
	.st14{fill:none;stroke:#4C4C4D;stroke-width:2;stroke-miterlimit:10;}
	.st15{fill:none;stroke:#000000;stroke-width:2;stroke-miterlimit:10;}
	.st16{clip-path:url(#SVGID_20_);}
	.st17{clip-path:url(#SVGID_22_);}
	.st18{clip-path:url(#SVGID_24_);}
	.st19{clip-path:url(#SVGID_26_);}
	.st20{clip-path:url(#SVGID_28_);}
	.st21{clip-path:url(#SVGID_30_);}
	.st22{clip-path:url(#SVGID_32_);}
	.st23{clip-path:url(#SVGID_34_);}
	.st24{clip-path:url(#SVGID_36_);}
	.st25{clip-path:url(#SVGID_38_);}
	.st26{clip-path:url(#SVGID_40_);}
	.st27{clip-path:url(#SVGID_42_);}
	.st28{clip-path:url(#SVGID_44_);}
	.st29{clip-path:url(#SVGID_46_);}
	.st30{clip-path:url(#SVGID_48_);}
	.st31{clip-path:url(#SVGID_50_);}
	.st32{clip-path:url(#SVGID_52_);}
	.st33{clip-path:url(#SVGID_54_);}
	.st34{clip-path:url(#SVGID_56_);}
	.st35{stroke:#000000;stroke-width:0.5746;stroke-miterlimit:10;}
	.st36{font-family:'LinLibertine';}
	.st37{font-size:30px;}
</style>
<polygon class="st0" points="355.1,210.5 26.6,78.3 9.7,119.8 235.1,210.5 "/>
<polygon class="st0" points="954,210.5 625.5,78.3 608.6,119.8 834,210.5 "/>
<polygon class="st1" points="1013.2,361.8 1045,278.6 1022,296.8 954.2,210.5 834.2,210.5 947.9,355.1 924.9,373.2 "/>
<g>
	<polygon class="st2" points="625.5,78.3 608.6,119.8 834,210.5 954,210.5 	"/>
	<polygon class="st2" points="1022,296.8 954.2,210.5 834.2,210.5 947.9,355.1 924.9,373.2 1013.2,361.8 1045,278.6 	"/>
</g>
<polygon class="st1" points="559.5,103.5 506.1,77.9 514.1,97.8 232.9,210.9 352.9,210.9 530.8,139.3 538.7,159 "/>
<text transform="matrix(0.9833 0 0 1 290.3486 22.2736)" class="st3 st4">n</text>
<g>
	<g>
		<g>
			<g>
				<g>
					<g>
						<defs>
							<rect id="SVGID_1_" x="391.2" y="155.6" width="47.1" height="19.1"/>
						</defs>
						<clipPath id="SVGID_2_">
							<use xlink:href="#SVGID_1_"  style="overflow:visible;"/>
						</clipPath>
						<path class="st5" d="M393.3,166.2c0-3.5,1.8-4.4,2.9-4.4c0.2,0,1.5,0,2.3,0.8c-0.9,0.1-1,0.7-1,1c0,0.6,0.4,1,1,1s1-0.4,1-1
							c0-1.5-1.6-2.3-3.3-2.3c-2.7,0-4.6,2.3-4.6,5s2.1,4.9,4.6,4.9c2.9,0,3.6-2.6,3.6-2.8s-0.2-0.2-0.3-0.2c-0.2,0-0.2,0.1-0.3,0.2
							c-0.6,2-2,2.2-2.8,2.2C395.2,170.6,393.3,169.6,393.3,166.2"/>
					</g>
				</g>
			</g>
			<g>
				<g>
					<g>
						<defs>
							<rect id="SVGID_3_" x="391.2" y="155.6" width="47.1" height="19.1"/>
						</defs>
						<clipPath id="SVGID_4_">
							<use xlink:href="#SVGID_3_"  style="overflow:visible;"/>
						</clipPath>
						<path class="st6" d="M405.7,170.6c-0.9,0-1.9-0.4-2.4-1.4c-0.5-0.9-0.5-2.2-0.5-3s0-2,0.5-2.9c0.6-1,1.6-1.4,2.4-1.4
							c0.9,0,1.9,0.5,2.4,1.4c0.6,0.9,0.6,2.2,0.6,3s0,1.9-0.5,2.9C407.7,169.9,406.7,170.6,405.7,170.6 M410.4,166.3
							c0-2.7-2.1-5-4.7-5c-2.7,0-4.7,2.3-4.7,5c0,2.8,2.2,4.8,4.7,4.8C408.2,171.1,410.4,169,410.4,166.3z"/>
					</g>
				</g>
			</g>
			<g>
				<g>
					<g>
						<defs>
							<rect id="SVGID_5_" x="391.2" y="155.6" width="47.1" height="19.1"/>
						</defs>
						<clipPath id="SVGID_6_">
							<use xlink:href="#SVGID_5_"  style="overflow:visible;"/>
						</clipPath>
						<path class="st7" d="M415.5,166.7c0.5,0.1,2.2,0.4,2.2,2c0,1.1-0.7,1.9-2.4,1.9c-1.8,0-2.6-1.2-3-3c-0.1-0.3-0.1-0.4-0.3-0.4
							c-0.3,0-0.3,0.1-0.3,0.5v2.8c0,0.4,0,0.5,0.2,0.5c0.1,0,0.1,0,0.5-0.4c0,0,0-0.1,0.4-0.5c0.9,0.9,1.9,0.9,2.4,0.9
							c2.5,0,3.4-1.4,3.4-3c0-1.1-0.6-1.8-0.9-2c-0.7-0.7-1.5-0.9-2.4-1c-1.2-0.2-2.6-0.5-2.6-1.8c0-0.7,0.6-1.6,2.4-1.6
							c2.4,0,2.5,1.9,2.5,2.6c0,0.2,0.2,0.2,0.3,0.2c0.3,0,0.3-0.1,0.3-0.5v-2.2c0-0.4,0-0.5-0.2-0.5c-0.1,0-0.1,0-0.4,0.3
							c-0.1,0.1-0.3,0.3-0.4,0.3c-0.8-0.6-1.7-0.6-2-0.6c-2.6,0-3.4,1.4-3.4,2.6c0,0.7,0.3,1.3,0.9,1.8
							C413.3,166.3,413.9,166.4,415.5,166.7"/>
					</g>
				</g>
			</g>
			<g>
				<g>
					<g>
						<defs>
							<rect id="SVGID_7_" x="391.2" y="155.6" width="47.1" height="19.1"/>
						</defs>
						<clipPath id="SVGID_8_">
							<use xlink:href="#SVGID_7_"  style="overflow:visible;"/>
						</clipPath>
						<path class="st8" d="M430.5,163.8c-0.2,1-0.7,2.8-1.5,4.3c-0.7,1.5-1.6,2.5-2.5,2.5c-0.7,0-1.2-0.6-1.2-2.6
							c0-0.9,0.1-2.1,0.7-4.2H430.5 M426.2,163.1c0.4-1.4,0.8-3.1,1.6-4.6c0.6-1,1.4-2.2,2.3-2.2c1,0,1.2,1.4,1.2,2.6
							c0,1-0.2,2.1-0.7,4.3h-4.4V163.1z M432.7,160.2c0-1.4-0.4-4.4-2.6-4.4c-3,0-6.3,6-6.3,10.9c0,2,0.6,4.4,2.6,4.4
							C429.5,171.1,432.7,164.9,432.7,160.2z"/>
					</g>
				</g>
			</g>
			<g>
				<g>
					<g>
						<defs>
							<rect id="SVGID_9_" x="391.2" y="155.6" width="47.1" height="19.1"/>
						</defs>
						<clipPath id="SVGID_10_">
							<use xlink:href="#SVGID_9_"  style="overflow:visible;"/>
						</clipPath>
						<path class="st9" d="M434.8,172.3c-0.1,0.2-0.1,0.4-0.1,0.6c0,0.7,0.6,1.3,1.4,1.3c1.5,0,2.1-2.1,2.1-2.3s-0.2-0.2-0.2-0.2
							c-0.2,0-0.2,0.1-0.3,0.3c-0.3,1.2-1,1.8-1.6,1.8c-0.3,0-0.4-0.2-0.4-0.5s0.1-0.6,0.2-1s0.3-0.8,0.5-1.2
							c0.1-0.4,0.7-1.7,0.7-1.9c0-0.1,0.1-0.3,0.1-0.5c0-0.7-0.6-1.3-1.4-1.3c-1.5,0-2.2,2-2.2,2.3c0,0.2,0.2,0.2,0.3,0.2
							c0.2,0,0.2-0.1,0.3-0.2c0.4-1.3,1-1.8,1.6-1.8c0.2,0,0.4,0.1,0.4,0.5c0,0.3-0.1,0.6-0.5,1.5L434.8,172.3 M437.9,164.7
							c0-0.2-0.2-0.6-0.6-0.6s-0.8,0.4-0.8,0.8c0,0.3,0.2,0.6,0.6,0.6C437.5,165.6,437.9,165.1,437.9,164.7z"/>
					</g>
				</g>
			</g>
		</g>
	</g>
</g>
<g>
	<g>
		<g>
			<g>
				<g>
					<g>
						<defs>
							<rect id="SVGID_11_" x="84.5" y="190" width="18" height="16.5"/>
						</defs>
						<clipPath id="SVGID_12_">
							<use xlink:href="#SVGID_11_"  style="overflow:visible;"/>
						</clipPath>
						<path class="st10" d="M96,194.3c0.1-0.4,0.2-0.7,0.2-1.4c0-1.6-1-2.6-2.7-2.6c-1.9,0-3.1,1.2-3.7,2.1
							c-0.1-1.4-1.1-2.1-2.2-2.1s-1.6,0.9-1.8,1.4c-0.4,0.8-0.7,2.2-0.7,2.3c0,0.2,0.2,0.2,0.3,0.2c0.2,0,0.3,0,0.4-0.5
							c0.4-1.7,0.9-2.8,1.7-2.8c0.4,0,0.7,0.2,0.7,1.1c0,0.5-0.1,0.8-0.4,2l-1.4,5.5c-0.1,0.4-0.2,0.9-0.2,1c0,0.4,0.3,0.6,0.7,0.6
							c0.3,0,0.7-0.2,0.9-0.7c0,0,0.3-1.2,0.5-1.8l0.5-2.1c0.1-0.5,0.3-1.1,0.4-1.6c0-0.1,0.2-0.9,0.3-1.1c0.1-0.2,0.8-1.6,1.6-2.2
							c0.5-0.4,1.3-0.8,2.3-0.8s1.3,0.8,1.3,1.7c0,0.1,0,0.5-0.2,1.5l-2.7,11c-0.1,0.3-0.1,0.3-0.1,0.4c0,0.4,0.3,0.6,0.7,0.6
							c0.7,0,0.9-0.7,1-1L96,194.3"/>
					</g>
				</g>
			</g>
			<g>
				<g>
					<g>
						<defs>
							<rect id="SVGID_13_" x="84.5" y="190" width="18" height="16.5"/>
						</defs>
						<clipPath id="SVGID_14_">
							<use xlink:href="#SVGID_13_"  style="overflow:visible;"/>
						</clipPath>
						<path class="st11" d="M98.2,202.6c-0.1,0.2-0.1,0.4-0.1,0.7c0,0.8,0.7,1.4,1.6,1.4c1.7,0,2.4-2.3,2.4-2.6
							c0-0.2-0.2-0.2-0.3-0.2c-0.2,0-0.3,0.1-0.3,0.3c-0.4,1.3-1.1,2-1.8,2c-0.3,0-0.4-0.2-0.4-0.6c0-0.4,0.1-0.7,0.3-1.1
							c0.2-0.4,0.4-0.9,0.5-1.3c0.2-0.4,0.8-1.9,0.8-2.1c0.1-0.2,0.1-0.4,0.1-0.5c0-0.8-0.7-1.4-1.6-1.4c-1.7,0-2.4,2.3-2.4,2.5
							s0.2,0.2,0.3,0.2c0.2,0,0.2-0.1,0.3-0.3c0.4-1.4,1.2-2,1.8-2c0.3,0,0.4,0.1,0.4,0.6c0,0.4-0.1,0.6-0.5,1.7L98.2,202.6
							 M101.6,194.1c0-0.3-0.2-0.6-0.7-0.6s-0.9,0.4-0.9,0.9c0,0.3,0.2,0.6,0.7,0.6C101.1,195,101.6,194.6,101.6,194.1z"/>
					</g>
				</g>
			</g>
		</g>
	</g>
</g>
<g>
	<g>
		<g>
			<g>
				<g>
					<g>
						<defs>
							<rect id="SVGID_15_" x="303.7" y="153.7" width="17.3" height="19.1"/>
						</defs>
						<clipPath id="SVGID_16_">
							<use xlink:href="#SVGID_15_"  style="overflow:visible;"/>
						</clipPath>
						<path class="st12" d="M310.7,161.9c-0.2,1-0.7,2.8-1.5,4.3c-0.7,1.5-1.6,2.5-2.5,2.5c-0.7,0-1.2-0.6-1.2-2.6
							c0-0.9,0.1-2.1,0.7-4.2H310.7 M306.4,161.2c0.4-1.4,0.8-3.1,1.6-4.6c0.6-1,1.4-2.2,2.3-2.2c1,0,1.2,1.4,1.2,2.6
							c0,1-0.2,2.1-0.7,4.3h-4.4V161.2z M313,158.3c0-1.4-0.4-4.4-2.6-4.4c-3,0-6.3,6-6.3,10.9c0,2,0.6,4.4,2.6,4.4
							C309.7,169.2,313,163.1,313,158.3z"/>
					</g>
				</g>
			</g>
			<g>
				<g>
					<g>
						<defs>
							<rect id="SVGID_17_" x="303.7" y="153.7" width="17.3" height="19.1"/>
						</defs>
						<clipPath id="SVGID_18_">
							<use xlink:href="#SVGID_17_"  style="overflow:visible;"/>
						</clipPath>
						<path class="st13" d="M316.8,169.2c0-0.1,0.4-1.4,0.4-1.5s0.5-0.9,0.9-1.2c0.2-0.1,0.6-0.4,1.2-0.4c0.1,0,0.5,0,0.8,0.2
							c-0.5,0.1-0.7,0.6-0.7,0.8c0,0.3,0.3,0.6,0.6,0.6c0.3,0,0.8-0.3,0.8-0.9c0-0.8-0.8-1.1-1.6-1.1c-0.8,0-1.4,0.3-2.1,1.1
							c-0.3-0.9-1.2-1.1-1.5-1.1c-0.6,0-0.9,0.3-1.2,0.8c-0.3,0.6-0.6,1.4-0.6,1.5c0,0.2,0.2,0.2,0.3,0.2c0.2,0,0.2,0,0.3-0.4
							c0.2-0.9,0.5-1.6,1.1-1.6c0.4,0,0.5,0.3,0.5,0.7c0,0.3-0.1,0.8-0.2,1.2s-0.3,1-0.3,1.3l-0.5,1.9c-0.1,0.2-0.1,0.6-0.1,0.6
							c0,0.3,0.3,0.5,0.5,0.5s0.5-0.1,0.6-0.4c0-0.1,0.2-0.7,0.3-1.1L316.8,169.2"/>
					</g>
				</g>
			</g>
		</g>
	</g>
</g>
<g>
	<path class="st14" d="M868.8,396.9"/>
</g>
<path class="st0" d="M597.2,123.9"/>
<g>
	<g>
		<g>
			<path d="M283.1,161.6c-0.2,1-0.7,2.8-1.5,4.3c-0.7,1.5-1.6,2.5-2.5,2.5c-0.7,0-1.2-0.6-1.2-2.6c0-0.9,0.1-2.1,0.7-4.2H283.1
				 M278.8,161c0.4-1.4,0.8-3.1,1.6-4.6c0.6-1,1.4-2.2,2.3-2.2c1,0,1.2,1.4,1.2,2.6c0,1-0.2,2.1-0.7,4.3h-4.4V161z M285.4,158
				c0-1.4-0.4-4.4-2.6-4.4c-3,0-6.3,6-6.3,10.9c0,2,0.6,4.4,2.6,4.4C282.1,169,285.4,162.8,285.4,158z"/>
			<path d="M287.4,170.2c-0.1,0.2-0.1,0.4-0.1,0.6c0,0.7,0.6,1.3,1.4,1.3c1.5,0,2.1-2.1,2.1-2.3s-0.2-0.2-0.2-0.2
				c-0.2,0-0.2,0.1-0.3,0.3c-0.3,1.2-1,1.8-1.6,1.8c-0.3,0-0.4-0.2-0.4-0.5s0.1-0.6,0.2-1s0.3-0.8,0.5-1.2c0.1-0.4,0.7-1.7,0.7-1.9
				c0-0.1,0.1-0.3,0.1-0.5c0-0.7-0.6-1.3-1.4-1.3c-1.5,0-2.2,2-2.2,2.3c0,0.2,0.2,0.2,0.3,0.2c0.2,0,0.2-0.1,0.3-0.2
				c0.4-1.3,1-1.8,1.6-1.8c0.2,0,0.4,0.1,0.4,0.5c0,0.3-0.1,0.6-0.5,1.5L287.4,170.2 M290.5,162.6c0-0.2-0.2-0.6-0.6-0.6
				s-0.8,0.4-0.8,0.8c0,0.3,0.2,0.6,0.6,0.6C290.1,163.4,290.5,163,290.5,162.6z"/>
		</g>
	</g>
</g>
<g>
	<g>
		<g>
			<line class="st15" x1="212.3" y1="158.1" x2="199.1" y2="190.9"/>
			<g>
				<polygon points="208.9,157.8 214,153.7 215,160.2 				"/>
			</g>
			<g>
				<polygon points="196.4,188.8 197.3,195.3 202.5,191.2 				"/>
			</g>
		</g>
	</g>
</g>
<path class="st0" d="M296.3,211"/>
<g>
	<g>
		<g>
			<line class="st15" x1="393.5" y1="189.8" x2="380.3" y2="157"/>
			<g>
				<polygon points="396.2,187.7 395.3,194.2 390.1,190.1 				"/>
			</g>
			<g>
				<polygon points="383.7,156.7 378.6,152.6 377.6,159.1 				"/>
			</g>
		</g>
	</g>
</g>
<g>
	<g>
		<g>
			<g>
				<g>
					<g>
						<defs>
							<rect id="SVGID_19_" x="155.2" y="155.6" width="47.1" height="19.1"/>
						</defs>
						<clipPath id="SVGID_20_">
							<use xlink:href="#SVGID_19_"  style="overflow:visible;"/>
						</clipPath>
						<path class="st16" d="M157.3,166.2c0-3.5,1.8-4.4,2.9-4.4c0.2,0,1.5,0,2.3,0.8c-0.9,0.1-1,0.7-1,1c0,0.6,0.4,1,1,1s1-0.4,1-1
							c0-1.5-1.6-2.3-3.3-2.3c-2.7,0-4.6,2.3-4.6,5s2.1,4.9,4.6,4.9c2.9,0,3.6-2.6,3.6-2.8s-0.2-0.2-0.3-0.2c-0.2,0-0.2,0.1-0.3,0.2
							c-0.6,2-2,2.2-2.8,2.2C159.2,170.6,157.3,169.6,157.3,166.2"/>
					</g>
				</g>
			</g>
			<g>
				<g>
					<g>
						<defs>
							<rect id="SVGID_21_" x="155.2" y="155.6" width="47.1" height="19.1"/>
						</defs>
						<clipPath id="SVGID_22_">
							<use xlink:href="#SVGID_21_"  style="overflow:visible;"/>
						</clipPath>
						<path class="st17" d="M169.7,170.6c-0.9,0-1.9-0.4-2.4-1.4c-0.5-0.9-0.5-2.2-0.5-3s0-2,0.5-2.9c0.6-1,1.6-1.4,2.4-1.4
							c0.9,0,1.9,0.5,2.4,1.4c0.6,0.9,0.6,2.2,0.6,3s0,1.9-0.5,2.9C171.7,169.9,170.7,170.6,169.7,170.6 M174.4,166.3
							c0-2.7-2.1-5-4.7-5c-2.7,0-4.7,2.3-4.7,5c0,2.8,2.2,4.8,4.7,4.8S174.4,169,174.4,166.3z"/>
					</g>
				</g>
			</g>
			<g>
				<g>
					<g>
						<defs>
							<rect id="SVGID_23_" x="155.2" y="155.6" width="47.1" height="19.1"/>
						</defs>
						<clipPath id="SVGID_24_">
							<use xlink:href="#SVGID_23_"  style="overflow:visible;"/>
						</clipPath>
						<path class="st18" d="M179.5,166.7c0.5,0.1,2.2,0.4,2.2,2c0,1.1-0.7,1.9-2.4,1.9c-1.8,0-2.6-1.2-3-3c-0.1-0.3-0.1-0.4-0.3-0.4
							c-0.3,0-0.3,0.1-0.3,0.5v2.8c0,0.4,0,0.5,0.2,0.5c0.1,0,0.1,0,0.5-0.4c0,0,0-0.1,0.4-0.5c0.9,0.9,1.9,0.9,2.4,0.9
							c2.5,0,3.4-1.4,3.4-3c0-1.1-0.6-1.8-0.9-2c-0.7-0.7-1.5-0.9-2.4-1c-1.2-0.2-2.6-0.5-2.6-1.8c0-0.7,0.6-1.6,2.4-1.6
							c2.4,0,2.5,1.9,2.5,2.6c0,0.2,0.2,0.2,0.3,0.2c0.3,0,0.3-0.1,0.3-0.5v-2.2c0-0.4,0-0.5-0.2-0.5c-0.1,0-0.1,0-0.4,0.3
							c-0.1,0.1-0.3,0.3-0.4,0.3c-0.8-0.6-1.7-0.6-2-0.6c-2.6,0-3.4,1.4-3.4,2.6c0,0.7,0.3,1.3,0.9,1.8
							C177.3,166.3,177.9,166.4,179.5,166.7"/>
					</g>
				</g>
			</g>
			<g>
				<g>
					<g>
						<defs>
							<rect id="SVGID_25_" x="155.2" y="155.6" width="47.1" height="19.1"/>
						</defs>
						<clipPath id="SVGID_26_">
							<use xlink:href="#SVGID_25_"  style="overflow:visible;"/>
						</clipPath>
						<path class="st19" d="M194.5,163.8c-0.2,1-0.7,2.8-1.5,4.3c-0.7,1.5-1.6,2.5-2.5,2.5c-0.7,0-1.2-0.6-1.2-2.6
							c0-0.9,0.1-2.1,0.7-4.2H194.5 M190.2,163.1c0.4-1.4,0.8-3.1,1.6-4.6c0.6-1,1.4-2.2,2.3-2.2c1,0,1.2,1.4,1.2,2.6
							c0,1-0.2,2.1-0.7,4.3h-4.4L190.2,163.1L190.2,163.1z M196.7,160.2c0-1.4-0.4-4.4-2.6-4.4c-3,0-6.3,6-6.3,10.9
							c0,2,0.6,4.4,2.6,4.4C193.5,171.1,196.7,164.9,196.7,160.2z"/>
					</g>
				</g>
			</g>
			<g>
				<g>
					<g>
						<defs>
							<rect id="SVGID_27_" x="155.2" y="155.6" width="47.1" height="19.1"/>
						</defs>
						<clipPath id="SVGID_28_">
							<use xlink:href="#SVGID_27_"  style="overflow:visible;"/>
						</clipPath>
						<path class="st20" d="M198.8,172.3c-0.1,0.2-0.1,0.4-0.1,0.6c0,0.7,0.6,1.3,1.4,1.3c1.5,0,2.1-2.1,2.1-2.3s-0.2-0.2-0.2-0.2
							c-0.2,0-0.2,0.1-0.3,0.3c-0.3,1.2-1,1.8-1.6,1.8c-0.3,0-0.4-0.2-0.4-0.5s0.1-0.6,0.2-1c0.1-0.4,0.3-0.8,0.5-1.2
							c0.1-0.4,0.7-1.7,0.7-1.9c0-0.1,0.1-0.3,0.1-0.5c0-0.7-0.6-1.3-1.4-1.3c-1.5,0-2.2,2-2.2,2.3c0,0.2,0.2,0.2,0.3,0.2
							c0.2,0,0.2-0.1,0.3-0.2c0.4-1.3,1-1.8,1.6-1.8c0.2,0,0.4,0.1,0.4,0.5c0,0.3-0.1,0.6-0.5,1.5L198.8,172.3 M201.9,164.7
							c0-0.2-0.2-0.6-0.6-0.6c-0.4,0-0.8,0.4-0.8,0.8c0,0.3,0.2,0.6,0.6,0.6C201.5,165.6,201.9,165.1,201.9,164.7z"/>
					</g>
				</g>
			</g>
		</g>
	</g>
</g>
<text transform="matrix(0.9833 0 0 1 889.249 22.2736)" class="st3 st4">n</text>
<g>
	<g>
		<g>
			<g>
				<g>
					<g>
						<defs>
							<rect id="SVGID_29_" x="683.4" y="190" width="18" height="16.5"/>
						</defs>
						<clipPath id="SVGID_30_">
							<use xlink:href="#SVGID_29_"  style="overflow:visible;"/>
						</clipPath>
						<path class="st21" d="M694.9,194.3c0.1-0.4,0.2-0.7,0.2-1.4c0-1.6-1-2.6-2.7-2.6c-1.9,0-3.1,1.2-3.7,2.1
							c-0.1-1.4-1.1-2.1-2.2-2.1c-1.1,0-1.6,0.9-1.8,1.4c-0.4,0.8-0.7,2.2-0.7,2.3c0,0.2,0.2,0.2,0.3,0.2c0.2,0,0.3,0,0.4-0.5
							c0.4-1.7,0.9-2.8,1.7-2.8c0.4,0,0.7,0.2,0.7,1.1c0,0.5-0.1,0.8-0.4,2l-1.4,5.5c-0.1,0.4-0.2,0.9-0.2,1c0,0.4,0.3,0.6,0.7,0.6
							c0.3,0,0.7-0.2,0.9-0.7c0,0,0.3-1.2,0.5-1.8l0.5-2.1c0.1-0.5,0.3-1.1,0.4-1.6c0-0.1,0.2-0.9,0.3-1.1c0.1-0.2,0.8-1.6,1.6-2.2
							c0.5-0.4,1.3-0.8,2.3-0.8s1.3,0.8,1.3,1.7c0,0.1,0,0.5-0.2,1.5l-2.7,11c-0.1,0.3-0.1,0.3-0.1,0.4c0,0.4,0.3,0.6,0.7,0.6
							c0.7,0,0.9-0.7,1-1L694.9,194.3"/>
					</g>
				</g>
			</g>
			<g>
				<g>
					<g>
						<defs>
							<rect id="SVGID_31_" x="683.4" y="190" width="18" height="16.5"/>
						</defs>
						<clipPath id="SVGID_32_">
							<use xlink:href="#SVGID_31_"  style="overflow:visible;"/>
						</clipPath>
						<path class="st22" d="M697.1,202.6c-0.1,0.2-0.1,0.4-0.1,0.7c0,0.8,0.7,1.4,1.6,1.4c1.7,0,2.4-2.3,2.4-2.6
							c0-0.2-0.2-0.2-0.3-0.2c-0.2,0-0.3,0.1-0.3,0.3c-0.4,1.3-1.1,2-1.8,2c-0.3,0-0.4-0.2-0.4-0.6c0-0.4,0.1-0.7,0.3-1.1
							c0.2-0.4,0.4-0.9,0.5-1.3c0.2-0.4,0.8-1.9,0.8-2.1c0.1-0.2,0.1-0.4,0.1-0.5c0-0.8-0.7-1.4-1.6-1.4c-1.7,0-2.4,2.3-2.4,2.5
							s0.2,0.2,0.3,0.2c0.2,0,0.2-0.1,0.3-0.3c0.4-1.4,1.2-2,1.8-2c0.3,0,0.4,0.1,0.4,0.6c0,0.4-0.1,0.6-0.5,1.7L697.1,202.6
							 M700.5,194.1c0-0.3-0.2-0.6-0.7-0.6s-0.9,0.4-0.9,0.9c0,0.3,0.2,0.6,0.7,0.6C700,195,700.5,194.6,700.5,194.1z"/>
					</g>
				</g>
			</g>
		</g>
	</g>
</g>
<g>
	<g>
		<g>
			<g>
				<g>
					<g>
						<defs>
							<rect id="SVGID_33_" x="684.6" y="216.7" width="18" height="16.5"/>
						</defs>
						<clipPath id="SVGID_34_">
							<use xlink:href="#SVGID_33_"  style="overflow:visible;"/>
						</clipPath>
						<path class="st23" d="M695.9,221c0.1-0.4,0.2-0.7,0.2-1.4c0-1.6-1-2.6-2.7-2.6c-1.9,0-3.1,1.2-3.7,2.1
							c-0.1-1.4-1.1-2.1-2.2-2.1c-1.1,0-1.6,0.9-1.8,1.4c-0.4,0.8-0.7,2.2-0.7,2.3c0,0.2,0.2,0.2,0.3,0.2c0.2,0,0.3,0,0.4-0.5
							c0.4-1.7,0.9-2.8,1.7-2.8c0.4,0,0.7,0.2,0.7,1.1c0,0.5-0.1,0.8-0.4,2l-1.4,5.5c-0.1,0.4-0.2,0.9-0.2,1c0,0.4,0.3,0.6,0.7,0.6
							c0.3,0,0.7-0.2,0.9-0.7c0,0,0.3-1.2,0.5-1.8l0.5-2.1c0.1-0.5,0.3-1.1,0.4-1.6c0-0.1,0.2-0.9,0.3-1.1c0.1-0.2,0.8-1.6,1.6-2.2
							c0.5-0.4,1.3-0.8,2.3-0.8s1.3,0.8,1.3,1.7c0,0.1,0,0.5-0.2,1.5l-2.7,11c-0.1,0.3-0.1,0.3-0.1,0.4c0,0.4,0.3,0.6,0.7,0.6
							c0.7,0,0.9-0.7,1-1L695.9,221"/>
					</g>
				</g>
			</g>
			<g>
				<g>
					<g>
						<defs>
							<rect id="SVGID_35_" x="684.6" y="216.7" width="18" height="16.5"/>
						</defs>
						<clipPath id="SVGID_36_">
							<use xlink:href="#SVGID_35_"  style="overflow:visible;"/>
						</clipPath>
						<path class="st24" d="M700.2,224.6h1.7c0.3,0,0.5,0,0.5-0.4c0-0.2-0.2-0.2-0.5-0.2h-1.6l0.6-2.5c0-0.1,0-0.2,0-0.2
							c0-0.3-0.2-0.5-0.6-0.5c-0.4,0-0.7,0.3-0.8,0.7s0.1-0.4-0.6,2.5h-1.7c-0.3,0-0.5,0-0.5,0.4c0,0.2,0.2,0.2,0.5,0.2h1.6l-1,3.9
							c-0.1,0.4-0.2,1-0.2,1.2c0,1,0.8,1.6,1.8,1.6c1.9,0,2.9-2.3,2.9-2.6c0-0.2-0.2-0.2-0.3-0.2c-0.2,0-0.2,0-0.4,0.3
							c-0.5,1.1-1.3,2-2.2,2c-0.4,0-0.6-0.2-0.6-0.8c0-0.2,0.1-0.5,0.1-0.7L700.2,224.6"/>
					</g>
				</g>
			</g>
		</g>
	</g>
</g>
<g>
	<g>
		<g>
			<path d="M882,161.6c-0.2,1-0.7,2.8-1.5,4.3c-0.7,1.5-1.6,2.5-2.5,2.5c-0.7,0-1.2-0.6-1.2-2.6c0-0.9,0.1-2.1,0.7-4.2H882
				 M877.7,161c0.4-1.4,0.8-3.1,1.6-4.6c0.6-1,1.4-2.2,2.3-2.2c1,0,1.2,1.4,1.2,2.6c0,1-0.2,2.1-0.7,4.3h-4.4L877.7,161L877.7,161z
				 M884.3,158c0-1.4-0.4-4.4-2.6-4.4c-3,0-6.3,6-6.3,10.9c0,2,0.6,4.4,2.6,4.4C881,169,884.3,162.8,884.3,158z"/>
			<path d="M886.3,170.2c-0.1,0.2-0.1,0.4-0.1,0.6c0,0.7,0.6,1.3,1.4,1.3c1.5,0,2.1-2.1,2.1-2.3s-0.2-0.2-0.2-0.2
				c-0.2,0-0.2,0.1-0.3,0.3c-0.3,1.2-1,1.8-1.6,1.8c-0.3,0-0.4-0.2-0.4-0.5s0.1-0.6,0.2-1c0.1-0.4,0.3-0.8,0.5-1.2
				c0.1-0.4,0.7-1.7,0.7-1.9c0-0.1,0.1-0.3,0.1-0.5c0-0.7-0.6-1.3-1.4-1.3c-1.5,0-2.2,2-2.2,2.3c0,0.2,0.2,0.2,0.3,0.2
				c0.2,0,0.2-0.1,0.3-0.2c0.4-1.3,1-1.8,1.6-1.8c0.2,0,0.4,0.1,0.4,0.5c0,0.3-0.1,0.6-0.5,1.5L886.3,170.2 M889.4,162.6
				c0-0.2-0.2-0.6-0.6-0.6c-0.4,0-0.8,0.4-0.8,0.8c0,0.3,0.2,0.6,0.6,0.6C889,163.4,889.4,163,889.4,162.6z"/>
		</g>
	</g>
</g>
<g>
	<g>
		<g>
			<line class="st15" x1="811.2" y1="158.1" x2="798" y2="190.9"/>
			<g>
				<polygon points="807.8,157.8 812.9,153.7 813.9,160.2 				"/>
			</g>
			<g>
				<polygon points="795.3,188.8 796.2,195.3 801.4,191.2 				"/>
			</g>
		</g>
	</g>
</g>
<path class="st0" d="M895.2,211"/>
<g>
	<g>
		<g>
			<g>
				<g>
					<g>
						<defs>
							<rect id="SVGID_37_" x="754.1" y="155.6" width="47.1" height="19.1"/>
						</defs>
						<clipPath id="SVGID_38_">
							<use xlink:href="#SVGID_37_"  style="overflow:visible;"/>
						</clipPath>
						<path class="st25" d="M756.2,166.2c0-3.5,1.8-4.4,2.9-4.4c0.2,0,1.5,0,2.3,0.8c-0.9,0.1-1,0.7-1,1c0,0.6,0.4,1,1,1s1-0.4,1-1
							c0-1.5-1.6-2.3-3.3-2.3c-2.7,0-4.6,2.3-4.6,5s2.1,4.9,4.6,4.9c2.9,0,3.6-2.6,3.6-2.8s-0.2-0.2-0.3-0.2c-0.2,0-0.2,0.1-0.3,0.2
							c-0.6,2-2,2.2-2.8,2.2C758.1,170.6,756.2,169.6,756.2,166.2"/>
					</g>
				</g>
			</g>
			<g>
				<g>
					<g>
						<defs>
							<rect id="SVGID_39_" x="754.1" y="155.6" width="47.1" height="19.1"/>
						</defs>
						<clipPath id="SVGID_40_">
							<use xlink:href="#SVGID_39_"  style="overflow:visible;"/>
						</clipPath>
						<path class="st26" d="M768.6,170.6c-0.9,0-1.9-0.4-2.4-1.4c-0.5-0.9-0.5-2.2-0.5-3s0-2,0.5-2.9c0.6-1,1.6-1.4,2.4-1.4
							c0.9,0,1.9,0.5,2.4,1.4c0.6,0.9,0.6,2.2,0.6,3s0,1.9-0.5,2.9C770.6,169.9,769.6,170.6,768.6,170.6 M773.3,166.3
							c0-2.7-2.1-5-4.7-5c-2.7,0-4.7,2.3-4.7,5c0,2.8,2.2,4.8,4.7,4.8S773.3,169,773.3,166.3z"/>
					</g>
				</g>
			</g>
			<g>
				<g>
					<g>
						<defs>
							<rect id="SVGID_41_" x="754.1" y="155.6" width="47.1" height="19.1"/>
						</defs>
						<clipPath id="SVGID_42_">
							<use xlink:href="#SVGID_41_"  style="overflow:visible;"/>
						</clipPath>
						<path class="st27" d="M778.4,166.7c0.5,0.1,2.2,0.4,2.2,2c0,1.1-0.7,1.9-2.4,1.9c-1.8,0-2.6-1.2-3-3c-0.1-0.3-0.1-0.4-0.3-0.4
							c-0.3,0-0.3,0.1-0.3,0.5v2.8c0,0.4,0,0.5,0.2,0.5c0.1,0,0.1,0,0.5-0.4c0,0,0-0.1,0.4-0.5c0.9,0.9,1.9,0.9,2.4,0.9
							c2.5,0,3.4-1.4,3.4-3c0-1.1-0.6-1.8-0.9-2c-0.7-0.7-1.5-0.9-2.4-1c-1.2-0.2-2.6-0.5-2.6-1.8c0-0.7,0.6-1.6,2.4-1.6
							c2.4,0,2.5,1.9,2.5,2.6c0,0.2,0.2,0.2,0.3,0.2c0.3,0,0.3-0.1,0.3-0.5v-2.2c0-0.4,0-0.5-0.2-0.5c-0.1,0-0.1,0-0.4,0.3
							c-0.1,0.1-0.3,0.3-0.4,0.3c-0.8-0.6-1.7-0.6-2-0.6c-2.6,0-3.4,1.4-3.4,2.6c0,0.7,0.3,1.3,0.9,1.8
							C776.2,166.3,776.8,166.4,778.4,166.7"/>
					</g>
				</g>
			</g>
			<g>
				<g>
					<g>
						<defs>
							<rect id="SVGID_43_" x="754.1" y="155.6" width="47.1" height="19.1"/>
						</defs>
						<clipPath id="SVGID_44_">
							<use xlink:href="#SVGID_43_"  style="overflow:visible;"/>
						</clipPath>
						<path class="st28" d="M793.4,163.8c-0.2,1-0.7,2.8-1.5,4.3c-0.7,1.5-1.6,2.5-2.5,2.5c-0.7,0-1.2-0.6-1.2-2.6
							c0-0.9,0.1-2.1,0.7-4.2H793.4 M789.1,163.1c0.4-1.4,0.8-3.1,1.6-4.6c0.6-1,1.4-2.2,2.3-2.2c1,0,1.2,1.4,1.2,2.6
							c0,1-0.2,2.1-0.7,4.3h-4.4L789.1,163.1L789.1,163.1z M795.6,160.2c0-1.4-0.4-4.4-2.6-4.4c-3,0-6.3,6-6.3,10.9
							c0,2,0.6,4.4,2.6,4.4C792.4,171.1,795.6,164.9,795.6,160.2z"/>
					</g>
				</g>
			</g>
			<g>
				<g>
					<g>
						<defs>
							<rect id="SVGID_45_" x="754.1" y="155.6" width="47.1" height="19.1"/>
						</defs>
						<clipPath id="SVGID_46_">
							<use xlink:href="#SVGID_45_"  style="overflow:visible;"/>
						</clipPath>
						<path class="st29" d="M797.7,172.3c-0.1,0.2-0.1,0.4-0.1,0.6c0,0.7,0.6,1.3,1.4,1.3c1.5,0,2.1-2.1,2.1-2.3s-0.2-0.2-0.2-0.2
							c-0.2,0-0.2,0.1-0.3,0.3c-0.3,1.2-1,1.8-1.6,1.8c-0.3,0-0.4-0.2-0.4-0.5s0.1-0.6,0.2-1c0.1-0.4,0.3-0.8,0.5-1.2
							c0.1-0.4,0.7-1.7,0.7-1.9c0-0.1,0.1-0.3,0.1-0.5c0-0.7-0.6-1.3-1.4-1.3c-1.5,0-2.2,2-2.2,2.3c0,0.2,0.2,0.2,0.3,0.2
							c0.2,0,0.2-0.1,0.3-0.2c0.4-1.3,1-1.8,1.6-1.8c0.2,0,0.4,0.1,0.4,0.5c0,0.3-0.1,0.6-0.5,1.5L797.7,172.3 M800.8,164.7
							c0-0.2-0.2-0.6-0.6-0.6c-0.4,0-0.8,0.4-0.8,0.8c0,0.3,0.2,0.6,0.6,0.6C800.4,165.6,800.8,165.1,800.8,164.7z"/>
					</g>
				</g>
			</g>
		</g>
	</g>
</g>
<g>
	<g>
		<g>
			<g>
				<g>
					<g>
						<defs>
							<rect id="SVGID_47_" x="948.6" y="291.1" width="47.7" height="19.1"/>
						</defs>
						<clipPath id="SVGID_48_">
							<use xlink:href="#SVGID_47_"  style="overflow:visible;"/>
						</clipPath>
						<path class="st30" d="M950.6,301.6c0-3.5,1.8-4.4,2.9-4.4c0.2,0,1.5,0,2.3,0.8c-0.9,0.1-1,0.7-1,1c0,0.6,0.4,1,1,1s1-0.4,1-1
							c0-1.5-1.6-2.3-3.3-2.3c-2.7,0-4.6,2.3-4.6,5s2.1,4.9,4.6,4.9c2.9,0,3.6-2.6,3.6-2.8c0-0.2-0.2-0.2-0.3-0.2
							c-0.2,0-0.2,0.1-0.3,0.2c-0.6,2-2,2.2-2.8,2.2C952.5,306,950.6,305.1,950.6,301.6"/>
					</g>
				</g>
			</g>
			<g>
				<g>
					<g>
						<defs>
							<rect id="SVGID_49_" x="948.6" y="291.1" width="47.7" height="19.1"/>
						</defs>
						<clipPath id="SVGID_50_">
							<use xlink:href="#SVGID_49_"  style="overflow:visible;"/>
						</clipPath>
						<path class="st31" d="M962.9,306c-0.9,0-1.9-0.4-2.4-1.4c-0.5-0.9-0.5-2.2-0.5-3s0-2,0.5-2.9c0.6-1,1.6-1.4,2.4-1.4
							c0.9,0,1.9,0.5,2.4,1.4c0.6,0.9,0.6,2.2,0.6,3s0,1.9-0.5,2.9C964.9,305.4,964,306,962.9,306 M967.6,301.7c0-2.7-2.1-5-4.7-5
							c-2.7,0-4.7,2.3-4.7,5c0,2.8,2.2,4.8,4.7,4.8C965.5,306.5,967.6,304.4,967.6,301.7z"/>
					</g>
				</g>
			</g>
			<g>
				<g>
					<g>
						<defs>
							<rect id="SVGID_51_" x="948.6" y="291.1" width="47.7" height="19.1"/>
						</defs>
						<clipPath id="SVGID_52_">
							<use xlink:href="#SVGID_51_"  style="overflow:visible;"/>
						</clipPath>
						<path class="st32" d="M972.7,302.2c0.5,0.1,2.2,0.4,2.2,2c0,1.1-0.7,1.9-2.4,1.9c-1.8,0-2.6-1.2-3-3c-0.1-0.3-0.1-0.4-0.3-0.4
							c-0.3,0-0.3,0.1-0.3,0.5v2.8c0,0.4,0,0.5,0.2,0.5c0.1,0,0.1,0,0.5-0.4c0,0,0-0.1,0.4-0.5c0.9,0.9,1.9,0.9,2.4,0.9
							c2.5,0,3.4-1.4,3.4-3c0-1.1-0.6-1.8-0.9-2c-0.7-0.7-1.5-0.9-2.4-1c-1.2-0.2-2.6-0.5-2.6-1.8c0-0.7,0.6-1.6,2.4-1.6
							c2.4,0,2.5,1.9,2.5,2.6c0,0.2,0.2,0.2,0.3,0.2c0.3,0,0.3-0.1,0.3-0.5v-2.2c0-0.4,0-0.5-0.2-0.5c-0.1,0-0.1,0-0.4,0.3
							c-0.1,0.1-0.3,0.3-0.4,0.3c-0.8-0.6-1.7-0.6-2-0.6c-2.6,0-3.4,1.4-3.4,2.6c0,0.7,0.3,1.3,0.9,1.8
							C970.5,301.7,971.1,301.9,972.7,302.2"/>
					</g>
				</g>
			</g>
			<g>
				<g>
					<g>
						<defs>
							<rect id="SVGID_53_" x="948.6" y="291.1" width="47.7" height="19.1"/>
						</defs>
						<clipPath id="SVGID_54_">
							<use xlink:href="#SVGID_53_"  style="overflow:visible;"/>
						</clipPath>
						<path class="st33" d="M987.7,299.2c-0.2,1-0.7,2.8-1.5,4.3c-0.7,1.5-1.6,2.5-2.5,2.5c-0.7,0-1.2-0.6-1.2-2.6
							c0-0.9,0.1-2.1,0.7-4.2L987.7,299.2 M983.4,298.5c0.4-1.4,0.8-3.1,1.6-4.6c0.6-1,1.4-2.2,2.3-2.2c1,0,1.2,1.4,1.2,2.6
							c0,1-0.2,2.1-0.7,4.3L983.4,298.5L983.4,298.5z M990,295.6c0-1.4-0.4-4.4-2.6-4.4c-3,0-6.3,6-6.3,10.9c0,2,0.6,4.4,2.6,4.4
							C986.7,306.5,990,300.4,990,295.6z"/>
					</g>
				</g>
			</g>
			<g>
				<g>
					<g>
						<defs>
							<rect id="SVGID_55_" x="948.6" y="291.1" width="47.7" height="19.1"/>
						</defs>
						<clipPath id="SVGID_56_">
							<use xlink:href="#SVGID_55_"  style="overflow:visible;"/>
						</clipPath>
						<path class="st34" d="M993.9,303.6h1.5c0.3,0,0.5,0,0.5-0.3c0-0.2-0.2-0.2-0.4-0.2h-1.4l0.6-2.2c0-0.1,0-0.1,0-0.2
							c0-0.3-0.2-0.5-0.5-0.5c-0.4,0-0.6,0.3-0.7,0.6c-0.1,0.4,0.1-0.3-0.6,2.3h-1.5c-0.3,0-0.5,0-0.5,0.3c0,0.2,0.2,0.2,0.4,0.2
							h1.4l-0.9,3.5c-0.1,0.4-0.2,0.9-0.2,1.1c0,0.9,0.7,1.4,1.6,1.4c1.7,0,2.6-2.1,2.6-2.3c0-0.2-0.2-0.2-0.2-0.2
							c-0.2,0-0.2,0-0.3,0.3c-0.4,0.9-1.2,1.8-2,1.8c-0.3,0-0.5-0.2-0.5-0.7c0-0.1,0.1-0.5,0.1-0.6L993.9,303.6"/>
					</g>
				</g>
			</g>
		</g>
	</g>
</g>
<g>
	<g>
		<g>
			<line class="st15" x1="986.2" y1="259.2" x2="918.5" y2="310.1"/>
			<g>
				<polygon points="983.5,257.2 990,256.4 987.4,262.5 				"/>
			</g>
			<g>
				<polygon points="917.3,306.9 914.7,312.9 921.3,312.1 				"/>
			</g>
		</g>
	</g>
</g>
<g>
	<g>
		<g>
			<path d="M906.5,328c-0.2,1-0.7,2.8-1.5,4.3c-0.7,1.5-1.6,2.5-2.5,2.5c-0.7,0-1.2-0.6-1.2-2.6c0-0.9,0.1-2.1,0.7-4.2L906.5,328
				 M902.2,327.3c0.4-1.4,0.8-3.1,1.6-4.6c0.6-1,1.4-2.2,2.3-2.2c1,0,1.2,1.4,1.2,2.6c0,1-0.2,2.1-0.7,4.3L902.2,327.3L902.2,327.3z
				 M908.8,324.4c0-1.4-0.4-4.4-2.6-4.4c-3,0-6.3,6-6.3,10.9c0,2,0.6,4.4,2.6,4.4C905.5,335.3,908.8,329.2,908.8,324.4z"/>
			<path d="M912.7,332.4h1.5c0.3,0,0.5,0,0.5-0.3c0-0.2-0.2-0.2-0.4-0.2h-1.4l0.6-2.2c0-0.1,0-0.1,0-0.2c0-0.3-0.2-0.5-0.5-0.5
				c-0.4,0-0.6,0.3-0.7,0.6c-0.1,0.4,0.1-0.3-0.6,2.3h-1.5c-0.3,0-0.5,0-0.5,0.3c0,0.2,0.2,0.2,0.4,0.2h1.4l-0.9,3.5
				c-0.1,0.4-0.2,0.9-0.2,1.1c0,0.9,0.7,1.4,1.6,1.4c1.7,0,2.6-2.1,2.6-2.3c0-0.2-0.2-0.2-0.2-0.2c-0.2,0-0.2,0-0.3,0.3
				c-0.4,0.9-1.2,1.8-2,1.8c-0.3,0-0.5-0.2-0.5-0.7c0-0.1,0.1-0.5,0.1-0.6L912.7,332.4"/>
		</g>
	</g>
</g>
<g>
	<g>
		<line class="st15" x1="895.2" y1="362.8" x2="895.2" y2="40.2"/>
		<polygon class="st35" points="899.5,42.2 890.9,42.2 895.2,32 		"/>
	</g>
	<g>
		<line class="st15" x1="675.6" y1="210.5" x2="1082.9" y2="210.5"/>
		<polygon class="st35" points="1081,214.8 1081,206.2 1091.1,210.5 		"/>
	</g>
</g>
<g>
	<g>
		<line class="st15" x1="75.8" y1="210.5" x2="483.1" y2="210.5"/>
		<polygon class="st35" points="481.2,214.8 481.2,206.2 491.3,210.5 		"/>
	</g>
	<g>
		<line class="st15" x1="295.4" y1="232.8" x2="295.4" y2="40.2"/>
		<polygon class="st35" points="299.7,42.2 291.1,42.2 295.4,32 		"/>
	</g>
</g>
<text transform="matrix(1 0 0 1 110.2856 72.1009)" class="st36 st37">Reflection</text>
<text transform="matrix(1 0 0 1 698.7053 72.4007)" class="st36 st37">Transmission</text>
<polygon class="st2" points="506.1,77.9 514.1,97.8 294.5,186.1 26.6,78.3 9.7,119.8 234.5,210.2 232.9,210.9 352.9,210.9 
	353.8,210.5 355.1,210.5 354.5,210.2 530.8,139.3 538.7,159 559.5,103.5 "/>
</svg>
