<?xml version="1.0" encoding="utf-8"?>
<!-- Generator: Adobe Illustrator 25.1.0, SVG Export Plug-In . SVG Version: 6.00 Build 0)  -->
<svg version="1.1" id="Layer_1" xmlns="http://www.w3.org/2000/svg" xmlns:xlink="http://www.w3.org/1999/xlink" x="0px" y="0px"
	 viewBox="0 0 343.9 335.8" style="enable-background:new 0 0 343.9 335.8;" xml:space="preserve">
<style type="text/css">
	.st0{fill:none;stroke:#000000;stroke-miterlimit:10;}
	.st1{font-family:'LinLibertineB';}
	.st2{font-size:23.672px;}
	.st3{clip-path:url(#SVGID_2_);}
	.st4{clip-path:url(#SVGID_4_);}
	.st5{clip-path:url(#SVGID_6_);}
	.st6{clip-path:url(#SVGID_8_);}
	.st7{opacity:0.8;fill:#4F94B7;stroke:#17556D;stroke-miterlimit:10;enable-background:new    ;}
	.st8{fill:none;stroke:#000000;stroke-width:2;stroke-miterlimit:10;}
	.st9{stroke:#000000;stroke-width:0.5746;stroke-miterlimit:10;}
	.st10{fill:none;stroke:#4F94B7;stroke-width:4;stroke-linecap:round;stroke-miterlimit:10;}
	.st11{fill:#4F94B7;}
	.st12{clip-path:url(#SVGID_10_);}
	.st13{clip-path:url(#SVGID_12_);}
	.st14{fill:none;stroke:#4B9581;stroke-width:4;stroke-linecap:round;stroke-miterlimit:10;}
	.st15{fill:#4B9581;}
	.st16{fill:none;stroke:#4C4C4D;stroke-width:2;stroke-miterlimit:10;}
	.st17{font-family:'LinLibertine';}
	.st18{font-size:15px;}
</style>
<path class="st0" d="M131.2,137.5c9.6-13.3,25-21.2,41.3-21.2c0.1,0,0.1,0,0.2,0"/>
<path class="st0" d="M172.5,116.3c0.1,0,0.1,0,0.2,0c16.2,0,31.5,7.8,41.1,20.9"/>
<path class="st0" d="M202.8,208.3c-8.7,6.4-19.2,9.8-30,9.8c-0.1,0-0.1,0-0.2,0"/>
<text transform="matrix(0.9833 0 0 1 166.6451 19.0345)" class="st1 st2">n</text>
<g>
	<g>
		<g>
			<g>
				<g>
					<g>
						<g>
							<defs>
								<rect id="SVGID_1_" x="30.8" y="146.7" width="18" height="16.5"/>
							</defs>
							<clipPath id="SVGID_2_">
								<use xlink:href="#SVGID_1_"  style="overflow:visible;"/>
							</clipPath>
							<path class="st3" d="M42.3,151c0.1-0.4,0.2-0.7,0.2-1.4c0-1.6-1-2.6-2.7-2.6c-1.9,0-3.1,1.2-3.7,2.1
								c-0.1-1.4-1.1-2.1-2.2-2.1c-1.1,0-1.6,0.9-1.8,1.4c-0.4,0.8-0.7,2.2-0.7,2.3c0,0.2,0.2,0.2,0.3,0.2c0.2,0,0.3,0,0.4-0.5
								c0.4-1.7,0.9-2.8,1.7-2.8c0.4,0,0.7,0.2,0.7,1.1c0,0.5-0.1,0.8-0.4,2l-1.4,5.5c-0.1,0.4-0.2,0.9-0.2,1c0,0.4,0.3,0.6,0.7,0.6
								c0.3,0,0.7-0.2,0.9-0.7c0,0,0.3-1.2,0.5-1.8l0.5-2.1c0.1-0.5,0.3-1.1,0.4-1.6c0-0.1,0.2-0.9,0.3-1.1c0.1-0.2,0.8-1.6,1.6-2.2
								c0.5-0.4,1.3-0.8,2.3-0.8s1.3,0.8,1.3,1.7c0,0.1,0,0.5-0.2,1.5l-2.7,11C38,162,38,162,38,162.1c0,0.4,0.3,0.6,0.7,0.6
								c0.7,0,0.9-0.7,1-1L42.3,151"/>
						</g>
					</g>
				</g>
			</g>
			<g>
				<g>
					<g>
						<g>
							<defs>
								<rect id="SVGID_3_" x="30.8" y="146.7" width="18" height="16.5"/>
							</defs>
							<clipPath id="SVGID_4_">
								<use xlink:href="#SVGID_3_"  style="overflow:visible;"/>
							</clipPath>
							<path class="st4" d="M44.5,159.3c-0.1,0.2-0.1,0.4-0.1,0.7c0,0.8,0.7,1.4,1.6,1.4c1.7,0,2.4-2.3,2.4-2.6
								c0-0.2-0.2-0.2-0.3-0.2c-0.2,0-0.3,0.1-0.3,0.3c-0.4,1.3-1.1,2-1.8,2c-0.3,0-0.4-0.2-0.4-0.6c0-0.4,0.1-0.7,0.3-1.1
								c0.2-0.4,0.4-0.9,0.5-1.3c0.2-0.4,0.8-1.9,0.8-2.1c0.1-0.2,0.1-0.4,0.1-0.5c0-0.8-0.7-1.4-1.6-1.4c-1.7,0-2.4,2.3-2.4,2.5
								s0.2,0.2,0.3,0.2c0.2,0,0.2-0.1,0.3-0.3c0.4-1.4,1.2-2,1.8-2c0.3,0,0.4,0.1,0.4,0.6c0,0.4-0.1,0.6-0.5,1.7L44.5,159.3
								 M47.9,150.8c0-0.3-0.2-0.6-0.7-0.6s-0.9,0.4-0.9,0.9c0,0.3,0.2,0.6,0.7,0.6C47.4,151.7,47.9,151.3,47.9,150.8z"/>
						</g>
					</g>
				</g>
			</g>
		</g>
	</g>
</g>
<g>
	<g>
		<g>
			<g>
				<g>
					<g>
						<g>
							<defs>
								<rect id="SVGID_5_" x="32" y="173.4" width="18" height="16.5"/>
							</defs>
							<clipPath id="SVGID_6_">
								<use xlink:href="#SVGID_5_"  style="overflow:visible;"/>
							</clipPath>
							<path class="st5" d="M43.3,177.7c0.1-0.4,0.2-0.7,0.2-1.4c0-1.6-1-2.6-2.7-2.6c-1.9,0-3.1,1.2-3.7,2.1
								c-0.1-1.4-1.1-2.1-2.2-2.1c-1.1,0-1.6,0.9-1.8,1.4c-0.4,0.8-0.7,2.2-0.7,2.3c0,0.2,0.2,0.2,0.3,0.2c0.2,0,0.3,0,0.4-0.5
								c0.4-1.7,0.9-2.8,1.7-2.8c0.4,0,0.7,0.2,0.7,1.1c0,0.5-0.1,0.8-0.4,2l-1.4,5.5c-0.1,0.4-0.2,0.9-0.2,1c0,0.4,0.3,0.6,0.7,0.6
								c0.3,0,0.7-0.2,0.9-0.7c0,0,0.3-1.2,0.5-1.8l0.5-2.1c0.1-0.5,0.3-1.1,0.4-1.6c0-0.1,0.2-0.9,0.3-1.1c0.1-0.2,0.8-1.6,1.6-2.2
								c0.5-0.4,1.3-0.8,2.3-0.8s1.3,0.8,1.3,1.7c0,0.1,0,0.5-0.2,1.5l-2.7,11c-0.1,0.3-0.1,0.3-0.1,0.4c0,0.4,0.3,0.6,0.7,0.6
								c0.7,0,0.9-0.7,1-1L43.3,177.7"/>
						</g>
					</g>
				</g>
			</g>
			<g>
				<g>
					<g>
						<g>
							<defs>
								<rect id="SVGID_7_" x="32" y="173.4" width="18" height="16.5"/>
							</defs>
							<clipPath id="SVGID_8_">
								<use xlink:href="#SVGID_7_"  style="overflow:visible;"/>
							</clipPath>
							<path class="st6" d="M47.6,181.3h1.7c0.3,0,0.5,0,0.5-0.4c0-0.2-0.2-0.2-0.5-0.2h-1.6l0.6-2.5c0-0.1,0-0.2,0-0.2
								c0-0.3-0.2-0.5-0.6-0.5c-0.4,0-0.7,0.3-0.8,0.7s0.1-0.4-0.6,2.5h-1.7c-0.3,0-0.5,0-0.5,0.4c0,0.2,0.2,0.2,0.5,0.2h1.6l-1,3.9
								c-0.1,0.4-0.2,1-0.2,1.2c0,1,0.8,1.6,1.8,1.6c1.9,0,2.9-2.3,2.9-2.6c0-0.2-0.2-0.2-0.3-0.2c-0.2,0-0.2,0-0.4,0.3
								c-0.5,1.1-1.3,2-2.2,2c-0.4,0-0.6-0.2-0.6-0.8c0-0.2,0.1-0.5,0.1-0.7L47.6,181.3"/>
						</g>
					</g>
				</g>
			</g>
		</g>
	</g>
</g>
<g>
	<g>
		<g>
			<path d="M156,129.7c-0.2,1-0.7,2.8-1.5,4.3c-0.7,1.5-1.6,2.5-2.5,2.5c-0.7,0-1.2-0.6-1.2-2.6c0-0.9,0.1-2.1,0.7-4.2H156
				 M151.7,129.1c0.4-1.4,0.8-3.1,1.6-4.6c0.6-1,1.4-2.2,2.3-2.2c1,0,1.2,1.4,1.2,2.6c0,1-0.2,2.1-0.7,4.3h-4.4L151.7,129.1
				L151.7,129.1z M158.3,126.1c0-1.4-0.4-4.4-2.6-4.4c-3,0-6.3,6-6.3,10.9c0,2,0.6,4.4,2.6,4.4C155,137.1,158.3,130.9,158.3,126.1z"
				/>
			<path d="M160.3,138.3c-0.1,0.2-0.1,0.4-0.1,0.6c0,0.7,0.6,1.3,1.4,1.3c1.5,0,2.1-2.1,2.1-2.3s-0.2-0.2-0.2-0.2
				c-0.2,0-0.2,0.1-0.3,0.3c-0.3,1.2-1,1.8-1.6,1.8c-0.3,0-0.4-0.2-0.4-0.5s0.1-0.6,0.2-1c0.1-0.4,0.3-0.8,0.5-1.2
				c0.1-0.4,0.7-1.7,0.7-1.9c0-0.1,0.1-0.3,0.1-0.5c0-0.7-0.6-1.3-1.4-1.3c-1.5,0-2.2,2-2.2,2.3c0,0.2,0.2,0.2,0.3,0.2
				c0.2,0,0.2-0.1,0.3-0.2c0.4-1.3,1-1.8,1.6-1.8c0.2,0,0.4,0.1,0.4,0.5c0,0.3-0.1,0.6-0.5,1.5L160.3,138.3 M163.4,130.7
				c0-0.2-0.2-0.6-0.6-0.6c-0.4,0-0.8,0.4-0.8,0.8c0,0.3,0.2,0.6,0.6,0.6C163,131.5,163.4,131.1,163.4,130.7z"/>
		</g>
	</g>
</g>
<path class="st7" d="M172.5,167.7"/>
<g>
	<g>
		<g>
			<path d="M182.8,202.1c-0.2,1-0.7,2.8-1.5,4.3c-0.7,1.5-1.6,2.5-2.5,2.5c-0.7,0-1.2-0.6-1.2-2.6c0-0.9,0.1-2.1,0.7-4.2H182.8
				 M178.5,201.4c0.4-1.4,0.8-3.1,1.6-4.6c0.6-1,1.4-2.2,2.3-2.2c1,0,1.2,1.4,1.2,2.6c0,1-0.2,2.1-0.7,4.3L178.5,201.4L178.5,201.4z
				 M185.1,198.5c0-1.4-0.4-4.4-2.6-4.4c-3,0-6.3,6-6.3,10.9c0,2,0.6,4.4,2.6,4.4C181.8,209.4,185.1,203.3,185.1,198.5z"/>
			<path d="M189,206.5h1.5c0.3,0,0.5,0,0.5-0.3c0-0.2-0.2-0.2-0.4-0.2h-1.4l0.6-2.2c0-0.1,0-0.1,0-0.2c0-0.3-0.2-0.5-0.5-0.5
				c-0.4,0-0.6,0.3-0.7,0.6c-0.1,0.4,0.1-0.3-0.6,2.3h-1.5c-0.3,0-0.5,0-0.5,0.3c0,0.2,0.2,0.2,0.4,0.2h1.4l-0.9,3.5
				c-0.1,0.4-0.2,0.9-0.2,1.1c0,0.9,0.7,1.4,1.6,1.4c1.7,0,2.6-2.1,2.6-2.3s-0.2-0.2-0.2-0.2c-0.2,0-0.2,0-0.3,0.3
				c-0.4,0.9-1.2,1.8-2,1.8c-0.3,0-0.5-0.2-0.5-0.7c0-0.1,0.1-0.5,0.1-0.6L189,206.5"/>
		</g>
	</g>
</g>
<g>
	<g>
		<line class="st8" x1="172.5" y1="298.3" x2="172.5" y2="36.9"/>
		<polygon class="st9" points="176.8,38.9 168.3,38.9 172.5,28.8 		"/>
	</g>
	<g>
		<line class="st8" x1="13" y1="167.2" x2="330.2" y2="167.2"/>
		<polygon class="st9" points="328.4,171.5 328.4,163 338.4,167.2 		"/>
	</g>
</g>
<g>
	<g>
		<line class="st10" x1="156.7" y1="155.1" x2="11.9" y2="54.4"/>
		<g>
			<polygon class="st11" points="168.3,163.1 156.6,145.1 155.8,154.5 147.3,158.4 			"/>
		</g>
	</g>
</g>
<g>
	<g>
		<g>
			<g>
				<g>
					<g>
						<g>
							<defs>
								<rect id="SVGID_9_" x="179" y="121.5" width="17.3" height="19.1"/>
							</defs>
							<clipPath id="SVGID_10_">
								<use xlink:href="#SVGID_9_"  style="overflow:visible;"/>
							</clipPath>
							<path class="st12" d="M186,129.7c-0.2,1-0.7,2.8-1.5,4.3c-0.7,1.5-1.6,2.5-2.5,2.5c-0.7,0-1.2-0.6-1.2-2.6
								c0-0.9,0.1-2.1,0.7-4.2H186 M181.7,129c0.4-1.4,0.8-3.1,1.6-4.6c0.6-1,1.4-2.2,2.3-2.2c1,0,1.2,1.4,1.2,2.6
								c0,1-0.2,2.1-0.7,4.3h-4.4L181.7,129L181.7,129z M188.3,126.1c0-1.4-0.4-4.4-2.6-4.4c-3,0-6.3,6-6.3,10.9
								c0,2,0.6,4.4,2.6,4.4C185,137,188.3,130.9,188.3,126.1z"/>
						</g>
					</g>
				</g>
			</g>
			<g>
				<g>
					<g>
						<g>
							<defs>
								<rect id="SVGID_11_" x="179" y="121.5" width="17.3" height="19.1"/>
							</defs>
							<clipPath id="SVGID_12_">
								<use xlink:href="#SVGID_11_"  style="overflow:visible;"/>
							</clipPath>
							<path class="st13" d="M192.1,137c0-0.1,0.4-1.4,0.4-1.5s0.5-0.9,0.9-1.2c0.2-0.1,0.6-0.4,1.2-0.4c0.1,0,0.5,0,0.8,0.2
								c-0.5,0.1-0.7,0.6-0.7,0.8c0,0.3,0.3,0.6,0.6,0.6s0.8-0.3,0.8-0.9c0-0.8-0.8-1.1-1.6-1.1s-1.4,0.3-2.1,1.1
								c-0.3-0.9-1.2-1.1-1.5-1.1c-0.6,0-0.9,0.3-1.2,0.8c-0.3,0.6-0.6,1.4-0.6,1.5c0,0.2,0.2,0.2,0.3,0.2c0.2,0,0.2,0,0.3-0.4
								c0.2-0.9,0.5-1.6,1.1-1.6c0.4,0,0.5,0.3,0.5,0.7c0,0.3-0.1,0.8-0.2,1.2s-0.3,1-0.3,1.3l-0.5,1.9c-0.1,0.2-0.1,0.6-0.1,0.6
								c0,0.3,0.3,0.5,0.5,0.5s0.5-0.1,0.6-0.4c0-0.1,0.2-0.7,0.3-1.1L192.1,137"/>
						</g>
					</g>
				</g>
			</g>
		</g>
	</g>
</g>
<path class="st7" d="M394.8,107.9"/>
<g>
	<g>
		<line class="st14" x1="176.6" y1="163.1" x2="321.4" y2="62.4"/>
		<g>
			<polygon class="st15" points="333,54.4 321.3,72.4 320.5,63 312,59 			"/>
		</g>
	</g>
</g>
<g>
	<path class="st16" d="M716.1-32.3"/>
</g>
<path class="st7" d="M385.8,107.5"/>
<g>
	<g>
		<line class="st14" x1="176.6" y1="171.6" x2="277.3" y2="316.4"/>
		<g>
			<polygon class="st15" points="285.3,328 267.3,316.3 276.7,315.5 280.7,307 			"/>
		</g>
	</g>
</g>
<text transform="matrix(0.8167 -0.5771 0.5771 0.8167 234.1675 116.3614)" class="st17 st18">Reflection</text>
<text transform="matrix(0.5771 0.8167 -0.8167 0.5771 224.368 228.2659)" class="st17 st18">Transmission</text>
<text transform="matrix(0.8138 0.5811 -0.5811 0.8138 64.5689 83.4188)" class="st17 st18">Incident</text>
</svg>
