<?xml version="1.0" encoding="utf-8" standalone="no"?>
<!DOCTYPE svg PUBLIC "-//W3C//DTD SVG 1.1//EN"
  "http://www.w3.org/Graphics/SVG/1.1/DTD/svg11.dtd">
<!-- Created with matplotlib (https://matplotlib.org/) -->
<svg height="335.403437pt" version="1.1" viewBox="0 0 1058.49375 335.403437" width="1058.49375pt" xmlns="http://www.w3.org/2000/svg" xmlns:xlink="http://www.w3.org/1999/xlink">
 <defs>
  <style type="text/css">
*{stroke-linecap:butt;stroke-linejoin:round;}
  </style>
 </defs>
 <g id="figure_1">
  <g id="patch_1">
   <path d="M 0 335.403437 
L 1058.49375 335.403437 
L 1058.49375 0 
L 0 0 
z
" style="fill:#ffffff;"/>
  </g>
  <g id="axes_1">
   <g id="patch_2">
    <path d="M 26.08375 297.077187 
L 508.32125 297.077187 
L 508.32125 19.677188 
L 26.08375 19.677188 
z
" style="fill:#ffffff;"/>
   </g>
   <g id="matplotlib.axis_1">
    <g id="xtick_1">
     <g id="line2d_1">
      <defs>
       <path d="M 0 0 
L 0 3.5 
" id="mc156b99cd7" style="stroke:#000000;stroke-width:0.8;"/>
      </defs>
      <g>
       <use style="stroke:#000000;stroke-width:0.8;" x="26.08375" xlink:href="#mc156b99cd7" y="297.077187"/>
      </g>
     </g>
     <g id="text_1">
      <!-- 0˚ -->
      <defs>
       <path d="M 31.78125 3.421875 
Q 39.265625 3.421875 42.96875 11.625 
Q 46.6875 19.828125 46.6875 36.375 
Q 46.6875 52.984375 42.96875 61.1875 
Q 39.265625 69.390625 31.78125 69.390625 
Q 24.3125 69.390625 20.59375 61.1875 
Q 16.890625 52.984375 16.890625 36.375 
Q 16.890625 19.828125 20.59375 11.625 
Q 24.3125 3.421875 31.78125 3.421875 
z
M 31.78125 -1.421875 
Q 19.921875 -1.421875 13.25 8.53125 
Q 6.59375 18.5 6.59375 36.375 
Q 6.59375 54.296875 13.25 64.25 
Q 19.921875 74.21875 31.78125 74.21875 
Q 43.703125 74.21875 50.34375 64.25 
Q 56.984375 54.296875 56.984375 36.375 
Q 56.984375 18.5 50.34375 8.53125 
Q 43.703125 -1.421875 31.78125 -1.421875 
z
" id="DejaVuSerif-48"/>
       <path d="M 38.375 74.421875 
Q 38.375 68.796875 34.484375 64.890625 
Q 30.609375 60.984375 25 60.984375 
Q 19.390625 60.984375 15.5 64.890625 
Q 11.625 68.796875 11.625 74.421875 
Q 11.625 80.03125 15.5 83.90625 
Q 19.390625 87.796875 25 87.796875 
Q 30.609375 87.796875 34.484375 83.90625 
Q 38.375 80.03125 38.375 74.421875 
z
M 32.421875 74.421875 
Q 32.421875 77.484375 30.265625 79.625 
Q 28.125 81.78125 25 81.78125 
Q 21.828125 81.78125 19.703125 79.65625 
Q 17.578125 77.546875 17.578125 74.421875 
Q 17.578125 71.234375 19.703125 69.109375 
Q 21.828125 67 25 67 
Q 28.125 67 30.265625 69.140625 
Q 32.421875 71.296875 32.421875 74.421875 
z
" id="DejaVuSerif-730"/>
      </defs>
      <g transform="translate(19.26625 313.195312)scale(0.12 -0.12)">
       <use xlink:href="#DejaVuSerif-48"/>
       <use x="63.623047" xlink:href="#DejaVuSerif-730"/>
      </g>
     </g>
    </g>
    <g id="xtick_2">
     <g id="line2d_2">
      <g>
       <use style="stroke:#000000;stroke-width:0.8;" x="186.829583" xlink:href="#mc156b99cd7" y="297.077187"/>
      </g>
     </g>
     <g id="text_2">
      <!-- 30˚ -->
      <defs>
       <path d="M 9.71875 69.828125 
Q 15.4375 71.96875 20.671875 73.09375 
Q 25.921875 74.21875 30.515625 74.21875 
Q 41.21875 74.21875 47.21875 69.59375 
Q 53.21875 64.984375 53.21875 56.78125 
Q 53.21875 50.203125 49.0625 45.78125 
Q 44.921875 41.359375 37.3125 39.796875 
Q 46.296875 38.53125 51.25 33.28125 
Q 56.203125 28.03125 56.203125 19.671875 
Q 56.203125 9.46875 49.34375 4.015625 
Q 42.484375 -1.421875 29.59375 -1.421875 
Q 23.875 -1.421875 18.421875 -0.1875 
Q 12.984375 1.03125 7.625 3.515625 
L 7.625 17.671875 
L 13.09375 17.671875 
Q 13.578125 10.640625 17.828125 7.03125 
Q 22.078125 3.421875 29.78125 3.421875 
Q 37.25 3.421875 41.578125 7.734375 
Q 45.90625 12.0625 45.90625 19.578125 
Q 45.90625 28.171875 41.453125 32.59375 
Q 37.015625 37.015625 28.421875 37.015625 
L 23.78125 37.015625 
L 23.78125 42 
L 26.21875 42 
Q 34.765625 42 39.03125 45.53125 
Q 43.3125 49.078125 43.3125 56.203125 
Q 43.3125 62.59375 39.796875 65.984375 
Q 36.28125 69.390625 29.6875 69.390625 
Q 23.09375 69.390625 19.453125 66.265625 
Q 15.828125 63.140625 15.1875 56.984375 
L 9.71875 56.984375 
z
" id="DejaVuSerif-51"/>
      </defs>
      <g transform="translate(176.194583 313.195312)scale(0.12 -0.12)">
       <use xlink:href="#DejaVuSerif-51"/>
       <use x="63.623047" xlink:href="#DejaVuSerif-48"/>
       <use x="127.246094" xlink:href="#DejaVuSerif-730"/>
      </g>
     </g>
    </g>
    <g id="xtick_3">
     <g id="line2d_3">
      <g>
       <use style="stroke:#000000;stroke-width:0.8;" x="347.575417" xlink:href="#mc156b99cd7" y="297.077187"/>
      </g>
     </g>
     <g id="text_3">
      <!-- 60˚ -->
      <defs>
       <path d="M 32.71875 3.421875 
Q 39.59375 3.421875 43.296875 8.46875 
Q 47.015625 13.53125 47.015625 23 
Q 47.015625 32.46875 43.296875 37.515625 
Q 39.59375 42.578125 32.71875 42.578125 
Q 25.734375 42.578125 22.0625 37.6875 
Q 18.40625 32.8125 18.40625 23.578125 
Q 18.40625 13.875 22.109375 8.640625 
Q 25.828125 3.421875 32.71875 3.421875 
z
M 16.796875 40.140625 
Q 20.125 43.796875 24.3125 45.59375 
Q 28.515625 47.40625 33.796875 47.40625 
Q 44.671875 47.40625 51 40.859375 
Q 57.328125 34.328125 57.328125 23 
Q 57.328125 11.921875 50.515625 5.25 
Q 43.703125 -1.421875 32.328125 -1.421875 
Q 19.96875 -1.421875 13.328125 7.78125 
Q 6.6875 17 6.6875 34.078125 
Q 6.6875 53.21875 14.546875 63.71875 
Q 22.40625 74.21875 36.71875 74.21875 
Q 40.578125 74.21875 44.828125 73.484375 
Q 49.078125 72.75 53.515625 71.296875 
L 53.515625 59.28125 
L 48 59.28125 
Q 47.40625 64.203125 44.234375 66.796875 
Q 41.0625 69.390625 35.6875 69.390625 
Q 26.21875 69.390625 21.578125 62.203125 
Q 16.9375 55.03125 16.796875 40.140625 
z
" id="DejaVuSerif-54"/>
      </defs>
      <g transform="translate(336.940417 313.195312)scale(0.12 -0.12)">
       <use xlink:href="#DejaVuSerif-54"/>
       <use x="63.623047" xlink:href="#DejaVuSerif-48"/>
       <use x="127.246094" xlink:href="#DejaVuSerif-730"/>
      </g>
     </g>
    </g>
    <g id="xtick_4">
     <g id="line2d_4">
      <g>
       <use style="stroke:#000000;stroke-width:0.8;" x="508.32125" xlink:href="#mc156b99cd7" y="297.077187"/>
      </g>
     </g>
     <g id="text_4">
      <!-- 90˚ -->
      <defs>
       <path d="M 46.78125 32.671875 
Q 43.5 29 39.25 27.1875 
Q 35.015625 25.390625 29.6875 25.390625 
Q 18.84375 25.390625 12.5625 31.9375 
Q 6.296875 38.484375 6.296875 49.8125 
Q 6.296875 60.890625 13.109375 67.546875 
Q 19.921875 74.21875 31.296875 74.21875 
Q 43.65625 74.21875 50.265625 65.015625 
Q 56.890625 55.8125 56.890625 38.71875 
Q 56.890625 19.578125 49.015625 9.078125 
Q 41.15625 -1.421875 26.90625 -1.421875 
Q 23.046875 -1.421875 18.796875 -0.6875 
Q 14.546875 0.046875 10.109375 1.515625 
L 10.109375 13.625 
L 15.578125 13.625 
Q 16.21875 8.6875 19.390625 6.046875 
Q 22.5625 3.421875 27.875 3.421875 
Q 37.359375 3.421875 41.984375 10.5625 
Q 46.625 17.71875 46.78125 32.671875 
z
M 30.90625 69.390625 
Q 23.96875 69.390625 20.28125 64.328125 
Q 16.609375 59.28125 16.609375 49.8125 
Q 16.609375 40.328125 20.28125 35.25 
Q 23.96875 30.171875 30.90625 30.171875 
Q 37.84375 30.171875 41.53125 35.078125 
Q 45.21875 39.984375 45.21875 49.21875 
Q 45.21875 58.9375 41.5 64.15625 
Q 37.796875 69.390625 30.90625 69.390625 
z
" id="DejaVuSerif-57"/>
      </defs>
      <g transform="translate(497.68625 313.195312)scale(0.12 -0.12)">
       <use xlink:href="#DejaVuSerif-57"/>
       <use x="63.623047" xlink:href="#DejaVuSerif-48"/>
       <use x="127.246094" xlink:href="#DejaVuSerif-730"/>
      </g>
     </g>
    </g>
    <g id="text_5">
     <!-- Angle of incidence -->
     <defs>
      <path d="M 20.015625 26.421875 
L 46.78125 26.421875 
L 33.40625 61.078125 
z
M -0.59375 0 
L -0.59375 5.171875 
L 5.8125 5.171875 
L 31.78125 72.90625 
L 39.984375 72.90625 
L 66.015625 5.171875 
L 73.1875 5.171875 
L 73.1875 0 
L 46.6875 0 
L 46.6875 5.171875 
L 54.78125 5.171875 
L 48.6875 21.1875 
L 18.015625 21.1875 
L 11.921875 5.171875 
L 19.921875 5.171875 
L 19.921875 0 
z
" id="DejaVuSerif-65"/>
      <path d="M 4.109375 0 
L 4.109375 5.171875 
L 12.203125 5.171875 
L 12.203125 46.6875 
L 3.609375 46.6875 
L 3.609375 51.90625 
L 21.1875 51.90625 
L 21.1875 42.671875 
Q 23.6875 47.953125 27.65625 50.640625 
Q 31.640625 53.328125 36.921875 53.328125 
Q 45.515625 53.328125 49.5625 48.390625 
Q 53.609375 43.453125 53.609375 33.015625 
L 53.609375 5.171875 
L 61.625 5.171875 
L 61.625 0 
L 36.8125 0 
L 36.8125 5.171875 
L 44.578125 5.171875 
L 44.578125 30.171875 
Q 44.578125 39.703125 42.234375 43.234375 
Q 39.890625 46.78125 33.984375 46.78125 
Q 27.734375 46.78125 24.453125 42.203125 
Q 21.1875 37.640625 21.1875 28.90625 
L 21.1875 5.171875 
L 29 5.171875 
L 29 0 
z
" id="DejaVuSerif-110"/>
      <path d="M 52.484375 46.6875 
L 52.484375 1.125 
Q 52.484375 -10.0625 46.328125 -16.140625 
Q 40.1875 -22.21875 28.8125 -22.21875 
Q 23.6875 -22.21875 19 -21.28125 
Q 14.3125 -20.359375 10.015625 -18.5 
L 10.015625 -7.625 
L 14.703125 -7.625 
Q 15.578125 -12.703125 18.84375 -15.046875 
Q 22.125 -17.390625 28.21875 -17.390625 
Q 36.140625 -17.390625 39.8125 -12.921875 
Q 43.5 -8.453125 43.5 1.125 
L 43.5 8.109375 
Q 40.875 3.21875 36.796875 0.890625 
Q 32.71875 -1.421875 26.703125 -1.421875 
Q 17.140625 -1.421875 11.0625 6.171875 
Q 4.984375 13.765625 4.984375 25.984375 
Q 4.984375 38.1875 11.03125 45.75 
Q 17.09375 53.328125 26.703125 53.328125 
Q 32.71875 53.328125 36.796875 51 
Q 40.875 48.6875 43.5 43.796875 
L 43.5 51.90625 
L 61.078125 51.90625 
L 61.078125 46.6875 
z
M 43.5 28.515625 
Q 43.5 37.84375 39.90625 42.765625 
Q 36.328125 47.703125 29.5 47.703125 
Q 22.5625 47.703125 19.015625 42.234375 
Q 15.484375 36.765625 15.484375 25.984375 
Q 15.484375 15.234375 19.015625 9.71875 
Q 22.5625 4.203125 29.5 4.203125 
Q 36.328125 4.203125 39.90625 9.109375 
Q 43.5 14.015625 43.5 23.390625 
z
" id="DejaVuSerif-103"/>
      <path d="M 20.515625 5.171875 
L 29 5.171875 
L 29 0 
L 2.875 0 
L 2.875 5.171875 
L 11.53125 5.171875 
L 11.53125 70.796875 
L 2.875 70.796875 
L 2.875 75.984375 
L 20.515625 75.984375 
z
" id="DejaVuSerif-108"/>
      <path d="M 54.203125 25 
L 15.484375 25 
L 15.484375 24.609375 
Q 15.484375 14.109375 19.4375 8.765625 
Q 23.390625 3.421875 31.109375 3.421875 
Q 37.015625 3.421875 40.796875 6.515625 
Q 44.578125 9.625 46.09375 15.71875 
L 53.328125 15.71875 
Q 51.171875 7.171875 45.375 2.875 
Q 39.59375 -1.421875 30.171875 -1.421875 
Q 18.796875 -1.421875 11.890625 6.078125 
Q 4.984375 13.578125 4.984375 25.984375 
Q 4.984375 38.28125 11.765625 45.796875 
Q 18.5625 53.328125 29.59375 53.328125 
Q 41.359375 53.328125 47.65625 46.0625 
Q 53.953125 38.8125 54.203125 25 
z
M 43.609375 30.171875 
Q 43.3125 39.265625 39.765625 43.875 
Q 36.234375 48.484375 29.59375 48.484375 
Q 23.390625 48.484375 19.828125 43.84375 
Q 16.265625 39.203125 15.484375 30.171875 
z
" id="DejaVuSerif-101"/>
      <path id="DejaVuSerif-32"/>
      <path d="M 30.078125 3.421875 
Q 37.3125 3.421875 40.984375 9.125 
Q 44.671875 14.84375 44.671875 25.984375 
Q 44.671875 37.109375 40.984375 42.796875 
Q 37.3125 48.484375 30.078125 48.484375 
Q 22.859375 48.484375 19.171875 42.796875 
Q 15.484375 37.109375 15.484375 25.984375 
Q 15.484375 14.84375 19.1875 9.125 
Q 22.90625 3.421875 30.078125 3.421875 
z
M 30.078125 -1.421875 
Q 18.75 -1.421875 11.859375 6.078125 
Q 4.984375 13.578125 4.984375 25.984375 
Q 4.984375 38.375 11.84375 45.84375 
Q 18.703125 53.328125 30.078125 53.328125 
Q 41.453125 53.328125 48.3125 45.84375 
Q 55.171875 38.375 55.171875 25.984375 
Q 55.171875 13.578125 48.3125 6.078125 
Q 41.453125 -1.421875 30.078125 -1.421875 
z
" id="DejaVuSerif-111"/>
      <path d="M 43.015625 63.71875 
L 38.28125 63.71875 
Q 38.234375 67.390625 36.203125 69.28125 
Q 34.1875 71.1875 30.328125 71.1875 
Q 25.296875 71.1875 23.234375 68.421875 
Q 21.1875 65.671875 21.1875 58.59375 
L 21.1875 51.90625 
L 35.6875 51.90625 
L 35.6875 46.6875 
L 21.1875 46.6875 
L 21.1875 5.171875 
L 32.71875 5.171875 
L 32.71875 0 
L 3.609375 0 
L 3.609375 5.171875 
L 12.203125 5.171875 
L 12.203125 46.6875 
L 3.609375 46.6875 
L 3.609375 51.90625 
L 12.203125 51.90625 
L 12.203125 58.40625 
Q 12.203125 67.09375 16.71875 71.53125 
Q 21.234375 75.984375 29.984375 75.984375 
Q 33.25 75.984375 36.515625 75.390625 
Q 39.796875 74.8125 43.015625 73.578125 
z
" id="DejaVuSerif-102"/>
      <path d="M 9.71875 68.015625 
Q 9.71875 70.265625 11.34375 71.921875 
Q 12.984375 73.578125 15.28125 73.578125 
Q 17.53125 73.578125 19.15625 71.921875 
Q 20.796875 70.265625 20.796875 68.015625 
Q 20.796875 65.71875 19.1875 64.109375 
Q 17.578125 62.5 15.28125 62.5 
Q 12.984375 62.5 11.34375 64.109375 
Q 9.71875 65.71875 9.71875 68.015625 
z
M 21.1875 5.171875 
L 29.6875 5.171875 
L 29.6875 0 
L 3.609375 0 
L 3.609375 5.171875 
L 12.203125 5.171875 
L 12.203125 46.6875 
L 3.609375 46.6875 
L 3.609375 51.90625 
L 21.1875 51.90625 
z
" id="DejaVuSerif-105"/>
      <path d="M 51.421875 15.578125 
Q 49.515625 7.28125 44.09375 2.921875 
Q 38.671875 -1.421875 30.078125 -1.421875 
Q 18.75 -1.421875 11.859375 6.078125 
Q 4.984375 13.578125 4.984375 25.984375 
Q 4.984375 38.421875 11.859375 45.875 
Q 18.75 53.328125 30.078125 53.328125 
Q 35.015625 53.328125 39.890625 52.171875 
Q 44.78125 51.03125 49.703125 48.6875 
L 49.703125 35.40625 
L 44.484375 35.40625 
Q 43.453125 42.234375 40.015625 45.359375 
Q 36.578125 48.484375 30.171875 48.484375 
Q 22.90625 48.484375 19.1875 42.84375 
Q 15.484375 37.203125 15.484375 25.984375 
Q 15.484375 14.75 19.171875 9.078125 
Q 22.859375 3.421875 30.171875 3.421875 
Q 35.984375 3.421875 39.453125 6.4375 
Q 42.921875 9.46875 44.1875 15.578125 
z
" id="DejaVuSerif-99"/>
      <path d="M 52.484375 5.171875 
L 61.078125 5.171875 
L 61.078125 0 
L 43.5 0 
L 43.5 8.109375 
Q 40.875 3.21875 36.796875 0.890625 
Q 32.71875 -1.421875 26.703125 -1.421875 
Q 17.140625 -1.421875 11.0625 6.171875 
Q 4.984375 13.765625 4.984375 25.984375 
Q 4.984375 38.1875 11.03125 45.75 
Q 17.09375 53.328125 26.703125 53.328125 
Q 32.71875 53.328125 36.796875 51 
Q 40.875 48.6875 43.5 43.796875 
L 43.5 70.796875 
L 35.015625 70.796875 
L 35.015625 75.984375 
L 52.484375 75.984375 
z
M 43.5 23.390625 
L 43.5 28.515625 
Q 43.5 37.84375 39.90625 42.765625 
Q 36.328125 47.703125 29.5 47.703125 
Q 22.5625 47.703125 19.015625 42.234375 
Q 15.484375 36.765625 15.484375 25.984375 
Q 15.484375 15.234375 19.015625 9.71875 
Q 22.5625 4.203125 29.5 4.203125 
Q 36.328125 4.203125 39.90625 9.109375 
Q 43.5 14.015625 43.5 23.390625 
z
" id="DejaVuSerif-100"/>
     </defs>
     <g transform="translate(192.02125 331.848437)scale(0.16 -0.16)">
      <use xlink:href="#DejaVuSerif-65"/>
      <use x="72.216797" xlink:href="#DejaVuSerif-110"/>
      <use x="136.621094" xlink:href="#DejaVuSerif-103"/>
      <use x="200.634766" xlink:href="#DejaVuSerif-108"/>
      <use x="232.617188" xlink:href="#DejaVuSerif-101"/>
      <use x="291.796875" xlink:href="#DejaVuSerif-32"/>
      <use x="323.583984" xlink:href="#DejaVuSerif-111"/>
      <use x="383.789062" xlink:href="#DejaVuSerif-102"/>
      <use x="420.800781" xlink:href="#DejaVuSerif-32"/>
      <use x="452.587891" xlink:href="#DejaVuSerif-105"/>
      <use x="484.570312" xlink:href="#DejaVuSerif-110"/>
      <use x="548.974609" xlink:href="#DejaVuSerif-99"/>
      <use x="604.980469" xlink:href="#DejaVuSerif-105"/>
      <use x="636.962891" xlink:href="#DejaVuSerif-100"/>
      <use x="700.976562" xlink:href="#DejaVuSerif-101"/>
      <use x="760.15625" xlink:href="#DejaVuSerif-110"/>
      <use x="824.560547" xlink:href="#DejaVuSerif-99"/>
      <use x="880.566406" xlink:href="#DejaVuSerif-101"/>
     </g>
    </g>
   </g>
   <g id="matplotlib.axis_2">
    <g id="ytick_1">
     <g id="line2d_5">
      <defs>
       <path d="M 0 0 
L -3.5 0 
" id="mbc43d12330" style="stroke:#000000;stroke-width:0.8;"/>
      </defs>
      <g>
       <use style="stroke:#000000;stroke-width:0.8;" x="26.08375" xlink:href="#mbc43d12330" y="284.468097"/>
      </g>
     </g>
     <g id="text_6">
      <!-- 0 -->
      <g transform="translate(11.44875 289.027159)scale(0.12 -0.12)">
       <use xlink:href="#DejaVuSerif-48"/>
      </g>
     </g>
    </g>
    <g id="ytick_2">
     <g id="line2d_6">
      <g>
       <use style="stroke:#000000;stroke-width:0.8;" x="26.08375" xlink:href="#mbc43d12330" y="158.377188"/>
      </g>
     </g>
     <g id="text_7">
      <!-- 0.5 -->
      <defs>
       <path d="M 9.421875 5.078125 
Q 9.421875 7.8125 11.28125 9.71875 
Q 13.140625 11.625 15.921875 11.625 
Q 18.609375 11.625 20.5 9.71875 
Q 22.40625 7.8125 22.40625 5.078125 
Q 22.40625 2.390625 20.5 0.484375 
Q 18.609375 -1.421875 15.921875 -1.421875 
Q 13.140625 -1.421875 11.28125 0.453125 
Q 9.421875 2.34375 9.421875 5.078125 
z
" id="DejaVuSerif-46"/>
       <path d="M 50.296875 72.90625 
L 50.296875 64.890625 
L 16.890625 64.890625 
L 16.890625 44 
Q 19.4375 45.75 22.828125 46.625 
Q 26.21875 47.515625 30.421875 47.515625 
Q 42.234375 47.515625 49.0625 40.96875 
Q 55.90625 34.421875 55.90625 23.09375 
Q 55.90625 11.53125 49 5.046875 
Q 42.09375 -1.421875 29.59375 -1.421875 
Q 24.5625 -1.421875 19.28125 -0.1875 
Q 14.015625 1.03125 8.5 3.515625 
L 8.5 17.671875 
L 14.015625 17.671875 
Q 14.453125 10.75 18.421875 7.078125 
Q 22.40625 3.421875 29.59375 3.421875 
Q 37.3125 3.421875 41.453125 8.5 
Q 45.609375 13.578125 45.609375 23.09375 
Q 45.609375 32.5625 41.484375 37.609375 
Q 37.359375 42.671875 29.59375 42.671875 
Q 25.203125 42.671875 21.84375 41.109375 
Q 18.5 39.546875 15.921875 36.28125 
L 11.71875 36.28125 
L 11.71875 72.90625 
z
" id="DejaVuSerif-53"/>
      </defs>
      <g transform="translate(0 162.93625)scale(0.12 -0.12)">
       <use xlink:href="#DejaVuSerif-48"/>
       <use x="63.623047" xlink:href="#DejaVuSerif-46"/>
       <use x="95.410156" xlink:href="#DejaVuSerif-53"/>
      </g>
     </g>
    </g>
    <g id="ytick_3">
     <g id="line2d_7">
      <g>
       <use style="stroke:#000000;stroke-width:0.8;" x="26.08375" xlink:href="#mbc43d12330" y="32.286278"/>
      </g>
     </g>
     <g id="text_8">
      <!-- 1 -->
      <defs>
       <path d="M 14.203125 0 
L 14.203125 5.171875 
L 26.90625 5.171875 
L 26.90625 65.828125 
L 12.203125 56.296875 
L 12.203125 62.703125 
L 29.984375 74.21875 
L 36.71875 74.21875 
L 36.71875 5.171875 
L 49.421875 5.171875 
L 49.421875 0 
z
" id="DejaVuSerif-49"/>
      </defs>
      <g transform="translate(11.44875 36.845341)scale(0.12 -0.12)">
       <use xlink:href="#DejaVuSerif-49"/>
      </g>
     </g>
    </g>
   </g>
   <g id="line2d_8">
    <path clip-path="url(#pc63aa8b241)" d="M 26.08375 284.468097 
L 508.315892 284.468097 
L 508.315892 284.468097 
" style="fill:none;stroke:#000000;stroke-linecap:square;"/>
   </g>
   <g id="line2d_9">
    <path clip-path="url(#pc63aa8b241)" d="M 26.08375 32.286278 
L 508.315892 32.286278 
L 508.315892 32.286278 
" style="fill:none;stroke:#000000;stroke-linecap:square;"/>
   </g>
   <g id="line2d_10">
    <path clip-path="url(#pc63aa8b241)" d="M 206.601683 336.403437 
L 206.601683 -1 
" style="fill:none;stroke:#555555;stroke-dasharray:3,4.95;stroke-dashoffset:0;stroke-width:3;"/>
   </g>
   <g id="line2d_11">
    <path clip-path="url(#pc63aa8b241)" d="M 250.111547 336.403437 
L 250.111547 -1 
" style="fill:none;stroke:#555555;stroke-dasharray:3,4.95;stroke-dashoffset:0;stroke-width:3;"/>
   </g>
   <g id="line2d_12">
    <path clip-path="url(#pc63aa8b241)" d="M 26.08375 274.380824 
L 44.445294 274.271802 
L 62.806839 273.935251 
L 79.235589 273.417023 
L 94.697943 272.705875 
L 108.227502 271.864799 
L 120.790664 270.854116 
L 131.421031 269.781487 
L 141.085002 268.588942 
L 149.782576 267.29475 
L 157.513753 265.926406 
L 164.278532 264.522356 
L 171.043312 262.882002 
L 176.841694 261.247052 
L 182.640077 259.35421 
L 187.472062 257.538668 
L 192.304047 255.461272 
L 196.169636 253.574378 
L 200.035224 251.449491 
L 203.900812 249.042178 
L 206.800004 247.017992 
L 209.699195 244.773975 
L 212.598386 242.273922 
L 215.497577 239.472955 
L 218.396768 236.314628 
L 221.29596 232.726732 
L 223.228754 230.050777 
L 225.161548 227.107431 
L 227.094342 223.853455 
L 229.027136 220.234993 
L 230.95993 216.183833 
L 232.892725 211.611835 
L 234.825519 206.40234 
L 236.758313 200.396307 
L 238.691107 193.368668 
L 240.623901 184.985029 
L 242.556695 174.714459 
L 243.523092 168.607523 
L 244.48949 161.6286 
L 245.455887 153.510548 
L 246.422284 143.831667 
L 247.388681 131.856336 
L 248.355078 116.074483 
L 249.321475 92.179487 
L 250.287872 32.286278 
L 508.315892 32.286278 
L 508.315892 32.286278 
" style="fill:none;stroke:#0000ff;stroke-linecap:square;stroke-width:3;"/>
   </g>
   <g id="line2d_13">
    <path clip-path="url(#pc63aa8b241)" d="M 26.08375 274.380824 
L 44.445294 274.489308 
L 62.806839 274.817554 
L 81.168383 275.373811 
L 98.563531 276.122981 
L 115.958678 277.102387 
L 132.387429 278.250239 
L 148.816179 279.616648 
L 168.14412 281.464212 
L 192.304047 283.778717 
L 200.035224 284.291646 
L 205.833606 284.465265 
L 210.665592 284.376542 
L 214.53118 284.073323 
L 217.430371 283.654746 
L 220.329563 283.014909 
L 223.228754 282.08083 
L 225.161548 281.245359 
L 227.094342 280.192958 
L 229.027136 278.86991 
L 230.95993 277.204939 
L 232.892725 275.101417 
L 234.825519 272.424925 
L 235.791916 270.814631 
L 236.758313 268.982451 
L 237.72471 266.889123 
L 238.691107 264.485562 
L 239.657504 261.709461 
L 240.623901 258.480301 
L 241.590298 254.691811 
L 242.556695 250.200104 
L 243.523092 244.804171 
L 244.48949 238.211877 
L 245.455887 229.976162 
L 246.422284 219.362946 
L 247.388681 205.036344 
L 248.355078 184.123955 
L 249.321475 147.983311 
L 250.287872 32.286278 
L 508.315892 32.286278 
L 508.315892 32.286278 
" style="fill:none;stroke:#ff0000;stroke-linecap:square;stroke-width:3;"/>
   </g>
   <g id="line2d_14">
    <path clip-path="url(#pc63aa8b241)" d="M 26.08375 274.380824 
L 105.32831 274.270202 
L 129.488237 274.012612 
L 145.916988 273.629544 
L 158.48015 273.126388 
L 168.14412 272.540655 
L 176.841694 271.792835 
L 183.606474 271.006877 
L 189.404856 270.139074 
L 195.203239 269.032464 
L 200.035224 267.870568 
L 203.900812 266.738564 
L 207.766401 265.378628 
L 211.631989 263.730896 
L 214.53118 262.258288 
L 217.430371 260.532966 
L 220.329563 258.495307 
L 222.262357 256.92515 
L 224.195151 255.151202 
L 226.127945 253.135821 
L 228.060739 250.831445 
L 229.993533 248.176977 
L 231.926328 245.092377 
L 233.859122 241.470332 
L 235.791916 237.162833 
L 237.72471 231.958467 
L 239.657504 225.541436 
L 240.623901 221.732665 
L 241.590298 217.411196 
L 242.556695 212.457281 
L 243.523092 206.705847 
L 244.48949 199.920238 
L 245.455887 191.743355 
L 246.422284 181.597306 
L 247.388681 168.44634 
L 248.355078 150.099219 
L 249.321475 120.081399 
L 250.287872 32.286278 
L 508.315892 32.286278 
L 508.315892 32.286278 
" style="fill:none;stroke:#bf00bf;stroke-linecap:square;stroke-width:2;"/>
   </g>
   <g id="patch_3">
    <path d="M 26.08375 297.077188 
L 26.08375 19.677188 
" style="fill:none;stroke:#000000;stroke-linecap:square;stroke-linejoin:miter;stroke-width:0.8;"/>
   </g>
   <g id="patch_4">
    <path d="M 508.32125 297.077188 
L 508.32125 19.677188 
" style="fill:none;stroke:#000000;stroke-linecap:square;stroke-linejoin:miter;stroke-width:0.8;"/>
   </g>
   <g id="patch_5">
    <path d="M 26.08375 297.077187 
L 508.32125 297.077187 
" style="fill:none;stroke:#000000;stroke-linecap:square;stroke-linejoin:miter;stroke-width:0.8;"/>
   </g>
   <g id="patch_6">
    <path d="M 26.08375 19.677188 
L 508.32125 19.677188 
" style="fill:none;stroke:#000000;stroke-linecap:square;stroke-linejoin:miter;stroke-width:0.8;"/>
   </g>
   <g id="text_9">
    <!-- $\arctan(2/3)$ -->
    <defs>
     <path d="M 39.796875 16.3125 
L 39.796875 27.296875 
L 28.21875 27.296875 
Q 21.53125 27.296875 18.25 24.40625 
Q 14.984375 21.53125 14.984375 15.578125 
Q 14.984375 10.15625 18.296875 6.984375 
Q 21.625 3.8125 27.296875 3.8125 
Q 32.90625 3.8125 36.34375 7.28125 
Q 39.796875 10.75 39.796875 16.3125 
z
M 48.78125 32.421875 
L 48.78125 5.171875 
L 56.78125 5.171875 
L 56.78125 0 
L 39.796875 0 
L 39.796875 5.609375 
Q 36.8125 2 32.90625 0.28125 
Q 29 -1.421875 23.78125 -1.421875 
Q 15.140625 -1.421875 10.0625 3.171875 
Q 4.984375 7.765625 4.984375 15.578125 
Q 4.984375 23.640625 10.796875 28.078125 
Q 16.609375 32.515625 27.203125 32.515625 
L 39.796875 32.515625 
L 39.796875 36.078125 
Q 39.796875 42 36.203125 45.234375 
Q 32.625 48.484375 26.125 48.484375 
Q 20.75 48.484375 17.578125 46.046875 
Q 14.40625 43.609375 13.625 38.8125 
L 8.984375 38.8125 
L 8.984375 49.3125 
Q 13.671875 51.3125 18.09375 52.3125 
Q 22.515625 53.328125 26.703125 53.328125 
Q 37.5 53.328125 43.140625 47.96875 
Q 48.78125 42.625 48.78125 32.421875 
z
" id="DejaVuSerif-97"/>
     <path d="M 47.796875 52 
L 47.796875 39.015625 
L 42.625 39.015625 
Q 42.390625 42.875 40.484375 44.78125 
Q 38.578125 46.6875 34.90625 46.6875 
Q 28.265625 46.6875 24.71875 42.09375 
Q 21.1875 37.5 21.1875 28.90625 
L 21.1875 5.171875 
L 31.59375 5.171875 
L 31.59375 0 
L 4.109375 0 
L 4.109375 5.171875 
L 12.203125 5.171875 
L 12.203125 46.78125 
L 3.609375 46.78125 
L 3.609375 51.90625 
L 21.1875 51.90625 
L 21.1875 42.671875 
Q 23.828125 48.09375 27.96875 50.703125 
Q 32.125 53.328125 38.09375 53.328125 
Q 40.28125 53.328125 42.703125 52.984375 
Q 45.125 52.640625 47.796875 52 
z
" id="DejaVuSerif-114"/>
     <path d="M 10.796875 46.6875 
L 2.875 46.6875 
L 2.875 51.90625 
L 10.796875 51.90625 
L 10.796875 68.015625 
L 19.828125 68.015625 
L 19.828125 51.90625 
L 36.71875 51.90625 
L 36.71875 46.6875 
L 19.828125 46.6875 
L 19.828125 13.71875 
Q 19.828125 7.125 21.09375 5.265625 
Q 22.359375 3.421875 25.78125 3.421875 
Q 29.296875 3.421875 30.90625 5.484375 
Q 32.515625 7.5625 32.625 12.203125 
L 39.40625 12.203125 
Q 39.015625 5.125 35.546875 1.84375 
Q 32.078125 -1.421875 25 -1.421875 
Q 17.234375 -1.421875 14.015625 2.015625 
Q 10.796875 5.46875 10.796875 13.71875 
z
" id="DejaVuSerif-116"/>
     <path d="M 31.890625 -15.578125 
Q 20.015625 -10.25 13.953125 1.296875 
Q 7.90625 12.84375 7.90625 30.171875 
Q 7.90625 47.5625 13.953125 59.109375 
Q 20.015625 70.65625 31.890625 75.984375 
L 31.890625 71.1875 
Q 24.359375 66.015625 21.09375 56.609375 
Q 17.828125 47.21875 17.828125 30.171875 
Q 17.828125 13.1875 21.09375 3.78125 
Q 24.359375 -5.609375 31.890625 -10.796875 
z
" id="DejaVuSerif-40"/>
     <path d="M 12.796875 55.515625 
L 7.328125 55.515625 
L 7.328125 68.5 
Q 12.546875 71.296875 17.84375 72.75 
Q 23.140625 74.21875 28.21875 74.21875 
Q 39.59375 74.21875 46.1875 68.703125 
Q 52.78125 63.1875 52.78125 53.71875 
Q 52.78125 43.015625 37.84375 28.125 
Q 36.671875 27 36.078125 26.421875 
L 17.671875 8.015625 
L 48.09375 8.015625 
L 48.09375 17 
L 53.8125 17 
L 53.8125 0 
L 6.78125 0 
L 6.78125 5.328125 
L 28.90625 27.390625 
Q 36.234375 34.71875 39.359375 40.84375 
Q 42.484375 46.96875 42.484375 53.71875 
Q 42.484375 61.078125 38.640625 65.234375 
Q 34.8125 69.390625 28.078125 69.390625 
Q 21.09375 69.390625 17.28125 65.921875 
Q 13.484375 62.453125 12.796875 55.515625 
z
" id="DejaVuSerif-50"/>
     <path d="M 25.875 72.90625 
L 33.6875 72.90625 
L 7.8125 -9.28125 
L 0 -9.28125 
z
" id="DejaVuSerif-47"/>
     <path d="M 7.078125 -15.578125 
L 7.078125 -10.796875 
Q 14.59375 -5.609375 17.890625 3.78125 
Q 21.1875 13.1875 21.1875 30.171875 
Q 21.1875 47.21875 17.890625 56.609375 
Q 14.59375 66.015625 7.078125 71.1875 
L 7.078125 75.984375 
Q 19 70.65625 25.046875 59.109375 
Q 31.109375 47.5625 31.109375 30.171875 
Q 31.109375 12.84375 25.046875 1.296875 
Q 19 -10.25 7.078125 -15.578125 
z
" id="DejaVuSerif-41"/>
    </defs>
    <g transform="translate(198.123957 137.856733)rotate(-90)scale(0.15 -0.15)">
     <use transform="translate(0 0.015625)" xlink:href="#DejaVuSerif-97"/>
     <use transform="translate(59.619141 0.015625)" xlink:href="#DejaVuSerif-114"/>
     <use transform="translate(107.421875 0.015625)" xlink:href="#DejaVuSerif-99"/>
     <use transform="translate(163.427734 0.015625)" xlink:href="#DejaVuSerif-116"/>
     <use transform="translate(203.613281 0.015625)" xlink:href="#DejaVuSerif-97"/>
     <use transform="translate(263.232422 0.015625)" xlink:href="#DejaVuSerif-110"/>
     <use transform="translate(327.636719 0.015625)" xlink:href="#DejaVuSerif-40"/>
     <use transform="translate(366.650391 0.015625)" xlink:href="#DejaVuSerif-50"/>
     <use transform="translate(430.273438 0.015625)" xlink:href="#DejaVuSerif-47"/>
     <use transform="translate(463.964844 0.015625)" xlink:href="#DejaVuSerif-51"/>
     <use transform="translate(527.587891 0.015625)" xlink:href="#DejaVuSerif-41"/>
    </g>
   </g>
   <g id="text_10">
    <!-- $\arcsin(2/3)$ -->
    <defs>
     <path d="M 5.609375 2.875 
L 5.609375 14.984375 
L 10.796875 14.984375 
Q 10.984375 9.1875 14.421875 6.296875 
Q 17.875 3.421875 24.609375 3.421875 
Q 30.671875 3.421875 33.84375 5.6875 
Q 37.015625 7.953125 37.015625 12.3125 
Q 37.015625 15.71875 34.6875 17.8125 
Q 32.375 19.921875 24.90625 22.3125 
L 18.40625 24.515625 
Q 11.71875 26.65625 8.71875 29.875 
Q 5.71875 33.109375 5.71875 38.09375 
Q 5.71875 45.21875 10.9375 49.265625 
Q 16.15625 53.328125 25.390625 53.328125 
Q 29.5 53.328125 34.03125 52.25 
Q 38.578125 51.171875 43.40625 49.125 
L 43.40625 37.796875 
L 38.234375 37.796875 
Q 38.03125 42.828125 34.703125 45.65625 
Q 31.390625 48.484375 25.6875 48.484375 
Q 20.015625 48.484375 17.109375 46.484375 
Q 14.203125 44.484375 14.203125 40.484375 
Q 14.203125 37.203125 16.40625 35.21875 
Q 18.609375 33.25 25.203125 31.203125 
L 32.328125 29 
Q 39.703125 26.703125 42.9375 23.265625 
Q 46.1875 19.828125 46.1875 14.40625 
Q 46.1875 7.03125 40.546875 2.796875 
Q 34.90625 -1.421875 25 -1.421875 
Q 19.96875 -1.421875 15.1875 -0.34375 
Q 10.40625 0.734375 5.609375 2.875 
z
" id="DejaVuSerif-115"/>
    </defs>
    <g transform="translate(241.633821 136.656733)rotate(-90)scale(0.15 -0.15)">
     <use transform="translate(0 0.015625)" xlink:href="#DejaVuSerif-97"/>
     <use transform="translate(59.619141 0.015625)" xlink:href="#DejaVuSerif-114"/>
     <use transform="translate(107.421875 0.015625)" xlink:href="#DejaVuSerif-99"/>
     <use transform="translate(163.427734 0.015625)" xlink:href="#DejaVuSerif-115"/>
     <use transform="translate(214.746094 0.015625)" xlink:href="#DejaVuSerif-105"/>
     <use transform="translate(246.728516 0.015625)" xlink:href="#DejaVuSerif-110"/>
     <use transform="translate(311.132812 0.015625)" xlink:href="#DejaVuSerif-40"/>
     <use transform="translate(350.146484 0.015625)" xlink:href="#DejaVuSerif-50"/>
     <use transform="translate(413.769531 0.015625)" xlink:href="#DejaVuSerif-47"/>
     <use transform="translate(447.460938 0.015625)" xlink:href="#DejaVuSerif-51"/>
     <use transform="translate(511.083984 0.015625)" xlink:href="#DejaVuSerif-41"/>
    </g>
   </g>
   <g id="text_11">
    <!-- Reflectance -->
    <defs>
     <path d="M 53.078125 35.59375 
Q 57.421875 34.96875 60.390625 32.71875 
Q 63.375 30.46875 65.578125 26.21875 
L 76.21875 5.90625 
L 83.6875 5.90625 
L 83.6875 0 
L 59.71875 0 
L 48.09375 22.015625 
Q 44.734375 28.859375 42.359375 30.734375 
Q 39.984375 32.625 35.796875 32.625 
L 32.8125 32.625 
L 32.8125 5.90625 
L 42.1875 5.90625 
L 42.1875 0 
L 4.6875 0 
L 4.6875 5.90625 
L 14.015625 5.90625 
L 14.015625 67 
L 4.6875 67 
L 4.6875 72.90625 
L 46.296875 72.90625 
Q 58.984375 72.90625 65.890625 67.796875 
Q 72.796875 62.703125 72.796875 53.328125 
Q 72.796875 45.703125 67.890625 41.28125 
Q 62.984375 36.859375 53.078125 35.59375 
z
M 32.8125 38.484375 
L 39.203125 38.484375 
Q 46.046875 38.484375 49.734375 42.1875 
Q 53.421875 45.90625 53.421875 52.78125 
Q 53.421875 59.671875 49.734375 63.328125 
Q 46.046875 67 39.203125 67 
L 32.8125 67 
z
" id="DejaVuSerif-Bold-82"/>
     <path d="M 40.09375 29.296875 
Q 40.09375 39.546875 38.1875 43.671875 
Q 36.28125 47.796875 31.6875 47.796875 
Q 27.25 47.796875 25.3125 43.75 
Q 23.390625 39.703125 23.390625 30.171875 
L 23.390625 29.296875 
z
M 59.078125 23.484375 
L 23.390625 23.484375 
L 23.390625 23.09375 
Q 23.390625 13.03125 26.40625 8.5625 
Q 29.4375 4.109375 36.1875 4.109375 
Q 41.796875 4.109375 45.265625 7.078125 
Q 48.734375 10.0625 49.703125 15.71875 
L 57.8125 15.71875 
Q 55.71875 6.890625 49.46875 2.734375 
Q 43.21875 -1.421875 31.984375 -1.421875 
Q 18.5 -1.421875 11.296875 5.6875 
Q 4.109375 12.796875 4.109375 25.984375 
Q 4.109375 38.875 11.46875 46.09375 
Q 18.84375 53.328125 31.984375 53.328125 
Q 44.875 53.328125 51.75 45.734375 
Q 58.640625 38.140625 59.078125 23.484375 
z
" id="DejaVuSerif-Bold-101"/>
     <path d="M 48.390625 62.984375 
L 42.921875 62.984375 
Q 42.53125 66.796875 40.703125 68.65625 
Q 38.875 70.515625 35.5 70.515625 
Q 31.59375 70.515625 29.828125 67.703125 
Q 28.078125 64.890625 28.078125 58.59375 
L 28.078125 51.90625 
L 41.109375 51.90625 
L 41.109375 46 
L 28.078125 46 
L 28.078125 5.90625 
L 38.09375 5.90625 
L 38.09375 0 
L 3.421875 0 
L 3.421875 5.90625 
L 10.796875 5.90625 
L 10.796875 46 
L 3.078125 46 
L 3.078125 51.90625 
L 10.796875 51.90625 
L 10.796875 58.40625 
Q 10.796875 67.046875 16.3125 71.515625 
Q 21.828125 75.984375 32.515625 75.984375 
Q 36.671875 75.984375 40.625 75.515625 
Q 44.578125 75.046875 48.390625 74.125 
z
" id="DejaVuSerif-Bold-102"/>
     <path d="M 28.078125 5.90625 
L 35.5 5.90625 
L 35.5 0 
L 3.421875 0 
L 3.421875 5.90625 
L 10.796875 5.90625 
L 10.796875 70.125 
L 3.421875 70.125 
L 3.421875 75.984375 
L 28.078125 75.984375 
z
" id="DejaVuSerif-Bold-108"/>
     <path d="M 56.390625 16.21875 
Q 54.546875 7.328125 48.796875 2.953125 
Q 43.0625 -1.421875 33.203125 -1.421875 
Q 19.34375 -1.421875 11.71875 5.75 
Q 4.109375 12.9375 4.109375 25.984375 
Q 4.109375 38.875 11.625 46.09375 
Q 19.140625 53.328125 32.515625 53.328125 
Q 37.9375 53.328125 43.453125 52.296875 
Q 48.96875 51.265625 54.6875 49.21875 
L 54.6875 34.8125 
L 49.21875 34.8125 
Q 48.4375 41.40625 45.359375 44.59375 
Q 42.28125 47.796875 36.71875 47.796875 
Q 29.5 47.796875 26.4375 42.90625 
Q 23.390625 38.03125 23.390625 25.984375 
Q 23.390625 14.203125 26.359375 9.15625 
Q 29.34375 4.109375 36.078125 4.109375 
Q 41.3125 4.109375 44.453125 7.234375 
Q 47.609375 10.359375 48.296875 16.21875 
z
" id="DejaVuSerif-Bold-99"/>
     <path d="M 9.90625 46 
L 2.390625 46 
L 2.390625 51.90625 
L 9.90625 51.90625 
L 9.90625 68.015625 
L 27.203125 68.015625 
L 27.203125 51.90625 
L 41.609375 51.90625 
L 41.609375 46 
L 27.203125 46 
L 27.203125 14.203125 
Q 27.203125 7.421875 28.265625 5.765625 
Q 29.34375 4.109375 32.171875 4.109375 
Q 35.296875 4.109375 36.8125 6.203125 
Q 38.328125 8.296875 38.421875 12.703125 
L 45.703125 12.703125 
Q 45.265625 4.890625 41.421875 1.734375 
Q 37.59375 -1.421875 28.21875 -1.421875 
Q 17.53125 -1.421875 13.71875 1.921875 
Q 9.90625 5.28125 9.90625 14.203125 
z
" id="DejaVuSerif-Bold-116"/>
     <path d="M 55.078125 31.890625 
L 55.078125 5.90625 
L 62.5 5.90625 
L 62.5 0 
L 37.796875 0 
L 37.796875 6.59375 
Q 34.375 2.484375 30.171875 0.53125 
Q 25.984375 -1.421875 20.609375 -1.421875 
Q 12.640625 -1.421875 8.375 2.84375 
Q 4.109375 7.125 4.109375 15.09375 
Q 4.109375 23.828125 10.234375 28.171875 
Q 16.359375 32.515625 28.71875 32.515625 
L 37.796875 32.515625 
L 37.796875 35.59375 
Q 37.796875 41.890625 34.8125 44.890625 
Q 31.84375 47.90625 25.59375 47.90625 
Q 20.40625 47.90625 17.59375 45.78125 
Q 14.796875 43.65625 13.625 38.8125 
L 8.109375 38.8125 
L 8.109375 50 
Q 12.75 51.65625 17.71875 52.484375 
Q 22.703125 53.328125 28.21875 53.328125 
Q 42.140625 53.328125 48.609375 48.140625 
Q 55.078125 42.96875 55.078125 31.890625 
z
M 37.796875 16.3125 
L 37.796875 26.703125 
L 31.296875 26.703125 
Q 26.46875 26.703125 23.875 24.0625 
Q 21.296875 21.4375 21.296875 16.5 
Q 21.296875 11.578125 23.171875 9.125 
Q 25.046875 6.6875 28.90625 6.6875 
Q 32.90625 6.6875 35.34375 9.328125 
Q 37.796875 11.96875 37.796875 16.3125 
z
" id="DejaVuSerif-Bold-97"/>
     <path d="M 3.421875 0 
L 3.421875 5.90625 
L 10.796875 5.90625 
L 10.796875 46 
L 3.421875 46 
L 3.421875 51.90625 
L 28.078125 51.90625 
L 28.078125 44.578125 
Q 31.203125 49.21875 35.203125 51.265625 
Q 39.203125 53.328125 45.3125 53.328125 
Q 54.046875 53.328125 58.515625 48.171875 
Q 62.984375 43.015625 62.984375 33.015625 
L 62.984375 5.90625 
L 70.40625 5.90625 
L 70.40625 0 
L 39.40625 0 
L 39.40625 5.90625 
L 45.703125 5.90625 
L 45.703125 33.5 
Q 45.703125 40.09375 44.015625 42.65625 
Q 42.328125 45.21875 38.1875 45.21875 
Q 32.953125 45.21875 30.515625 41.375 
Q 28.078125 37.546875 28.078125 29.203125 
L 28.078125 5.90625 
L 34.421875 5.90625 
L 34.421875 0 
z
" id="DejaVuSerif-Bold-110"/>
    </defs>
    <g transform="translate(207.761719 13.677188)scale(0.18 -0.18)">
     <use xlink:href="#DejaVuSerif-Bold-82"/>
     <use x="83.105469" xlink:href="#DejaVuSerif-Bold-101"/>
     <use x="146.728516" xlink:href="#DejaVuSerif-Bold-102"/>
     <use x="189.746094" xlink:href="#DejaVuSerif-Bold-108"/>
     <use x="227.734375" xlink:href="#DejaVuSerif-Bold-101"/>
     <use x="291.357422" xlink:href="#DejaVuSerif-Bold-99"/>
     <use x="352.246094" xlink:href="#DejaVuSerif-Bold-116"/>
     <use x="398.4375" xlink:href="#DejaVuSerif-Bold-97"/>
     <use x="463.232422" xlink:href="#DejaVuSerif-Bold-110"/>
     <use x="535.9375" xlink:href="#DejaVuSerif-Bold-99"/>
     <use x="596.826172" xlink:href="#DejaVuSerif-Bold-101"/>
    </g>
   </g>
   <g id="legend_1">
    <g id="patch_7">
     <path d="M 38.9285 119.541188 
L 122.7685 119.541188 
Q 125.9685 119.541188 125.9685 116.341188 
L 125.9685 45.341188 
Q 125.9685 42.141188 122.7685 42.141188 
L 38.9285 42.141188 
Q 35.7285 42.141188 35.7285 45.341188 
L 35.7285 116.341188 
Q 35.7285 119.541188 38.9285 119.541188 
z
" style="fill:#ffffff;opacity:0.8;stroke:#cccccc;stroke-linejoin:miter;"/>
    </g>
    <g id="line2d_15">
     <path d="M 42.1285 55.098688 
L 74.1285 55.098688 
" style="fill:none;stroke:#0000ff;stroke-linecap:square;stroke-width:3;"/>
    </g>
    <g id="line2d_16"/>
    <g id="text_12">
     <!-- $R_\bot$ -->
     <defs>
      <path d="M 47.90625 36.1875 
Q 51.125 35.25 53.171875 33.03125 
Q 55.21875 30.8125 56.390625 26.8125 
L 62.75 5.171875 
L 71.625 5.171875 
L 70.65625 0 
L 53.46875 0 
L 46.578125 23.1875 
Q 44.625 29.9375 42.28125 31.90625 
Q 39.9375 33.890625 35.15625 33.890625 
L 24.265625 33.890625 
L 18.65625 5.171875 
L 28.953125 5.171875 
L 27.984375 0 
L -1.515625 0 
L -0.53125 5.171875 
L 8.734375 5.171875 
L 20.90625 67.671875 
L 11.625 67.671875 
L 12.640625 72.90625 
L 49.609375 72.90625 
Q 60.25 72.90625 65.0625 67.828125 
Q 69.875 62.75 68.0625 53.421875 
Q 66.609375 45.90625 61.53125 41.578125 
Q 56.453125 37.25 47.90625 36.1875 
z
M 25.296875 39.109375 
L 39.703125 39.109375 
Q 47.078125 39.109375 51.25 42.59375 
Q 55.421875 46.09375 56.859375 53.421875 
Q 58.296875 60.75 55.4375 64.203125 
Q 52.59375 67.671875 45.21875 67.671875 
L 30.8125 67.671875 
z
" id="DejaVuSerif-Italic-82"/>
      <path d="M 10.59375 0 
L 10.59375 7.90625 
L 43.0625 7.90625 
L 43.0625 68.84375 
L 50.984375 68.84375 
L 50.984375 7.90625 
L 83.453125 7.90625 
L 83.453125 0 
z
" id="DejaVuSerif-8869"/>
     </defs>
     <g transform="translate(86.9285 60.698688)scale(0.16 -0.16)">
      <use transform="translate(0 0.09375)" xlink:href="#DejaVuSerif-Italic-82"/>
      <use transform="translate(75.292969 -15.478125)scale(0.7)" xlink:href="#DejaVuSerif-8869"/>
     </g>
    </g>
    <g id="line2d_17">
     <path d="M 42.1285 78.583688 
L 74.1285 78.583688 
" style="fill:none;stroke:#ff0000;stroke-linecap:square;stroke-width:3;"/>
    </g>
    <g id="line2d_18"/>
    <g id="text_13">
     <!-- $R_\parallel$ -->
     <defs>
      <path d="M 35.59375 82.671875 
L 35.59375 -9.765625 
L 27.6875 -9.765625 
L 27.6875 82.671875 
z
M 18.5 82.671875 
L 18.5 -9.765625 
L 10.59375 -9.765625 
L 10.59375 82.671875 
z
" id="DejaVuSerif-8741"/>
     </defs>
     <g transform="translate(86.9285 84.183688)scale(0.16 -0.16)">
      <use transform="translate(0 0.09375)" xlink:href="#DejaVuSerif-Italic-82"/>
      <use transform="translate(88.568359 -15.478125)scale(0.7)" xlink:href="#DejaVuSerif-8741"/>
     </g>
    </g>
    <g id="line2d_19">
     <path d="M 42.1285 102.421188 
L 74.1285 102.421188 
" style="fill:none;stroke:#bf00bf;stroke-linecap:square;stroke-width:2;"/>
    </g>
    <g id="line2d_20"/>
    <g id="text_14">
     <!-- $R_{avg}$ -->
     <defs>
      <path d="M 36.328125 8.109375 
Q 29.828125 -1.421875 19.34375 -1.421875 
Q 10.75 -1.421875 6.390625 4.390625 
Q 3.375 8.5 3.375 14.359375 
Q 3.375 16.84375 3.90625 19.625 
Q 7.234375 36.859375 19.234375 45.75 
Q 29.4375 53.328125 41.796875 53.328125 
Q 50.09375 53.328125 52.9375 51.90625 
L 43.84375 5.171875 
L 51.5625 5.171875 
L 50.59375 0 
L 34.765625 0 
z
M 12.84375 14.65625 
Q 12.84375 4.203125 22.953125 4.203125 
Q 29.109375 4.203125 33.28125 9.109375 
Q 37.453125 14.015625 39.3125 23.390625 
L 43.84375 46.921875 
L 43.84375 46.921875 
Q 43.84375 48.34375 39.9375 48.34375 
Q 30.5625 48.34375 23.296875 41.015625 
Q 16.0625 33.640625 13.484375 20.265625 
Q 12.84375 17.140625 12.84375 14.65625 
z
" id="DejaVuSerif-Italic-97"/>
      <path d="M 26.265625 0 
L 19.671875 0 
L 9.671875 46.6875 
L 3.765625 46.6875 
L 4.734375 51.90625 
L 18.171875 51.90625 
L 26.953125 10.984375 
Q 32.5625 15.875 36.328125 22.078125 
Q 44.140625 34.96875 46.921875 46.6875 
L 40.96875 46.6875 
L 42 51.90625 
L 55.421875 51.90625 
Q 50.09375 31.78125 43.359375 20.515625 
Q 37.5 10.75 26.265625 0 
z
" id="DejaVuSerif-Italic-118"/>
      <path d="M 59.71875 51.90625 
L 49.8125 1.125 
Q 47.5625 -10.5 40.328125 -16.109375 
Q 32.46875 -22.21875 21.578125 -22.21875 
Q 16.453125 -22.21875 11.953125 -21.28125 
Q 7.46875 -20.359375 3.515625 -18.5 
L 5.671875 -7.625 
L 10.359375 -7.625 
Q 10.203125 -12.703125 13.03125 -15.046875 
Q 15.875 -17.390625 21.96875 -17.390625 
Q 29.890625 -17.390625 34.421875 -12.890625 
Q 38.96875 -8.5 40.828125 1.125 
L 42.1875 8.109375 
Q 38.625 3.21875 34.078125 0.890625 
Q 29.546875 -1.421875 23.828125 -1.421875 
Q 15.234375 -1.421875 10.890625 4.390625 
Q 8.15625 8.0625 7.859375 13.140625 
Q 7.671875 16.109375 8.34375 19.625 
Q 11.71875 36.859375 23.6875 45.75 
Q 33.890625 53.265625 45.796875 53.328125 
Q 56.734375 53.375 59.71875 51.90625 
z
M 49.75 46.6875 
Q 49.703125 48.34375 44.4375 48.34375 
Q 34.90625 48.34375 27.734375 41.015625 
Q 20.5625 33.640625 17.921875 20.265625 
Q 17.1875 16.3125 17.390625 13.328125 
Q 17.578125 10.296875 18.796875 8.25 
Q 21.1875 4.203125 27.4375 4.203125 
Q 34.28125 4.203125 38.8125 9.109375 
Q 43.359375 14.015625 45.171875 23.390625 
L 46.140625 28.515625 
z
" id="DejaVuSerif-Italic-103"/>
     </defs>
     <g transform="translate(86.9285 108.021188)scale(0.16 -0.16)">
      <use transform="translate(0 0.09375)" xlink:href="#DejaVuSerif-Italic-82"/>
      <use transform="translate(75.292969 -15.478125)scale(0.7)" xlink:href="#DejaVuSerif-Italic-97"/>
      <use transform="translate(117.026367 -15.478125)scale(0.7)" xlink:href="#DejaVuSerif-Italic-118"/>
      <use transform="translate(156.572266 -15.478125)scale(0.7)" xlink:href="#DejaVuSerif-Italic-103"/>
     </g>
    </g>
   </g>
  </g>
  <g id="axes_2">
   <g id="patch_8">
    <path d="M 565.62125 297.077187 
L 1047.85875 297.077187 
L 1047.85875 19.677188 
L 565.62125 19.677188 
z
" style="fill:#ffffff;"/>
   </g>
   <g id="matplotlib.axis_3">
    <g id="xtick_5">
     <g id="line2d_21">
      <g>
       <use style="stroke:#000000;stroke-width:0.8;" x="565.62125" xlink:href="#mc156b99cd7" y="297.077187"/>
      </g>
     </g>
     <g id="text_15">
      <!-- 0˚ -->
      <g transform="translate(558.80375 313.195312)scale(0.12 -0.12)">
       <use xlink:href="#DejaVuSerif-48"/>
       <use x="63.623047" xlink:href="#DejaVuSerif-730"/>
      </g>
     </g>
    </g>
    <g id="xtick_6">
     <g id="line2d_22">
      <g>
       <use style="stroke:#000000;stroke-width:0.8;" x="726.367083" xlink:href="#mc156b99cd7" y="297.077187"/>
      </g>
     </g>
     <g id="text_16">
      <!-- 30˚ -->
      <g transform="translate(715.732083 313.195312)scale(0.12 -0.12)">
       <use xlink:href="#DejaVuSerif-51"/>
       <use x="63.623047" xlink:href="#DejaVuSerif-48"/>
       <use x="127.246094" xlink:href="#DejaVuSerif-730"/>
      </g>
     </g>
    </g>
    <g id="xtick_7">
     <g id="line2d_23">
      <g>
       <use style="stroke:#000000;stroke-width:0.8;" x="887.112917" xlink:href="#mc156b99cd7" y="297.077187"/>
      </g>
     </g>
     <g id="text_17">
      <!-- 60˚ -->
      <g transform="translate(876.477917 313.195312)scale(0.12 -0.12)">
       <use xlink:href="#DejaVuSerif-54"/>
       <use x="63.623047" xlink:href="#DejaVuSerif-48"/>
       <use x="127.246094" xlink:href="#DejaVuSerif-730"/>
      </g>
     </g>
    </g>
    <g id="xtick_8">
     <g id="line2d_24">
      <g>
       <use style="stroke:#000000;stroke-width:0.8;" x="1047.85875" xlink:href="#mc156b99cd7" y="297.077187"/>
      </g>
     </g>
     <g id="text_18">
      <!-- 90˚ -->
      <g transform="translate(1037.22375 313.195312)scale(0.12 -0.12)">
       <use xlink:href="#DejaVuSerif-57"/>
       <use x="63.623047" xlink:href="#DejaVuSerif-48"/>
       <use x="127.246094" xlink:href="#DejaVuSerif-730"/>
      </g>
     </g>
    </g>
    <g id="text_19">
     <!-- Angle of incidence -->
     <g transform="translate(731.55875 331.848437)scale(0.16 -0.16)">
      <use xlink:href="#DejaVuSerif-65"/>
      <use x="72.216797" xlink:href="#DejaVuSerif-110"/>
      <use x="136.621094" xlink:href="#DejaVuSerif-103"/>
      <use x="200.634766" xlink:href="#DejaVuSerif-108"/>
      <use x="232.617188" xlink:href="#DejaVuSerif-101"/>
      <use x="291.796875" xlink:href="#DejaVuSerif-32"/>
      <use x="323.583984" xlink:href="#DejaVuSerif-111"/>
      <use x="383.789062" xlink:href="#DejaVuSerif-102"/>
      <use x="420.800781" xlink:href="#DejaVuSerif-32"/>
      <use x="452.587891" xlink:href="#DejaVuSerif-105"/>
      <use x="484.570312" xlink:href="#DejaVuSerif-110"/>
      <use x="548.974609" xlink:href="#DejaVuSerif-99"/>
      <use x="604.980469" xlink:href="#DejaVuSerif-105"/>
      <use x="636.962891" xlink:href="#DejaVuSerif-100"/>
      <use x="700.976562" xlink:href="#DejaVuSerif-101"/>
      <use x="760.15625" xlink:href="#DejaVuSerif-110"/>
      <use x="824.560547" xlink:href="#DejaVuSerif-99"/>
      <use x="880.566406" xlink:href="#DejaVuSerif-101"/>
     </g>
    </g>
   </g>
   <g id="matplotlib.axis_4">
    <g id="ytick_4">
     <g id="line2d_25">
      <g>
       <use style="stroke:#000000;stroke-width:0.8;" x="565.62125" xlink:href="#mbc43d12330" y="284.468097"/>
      </g>
     </g>
     <g id="text_20">
      <!-- 0˚ -->
      <g transform="translate(544.98625 289.027159)scale(0.12 -0.12)">
       <use xlink:href="#DejaVuSerif-48"/>
       <use x="63.623047" xlink:href="#DejaVuSerif-730"/>
      </g>
     </g>
    </g>
    <g id="ytick_5">
     <g id="line2d_26">
      <g>
       <use style="stroke:#000000;stroke-width:0.8;" x="565.62125" xlink:href="#mbc43d12330" y="158.377188"/>
      </g>
     </g>
     <g id="text_21">
      <!-- 90˚ -->
      <g transform="translate(537.35125 162.93625)scale(0.12 -0.12)">
       <use xlink:href="#DejaVuSerif-57"/>
       <use x="63.623047" xlink:href="#DejaVuSerif-48"/>
       <use x="127.246094" xlink:href="#DejaVuSerif-730"/>
      </g>
     </g>
    </g>
    <g id="ytick_6">
     <g id="line2d_27">
      <g>
       <use style="stroke:#000000;stroke-width:0.8;" x="565.62125" xlink:href="#mbc43d12330" y="32.286278"/>
      </g>
     </g>
     <g id="text_22">
      <!-- 180˚ -->
      <defs>
       <path d="M 46.578125 19.921875 
Q 46.578125 27.734375 42.6875 32.046875 
Q 38.8125 36.375 31.78125 36.375 
Q 24.75 36.375 20.875 32.046875 
Q 17 27.734375 17 19.921875 
Q 17 12.0625 20.875 7.734375 
Q 24.75 3.421875 31.78125 3.421875 
Q 38.8125 3.421875 42.6875 7.734375 
Q 46.578125 12.0625 46.578125 19.921875 
z
M 44.578125 55.328125 
Q 44.578125 61.96875 41.203125 65.671875 
Q 37.84375 69.390625 31.78125 69.390625 
Q 25.78125 69.390625 22.390625 65.671875 
Q 19 61.96875 19 55.328125 
Q 19 48.640625 22.390625 44.921875 
Q 25.78125 41.21875 31.78125 41.21875 
Q 37.84375 41.21875 41.203125 44.921875 
Q 44.578125 48.640625 44.578125 55.328125 
z
M 39.3125 38.8125 
Q 47.609375 37.703125 52.25 32.6875 
Q 56.890625 27.6875 56.890625 19.921875 
Q 56.890625 9.671875 50.390625 4.125 
Q 43.890625 -1.421875 31.78125 -1.421875 
Q 19.734375 -1.421875 13.203125 4.125 
Q 6.6875 9.671875 6.6875 19.921875 
Q 6.6875 27.6875 11.328125 32.6875 
Q 15.96875 37.703125 24.3125 38.8125 
Q 16.9375 40.140625 13 44.40625 
Q 9.078125 48.6875 9.078125 55.328125 
Q 9.078125 64.109375 15.125 69.15625 
Q 21.1875 74.21875 31.78125 74.21875 
Q 42.390625 74.21875 48.4375 69.15625 
Q 54.5 64.109375 54.5 55.328125 
Q 54.5 48.6875 50.5625 44.40625 
Q 46.625 40.140625 39.3125 38.8125 
z
" id="DejaVuSerif-56"/>
      </defs>
      <g transform="translate(529.71625 36.845341)scale(0.12 -0.12)">
       <use xlink:href="#DejaVuSerif-49"/>
       <use x="63.623047" xlink:href="#DejaVuSerif-56"/>
       <use x="127.246094" xlink:href="#DejaVuSerif-48"/>
       <use x="190.869141" xlink:href="#DejaVuSerif-730"/>
      </g>
     </g>
    </g>
   </g>
   <g id="line2d_28">
    <path clip-path="url(#p11a14edc23)" d="M 565.62125 284.468097 
L 1047.853392 284.468097 
L 1047.853392 284.468097 
" style="fill:none;stroke:#000000;stroke-linecap:square;"/>
   </g>
   <g id="line2d_29">
    <path clip-path="url(#p11a14edc23)" d="M 565.62125 32.286278 
L 1047.853392 32.286278 
L 1047.853392 32.286278 
" style="fill:none;stroke:#000000;stroke-linecap:square;"/>
   </g>
   <g id="line2d_30">
    <path clip-path="url(#p11a14edc23)" d="M 746.139183 336.403437 
L 746.139183 -1 
" style="fill:none;stroke:#555555;stroke-dasharray:3,4.95;stroke-dashoffset:0;stroke-width:3;"/>
   </g>
   <g id="line2d_31">
    <path clip-path="url(#p11a14edc23)" d="M 789.649047 336.403437 
L 789.649047 -1 
" style="fill:none;stroke:#555555;stroke-dasharray:3,4.95;stroke-dashoffset:0;stroke-width:3;"/>
   </g>
   <g id="line2d_32">
    <path clip-path="url(#p11a14edc23)" d="M 842.48549 336.403437 
L 842.48549 -1 
" style="fill:none;stroke:#555555;stroke-dasharray:3,4.95;stroke-dashoffset:0;stroke-width:3;"/>
   </g>
   <g id="line2d_33">
    <path clip-path="url(#p11a14edc23)" d="M 565.62125 32.286278 
L 745.371106 32.286278 
L 746.337504 284.468097 
L 788.858975 284.468097 
L 789.825372 278.050393 
L 790.791769 268.333377 
L 791.758166 262.817275 
L 792.724563 258.640912 
L 793.69096 255.21548 
L 794.657357 252.292511 
L 796.590152 247.470407 
L 798.522946 243.589447 
L 800.45574 240.367063 
L 802.388534 237.639465 
L 804.321328 235.300971 
L 806.254122 233.27838 
L 808.186917 231.518371 
L 810.119711 229.980615 
L 813.018902 228.023796 
L 815.918093 226.416998 
L 818.817284 225.100436 
L 821.716476 224.028471 
L 824.615667 223.165381 
L 828.481255 222.290988 
L 832.346843 221.684381 
L 836.212432 221.304088 
L 840.07802 221.117267 
L 844.910005 221.115979 
L 849.741991 221.334646 
L 855.540373 221.841776 
L 861.338756 222.574167 
L 868.103535 223.666954 
L 874.868315 224.975121 
L 882.599492 226.690225 
L 891.297065 228.852887 
L 900.961036 231.493914 
L 911.591404 234.634872 
L 923.188169 238.289083 
L 936.717728 242.79171 
L 952.180081 248.18413 
L 969.575229 254.488958 
L 990.835964 262.441832 
L 1017.895082 272.817224 
L 1047.853392 284.466008 
L 1047.853392 284.466008 
" style="fill:none;stroke:#000000;stroke-dasharray:14.8,6.4;stroke-dashoffset:0;stroke-width:4;"/>
   </g>
   <g id="line2d_34">
    <path clip-path="url(#p11a14edc23)" d="M 565.62125 284.468097 
L 788.858975 284.468097 
L 789.825372 279.321073 
L 790.791769 271.350543 
L 791.758166 266.627247 
L 792.724563 262.900312 
L 794.657357 256.884398 
L 796.590152 251.923572 
L 798.522946 247.589529 
L 800.45574 243.681933 
L 803.354931 238.3854 
L 806.254122 233.580152 
L 809.153314 229.137956 
L 813.018902 223.64294 
L 816.88449 218.525269 
L 821.716476 212.536334 
L 826.548461 206.90288 
L 832.346843 200.51106 
L 838.145226 194.439929 
L 844.910005 187.681251 
L 852.641182 180.30083 
L 860.372359 173.216209 
L 869.069932 165.532485 
L 878.733903 157.284613 
L 889.364271 148.497634 
L 900.961036 139.188077 
L 914.490595 128.619373 
L 929.952948 116.846174 
L 947.348096 103.903144 
L 966.676037 89.805159 
L 989.869567 73.170407 
L 1019.827877 51.974715 
L 1047.853392 32.290038 
L 1047.853392 32.290038 
" style="fill:none;stroke:#0000ff;stroke-linecap:square;stroke-width:2;"/>
   </g>
   <g id="line2d_35">
    <path clip-path="url(#p11a14edc23)" d="M 565.62125 32.286278 
L 745.371106 32.286278 
L 746.337504 284.468097 
L 788.858975 284.468097 
L 789.825372 272.903369 
L 790.791769 255.215824 
L 791.758166 244.976425 
L 792.724563 237.073127 
L 793.69096 230.46289 
L 795.623755 219.577363 
L 797.556549 210.659422 
L 799.489343 203.030675 
L 801.422137 196.331763 
L 803.354931 190.344034 
L 805.287725 184.922273 
L 808.186917 177.634322 
L 811.086108 171.15365 
L 813.985299 165.316427 
L 816.88449 160.005565 
L 819.783681 155.13399 
L 822.682873 150.634926 
L 826.548461 145.126485 
L 830.414049 140.091316 
L 834.279638 135.455244 
L 838.145226 131.160108 
L 842.010814 127.159417 
L 846.8428 122.515715 
L 851.674785 118.213944 
L 856.50677 114.206473 
L 861.338756 110.454625 
L 867.137138 106.245392 
L 872.935521 102.313559 
L 879.7003 98.02833 
L 886.46508 94.023292 
L 893.229859 90.259805 
L 900.961036 86.213895 
L 909.65861 81.941446 
L 918.356183 77.921148 
L 928.020154 73.704985 
L 938.650522 69.324366 
L 950.247287 64.801309 
L 962.810449 60.148396 
L 977.306405 55.035191 
L 993.735155 49.494742 
L 1013.063097 43.222991 
L 1040.122215 34.699641 
L 1047.853392 32.287949 
L 1047.853392 32.287949 
" style="fill:none;stroke:#ff0000;stroke-linecap:square;stroke-width:2;"/>
   </g>
   <g id="patch_9">
    <path d="M 565.62125 297.077188 
L 565.62125 19.677188 
" style="fill:none;stroke:#000000;stroke-linecap:square;stroke-linejoin:miter;stroke-width:0.8;"/>
   </g>
   <g id="patch_10">
    <path d="M 1047.85875 297.077188 
L 1047.85875 19.677188 
" style="fill:none;stroke:#000000;stroke-linecap:square;stroke-linejoin:miter;stroke-width:0.8;"/>
   </g>
   <g id="patch_11">
    <path d="M 565.62125 297.077187 
L 1047.85875 297.077187 
" style="fill:none;stroke:#000000;stroke-linecap:square;stroke-linejoin:miter;stroke-width:0.8;"/>
   </g>
   <g id="patch_12">
    <path d="M 565.62125 19.677188 
L 1047.85875 19.677188 
" style="fill:none;stroke:#000000;stroke-linecap:square;stroke-linejoin:miter;stroke-width:0.8;"/>
   </g>
   <g id="text_23">
    <!-- $\arctan(2/3)$ -->
    <g transform="translate(737.661457 137.856733)rotate(-90)scale(0.15 -0.15)">
     <use transform="translate(0 0.015625)" xlink:href="#DejaVuSerif-97"/>
     <use transform="translate(59.619141 0.015625)" xlink:href="#DejaVuSerif-114"/>
     <use transform="translate(107.421875 0.015625)" xlink:href="#DejaVuSerif-99"/>
     <use transform="translate(163.427734 0.015625)" xlink:href="#DejaVuSerif-116"/>
     <use transform="translate(203.613281 0.015625)" xlink:href="#DejaVuSerif-97"/>
     <use transform="translate(263.232422 0.015625)" xlink:href="#DejaVuSerif-110"/>
     <use transform="translate(327.636719 0.015625)" xlink:href="#DejaVuSerif-40"/>
     <use transform="translate(366.650391 0.015625)" xlink:href="#DejaVuSerif-50"/>
     <use transform="translate(430.273438 0.015625)" xlink:href="#DejaVuSerif-47"/>
     <use transform="translate(463.964844 0.015625)" xlink:href="#DejaVuSerif-51"/>
     <use transform="translate(527.587891 0.015625)" xlink:href="#DejaVuSerif-41"/>
    </g>
   </g>
   <g id="text_24">
    <!-- $\arcsin(2/3)$ -->
    <g transform="translate(781.171321 136.656733)rotate(-90)scale(0.15 -0.15)">
     <use transform="translate(0 0.015625)" xlink:href="#DejaVuSerif-97"/>
     <use transform="translate(59.619141 0.015625)" xlink:href="#DejaVuSerif-114"/>
     <use transform="translate(107.421875 0.015625)" xlink:href="#DejaVuSerif-99"/>
     <use transform="translate(163.427734 0.015625)" xlink:href="#DejaVuSerif-115"/>
     <use transform="translate(214.746094 0.015625)" xlink:href="#DejaVuSerif-105"/>
     <use transform="translate(246.728516 0.015625)" xlink:href="#DejaVuSerif-110"/>
     <use transform="translate(311.132812 0.015625)" xlink:href="#DejaVuSerif-40"/>
     <use transform="translate(350.146484 0.015625)" xlink:href="#DejaVuSerif-50"/>
     <use transform="translate(413.769531 0.015625)" xlink:href="#DejaVuSerif-47"/>
     <use transform="translate(447.460938 0.015625)" xlink:href="#DejaVuSerif-51"/>
     <use transform="translate(511.083984 0.015625)" xlink:href="#DejaVuSerif-41"/>
    </g>
   </g>
   <g id="text_25">
    <!-- max. -->
    <defs>
     <path d="M 51.8125 41.796875 
Q 54.390625 47.515625 58.421875 50.421875 
Q 62.453125 53.328125 67.828125 53.328125 
Q 75.984375 53.328125 79.984375 48.265625 
Q 83.984375 43.21875 83.984375 33.015625 
L 83.984375 5.171875 
L 92.09375 5.171875 
L 92.09375 0 
L 67.1875 0 
L 67.1875 5.171875 
L 75 5.171875 
L 75 31.984375 
Q 75 39.9375 72.65625 43.3125 
Q 70.3125 46.6875 64.890625 46.6875 
Q 58.890625 46.6875 55.734375 42.140625 
Q 52.59375 37.59375 52.59375 28.90625 
L 52.59375 5.171875 
L 60.40625 5.171875 
L 60.40625 0 
L 35.796875 0 
L 35.796875 5.171875 
L 43.609375 5.171875 
L 43.609375 32.328125 
Q 43.609375 40.09375 41.265625 43.390625 
Q 38.921875 46.6875 33.5 46.6875 
Q 27.484375 46.6875 24.328125 42.140625 
Q 21.1875 37.59375 21.1875 28.90625 
L 21.1875 5.171875 
L 29 5.171875 
L 29 0 
L 4.109375 0 
L 4.109375 5.171875 
L 12.203125 5.171875 
L 12.203125 46.78125 
L 3.609375 46.78125 
L 3.609375 51.90625 
L 21.1875 51.90625 
L 21.1875 42.671875 
Q 23.6875 47.859375 27.53125 50.59375 
Q 31.390625 53.328125 36.28125 53.328125 
Q 42.328125 53.328125 46.375 50.3125 
Q 50.4375 47.3125 51.8125 41.796875 
z
" id="DejaVuSerif-109"/>
     <path d="M 29.109375 31.6875 
L 39.984375 46.6875 
L 33.015625 46.6875 
L 33.015625 51.90625 
L 52.984375 51.90625 
L 52.984375 46.6875 
L 46.09375 46.6875 
L 32.171875 27.484375 
L 48.390625 5.171875 
L 55.171875 5.171875 
L 55.171875 0 
L 31.203125 0 
L 31.203125 5.171875 
L 37.796875 5.171875 
L 26.515625 20.703125 
L 15.1875 5.171875 
L 21.921875 5.171875 
L 21.921875 0 
L 2.203125 0 
L 2.203125 5.171875 
L 9.078125 5.171875 
L 23.390625 24.90625 
L 7.625 46.6875 
L 1.21875 46.6875 
L 1.21875 51.90625 
L 24.421875 51.90625 
L 24.421875 46.6875 
L 18.21875 46.6875 
z
" id="DejaVuSerif-120"/>
    </defs>
    <g transform="translate(834.007764 113.528608)rotate(-90)scale(0.15 -0.15)">
     <use xlink:href="#DejaVuSerif-109"/>
     <use x="94.824219" xlink:href="#DejaVuSerif-97"/>
     <use x="154.443359" xlink:href="#DejaVuSerif-120"/>
     <use x="210.839844" xlink:href="#DejaVuSerif-46"/>
    </g>
   </g>
   <g id="text_26">
    <!-- Phase delay -->
    <defs>
     <path d="M 4.6875 0 
L 4.6875 5.90625 
L 14.015625 5.90625 
L 14.015625 67 
L 4.6875 67 
L 4.6875 72.90625 
L 46.1875 72.90625 
Q 58.34375 72.90625 65.515625 67.109375 
Q 72.703125 61.328125 72.703125 51.609375 
Q 72.703125 41.84375 65.5 36 
Q 58.296875 30.171875 46.1875 30.171875 
L 32.8125 30.171875 
L 32.8125 5.90625 
L 44.578125 5.90625 
L 44.578125 0 
z
M 32.8125 36.078125 
L 38.28125 36.078125 
Q 44.625 36.078125 48.40625 40.296875 
Q 52.203125 44.53125 52.203125 51.609375 
Q 52.203125 58.640625 48.4375 62.8125 
Q 44.671875 67 38.28125 67 
L 32.8125 67 
z
" id="DejaVuSerif-Bold-80"/>
     <path d="M 3.421875 0 
L 3.421875 5.90625 
L 10.796875 5.90625 
L 10.796875 70.125 
L 3.078125 70.125 
L 3.078125 75.984375 
L 28.078125 75.984375 
L 28.078125 44.578125 
Q 31.203125 49.21875 35.203125 51.265625 
Q 39.203125 53.328125 45.3125 53.328125 
Q 54.046875 53.328125 58.515625 48.171875 
Q 62.984375 43.015625 62.984375 33.015625 
L 62.984375 5.90625 
L 70.40625 5.90625 
L 70.40625 0 
L 39.40625 0 
L 39.40625 5.90625 
L 45.703125 5.90625 
L 45.703125 33.5 
Q 45.703125 40.09375 44.015625 42.65625 
Q 42.328125 45.21875 38.1875 45.21875 
Q 32.953125 45.21875 30.515625 41.375 
Q 28.078125 37.546875 28.078125 29.203125 
L 28.078125 5.90625 
L 34.421875 5.90625 
L 34.421875 0 
z
" id="DejaVuSerif-Bold-104"/>
     <path d="M 4.6875 1.515625 
L 4.6875 16.015625 
L 10.203125 16.015625 
Q 10.890625 10.203125 14.546875 7.15625 
Q 18.21875 4.109375 24.515625 4.109375 
Q 29.78125 4.109375 32.59375 5.9375 
Q 35.40625 7.765625 35.40625 11.1875 
Q 35.40625 14.3125 33.625 16.015625 
Q 31.84375 17.71875 26.703125 19 
L 19.578125 20.796875 
Q 11.53125 22.796875 7.90625 26.53125 
Q 4.296875 30.28125 4.296875 36.625 
Q 4.296875 45.0625 10.15625 49.1875 
Q 16.015625 53.328125 28.21875 53.328125 
Q 32.8125 53.328125 38.015625 52.5625 
Q 43.21875 51.8125 49.515625 50.203125 
L 49.515625 37.109375 
L 44 37.109375 
Q 43.5625 42.4375 40.203125 45.109375 
Q 36.859375 47.796875 30.609375 47.796875 
Q 25.34375 47.796875 22.625 46.109375 
Q 19.921875 44.4375 19.921875 41.21875 
Q 19.921875 38.578125 21.484375 37.0625 
Q 23.046875 35.546875 27.09375 34.515625 
L 34.1875 32.71875 
Q 44.390625 30.125 48.296875 26.3125 
Q 52.203125 22.515625 52.203125 15.71875 
Q 52.203125 6.9375 45.921875 2.75 
Q 39.65625 -1.421875 26.421875 -1.421875 
Q 21.578125 -1.421875 16.15625 -0.6875 
Q 10.75 0.046875 4.6875 1.515625 
z
" id="DejaVuSerif-Bold-115"/>
     <path id="DejaVuSerif-Bold-32"/>
     <path d="M 42.921875 23.390625 
L 42.921875 28.515625 
Q 42.921875 37.59375 40.578125 41.640625 
Q 38.234375 45.703125 33.109375 45.703125 
Q 27.734375 45.703125 25.5625 41.421875 
Q 23.390625 37.15625 23.390625 25.984375 
Q 23.390625 14.796875 25.578125 10.5 
Q 27.78125 6.203125 33.109375 6.203125 
Q 38.234375 6.203125 40.578125 10.25 
Q 42.921875 14.3125 42.921875 23.390625 
z
M 60.203125 5.90625 
L 67.578125 5.90625 
L 67.578125 0 
L 42.921875 0 
L 42.921875 6.59375 
Q 40.71875 2.546875 36.984375 0.5625 
Q 33.25 -1.421875 27.78125 -1.421875 
Q 16.75 -1.421875 10.421875 5.90625 
Q 4.109375 13.234375 4.109375 25.984375 
Q 4.109375 38.765625 10.421875 46.046875 
Q 16.75 53.328125 27.78125 53.328125 
Q 33.25 53.328125 36.984375 51.34375 
Q 40.71875 49.359375 42.921875 45.3125 
L 42.921875 70.125 
L 35.5 70.125 
L 35.5 75.984375 
L 60.203125 75.984375 
z
" id="DejaVuSerif-Bold-100"/>
     <path d="M 31.203125 -11.71875 
Q 28.859375 -17.4375 25.53125 -19.828125 
Q 22.21875 -22.21875 16.609375 -22.21875 
Q 14.203125 -22.21875 11.265625 -21.671875 
Q 8.34375 -21.140625 4.890625 -20.125 
L 4.890625 -9.28125 
L 10.40625 -9.328125 
Q 10.546875 -13.09375 12.171875 -14.890625 
Q 13.8125 -16.703125 17.09375 -16.703125 
Q 20.265625 -16.703125 22.21875 -14.96875 
Q 24.171875 -13.234375 26.125 -8.40625 
L 26.90625 -6.59375 
L 4.296875 46 
L -1.3125 46 
L -1.3125 51.90625 
L 28.609375 51.90625 
L 28.609375 46 
L 22.40625 46 
L 35.59375 15.28125 
L 47.90625 46 
L 41.015625 46 
L 41.015625 51.90625 
L 60.5 51.90625 
L 60.5 46 
L 54.203125 46 
z
" id="DejaVuSerif-Bold-121"/>
    </defs>
    <g transform="translate(747.17125 13.677188)scale(0.18 -0.18)">
     <use xlink:href="#DejaVuSerif-Bold-80"/>
     <use x="75.195312" xlink:href="#DejaVuSerif-Bold-104"/>
     <use x="147.900391" xlink:href="#DejaVuSerif-Bold-97"/>
     <use x="212.695312" xlink:href="#DejaVuSerif-Bold-115"/>
     <use x="268.994141" xlink:href="#DejaVuSerif-Bold-101"/>
     <use x="332.617188" xlink:href="#DejaVuSerif-Bold-32"/>
     <use x="367.431641" xlink:href="#DejaVuSerif-Bold-100"/>
     <use x="437.353516" xlink:href="#DejaVuSerif-Bold-101"/>
     <use x="500.976562" xlink:href="#DejaVuSerif-Bold-108"/>
     <use x="538.964844" xlink:href="#DejaVuSerif-Bold-97"/>
     <use x="603.759766" xlink:href="#DejaVuSerif-Bold-121"/>
    </g>
   </g>
   <g id="legend_2">
    <g id="patch_13">
     <path d="M 578.466 119.541188 
L 689.346 119.541188 
Q 692.546 119.541188 692.546 116.341188 
L 692.546 46.456187 
Q 692.546 43.256188 689.346 43.256188 
L 578.466 43.256188 
Q 575.266 43.256188 575.266 46.456187 
L 575.266 116.341188 
Q 575.266 119.541188 578.466 119.541188 
z
" style="fill:#ffffff;opacity:0.8;stroke:#cccccc;stroke-linejoin:miter;"/>
    </g>
    <g id="line2d_36">
     <path d="M 581.666 56.376188 
L 613.666 56.376188 
" style="fill:none;stroke:#000000;stroke-dasharray:14.8,6.4;stroke-dashoffset:0;stroke-width:4;"/>
    </g>
    <g id="line2d_37"/>
    <g id="text_27">
     <!-- $\delta_\parallel - \delta_\bot$ -->
     <defs>
      <path d="M 20.40625 50.59375 
Q 17.328125 51.859375 16.265625 54.203125 
Q 14.9375 56.9375 16.265625 63.625 
Q 17.484375 69.921875 22.90625 73.25 
Q 28.328125 76.515625 37.890625 76.515625 
Q 40.53125 76.515625 45.453125 75.734375 
Q 50.390625 74.90625 55.5625 73.390625 
L 53.65625 63.765625 
L 48.1875 62.546875 
Q 48.4375 66.890625 45.359375 69.140625 
Q 42.28125 71.34375 37.6875 71.34375 
Q 33.109375 71.34375 29.25 68.953125 
Q 25.203125 66.40625 24.703125 63.1875 
Q 24.03125 58.546875 25.296875 56.984375 
Q 28.375 53.328125 33.15625 53.328125 
Q 44.53125 53.328125 49.921875 45.84375 
Q 55.328125 38.375 52.921875 25.96875 
Q 50.53125 13.578125 42.203125 6.078125 
Q 33.890625 -1.421875 22.515625 -1.421875 
Q 11.1875 -1.421875 5.765625 6.078125 
Q 0.34375 13.578125 2.734375 25.96875 
Q 5.125 38.375 13.484375 45.84375 
Q 17.140625 49.125 20.40625 50.59375 
z
M 23.4375 3.421875 
Q 30.671875 3.421875 35.46875 9.125 
Q 40.28125 14.84375 42.421875 25.96875 
Q 44.578125 37.109375 42.015625 42.796875 
Q 39.453125 48.484375 32.21875 48.484375 
Q 25 48.484375 20.1875 42.796875 
Q 15.375 37.109375 13.21875 25.96875 
Q 11.078125 14.84375 13.671875 9.125 
Q 16.265625 3.421875 23.4375 3.421875 
z
" id="DejaVuSerif-Italic-948"/>
      <path d="M 10.59375 35.296875 
L 73.1875 35.296875 
L 73.1875 27.390625 
L 10.59375 27.390625 
z
" id="DejaVuSerif-8722"/>
     </defs>
     <g transform="translate(626.466 61.976188)scale(0.16 -0.16)">
      <use transform="translate(0 0.484375)" xlink:href="#DejaVuSerif-Italic-948"/>
      <use transform="translate(73.480469 -15.0875)scale(0.7)" xlink:href="#DejaVuSerif-8741"/>
      <use transform="translate(140.65 0.484375)" xlink:href="#DejaVuSerif-8722"/>
      <use transform="translate(243.403906 0.484375)" xlink:href="#DejaVuSerif-Italic-948"/>
      <use transform="translate(303.608984 -15.0875)scale(0.7)" xlink:href="#DejaVuSerif-8869"/>
     </g>
    </g>
    <g id="line2d_38">
     <path d="M 581.666 80.213688 
L 613.666 80.213688 
" style="fill:none;stroke:#0000ff;stroke-linecap:square;stroke-width:2;"/>
    </g>
    <g id="line2d_39"/>
    <g id="text_28">
     <!-- $\delta_\bot$ -->
     <g transform="translate(626.466 85.813688)scale(0.16 -0.16)">
      <use transform="translate(0 0.484375)" xlink:href="#DejaVuSerif-Italic-948"/>
      <use transform="translate(60.205078 -15.0875)scale(0.7)" xlink:href="#DejaVuSerif-8869"/>
     </g>
    </g>
    <g id="line2d_40">
     <path d="M 581.666 103.861188 
L 613.666 103.861188 
" style="fill:none;stroke:#ff0000;stroke-linecap:square;stroke-width:2;"/>
    </g>
    <g id="line2d_41"/>
    <g id="text_29">
     <!-- $\delta_\parallel$ -->
     <g transform="translate(626.466 109.461188)scale(0.16 -0.16)">
      <use transform="translate(0 0.484375)" xlink:href="#DejaVuSerif-Italic-948"/>
      <use transform="translate(73.480469 -15.0875)scale(0.7)" xlink:href="#DejaVuSerif-8741"/>
     </g>
    </g>
   </g>
  </g>
 </g>
 <defs>
  <clipPath id="pc63aa8b241">
   <rect height="277.4" width="482.2375" x="26.08375" y="19.677188"/>
  </clipPath>
  <clipPath id="p11a14edc23">
   <rect height="277.4" width="482.2375" x="565.62125" y="19.677188"/>
  </clipPath>
 </defs>
</svg>
