<?xml version="1.0" encoding="utf-8"?>
<!-- Generator: Adobe Illustrator 25.2.0, SVG Export Plug-In . SVG Version: 6.00 Build 0)  -->
<svg version="1.1" id="Layer_1" xmlns="http://www.w3.org/2000/svg" xmlns:xlink="http://www.w3.org/1999/xlink" x="0px" y="0px"
	 viewBox="0 0 1595 459" style="enable-background:new 0 0 1595 459;" xml:space="preserve">
<style type="text/css">
	.st0{fill:#999999;stroke:#000000;stroke-width:3;stroke-miterlimit:10;}
	.st1{fill:#DA2027;stroke:#000000;stroke-miterlimit:10;}
	.st2{fill:#54B948;stroke:#000000;stroke-miterlimit:10;}
	.st3{fill:none;stroke:#000000;stroke-width:3;stroke-linecap:round;stroke-miterlimit:10;stroke-dasharray:0,8;}
	.st4{fill:none;stroke:#4C4C4D;stroke-width:4;stroke-miterlimit:10;}
	.st5{fill:#4C4C4D;}
	.st6{clip-path:url(#SVGID_2_);}
	.st7{clip-path:url(#SVGID_4_);}
	.st8{clip-path:url(#SVGID_6_);}
	.st9{clip-path:url(#SVGID_8_);}
	.st10{clip-path:url(#SVGID_10_);}
	.st11{clip-path:url(#SVGID_12_);}
	.st12{fill:#DA1F26;stroke:#000000;stroke-miterlimit:10;}
	.st13{fill:#FFFFFF;stroke:#000000;stroke-width:2;stroke-miterlimit:10;}
	.st14{font-family:'ArialMT';}
	.st15{font-size:30px;}
	.st16{clip-path:url(#SVGID_14_);}
	.st17{clip-path:url(#SVGID_16_);}
	.st18{clip-path:url(#SVGID_18_);}
	.st19{clip-path:url(#SVGID_20_);}
	.st20{clip-path:url(#SVGID_22_);}
	.st21{clip-path:url(#SVGID_24_);}
	.st22{clip-path:url(#SVGID_26_);}
	.st23{clip-path:url(#SVGID_28_);}
</style>
<g id="Layer_2_1_">
	<rect x="828.3" y="48" class="st0" width="316.3" height="316.4"/>
	<rect x="1227.4" y="48" class="st0" width="316.3" height="316.4"/>
	<rect x="1394.5" y="106.9" class="st1" width="27.4" height="3"/>
	<path class="st1" d="M1440.6,115.7V97.1c0-3.2,0-6.5,0.2-7.2c0-0.3-0.1-0.3-0.3-0.3c-3.4,2-6.9,3.8-10.5,5.3c0,0.6,0.3,1.1,0.8,1.4
		c2.5-1,3.6-1.3,4.7-1.3s1.1,1.3,1.1,3.1v17.5c0,4.4-1.4,4.7-5.2,4.9c-0.3,0.5-0.3,1.2,0,1.8c2.6-0.1,4.6-0.1,7.4-0.1
		c2.6,0,3.8,0.1,6.5,0.1c0.3-0.5,0.3-1.2,0-1.8C1441.6,120.4,1440.7,120.1,1440.6,115.7"/>
	<rect x="853.8" y="81.1" class="st1" width="27.4" height="3"/>
	<path class="st1" d="M899.9,89.9V71.3c0-3.2,0-6.5,0.2-7.2c0-0.3-0.1-0.3-0.3-0.3c-3.4,2-6.9,3.8-10.5,5.4c0.1,0.6,0.3,1.1,0.8,1.4
		c2.5-1,3.6-1.3,4.7-1.3s1.1,1.3,1.1,3.1v17.4c0,4.4-1.5,4.7-5.2,4.9c-0.3,0.5-0.3,1.2,0,1.8c2.6,0,4.5-0.1,7.4-0.1
		c2.6,0,3.8,0.1,6.5,0.1c0.3-0.5,0.3-1.2,0-1.8C900.8,94.6,899.9,94.3,899.9,89.9"/>
	<polyline class="st2" points="1099.8,85.7 1099.8,82.7 1087.6,82.7 1087.6,70.6 1084.6,70.6 1084.6,82.7 1072.4,82.7 1072.4,85.7 
		1084.6,85.7 1084.6,97.9 1087.6,97.9 1087.6,85.7 1099.8,85.7 	"/>
	<path class="st2" d="M1118.5,91.4V72.8c0-3.2,0-6.5,0.2-7.2c0-0.3-0.1-0.3-0.3-0.3c-3.4,2-6.9,3.8-10.5,5.3
		c0.1,0.6,0.3,1.1,0.8,1.4c2.5-1,3.7-1.3,4.7-1.3s1.1,1.3,1.1,3.1v17.5c0,4.4-1.4,4.7-5.2,4.9c-0.3,0.5-0.3,1.2,0,1.8
		c2.6,0,4.6-0.1,7.4-0.1c2.6,0,3.9,0.1,6.5,0.1c0.3-0.5,0.3-1.2,0-1.8C1119.4,96.1,1118.5,95.8,1118.5,91.4"/>
	<rect x="429.3" y="48" class="st0" width="316.4" height="316.4"/>
	<g>
		<g>
			<path class="st3" d="M1050,161.5c4,5.1,7.2,10.7,9.7,16.8c3.7,8.9,5.6,18.4,5.6,28"/>
			<g>
				<polygon points="1046.3,167.2 1043.8,154.5 1056,158.7 				"/>
			</g>
		</g>
	</g>
	<line class="st4" x1="587.5" y1="376.5" x2="587.5" y2="23.9"/>
	<polygon class="st5" points="594.9,29.6 587.5,26.4 580.1,29.6 587.5,12 	"/>
	<line class="st4" x1="416.3" y1="206.5" x2="770.1" y2="206.5"/>
	<polygon class="st5" points="764.5,213.9 767.6,206.5 764.5,199.1 782,206.5 	"/>
	<line class="st4" x1="986.5" y1="376.5" x2="986.5" y2="23.9"/>
	<polygon class="st5" points="993.9,29.6 986.5,26.4 979.1,29.6 986.5,12 	"/>
	<rect x="515.5" y="86.3" class="st1" width="27.4" height="3"/>
	<path class="st1" d="M561.6,95V76.4c0-3.2,0-6.5,0.2-7.2c0-0.3-0.1-0.3-0.3-0.3c-3.4,2-6.9,3.8-10.5,5.4c0.1,0.6,0.3,1.1,0.8,1.4
		c2.5-1,3.6-1.3,4.7-1.3s1.1,1.3,1.1,3.1V95c0,4.4-1.5,4.7-5.2,4.9c-0.3,0.5-0.3,1.2,0,1.8c2.6,0,4.6-0.1,7.5-0.1
		c2.6,0,3.8,0.1,6.5,0.1c0.3-0.5,0.3-1.2,0-1.8C562.6,99.7,561.7,99.4,561.6,95"/>
	<g>
		<g>
			<g>
				<defs>
					<rect id="SVGID_1_" x="1552.6" y="170.4" width="25.3" height="23.8"/>
				</defs>
				<clipPath id="SVGID_2_">
					<use xlink:href="#SVGID_1_"  style="overflow:visible;"/>
				</clipPath>
				<g class="st6">
					<path d="M1561.8,189.2l2-2.9c1.1-1.5,1.1-1.5,1.9-0.1l2,3.1c1,1.4,0.6,1.7-1.1,1.9c-0.2,0-0.4,0.2-0.4,0.4v1.1l0.2,0.1
						c0,0,3.6-0.1,5.9-0.1c1.9,0,4.8,0.1,4.8,0.1l0.1-0.1v-1.2c0-0.2-0.2-0.3-0.5-0.3c-1.8-0.3-2.9-0.9-4.5-3.2l-4.2-6.3
						c-0.3-0.4-0.2-0.5-0.1-0.7l4.3-5.2c1-1.4,2.6-2.2,4.3-2.4c0.3-0.1,0.5-0.2,0.5-0.4v-1.1l-0.1-0.1c0,0-2,0.1-3.3,0.1
						c-2.2,0-5.6-0.1-5.6-0.1l-0.1,0.1v1.2c0,0.2,0.1,0.3,0.3,0.3l0,0c1.7,0.1,1.8,0.7,0.8,2.1l-2.4,3.5c-0.3,0.3-0.3,0.4-0.7-0.1
						l-2.3-3.4c-1.1-1.6-0.8-1.8,1.1-2c0.2,0,0.4-0.1,0.4-0.3c0,0,0,0,0-0.1v-1.2l-0.1-0.1c0,0-3.7,0.1-6,0.1
						c-1.9,0-4.8-0.1-4.8-0.1l-0.1,0.1v1.2c0,0.2,0.2,0.3,0.5,0.3c1.7,0,3,1.3,4.4,3.2l4.3,6.1c0.2,0.2,0.2,0.3-0.2,0.7l-4.4,5.5
						c-1.1,1.3-2.6,2.1-4.3,2.3c-0.3,0.1-0.5,0.2-0.5,0.5v1.1l0.1,0.1c0,0,2.3-0.1,3.8-0.1c2.1,0,5.2,0.1,5.2,0.1l0.2-0.1v-1.1
						c0-0.2-0.1-0.3-0.4-0.4C1561.7,191,1560.7,190.8,1561.8,189.2"/>
				</g>
			</g>
		</g>
	</g>
	<g>
		<g>
			<g>
				<defs>
					<rect id="SVGID_3_" x="1395.5" y="7.1" width="25.3" height="34.3"/>
				</defs>
				<clipPath id="SVGID_4_">
					<use xlink:href="#SVGID_3_"  style="overflow:visible;"/>
				</clipPath>
				<g class="st7">
					<path d="M1416.4,13c0.8-2,2.2-2.9,3.6-2.9c0.3,0,0.5-0.2,0.5-0.4V8.6l-0.1-0.1c0,0-1.9,0.1-3.1,0.1c-2.1,0-5.4-0.1-5.4-0.1
						l-0.2,0.1v1.2c0,0.2,0.2,0.3,0.4,0.3c1.5,0,2.5,0.5,1.9,2.3c-0.9,2.8-2.8,8-4.4,12l-4.5-12.1c-0.5-1.5-0.1-2.2,1.8-2.2
						c0.2,0,0.4-0.1,0.4-0.3l0,0V8.6l-0.2-0.1c0,0-3.6,0.1-5.8,0.1c-2,0-5.1-0.1-5.1-0.1l-0.2,0.1v1.2c0,0.2,0.2,0.3,0.5,0.3
						c1.9,0,2.5,0.8,3.5,3.2l6.8,16.7l-0.9,2.3c-1.4,3.7-2.6,5.1-3,5.1s-0.6-0.4-0.9-0.8c-0.5-0.6-1.2-1-2-1.2
						c-1.4-0.1-2.7,0.9-2.8,2.4v0.1c0,2,2.6,2.6,3.7,2.6c3.8,0,5.9-3.7,7.5-7.7L1416.4,13"/>
				</g>
			</g>
		</g>
	</g>
	<line class="st4" x1="814.6" y1="206.5" x2="1169.1" y2="206.5"/>
	<polygon class="st5" points="1163.5,213.9 1166.6,206.5 1163.5,199.1 1181,206.5 	"/>
	<line class="st4" x1="1385.6" y1="376.5" x2="1385.6" y2="23.9"/>
	<polygon class="st5" points="1392.9,29.6 1385.6,26.4 1378.1,29.6 1385.6,12 	"/>
	<line class="st4" x1="1211.1" y1="206.5" x2="1568.1" y2="206.5"/>
	<polygon class="st5" points="1562.5,213.9 1565.7,206.5 1562.5,199.1 1580.1,206.5 	"/>
	<g>
		<g>
			<g>
				<defs>
					<rect id="SVGID_5_" x="756.7" y="170.4" width="25.3" height="23.8"/>
				</defs>
				<clipPath id="SVGID_6_">
					<use xlink:href="#SVGID_5_"  style="overflow:visible;"/>
				</clipPath>
				<g class="st8">
					<path d="M765.9,189.2l2-2.9c1.1-1.5,1.1-1.5,1.9-0.1l2,3.1c1,1.4,0.6,1.7-1.1,1.9c-0.2,0-0.4,0.2-0.4,0.4v1.1l0.2,0.1
						c0,0,3.6-0.1,5.9-0.1c1.9,0,4.9,0.1,4.9,0.1l0.1-0.1v-1.2c0-0.2-0.2-0.3-0.5-0.3c-1.8-0.3-2.9-0.9-4.5-3.2l-4.2-6.3
						c-0.3-0.4-0.2-0.5-0.1-0.7l4.3-5.2c1.1-1.4,2.6-2.2,4.3-2.4c0.3-0.1,0.5-0.2,0.5-0.4v-1.1l-0.1-0.1c0,0-2,0.1-3.3,0.1
						c-2.2,0-5.6-0.1-5.6-0.1l-0.1,0.1v1.2c0,0.2,0.1,0.3,0.3,0.3l0,0c1.7,0.1,1.8,0.7,0.8,2.1l-2.4,3.5c-0.3,0.3-0.3,0.4-0.7-0.1
						l-2.3-3.4c-1.1-1.6-0.8-1.8,1.1-2c0.2,0,0.4-0.1,0.4-0.3c0,0,0,0,0-0.1v-1.2l-0.1-0.1c0,0-3.7,0.1-6,0.1
						c-1.9,0-4.8-0.1-4.8-0.1l-0.2,0.1v1.2c0,0.2,0.2,0.3,0.5,0.3c1.7,0,3,1.3,4.4,3.2l4.3,6.1c0.2,0.2,0.2,0.3-0.1,0.7l-4.4,5.5
						c-1.1,1.3-2.6,2.1-4.3,2.3c-0.3,0.1-0.5,0.2-0.5,0.5v1.1l0.1,0.1c0,0,2.3-0.1,3.8-0.1c2.1,0,5.2,0.1,5.2,0.1l0.2-0.1v-1.1
						c0-0.2-0.1-0.3-0.4-0.4C765.9,191.1,764.8,190.9,765.9,189.2"/>
				</g>
			</g>
		</g>
	</g>
	<g>
		<g>
			<g>
				<defs>
					<rect id="SVGID_7_" x="599.7" y="7.1" width="25.3" height="34.3"/>
				</defs>
				<clipPath id="SVGID_8_">
					<use xlink:href="#SVGID_7_"  style="overflow:visible;"/>
				</clipPath>
				<g class="st9">
					<path d="M620.6,13c0.8-2,2.2-2.9,3.6-2.9c0.3,0,0.5-0.2,0.5-0.4V8.6l-0.1-0.1c0,0-1.9,0.1-3.1,0.1c-2.1,0-5.4-0.1-5.4-0.1
						L616,8.6v1.2c0,0.2,0.2,0.3,0.4,0.3c1.5,0,2.5,0.5,1.9,2.3c-0.9,2.8-2.8,8-4.4,12l-4.5-12.1c-0.5-1.5-0.1-2.2,1.8-2.2
						c0.2,0,0.4-0.2,0.4-0.4l0,0V8.6l-0.2-0.1c0,0-3.5,0.1-5.8,0.1c-2,0-5.1-0.1-5.1-0.1l-0.1,0.1v1.2c0,0.2,0.2,0.3,0.5,0.3
						c1.9,0,2.5,0.8,3.5,3.2L611,30l-0.9,2.3c-1.4,3.7-2.6,5.1-3,5.1s-0.6-0.4-0.9-0.8c-0.5-0.6-1.2-1-2-1.2c-1.4-0.1-2.7,1-2.8,2.4
						v0.1c0,2,2.6,2.6,3.7,2.6c3.8,0,5.9-3.7,7.5-7.7L620.6,13"/>
				</g>
			</g>
		</g>
	</g>
	<g>
		<g>
			<g>
				<defs>
					<rect id="SVGID_9_" x="1154.8" y="170.4" width="25.3" height="23.8"/>
				</defs>
				<clipPath id="SVGID_10_">
					<use xlink:href="#SVGID_9_"  style="overflow:visible;"/>
				</clipPath>
				<g class="st10">
					<path d="M1164.1,189.2l2-2.9c1.1-1.5,1.1-1.5,1.9-0.1l2,3.1c1,1.4,0.6,1.7-1.1,1.9c-0.2,0-0.4,0.2-0.4,0.4v1.1l0.2,0.1
						c0,0,3.6-0.1,5.9-0.1c1.9,0,4.8,0.1,4.8,0.1l0.1-0.1v-1.2c0-0.2-0.2-0.3-0.5-0.3c-1.8-0.3-2.9-0.9-4.5-3.2l-4.2-6.3
						c-0.3-0.4-0.2-0.5-0.1-0.7l4.3-5.2c1-1.4,2.6-2.2,4.3-2.4c0.3-0.1,0.5-0.2,0.5-0.4v-1.1l-0.1-0.1c0,0-2,0.1-3.3,0.1
						c-2.2,0-5.6-0.1-5.6-0.1l-0.1,0.1v1.2c0,0.2,0.1,0.3,0.3,0.3l0,0c1.7,0.1,1.8,0.7,0.8,2.1l-2.4,3.5c-0.3,0.3-0.3,0.4-0.7-0.1
						l-2.3-3.4c-1.1-1.6-0.8-1.8,1.1-2c0.2,0,0.4-0.1,0.4-0.3c0,0,0,0,0-0.1v-1.2l-0.1-0.1c0,0-3.7,0.1-6,0.1
						c-1.9,0-4.8-0.1-4.8-0.1l-0.1,0.1v1.2c0,0.2,0.2,0.3,0.5,0.3c1.7,0,3,1.3,4.4,3.2l4.3,6.1c0.2,0.2,0.2,0.3-0.2,0.7l-4.4,5.5
						c-1.1,1.3-2.6,2.1-4.3,2.3c-0.3,0.1-0.5,0.2-0.5,0.5v1.1l0.1,0.1c0,0,2.3-0.1,3.8-0.1c2.1,0,5.2,0.1,5.2,0.1l0.2-0.1v-1.1
						c0-0.2-0.1-0.3-0.4-0.4C1164,191,1162.9,190.8,1164.1,189.2"/>
				</g>
			</g>
		</g>
	</g>
	<g>
		<g>
			<g>
				<defs>
					<rect id="SVGID_11_" x="997.8" y="7.1" width="25.3" height="34.3"/>
				</defs>
				<clipPath id="SVGID_12_">
					<use xlink:href="#SVGID_11_"  style="overflow:visible;"/>
				</clipPath>
				<g class="st11">
					<path d="M1018.7,13c0.8-2,2.2-2.9,3.6-2.9c0.3,0,0.5-0.2,0.5-0.4V8.6l-0.1-0.1c0,0-1.9,0.1-3.1,0.1c-2.1,0-5.4-0.1-5.4-0.1
						l-0.2,0.1v1.2c0,0.2,0.2,0.3,0.4,0.3c1.5,0,2.5,0.5,1.9,2.3c-0.9,2.8-2.8,8-4.4,12l-4.5-12.1c-0.5-1.5-0.1-2.2,1.8-2.2
						c0.2,0,0.4-0.1,0.4-0.3l0,0V8.6l-0.2-0.1c0,0-3.5,0.1-5.8,0.1c-2,0-5.1-0.1-5.1-0.1l-0.2,0.1v1.2c0,0.2,0.2,0.3,0.5,0.3
						c1.9,0,2.5,0.8,3.5,3.2l6.8,16.7l-0.9,2.3c-1.4,3.7-2.6,5.1-3,5.1s-0.6-0.4-0.9-0.8c-0.5-0.6-1.2-1-2-1.2
						c-1.4-0.1-2.7,0.9-2.8,2.4v0.1c0,2,2.6,2.6,3.7,2.6c3.8,0,5.9-3.7,7.5-7.7L1018.7,13"/>
				</g>
			</g>
		</g>
	</g>
	<polygon class="st2" points="732.5,206.2 701.8,193.2 705.8,202.7 469.2,202.7 473.2,193.2 442.5,206.2 473.2,219.1 469.2,209.7 
		705.8,209.7 701.8,219.1 	"/>
	<polygon class="st12" points="591,87.9 600.5,91.9 587.5,61.2 574.5,91.9 584,87.9 584,324.5 574.5,320.5 587.5,351.2 600.5,320.5 
		591,324.5 	"/>
	<polygon class="st2" points="1076.5,134.9 1089.1,104 1058.2,116.5 1067.7,120.4 900.4,287.7 896.6,278.1 884,309 914.9,296.5 
		905.4,292.6 1072.7,125.3 	"/>
	<polygon class="st12" points="1089.1,309 1076.5,278.1 1072.7,287.7 905.4,120.4 914.9,116.5 884,104 896.6,134.9 900.4,125.3 
		1067.7,292.6 1058.2,296.5 	"/>
	<polyline class="st2" points="694.8,170 694.8,167 682.6,167 682.6,154.9 679.6,154.9 679.6,167 667.4,167 667.4,170 679.6,170 
		679.6,182.2 682.6,182.2 682.6,170 694.8,170 	"/>
	<path class="st2" d="M713.5,175.7v-18.6c0-3.2,0-6.5,0.2-7.2c0-0.3-0.1-0.3-0.3-0.3c-3.4,2-6.9,3.8-10.5,5.4
		c0.1,0.6,0.3,1.1,0.8,1.4c2.5-1,3.7-1.3,4.7-1.3s1.1,1.3,1.1,3.1v17.5c0,4.4-1.5,4.7-5.2,4.9c-0.3,0.5-0.3,1.2,0,1.8
		c2.6-0.1,4.5-0.1,7.4-0.1c2.6,0,3.9,0.1,6.5,0.1c0.3-0.5,0.3-1.2,0-1.8C714.4,180.4,713.5,180.1,713.5,175.7"/>
	<circle class="st3" cx="1385.6" cy="206.5" r="142.7"/>
	<path class="st12" d="M1412.6,62.5l4.9-9.2l-31.7,10.2l29.4,15.6l-3.1-9.5c64.6,12.7,112.6,70.4,112.6,136.6h7
		C1531.7,136.3,1480.9,75.6,1412.6,62.5z"/>
	<path class="st2" d="M1531.7,206.2h-7c0,66.3-48,124-112.7,136.6l3.1-9.5l-29.5,15.6l31.7,10.2l-4.9-9.2
		C1480.8,336.9,1531.7,276.1,1531.7,206.2z"/>
	<rect x="584" y="202.5" width="7.1" height="7.4"/>
	<rect x="983" y="202.8" transform="matrix(0.7071 -0.7071 0.7071 0.7071 142.9431 758.0677)" width="7.1" height="7.4"/>
	<rect x="31.5" y="48.4" class="st0" width="316.4" height="316.4"/>
	<path class="st13" d="M74.7,213.8c0,2.1,1.3,3.1,3.8,3.1h1c0.4,0,0.5,0.2,0.5,0.6v1.6l-0.1,0.1c-4.7-0.1-7.8-0.1-9.5-0.1l-9.5,0.1
		l-0.1-0.1v-1.6c0-0.4,0.2-0.6,0.5-0.6h1c1,0.1,2.1-0.1,3-0.7c0.7-0.6,1-1.5,0.9-2.4v-34.5c0.1-0.9-0.2-1.8-0.9-2.4
		c-0.9-0.5-2-0.8-3-0.7h-1c-0.4,0-0.5-0.2-0.5-0.6V174l0.1-0.1c4.5,0.1,7.7,0.1,9.5,0.1l9.5-0.1L80,174v1.7c0,0.3-0.2,0.5-0.4,0.6
		h-0.1h-1c-2.6,0-3.8,1-3.8,3.1V213.8z"/>
	<path class="st13" d="M96.1,192.5c3.8-2.9,7.3-4.4,10.6-4.4c3.5,0,5.8,1,6.9,2.9s1.7,4.7,1.7,8.4v14.5c-0.1,0.7,0.2,1.4,0.8,1.9
		c0.8,0.5,1.7,0.9,2.7,1.1l0.6,0.1c0.3,0,0.6,0.3,0.5,0.6v1.6l-0.1,0.1c-3.7-0.1-6.5-0.1-8.3-0.1l-7.8,0.1l-0.1-0.1v-1.6
		c0-0.3,0.2-0.6,0.6-0.6l0.3-0.1c0.9-0.2,1.8-0.5,2.6-1c0.6-0.5,0.9-1.2,0.8-2v-15c0.1-1.8-0.1-3.6-0.6-5.3c-0.3-1-1.3-1.6-2.4-1.5
		c-2.1,0-5,1.1-8.5,3.3v18.5c-0.1,0.8,0.2,1.5,0.8,2c0.8,0.5,1.6,0.8,2.5,1l0.3,0.1c0.3,0.1,0.6,0.3,0.6,0.6v1.6l-0.1,0.1
		c-3.6-0.1-6.2-0.1-8.1-0.1l-8.1,0.1l-0.1-0.1v-1.6c0-0.3,0.2-0.6,0.5-0.6l0.6-0.1c0.9-0.2,1.8-0.5,2.6-1c0.6-0.5,0.8-1.3,0.8-2v-17
		c0.1-1.1,0-2.2-0.4-3.2c-0.2-0.5-0.7-0.8-1.2-0.8l-2.9-0.3l-0.1-2.3c4-0.4,7.9-1.1,11.8-2.1c0.3,0,0.5,0.1,0.5,0.2l-0.1,4.4h-0.2
		L96.1,192.5L96.1,192.5z"/>
	<path class="st13" d="M134.9,192v17.7c0,3.4,0.6,5.1,1.8,5.1c1.7,0,3.4-0.6,4.8-1.8l1.6,1.6c-2.2,3.3-5.9,5.2-9.9,5.2s-6-2.4-6-7.1
		V192h-3.6c-0.8,0-1.3-0.2-1.3-0.5v-2.2c0-0.4,0.9-0.6,2.7-0.6c1.5,0.1,2.8-0.8,3.3-2.2c0.7-2.2,1-4.6,0.9-6.9l5.7-2.2v11.3h6.6
		c1,0,1.5,0.2,1.5,0.7v1.4c0,0.8-0.9,1.2-2.6,1.2H134.9z"/>
	<path class="st13" d="M171.9,211.5l1.7,1.5c-2.2,4.6-6.3,6.9-12.3,6.8c-5,0-8.7-1.4-11.2-4.1c-2.5-2.9-3.8-6.6-3.7-10.4
		c0-5.1,1.5-9.2,4.6-12.4c2.7-3,6.5-4.7,10.5-4.8c4.7,0,8,1.2,9.9,3.6c2,2.5,3,5.7,2.9,8.9c0,1-0.9,1.5-2.7,1.5h-17v1.8
		c-0.1,3.1,0.9,6.2,2.7,8.7c1.6,2.2,4.1,3.5,6.8,3.5C166.9,215.9,169.5,214.5,171.9,211.5z M154.9,199.2h11.2
		c0.1-0.2,0.2-0.5,0.1-0.8c0-2.5-0.5-4.4-1.5-5.6c-0.7-1.1-1.9-1.7-3.2-1.8c-0.5,0-1,0.1-1.5,0.3c-0.7,0.3-1.3,0.6-1.9,1.1
		c-0.8,0.7-1.5,1.5-1.9,2.5C155.5,196.3,155,197.7,154.9,199.2L154.9,199.2z"/>
	<path class="st13" d="M190.9,192.5c3.8-2.9,7.3-4.4,10.6-4.4c3.5,0,5.8,1,6.9,2.9c1.1,1.9,1.7,4.7,1.7,8.4v14.5
		c-0.1,0.7,0.2,1.4,0.8,1.9c0.8,0.5,1.7,0.9,2.6,1.1l0.6,0.1c0.3,0,0.6,0.3,0.6,0.6v1.6l-0.1,0.1c-3.7-0.1-6.5-0.1-8.3-0.1l-7.8,0.1
		l-0.1-0.1v-1.6c0-0.3,0.2-0.5,0.6-0.6l0.3-0.1c0.9-0.2,1.8-0.5,2.6-1c0.6-0.5,0.9-1.2,0.8-2v-15c0.1-1.8-0.1-3.6-0.6-5.3
		c-0.4-1-1.3-1.6-2.4-1.5c-2.1,0-5,1.1-8.5,3.3v18.5c-0.1,0.8,0.2,1.5,0.8,2c0.8,0.5,1.6,0.8,2.6,1l0.3,0.1c0.3,0,0.6,0.3,0.6,0.6
		v1.6l-0.1,0.1c-3.6-0.1-6.2-0.1-8.1-0.1l-8.1,0.1l-0.1-0.1v-1.6c0-0.3,0.2-0.5,0.6-0.6l0.6-0.1c0.9-0.2,1.8-0.5,2.6-1
		c0.6-0.5,0.9-1.2,0.8-2v-17.1c0.1-1.1,0-2.2-0.4-3.2c-0.2-0.5-0.7-0.8-1.2-0.8l-2.9-0.3l-0.1-2.4c4-0.4,7.9-1.1,11.8-2.1
		c0.3,0,0.5,0.1,0.5,0.2l-0.1,4.4L190.9,192.5z"/>
	<path class="st13" d="M218.4,208.9l2.8-0.1c0.7,3.1,1.6,5.3,2.7,6.5s3,1.8,5.5,1.8c1.1,0,2.1-0.4,2.9-1.2c0.9-0.9,1.4-2.1,1.3-3.4
		c0.1-1.2-0.2-2.3-0.9-3.3c-1-1-2.3-1.8-3.7-2.1c-2.4-0.9-4.7-2.3-6.6-4c-1.9-1.6-3.1-3.9-3.1-6.4c0-2.4,1.2-4.7,3.1-6.1
		c2.2-1.7,5-2.6,7.8-2.5c3.1,0,6.2,0.6,9,2c0.3,2.3,0.6,4.7,0.8,7.1l-2.7,0.3c-0.4-1.9-1.3-3.6-2.7-5c-1.1-1-2.6-1.6-4.2-1.6
		c-1,0-2,0.3-2.8,1c-0.8,0.8-1.2,1.8-1.2,2.9c0,2.5,1.3,4.2,3.9,5.1c2.9,1,5.7,2.5,8.1,4.4c1.9,1.5,3,3.9,2.9,6.3
		c0.1,2.8-1.3,5.4-3.7,6.8c-2.5,1.5-5.5,2.3-8.4,2.2c-1.6,0-3.3-0.2-4.9-0.4c-1.7-0.3-3.4-0.4-5.2-0.4
		C219.2,215.6,218.9,212.2,218.4,208.9z"/>
	<path class="st13" d="M258.6,196.6v17.1c-0.1,0.8,0.2,1.5,0.8,2c0.7,0.5,1.6,0.9,2.5,1l0.7,0.1c0.3,0,0.6,0.3,0.5,0.6v1.6l-0.1,0.1
		c-3.8-0.1-6.6-0.1-8.4-0.1l-8.2,0.1l-0.1-0.1v-1.6c0-0.3,0.2-0.6,0.5-0.6l0.9-0.1c0.9-0.1,1.8-0.4,2.5-0.9c0.6-0.5,0.8-1.3,0.8-2.1
		v-17c0.1-1.1-0.1-2.3-0.4-3.4c-0.2-0.5-0.6-0.9-1.1-1l-2.9-0.3l-0.1-2.1c4-0.4,8.1-1.1,12-2.1c0.3,0,0.5,0.1,0.5,0.2
		C258.7,191.5,258.6,194.3,258.6,196.6z M251.7,182.1c-1.7-1.6-1.7-4.3-0.1-6c1.6-1.7,4.3-1.7,6-0.1c1.7,1.6,1.7,4.3,0.1,6
		c-0.8,0.8-1.9,1.3-3,1.3C253.6,183.4,252.5,182.9,251.7,182.1z"/>
	<path class="st13" d="M277.8,192v17.7c0,3.4,0.6,5.1,1.8,5.1c1.7,0,3.4-0.6,4.8-1.8l1.6,1.6c-2.2,3.3-5.9,5.2-9.9,5.2s-6-2.4-6-7.1
		V192h-3.6c-0.8,0-1.3-0.2-1.3-0.5v-2.2c0-0.4,0.9-0.6,2.7-0.6c1.5,0.1,2.8-0.8,3.3-2.2c0.7-2.2,1-4.6,0.9-6.9l5.7-2.2v11.3h6.6
		c1,0,1.5,0.2,1.5,0.7v1.4c0,0.8-0.9,1.2-2.6,1.2H277.8z"/>
	<path class="st13" d="M317.2,195.3l-11.6,28.8c-0.6,1.5-1.3,2.9-2,4.3c-0.7,1.2-1.4,2.4-2.3,3.5c-0.8,1.1-1.8,2-3,2.6
		s-2.4,0.9-3.7,0.9c-1.2,0-2.4-0.4-3.5-1c-1.1-0.5-1.8-1.6-1.8-2.9c0-1,0.4-2,1.2-2.6c0.8-0.7,1.8-1,2.9-1c0.6,0,1.2,0.2,1.7,0.5
		s0.9,0.6,1.3,1.1c0.5,0.8,1,1.2,1.3,1.2c0.2,0,0.5-0.2,0.9-0.7c0.6-0.8,1.1-1.6,1.5-2.5c0.7-1.4,1.4-2.8,1.9-4.3l1.3-3.4l-9.9-24.4
		c-0.5-1.3-1.2-2.6-2.1-3.7c-0.8-0.7-1.9-1-3-0.9c-0.5,0-0.7-0.2-0.7-0.5v-1.8l0.2-0.1c3,0.1,5.5,0.1,7.4,0.1c2.2,0,5,0,8.5-0.1
		l0.3,0.1v1.7c0,0.3-0.2,0.6-0.5,0.6h-0.1c-1.3,0-2.2,0.3-2.6,0.8s-0.4,1.3,0,2.4l6.5,17.6c2.8-6.8,4.9-12.6,6.4-17.5
		c0.8-2.1-0.1-3.2-2.7-3.2c-0.4,0-0.6-0.2-0.6-0.5v-1.7l0.3-0.2c3.2,0.1,5.8,0.1,7.9,0.1l4.5-0.1l0.1,0.1v1.6c0,0.4-0.3,0.6-0.8,0.6
		C320.1,191,318.4,192.4,317.2,195.3z"/>
	<polyline class="st2" points="1422.8,311 1422.8,308 1410.6,308 1410.6,295.9 1407.6,295.9 1407.6,308 1395.3,308 1395.3,311 
		1407.6,311 1407.6,323.3 1410.6,323.3 1410.6,311 1422.8,311 	"/>
	<path class="st2" d="M1441.5,316.7v-18.6c0-3.2,0-6.5,0.2-7.2c0-0.3-0.1-0.3-0.3-0.3c-3.4,2-6.9,3.8-10.5,5.4
		c0.1,0.6,0.3,1.1,0.8,1.4c2.5-1,3.6-1.3,4.7-1.3s1.1,1.3,1.1,3.1v17.5c0,4.4-1.4,4.7-5.2,4.9c-0.3,0.5-0.3,1.2,0,1.8
		c2.6,0,4.6-0.1,7.4-0.1c2.6,0,3.9,0.1,6.5,0.1c0.3-0.5,0.3-1.2,0-1.8C1442.4,321.4,1441.5,321.2,1441.5,316.7"/>
	<text transform="matrix(1 0 0 1 1072.37 185.366)" class="st14 st15">45˚</text>
</g>
<g>
	<g>
		<g>
			<g>
				<defs>
					<rect id="SVGID_13_" x="156.9" y="389.2" width="66.1" height="57.5"/>
				</defs>
				<clipPath id="SVGID_14_">
					<use xlink:href="#SVGID_13_"  style="overflow:visible;"/>
				</clipPath>
				<path class="st16" d="M157.1,417.6c0.6,4.8,1.1,8.9,1.1,13.3c4.8-0.1,8.8,1.1,13.3,1.1c7.1,0,16-3.1,16-12
					c0-7.2-6.6-11.2-14.5-14.2c-3.8-1.4-5.1-3.5-5.1-6.8c0-3.7,2.7-5.3,5.2-5.3c4.2,0,7.1,2.1,9,8.6l3.6-0.5c-0.3-3.3-0.6-6.7-1-9.5
					c-3.6-1.8-6.8-2.6-11.9-2.6c-8.4,0-14.5,5-14.5,11.4c0,7.4,8.2,12.1,12.8,13.8c5.1,1.8,6.1,3.6,6.1,7.2c0,4.3-3,6-5.5,6
					c-6.9,0-9.3-3.1-10.9-11L157.1,417.6"/>
			</g>
			<g>
				<defs>
					<rect id="SVGID_15_" x="156.9" y="389.2" width="66.1" height="57.5"/>
				</defs>
				<clipPath id="SVGID_16_">
					<use xlink:href="#SVGID_15_"  style="overflow:visible;"/>
				</clipPath>
				<path class="st17" d="M207.9,445.7c5.8,0,14.6-5.9,14.6-23.5c0-7.4-1.8-13.8-5.1-18.2c-2-2.6-5.1-4.9-9.2-4.9
					c-7.4,0-14.5,8.9-14.5,23.7c0,8,2.5,15.5,6.6,19.7C202.4,444.6,205,445.7,207.9,445.7 M208.2,401.7c1.3,0,2.5,0.4,3.4,1.3
					c2.3,2,4.4,7.7,4.4,17.7c0,6.9-0.2,11.6-1.3,15.5c-1.7,6.2-5.3,6.8-6.7,6.8c-7,0-7.7-12.8-7.7-19.4
					C200.2,405.2,204.8,401.7,208.2,401.7z"/>
			</g>
		</g>
	</g>
</g>
<g>
	<g>
		<g>
			<g>
				<defs>
					<rect id="SVGID_17_" x="556.1" y="389.3" width="63.2" height="57.5"/>
				</defs>
				<clipPath id="SVGID_18_">
					<use xlink:href="#SVGID_17_"  style="overflow:visible;"/>
				</clipPath>
				<path class="st18" d="M556.4,417.7c0.6,4.8,1.1,8.9,1.1,13.3c4.8-0.1,8.8,1.1,13.3,1.1c7.1,0,16-3.1,16-12
					c0-7.2-6.6-11.2-14.5-14.2c-3.8-1.4-5.1-3.5-5.1-6.8c0-3.7,2.7-5.3,5.2-5.3c4.2,0,7.1,2.1,9,8.6l3.6-0.5c-0.3-3.3-0.6-6.7-1-9.5
					c-3.6-1.8-6.8-2.6-11.9-2.6c-8.4,0-14.5,5-14.5,11.4c0,7.4,8.2,12.1,12.8,13.8c5.1,1.8,6.1,3.6,6.1,7.2c0,4.3-3,6-5.5,6
					c-6.9,0-9.3-3.1-10.9-11L556.4,417.7"/>
			</g>
			<g>
				<defs>
					<rect id="SVGID_19_" x="556.1" y="389.3" width="63.2" height="57.5"/>
				</defs>
				<clipPath id="SVGID_20_">
					<use xlink:href="#SVGID_19_"  style="overflow:visible;"/>
				</clipPath>
				<path class="st19" d="M611.6,435.9v-26.1c0-4.5,0.1-9.1,0.2-10.1c0-0.4-0.1-0.4-0.4-0.4c-4.1,2.6-8.1,4.4-14.7,7.5
					c0.1,0.8,0.4,1.6,1.1,2c3.5-1.4,5.1-1.9,6.5-1.9c1.3,0,1.5,1.8,1.5,4.4v24.5c0,6.2-2,6.6-7.3,6.8c-0.5,0.4-0.5,2,0,2.5
					c3.7-0.1,6.4-0.1,10.4-0.1c3.6,0,5.4,0.1,9.2,0.1c0.4-0.4,0.4-2,0-2.5C612.9,442.5,611.6,442.1,611.6,435.9"/>
			</g>
		</g>
	</g>
</g>
<g>
	<g>
		<g>
			<g>
				<defs>
					<rect id="SVGID_21_" x="953.7" y="389.3" width="66.1" height="57.5"/>
				</defs>
				<clipPath id="SVGID_22_">
					<use xlink:href="#SVGID_21_"  style="overflow:visible;"/>
				</clipPath>
				<path class="st20" d="M954,417.7c0.6,4.8,1.1,8.9,1.1,13.3c4.8-0.1,8.8,1.1,13.3,1.1c7.1,0,16-3.1,16-12
					c0-7.2-6.6-11.2-14.5-14.2c-3.8-1.4-5.1-3.5-5.1-6.8c0-3.7,2.7-5.3,5.2-5.3c4.2,0,7.1,2.1,9,8.6l3.6-0.5c-0.3-3.3-0.6-6.7-1-9.5
					c-3.6-1.8-6.8-2.6-11.9-2.6c-8.4,0-14.5,5-14.5,11.4c0,7.4,8.2,12.1,12.8,13.8c5.1,1.8,6.1,3.6,6.1,7.2c0,4.3-3,6-5.5,6
					c-6.9,0-9.3-3.1-10.9-11L954,417.7"/>
			</g>
			<g>
				<defs>
					<rect id="SVGID_23_" x="953.7" y="389.3" width="66.1" height="57.5"/>
				</defs>
				<clipPath id="SVGID_24_">
					<use xlink:href="#SVGID_23_"  style="overflow:visible;"/>
				</clipPath>
				<path class="st21" d="M992.2,409.9c0,1.6,1.4,2.9,3,2.9c1.3,0,3.5-1.4,3.5-3c0-0.6-0.1-1.1-0.3-1.6c-0.1-0.5-0.6-1.2-0.6-1.8
					c0-1.9,2-4.6,7.4-4.6c2.7,0,6.5,1.9,6.5,9.1c0,4.8-1.7,8.7-6.2,13.2l-5.6,5.5c-7.4,7.5-8.6,11.1-8.6,15.5c0,0,3.8-0.1,6.2-0.1
					h13.1c2.4,0,5.9,0.1,5.9,0.1c1-4,1.7-9.6,1.8-11.9c-0.5-0.4-1.4-0.5-2.2-0.4c-1.3,5.3-2.6,7.2-5.3,7.2h-13.4
					c0-3.6,5.2-8.7,5.6-9.1l7.6-7.3c4.3-4.1,7.5-7.4,7.5-13.1c0-8.1-6.6-11.4-12.7-11.4C997.4,399.2,992.2,405.4,992.2,409.9"/>
			</g>
		</g>
	</g>
</g>
<g>
	<g>
		<g>
			<g>
				<defs>
					<rect id="SVGID_25_" x="1353" y="389.9" width="66.1" height="57.5"/>
				</defs>
				<clipPath id="SVGID_26_">
					<use xlink:href="#SVGID_25_"  style="overflow:visible;"/>
				</clipPath>
				<path class="st22" d="M1353.2,418.3c0.6,4.8,1.1,8.9,1.1,13.3c4.8-0.1,8.8,1.1,13.3,1.1c7.1,0,16-3.1,16-12
					c0-7.2-6.6-11.2-14.5-14.2c-3.8-1.4-5.1-3.5-5.1-6.8c0-3.7,2.7-5.3,5.2-5.3c4.2,0,7.1,2.1,9,8.6l3.6-0.5c-0.3-3.3-0.6-6.7-1-9.5
					c-3.6-1.8-6.8-2.6-11.9-2.6c-8.4,0-14.5,5-14.5,11.4c0,7.4,8.2,12.1,12.8,13.8c5.1,1.8,6.1,3.6,6.1,7.2c0,4.3-3,6-5.5,6
					c-6.9,0-9.3-3.1-10.9-11L1353.2,418.3"/>
			</g>
			<g>
				<defs>
					<rect id="SVGID_27_" x="1353" y="389.9" width="66.1" height="57.5"/>
				</defs>
				<clipPath id="SVGID_28_">
					<use xlink:href="#SVGID_27_"  style="overflow:visible;"/>
				</clipPath>
				<path class="st23" d="M1403,402.5c3.2,0,6.2,2,6.2,6.8c0,3.8-4.4,9.5-11.8,10.6l0.4,2.4c1.3-0.2,2.6-0.2,3.6-0.2
					c4.3,0,9.8,1.2,9.8,9.7c0,10-6.7,12-9.3,12c-3.8,0-4.5-1.7-5.4-3.1c-0.8-1.1-1.7-2-3.2-2c-1.6,0-3.2,1.4-3.2,2.6
					c0,3,6.3,5,10.8,5c8.9,0,16.9-5.8,16.9-15.7c0-8.2-6.2-11.1-10.6-11.9l-0.1-0.1c6.2-2.9,7.9-6,7.9-10c0-2.3-0.5-4.1-2.3-5.9
					c-1.7-1.7-4.3-2.9-8.2-2.9c-11,0-14.2,7.2-14.2,9.7c0,1.1,0.8,2.6,2.6,2.6c2.6,0,2.9-2.5,2.9-3.9
					C1395.9,403.4,1401.1,402.5,1403,402.5"/>
			</g>
		</g>
	</g>
</g>
</svg>
