<?xml version="1.0" encoding="utf-8"?>
<!-- Generator: Adobe Illustrator 25.2.0, SVG Export Plug-In . SVG Version: 6.00 Build 0)  -->
<svg version="1.1" id="Layer_1" xmlns="http://www.w3.org/2000/svg" xmlns:xlink="http://www.w3.org/1999/xlink" x="0px" y="0px"
	 viewBox="0 0 241.8 155.5" style="enable-background:new 0 0 241.8 155.5;" xml:space="preserve">
<style type="text/css">
	.st0{fill:#DBDBDB;stroke:#606060;stroke-miterlimit:10;}
	.st1{fill:none;stroke:#000000;stroke-width:1.5;stroke-miterlimit:10;}
	.st2{display:none;fill:none;stroke:#606060;stroke-miterlimit:10;}
	.st3{fill:none;stroke:#000000;stroke-width:1.000000e-06;stroke-miterlimit:10;stroke-opacity:0;}
	.st4{clip-path:url(#SVGID_2_);fill:none;stroke:#000000;stroke-width:9.999999e-07;stroke-miterlimit:10;stroke-opacity:0;}
	.st5{clip-path:url(#SVGID_4_);fill:none;stroke:#000000;stroke-width:9.999999e-07;stroke-miterlimit:10;stroke-opacity:0;}
	.st6{clip-path:url(#SVGID_6_);fill:none;stroke:#000000;stroke-width:9.999999e-07;stroke-miterlimit:10;stroke-opacity:0;}
	.st7{clip-path:url(#SVGID_8_);fill:none;stroke:#000000;stroke-width:9.999999e-07;stroke-miterlimit:10;stroke-opacity:0;}
	.st8{opacity:0;fill:none;stroke:#000000;stroke-width:1.000000e-06;stroke-miterlimit:10;}
	.st9{opacity:0;fill:none;stroke:#000000;stroke-width:9.999999e-07;stroke-miterlimit:10;}
	.st10{opacity:0;clip-path:url(#SVGID_10_);fill:none;stroke:#000000;stroke-width:9.999999e-07;stroke-miterlimit:10;}
</style>
<g>
	<g>
		<rect x="97.5" y="12.1" class="st0" width="27.4" height="27.4"/>
		<rect x="132.3" y="12.1" class="st0" width="27.4" height="27.4"/>
		<rect x="167.1" y="12.1" class="st0" width="27.4" height="27.4"/>
		<rect x="201.9" y="12.1" class="st0" width="27.4" height="27.4"/>
		<rect x="97.5" y="47.3" class="st0" width="27.4" height="27.4"/>
		<rect x="132.3" y="47.3" class="st0" width="27.4" height="27.4"/>
		<rect x="167.1" y="47.3" class="st0" width="27.4" height="27.4"/>
		<rect x="201.9" y="47.3" class="st0" width="27.4" height="27.4"/>
		<rect x="97.5" y="82.5" class="st0" width="27.4" height="27.4"/>
		<rect x="132.3" y="82.5" class="st0" width="27.4" height="27.4"/>
		<rect x="167.1" y="82.5" class="st0" width="27.4" height="27.4"/>
		<rect x="201.9" y="82.5" class="st0" width="27.4" height="27.4"/>
		<rect x="97.5" y="117.7" class="st0" width="27.4" height="27.4"/>
		<rect x="132.3" y="117.7" class="st0" width="27.4" height="27.4"/>
		<rect x="167.1" y="117.7" class="st0" width="27.4" height="27.4"/>
		<rect x="201.9" y="117.7" class="st0" width="27.4" height="27.4"/>
	</g>
	<polyline class="st1" points="96.9,150.6 92,150.6 92,6.7 96.9,6.7 	"/>
	<polyline class="st1" points="231,6.7 235.9,6.7 235.9,150.6 231,150.6 	"/>
</g>
<rect x="10.6" y="12.1" class="st0" width="27.4" height="27.4"/>
<rect x="10.6" y="47.3" class="st0" width="27.4" height="27.4"/>
<rect x="10.6" y="82.5" class="st0" width="27.4" height="27.4"/>
<rect x="10.6" y="117.7" class="st0" width="27.4" height="27.4"/>
<polyline class="st1" points="10,150.6 5.1,150.6 5.1,6.7 10,6.7 "/>
<polyline class="st1" points="39.8,6.7 44.6,6.7 44.6,150.6 39.8,150.6 "/>
<line class="st2" x1="596.1" y1="249.2" x2="703.4" y2="168.1"/>
<polygon class="st3" points="667.2,320.9 667.2,320.9 667.2,320.9 667.2,320.9 667.2,320.9 667.2,320.9 667.2,320.9 667.2,320.9 
	667.2,320.9 667.2,320.9 667.2,320.9 667.2,320.9 667.2,320.9 667.2,320.9 667.2,320.9 667.2,320.9 667.2,320.9 667.2,320.9 
	667.2,320.9 667.2,320.9 667.2,320.9 667.2,320.9 667.2,320.9 667.2,320.9 667.2,320.9 667.2,320.9 667.2,320.9 667.2,320.9 
	667.2,320.9 667.2,320.9 667.2,320.9 667.2,320.9 667.2,320.9 667.2,320.9 667.2,320.9 667.2,320.9 667.2,320.9 667.2,320.9 
	667.2,320.9 667.2,320.9 667.2,320.9 667.2,320.9 667.2,320.9 667.2,320.9 667.2,320.9 667.2,320.9 667.2,320.9 667.2,320.9 
	667.2,320.9 667.2,320.9 667.2,320.9 667.2,320.9 667.2,320.9 667.2,320.9 667.2,320.9 667.2,320.9 667.2,320.9 667.2,320.9 
	667.2,320.9 667.2,320.9 667.2,320.9 667.2,320.9 667.2,320.9 667.2,320.9 667.2,320.9 667.2,320.9 667.2,320.9 667.2,320.9 
	667.2,320.9 667.2,320.9 667.2,320.9 667.2,320.9 667.2,320.9 667.2,320.9 667.2,320.9 667.2,320.9 667.2,320.9 667.2,320.9 
	667.2,320.9 667.2,320.9 667.2,320.9 667.2,320.9 667.2,320.9 667.2,320.9 667.2,320.9 "/>
<g>
	<g>
		<defs>
			<rect id="SVGID_1_" x="659.2" y="312.5" width="16.9" height="16.3"/>
		</defs>
		<clipPath id="SVGID_2_">
			<use xlink:href="#SVGID_1_"  style="overflow:visible;"/>
		</clipPath>
		<path class="st4" d="M667.7,320.6L667.7,320.6z"/>
	</g>
</g>
<polygon class="st3" points="687.8,321.4 687.8,321.4 687.8,321.4 687.8,321.4 687.8,321.4 687.8,321.4 687.8,321.4 687.8,321.4 
	687.8,321.4 687.8,321.4 687.8,321.4 687.8,321.4 687.8,321.4 687.8,321.4 687.8,321.4 687.8,321.4 687.8,321.4 687.8,321.4 
	687.8,321.4 687.8,321.4 687.8,321.4 687.8,321.4 687.8,321.4 687.8,321.4 687.8,321.4 687.8,321.4 687.8,321.4 687.8,321.4 
	687.8,321.4 687.8,321.4 687.8,321.4 687.8,321.4 687.8,321.4 687.8,321.4 687.8,321.4 687.8,321.4 687.8,321.4 687.8,321.4 
	687.8,321.4 687.8,321.4 687.8,321.4 687.8,321.4 687.8,321.4 687.8,321.4 687.8,321.4 687.8,321.4 687.8,321.4 687.8,321.4 
	687.8,321.4 687.8,321.4 687.8,321.4 687.8,321.4 687.8,321.4 687.8,321.4 687.8,321.4 687.8,321.4 687.8,321.4 687.8,321.4 
	687.8,321.4 687.8,321.4 687.8,321.4 687.8,321.4 687.8,321.4 687.8,321.4 687.8,321.4 687.8,321.4 687.8,321.4 687.8,321.4 
	687.8,321.4 687.8,321.4 687.8,321.4 687.8,321.4 687.8,321.4 687.8,321.4 687.8,321.4 687.8,321.4 687.8,321.4 687.8,321.4 
	687.8,321.4 687.8,321.4 687.8,321.4 687.8,321.4 687.8,321.4 687.8,321.4 687.8,321.4 "/>
<g>
	<g>
		<defs>
			<rect id="SVGID_3_" x="680.1" y="312.7" width="16.3" height="16.3"/>
		</defs>
		<clipPath id="SVGID_4_">
			<use xlink:href="#SVGID_3_"  style="overflow:visible;"/>
		</clipPath>
		<path class="st5" d="M688.3,320.9L688.3,320.9z"/>
	</g>
</g>
<polygon class="st3" points="711.1,323 711.1,323 711.1,323 711.1,323 711.1,323 711.1,323 711.1,323 711.1,323 711.1,323 
	711.1,323 711.1,323 711.1,323 711.1,323 711.1,323 711.1,323 711.1,323 711.1,323 711.1,323 711.1,323 711.1,323 711.1,323 
	711.1,323 711.1,323 711.1,323 711.1,323 711.1,323 711.1,323 711.1,323 711.1,323 711.1,323 711.1,323 711.1,323 711.1,323 
	711.1,323 711.1,323 711.1,323 711.1,323 711.1,323 711.1,323 711.1,323 711.1,323 711.1,323 711.1,323 711.1,323 711.1,323 
	711.1,323 711.1,323 711.1,323 711.1,323 711.1,323 711.1,323 711.1,323 711.1,323 711.1,323 711.1,323 711.1,323 711.1,323 
	711.1,323 711.1,323 711.1,323 711.1,323 711.1,323 711.1,323 711.1,323 711.1,323 711.1,323 711.1,323 711.1,323 711.1,323 
	711.1,323 711.1,323 711.1,323 711.1,323 711.1,323 711.1,323 711.1,323 711.1,323 711.1,323 711.1,323 711.1,323 711.1,323 
	711.1,323 711.1,323 711.1,323 711.1,323 "/>
<g>
	<g>
		<defs>
			<rect id="SVGID_5_" x="703.2" y="314.3" width="16.9" height="16.3"/>
		</defs>
		<clipPath id="SVGID_6_">
			<use xlink:href="#SVGID_5_"  style="overflow:visible;"/>
		</clipPath>
		<path class="st6" d="M711.6,322.5L711.6,322.5z"/>
	</g>
</g>
<polygon class="st3" points="738.2,320.9 738.2,320.9 738.2,320.9 738.2,320.9 738.2,320.9 738.2,320.9 738.2,320.9 738.2,320.9 
	738.2,320.9 738.2,320.9 738.2,320.9 738.2,320.9 738.2,320.9 738.2,320.9 738.2,320.9 738.2,320.9 738.2,320.9 738.2,320.9 
	738.2,320.9 738.2,320.9 738.2,320.9 738.2,320.9 738.2,320.9 738.2,320.9 738.2,320.9 738.2,320.9 738.2,320.9 738.2,320.9 
	738.2,320.9 738.2,320.9 738.2,320.9 738.2,320.9 738.2,320.9 738.2,320.9 738.2,320.9 738.2,320.9 738.2,320.9 738.2,320.9 
	738.2,320.9 738.2,320.9 738.2,320.9 738.2,320.9 738.2,320.9 738.2,320.9 738.2,320.9 738.2,320.9 738.2,320.9 738.2,320.9 
	738.2,320.9 738.2,320.9 738.2,320.9 738.2,320.9 738.2,320.9 738.2,320.9 738.2,320.9 738.2,320.9 738.2,320.9 738.2,320.9 
	738.2,320.9 738.2,320.9 738.2,320.9 738.2,320.9 738.2,320.9 738.2,320.9 738.2,320.9 738.2,320.9 738.2,320.9 738.2,320.9 
	738.2,320.9 738.2,320.9 738.2,320.9 738.2,320.9 738.2,320.9 738.2,320.9 738.2,320.9 738.2,320.9 738.2,320.9 738.2,320.9 
	738.2,320.9 738.2,320.9 738.2,320.9 738.2,320.9 738.2,320.9 738.2,320.9 738.2,320.9 "/>
<g>
	<g>
		<defs>
			<rect id="SVGID_7_" x="730.3" y="312.5" width="16.9" height="16.3"/>
		</defs>
		<clipPath id="SVGID_8_">
			<use xlink:href="#SVGID_7_"  style="overflow:visible;"/>
		</clipPath>
		<path class="st7" d="M738.7,320.6L738.7,320.6z"/>
	</g>
</g>
<polygon class="st3" points="295.6,346.9 295.6,346.9 295.6,346.9 295.6,346.9 295.6,346.9 295.6,346.9 295.6,346.9 295.6,346.9 
	295.6,346.9 295.6,346.9 295.6,346.9 295.6,346.9 295.6,346.9 295.6,346.9 295.6,346.9 295.6,346.9 295.6,346.9 295.6,346.9 
	295.6,346.9 295.6,346.9 295.6,346.9 295.6,346.9 295.6,346.9 295.6,346.9 295.6,346.9 295.6,346.9 295.6,346.9 295.6,346.9 
	295.6,346.9 295.6,346.9 295.6,346.9 295.6,346.9 295.6,346.9 295.6,346.9 295.6,346.9 295.6,346.9 295.6,346.9 295.6,346.9 
	295.6,346.9 295.6,346.9 295.6,346.9 295.6,346.9 295.6,346.9 295.6,346.9 295.6,346.9 295.6,346.9 295.6,346.9 295.6,346.9 
	295.6,346.9 295.6,346.9 295.6,346.9 295.6,346.9 295.6,346.9 295.6,346.9 295.6,346.9 295.6,346.9 295.6,346.9 295.6,346.9 
	295.6,346.9 295.6,346.9 295.6,346.9 295.6,346.9 295.6,346.9 295.6,346.9 295.6,346.9 295.6,346.9 295.6,346.9 295.6,346.9 
	295.6,346.9 295.6,346.9 295.6,346.9 295.6,346.9 295.6,346.9 295.6,346.9 295.6,346.9 295.6,346.9 295.6,346.9 295.6,346.9 
	295.6,346.9 295.6,346.9 295.6,346.9 295.6,346.9 295.6,346.9 295.6,346.9 295.6,346.9 295.6,346.9 295.6,346.9 295.6,346.9 
	295.6,346.9 295.6,346.9 "/>
<polygon class="st3" points="583,318.8 583,318.8 583,318.8 583,318.8 583,318.8 583,318.8 583,318.8 583,318.8 583,318.8 
	583,318.8 583,318.8 583,318.8 583,318.8 583,318.8 583,318.8 583,318.8 583,318.8 583,318.8 583,318.8 583,318.8 583,318.8 
	583,318.8 583,318.8 583,318.8 583,318.8 583,318.8 583,318.8 583,318.8 583,318.8 583,318.8 583,318.8 583,318.8 583,318.8 
	583,318.8 583,318.8 583,318.8 583,318.8 583,318.8 583,318.8 583,318.8 583,318.8 583,318.8 583,318.8 583,318.8 583,318.8 
	583,318.8 583,318.8 583,318.8 583,318.8 583,318.8 583,318.8 583,318.8 583,318.8 583,318.8 583,318.8 583,318.8 583,318.8 
	583,318.8 583,318.8 583,318.8 583,318.8 583,318.8 583,318.8 583,318.8 583,318.8 583,318.8 583,318.8 583,318.8 583,318.8 
	583,318.8 583,318.8 583,318.8 583,318.8 583,318.8 583,318.8 583,318.8 583,318.8 583,318.8 583,318.8 583,318.8 583,318.8 
	583,318.8 583,318.8 583,318.8 583,318.8 583,318.8 583,318.8 583,318.8 583,318.8 583,318.8 583,318.8 "/>
<polygon class="st3" points="338.6,377.4 338.6,377.4 338.6,377.4 338.6,377.4 338.6,377.4 338.6,377.4 338.6,377.4 338.6,377.4 
	338.6,377.4 338.6,377.4 338.6,377.4 338.6,377.4 338.6,377.4 338.6,377.4 338.6,377.4 338.6,377.4 338.6,377.4 338.6,377.4 
	338.6,377.4 338.6,377.4 338.6,377.4 338.6,377.4 338.6,377.4 338.6,377.4 338.6,377.4 338.6,377.4 338.6,377.4 338.6,377.4 
	338.6,377.4 338.6,377.4 338.6,377.4 338.6,377.4 338.6,377.4 338.6,377.4 338.6,377.4 338.6,377.4 338.6,377.4 338.6,377.4 
	338.6,377.4 338.6,377.4 338.6,377.4 338.6,377.4 338.6,377.4 338.6,377.4 338.6,377.4 338.6,377.4 338.6,377.4 338.6,377.4 
	338.6,377.4 338.6,377.4 338.6,377.4 338.6,377.4 338.6,377.4 338.6,377.4 338.6,377.4 338.6,377.4 338.6,377.4 338.6,377.4 
	338.6,377.4 338.6,377.4 338.6,377.4 338.6,377.4 338.6,377.4 338.6,377.4 338.6,377.4 338.6,377.4 338.6,377.4 338.6,377.4 
	338.6,377.4 338.6,377.4 338.6,377.4 338.6,377.4 338.6,377.4 338.6,377.4 338.6,377.4 338.6,377.4 338.6,377.4 338.6,377.4 
	338.6,377.4 338.6,377.4 338.6,377.4 338.6,377.4 338.6,377.4 338.6,377.4 338.6,377.4 338.6,377.4 338.6,377.4 338.6,377.4 
	338.6,377.4 338.6,377.4 338.6,377.4 "/>
<polygon class="st8" points="60.9,11.8 60.9,11.8 60.9,11.8 60.9,11.8 60.9,11.8 60.9,11.8 60.9,11.8 60.9,11.8 60.9,11.8 
	60.9,11.8 60.9,11.8 60.9,11.8 60.9,11.8 60.9,11.8 60.9,11.8 60.9,11.8 60.9,11.8 60.9,11.8 60.9,11.8 60.9,11.8 60.9,11.8 
	60.9,11.8 60.9,11.8 60.9,11.8 60.9,11.8 60.9,11.8 60.9,11.8 60.9,11.8 60.9,11.8 60.9,11.8 60.9,11.8 60.9,11.8 60.9,11.8 
	60.9,11.8 60.9,11.8 60.9,11.8 60.9,11.8 60.9,11.8 60.9,11.8 60.9,11.8 60.9,11.8 60.9,11.8 60.9,11.8 60.9,11.8 60.9,11.8 
	60.9,11.8 60.9,11.8 60.9,11.8 60.9,11.8 60.9,11.8 60.9,11.8 60.9,11.8 60.9,11.8 60.9,11.8 60.9,11.8 60.9,11.8 60.9,11.8 
	60.9,11.8 60.9,11.8 60.9,11.8 60.9,11.8 60.9,11.8 60.9,11.8 60.9,11.8 60.9,11.8 60.9,11.8 60.9,11.8 60.9,11.8 60.9,11.8 
	60.9,11.8 60.9,11.8 60.9,11.8 60.9,11.8 60.9,11.8 60.9,11.8 60.9,11.8 60.9,11.8 60.9,11.8 60.9,11.8 60.9,11.8 60.9,11.8 
	60.9,11.8 60.9,11.8 60.9,11.8 60.9,11.8 60.9,11.8 "/>
<g>
	<path class="st9" d="M24.2,26L24.2,26z"/>
	<path d="M19.6,22.5c-0.8-0.2-2.2-0.4-2.2-1.4c0-1.4,2-1.4,2.5-1.4c1.6,0,2.5,0.6,2.6,1.8c0,0.3,0,0.4,0.5,0.4
		c0.5,0,0.5-0.1,0.5-0.6v-1.8c0-0.4,0-0.6-0.4-0.6c-0.1,0-0.1,0-1,0.4c-0.6-0.3-1.3-0.4-2.2-0.4c-0.7,0-4,0-4,2.9
		c0,0.9,0.4,1.5,0.9,1.8c0.9,0.8,1.7,0.9,3.4,1.2c0.8,0.1,2.4,0.4,2.4,1.7c0,1.6-2,1.6-2.5,1.6c-2.3,0-2.9-1.6-3.2-2.5
		c-0.1-0.3-0.2-0.3-0.5-0.3c-0.5,0-0.5,0.1-0.5,0.6v2.4c0,0.4,0,0.6,0.4,0.6c0.2,0,0.2,0,0.7-0.3c0,0,0.5-0.3,0.6-0.4
		c1,0.7,2.2,0.7,2.6,0.7c0.7,0,4.1,0,4.1-3.2c0-0.9-0.4-1.7-1.2-2.3C22,23,21.3,22.8,19.6,22.5"/>
	<path d="M29.3,32.2c-0.7,0-1.6-0.4-1.9-1.7c-0.2-0.9-0.2-2.2-0.2-3.3c0-1.1,0-2.3,0.2-3.1c0.3-1.2,1.3-1.5,1.9-1.5
		c0.8,0,1.6,0.5,1.9,1.4c0.2,0.8,0.3,1.9,0.3,3.3c0,1.1,0,2.3-0.2,3.2C31,31.8,29.9,32.2,29.3,32.2 M32.9,27.4c0-1.7-0.2-2.9-0.9-4
		c-0.5-0.7-1.4-1.3-2.6-1.3c-3.6,0-3.6,4.2-3.6,5.3c0,1.1,0,5.2,3.6,5.2C32.9,32.6,32.9,28.5,32.9,27.4z"/>
</g>
<polygon class="st8" points="85.3,106.7 85.3,106.7 85.3,106.7 85.3,106.7 85.3,106.7 85.3,106.7 85.3,106.7 85.3,106.7 85.3,106.7 
	85.3,106.7 85.3,106.7 85.3,106.7 85.3,106.7 85.3,106.7 85.3,106.7 85.3,106.7 85.3,106.7 85.3,106.7 85.3,106.7 85.3,106.7 
	85.3,106.7 85.3,106.7 85.3,106.7 85.3,106.7 85.3,106.7 85.3,106.7 85.3,106.7 85.3,106.7 85.3,106.7 85.3,106.7 85.3,106.7 
	85.3,106.7 85.3,106.7 85.3,106.7 85.3,106.7 85.3,106.7 85.3,106.7 85.3,106.7 85.3,106.7 85.3,106.7 85.3,106.7 85.3,106.7 
	85.3,106.7 85.3,106.7 85.3,106.7 85.3,106.7 85.3,106.7 85.3,106.7 85.3,106.7 85.3,106.7 85.3,106.7 85.3,106.7 85.3,106.7 
	85.3,106.7 85.3,106.7 85.3,106.7 85.3,106.7 85.3,106.7 85.3,106.7 85.3,106.7 85.3,106.7 85.3,106.7 85.3,106.7 85.3,106.7 
	85.3,106.7 85.3,106.7 85.3,106.7 85.3,106.7 85.3,106.7 85.3,106.7 85.3,106.7 85.3,106.7 85.3,106.7 85.3,106.7 85.3,106.7 
	85.3,106.7 85.3,106.7 85.3,106.7 85.3,106.7 85.3,106.7 85.3,106.7 85.3,106.7 85.3,106.7 85.3,106.7 85.3,106.7 85.3,106.7 "/>
<g>
	<path class="st9" d="M24.3,61.1L24.3,61.1z"/>
	<path d="M20,57.9c-0.8-0.2-2.2-0.4-2.2-1.4c0-1.4,2-1.4,2.5-1.4c1.6,0,2.5,0.6,2.6,1.8c0,0.3,0,0.4,0.5,0.4c0.5,0,0.5-0.1,0.5-0.6
		V55c0-0.4,0-0.6-0.4-0.6c-0.1,0-0.1,0-1,0.4c-0.6-0.3-1.3-0.4-2.2-0.4c-0.7,0-4,0-4,2.9c0,0.9,0.4,1.5,0.9,1.8
		c0.9,0.8,1.7,0.9,3.4,1.2c0.8,0.1,2.4,0.4,2.4,1.7c0,1.6-2,1.6-2.5,1.6c-2.3,0-2.9-1.6-3.2-2.5c-0.1-0.3-0.2-0.3-0.5-0.3
		c-0.5,0-0.5,0.1-0.5,0.6v2.4c0,0.4,0,0.6,0.4,0.6c0.2,0,0.2,0,0.7-0.3c0,0,0.5-0.3,0.6-0.4c1,0.7,2.2,0.7,2.6,0.7
		c0.7,0,4.1,0,4.1-3.2c0-0.9-0.4-1.7-1.2-2.3C22.4,58.3,21.7,58.2,20,57.9"/>
	<path d="M30.4,57.9c0-0.4,0-0.4-0.5-0.4c-1,1-2.4,1-3,1V59c0.4,0,1.4,0,2.2-0.4v7.8c0,0.5,0,0.7-1.5,0.7h-0.6v0.6
		c0.3,0,2.2-0.1,2.7-0.1c0.5,0,2.4,0,2.7,0.1v-0.6H32c-1.5,0-1.5-0.2-1.5-0.7V57.9"/>
</g>
<polygon class="st8" points="89.8,128.2 89.8,128.2 89.8,128.2 89.8,128.2 89.8,128.2 89.8,128.2 89.8,128.2 89.8,128.2 89.8,128.2 
	89.8,128.2 89.8,128.2 89.8,128.2 89.8,128.2 89.8,128.2 89.8,128.2 89.8,128.2 89.8,128.2 89.8,128.2 89.8,128.2 89.8,128.2 
	89.8,128.2 89.8,128.2 89.8,128.2 89.8,128.2 89.8,128.2 89.8,128.2 89.8,128.2 89.8,128.2 89.8,128.2 89.8,128.2 89.8,128.2 
	89.8,128.2 89.8,128.2 89.8,128.2 89.8,128.2 89.8,128.2 89.8,128.2 89.8,128.2 89.8,128.2 89.8,128.2 89.8,128.2 89.8,128.2 
	89.8,128.2 89.8,128.2 89.8,128.2 89.8,128.2 89.8,128.2 89.8,128.2 89.8,128.2 89.8,128.2 89.8,128.2 89.8,128.2 89.8,128.2 
	89.8,128.2 89.8,128.2 89.8,128.2 89.8,128.2 89.8,128.2 89.8,128.2 89.8,128.2 89.8,128.2 89.8,128.2 89.8,128.2 89.8,128.2 
	89.8,128.2 89.8,128.2 89.8,128.2 89.8,128.2 89.8,128.2 89.8,128.2 89.8,128.2 89.8,128.2 89.8,128.2 89.8,128.2 89.8,128.2 
	89.8,128.2 89.8,128.2 89.8,128.2 89.8,128.2 89.8,128.2 89.8,128.2 89.8,128.2 89.8,128.2 89.8,128.2 89.8,128.2 89.8,128.2 "/>
<g>
	<path class="st9" d="M24.3,96.3L24.3,96.3z"/>
	<path d="M19.7,93.1c-0.8-0.2-2.2-0.4-2.2-1.4c0-1.4,2-1.4,2.5-1.4c1.6,0,2.5,0.6,2.6,1.8c0,0.3,0,0.4,0.5,0.4
		c0.5,0,0.5-0.1,0.5-0.6v-1.8c0-0.4,0-0.6-0.4-0.6c-0.1,0-0.1,0-1,0.4c-0.6-0.3-1.3-0.4-2.2-0.4c-0.7,0-4,0-4,2.9
		c0,0.9,0.4,1.5,0.9,1.8c0.9,0.8,1.7,0.9,3.4,1.2c0.8,0.1,2.4,0.4,2.4,1.7c0,1.6-2,1.6-2.5,1.6c-2.3,0-2.9-1.6-3.2-2.5
		C16.9,96,16.8,96,16.4,96c-0.5,0-0.5,0.1-0.5,0.6v2.4c0,0.4,0,0.6,0.4,0.6c0.2,0,0.2,0,0.7-0.3c0,0,0.5-0.3,0.6-0.4
		c1,0.7,2.2,0.7,2.6,0.7c0.7,0,4.1,0,4.1-3.2c0-0.9-0.4-1.7-1.2-2.3C22.1,93.5,21.4,93.4,19.7,93.1"/>
	<path d="M32.8,100.1h-0.5c0,0.3-0.2,1.2-0.4,1.4c-0.1,0.1-1.3,0.1-1.5,0.1h-2.8c1.6-1.4,2.1-1.9,3.1-2.6c1.1-0.9,2.2-1.9,2.2-3.3
		c0-1.9-1.6-3-3.6-3c-1.9,0-3.2,1.3-3.2,2.7c0,0.8,0.7,0.9,0.8,0.9c0.4,0,0.8-0.3,0.8-0.8c0-0.3-0.1-0.8-0.9-0.8
		c0.5-1.1,1.5-1.4,2.2-1.4c1.5,0,2.3,1.2,2.3,2.4c0,1.3-0.9,2.4-1.4,2.9l-3.7,3.6c-0.2,0.1-0.2,0.2-0.2,0.6h6.3L32.8,100.1"/>
</g>
<polygon class="st8" points="113.1,96.2 113.1,96.2 113.1,96.2 113.1,96.2 113.1,96.2 113.1,96.2 113.1,96.2 113.1,96.2 113.1,96.2 
	113.1,96.2 113.1,96.2 113.1,96.2 113.1,96.2 113.1,96.2 113.1,96.2 113.1,96.2 113.1,96.2 113.1,96.2 113.1,96.2 113.1,96.2 
	113.1,96.2 113.1,96.2 113.1,96.2 113.1,96.2 113.1,96.2 113.1,96.2 113.1,96.2 113.1,96.2 113.1,96.2 113.1,96.2 113.1,96.2 
	113.1,96.2 113.1,96.2 113.1,96.2 113.1,96.2 113.1,96.2 113.1,96.2 113.1,96.2 113.1,96.2 113.1,96.2 113.1,96.2 113.1,96.2 
	113.1,96.2 113.1,96.2 113.1,96.2 113.1,96.2 113.1,96.2 113.1,96.2 113.1,96.2 113.1,96.2 113.1,96.2 113.1,96.2 113.1,96.2 
	113.1,96.2 113.1,96.2 113.1,96.2 113.1,96.2 113.1,96.2 113.1,96.2 113.1,96.2 113.1,96.2 113.1,96.2 113.1,96.2 113.1,96.2 
	113.1,96.2 113.1,96.2 113.1,96.2 113.1,96.2 113.1,96.2 113.1,96.2 113.1,96.2 113.1,96.2 113.1,96.2 113.1,96.2 113.1,96.2 
	113.1,96.2 113.1,96.2 113.1,96.2 113.1,96.2 113.1,96.2 113.1,96.2 113.1,96.2 113.1,96.2 113.1,96.2 113.1,96.2 113.1,96.2 "/>
<g>
	<path class="st9" d="M24.2,131.6L24.2,131.6z"/>
	<path d="M19.6,128.1c-0.8-0.2-2.2-0.4-2.2-1.4c0-1.4,2-1.4,2.5-1.4c1.6,0,2.5,0.6,2.6,1.8c0,0.3,0,0.4,0.5,0.4
		c0.5,0,0.5-0.1,0.5-0.6v-1.8c0-0.4,0-0.6-0.4-0.6c-0.1,0-0.1,0-1,0.4c-0.6-0.3-1.3-0.4-2.2-0.4c-0.7,0-4,0-4,2.9
		c0,0.9,0.4,1.5,0.9,1.8c0.9,0.8,1.7,0.9,3.4,1.2c0.8,0.1,2.4,0.4,2.4,1.7c0,1.6-2,1.6-2.5,1.6c-2.3,0-2.9-1.6-3.2-2.5
		c-0.1-0.3-0.2-0.3-0.5-0.3c-0.5,0-0.5,0.1-0.5,0.6v2.4c0,0.4,0,0.6,0.4,0.6c0.2,0,0.2,0,0.7-0.3c0,0,0.5-0.3,0.6-0.4
		c1,0.7,2.2,0.7,2.6,0.7c0.7,0,4.1,0,4.1-3.2c0-0.9-0.4-1.7-1.2-2.3C22.1,128.6,21.4,128.4,19.6,128.1"/>
	<path d="M29.2,132.8c1.2,0,2.1,0.8,2.1,2.5c0,1.9-1.1,2.5-2,2.5c-0.6,0-2-0.2-2.6-1.1c0.7,0,0.9-0.5,0.9-0.9c0-0.5-0.4-0.8-0.8-0.8
		c-0.4,0-0.9,0.3-0.9,0.9c0,1.4,1.6,2.4,3.4,2.4c2.1,0,3.6-1.4,3.6-3c0-1.2-1-2.4-2.7-2.7c1.6-0.6,2.2-1.7,2.2-2.7
		c0-1.2-1.4-2.1-3.1-2.1c-1.7,0-3,0.8-3,2.1c0,0.5,0.3,0.8,0.8,0.8c0.5,0,0.8-0.4,0.8-0.8c0-0.4-0.3-0.8-0.8-0.8
		c0.5-0.7,1.6-0.8,2.2-0.8c0.7,0,1.7,0.3,1.7,1.7c0,0.6-0.2,1.3-0.6,1.8c-0.5,0.6-0.9,0.6-1.7,0.7c-0.4,0-0.4,0-0.5,0
		c0,0-0.2,0-0.2,0.2c0,0.2,0.1,0.2,0.4,0.2H29.2"/>
</g>
<g>
	<path class="st9" d="M111.1,26L111.1,26z"/>
	<path d="M106.5,22.6c-0.8-0.2-2.2-0.4-2.2-1.4c0-1.4,2-1.4,2.5-1.4c1.6,0,2.5,0.6,2.6,1.8c0,0.3,0,0.4,0.5,0.4
		c0.5,0,0.5-0.1,0.5-0.6v-1.8c0-0.4,0-0.6-0.4-0.6c-0.1,0-0.1,0-1,0.4c-0.6-0.3-1.3-0.4-2.2-0.4c-0.7,0-4,0-4,2.9
		c0,0.9,0.4,1.5,0.9,1.8c0.9,0.8,1.7,0.9,3.4,1.2c0.8,0.1,2.4,0.4,2.4,1.7c0,1.6-2,1.6-2.5,1.6c-2.3,0-2.9-1.6-3.2-2.5
		c-0.1-0.3-0.2-0.3-0.5-0.3c-0.5,0-0.5,0.1-0.5,0.6v2.4c0,0.4,0,0.6,0.4,0.6c0.2,0,0.2,0,0.7-0.3c0,0,0.5-0.3,0.6-0.4
		c1,0.7,2.2,0.7,2.6,0.7c0.7,0,4.1,0,4.1-3.2c0-0.9-0.4-1.7-1.2-2.3C108.9,23,108.2,22.9,106.5,22.6"/>
	<path d="M116.2,32.2c-0.7,0-1.6-0.4-1.9-1.7c-0.2-0.9-0.2-2.2-0.2-3.3c0-1.1,0-2.3,0.2-3.1c0.3-1.2,1.3-1.5,1.9-1.5
		c0.8,0,1.6,0.5,1.9,1.4c0.2,0.8,0.3,1.9,0.3,3.3c0,1.1,0,2.3-0.2,3.2C117.8,31.9,116.8,32.2,116.2,32.2 M119.7,27.5
		c0-1.7-0.2-2.9-0.9-4c-0.5-0.7-1.4-1.3-2.6-1.3c-3.6,0-3.6,4.2-3.6,5.3c0,1.1,0,5.2,3.6,5.2C119.7,32.6,119.7,28.6,119.7,27.5z"/>
</g>
<g>
	<path class="st9" d="M111.1,61.2L111.1,61.2z"/>
	<path d="M106.8,57.9c-0.8-0.2-2.2-0.4-2.2-1.4c0-1.4,2-1.4,2.5-1.4c1.6,0,2.5,0.6,2.6,1.8c0,0.3,0,0.4,0.5,0.4
		c0.5,0,0.5-0.1,0.5-0.6v-1.8c0-0.4,0-0.6-0.4-0.6c-0.1,0-0.1,0-1,0.4c-0.6-0.3-1.3-0.4-2.2-0.4c-0.7,0-4,0-4,2.9
		c0,0.9,0.4,1.5,0.9,1.8c0.9,0.8,1.7,0.9,3.4,1.2c0.8,0.1,2.4,0.4,2.4,1.7c0,1.6-2,1.6-2.5,1.6c-2.3,0-2.9-1.6-3.2-2.5
		c-0.1-0.3-0.2-0.3-0.5-0.3c-0.5,0-0.5,0.1-0.5,0.6v2.4c0,0.4,0,0.6,0.4,0.6c0.2,0,0.2,0,0.7-0.3c0,0,0.5-0.3,0.6-0.4
		c1,0.7,2.2,0.7,2.6,0.7c0.7,0,4.1,0,4.1-3.2c0-0.9-0.4-1.7-1.2-2.3C109.2,58.4,108.5,58.2,106.8,57.9"/>
	<path d="M117.3,58c0-0.4,0-0.4-0.5-0.4c-1,1-2.4,1-3,1v0.6c0.4,0,1.4,0,2.2-0.4v7.8c0,0.5,0,0.7-1.5,0.7h-0.6v0.6
		c0.3,0,2.2-0.1,2.7-0.1c0.5,0,2.4,0,2.7,0.1v-0.6h-0.6c-1.5,0-1.5-0.2-1.5-0.7V58"/>
</g>
<g>
	<path class="st9" d="M111.2,96.4L111.2,96.4z"/>
	<path d="M106.6,93.1c-0.8-0.2-2.2-0.4-2.2-1.4c0-1.4,2-1.4,2.5-1.4c1.6,0,2.5,0.6,2.6,1.8c0,0.3,0,0.4,0.5,0.4
		c0.5,0,0.5-0.1,0.5-0.6v-1.8c0-0.4,0-0.6-0.4-0.6c-0.1,0-0.1,0-1,0.4c-0.6-0.3-1.3-0.4-2.2-0.4c-0.7,0-4,0-4,2.9
		c0,0.9,0.4,1.5,0.9,1.8c0.9,0.8,1.7,0.9,3.4,1.2c0.8,0.1,2.4,0.4,2.4,1.7c0,1.6-2,1.6-2.5,1.6c-2.3,0-2.9-1.6-3.2-2.5
		c-0.1-0.3-0.2-0.3-0.5-0.3c-0.5,0-0.5,0.1-0.5,0.6v2.4c0,0.4,0,0.6,0.4,0.6c0.2,0,0.2,0,0.7-0.3c0,0,0.5-0.3,0.6-0.4
		c1,0.7,2.2,0.7,2.6,0.7c0.7,0,4.1,0,4.1-3.2c0-0.9-0.4-1.7-1.2-2.3C109,93.6,108.3,93.4,106.6,93.1"/>
	<path d="M119.6,100.1h-0.5c0,0.3-0.2,1.2-0.4,1.4c-0.1,0.1-1.3,0.1-1.5,0.1h-2.8c1.6-1.4,2.1-1.9,3.1-2.6c1.1-0.9,2.2-1.9,2.2-3.3
		c0-1.9-1.6-3-3.6-3c-1.9,0-3.2,1.3-3.2,2.7c0,0.8,0.7,0.9,0.8,0.9c0.4,0,0.8-0.3,0.8-0.8c0-0.3-0.1-0.8-0.9-0.8
		c0.5-1.1,1.5-1.4,2.2-1.4c1.5,0,2.3,1.2,2.3,2.4c0,1.3-0.9,2.4-1.4,2.9l-3.7,3.6c-0.2,0.1-0.2,0.2-0.2,0.6h6.3L119.6,100.1"/>
</g>
<g>
	<path class="st9" d="M111.1,131.6L111.1,131.6z"/>
	<path d="M106.5,128.2c-0.8-0.2-2.2-0.4-2.2-1.4c0-1.4,2-1.4,2.5-1.4c1.6,0,2.5,0.6,2.6,1.8c0,0.3,0,0.4,0.5,0.4
		c0.5,0,0.5-0.1,0.5-0.6v-1.8c0-0.4,0-0.6-0.4-0.6c-0.1,0-0.1,0-1,0.4c-0.6-0.3-1.3-0.4-2.2-0.4c-0.7,0-4,0-4,2.9
		c0,0.9,0.4,1.5,0.9,1.8c0.9,0.8,1.7,0.9,3.4,1.2c0.8,0.1,2.4,0.4,2.4,1.7c0,1.6-2,1.6-2.5,1.6c-2.3,0-2.9-1.6-3.2-2.5
		c-0.1-0.3-0.2-0.3-0.5-0.3c-0.5,0-0.5,0.1-0.5,0.6v2.4c0,0.4,0,0.6,0.4,0.6c0.2,0,0.2,0,0.7-0.3c0,0,0.5-0.3,0.6-0.4
		c1,0.7,2.2,0.7,2.6,0.7c0.7,0,4.1,0,4.1-3.2c0-0.9-0.4-1.7-1.2-2.3C108.9,128.6,108.2,128.5,106.5,128.2"/>
	<path d="M116,132.8c1.2,0,2.1,0.8,2.1,2.5c0,1.9-1.1,2.5-2,2.5c-0.6,0-2-0.2-2.6-1.1c0.7,0,0.9-0.5,0.9-0.9c0-0.5-0.4-0.8-0.8-0.8
		c-0.4,0-0.9,0.3-0.9,0.9c0,1.4,1.6,2.4,3.4,2.4c2.1,0,3.6-1.4,3.6-3c0-1.2-1-2.4-2.7-2.7c1.6-0.6,2.2-1.7,2.2-2.7
		c0-1.2-1.4-2.1-3.1-2.1c-1.7,0-3,0.8-3,2.1c0,0.5,0.3,0.8,0.8,0.8c0.5,0,0.8-0.4,0.8-0.8c0-0.4-0.3-0.8-0.8-0.8
		c0.5-0.7,1.6-0.8,2.2-0.8c0.7,0,1.7,0.3,1.7,1.7c0,0.6-0.2,1.3-0.6,1.8c-0.5,0.6-0.9,0.6-1.7,0.7c-0.4,0-0.4,0-0.5,0
		c0,0-0.2,0-0.2,0.2c0,0.2,0.1,0.2,0.4,0.2H116"/>
</g>
<polygon class="st8" points="129.3,40 129.3,40 129.3,40 129.3,40 129.3,40 129.3,40 129.3,40 129.3,40 129.3,40 129.3,40 129.3,40 
	129.3,40 129.3,40 129.3,40 129.3,40 129.3,40 129.3,40 129.3,40 129.3,40 129.3,40 129.3,40 129.3,40 129.3,40 129.3,40 129.3,40 
	129.3,40 129.3,40 129.3,40 129.3,40 129.3,40 129.3,40 129.3,40 129.3,40 129.3,40 129.3,40 129.3,40 129.3,40 129.3,40 129.3,40 
	129.3,40 129.3,40 129.3,40 129.3,40 129.3,40 129.3,40 129.3,40 129.3,40 129.3,40 129.3,40 129.3,40 129.3,40 129.3,40 129.3,40 
	129.3,40 129.3,40 129.3,40 129.3,40 129.3,40 129.3,40 129.3,40 129.3,40 129.3,40 129.3,40 129.3,40 129.3,40 129.3,40 129.3,40 
	129.3,40 129.3,40 129.3,40 129.3,40 129.3,40 129.3,40 129.3,40 129.3,40 129.3,40 129.3,40 129.3,40 129.3,40 129.3,40 129.3,40 
	129.3,40 129.3,40 129.3,40 129.3,40 "/>
<g>
	<defs>
		<rect id="SVGID_9_" x="122.1" y="26.4" width="16" height="26"/>
	</defs>
	<clipPath id="SVGID_10_">
		<use xlink:href="#SVGID_9_"  style="overflow:visible;"/>
	</clipPath>
	<path class="st10" d="M130.1,39.4L130.1,39.4z"/>
</g>
<polygon class="st8" points="69.2,14.5 69.2,14.5 69.2,14.5 69.2,14.5 69.2,14.5 69.2,14.5 69.2,14.5 69.2,14.5 69.2,14.5 
	69.2,14.5 69.2,14.5 69.2,14.5 69.2,14.5 69.2,14.5 69.2,14.5 69.2,14.5 69.2,14.5 69.2,14.5 69.2,14.5 69.2,14.5 69.2,14.5 
	69.2,14.5 69.2,14.5 69.2,14.5 69.2,14.5 69.2,14.5 69.2,14.5 69.2,14.5 69.2,14.5 69.2,14.5 69.2,14.5 69.2,14.5 69.2,14.5 
	69.2,14.5 69.2,14.5 69.2,14.5 69.2,14.5 69.2,14.5 69.2,14.5 69.2,14.5 69.2,14.5 69.2,14.5 69.2,14.5 69.2,14.5 69.2,14.5 
	69.2,14.5 69.2,14.5 69.2,14.5 69.2,14.5 69.2,14.5 69.2,14.5 69.2,14.5 69.2,14.5 69.2,14.5 69.2,14.5 69.2,14.5 69.2,14.5 
	69.2,14.5 69.2,14.5 69.2,14.5 69.2,14.5 69.2,14.5 69.2,14.5 69.2,14.5 69.2,14.5 69.2,14.5 69.2,14.5 69.2,14.5 69.2,14.5 
	69.2,14.5 69.2,14.5 69.2,14.5 69.2,14.5 69.2,14.5 69.2,14.5 69.2,14.5 69.2,14.5 69.2,14.5 69.2,14.5 69.2,14.5 69.2,14.5 
	69.2,14.5 69.2,14.5 69.2,14.5 69.2,14.5 69.2,14.5 "/>
<g>
	<path class="st9" d="M69.7,14.2L69.7,14.2z"/>
</g>
<g>
	<path d="M146,32.4c-0.8,0-2-0.5-2.4-2.5c-0.2-1.2-0.2-3.1-0.2-4.3c0-1.3,0-2.7,0.2-3.8c0.4-2.4,1.9-2.6,2.4-2.6
		c0.7,0,2,0.4,2.4,2.4c0.2,1.1,0.2,2.7,0.2,4c0,1.5,0,2.9-0.2,4.3C148.1,31.8,146.9,32.4,146,32.4 M150.3,25.9
		c0-1.6-0.1-3.3-0.8-4.8c-0.9-2-2.6-2.3-3.5-2.3c-1.2,0-2.7,0.5-3.6,2.4c-0.7,1.4-0.8,3-0.8,4.7c0,1.5,0.1,3.4,0.9,4.9
		c0.9,1.7,2.4,2.1,3.4,2.1c1.1,0,2.7-0.4,3.6-2.4C150.2,29.1,150.3,27.5,150.3,25.9z"/>
</g>
<g>
	<path d="M146,67.8c-0.8,0-2-0.5-2.4-2.5c-0.2-1.2-0.2-3.1-0.2-4.3c0-1.3,0-2.7,0.2-3.8c0.4-2.4,1.9-2.6,2.4-2.6
		c0.7,0,2,0.4,2.4,2.4c0.2,1.1,0.2,2.7,0.2,4c0,1.5,0,2.9-0.2,4.3C148.1,67.2,146.9,67.8,146,67.8 M150.3,61.2
		c0-1.6-0.1-3.3-0.8-4.8c-0.9-2-2.6-2.3-3.5-2.3c-1.2,0-2.7,0.5-3.6,2.4c-0.7,1.4-0.8,3-0.8,4.7c0,1.5,0.1,3.4,0.9,4.9
		c0.9,1.7,2.4,2.1,3.4,2.1c1.1,0,2.7-0.4,3.6-2.4C150.2,64.4,150.3,62.8,150.3,61.2z"/>
</g>
<g>
	<path d="M146,103c-0.8,0-2-0.5-2.4-2.5c-0.2-1.2-0.2-3.1-0.2-4.3c0-1.3,0-2.7,0.2-3.8c0.4-2.4,1.9-2.6,2.4-2.6c0.7,0,2,0.4,2.4,2.4
		c0.2,1.1,0.2,2.7,0.2,4c0,1.5,0,2.9-0.2,4.3C148.1,102.4,146.9,103,146,103 M150.3,96.4c0-1.6-0.1-3.3-0.8-4.8
		c-0.9-2-2.6-2.3-3.5-2.3c-1.2,0-2.7,0.5-3.6,2.4c-0.7,1.4-0.8,3-0.8,4.7c0,1.5,0.1,3.4,0.9,4.9c0.9,1.7,2.4,2.1,3.4,2.1
		c1.1,0,2.7-0.4,3.6-2.4C150.2,99.6,150.3,98,150.3,96.4z"/>
</g>
<g>
	<path d="M146,138c-0.8,0-2-0.5-2.4-2.5c-0.2-1.2-0.2-3.1-0.2-4.3c0-1.3,0-2.7,0.2-3.8c0.4-2.4,1.9-2.6,2.4-2.6c0.7,0,2,0.4,2.4,2.4
		c0.2,1.1,0.2,2.7,0.2,4c0,1.5,0,2.9-0.2,4.3C148.1,137.4,146.9,138,146,138 M150.3,131.5c0-1.6-0.1-3.3-0.8-4.8
		c-0.9-2-2.6-2.3-3.5-2.3c-1.2,0-2.7,0.5-3.6,2.4c-0.7,1.4-0.8,3-0.8,4.7c0,1.5,0.1,3.4,0.9,4.9c0.9,1.7,2.4,2.1,3.4,2.1
		c1.1,0,2.7-0.4,3.6-2.4C150.2,134.7,150.3,133.1,150.3,131.5z"/>
</g>
<g>
	<path d="M180.8,138c-0.8,0-2-0.5-2.4-2.5c-0.2-1.2-0.2-3.1-0.2-4.3c0-1.3,0-2.7,0.2-3.8c0.4-2.4,1.9-2.6,2.4-2.6
		c0.7,0,2,0.4,2.4,2.4c0.2,1.1,0.2,2.7,0.2,4c0,1.5,0,2.9-0.2,4.3C182.9,137.4,181.7,138,180.8,138 M185.1,131.5
		c0-1.6-0.1-3.3-0.8-4.8c-0.9-2-2.6-2.3-3.5-2.3c-1.2,0-2.7,0.5-3.6,2.4c-0.7,1.4-0.8,3-0.8,4.7c0,1.5,0.1,3.4,0.9,4.9
		c0.9,1.7,2.4,2.1,3.4,2.1c1.1,0,2.7-0.4,3.6-2.4C185,134.7,185.1,133.1,185.1,131.5z"/>
</g>
<g>
	<path d="M180.8,102.8c-0.8,0-2-0.5-2.4-2.5c-0.2-1.2-0.2-3.1-0.2-4.3c0-1.3,0-2.7,0.2-3.8c0.4-2.4,1.9-2.6,2.4-2.6
		c0.7,0,2,0.4,2.4,2.4c0.2,1.1,0.2,2.7,0.2,4c0,1.5,0,2.9-0.2,4.3C182.9,102.2,181.7,102.8,180.8,102.8 M185.1,96.3
		c0-1.6-0.1-3.3-0.8-4.8c-0.9-2-2.6-2.3-3.5-2.3c-1.2,0-2.7,0.5-3.6,2.4c-0.7,1.4-0.8,3-0.8,4.7c0,1.5,0.1,3.4,0.9,4.9
		c0.9,1.7,2.4,2.1,3.4,2.1c1.1,0,2.7-0.4,3.6-2.4C185,99.5,185.1,97.9,185.1,96.3z"/>
</g>
<g>
	<path d="M180.8,67.6c-0.8,0-2-0.5-2.4-2.5c-0.2-1.2-0.2-3.1-0.2-4.3c0-1.3,0-2.7,0.2-3.8c0.4-2.4,1.9-2.6,2.4-2.6
		c0.7,0,2,0.4,2.4,2.4c0.2,1.1,0.2,2.7,0.2,4c0,1.5,0,2.9-0.2,4.3C182.9,67,181.7,67.6,180.8,67.6 M185.1,61.1
		c0-1.6-0.1-3.3-0.8-4.8c-0.9-2-2.6-2.3-3.5-2.3c-1.2,0-2.7,0.5-3.6,2.4c-0.7,1.4-0.8,3-0.8,4.7c0,1.5,0.1,3.4,0.9,4.9
		c0.9,1.7,2.4,2.1,3.4,2.1c1.1,0,2.7-0.4,3.6-2.4C185,64.3,185.1,62.7,185.1,61.1z"/>
</g>
<g>
	<path d="M180.8,32.4c-0.8,0-2-0.5-2.4-2.5c-0.2-1.2-0.2-3.1-0.2-4.3c0-1.3,0-2.7,0.2-3.8c0.4-2.4,1.9-2.6,2.4-2.6
		c0.7,0,2,0.4,2.4,2.4c0.2,1.1,0.2,2.7,0.2,4c0,1.5,0,2.9-0.2,4.3C182.9,31.8,181.7,32.4,180.8,32.4 M185.1,25.9
		c0-1.6-0.1-3.3-0.8-4.8c-0.9-2-2.6-2.3-3.5-2.3c-1.2,0-2.7,0.5-3.6,2.4c-0.7,1.4-0.8,3-0.8,4.7c0,1.5,0.1,3.4,0.9,4.9
		c0.9,1.7,2.4,2.1,3.4,2.1c1.1,0,2.7-0.4,3.6-2.4C185,29.1,185.1,27.5,185.1,25.9z"/>
</g>
<g>
	<path d="M215.6,32.4c-0.8,0-2-0.5-2.4-2.5c-0.2-1.2-0.2-3.1-0.2-4.3c0-1.3,0-2.7,0.2-3.8c0.4-2.4,1.9-2.6,2.4-2.6
		c0.7,0,2,0.4,2.4,2.4c0.2,1.1,0.2,2.7,0.2,4c0,1.5,0,2.9-0.2,4.3C217.7,31.8,216.5,32.4,215.6,32.4 M219.9,25.9
		c0-1.6-0.1-3.3-0.8-4.8c-0.9-2-2.6-2.3-3.5-2.3c-1.2,0-2.7,0.5-3.6,2.4c-0.7,1.4-0.8,3-0.8,4.7c0,1.5,0.1,3.4,0.9,4.9
		c0.9,1.7,2.4,2.1,3.4,2.1c1.1,0,2.7-0.4,3.6-2.4C219.8,29.1,219.9,27.5,219.9,25.9z"/>
</g>
<g>
	<path d="M215.6,67.8c-0.8,0-2-0.5-2.4-2.5c-0.2-1.2-0.2-3.1-0.2-4.3c0-1.3,0-2.7,0.2-3.8c0.4-2.4,1.9-2.6,2.4-2.6
		c0.7,0,2,0.4,2.4,2.4c0.2,1.1,0.2,2.7,0.2,4c0,1.5,0,2.9-0.2,4.3C217.7,67.2,216.5,67.8,215.6,67.8 M219.9,61.2
		c0-1.6-0.1-3.3-0.8-4.8c-0.9-2-2.6-2.3-3.5-2.3c-1.2,0-2.7,0.5-3.6,2.4c-0.7,1.4-0.8,3-0.8,4.7c0,1.5,0.1,3.4,0.9,4.9
		c0.9,1.7,2.4,2.1,3.4,2.1c1.1,0,2.7-0.4,3.6-2.4C219.8,64.4,219.9,62.8,219.9,61.2z"/>
</g>
<g>
	<path d="M215.6,102.8c-0.8,0-2-0.5-2.4-2.5c-0.2-1.2-0.2-3.1-0.2-4.3c0-1.3,0-2.7,0.2-3.8c0.4-2.4,1.9-2.6,2.4-2.6
		c0.7,0,2,0.4,2.4,2.4c0.2,1.1,0.2,2.7,0.2,4c0,1.5,0,2.9-0.2,4.3C217.7,102.2,216.5,102.8,215.6,102.8 M219.9,96.3
		c0-1.6-0.1-3.3-0.8-4.8c-0.9-2-2.6-2.3-3.5-2.3c-1.2,0-2.7,0.5-3.6,2.4c-0.7,1.4-0.8,3-0.8,4.7c0,1.5,0.1,3.4,0.9,4.9
		c0.9,1.7,2.4,2.1,3.4,2.1c1.1,0,2.7-0.4,3.6-2.4C219.8,99.5,219.9,97.9,219.9,96.3z"/>
</g>
<g>
	<path d="M215.6,137.9c-0.8,0-2-0.5-2.4-2.5c-0.2-1.2-0.2-3.1-0.2-4.3c0-1.3,0-2.7,0.2-3.8c0.4-2.4,1.9-2.6,2.4-2.6
		c0.7,0,2,0.4,2.4,2.4c0.2,1.1,0.2,2.7,0.2,4c0,1.5,0,2.9-0.2,4.3C217.7,137.3,216.5,137.9,215.6,137.9 M219.9,131.3
		c0-1.6-0.1-3.3-0.8-4.8c-0.9-2-2.6-2.3-3.5-2.3c-1.2,0-2.7,0.5-3.6,2.4c-0.7,1.4-0.8,3-0.8,4.7c0,1.5,0.1,3.4,0.9,4.9
		c0.9,1.7,2.4,2.1,3.4,2.1c1.1,0,2.7-0.4,3.6-2.4C219.8,134.6,219.9,133,219.9,131.3z"/>
</g>
<polygon points="80.6,78.7 66.7,70.5 68.5,73.7 56,73.7 56,83.7 68.5,83.7 66.7,86.8 "/>
</svg>
