<?xml version="1.0" encoding="utf-8"?>
<!-- Generator: Adobe Illustrator 25.2.0, SVG Export Plug-In . SVG Version: 6.00 Build 0)  -->
<svg version="1.1" id="Layer_1" xmlns="http://www.w3.org/2000/svg" xmlns:xlink="http://www.w3.org/1999/xlink" x="0px" y="0px"
	 viewBox="0 0 1218.9 484.7" style="enable-background:new 0 0 1218.9 484.7;" xml:space="preserve">
<style type="text/css">
	.st0{fill:#999999;stroke:#000000;stroke-width:3;stroke-miterlimit:10;}
	.st1{fill:none;stroke:#4C4C4D;stroke-width:4;stroke-miterlimit:10;}
	.st2{fill:#4C4C4D;}
	.st3{clip-path:url(#SVGID_2_);}
	.st4{clip-path:url(#SVGID_4_);}
	.st5{fill:#71D3DC;stroke:#000000;stroke-miterlimit:10;}
	.st6{fill:#999999;stroke:#000000;stroke-width:3;stroke-miterlimit:9.9998;}
	.st7{fill:#231F20;}
	.st8{clip-path:url(#SVGID_6_);}
	.st9{clip-path:url(#SVGID_8_);}
</style>
<g id="Layer_2_1_">
	<rect x="45.7" y="82.2" class="st0" width="316.4" height="316.4"/>
	<line class="st1" x1="203.9" y1="410.6" x2="203.9" y2="58.1"/>
	<polygon class="st2" points="211.2,63.7 203.9,60.6 196.4,63.7 203.9,46.2 	"/>
	<line class="st1" x1="32.6" y1="240.7" x2="386.4" y2="240.7"/>
	<polygon class="st2" points="380.8,248.1 384,240.7 380.8,233.2 398.4,240.7 	"/>
	<g>
		<g>
			<g>
				<defs>
					<rect id="SVGID_1_" x="373" y="204.6" width="25.3" height="23.8"/>
				</defs>
				<clipPath id="SVGID_2_">
					<use xlink:href="#SVGID_1_"  style="overflow:visible;"/>
				</clipPath>
				<g class="st3">
					<path d="M382.3,223.4l2-2.9c1.1-1.5,1.1-1.5,1.9-0.1l2,3.1c1,1.4,0.6,1.7-1.1,1.9c-0.2,0-0.4,0.2-0.4,0.4v1.1l0.2,0.1
						c0,0,3.6-0.1,5.9-0.1c1.9,0,4.9,0.1,4.9,0.1l0.1-0.1v-1.2c0-0.2-0.2-0.3-0.5-0.3c-1.8-0.3-2.9-0.9-4.5-3.2l-4.2-6.3
						c-0.3-0.4-0.2-0.5-0.1-0.7l4.3-5.2c1.1-1.3,2.6-2.2,4.3-2.4c0.3-0.1,0.5-0.2,0.5-0.4V206l-0.1-0.1c0,0-2,0.1-3.3,0.1
						c-2.2,0-5.6-0.1-5.6-0.1l-0.1,0.1v1.1c0,0.2,0.1,0.3,0.3,0.3l0,0c1.7,0.1,1.8,0.7,0.8,2.1l-2.4,3.5c-0.3,0.3-0.3,0.4-0.7-0.1
						l-2.3-3.4c-1.1-1.6-0.8-1.8,1.1-2c0.2,0,0.4-0.1,0.4-0.3c0,0,0,0,0-0.1v-1.2l-0.1-0.1c0,0-3.7,0.1-6,0.1
						c-1.9,0-4.9-0.1-4.9-0.1l-0.1,0.1v1.2c0,0.2,0.2,0.3,0.5,0.3c1.7,0,3,1.3,4.4,3.2l4.3,6.1c0.2,0.2,0.2,0.3-0.1,0.7l-4.4,5.5
						c-1.1,1.3-2.7,2.1-4.3,2.3c-0.3,0-0.5,0.2-0.5,0.5v1.1l0.1,0.1c0,0,2.3-0.1,3.8-0.1c2.1,0,5.2,0.1,5.2,0.1l0.2-0.1v-1.1
						c0-0.2-0.2-0.4-0.4-0.4C382.2,225.2,381.1,225,382.3,223.4"/>
				</g>
			</g>
		</g>
	</g>
	<g>
		<g>
			<g>
				<defs>
					<rect id="SVGID_3_" x="216" y="41.2" width="25.3" height="34.3"/>
				</defs>
				<clipPath id="SVGID_4_">
					<use xlink:href="#SVGID_3_"  style="overflow:visible;"/>
				</clipPath>
				<g class="st4">
					<path d="M236.9,47.2c0.8-2,2.2-2.9,3.6-2.9c0.3,0,0.5-0.2,0.5-0.4v-1.1l-0.1-0.1c0,0-1.9,0.1-3.1,0.1c-2.1,0-5.4-0.1-5.4-0.1
						l-0.2,0.1V44c0,0.2,0.2,0.3,0.4,0.3c1.5,0,2.5,0.5,1.9,2.3c-0.9,2.8-2.8,8-4.4,12l-4.5-12.1c-0.5-1.5-0.1-2.2,1.8-2.2
						c0.2,0,0.4-0.1,0.4-0.3l0,0v-1.1l-0.2-0.1c0,0-3.6,0.1-5.8,0.1c-2,0-5.1-0.1-5.1-0.1l-0.1,0.1v1.2c0,0.2,0.2,0.3,0.5,0.3
						c1.9,0,2.5,0.8,3.5,3.2l6.8,16.7l-0.9,2.3c-1.4,3.7-2.6,5.1-3,5.1s-0.6-0.4-0.9-0.8c-0.5-0.6-1.2-1.1-2-1.2
						c-1.4-0.1-2.7,1-2.8,2.4v0.1c0,2,2.6,2.6,3.7,2.6c3.8,0,5.9-3.7,7.5-7.7L236.9,47.2"/>
				</g>
			</g>
		</g>
	</g>
	<polygon class="st5" points="348.9,240.3 318.1,227.4 322.1,236.8 85.6,236.8 89.6,227.4 58.8,240.3 89.6,253.3 85.6,243.8 
		322.1,243.8 318.1,253.3 	"/>
	
		<rect x="751.2" y="82.5" transform="matrix(0.7071 -0.7071 0.7071 0.7071 96.1084 713.5037)" class="st6" width="316.3" height="316.4"/>
	<line class="st1" x1="1029.8" y1="361.1" x2="780.5" y2="111.8"/>
	<polygon class="st2" points="789.8,110.5 782.3,113.5 779.3,121 772.1,103.3 	"/>
	<line class="st1" x1="788.5" y1="362" x2="1038.7" y2="111.8"/>
	<polygon class="st2" points="1040,121 1037,113.5 1029.5,110.5 1047.2,103.3 	"/>
	<polygon class="st5" points="1054.6,240.9 1023.9,227.9 1027.9,237.4 791.3,237.4 795.4,227.9 764.6,240.9 795.4,253.9 
		791.3,244.4 1027.9,244.4 1023.9,253.9 	"/>
	<path class="st7" d="M543.6,222c-0.3-0.3-0.5-0.8-0.4-1.3c-0.1-0.5,0.1-1,0.4-1.4c2.7,0.1,5.1,0.2,7.3,0.2c1.6,0,3.5-0.1,5.6-0.2
		c0.3,0.4,0.4,0.9,0.4,1.4c0.1,0.5-0.1,1-0.4,1.3c-1.6,0-3.1,0.5-4.3,1.5c-1.1,1.3-2,2.8-2.5,4.4L539,253c-0.5,1.2-1.2,1.9-1.9,1.9
		c-0.9,0-1.6-0.6-2-1.7l-10.2-25.3c-0.5-1.6-1.3-3.1-2.4-4.4c-1.2-0.9-2.6-1.4-4-1.4c-0.3-0.3-0.5-0.8-0.4-1.3
		c-0.1-0.5,0.1-1,0.4-1.4c3.2,0.1,5.7,0.2,7.4,0.2s4.6-0.1,8.1-0.2c0.3,0.4,0.4,0.9,0.4,1.4c0,0.4-0.1,0.9-0.4,1.2
		c-2,0.3-3.1,0.7-3.4,1.4s0,2,0.9,3.9l5.8,15.4c0.7,1.6,1.2,2.5,1.5,2.6s0.8-0.7,1.5-2.3l6.5-15.7c0.9-2,1.1-3.4,0.7-4.1
		S545.7,222.2,543.6,222z"/>
	<path class="st7" d="M561.1,242.8c0.3-0.3,0.8-0.4,1.2-0.4s0.9,0.1,1.2,0.3c0.9,3.6,1.9,6.1,3.1,7.4c1.2,1.3,3.1,1.9,5.7,1.9
		c1.7,0,3.3-0.5,4.7-1.4s2.2-2.5,2.1-4.1c0.1-1.6-0.5-3.1-1.6-4.3c-1.1-1.1-3.3-2.3-6.5-3.6s-5.5-2.8-6.8-4.3
		c-1.4-1.9-2.2-4.2-2-6.6c0-2.5,1.3-4.9,3.4-6.4c2.3-1.7,5.1-2.7,7.9-2.6c1.3,0,2.5,0.1,3.8,0.3s2.6,0.4,4,0.7s2.3,0.5,2.7,0.5
		c-0.1,2.8-0.3,5.7-0.5,8.5c-0.4,0.3-0.8,0.4-1.3,0.4s-0.9-0.1-1.3-0.3c-0.2-1.4-0.6-2.8-1.3-4c-0.5-0.9-1.3-1.7-2.2-2.3
		c-0.7-0.4-1.4-0.7-2.2-0.9c-0.6-0.2-1.2-0.2-1.8-0.2c-1.4,0-2.8,0.5-3.9,1.4c-1.1,0.9-1.8,2.3-1.7,3.7c-0.1,1.7,0.5,3.3,1.8,4.4
		c1.9,1.3,4,2.3,6.2,3c6.3,2.3,9.4,5.9,9.4,10.6c0,1.7-0.4,3.4-1.3,4.9c-0.8,1.3-2,2.4-3.4,3.2c-1.3,0.7-2.7,1.2-4.1,1.5
		c-1.3,0.3-2.6,0.5-3.9,0.5c-2.4,0-4.9-0.3-7.3-0.9c-0.5-0.1-1.1-0.2-1.6-0.1c-0.7,0-1.3,0.1-2,0.2
		C561.7,251.1,561.5,247.4,561.1,242.8z"/>
	<path class="st7" d="M594.3,253.4c-0.8-0.8-1.3-1.9-1.2-3c0-1.1,0.4-2.2,1.2-3s1.9-1.3,3-1.2c2.3,0,4.2,1.9,4.2,4.2
		c0,1.1-0.4,2.2-1.2,3s-1.9,1.2-3,1.2C596.2,254.6,595.1,254.2,594.3,253.4z"/>
</g>
<g>
	<g>
		<g>
			<defs>
				<rect id="SVGID_5_" x="1054.6" y="75.5" width="40.3" height="41.9"/>
			</defs>
			<clipPath id="SVGID_6_">
				<use xlink:href="#SVGID_5_"  style="overflow:visible;"/>
			</clipPath>
			<g class="st8">
				<path d="M1064.4,112.8l2.1-3c1.1-1.6,1.2-1.6,2-0.2l2.1,3.2c1,1.5,0.6,1.8-1.2,2c-0.2,0-0.4,0.2-0.4,0.4v1.2l0.2,0.1
					c0,0,3.7-0.1,6.1-0.1c2,0,5,0.1,5,0.1l0.2-0.1v-1.2c0-0.2-0.2-0.3-0.5-0.3c-1.9-0.3-3-1-4.7-3.3l-4.4-6.6
					c-0.3-0.4-0.2-0.6-0.1-0.8l4.5-5.4c1.1-1.4,2.7-2.3,4.5-2.4c0.3-0.1,0.5-0.2,0.5-0.4v-1.2l-0.1-0.1c0,0-2.1,0.1-3.4,0.1
					c-2.3,0-5.8-0.1-5.8-0.1l-0.2,0.2V96c0,0.2,0.1,0.3,0.3,0.3l0,0c1.8,0.2,1.9,0.7,0.8,2.2l-2.5,3.6c-0.3,0.3-0.3,0.4-0.8-0.2
					l-2.4-3.5c-1.2-1.7-0.8-1.9,1.1-2.1c0.2,0,0.4-0.1,0.4-0.3v-0.1v-1.2l-0.2-0.1c0,0-3.8,0.1-6.2,0.1c-1.9,0-5.1-0.1-5.1-0.1
					l-0.2,0.1V96c0,0.2,0.3,0.3,0.5,0.3c1.8,0,3.2,1.3,4.6,3.3l4.5,6.4c0.2,0.3,0.2,0.3-0.2,0.8l-4.6,5.7c-1.1,1.3-2.8,2.2-4.5,2.3
					c-0.3,0-0.6,0.2-0.6,0.5v1.1l0.1,0.1c0,0,2.4-0.1,3.9-0.1c2.2,0,5.5,0.1,5.5,0.1l0.2-0.1v-1.2c0-0.2-0.2-0.3-0.4-0.4
					C1064.4,114.7,1063.3,114.5,1064.4,112.8"/>
				<path d="M1094.9,79.2c-0.1-1.4-1.4-2.4-2.8-2.4c-1.5,0-2.2,1.5-2.6,2.7l-4.2,12.3c-0.2,0.5-0.3,0.9-0.4,1.4
					c0,0.4,0.2,0.9,0.7,0.9c0.6,0,1.3-0.9,1.6-1.3l6.6-10.5C1094.4,81.3,1094.8,80.3,1094.9,79.2"/>
			</g>
		</g>
	</g>
</g>
<g>
	<g>
		<g>
			<defs>
				<rect id="SVGID_7_" x="743.7" y="49.1" width="41.9" height="52.7"/>
			</defs>
			<clipPath id="SVGID_8_">
				<use xlink:href="#SVGID_7_"  style="overflow:visible;"/>
			</clipPath>
			<g class="st9">
				<path d="M765.6,73c0.8-2.1,2.3-3,3.8-3c0.3,0,0.5-0.2,0.6-0.4v-1.2l-0.1-0.1c0,0-2,0.1-3.2,0.1c-2.2,0-5.6-0.1-5.6-0.1l-0.2,0.2
					v1.2c0,0.2,0.2,0.4,0.4,0.3c1.6,0,2.6,0.6,2,2.3c-0.9,2.9-2.9,8.3-4.6,12.5L754,72.3c-0.6-1.6-0.2-2.2,1.8-2.2
					c0.2,0,0.4-0.1,0.4-0.3c0,0,0,0,0-0.1v-1.2l-0.2-0.1c0,0-3.7,0.1-6,0.1c-2,0-5.3-0.1-5.3-0.1l-0.2,0.1v1.2
					c0,0.2,0.2,0.3,0.5,0.3c2,0,2.6,0.8,3.6,3.3l7.1,17.4l-0.9,2.4c-1.4,3.9-2.8,5.3-3.1,5.3s-0.7-0.4-1-0.9
					c-0.5-0.7-1.3-1.1-2.1-1.2c-1.5-0.2-2.8,0.9-3,2.4c0,0.1,0,0.1,0,0.2c0,2,2.8,2.7,3.8,2.7c4,0,6.2-3.9,7.9-8L765.6,73"/>
				<path d="M784.3,52.8c-0.1-1.4-1.4-2.4-2.8-2.4c-1.5,0-2.2,1.5-2.6,2.7l-4.2,12.3c-0.2,0.5-0.3,0.9-0.4,1.4
					c0,0.4,0.2,0.8,0.6,0.8c0.6,0,1.3-0.8,1.6-1.3l6.7-10.5C783.8,55,784.2,53.9,784.3,52.8"/>
			</g>
		</g>
	</g>
</g>
</svg>
