<?xml version="1.0" encoding="utf-8" standalone="no"?>
<!DOCTYPE svg PUBLIC "-//W3C//DTD SVG 1.1//EN"
  "http://www.w3.org/Graphics/SVG/1.1/DTD/svg11.dtd">
<!-- Created with matplotlib (https://matplotlib.org/) -->
<svg height="335.403437pt" version="1.1" viewBox="0 0 1058.49375 335.403437" width="1058.49375pt" xmlns="http://www.w3.org/2000/svg" xmlns:xlink="http://www.w3.org/1999/xlink">
 <defs>
  <style type="text/css">
*{stroke-linecap:butt;stroke-linejoin:round;}
  </style>
 </defs>
 <g id="figure_1">
  <g id="patch_1">
   <path d="M 0 335.403437 
L 1058.49375 335.403437 
L 1058.49375 0 
L 0 0 
z
" style="fill:#ffffff;"/>
  </g>
  <g id="axes_1">
   <g id="patch_2">
    <path d="M 26.08375 297.077187 
L 508.32125 297.077187 
L 508.32125 19.677188 
L 26.08375 19.677188 
z
" style="fill:#ffffff;"/>
   </g>
   <g id="matplotlib.axis_1">
    <g id="xtick_1">
     <g id="line2d_1">
      <defs>
       <path d="M 0 0 
L 0 3.5 
" id="m7450aaf3d6" style="stroke:#000000;stroke-width:0.8;"/>
      </defs>
      <g>
       <use style="stroke:#000000;stroke-width:0.8;" x="26.08375" xlink:href="#m7450aaf3d6" y="297.077187"/>
      </g>
     </g>
     <g id="text_1">
      <!-- 0˚ -->
      <defs>
       <path d="M 31.78125 3.421875 
Q 39.265625 3.421875 42.96875 11.625 
Q 46.6875 19.828125 46.6875 36.375 
Q 46.6875 52.984375 42.96875 61.1875 
Q 39.265625 69.390625 31.78125 69.390625 
Q 24.3125 69.390625 20.59375 61.1875 
Q 16.890625 52.984375 16.890625 36.375 
Q 16.890625 19.828125 20.59375 11.625 
Q 24.3125 3.421875 31.78125 3.421875 
z
M 31.78125 -1.421875 
Q 19.921875 -1.421875 13.25 8.53125 
Q 6.59375 18.5 6.59375 36.375 
Q 6.59375 54.296875 13.25 64.25 
Q 19.921875 74.21875 31.78125 74.21875 
Q 43.703125 74.21875 50.34375 64.25 
Q 56.984375 54.296875 56.984375 36.375 
Q 56.984375 18.5 50.34375 8.53125 
Q 43.703125 -1.421875 31.78125 -1.421875 
z
" id="DejaVuSerif-48"/>
       <path d="M 38.375 74.421875 
Q 38.375 68.796875 34.484375 64.890625 
Q 30.609375 60.984375 25 60.984375 
Q 19.390625 60.984375 15.5 64.890625 
Q 11.625 68.796875 11.625 74.421875 
Q 11.625 80.03125 15.5 83.90625 
Q 19.390625 87.796875 25 87.796875 
Q 30.609375 87.796875 34.484375 83.90625 
Q 38.375 80.03125 38.375 74.421875 
z
M 32.421875 74.421875 
Q 32.421875 77.484375 30.265625 79.625 
Q 28.125 81.78125 25 81.78125 
Q 21.828125 81.78125 19.703125 79.65625 
Q 17.578125 77.546875 17.578125 74.421875 
Q 17.578125 71.234375 19.703125 69.109375 
Q 21.828125 67 25 67 
Q 28.125 67 30.265625 69.140625 
Q 32.421875 71.296875 32.421875 74.421875 
z
" id="DejaVuSerif-730"/>
      </defs>
      <g transform="translate(19.26625 313.195312)scale(0.12 -0.12)">
       <use xlink:href="#DejaVuSerif-48"/>
       <use x="63.623047" xlink:href="#DejaVuSerif-730"/>
      </g>
     </g>
    </g>
    <g id="xtick_2">
     <g id="line2d_2">
      <g>
       <use style="stroke:#000000;stroke-width:0.8;" x="186.829583" xlink:href="#m7450aaf3d6" y="297.077187"/>
      </g>
     </g>
     <g id="text_2">
      <!-- 30˚ -->
      <defs>
       <path d="M 9.71875 69.828125 
Q 15.4375 71.96875 20.671875 73.09375 
Q 25.921875 74.21875 30.515625 74.21875 
Q 41.21875 74.21875 47.21875 69.59375 
Q 53.21875 64.984375 53.21875 56.78125 
Q 53.21875 50.203125 49.0625 45.78125 
Q 44.921875 41.359375 37.3125 39.796875 
Q 46.296875 38.53125 51.25 33.28125 
Q 56.203125 28.03125 56.203125 19.671875 
Q 56.203125 9.46875 49.34375 4.015625 
Q 42.484375 -1.421875 29.59375 -1.421875 
Q 23.875 -1.421875 18.421875 -0.1875 
Q 12.984375 1.03125 7.625 3.515625 
L 7.625 17.671875 
L 13.09375 17.671875 
Q 13.578125 10.640625 17.828125 7.03125 
Q 22.078125 3.421875 29.78125 3.421875 
Q 37.25 3.421875 41.578125 7.734375 
Q 45.90625 12.0625 45.90625 19.578125 
Q 45.90625 28.171875 41.453125 32.59375 
Q 37.015625 37.015625 28.421875 37.015625 
L 23.78125 37.015625 
L 23.78125 42 
L 26.21875 42 
Q 34.765625 42 39.03125 45.53125 
Q 43.3125 49.078125 43.3125 56.203125 
Q 43.3125 62.59375 39.796875 65.984375 
Q 36.28125 69.390625 29.6875 69.390625 
Q 23.09375 69.390625 19.453125 66.265625 
Q 15.828125 63.140625 15.1875 56.984375 
L 9.71875 56.984375 
z
" id="DejaVuSerif-51"/>
      </defs>
      <g transform="translate(176.194583 313.195312)scale(0.12 -0.12)">
       <use xlink:href="#DejaVuSerif-51"/>
       <use x="63.623047" xlink:href="#DejaVuSerif-48"/>
       <use x="127.246094" xlink:href="#DejaVuSerif-730"/>
      </g>
     </g>
    </g>
    <g id="xtick_3">
     <g id="line2d_3">
      <g>
       <use style="stroke:#000000;stroke-width:0.8;" x="347.575417" xlink:href="#m7450aaf3d6" y="297.077187"/>
      </g>
     </g>
     <g id="text_3">
      <!-- 60˚ -->
      <defs>
       <path d="M 32.71875 3.421875 
Q 39.59375 3.421875 43.296875 8.46875 
Q 47.015625 13.53125 47.015625 23 
Q 47.015625 32.46875 43.296875 37.515625 
Q 39.59375 42.578125 32.71875 42.578125 
Q 25.734375 42.578125 22.0625 37.6875 
Q 18.40625 32.8125 18.40625 23.578125 
Q 18.40625 13.875 22.109375 8.640625 
Q 25.828125 3.421875 32.71875 3.421875 
z
M 16.796875 40.140625 
Q 20.125 43.796875 24.3125 45.59375 
Q 28.515625 47.40625 33.796875 47.40625 
Q 44.671875 47.40625 51 40.859375 
Q 57.328125 34.328125 57.328125 23 
Q 57.328125 11.921875 50.515625 5.25 
Q 43.703125 -1.421875 32.328125 -1.421875 
Q 19.96875 -1.421875 13.328125 7.78125 
Q 6.6875 17 6.6875 34.078125 
Q 6.6875 53.21875 14.546875 63.71875 
Q 22.40625 74.21875 36.71875 74.21875 
Q 40.578125 74.21875 44.828125 73.484375 
Q 49.078125 72.75 53.515625 71.296875 
L 53.515625 59.28125 
L 48 59.28125 
Q 47.40625 64.203125 44.234375 66.796875 
Q 41.0625 69.390625 35.6875 69.390625 
Q 26.21875 69.390625 21.578125 62.203125 
Q 16.9375 55.03125 16.796875 40.140625 
z
" id="DejaVuSerif-54"/>
      </defs>
      <g transform="translate(336.940417 313.195312)scale(0.12 -0.12)">
       <use xlink:href="#DejaVuSerif-54"/>
       <use x="63.623047" xlink:href="#DejaVuSerif-48"/>
       <use x="127.246094" xlink:href="#DejaVuSerif-730"/>
      </g>
     </g>
    </g>
    <g id="xtick_4">
     <g id="line2d_4">
      <g>
       <use style="stroke:#000000;stroke-width:0.8;" x="508.32125" xlink:href="#m7450aaf3d6" y="297.077187"/>
      </g>
     </g>
     <g id="text_4">
      <!-- 90˚ -->
      <defs>
       <path d="M 46.78125 32.671875 
Q 43.5 29 39.25 27.1875 
Q 35.015625 25.390625 29.6875 25.390625 
Q 18.84375 25.390625 12.5625 31.9375 
Q 6.296875 38.484375 6.296875 49.8125 
Q 6.296875 60.890625 13.109375 67.546875 
Q 19.921875 74.21875 31.296875 74.21875 
Q 43.65625 74.21875 50.265625 65.015625 
Q 56.890625 55.8125 56.890625 38.71875 
Q 56.890625 19.578125 49.015625 9.078125 
Q 41.15625 -1.421875 26.90625 -1.421875 
Q 23.046875 -1.421875 18.796875 -0.6875 
Q 14.546875 0.046875 10.109375 1.515625 
L 10.109375 13.625 
L 15.578125 13.625 
Q 16.21875 8.6875 19.390625 6.046875 
Q 22.5625 3.421875 27.875 3.421875 
Q 37.359375 3.421875 41.984375 10.5625 
Q 46.625 17.71875 46.78125 32.671875 
z
M 30.90625 69.390625 
Q 23.96875 69.390625 20.28125 64.328125 
Q 16.609375 59.28125 16.609375 49.8125 
Q 16.609375 40.328125 20.28125 35.25 
Q 23.96875 30.171875 30.90625 30.171875 
Q 37.84375 30.171875 41.53125 35.078125 
Q 45.21875 39.984375 45.21875 49.21875 
Q 45.21875 58.9375 41.5 64.15625 
Q 37.796875 69.390625 30.90625 69.390625 
z
" id="DejaVuSerif-57"/>
      </defs>
      <g transform="translate(497.68625 313.195312)scale(0.12 -0.12)">
       <use xlink:href="#DejaVuSerif-57"/>
       <use x="63.623047" xlink:href="#DejaVuSerif-48"/>
       <use x="127.246094" xlink:href="#DejaVuSerif-730"/>
      </g>
     </g>
    </g>
    <g id="text_5">
     <!-- Angle of incidence -->
     <defs>
      <path d="M 20.015625 26.421875 
L 46.78125 26.421875 
L 33.40625 61.078125 
z
M -0.59375 0 
L -0.59375 5.171875 
L 5.8125 5.171875 
L 31.78125 72.90625 
L 39.984375 72.90625 
L 66.015625 5.171875 
L 73.1875 5.171875 
L 73.1875 0 
L 46.6875 0 
L 46.6875 5.171875 
L 54.78125 5.171875 
L 48.6875 21.1875 
L 18.015625 21.1875 
L 11.921875 5.171875 
L 19.921875 5.171875 
L 19.921875 0 
z
" id="DejaVuSerif-65"/>
      <path d="M 4.109375 0 
L 4.109375 5.171875 
L 12.203125 5.171875 
L 12.203125 46.6875 
L 3.609375 46.6875 
L 3.609375 51.90625 
L 21.1875 51.90625 
L 21.1875 42.671875 
Q 23.6875 47.953125 27.65625 50.640625 
Q 31.640625 53.328125 36.921875 53.328125 
Q 45.515625 53.328125 49.5625 48.390625 
Q 53.609375 43.453125 53.609375 33.015625 
L 53.609375 5.171875 
L 61.625 5.171875 
L 61.625 0 
L 36.8125 0 
L 36.8125 5.171875 
L 44.578125 5.171875 
L 44.578125 30.171875 
Q 44.578125 39.703125 42.234375 43.234375 
Q 39.890625 46.78125 33.984375 46.78125 
Q 27.734375 46.78125 24.453125 42.203125 
Q 21.1875 37.640625 21.1875 28.90625 
L 21.1875 5.171875 
L 29 5.171875 
L 29 0 
z
" id="DejaVuSerif-110"/>
      <path d="M 52.484375 46.6875 
L 52.484375 1.125 
Q 52.484375 -10.0625 46.328125 -16.140625 
Q 40.1875 -22.21875 28.8125 -22.21875 
Q 23.6875 -22.21875 19 -21.28125 
Q 14.3125 -20.359375 10.015625 -18.5 
L 10.015625 -7.625 
L 14.703125 -7.625 
Q 15.578125 -12.703125 18.84375 -15.046875 
Q 22.125 -17.390625 28.21875 -17.390625 
Q 36.140625 -17.390625 39.8125 -12.921875 
Q 43.5 -8.453125 43.5 1.125 
L 43.5 8.109375 
Q 40.875 3.21875 36.796875 0.890625 
Q 32.71875 -1.421875 26.703125 -1.421875 
Q 17.140625 -1.421875 11.0625 6.171875 
Q 4.984375 13.765625 4.984375 25.984375 
Q 4.984375 38.1875 11.03125 45.75 
Q 17.09375 53.328125 26.703125 53.328125 
Q 32.71875 53.328125 36.796875 51 
Q 40.875 48.6875 43.5 43.796875 
L 43.5 51.90625 
L 61.078125 51.90625 
L 61.078125 46.6875 
z
M 43.5 28.515625 
Q 43.5 37.84375 39.90625 42.765625 
Q 36.328125 47.703125 29.5 47.703125 
Q 22.5625 47.703125 19.015625 42.234375 
Q 15.484375 36.765625 15.484375 25.984375 
Q 15.484375 15.234375 19.015625 9.71875 
Q 22.5625 4.203125 29.5 4.203125 
Q 36.328125 4.203125 39.90625 9.109375 
Q 43.5 14.015625 43.5 23.390625 
z
" id="DejaVuSerif-103"/>
      <path d="M 20.515625 5.171875 
L 29 5.171875 
L 29 0 
L 2.875 0 
L 2.875 5.171875 
L 11.53125 5.171875 
L 11.53125 70.796875 
L 2.875 70.796875 
L 2.875 75.984375 
L 20.515625 75.984375 
z
" id="DejaVuSerif-108"/>
      <path d="M 54.203125 25 
L 15.484375 25 
L 15.484375 24.609375 
Q 15.484375 14.109375 19.4375 8.765625 
Q 23.390625 3.421875 31.109375 3.421875 
Q 37.015625 3.421875 40.796875 6.515625 
Q 44.578125 9.625 46.09375 15.71875 
L 53.328125 15.71875 
Q 51.171875 7.171875 45.375 2.875 
Q 39.59375 -1.421875 30.171875 -1.421875 
Q 18.796875 -1.421875 11.890625 6.078125 
Q 4.984375 13.578125 4.984375 25.984375 
Q 4.984375 38.28125 11.765625 45.796875 
Q 18.5625 53.328125 29.59375 53.328125 
Q 41.359375 53.328125 47.65625 46.0625 
Q 53.953125 38.8125 54.203125 25 
z
M 43.609375 30.171875 
Q 43.3125 39.265625 39.765625 43.875 
Q 36.234375 48.484375 29.59375 48.484375 
Q 23.390625 48.484375 19.828125 43.84375 
Q 16.265625 39.203125 15.484375 30.171875 
z
" id="DejaVuSerif-101"/>
      <path id="DejaVuSerif-32"/>
      <path d="M 30.078125 3.421875 
Q 37.3125 3.421875 40.984375 9.125 
Q 44.671875 14.84375 44.671875 25.984375 
Q 44.671875 37.109375 40.984375 42.796875 
Q 37.3125 48.484375 30.078125 48.484375 
Q 22.859375 48.484375 19.171875 42.796875 
Q 15.484375 37.109375 15.484375 25.984375 
Q 15.484375 14.84375 19.1875 9.125 
Q 22.90625 3.421875 30.078125 3.421875 
z
M 30.078125 -1.421875 
Q 18.75 -1.421875 11.859375 6.078125 
Q 4.984375 13.578125 4.984375 25.984375 
Q 4.984375 38.375 11.84375 45.84375 
Q 18.703125 53.328125 30.078125 53.328125 
Q 41.453125 53.328125 48.3125 45.84375 
Q 55.171875 38.375 55.171875 25.984375 
Q 55.171875 13.578125 48.3125 6.078125 
Q 41.453125 -1.421875 30.078125 -1.421875 
z
" id="DejaVuSerif-111"/>
      <path d="M 43.015625 63.71875 
L 38.28125 63.71875 
Q 38.234375 67.390625 36.203125 69.28125 
Q 34.1875 71.1875 30.328125 71.1875 
Q 25.296875 71.1875 23.234375 68.421875 
Q 21.1875 65.671875 21.1875 58.59375 
L 21.1875 51.90625 
L 35.6875 51.90625 
L 35.6875 46.6875 
L 21.1875 46.6875 
L 21.1875 5.171875 
L 32.71875 5.171875 
L 32.71875 0 
L 3.609375 0 
L 3.609375 5.171875 
L 12.203125 5.171875 
L 12.203125 46.6875 
L 3.609375 46.6875 
L 3.609375 51.90625 
L 12.203125 51.90625 
L 12.203125 58.40625 
Q 12.203125 67.09375 16.71875 71.53125 
Q 21.234375 75.984375 29.984375 75.984375 
Q 33.25 75.984375 36.515625 75.390625 
Q 39.796875 74.8125 43.015625 73.578125 
z
" id="DejaVuSerif-102"/>
      <path d="M 9.71875 68.015625 
Q 9.71875 70.265625 11.34375 71.921875 
Q 12.984375 73.578125 15.28125 73.578125 
Q 17.53125 73.578125 19.15625 71.921875 
Q 20.796875 70.265625 20.796875 68.015625 
Q 20.796875 65.71875 19.1875 64.109375 
Q 17.578125 62.5 15.28125 62.5 
Q 12.984375 62.5 11.34375 64.109375 
Q 9.71875 65.71875 9.71875 68.015625 
z
M 21.1875 5.171875 
L 29.6875 5.171875 
L 29.6875 0 
L 3.609375 0 
L 3.609375 5.171875 
L 12.203125 5.171875 
L 12.203125 46.6875 
L 3.609375 46.6875 
L 3.609375 51.90625 
L 21.1875 51.90625 
z
" id="DejaVuSerif-105"/>
      <path d="M 51.421875 15.578125 
Q 49.515625 7.28125 44.09375 2.921875 
Q 38.671875 -1.421875 30.078125 -1.421875 
Q 18.75 -1.421875 11.859375 6.078125 
Q 4.984375 13.578125 4.984375 25.984375 
Q 4.984375 38.421875 11.859375 45.875 
Q 18.75 53.328125 30.078125 53.328125 
Q 35.015625 53.328125 39.890625 52.171875 
Q 44.78125 51.03125 49.703125 48.6875 
L 49.703125 35.40625 
L 44.484375 35.40625 
Q 43.453125 42.234375 40.015625 45.359375 
Q 36.578125 48.484375 30.171875 48.484375 
Q 22.90625 48.484375 19.1875 42.84375 
Q 15.484375 37.203125 15.484375 25.984375 
Q 15.484375 14.75 19.171875 9.078125 
Q 22.859375 3.421875 30.171875 3.421875 
Q 35.984375 3.421875 39.453125 6.4375 
Q 42.921875 9.46875 44.1875 15.578125 
z
" id="DejaVuSerif-99"/>
      <path d="M 52.484375 5.171875 
L 61.078125 5.171875 
L 61.078125 0 
L 43.5 0 
L 43.5 8.109375 
Q 40.875 3.21875 36.796875 0.890625 
Q 32.71875 -1.421875 26.703125 -1.421875 
Q 17.140625 -1.421875 11.0625 6.171875 
Q 4.984375 13.765625 4.984375 25.984375 
Q 4.984375 38.1875 11.03125 45.75 
Q 17.09375 53.328125 26.703125 53.328125 
Q 32.71875 53.328125 36.796875 51 
Q 40.875 48.6875 43.5 43.796875 
L 43.5 70.796875 
L 35.015625 70.796875 
L 35.015625 75.984375 
L 52.484375 75.984375 
z
M 43.5 23.390625 
L 43.5 28.515625 
Q 43.5 37.84375 39.90625 42.765625 
Q 36.328125 47.703125 29.5 47.703125 
Q 22.5625 47.703125 19.015625 42.234375 
Q 15.484375 36.765625 15.484375 25.984375 
Q 15.484375 15.234375 19.015625 9.71875 
Q 22.5625 4.203125 29.5 4.203125 
Q 36.328125 4.203125 39.90625 9.109375 
Q 43.5 14.015625 43.5 23.390625 
z
" id="DejaVuSerif-100"/>
     </defs>
     <g transform="translate(192.02125 331.848437)scale(0.16 -0.16)">
      <use xlink:href="#DejaVuSerif-65"/>
      <use x="72.216797" xlink:href="#DejaVuSerif-110"/>
      <use x="136.621094" xlink:href="#DejaVuSerif-103"/>
      <use x="200.634766" xlink:href="#DejaVuSerif-108"/>
      <use x="232.617188" xlink:href="#DejaVuSerif-101"/>
      <use x="291.796875" xlink:href="#DejaVuSerif-32"/>
      <use x="323.583984" xlink:href="#DejaVuSerif-111"/>
      <use x="383.789062" xlink:href="#DejaVuSerif-102"/>
      <use x="420.800781" xlink:href="#DejaVuSerif-32"/>
      <use x="452.587891" xlink:href="#DejaVuSerif-105"/>
      <use x="484.570312" xlink:href="#DejaVuSerif-110"/>
      <use x="548.974609" xlink:href="#DejaVuSerif-99"/>
      <use x="604.980469" xlink:href="#DejaVuSerif-105"/>
      <use x="636.962891" xlink:href="#DejaVuSerif-100"/>
      <use x="700.976562" xlink:href="#DejaVuSerif-101"/>
      <use x="760.15625" xlink:href="#DejaVuSerif-110"/>
      <use x="824.560547" xlink:href="#DejaVuSerif-99"/>
      <use x="880.566406" xlink:href="#DejaVuSerif-101"/>
     </g>
    </g>
   </g>
   <g id="matplotlib.axis_2">
    <g id="ytick_1">
     <g id="line2d_5">
      <defs>
       <path d="M 0 0 
L -3.5 0 
" id="me552ee4168" style="stroke:#000000;stroke-width:0.8;"/>
      </defs>
      <g>
       <use style="stroke:#000000;stroke-width:0.8;" x="26.08375" xlink:href="#me552ee4168" y="284.468097"/>
      </g>
     </g>
     <g id="text_6">
      <!-- 0 -->
      <g transform="translate(11.44875 289.027159)scale(0.12 -0.12)">
       <use xlink:href="#DejaVuSerif-48"/>
      </g>
     </g>
    </g>
    <g id="ytick_2">
     <g id="line2d_6">
      <g>
       <use style="stroke:#000000;stroke-width:0.8;" x="26.08375" xlink:href="#me552ee4168" y="158.377188"/>
      </g>
     </g>
     <g id="text_7">
      <!-- 0.5 -->
      <defs>
       <path d="M 9.421875 5.078125 
Q 9.421875 7.8125 11.28125 9.71875 
Q 13.140625 11.625 15.921875 11.625 
Q 18.609375 11.625 20.5 9.71875 
Q 22.40625 7.8125 22.40625 5.078125 
Q 22.40625 2.390625 20.5 0.484375 
Q 18.609375 -1.421875 15.921875 -1.421875 
Q 13.140625 -1.421875 11.28125 0.453125 
Q 9.421875 2.34375 9.421875 5.078125 
z
" id="DejaVuSerif-46"/>
       <path d="M 50.296875 72.90625 
L 50.296875 64.890625 
L 16.890625 64.890625 
L 16.890625 44 
Q 19.4375 45.75 22.828125 46.625 
Q 26.21875 47.515625 30.421875 47.515625 
Q 42.234375 47.515625 49.0625 40.96875 
Q 55.90625 34.421875 55.90625 23.09375 
Q 55.90625 11.53125 49 5.046875 
Q 42.09375 -1.421875 29.59375 -1.421875 
Q 24.5625 -1.421875 19.28125 -0.1875 
Q 14.015625 1.03125 8.5 3.515625 
L 8.5 17.671875 
L 14.015625 17.671875 
Q 14.453125 10.75 18.421875 7.078125 
Q 22.40625 3.421875 29.59375 3.421875 
Q 37.3125 3.421875 41.453125 8.5 
Q 45.609375 13.578125 45.609375 23.09375 
Q 45.609375 32.5625 41.484375 37.609375 
Q 37.359375 42.671875 29.59375 42.671875 
Q 25.203125 42.671875 21.84375 41.109375 
Q 18.5 39.546875 15.921875 36.28125 
L 11.71875 36.28125 
L 11.71875 72.90625 
z
" id="DejaVuSerif-53"/>
      </defs>
      <g transform="translate(0 162.93625)scale(0.12 -0.12)">
       <use xlink:href="#DejaVuSerif-48"/>
       <use x="63.623047" xlink:href="#DejaVuSerif-46"/>
       <use x="95.410156" xlink:href="#DejaVuSerif-53"/>
      </g>
     </g>
    </g>
    <g id="ytick_3">
     <g id="line2d_7">
      <g>
       <use style="stroke:#000000;stroke-width:0.8;" x="26.08375" xlink:href="#me552ee4168" y="32.286278"/>
      </g>
     </g>
     <g id="text_8">
      <!-- 1 -->
      <defs>
       <path d="M 14.203125 0 
L 14.203125 5.171875 
L 26.90625 5.171875 
L 26.90625 65.828125 
L 12.203125 56.296875 
L 12.203125 62.703125 
L 29.984375 74.21875 
L 36.71875 74.21875 
L 36.71875 5.171875 
L 49.421875 5.171875 
L 49.421875 0 
z
" id="DejaVuSerif-49"/>
      </defs>
      <g transform="translate(11.44875 36.845341)scale(0.12 -0.12)">
       <use xlink:href="#DejaVuSerif-49"/>
      </g>
     </g>
    </g>
   </g>
   <g id="line2d_8">
    <path clip-path="url(#p13be4825bc)" d="M 26.08375 284.468097 
L 508.315892 284.468097 
L 508.315892 284.468097 
" style="fill:none;stroke:#000000;stroke-linecap:square;"/>
   </g>
   <g id="line2d_9">
    <path clip-path="url(#p13be4825bc)" d="M 26.08375 32.286278 
L 508.315892 32.286278 
L 508.315892 32.286278 
" style="fill:none;stroke:#000000;stroke-linecap:square;"/>
   </g>
   <g id="line2d_10">
    <path clip-path="url(#p13be4825bc)" d="M 26.08375 42.373551 
L 54.109265 42.486285 
L 81.168383 42.816382 
L 106.294707 43.336608 
L 130.454634 44.059804 
L 151.71537 44.909434 
L 172.009709 45.943318 
L 190.371253 47.103864 
L 206.800004 48.359418 
L 222.262357 49.764153 
L 236.758313 51.31345 
L 249.321475 52.869407 
L 261.884637 54.655943 
L 273.481402 56.541505 
L 284.11177 58.499115 
L 293.775741 60.495281 
L 303.439711 62.724703 
L 312.137285 64.955251 
L 320.834859 67.423563 
L 328.566035 69.839548 
L 336.297212 72.486955 
L 344.028389 75.389853 
L 350.793168 78.160363 
L 357.557948 81.166501 
L 364.322727 84.429731 
L 371.087507 87.973486 
L 376.885889 91.253582 
L 382.684272 94.775957 
L 388.482654 98.559368 
L 394.281037 102.623981 
L 400.079419 106.991454 
L 405.877802 111.685027 
L 410.709787 115.863364 
L 415.541772 120.300779 
L 420.373758 125.013511 
L 425.205743 130.01872 
L 430.037729 135.334532 
L 434.869714 140.980064 
L 439.701699 146.975469 
L 444.533685 153.341961 
L 449.36567 160.101853 
L 454.197655 167.278583 
L 459.029641 174.896741 
L 463.861626 182.982097 
L 468.693612 191.561616 
L 473.525597 200.663482 
L 478.357582 210.317106 
L 483.189568 220.553134 
L 488.021553 231.403452 
L 492.853539 242.901183 
L 497.685524 255.080675 
L 502.517509 267.977489 
L 507.349495 281.62837 
L 508.315892 284.45235 
L 508.315892 284.45235 
" style="fill:none;stroke:#0000ff;stroke-linecap:square;stroke-width:3;"/>
   </g>
   <g id="line2d_11">
    <path clip-path="url(#p13be4825bc)" d="M 26.08375 42.373551 
L 54.109265 42.261392 
L 82.134781 41.924053 
L 110.160296 41.359414 
L 138.185811 40.565644 
L 166.211326 39.544397 
L 195.203239 38.260512 
L 228.060739 36.572058 
L 292.809343 33.163011 
L 309.238094 32.569944 
L 321.801256 32.319372 
L 332.431624 32.307926 
L 342.095594 32.511865 
L 350.793168 32.919582 
L 358.524345 33.503921 
L 365.289124 34.22257 
L 372.053904 35.171237 
L 377.852286 36.19824 
L 383.650669 37.453815 
L 388.482654 38.699056 
L 393.31464 40.148675 
L 398.146625 41.827491 
L 402.97861 43.763294 
L 407.810596 45.987225 
L 411.676184 47.997148 
L 415.541772 50.233558 
L 419.407361 52.718203 
L 423.272949 55.474958 
L 427.138537 58.530053 
L 431.004126 61.912321 
L 434.869714 65.653479 
L 438.735302 69.788443 
L 441.634493 73.171097 
L 444.533685 76.814486 
L 447.432876 80.737628 
L 450.332067 84.961002 
L 453.231258 89.506675 
L 456.13045 94.398441 
L 459.029641 99.661967 
L 461.928832 105.324955 
L 464.828023 111.417326 
L 467.727215 117.971413 
L 470.626406 125.022181 
L 473.525597 132.607466 
L 476.424788 140.768238 
L 479.323979 149.548894 
L 482.223171 158.99758 
L 485.122362 169.166549 
L 488.021553 180.112555 
L 490.920744 191.897298 
L 493.819936 204.587903 
L 496.719127 218.257477 
L 499.618318 232.985702 
L 502.517509 248.859525 
L 505.416701 265.973905 
L 508.315892 284.432668 
L 508.315892 284.432668 
" style="fill:none;stroke:#ff0000;stroke-linecap:square;stroke-width:3;"/>
   </g>
   <g id="line2d_12">
    <path clip-path="url(#p13be4825bc)" d="M 26.08375 42.373551 
L 145.916988 42.481099 
L 185.539268 42.744032 
L 213.564783 43.143652 
L 235.791916 43.676056 
L 254.15346 44.330352 
L 269.615814 45.08925 
L 283.145373 45.957936 
L 295.708535 46.981731 
L 307.3053 48.157361 
L 317.935667 49.472727 
L 327.599638 50.90584 
L 336.297212 52.42438 
L 344.028389 53.986066 
L 351.759565 55.777591 
L 358.524345 57.560167 
L 365.289124 59.570402 
L 372.053904 61.837668 
L 377.852286 64.010785 
L 383.650669 66.420843 
L 389.449051 69.094293 
L 394.281037 71.54462 
L 399.113022 74.217345 
L 403.945007 77.133368 
L 408.776993 80.315703 
L 413.608978 83.789718 
L 418.440964 87.583403 
L 422.306552 90.869186 
L 426.17214 94.396609 
L 430.037729 98.184466 
L 433.903317 102.25316 
L 437.768905 106.624866 
L 441.634493 111.323704 
L 445.500082 116.375935 
L 449.36567 121.810188 
L 453.231258 127.657701 
L 457.096847 133.952601 
L 460.962435 140.732223 
L 464.828023 148.037455 
L 468.693612 155.913146 
L 472.5592 164.408557 
L 476.424788 173.577875 
L 480.290377 183.480804 
L 484.155965 194.183233 
L 488.021553 205.758004 
L 490.920744 215.059764 
L 493.819936 224.934662 
L 496.719127 235.423011 
L 499.618318 246.568497 
L 502.517509 258.418507 
L 505.416701 271.024517 
L 508.315892 284.442509 
L 508.315892 284.442509 
" style="fill:none;stroke:#bf00bf;stroke-linecap:square;stroke-width:2;"/>
   </g>
   <g id="patch_3">
    <path d="M 26.08375 297.077188 
L 26.08375 19.677188 
" style="fill:none;stroke:#000000;stroke-linecap:square;stroke-linejoin:miter;stroke-width:0.8;"/>
   </g>
   <g id="patch_4">
    <path d="M 508.32125 297.077188 
L 508.32125 19.677188 
" style="fill:none;stroke:#000000;stroke-linecap:square;stroke-linejoin:miter;stroke-width:0.8;"/>
   </g>
   <g id="patch_5">
    <path d="M 26.08375 297.077187 
L 508.32125 297.077187 
" style="fill:none;stroke:#000000;stroke-linecap:square;stroke-linejoin:miter;stroke-width:0.8;"/>
   </g>
   <g id="patch_6">
    <path d="M 26.08375 19.677188 
L 508.32125 19.677188 
" style="fill:none;stroke:#000000;stroke-linecap:square;stroke-linejoin:miter;stroke-width:0.8;"/>
   </g>
   <g id="text_9">
    <!-- Transmittance -->
    <defs>
     <path d="M 18.109375 0 
L 18.109375 5.90625 
L 27.78125 5.90625 
L 27.78125 66.21875 
L 7.8125 66.21875 
L 7.8125 54.6875 
L 1.125 54.6875 
L 1.125 72.90625 
L 73.390625 72.90625 
L 73.390625 54.6875 
L 66.796875 54.6875 
L 66.796875 66.21875 
L 46.6875 66.21875 
L 46.6875 5.90625 
L 56.390625 5.90625 
L 56.390625 0 
z
" id="DejaVuSerif-Bold-84"/>
     <path d="M 53.71875 52.484375 
L 53.71875 37.015625 
L 48.1875 37.015625 
Q 47.90625 41.15625 45.953125 43.1875 
Q 44 45.21875 40.28125 45.21875 
Q 34.625 45.21875 31.34375 40.234375 
Q 28.078125 35.25 28.078125 26.421875 
L 28.078125 5.90625 
L 37.5 5.90625 
L 37.5 0 
L 3.421875 0 
L 3.421875 5.90625 
L 10.796875 5.90625 
L 10.796875 46 
L 2.875 46 
L 2.875 51.90625 
L 28.078125 51.90625 
L 28.078125 42.671875 
Q 30.609375 48.09375 34.78125 50.703125 
Q 38.96875 53.328125 45.015625 53.328125 
Q 46.53125 53.328125 48.703125 53.09375 
Q 50.875 52.875 53.71875 52.484375 
z
" id="DejaVuSerif-Bold-114"/>
     <path d="M 55.078125 31.890625 
L 55.078125 5.90625 
L 62.5 5.90625 
L 62.5 0 
L 37.796875 0 
L 37.796875 6.59375 
Q 34.375 2.484375 30.171875 0.53125 
Q 25.984375 -1.421875 20.609375 -1.421875 
Q 12.640625 -1.421875 8.375 2.84375 
Q 4.109375 7.125 4.109375 15.09375 
Q 4.109375 23.828125 10.234375 28.171875 
Q 16.359375 32.515625 28.71875 32.515625 
L 37.796875 32.515625 
L 37.796875 35.59375 
Q 37.796875 41.890625 34.8125 44.890625 
Q 31.84375 47.90625 25.59375 47.90625 
Q 20.40625 47.90625 17.59375 45.78125 
Q 14.796875 43.65625 13.625 38.8125 
L 8.109375 38.8125 
L 8.109375 50 
Q 12.75 51.65625 17.71875 52.484375 
Q 22.703125 53.328125 28.21875 53.328125 
Q 42.140625 53.328125 48.609375 48.140625 
Q 55.078125 42.96875 55.078125 31.890625 
z
M 37.796875 16.3125 
L 37.796875 26.703125 
L 31.296875 26.703125 
Q 26.46875 26.703125 23.875 24.0625 
Q 21.296875 21.4375 21.296875 16.5 
Q 21.296875 11.578125 23.171875 9.125 
Q 25.046875 6.6875 28.90625 6.6875 
Q 32.90625 6.6875 35.34375 9.328125 
Q 37.796875 11.96875 37.796875 16.3125 
z
" id="DejaVuSerif-Bold-97"/>
     <path d="M 3.421875 0 
L 3.421875 5.90625 
L 10.796875 5.90625 
L 10.796875 46 
L 3.421875 46 
L 3.421875 51.90625 
L 28.078125 51.90625 
L 28.078125 44.578125 
Q 31.203125 49.21875 35.203125 51.265625 
Q 39.203125 53.328125 45.3125 53.328125 
Q 54.046875 53.328125 58.515625 48.171875 
Q 62.984375 43.015625 62.984375 33.015625 
L 62.984375 5.90625 
L 70.40625 5.90625 
L 70.40625 0 
L 39.40625 0 
L 39.40625 5.90625 
L 45.703125 5.90625 
L 45.703125 33.5 
Q 45.703125 40.09375 44.015625 42.65625 
Q 42.328125 45.21875 38.1875 45.21875 
Q 32.953125 45.21875 30.515625 41.375 
Q 28.078125 37.546875 28.078125 29.203125 
L 28.078125 5.90625 
L 34.421875 5.90625 
L 34.421875 0 
z
" id="DejaVuSerif-Bold-110"/>
     <path d="M 4.6875 1.515625 
L 4.6875 16.015625 
L 10.203125 16.015625 
Q 10.890625 10.203125 14.546875 7.15625 
Q 18.21875 4.109375 24.515625 4.109375 
Q 29.78125 4.109375 32.59375 5.9375 
Q 35.40625 7.765625 35.40625 11.1875 
Q 35.40625 14.3125 33.625 16.015625 
Q 31.84375 17.71875 26.703125 19 
L 19.578125 20.796875 
Q 11.53125 22.796875 7.90625 26.53125 
Q 4.296875 30.28125 4.296875 36.625 
Q 4.296875 45.0625 10.15625 49.1875 
Q 16.015625 53.328125 28.21875 53.328125 
Q 32.8125 53.328125 38.015625 52.5625 
Q 43.21875 51.8125 49.515625 50.203125 
L 49.515625 37.109375 
L 44 37.109375 
Q 43.5625 42.4375 40.203125 45.109375 
Q 36.859375 47.796875 30.609375 47.796875 
Q 25.34375 47.796875 22.625 46.109375 
Q 19.921875 44.4375 19.921875 41.21875 
Q 19.921875 38.578125 21.484375 37.0625 
Q 23.046875 35.546875 27.09375 34.515625 
L 34.1875 32.71875 
Q 44.390625 30.125 48.296875 26.3125 
Q 52.203125 22.515625 52.203125 15.71875 
Q 52.203125 6.9375 45.921875 2.75 
Q 39.65625 -1.421875 26.421875 -1.421875 
Q 21.578125 -1.421875 16.15625 -0.6875 
Q 10.75 0.046875 4.6875 1.515625 
z
" id="DejaVuSerif-Bold-115"/>
     <path d="M 60.6875 43.40625 
Q 64.3125 48.578125 68.5 50.953125 
Q 72.703125 53.328125 78.328125 53.328125 
Q 87.25 53.328125 91.671875 48.265625 
Q 96.09375 43.21875 96.09375 33.015625 
L 96.09375 5.90625 
L 103.515625 5.90625 
L 103.515625 0 
L 72.609375 0 
L 72.609375 5.90625 
L 78.8125 5.90625 
L 78.8125 30.421875 
Q 78.8125 40.140625 77.3125 42.671875 
Q 75.828125 45.21875 71.78125 45.21875 
Q 67.1875 45.21875 64.640625 41.671875 
Q 62.109375 38.140625 62.109375 31.59375 
L 62.109375 5.90625 
L 68.3125 5.90625 
L 68.3125 0 
L 38.625 0 
L 38.625 5.90625 
L 44.828125 5.90625 
L 44.828125 30.421875 
Q 44.828125 40.140625 43.3125 42.671875 
Q 41.796875 45.21875 37.796875 45.21875 
Q 33.15625 45.21875 30.609375 41.671875 
Q 28.078125 38.140625 28.078125 31.59375 
L 28.078125 5.90625 
L 34.28125 5.90625 
L 34.28125 0 
L 3.421875 0 
L 3.421875 5.90625 
L 10.796875 5.90625 
L 10.796875 46 
L 3.421875 46 
L 3.421875 51.90625 
L 28.078125 51.90625 
L 28.078125 44.578125 
Q 31.109375 49.125 35.015625 51.21875 
Q 38.921875 53.328125 44.28125 53.328125 
Q 50.640625 53.328125 54.59375 50.90625 
Q 58.546875 48.484375 60.6875 43.40625 
z
" id="DejaVuSerif-Bold-109"/>
     <path d="M 9.1875 66.609375 
Q 9.1875 70.5625 11.921875 73.265625 
Q 14.65625 75.984375 18.609375 75.984375 
Q 22.46875 75.984375 25.171875 73.265625 
Q 27.875 70.5625 27.875 66.609375 
Q 27.875 62.75 25.171875 60.03125 
Q 22.46875 57.328125 18.609375 57.328125 
Q 14.65625 57.328125 11.921875 60.015625 
Q 9.1875 62.703125 9.1875 66.609375 
z
M 28.078125 5.90625 
L 35.5 5.90625 
L 35.5 0 
L 3.421875 0 
L 3.421875 5.90625 
L 10.796875 5.90625 
L 10.796875 46 
L 3.421875 46 
L 3.421875 51.90625 
L 28.078125 51.90625 
z
" id="DejaVuSerif-Bold-105"/>
     <path d="M 9.90625 46 
L 2.390625 46 
L 2.390625 51.90625 
L 9.90625 51.90625 
L 9.90625 68.015625 
L 27.203125 68.015625 
L 27.203125 51.90625 
L 41.609375 51.90625 
L 41.609375 46 
L 27.203125 46 
L 27.203125 14.203125 
Q 27.203125 7.421875 28.265625 5.765625 
Q 29.34375 4.109375 32.171875 4.109375 
Q 35.296875 4.109375 36.8125 6.203125 
Q 38.328125 8.296875 38.421875 12.703125 
L 45.703125 12.703125 
Q 45.265625 4.890625 41.421875 1.734375 
Q 37.59375 -1.421875 28.21875 -1.421875 
Q 17.53125 -1.421875 13.71875 1.921875 
Q 9.90625 5.28125 9.90625 14.203125 
z
" id="DejaVuSerif-Bold-116"/>
     <path d="M 56.390625 16.21875 
Q 54.546875 7.328125 48.796875 2.953125 
Q 43.0625 -1.421875 33.203125 -1.421875 
Q 19.34375 -1.421875 11.71875 5.75 
Q 4.109375 12.9375 4.109375 25.984375 
Q 4.109375 38.875 11.625 46.09375 
Q 19.140625 53.328125 32.515625 53.328125 
Q 37.9375 53.328125 43.453125 52.296875 
Q 48.96875 51.265625 54.6875 49.21875 
L 54.6875 34.8125 
L 49.21875 34.8125 
Q 48.4375 41.40625 45.359375 44.59375 
Q 42.28125 47.796875 36.71875 47.796875 
Q 29.5 47.796875 26.4375 42.90625 
Q 23.390625 38.03125 23.390625 25.984375 
Q 23.390625 14.203125 26.359375 9.15625 
Q 29.34375 4.109375 36.078125 4.109375 
Q 41.3125 4.109375 44.453125 7.234375 
Q 47.609375 10.359375 48.296875 16.21875 
z
" id="DejaVuSerif-Bold-99"/>
     <path d="M 40.09375 29.296875 
Q 40.09375 39.546875 38.1875 43.671875 
Q 36.28125 47.796875 31.6875 47.796875 
Q 27.25 47.796875 25.3125 43.75 
Q 23.390625 39.703125 23.390625 30.171875 
L 23.390625 29.296875 
z
M 59.078125 23.484375 
L 23.390625 23.484375 
L 23.390625 23.09375 
Q 23.390625 13.03125 26.40625 8.5625 
Q 29.4375 4.109375 36.1875 4.109375 
Q 41.796875 4.109375 45.265625 7.078125 
Q 48.734375 10.0625 49.703125 15.71875 
L 57.8125 15.71875 
Q 55.71875 6.890625 49.46875 2.734375 
Q 43.21875 -1.421875 31.984375 -1.421875 
Q 18.5 -1.421875 11.296875 5.6875 
Q 4.109375 12.796875 4.109375 25.984375 
Q 4.109375 38.875 11.46875 46.09375 
Q 18.84375 53.328125 31.984375 53.328125 
Q 44.875 53.328125 51.75 45.734375 
Q 58.640625 38.140625 59.078125 23.484375 
z
" id="DejaVuSerif-Bold-101"/>
    </defs>
    <g transform="translate(194.136562 13.677188)scale(0.18 -0.18)">
     <use xlink:href="#DejaVuSerif-Bold-84"/>
     <use x="67.164062" xlink:href="#DejaVuSerif-Bold-114"/>
     <use x="119.849609" xlink:href="#DejaVuSerif-Bold-97"/>
     <use x="184.644531" xlink:href="#DejaVuSerif-Bold-110"/>
     <use x="257.349609" xlink:href="#DejaVuSerif-Bold-115"/>
     <use x="313.648438" xlink:href="#DejaVuSerif-Bold-109"/>
     <use x="419.458984" xlink:href="#DejaVuSerif-Bold-105"/>
     <use x="457.447266" xlink:href="#DejaVuSerif-Bold-116"/>
     <use x="503.638672" xlink:href="#DejaVuSerif-Bold-116"/>
     <use x="549.830078" xlink:href="#DejaVuSerif-Bold-97"/>
     <use x="614.625" xlink:href="#DejaVuSerif-Bold-110"/>
     <use x="687.330078" xlink:href="#DejaVuSerif-Bold-99"/>
     <use x="748.21875" xlink:href="#DejaVuSerif-Bold-101"/>
    </g>
   </g>
   <g id="legend_1">
    <g id="patch_7">
     <path d="M 38.9285 274.885187 
L 121.4885 274.885187 
Q 124.6885 274.885187 124.6885 271.685187 
L 124.6885 200.685187 
Q 124.6885 197.485187 121.4885 197.485187 
L 38.9285 197.485187 
Q 35.7285 197.485187 35.7285 200.685187 
L 35.7285 271.685187 
Q 35.7285 274.885187 38.9285 274.885187 
z
" style="fill:#ffffff;opacity:0.8;stroke:#cccccc;stroke-linejoin:miter;"/>
    </g>
    <g id="line2d_13">
     <path d="M 42.1285 210.442688 
L 74.1285 210.442688 
" style="fill:none;stroke:#0000ff;stroke-linecap:square;stroke-width:3;"/>
    </g>
    <g id="line2d_14"/>
    <g id="text_10">
     <!-- $T_\bot$ -->
     <defs>
      <path d="M 12.015625 0 
L 12.984375 5.171875 
L 22.3125 5.171875 
L 34.375 67.09375 
L 12.9375 67.09375 
L 10.75 55.71875 
L 4.734375 55.71875 
L 8.0625 72.90625 
L 72.796875 72.90625 
L 69.484375 55.71875 
L 63.484375 55.71875 
L 65.671875 67.09375 
L 44.234375 67.09375 
L 32.171875 5.171875 
L 41.5 5.171875 
L 40.53125 0 
z
" id="DejaVuSerif-Italic-84"/>
      <path d="M 10.59375 0 
L 10.59375 7.90625 
L 43.0625 7.90625 
L 43.0625 68.84375 
L 50.984375 68.84375 
L 50.984375 7.90625 
L 83.453125 7.90625 
L 83.453125 0 
z
" id="DejaVuSerif-8869"/>
     </defs>
     <g transform="translate(86.9285 216.042687)scale(0.16 -0.16)">
      <use transform="translate(0 0.09375)" xlink:href="#DejaVuSerif-Italic-84"/>
      <use transform="translate(66.699219 -15.478125)scale(0.7)" xlink:href="#DejaVuSerif-8869"/>
     </g>
    </g>
    <g id="line2d_15">
     <path d="M 42.1285 233.927688 
L 74.1285 233.927688 
" style="fill:none;stroke:#ff0000;stroke-linecap:square;stroke-width:3;"/>
    </g>
    <g id="line2d_16"/>
    <g id="text_11">
     <!-- $T_\parallel$ -->
     <defs>
      <path d="M 35.59375 82.671875 
L 35.59375 -9.765625 
L 27.6875 -9.765625 
L 27.6875 82.671875 
z
M 18.5 82.671875 
L 18.5 -9.765625 
L 10.59375 -9.765625 
L 10.59375 82.671875 
z
" id="DejaVuSerif-8741"/>
     </defs>
     <g transform="translate(86.9285 239.527688)scale(0.16 -0.16)">
      <use transform="translate(0 0.09375)" xlink:href="#DejaVuSerif-Italic-84"/>
      <use transform="translate(79.974609 -15.478125)scale(0.7)" xlink:href="#DejaVuSerif-8741"/>
     </g>
    </g>
    <g id="line2d_17">
     <path d="M 42.1285 257.765187 
L 74.1285 257.765187 
" style="fill:none;stroke:#bf00bf;stroke-linecap:square;stroke-width:2;"/>
    </g>
    <g id="line2d_18"/>
    <g id="text_12">
     <!-- $T_{avg}$ -->
     <defs>
      <path d="M 36.328125 8.109375 
Q 29.828125 -1.421875 19.34375 -1.421875 
Q 10.75 -1.421875 6.390625 4.390625 
Q 3.375 8.5 3.375 14.359375 
Q 3.375 16.84375 3.90625 19.625 
Q 7.234375 36.859375 19.234375 45.75 
Q 29.4375 53.328125 41.796875 53.328125 
Q 50.09375 53.328125 52.9375 51.90625 
L 43.84375 5.171875 
L 51.5625 5.171875 
L 50.59375 0 
L 34.765625 0 
z
M 12.84375 14.65625 
Q 12.84375 4.203125 22.953125 4.203125 
Q 29.109375 4.203125 33.28125 9.109375 
Q 37.453125 14.015625 39.3125 23.390625 
L 43.84375 46.921875 
L 43.84375 46.921875 
Q 43.84375 48.34375 39.9375 48.34375 
Q 30.5625 48.34375 23.296875 41.015625 
Q 16.0625 33.640625 13.484375 20.265625 
Q 12.84375 17.140625 12.84375 14.65625 
z
" id="DejaVuSerif-Italic-97"/>
      <path d="M 26.265625 0 
L 19.671875 0 
L 9.671875 46.6875 
L 3.765625 46.6875 
L 4.734375 51.90625 
L 18.171875 51.90625 
L 26.953125 10.984375 
Q 32.5625 15.875 36.328125 22.078125 
Q 44.140625 34.96875 46.921875 46.6875 
L 40.96875 46.6875 
L 42 51.90625 
L 55.421875 51.90625 
Q 50.09375 31.78125 43.359375 20.515625 
Q 37.5 10.75 26.265625 0 
z
" id="DejaVuSerif-Italic-118"/>
      <path d="M 59.71875 51.90625 
L 49.8125 1.125 
Q 47.5625 -10.5 40.328125 -16.109375 
Q 32.46875 -22.21875 21.578125 -22.21875 
Q 16.453125 -22.21875 11.953125 -21.28125 
Q 7.46875 -20.359375 3.515625 -18.5 
L 5.671875 -7.625 
L 10.359375 -7.625 
Q 10.203125 -12.703125 13.03125 -15.046875 
Q 15.875 -17.390625 21.96875 -17.390625 
Q 29.890625 -17.390625 34.421875 -12.890625 
Q 38.96875 -8.5 40.828125 1.125 
L 42.1875 8.109375 
Q 38.625 3.21875 34.078125 0.890625 
Q 29.546875 -1.421875 23.828125 -1.421875 
Q 15.234375 -1.421875 10.890625 4.390625 
Q 8.15625 8.0625 7.859375 13.140625 
Q 7.671875 16.109375 8.34375 19.625 
Q 11.71875 36.859375 23.6875 45.75 
Q 33.890625 53.265625 45.796875 53.328125 
Q 56.734375 53.375 59.71875 51.90625 
z
M 49.75 46.6875 
Q 49.703125 48.34375 44.4375 48.34375 
Q 34.90625 48.34375 27.734375 41.015625 
Q 20.5625 33.640625 17.921875 20.265625 
Q 17.1875 16.3125 17.390625 13.328125 
Q 17.578125 10.296875 18.796875 8.25 
Q 21.1875 4.203125 27.4375 4.203125 
Q 34.28125 4.203125 38.8125 9.109375 
Q 43.359375 14.015625 45.171875 23.390625 
L 46.140625 28.515625 
z
" id="DejaVuSerif-Italic-103"/>
     </defs>
     <g transform="translate(86.9285 263.365187)scale(0.16 -0.16)">
      <use transform="translate(0 0.09375)" xlink:href="#DejaVuSerif-Italic-84"/>
      <use transform="translate(66.699219 -15.478125)scale(0.7)" xlink:href="#DejaVuSerif-Italic-97"/>
      <use transform="translate(108.432617 -15.478125)scale(0.7)" xlink:href="#DejaVuSerif-Italic-118"/>
      <use transform="translate(147.978516 -15.478125)scale(0.7)" xlink:href="#DejaVuSerif-Italic-103"/>
     </g>
    </g>
   </g>
  </g>
  <g id="axes_2">
   <g id="patch_8">
    <path d="M 565.62125 297.077187 
L 1047.85875 297.077187 
L 1047.85875 19.677188 
L 565.62125 19.677188 
z
" style="fill:#ffffff;"/>
   </g>
   <g id="matplotlib.axis_3">
    <g id="xtick_5">
     <g id="line2d_19">
      <g>
       <use style="stroke:#000000;stroke-width:0.8;" x="565.62125" xlink:href="#m7450aaf3d6" y="297.077187"/>
      </g>
     </g>
     <g id="text_13">
      <!-- 0˚ -->
      <g transform="translate(558.80375 313.195312)scale(0.12 -0.12)">
       <use xlink:href="#DejaVuSerif-48"/>
       <use x="63.623047" xlink:href="#DejaVuSerif-730"/>
      </g>
     </g>
    </g>
    <g id="xtick_6">
     <g id="line2d_20">
      <g>
       <use style="stroke:#000000;stroke-width:0.8;" x="726.367083" xlink:href="#m7450aaf3d6" y="297.077187"/>
      </g>
     </g>
     <g id="text_14">
      <!-- 30˚ -->
      <g transform="translate(715.732083 313.195312)scale(0.12 -0.12)">
       <use xlink:href="#DejaVuSerif-51"/>
       <use x="63.623047" xlink:href="#DejaVuSerif-48"/>
       <use x="127.246094" xlink:href="#DejaVuSerif-730"/>
      </g>
     </g>
    </g>
    <g id="xtick_7">
     <g id="line2d_21">
      <g>
       <use style="stroke:#000000;stroke-width:0.8;" x="887.112917" xlink:href="#m7450aaf3d6" y="297.077187"/>
      </g>
     </g>
     <g id="text_15">
      <!-- 60˚ -->
      <g transform="translate(876.477917 313.195312)scale(0.12 -0.12)">
       <use xlink:href="#DejaVuSerif-54"/>
       <use x="63.623047" xlink:href="#DejaVuSerif-48"/>
       <use x="127.246094" xlink:href="#DejaVuSerif-730"/>
      </g>
     </g>
    </g>
    <g id="xtick_8">
     <g id="line2d_22">
      <g>
       <use style="stroke:#000000;stroke-width:0.8;" x="1047.85875" xlink:href="#m7450aaf3d6" y="297.077187"/>
      </g>
     </g>
     <g id="text_16">
      <!-- 90˚ -->
      <g transform="translate(1037.22375 313.195312)scale(0.12 -0.12)">
       <use xlink:href="#DejaVuSerif-57"/>
       <use x="63.623047" xlink:href="#DejaVuSerif-48"/>
       <use x="127.246094" xlink:href="#DejaVuSerif-730"/>
      </g>
     </g>
    </g>
    <g id="text_17">
     <!-- Angle of incidence -->
     <g transform="translate(731.55875 331.848437)scale(0.16 -0.16)">
      <use xlink:href="#DejaVuSerif-65"/>
      <use x="72.216797" xlink:href="#DejaVuSerif-110"/>
      <use x="136.621094" xlink:href="#DejaVuSerif-103"/>
      <use x="200.634766" xlink:href="#DejaVuSerif-108"/>
      <use x="232.617188" xlink:href="#DejaVuSerif-101"/>
      <use x="291.796875" xlink:href="#DejaVuSerif-32"/>
      <use x="323.583984" xlink:href="#DejaVuSerif-111"/>
      <use x="383.789062" xlink:href="#DejaVuSerif-102"/>
      <use x="420.800781" xlink:href="#DejaVuSerif-32"/>
      <use x="452.587891" xlink:href="#DejaVuSerif-105"/>
      <use x="484.570312" xlink:href="#DejaVuSerif-110"/>
      <use x="548.974609" xlink:href="#DejaVuSerif-99"/>
      <use x="604.980469" xlink:href="#DejaVuSerif-105"/>
      <use x="636.962891" xlink:href="#DejaVuSerif-100"/>
      <use x="700.976562" xlink:href="#DejaVuSerif-101"/>
      <use x="760.15625" xlink:href="#DejaVuSerif-110"/>
      <use x="824.560547" xlink:href="#DejaVuSerif-99"/>
      <use x="880.566406" xlink:href="#DejaVuSerif-101"/>
     </g>
    </g>
   </g>
   <g id="matplotlib.axis_4">
    <g id="ytick_4">
     <g id="line2d_23">
      <g>
       <use style="stroke:#000000;stroke-width:0.8;" x="565.62125" xlink:href="#me552ee4168" y="284.468097"/>
      </g>
     </g>
     <g id="text_18">
      <!-- 0˚ -->
      <g transform="translate(544.98625 289.027159)scale(0.12 -0.12)">
       <use xlink:href="#DejaVuSerif-48"/>
       <use x="63.623047" xlink:href="#DejaVuSerif-730"/>
      </g>
     </g>
    </g>
    <g id="ytick_5">
     <g id="line2d_24">
      <g>
       <use style="stroke:#000000;stroke-width:0.8;" x="565.62125" xlink:href="#me552ee4168" y="158.377188"/>
      </g>
     </g>
     <g id="text_19">
      <!-- 90˚ -->
      <g transform="translate(537.35125 162.93625)scale(0.12 -0.12)">
       <use xlink:href="#DejaVuSerif-57"/>
       <use x="63.623047" xlink:href="#DejaVuSerif-48"/>
       <use x="127.246094" xlink:href="#DejaVuSerif-730"/>
      </g>
     </g>
    </g>
    <g id="ytick_6">
     <g id="line2d_25">
      <g>
       <use style="stroke:#000000;stroke-width:0.8;" x="565.62125" xlink:href="#me552ee4168" y="32.286278"/>
      </g>
     </g>
     <g id="text_20">
      <!-- 180˚ -->
      <defs>
       <path d="M 46.578125 19.921875 
Q 46.578125 27.734375 42.6875 32.046875 
Q 38.8125 36.375 31.78125 36.375 
Q 24.75 36.375 20.875 32.046875 
Q 17 27.734375 17 19.921875 
Q 17 12.0625 20.875 7.734375 
Q 24.75 3.421875 31.78125 3.421875 
Q 38.8125 3.421875 42.6875 7.734375 
Q 46.578125 12.0625 46.578125 19.921875 
z
M 44.578125 55.328125 
Q 44.578125 61.96875 41.203125 65.671875 
Q 37.84375 69.390625 31.78125 69.390625 
Q 25.78125 69.390625 22.390625 65.671875 
Q 19 61.96875 19 55.328125 
Q 19 48.640625 22.390625 44.921875 
Q 25.78125 41.21875 31.78125 41.21875 
Q 37.84375 41.21875 41.203125 44.921875 
Q 44.578125 48.640625 44.578125 55.328125 
z
M 39.3125 38.8125 
Q 47.609375 37.703125 52.25 32.6875 
Q 56.890625 27.6875 56.890625 19.921875 
Q 56.890625 9.671875 50.390625 4.125 
Q 43.890625 -1.421875 31.78125 -1.421875 
Q 19.734375 -1.421875 13.203125 4.125 
Q 6.6875 9.671875 6.6875 19.921875 
Q 6.6875 27.6875 11.328125 32.6875 
Q 15.96875 37.703125 24.3125 38.8125 
Q 16.9375 40.140625 13 44.40625 
Q 9.078125 48.6875 9.078125 55.328125 
Q 9.078125 64.109375 15.125 69.15625 
Q 21.1875 74.21875 31.78125 74.21875 
Q 42.390625 74.21875 48.4375 69.15625 
Q 54.5 64.109375 54.5 55.328125 
Q 54.5 48.6875 50.5625 44.40625 
Q 46.625 40.140625 39.3125 38.8125 
z
" id="DejaVuSerif-56"/>
      </defs>
      <g transform="translate(529.71625 36.845341)scale(0.12 -0.12)">
       <use xlink:href="#DejaVuSerif-49"/>
       <use x="63.623047" xlink:href="#DejaVuSerif-56"/>
       <use x="127.246094" xlink:href="#DejaVuSerif-48"/>
       <use x="190.869141" xlink:href="#DejaVuSerif-730"/>
      </g>
     </g>
    </g>
   </g>
   <g id="line2d_26">
    <path clip-path="url(#pc27ea5299c)" d="M 565.62125 284.468097 
L 1047.853392 284.468097 
L 1047.853392 284.468097 
" style="fill:none;stroke:#000000;stroke-linecap:square;"/>
   </g>
   <g id="line2d_27">
    <path clip-path="url(#pc27ea5299c)" d="M 565.62125 32.286278 
L 1047.853392 32.286278 
L 1047.853392 32.286278 
" style="fill:none;stroke:#000000;stroke-linecap:square;"/>
   </g>
   <g id="line2d_28">
    <path clip-path="url(#pc27ea5299c)" d="M 565.62125 284.468097 
L 1047.853392 284.468097 
L 1047.853392 284.468097 
" style="fill:none;stroke:#000000;stroke-dasharray:14.8,6.4;stroke-dashoffset:0;stroke-width:4;"/>
   </g>
   <g id="patch_9">
    <path d="M 565.62125 297.077188 
L 565.62125 19.677188 
" style="fill:none;stroke:#000000;stroke-linecap:square;stroke-linejoin:miter;stroke-width:0.8;"/>
   </g>
   <g id="patch_10">
    <path d="M 1047.85875 297.077188 
L 1047.85875 19.677188 
" style="fill:none;stroke:#000000;stroke-linecap:square;stroke-linejoin:miter;stroke-width:0.8;"/>
   </g>
   <g id="patch_11">
    <path d="M 565.62125 297.077187 
L 1047.85875 297.077187 
" style="fill:none;stroke:#000000;stroke-linecap:square;stroke-linejoin:miter;stroke-width:0.8;"/>
   </g>
   <g id="patch_12">
    <path d="M 565.62125 19.677188 
L 1047.85875 19.677188 
" style="fill:none;stroke:#000000;stroke-linecap:square;stroke-linejoin:miter;stroke-width:0.8;"/>
   </g>
   <g id="text_21">
    <!-- Phase delay -->
    <defs>
     <path d="M 4.6875 0 
L 4.6875 5.90625 
L 14.015625 5.90625 
L 14.015625 67 
L 4.6875 67 
L 4.6875 72.90625 
L 46.1875 72.90625 
Q 58.34375 72.90625 65.515625 67.109375 
Q 72.703125 61.328125 72.703125 51.609375 
Q 72.703125 41.84375 65.5 36 
Q 58.296875 30.171875 46.1875 30.171875 
L 32.8125 30.171875 
L 32.8125 5.90625 
L 44.578125 5.90625 
L 44.578125 0 
z
M 32.8125 36.078125 
L 38.28125 36.078125 
Q 44.625 36.078125 48.40625 40.296875 
Q 52.203125 44.53125 52.203125 51.609375 
Q 52.203125 58.640625 48.4375 62.8125 
Q 44.671875 67 38.28125 67 
L 32.8125 67 
z
" id="DejaVuSerif-Bold-80"/>
     <path d="M 3.421875 0 
L 3.421875 5.90625 
L 10.796875 5.90625 
L 10.796875 70.125 
L 3.078125 70.125 
L 3.078125 75.984375 
L 28.078125 75.984375 
L 28.078125 44.578125 
Q 31.203125 49.21875 35.203125 51.265625 
Q 39.203125 53.328125 45.3125 53.328125 
Q 54.046875 53.328125 58.515625 48.171875 
Q 62.984375 43.015625 62.984375 33.015625 
L 62.984375 5.90625 
L 70.40625 5.90625 
L 70.40625 0 
L 39.40625 0 
L 39.40625 5.90625 
L 45.703125 5.90625 
L 45.703125 33.5 
Q 45.703125 40.09375 44.015625 42.65625 
Q 42.328125 45.21875 38.1875 45.21875 
Q 32.953125 45.21875 30.515625 41.375 
Q 28.078125 37.546875 28.078125 29.203125 
L 28.078125 5.90625 
L 34.421875 5.90625 
L 34.421875 0 
z
" id="DejaVuSerif-Bold-104"/>
     <path id="DejaVuSerif-Bold-32"/>
     <path d="M 42.921875 23.390625 
L 42.921875 28.515625 
Q 42.921875 37.59375 40.578125 41.640625 
Q 38.234375 45.703125 33.109375 45.703125 
Q 27.734375 45.703125 25.5625 41.421875 
Q 23.390625 37.15625 23.390625 25.984375 
Q 23.390625 14.796875 25.578125 10.5 
Q 27.78125 6.203125 33.109375 6.203125 
Q 38.234375 6.203125 40.578125 10.25 
Q 42.921875 14.3125 42.921875 23.390625 
z
M 60.203125 5.90625 
L 67.578125 5.90625 
L 67.578125 0 
L 42.921875 0 
L 42.921875 6.59375 
Q 40.71875 2.546875 36.984375 0.5625 
Q 33.25 -1.421875 27.78125 -1.421875 
Q 16.75 -1.421875 10.421875 5.90625 
Q 4.109375 13.234375 4.109375 25.984375 
Q 4.109375 38.765625 10.421875 46.046875 
Q 16.75 53.328125 27.78125 53.328125 
Q 33.25 53.328125 36.984375 51.34375 
Q 40.71875 49.359375 42.921875 45.3125 
L 42.921875 70.125 
L 35.5 70.125 
L 35.5 75.984375 
L 60.203125 75.984375 
z
" id="DejaVuSerif-Bold-100"/>
     <path d="M 28.078125 5.90625 
L 35.5 5.90625 
L 35.5 0 
L 3.421875 0 
L 3.421875 5.90625 
L 10.796875 5.90625 
L 10.796875 70.125 
L 3.421875 70.125 
L 3.421875 75.984375 
L 28.078125 75.984375 
z
" id="DejaVuSerif-Bold-108"/>
     <path d="M 31.203125 -11.71875 
Q 28.859375 -17.4375 25.53125 -19.828125 
Q 22.21875 -22.21875 16.609375 -22.21875 
Q 14.203125 -22.21875 11.265625 -21.671875 
Q 8.34375 -21.140625 4.890625 -20.125 
L 4.890625 -9.28125 
L 10.40625 -9.328125 
Q 10.546875 -13.09375 12.171875 -14.890625 
Q 13.8125 -16.703125 17.09375 -16.703125 
Q 20.265625 -16.703125 22.21875 -14.96875 
Q 24.171875 -13.234375 26.125 -8.40625 
L 26.90625 -6.59375 
L 4.296875 46 
L -1.3125 46 
L -1.3125 51.90625 
L 28.609375 51.90625 
L 28.609375 46 
L 22.40625 46 
L 35.59375 15.28125 
L 47.90625 46 
L 41.015625 46 
L 41.015625 51.90625 
L 60.5 51.90625 
L 60.5 46 
L 54.203125 46 
z
" id="DejaVuSerif-Bold-121"/>
    </defs>
    <g transform="translate(747.17125 13.677188)scale(0.18 -0.18)">
     <use xlink:href="#DejaVuSerif-Bold-80"/>
     <use x="75.195312" xlink:href="#DejaVuSerif-Bold-104"/>
     <use x="147.900391" xlink:href="#DejaVuSerif-Bold-97"/>
     <use x="212.695312" xlink:href="#DejaVuSerif-Bold-115"/>
     <use x="268.994141" xlink:href="#DejaVuSerif-Bold-101"/>
     <use x="332.617188" xlink:href="#DejaVuSerif-Bold-32"/>
     <use x="367.431641" xlink:href="#DejaVuSerif-Bold-100"/>
     <use x="437.353516" xlink:href="#DejaVuSerif-Bold-101"/>
     <use x="500.976562" xlink:href="#DejaVuSerif-Bold-108"/>
     <use x="538.964844" xlink:href="#DejaVuSerif-Bold-97"/>
     <use x="603.759766" xlink:href="#DejaVuSerif-Bold-121"/>
    </g>
   </g>
   <g id="legend_2">
    <g id="patch_13">
     <path d="M 578.466 72.383188 
L 689.346 72.383188 
Q 692.546 72.383188 692.546 69.183188 
L 692.546 46.783187 
Q 692.546 43.583188 689.346 43.583188 
L 578.466 43.583188 
Q 575.266 43.583188 575.266 46.783187 
L 575.266 69.183188 
Q 575.266 72.383188 578.466 72.383188 
z
" style="fill:#ffffff;opacity:0.8;stroke:#cccccc;stroke-linejoin:miter;"/>
    </g>
    <g id="line2d_29">
     <path d="M 581.666 56.703188 
L 613.666 56.703188 
" style="fill:none;stroke:#000000;stroke-dasharray:14.8,6.4;stroke-dashoffset:0;stroke-width:4;"/>
    </g>
    <g id="line2d_30"/>
    <g id="text_22">
     <!-- $\delta_\parallel - \delta_\bot$ -->
     <defs>
      <path d="M 20.40625 50.59375 
Q 17.328125 51.859375 16.265625 54.203125 
Q 14.9375 56.9375 16.265625 63.625 
Q 17.484375 69.921875 22.90625 73.25 
Q 28.328125 76.515625 37.890625 76.515625 
Q 40.53125 76.515625 45.453125 75.734375 
Q 50.390625 74.90625 55.5625 73.390625 
L 53.65625 63.765625 
L 48.1875 62.546875 
Q 48.4375 66.890625 45.359375 69.140625 
Q 42.28125 71.34375 37.6875 71.34375 
Q 33.109375 71.34375 29.25 68.953125 
Q 25.203125 66.40625 24.703125 63.1875 
Q 24.03125 58.546875 25.296875 56.984375 
Q 28.375 53.328125 33.15625 53.328125 
Q 44.53125 53.328125 49.921875 45.84375 
Q 55.328125 38.375 52.921875 25.96875 
Q 50.53125 13.578125 42.203125 6.078125 
Q 33.890625 -1.421875 22.515625 -1.421875 
Q 11.1875 -1.421875 5.765625 6.078125 
Q 0.34375 13.578125 2.734375 25.96875 
Q 5.125 38.375 13.484375 45.84375 
Q 17.140625 49.125 20.40625 50.59375 
z
M 23.4375 3.421875 
Q 30.671875 3.421875 35.46875 9.125 
Q 40.28125 14.84375 42.421875 25.96875 
Q 44.578125 37.109375 42.015625 42.796875 
Q 39.453125 48.484375 32.21875 48.484375 
Q 25 48.484375 20.1875 42.796875 
Q 15.375 37.109375 13.21875 25.96875 
Q 11.078125 14.84375 13.671875 9.125 
Q 16.265625 3.421875 23.4375 3.421875 
z
" id="DejaVuSerif-Italic-948"/>
      <path d="M 10.59375 35.296875 
L 73.1875 35.296875 
L 73.1875 27.390625 
L 10.59375 27.390625 
z
" id="DejaVuSerif-8722"/>
     </defs>
     <g transform="translate(626.466 62.303188)scale(0.16 -0.16)">
      <use transform="translate(0 0.484375)" xlink:href="#DejaVuSerif-Italic-948"/>
      <use transform="translate(73.480469 -15.0875)scale(0.7)" xlink:href="#DejaVuSerif-8741"/>
      <use transform="translate(140.65 0.484375)" xlink:href="#DejaVuSerif-8722"/>
      <use transform="translate(243.403906 0.484375)" xlink:href="#DejaVuSerif-Italic-948"/>
      <use transform="translate(303.608984 -15.0875)scale(0.7)" xlink:href="#DejaVuSerif-8869"/>
     </g>
    </g>
   </g>
  </g>
 </g>
 <defs>
  <clipPath id="p13be4825bc">
   <rect height="277.4" width="482.2375" x="26.08375" y="19.677188"/>
  </clipPath>
  <clipPath id="pc27ea5299c">
   <rect height="277.4" width="482.2375" x="565.62125" y="19.677188"/>
  </clipPath>
 </defs>
</svg>
