<svg xmlns="http://www.w3.org/2000/svg" xmlns:xlink="http://www.w3.org/1999/xlink" viewBox="0 0 377.57 147.27"><defs><style>.cls-1,.cls-17,.cls-19,.cls-23,.cls-27,.cls-29,.cls-30,.cls-33,.cls-34,.cls-35,.cls-40,.cls-41,.cls-42,.cls-7{fill:none;}.cls-2{font-size:12px;font-family:LinLibertine, Linux Libertine;}.cls-2,.cls-31{fill:#231f20;}.cls-3{letter-spacing:-0.05em;}.cls-4{letter-spacing:0em;}.cls-5{letter-spacing:0.01em;}.cls-6{fill:#c3996b;}.cls-10,.cls-19,.cls-32,.cls-6,.cls-7,.cls-8,.cls-9{stroke:#010101;}.cls-17,.cls-19,.cls-23,.cls-25,.cls-26,.cls-27,.cls-29,.cls-30,.cls-33,.cls-34,.cls-35,.cls-40,.cls-41,.cls-42,.cls-6,.cls-7,.cls-8,.cls-9{stroke-miterlimit:10;}.cls-25,.cls-26,.cls-32,.cls-6,.cls-7{stroke-width:0.63px;}.cls-10,.cls-32,.cls-8,.cls-9{fill:#eaeaea;}.cls-10,.cls-19,.cls-27,.cls-29,.cls-30,.cls-32,.cls-33,.cls-34,.cls-35,.cls-41,.cls-42,.cls-8,.cls-9{stroke-linecap:round;}.cls-8{stroke-width:0.69px;}.cls-10,.cls-9{stroke-width:0.63px;}.cls-10,.cls-32{stroke-linejoin:round;}.cls-11{fill:#010101;}.cls-12{fill:#bbbdbf;}.cls-13{fill:#fff;}.cls-14{fill:#212121;}.cls-15{fill:#aaa134;}.cls-16{fill:#faf4a0;}.cls-17,.cls-34{stroke:#ed2024;}.cls-17{stroke-width:1.31px;}.cls-18{fill:#ed2024;}.cls-19{stroke-width:1.31px;}.cls-20{fill:#ec2426;}.cls-21{clip-path:url(#clip-path);}.cls-22,.cls-26{fill:#3b9b76;}.cls-23{stroke:#686868;stroke-width:3px;}.cls-24{fill:#686868;}.cls-25,.cls-28{fill:#42a6d3;}.cls-25,.cls-26,.cls-30,.cls-35,.cls-40{stroke:#231f20;}.cls-25,.cls-26{opacity:0.8;}.cls-27,.cls-42{stroke:#42a6d3;}.cls-27,.cls-29{stroke-width:1.33px;}.cls-29,.cls-41{stroke:#3b9b76;}.cls-33{stroke:#000;}.cls-34,.cls-41,.cls-42{stroke-width:2px;}.cls-35,.cls-40{stroke-width:0.5px;}.cls-36{clip-path:url(#clip-path-2);}.cls-37{clip-path:url(#clip-path-3);}.cls-38{clip-path:url(#clip-path-4);}.cls-39{clip-path:url(#clip-path-5);}</style><clipPath id="clip-path"><rect class="cls-1" x="48.14" y="52.88" width="10.09" height="6.83"/></clipPath><clipPath id="clip-path-2"><rect class="cls-1" x="264.84" y="29.86" width="24.15" height="4.72"/></clipPath><clipPath id="clip-path-3"><rect class="cls-1" x="205.49" y="112.71" width="6.11" height="4.72"/></clipPath><clipPath id="clip-path-4"><rect class="cls-1" x="340.75" y="114.36" width="5.83" height="6.66"/></clipPath><clipPath id="clip-path-5"><rect class="cls-1" x="301.12" y="57.39" width="30.01" height="14.83"/></clipPath></defs><g id="Layer_1" data-name="Layer 1"><text class="cls-2" transform="translate(58.42 139.95)"><tspan class="cls-3">W</tspan><tspan x="10.86" y="0">orld s</tspan><tspan class="cls-4" x="38.27" y="0">p</tspan><tspan x="44.55" y="0">ace</tspan></text><text class="cls-2" transform="translate(252.85 139.95)">L<tspan class="cls-5" x="6.31" y="0">o</tspan><tspan x="12.44" y="0">cal s</tspan><tspan class="cls-4" x="33.89" y="0">p</tspan><tspan x="40.17" y="0">ace</tspan></text><path class="cls-6" d="M128.55,67.67c.62.52,12.38,10.13,12.38,10.13v2.32h-4.2v47.16h-2.88l-3-40.64h-3.6l-.63,25.51h-2.52l-2.57-25.5-60.23.87L59.25,113h-2.7l-.9-25.51H53.58l-3.34,39.94h-3l-.58-46.39H43.4v-3s9.37-9.53,10.18-9.53C55.11,68.53,127.94,67.16,128.55,67.67Z"/><polyline class="cls-6" points="127.28 86.64 121.52 86.64 64.32 87.5 55.65 87.5"/><polyline class="cls-7" points="53.58 87.5 53.58 81.06 130.88 80.11 130.88 86.64"/><polyline class="cls-6" points="53.58 81.06 46.65 81.06 130.88 80.11 136.73 80.11"/><path class="cls-8" d="M72.75,70c0,6.45,21.79,5.82,21.78.39l.06-5.66H72.75Z"/><path class="cls-9" d="M103.29,51.35c-1.66-3.48-9.63-.49-9.63-.49l3.43,11.7C96.8,62.87,105.05,55,103.29,51.35Zm-2.6.69s.82,2.17-3.54,6.77l-1.86-5.32a13,13,0,0,1,5.4-1.45"/><path class="cls-10" d="M73.06,48.8A41.59,41.59,0,0,0,70,56.43,12,12,0,0,1,67,54c-2.78-2.84-6.86-1.29-7.08.17-.34,1.17,3.41,1,3.87,2.34s5.16,10.39,7.72,11.27c.09,3.13,11.31,7.31,21.66,2.66s2-19.76-.06-22.14"/><ellipse class="cls-11" cx="62.78" cy="53.77" rx="1.78" ry="0.49" transform="translate(-4.16 5.28) rotate(-4.66)"/><path class="cls-9" d="M83.12,46c-10.35,0-16.63,5.73.32,5.66S93.47,46,83.12,46Z"/><path class="cls-9" d="M80.68,47.8c1.52-1.58.14-2.52-.17-3.4s2.15-1,2.67-1,3.24.08,2.91,1.19-1.39,1.17-.59,3.2"/><g id="Eye"><path class="cls-12" d="M13.45,56.29c1.86,3.3,1.34,6.27-1.42,8.25a28.48,28.48,0,0,0-9.49-5.72l.35,0C6.12,58.59,9.46,58.39,13.45,56.29Z"/><path class="cls-11" d="M12,64.54c2.76-2,3.28-5,1.42-8.25-4,2.1-7.33,2.3-10.56,2.5l-.35,0A28.48,28.48,0,0,1,12,64.54ZM14,56c2,3.53,1.41,6.86-1.52,9,.41.41.82.83,1.22,1.29l-.48.42A27.6,27.6,0,0,0,1.58,59.14L1,58.89a.82.82,0,0,0,.11-.29.81.81,0,0,0,0-.33l1.79-.12c3.84-.24,7.47-.45,12.21-3.54l.35.53Q14.7,55.61,14,56Z"/><path class="cls-13" d="M14.12,60.77c-.27,1.38-1.2,2.37-2.08,2.19s-1.37-1.43-1.1-2.81S12.14,57.78,13,58,14.39,59.38,14.12,60.77Z"/><path class="cls-14" d="M13.81,61a1,1,0,0,1-1.17.84A1,1,0,0,1,12,60.56a1,1,0,0,1,1.17-.84A1,1,0,0,1,13.81,61Z"/></g><path class="cls-15" d="M129.21,12.76a1.84,1.84,0,0,0-1.91.81h0a2.21,2.21,0,0,0-.15,1.49,1.82,1.82,0,0,0-2.07,0h0a2.16,2.16,0,0,0-.73,1.31,1.84,1.84,0,0,0-1.88-.88v0a2.14,2.14,0,0,0-1.2.89,1.85,1.85,0,0,0-1.36-1.56h0a2.26,2.26,0,0,0-1.46.33,1.82,1.82,0,0,0-.61-2h0a2.2,2.2,0,0,0-1.47-.29,1.83,1.83,0,0,0,.25-2.06h0A2.21,2.21,0,0,0,115.4,10a1.82,1.82,0,0,0,1.06-1.78h0a2.2,2.2,0,0,0-.77-1.29,1.81,1.81,0,0,0,1.7-1.19h0a2.15,2.15,0,0,0-.17-1.49,1.84,1.84,0,0,0,2-.4h0a2.18,2.18,0,0,0,.45-1.43,1.84,1.84,0,0,0,2,.47l0-.05a2.26,2.26,0,0,0,1-1.1A1.86,1.86,0,0,0,124.3,3V3a2.75,2.75,0,0,0,1.42-.62,1.81,1.81,0,0,0,1,1.82v0a2.16,2.16,0,0,0,1.49,0,1.84,1.84,0,0,0,.18,2.07h0a2.16,2.16,0,0,0,1.37.59,1.85,1.85,0,0,0-.68,2h0a2.17,2.17,0,0,0,1,1.1,1.82,1.82,0,0,0-1.42,1.52h0A2.19,2.19,0,0,0,129.21,12.76Z"/><path class="cls-11" d="M130.62,10l.72-.07-.68-.23s-1.43-.5-1.31-1.65h0a2.06,2.06,0,0,1,1-1.33l.62-.35-.71.06s-1.51.12-1.87-1h0a2,2,0,0,1,.35-1.6l.42-.58-.62.35s-1.33.72-2.1-.13h0A2.06,2.06,0,0,1,126,1.92l.15-.69-.43.57s-.92,1.2-2,.73l0,0a2.09,2.09,0,0,1-1-1.35L122.66.5l-.11.71s-.39,1.47-1.46,1.47h0a2.52,2.52,0,0,1-1.42-.82l-.46-.58.12.7s.27,1.49-.78,2V4a2,2,0,0,1-1.63-.18l-.63-.36.42.58s.86,1.25.09,2.1h0a2.07,2.07,0,0,1-1.57.51l-.71-.08.61.37s1.3.78.94,1.88h0a2.07,2.07,0,0,1-1.23,1.1l-.68.22.71.08s1.5.2,1.62,1.34h0a2,2,0,0,1-.67,1.5l-.54.48.69-.21s1.45-.43,2,.56h0a2,2,0,0,1,0,1.65l-.29.65.54-.47s1.15-1,2.07-.31h0a2,2,0,0,1,.67,1.5v.72l.31-.65s.64-1.37,1.77-1.13v0a2.05,2.05,0,0,1,1.22,1.11l.29.66v-.72s0-1.51,1.16-1.75v0a2.06,2.06,0,0,1,1.56.52l.53.48-.28-.66S127,14,128,13.33h0a2,2,0,0,1,1.64-.17l.68.23-.53-.49s-1.1-1-.52-2h0A2.06,2.06,0,0,1,130.62,10Zm-1.41,2.73a1.84,1.84,0,0,0-1.91.81h0a2.21,2.21,0,0,0-.15,1.49,1.82,1.82,0,0,0-2.07,0h0a2.16,2.16,0,0,0-.73,1.31,1.84,1.84,0,0,0-1.88-.88v0a2.14,2.14,0,0,0-1.2.89,1.85,1.85,0,0,0-1.36-1.56h0a2.26,2.26,0,0,0-1.46.33,1.82,1.82,0,0,0-.61-2h0a2.2,2.2,0,0,0-1.47-.29,1.83,1.83,0,0,0,.25-2.06h0A2.21,2.21,0,0,0,115.4,10a1.82,1.82,0,0,0,1.06-1.78h0a2.2,2.2,0,0,0-.77-1.29,1.81,1.81,0,0,0,1.7-1.19h0a2.15,2.15,0,0,0-.17-1.49,1.84,1.84,0,0,0,2-.4h0a2.18,2.18,0,0,0,.45-1.43,1.84,1.84,0,0,0,2,.47l0-.05a2.26,2.26,0,0,0,1-1.1A1.86,1.86,0,0,0,124.3,3V3a2.75,2.75,0,0,0,1.42-.62,1.81,1.81,0,0,0,1,1.82v0a2.16,2.16,0,0,0,1.49,0,1.84,1.84,0,0,0,.18,2.07h0a2.16,2.16,0,0,0,1.37.59,1.85,1.85,0,0,0-.68,2h0a2.17,2.17,0,0,0,1,1.1,1.82,1.82,0,0,0-1.42,1.52h0A2.19,2.19,0,0,0,129.21,12.76Z"/><path class="cls-16" d="M128.42,9.13a5.67,5.67,0,1,1-5.67-5.66A5.67,5.67,0,0,1,128.42,9.13Z"/><line class="cls-17" x1="86.01" y1="64.61" x2="91.32" y2="76.51"/><polygon class="cls-18" points="89.29 76.78 92.47 79.09 92.88 75.19 89.29 76.78"/><line class="cls-19" x1="20.35" y1="61.28" x2="35.49" y2="62.04"/><path class="cls-20" d="M97,74.15v3.72h-.83v.57c.33,0,1.06,0,1.51,0s1.18,0,1.52,0v-.57h-.83V75.36a1.82,1.82,0,0,1,1.79-1.9c.41,0,.66.25.66,1.16v3.25H100v.57c.34,0,1.06,0,1.52,0s1.18,0,1.52,0v-.57h-.83V74.76c0-1.27-.65-1.74-1.86-1.74a2.27,2.27,0,0,0-2.1,1.3V73l-2.07.1v.57c.74,0,.83,0,.83.46"/><g class="cls-21"><path class="cls-22" d="M51.82,56.25a3.49,3.49,0,0,0,.41-1.19.42.42,0,0,0-.4-.47c-.66,0-.74,1.13-.75,1.42s0,.17,0,.18a1.81,1.81,0,0,1-1.18.47,1,1,0,0,1-1.11-1.06,4.1,4.1,0,0,1,.93-2.13c.09-.12.11-.15.11-.23a.22.22,0,0,0-.22-.23.31.31,0,0,0-.18.07,5.28,5.28,0,0,0-1.21,3c0,1.08.55,1.78,1.45,1.78a2.28,2.28,0,0,0,1.59-.77,1.19,1.19,0,0,0,1.15.77,2.84,2.84,0,0,0,2.21-1.39,5.74,5.74,0,0,0,.75-2.53c0-.82-.49-1-.72-1a.89.89,0,0,0-.81.81.62.62,0,0,0,.31.49,1,1,0,0,1,.51.78,2,2,0,0,1-2,1.66.84.84,0,0,1-.79-.41"/><path class="cls-22" d="M56.48,58.48a.94.94,0,0,0-.07.31.66.66,0,0,0,.71.63c.74,0,1.07-1,1.07-1.13s-.1-.1-.12-.1-.11,0-.14.12c-.17.6-.5.9-.79.9S57,59.12,57,59a1.13,1.13,0,0,1,.12-.47c.07-.2.15-.4.23-.6s.34-.85.37-.94a1,1,0,0,0,0-.24.66.66,0,0,0-.7-.63c-.74,0-1.08,1-1.08,1.14s.1.09.12.09.12,0,.14-.12c.19-.64.52-.9.79-.9.12,0,.19.06.19.26a2.11,2.11,0,0,1-.23.74l-.47,1.2M58,54.7a.28.28,0,0,0-.3-.28.44.44,0,0,0-.42.41.29.29,0,0,0,.3.28A.44.44,0,0,0,58,54.7Z"/></g><path class="cls-23" d="M239.72,137.15c-25.21,0-83.88.12-108.48.25"/><polygon class="cls-24" points="238.26 132.23 246.82 137.14 238.28 142.1 238.26 132.23"/><polygon class="cls-24" points="132.68 132.49 124.14 137.44 132.7 142.36 132.68 132.49"/><line class="cls-19" x1="114.85" y1="16.71" x2="109.02" y2="26.39"/><polygon class="cls-25" points="119.25 30.46 107.47 30.48 100.44 19.58 112.23 19.55 119.25 30.46"/><line class="cls-19" x1="109.85" y1="25.02" x2="88.24" y2="60.91"/><polygon class="cls-26" points="35.78 67.57 24.3 67.57 32.1 56.36 43.58 56.36 35.78 67.57"/><line class="cls-19" x1="34.55" y1="62" x2="56.11" y2="63.09"/><line class="cls-27" x1="89.59" y1="58.66" x2="103.54" y2="35.5"/><polygon class="cls-28" points="87.17 62.69 92.9 58.41 89.77 58.36 88.27 55.62 87.17 62.69"/><line class="cls-29" x1="86.01" y1="64.61" x2="53.37" y2="62.95"/><polygon class="cls-22" points="48.68 62.71 55.42 60.35 53.72 62.97 55.15 65.75 48.68 62.71"/><path class="cls-11" d="M116.77,16.71a1.92,1.92,0,1,1-1.92-1.92A1.92,1.92,0,0,1,116.77,16.71Z"/><path class="cls-11" d="M87.93,64.61A1.92,1.92,0,1,1,86,62.69,1.92,1.92,0,0,1,87.93,64.61Z"/><path class="cls-11" d="M22.27,61.28a1.92,1.92,0,1,1-1.92-1.92A1.92,1.92,0,0,1,22.27,61.28Z"/><line class="cls-30" x1="100.45" y1="24.84" x2="119.23" y2="24.84"/><polygon class="cls-31" points="118.8 26.33 121.39 24.84 118.8 23.34 118.8 26.33"/><line class="cls-30" x1="38.84" y1="55.2" x2="28.58" y2="69.95"/><polygon class="cls-31" points="27.6 68.73 27.35 71.71 30.06 70.44 27.6 68.73"/><ellipse class="cls-32" cx="276.92" cy="101.43" rx="65.06" ry="16.27"/><line class="cls-33" x1="226.91" y1="85.88" x2="337.43" y2="115.4"/><polygon points="336.22 117.4 340.55 116.24 337.38 113.07 336.22 117.4"/><line class="cls-33" x1="327.94" y1="87.48" x2="215.71" y2="113.34"/><polygon points="215.85 111.01 212.56 114.07 216.85 115.38 215.85 111.01"/><line class="cls-34" x1="276.92" y1="98.85" x2="276.92" y2="39.12"/><polygon class="cls-18" points="279.91 39.99 276.92 34.81 273.93 39.99 279.91 39.99"/><line class="cls-35" x1="215.26" y1="32.37" x2="199.29" y2="15.13"/><g class="cls-36"><path class="cls-20" d="M265.67,30.87V34H265v.47l1.25,0,1.26,0V34h-.69V31.87a1.52,1.52,0,0,1,1.49-1.58c.34,0,.55.21.55,1V34h-.69v.47l1.25,0,1.26,0V34H270V31.37c0-1.05-.54-1.44-1.53-1.44A1.89,1.89,0,0,0,266.7,31V29.93L265,30v.47c.61,0,.68,0,.68.39"/><path class="cls-20" d="M280.5,33.09c.14,0,.33,0,.33-.2s-.19-.2-.34-.2h-5.95c-.15,0-.34,0-.34.2s.19.2.33.2h6m0-1.93c.15,0,.34,0,.34-.2s-.19-.2-.33-.2h-6c-.14,0-.33,0-.33.2s.19.2.34.2Z"/><path class="cls-20" d="M288.64,30.42c.08-.11.1-.13.1-.22s-.14-.21-.32-.21h-3.66l-.12,1.75h.47c.06-1,.37-1.39,1.4-1.39h.85L284.57,34c-.09.11-.09.13-.09.22s.13.22.32.22h3.79l.18-2h-.47c-.09,1-.25,1.62-1.56,1.62h-.86l2.76-3.6"/></g><g class="cls-37"><path d="M209,114.81l1.16-1.3c.13-.14.19-.21,1-.21v-.47l-.92,0-1,0v.47a.68.68,0,0,1,.37.09.62.62,0,0,1-.08.12l-.83.94-1-1.15h.4v-.47l-1.21,0-1.09,0v.47h.7l1.56,1.84-1.31,1.46c-.17.19-.53.19-1,.19v.47l.91,0,1,0v-.47c-.18,0-.37-.05-.37-.11s0,0,.07-.1l1-1.08,1.1,1.29h-.39v.47l1.19,0,1.1,0v-.47h-.71l-1.67-2"/></g><g class="cls-38"><path d="M345.74,115.17c.07-.14.1-.21.74-.21v-.47c-.24,0-.54,0-.79,0l-.9,0V115s.46,0,.46.12a.56.56,0,0,1,0,.12l-1.15,2.45L342.79,115h.54v-.47c-.33,0-1.23,0-1.24,0l-1.13,0V115h.64l1.86,4-.23.48c-.22.47-.54,1.15-1.25,1.15a.43.43,0,0,1-.23,0,.56.56,0,0,0,.31-.53.54.54,0,0,0-.57-.56.55.55,0,0,0-.57.57,1,1,0,0,0,1.06.92,1.92,1.92,0,0,0,1.62-1.19l2.14-4.55"/></g><g class="cls-39"><path class="cls-22" d="M305.64,67.2a4.25,4.25,0,0,0,.49-1.42.5.5,0,0,0-.48-.56c-.79,0-.88,1.34-.89,1.69,0,.19,0,.2,0,.21a2.13,2.13,0,0,1-1.4.56A1.22,1.22,0,0,1,302,66.42a5,5,0,0,1,1.1-2.53c.11-.14.14-.18.14-.28a.28.28,0,0,0-.27-.27.39.39,0,0,0-.21.08A6.21,6.21,0,0,0,301.33,67c0,1.28.64,2.11,1.72,2.11a2.72,2.72,0,0,0,1.89-.91,1.4,1.4,0,0,0,1.37.91,3.34,3.34,0,0,0,2.62-1.66,6.64,6.64,0,0,0,.89-3c0-1-.58-1.18-.85-1.18a1.06,1.06,0,0,0-1,1,.76.76,0,0,0,.36.59,1.14,1.14,0,0,1,.61.92,2.44,2.44,0,0,1-2.41,2,1,1,0,0,1-.93-.48"/><path class="cls-22" d="M312.44,57.61l-1.33.09V58c.59,0,.66.07.66.5v4.53c0,.38-.09.38-.66.38v.32s.64,0,1,0,.66,0,1,0v-.32c-.58,0-.66,0-.66-.38V57.61"/><path class="cls-22" d="M316,63.55a1.28,1.28,0,0,1-1.1-.54,2.2,2.2,0,0,1-.27-1.23,2,2,0,0,1,.32-1.28,1.36,1.36,0,0,1,1.05-.45,1.3,1.3,0,0,1,1.08.52,2,2,0,0,1,.28,1.21,2.19,2.19,0,0,1-.28,1.26,1.3,1.3,0,0,1-1.08.51m2.16-1.69a2.17,2.17,0,0,0-4.33,0,2.17,2.17,0,0,0,4.33,0Z"/><path class="cls-22" d="M322.21,60.22a.4.4,0,0,0-.25.39.42.42,0,0,0,.84,0c0-.79-1.23-.79-1.47-.79a2.07,2.07,0,0,0-2.15,2,2,2,0,0,0,2.1,2,1.55,1.55,0,0,0,1.63-1.15c0-.11-.12-.11-.15-.11s-.13,0-.17.15a1.2,1.2,0,0,1-1.2.82c-.61,0-1.41-.45-1.41-1.72s.55-1.75,1.37-1.75a2.32,2.32,0,0,1,.86.14"/><path class="cls-22" d="M326.53,62.5a1.08,1.08,0,0,1-1.14,1.09.81.81,0,0,1-.87-.74c0-.48.42-1.16,2-1.23v.88m.7-1.12a1.23,1.23,0,0,0-.4-1.14,2,2,0,0,0-1.31-.44c-.84,0-1.44.32-1.44.86a.41.41,0,0,0,.43.43.39.39,0,0,0,.41-.41.41.41,0,0,0-.31-.41,1.79,1.79,0,0,1,.89-.22,1,1,0,0,1,1,1.07v.27a5.27,5.27,0,0,0-1.71.29c-.8.29-1.05.78-1.05,1.17,0,.76.92,1,1.55,1a1.42,1.42,0,0,0,1.31-.75.71.71,0,0,0,.68.7.84.84,0,0,0,.88-.84v-.49h-.3v.48c0,.09,0,.52-.33.52s-.33-.42-.33-.54Z"/><path class="cls-22" d="M330.16,57.61l-1.33.09V58c.59,0,.66.07.66.5v4.53c0,.38-.08.38-.66.38v.32s.64,0,1,0,.66,0,1,0v-.32c-.57,0-.66,0-.66-.38V57.61"/><path class="cls-22" d="M311.18,71.08a1.27,1.27,0,0,0-.08.37.79.79,0,0,0,.84.75c.89,0,1.28-1.22,1.28-1.35s-.12-.12-.15-.12-.13.06-.16.15c-.21.71-.6,1.07-.94,1.07-.18,0-.22-.11-.22-.3a1.41,1.41,0,0,1,.14-.57c.09-.24.18-.48.28-.71l.44-1.12a1.47,1.47,0,0,0,.05-.29.79.79,0,0,0-.84-.75c-.88,0-1.29,1.21-1.29,1.36s.13.11.16.11.13,0,.15-.14c.23-.76.62-1.08,1-1.08.14,0,.22.07.22.31a2.32,2.32,0,0,1-.27.88l-.56,1.43m1.81-4.5a.34.34,0,0,0-.36-.33.52.52,0,0,0-.49.48.33.33,0,0,0,.35.34A.53.53,0,0,0,313,66.58Z"/></g><line class="cls-40" x1="353.78" y1="56.85" x2="276.92" y2="99.24"/><line class="cls-41" x1="276.92" y1="98.85" x2="330.21" y2="69.82"/><polygon class="cls-22" points="337.65 65.77 329.5 75.76 329.66 70.12 324.84 67.2 337.65 65.77"/><polygon class="cls-26" points="333.92 40.95 359.61 36.56 374.28 72.63 348.49 78.51 333.92 40.95"/><polygon class="cls-25" points="196.07 34.75 223.13 12.68 234.43 30.88 208.33 51.91 196.07 34.75"/><line class="cls-30" x1="199.8" y1="44.77" x2="231.81" y2="18.93"/><polygon class="cls-31" points="232.41 20.36 233.49 17.57 230.53 18.04 232.41 20.36"/><line class="cls-40" x1="274.76" y1="96.52" x2="215.25" y2="32.3"/><line class="cls-42" x1="269.64" y1="90.99" x2="229.91" y2="48.12"/><polygon class="cls-28" points="275.4 97.21 270.86 85.13 269.21 90.53 263.71 91.77 275.4 97.21"/><line class="cls-30" x1="362.67" y1="78.63" x2="346.31" y2="36.73"/><polygon class="cls-31" points="347.86 36.59 345.52 34.72 345.07 37.68 347.86 36.59"/><path class="cls-11" d="M279,99.24a2,2,0,1,1-2-2A2,2,0,0,1,279,99.24Z"/><line class="cls-35" x1="370.68" y1="47.53" x2="353.78" y2="56.85"/><path class="cls-22" d="M23.1,77.82V74.87a2,2,0,0,1,1.53-.75c1.43,0,1.43,1.42,1.43,2.24A3,3,0,0,1,25.75,78a1.52,1.52,0,0,1-1.25.61,1.73,1.73,0,0,1-1.4-.81M23,74.28V70.84L21,70.93v.55c.72,0,.8,0,.8.46v7h.56l.57-.66a2.33,2.33,0,0,0,1.71.73,2.68,2.68,0,0,0,3-2.69,2.59,2.59,0,0,0-2.8-2.66A2.68,2.68,0,0,0,23,74.28Z"/><path class="cls-22" d="M29,79.79a.85.85,0,0,0-.08.34.73.73,0,0,0,.78.7c.82,0,1.18-1.13,1.18-1.26s-.11-.1-.13-.1-.13,0-.16.14c-.19.65-.55,1-.87,1-.16,0-.2-.11-.2-.29a1.37,1.37,0,0,1,.13-.52c.08-.22.17-.44.26-.66s.37-.94.4-1a.8.8,0,0,0,.05-.26.73.73,0,0,0-.77-.7c-.82,0-1.19,1.12-1.19,1.26s.11.1.14.1.12,0,.14-.13c.22-.7.58-1,.88-1,.13,0,.21.07.21.29a2.16,2.16,0,0,1-.26.82L29,79.79m1.67-4.16a.32.32,0,0,0-.33-.31.49.49,0,0,0-.46.45.32.32,0,0,0,.33.31A.49.49,0,0,0,30.66,75.63Z"/><path class="cls-28" d="M126,28.37V25.42a2,2,0,0,1,1.52-.75c1.43,0,1.43,1.42,1.43,2.24a3.09,3.09,0,0,1-.3,1.66,1.53,1.53,0,0,1-1.26.61,1.71,1.71,0,0,1-1.39-.81m-.07-3.54V21.39l-2.08.09V22c.73,0,.81,0,.81.46v7h.55l.58-.66a2.28,2.28,0,0,0,1.71.73,2.68,2.68,0,0,0,3-2.69,2.6,2.6,0,0,0-2.81-2.66A2.67,2.67,0,0,0,125.9,24.83Z"/><path class="cls-28" d="M132.87,31.15a.81.81,0,0,1-.82-.91,3.51,3.51,0,0,1,.48-1.61,1.55,1.55,0,0,1,1.2-.72.81.81,0,0,1,.81.91,3.57,3.57,0,0,1-.45,1.58,1.55,1.55,0,0,1-1.22.75m2.35-2a1.4,1.4,0,0,0-1.49-1.44,2.46,2.46,0,0,0-2.35,2.26,1.41,1.41,0,0,0,1.49,1.44A2.44,2.44,0,0,0,135.22,29.12Z"/><path class="cls-28" d="M238.49,20.42V17.2a2.17,2.17,0,0,1,1.67-.82c1.56,0,1.56,1.55,1.56,2.45a3.32,3.32,0,0,1-.33,1.8,1.65,1.65,0,0,1-1.37.67,1.9,1.9,0,0,1-1.53-.88m-.07-3.87V12.79l-2.27.1v.61c.79,0,.88,0,.88.5v7.68h.61l.62-.71a2.59,2.59,0,0,0,1.87.79,2.92,2.92,0,0,0,3.23-2.93,2.83,2.83,0,0,0-3.06-2.91A2.91,2.91,0,0,0,238.42,16.55Z"/><path class="cls-28" d="M245.69,10.2l-1.34.1v.32c.6,0,.67.06.67.5V15.7c0,.38-.09.38-.67.38v.32s.64,0,1,0,.67,0,1,0v-.32c-.58,0-.67,0-.67-.38V10.2"/><path class="cls-28" d="M249.28,16.21a1.3,1.3,0,0,1-1.11-.55,2.17,2.17,0,0,1-.27-1.24,2,2,0,0,1,.32-1.3,1.38,1.38,0,0,1,1.06-.45,1.35,1.35,0,0,1,1.1.52,2.07,2.07,0,0,1,.27,1.23,2.16,2.16,0,0,1-.28,1.27,1.34,1.34,0,0,1-1.09.52m2.19-1.71a2.2,2.2,0,0,0-4.39,0,2.21,2.21,0,0,0,4.39,0Z"/><path class="cls-28" d="M255.6,12.84a.42.42,0,1,0,.6.37c0-.79-1.24-.79-1.49-.79a2.1,2.1,0,0,0-2.18,2.05,2.07,2.07,0,0,0,2.13,2,1.55,1.55,0,0,0,1.65-1.16c0-.11-.12-.11-.15-.11s-.13,0-.17.15a1.23,1.23,0,0,1-1.22.84c-.62,0-1.42-.46-1.42-1.75,0-1.13.55-1.76,1.38-1.76a2.37,2.37,0,0,1,.87.14"/><path class="cls-28" d="M259.94,15.14a1.1,1.1,0,0,1-1.16,1.1.82.82,0,0,1-.88-.74c0-.49.43-1.18,2-1.24v.88m.7-1.13a1.22,1.22,0,0,0-.41-1.15,2,2,0,0,0-1.32-.44c-.85,0-1.45.32-1.45.86a.43.43,0,1,0,.54-.39,1.79,1.79,0,0,1,.89-.22,1,1,0,0,1,1.05,1.08V14a5.4,5.4,0,0,0-1.74.29c-.8.3-1.05.79-1.05,1.19,0,.77.93,1,1.56,1a1.43,1.43,0,0,0,1.32-.75.72.72,0,0,0,.69.71.85.85,0,0,0,.89-.85v-.49h-.31v.48c0,.09,0,.52-.33.52s-.33-.42-.33-.54Z"/><path class="cls-28" d="M263.6,10.2l-1.34.1v.32c.6,0,.67.06.67.5V15.7c0,.38-.09.38-.67.38v.32s.64,0,1,0,.67,0,1,0v-.32c-.58,0-.67,0-.67-.38V10.2"/><path class="cls-28" d="M246,24.7a.89.89,0,0,1-.9-1,3.81,3.81,0,0,1,.52-1.76,1.67,1.67,0,0,1,1.31-.78.89.89,0,0,1,.89,1,4.05,4.05,0,0,1-.5,1.73,1.69,1.69,0,0,1-1.32.81m2.55-2.22A1.52,1.52,0,0,0,247,20.92a2.69,2.69,0,0,0-2.58,2.46A1.53,1.53,0,0,0,246,25,2.66,2.66,0,0,0,248.59,22.48Z"/><path class="cls-22" d="M332.73,31.54V28.33a2.13,2.13,0,0,1,1.66-.82C336,27.51,336,29.06,336,30a3.32,3.32,0,0,1-.33,1.8,1.65,1.65,0,0,1-1.37.67,1.84,1.84,0,0,1-1.52-.89m-.08-3.87V23.92l-2.27.1v.6c.79,0,.88,0,.88.5v7.69h.61l.62-.71a2.6,2.6,0,0,0,1.88.79A2.92,2.92,0,0,0,337.59,30a2.83,2.83,0,0,0-3.06-2.91A3,3,0,0,0,332.65,27.67Z"/><path class="cls-22" d="M339.92,21.33l-1.34.09v.33c.6,0,.67.06.67.5v4.58c0,.38-.09.38-.67.38v.32s.64,0,1,0,.67,0,1,0v-.32c-.58,0-.67,0-.67-.38v-5.5"/><path class="cls-22" d="M343.51,27.34a1.31,1.31,0,0,1-1.11-.55,2.25,2.25,0,0,1-.27-1.24,2,2,0,0,1,.32-1.3,1.39,1.39,0,0,1,1.06-.46,1.33,1.33,0,0,1,1.1.53,2.07,2.07,0,0,1,.27,1.23,2.16,2.16,0,0,1-.28,1.27,1.32,1.32,0,0,1-1.09.52m2.19-1.71a2.19,2.19,0,0,0-4.38,0,2.2,2.2,0,0,0,4.38,0Z"/><path class="cls-22" d="M349.83,24a.43.43,0,0,0-.25.4.43.43,0,1,0,.85,0c0-.8-1.24-.8-1.49-.8a2.09,2.09,0,0,0-2.17,2.06,2.06,2.06,0,0,0,2.12,2,1.55,1.55,0,0,0,1.65-1.16c0-.11-.12-.11-.15-.11s-.13,0-.17.15a1.23,1.23,0,0,1-1.22.84c-.62,0-1.42-.46-1.42-1.75,0-1.13.55-1.76,1.39-1.76a2.52,2.52,0,0,1,.86.13"/><path class="cls-22" d="M354.17,26.27a1.1,1.1,0,0,1-1.16,1.1.82.82,0,0,1-.88-.74c0-.49.43-1.18,2-1.24v.88m.7-1.13a1.22,1.22,0,0,0-.41-1.15,2,2,0,0,0-1.32-.45c-.85,0-1.45.33-1.45.87a.43.43,0,1,0,.54-.39,1.73,1.73,0,0,1,.89-.23,1,1,0,0,1,1.05,1.09v.27a5.48,5.48,0,0,0-1.74.29c-.8.29-1.05.79-1.05,1.19,0,.77.93,1,1.56,1a1.46,1.46,0,0,0,1.33-.75.71.71,0,0,0,.68.71.85.85,0,0,0,.89-.85v-.49h-.3v.48c0,.09,0,.52-.33.52s-.34-.42-.34-.54Z"/><path class="cls-22" d="M357.83,21.33l-1.34.09v.33c.6,0,.67.06.67.5v4.58c0,.38-.09.38-.67.38v.32s.64,0,1,0,.67,0,1,0v-.32c-.58,0-.67,0-.67-.38v-5.5"/><path class="cls-22" d="M339.15,34.94a1.12,1.12,0,0,0-.08.38.8.8,0,0,0,.85.76c.89,0,1.29-1.24,1.29-1.37s-.12-.12-.15-.12-.13.06-.17.16c-.2.71-.6,1.08-.94,1.08-.18,0-.23-.12-.23-.32a1.35,1.35,0,0,1,.15-.57c.08-.24.18-.48.28-.71s.4-1,.44-1.14a1,1,0,0,0,.05-.29.79.79,0,0,0-.85-.76c-.88,0-1.29,1.22-1.29,1.37s.12.12.15.12.13-.05.16-.14c.23-.77.63-1.1,1-1.1.14,0,.22.08.22.32a2.3,2.3,0,0,1-.28.89l-.56,1.44M341,30.4a.34.34,0,0,0-.35-.34.52.52,0,0,0-.5.49.34.34,0,0,0,.35.34A.53.53,0,0,0,341,30.4Z"/><path class="cls-28" d="M84.52,38.07c.18,0,.37,0,.37-.21s-.19-.21-.37-.21H79.84c-.18,0-.37,0-.37.21s.19.21.37.21h4.68"/><path class="cls-28" d="M89.56,39A3.16,3.16,0,0,0,90,37.84a.41.41,0,0,0-.4-.46c-.65,0-.72,1.11-.73,1.39s0,.17,0,.18a1.78,1.78,0,0,1-1.17.46,1,1,0,0,1-1.09-1,4.13,4.13,0,0,1,.91-2.1c.1-.11.12-.14.12-.23a.23.23,0,0,0-.22-.22.33.33,0,0,0-.18.06A5.26,5.26,0,0,0,86,38.82c0,1.06.54,1.75,1.43,1.75A2.26,2.26,0,0,0,89,39.81a1.16,1.16,0,0,0,1.13.76,2.77,2.77,0,0,0,2.17-1.38A5.47,5.47,0,0,0,93,36.7c0-.8-.48-1-.7-1a.88.88,0,0,0-.8.8.62.62,0,0,0,.3.48.94.94,0,0,1,.51.77,2,2,0,0,1-2,1.63.83.83,0,0,1-.78-.4"/><path class="cls-28" d="M95.07,41.93a.72.72,0,0,1-.73-.81,3.11,3.11,0,0,1,.43-1.44A1.36,1.36,0,0,1,95.84,39a.73.73,0,0,1,.73.81,3.31,3.31,0,0,1-.41,1.42,1.38,1.38,0,0,1-1.09.66m2.1-1.81a1.25,1.25,0,0,0-1.33-1.29,2.21,2.21,0,0,0-2.11,2,1.26,1.26,0,0,0,1.34,1.28A2.18,2.18,0,0,0,97.17,40.12Z"/><path class="cls-28" d="M243,53.06c.16,0,.33,0,.33-.25s-.17-.26-.33-.26h-5.2c-.16,0-.34,0-.34.26s.18.25.34.25H243"/><path class="cls-28" d="M249,54.2a4.25,4.25,0,0,0,.49-1.42.5.5,0,0,0-.48-.56c-.78,0-.87,1.34-.88,1.68s0,.21,0,.22a2.14,2.14,0,0,1-1.41.56,1.22,1.22,0,0,1-1.31-1.26,4.9,4.9,0,0,1,1.1-2.52c.11-.14.14-.18.14-.28a.28.28,0,0,0-.27-.27.39.39,0,0,0-.21.08A6.27,6.27,0,0,0,244.69,54c0,1.27.64,2.11,1.72,2.11a2.71,2.71,0,0,0,1.88-.91,1.41,1.41,0,0,0,1.37.91,3.36,3.36,0,0,0,2.62-1.66,6.72,6.72,0,0,0,.88-3c0-1-.58-1.17-.85-1.17a1,1,0,0,0-1,1,.71.71,0,0,0,.37.58,1.15,1.15,0,0,1,.61.92,2.44,2.44,0,0,1-2.41,2,1,1,0,0,1-.93-.48"/><path class="cls-28" d="M255.77,44.63l-1.32.1v.32c.59,0,.66.06.66.49v4.52c0,.38-.09.38-.66.38v.32s.63,0,1,0,.67,0,1,0v-.32c-.57,0-.66,0-.66-.38V44.63"/><path class="cls-28" d="M259.31,50.56a1.26,1.26,0,0,1-1.09-.54A2.19,2.19,0,0,1,258,48.8a2,2,0,0,1,.32-1.28,1.35,1.35,0,0,1,1-.45,1.31,1.31,0,0,1,1.09.52,2.07,2.07,0,0,1,.27,1.21,2.18,2.18,0,0,1-.28,1.25,1.32,1.32,0,0,1-1.08.51m2.16-1.68a2.16,2.16,0,0,0-4.32,0,2.17,2.17,0,0,0,4.32,0Z"/><path class="cls-28" d="M265.55,47.23a.42.42,0,0,0-.24.39.42.42,0,1,0,.83,0c0-.78-1.22-.78-1.47-.78a2.06,2.06,0,0,0-2.14,2,2,2,0,0,0,2.1,2,1.54,1.54,0,0,0,1.62-1.14c0-.11-.11-.11-.15-.11s-.12,0-.17.15a1.2,1.2,0,0,1-1.2.82c-.61,0-1.4-.45-1.4-1.72s.55-1.74,1.37-1.74a2.44,2.44,0,0,1,.85.13"/><path class="cls-28" d="M269.87,49.51a1.09,1.09,0,0,1-1.14,1.09.82.82,0,0,1-.88-.74c0-.48.43-1.16,2-1.22v.87m.69-1.12a1.21,1.21,0,0,0-.4-1.13,2,2,0,0,0-1.31-.44c-.84,0-1.43.32-1.43.86a.42.42,0,1,0,.84,0,.4.4,0,0,0-.31-.4,1.76,1.76,0,0,1,.88-.22,1,1,0,0,1,1,1.06v.28a5.29,5.29,0,0,0-1.72.28c-.79.29-1,.78-1,1.17,0,.76.92,1,1.55,1a1.41,1.41,0,0,0,1.3-.74.72.72,0,0,0,.68.7.84.84,0,0,0,.88-.84v-.48h-.3V50c0,.09,0,.51-.33.51s-.33-.41-.33-.53Z"/><path class="cls-28" d="M273.48,44.63l-1.32.1v.32c.59,0,.66.06.66.49v4.52c0,.38-.09.38-.66.38v.32s.63,0,1,0,.67,0,1,0v-.32c-.57,0-.66,0-.66-.38V44.63"/><path class="cls-28" d="M255.66,58.94a.88.88,0,0,1-.89-1,3.71,3.71,0,0,1,.52-1.73,1.62,1.62,0,0,1,1.28-.77.87.87,0,0,1,.89,1,3.92,3.92,0,0,1-.5,1.71,1.63,1.63,0,0,1-1.3.8m2.52-2.19a1.5,1.5,0,0,0-1.6-1.54A2.65,2.65,0,0,0,254,57.64a1.52,1.52,0,0,0,1.61,1.55A2.64,2.64,0,0,0,258.18,56.75Z"/></g></svg>