<?xml version="1.0" encoding="utf-8"?>
<!-- Generator: Adobe Illustrator 19.2.1, SVG Export Plug-In . SVG Version: 6.00 Build 0)  -->
<svg version="1.1" id="Layer_1" xmlns="http://www.w3.org/2000/svg" xmlns:xlink="http://www.w3.org/1999/xlink" x="0px" y="0px"
	 viewBox="0 0 62.3 62.3" style="enable-background:new 0 0 62.3 62.3;" xml:space="preserve">
<style type="text/css">
	.st0{clip-path:url(#SVGID_2_);fill:#84C554;}
	.st1{clip-path:url(#SVGID_2_);fill:none;stroke:#111412;stroke-width:0.2;stroke-miterlimit:10;}
</style>
<g>
	<defs>
		<rect id="SVGID_1_" y="0" width="62.3" height="62.3"/>
	</defs>
	<clipPath id="SVGID_2_">
		<use xlink:href="#SVGID_1_"  style="overflow:visible;"/>
	</clipPath>
	<path class="st0" d="M30.6,60.5c0-1.8,0-7.8,0.7-11.1c0.7-3.3,2.1-9.9,0.5-14.4c-1.1,3.7-2,6.5-3.6,8.2c-0.8-0.3-0.8-0.2-0.8-0.2
		s-1.2,1.8-1.9,2.4c-0.7,0.6-1,0.3-1,0.3l-0.4-1.1c0,0-1.6,1.8-2.3,2c-0.4,0.1-0.5-0.4-0.3-0.5c0.2-0.2-1.3,1.5-2.4,0.9
		c-0.7-0.4-0.4-2.1-0.4-2.3c0-0.1-1.1,1.4-3.8,1.6c-0.4,0-0.4-1-0.4-1.2c-0.4,0.1-3.7,0-3.9-0.9c-0.2-0.9,0.5-1.7,0.7-2.1
		c-0.5-0.4-0.4-0.6-0.4-0.7c0,0,2.4-2.3,2.4-2.3s-3.7,1.2-4.7,0.9c-0.2-0.6-0.1-0.7-0.1-0.7s-2.1-0.1-2.6-1.1
		C6.7,37.1,7.5,36,7.5,36s-2.7-0.8-3.1-1.6c0.3-0.7,0.4-0.6-0.2-1c-0.6-0.4-1.5-1.5-1.2-1.9C3.2,31,3.7,30,5.5,29.7
		c-0.2-0.7-1.1-1.8,1-1.8c0.3,0,0.3-0.3,0.4-0.4s1.2-0.3,2.4,0.2c-0.5-1-1.3-2.5-0.5-2.8c0.8-0.3,1.8-0.9,3.5-0.3
		c0-0.4-0.4-2,3.9,0.4c0.4-0.6,0-2.1,4,1.1c1-1.3-0.4,1.7,10.4,5.5c0.1,0,0.9-0.1-2.5-2.6c-1.8-1.4-1-0.1-5.1-2.4
		c-0.2-0.1-1.2-1.1-2.5-2c-0.2-0.2,0.1-0.5,0.4-0.8c-0.3-0.2-1.6-0.9-3.1-2.4c0.3-0.5,0.4-0.7,0.6-1c-0.8-0.7-2.6-3.4-2.3-4.5
		c0.6-0.7,1.2-0.5,1.3-0.6c0.2-0.1-1.3-1.2-0.7-2.4c0.3-0.5,0.8-0.2,0.9-0.1c-0.1-0.3-0.9-2.1,0.1-2.6c0.9-0.5,1.5-0.5,3.4,0.4
		c-0.6-1.9-1.5-2.5-0.4-3.3c-0.1-0.9,0-2,0.9-2.3c0.3-0.1,1.5,0.8,1.5,0.8s-0.5-2,1.3-2.9c0.6-0.3,1.8,0.4,2.1,1
		c0.7-1,1.4-1.8,2.8,0.6c0.2-0.2,0.8-0.6,0.6,2.7c1.4-1.8,2.6-2.8,3.3-2.3c0.7,0.4,0.9,1.1,0.9,2c0.8-0.3,1.1-0.9,1,3.4
		c2.1-0.5,2.8-0.9,2.6,1.9c0.7,0.5,1,1.6-0.3,3.4c1.2,0.8,1.8,1-0.2,4c0.5,0.5,0.9,0.1-1.7,3.9c0.4,0.3,0.1,0.4-2.9,5
		c0,1.2,0,1.9,0.1,2.6c1.2-0.7,3-2.2,5.4-6.9c0.3-0.7-0.4-0.4,0.8-2.4l0.3,0.2c0,0,1.5-3.5,3.2-4.6c1.2,0.8,1.4,0.9,1.4,0.9
		s0.5-2.2,3-3.6c0.5,0.3,0.6,0.3,0.6,0.3s0.7-0.9,2.5-0.9c0.8,0,0.2,1,1.1,1.5l0,1.9c0.7-0.7,2.7-2.1,5.3-2c0.1,1,0.1,1.3,0.1,1.3
		c2.4-0.1,3.5-0.1,3.6,1.1c0.2,1.2-0.5,2.4-0.8,2.7c1,0.6,1.8,0.4-1.7,3.7c2.1,1.5,3,1.8,1.5,3.1c-1.6,1.4-1.4,1.2-1.2,1.3
		c0.2,0.6-1.2,1.6-4.8,2c3.3,0.6,4,1.3,3.8,1.6c0.5,0.5,2.2,1.7,1.5,2.6c-0.7,0.9-1.3,1.6-3.2,1.7c0.1,1.3,0.1,1.6,0.1,1.6
		s-0.8,1-5.9-0.4c0.9,1.7,1.3,2.8,1.2,3.4c-0.6,0.6-1.4,0.7-1.8,0.6c-1,0.8-1.2,1-3.4,0c-0.6,0.8-0.9,0.9-1.1,0.9
		c-0.2,0-2-0.9-2.4-1.2c-0.5,0.5-0.4,0.7-1.8-0.8c-1.1,0.8-0.3,1.7-3.2-2c-0.6,0.2-1.2-0.1-1.9-2.4c-0.3-0.9-0.9-1.1-1.2-1.2
		c-0.2,0-0.1,0.4,0.1,0.8c0.2,0.4,0.3,4,0.2,5.4c-0.1,1.4-0.8,6.9-1.1,8.2c-0.3,1.3-1.1,8.3-0.6,10.7C31.3,60.3,30.6,60.5,30.6,60.5
		"/>
	<path class="st1" d="M30.6,60.5c0-1.8,0-7.8,0.7-11.1c0.7-3.3,2.1-9.9,0.5-14.4c-1.1,3.7-2,6.5-3.6,8.2c-0.8-0.3-0.8-0.2-0.8-0.2
		s-1.2,1.8-1.9,2.4c-0.7,0.6-1,0.3-1,0.3l-0.4-1.1c0,0-1.6,1.8-2.3,2c-0.4,0.1-0.5-0.4-0.3-0.5c0.2-0.2-1.3,1.5-2.4,0.9
		c-0.7-0.4-0.4-2.1-0.4-2.3c0-0.1-1.1,1.4-3.8,1.6c-0.4,0-0.4-1-0.4-1.2c-0.4,0.1-3.7,0-3.9-0.9c-0.2-0.9,0.5-1.7,0.7-2.1
		c-0.5-0.4-0.4-0.6-0.4-0.7c0,0,2.4-2.3,2.4-2.3s-3.7,1.2-4.7,0.9c-0.2-0.6-0.1-0.7-0.1-0.7s-2.1-0.1-2.6-1.1
		C6.7,37.1,7.5,36,7.5,36s-2.7-0.8-3.1-1.6c0.3-0.7,0.4-0.6-0.2-1c-0.6-0.4-1.5-1.5-1.2-1.9C3.2,31,3.7,30,5.5,29.7
		c-0.2-0.7-1.1-1.8,1-1.8c0.3,0,0.3-0.3,0.4-0.4s1.2-0.3,2.4,0.2c-0.5-1-1.3-2.5-0.5-2.8c0.8-0.3,1.8-0.9,3.5-0.3
		c0-0.4-0.4-2,3.9,0.4c0.4-0.6,0-2.1,4,1.1c1-1.3-0.4,1.7,10.4,5.5c0.1,0,0.9-0.1-2.5-2.6c-1.8-1.4-1-0.1-5.1-2.4
		c-0.2-0.1-1.2-1.1-2.5-2c-0.2-0.2,0.1-0.5,0.4-0.8c-0.3-0.2-1.6-0.9-3.1-2.4c0.3-0.5,0.4-0.7,0.6-1c-0.8-0.7-2.6-3.4-2.3-4.5
		c0.6-0.7,1.2-0.5,1.3-0.6c0.2-0.1-1.3-1.2-0.7-2.4c0.3-0.5,0.8-0.2,0.9-0.1c-0.1-0.3-0.9-2.1,0.1-2.6c0.9-0.5,1.5-0.5,3.4,0.4
		c-0.6-1.9-1.5-2.5-0.4-3.3c-0.1-0.9,0-2,0.9-2.3c0.3-0.1,1.5,0.8,1.5,0.8s-0.5-2,1.3-2.9c0.6-0.3,1.8,0.4,2.1,1
		c0.7-1,1.4-1.8,2.8,0.6c0.2-0.2,0.8-0.6,0.6,2.7c1.4-1.8,2.6-2.8,3.3-2.3c0.7,0.4,0.9,1.1,0.9,2c0.8-0.3,1.1-0.9,1,3.4
		c2.1-0.5,2.8-0.9,2.6,1.9c0.7,0.5,1,1.6-0.3,3.4c1.2,0.8,1.8,1-0.2,4c0.5,0.5,0.9,0.1-1.7,3.9c0.4,0.3,0.1,0.4-2.9,5
		c0,1.2,0,1.9,0.1,2.6c1.2-0.7,3-2.2,5.4-6.9c0.3-0.7-0.4-0.4,0.8-2.4l0.3,0.2c0,0,1.5-3.5,3.2-4.6c1.2,0.8,1.4,0.9,1.4,0.9
		s0.5-2.2,3-3.6c0.5,0.3,0.6,0.3,0.6,0.3s0.7-0.9,2.5-0.9c0.8,0,0.2,1,1.1,1.5l0,1.9c0.7-0.7,2.7-2.1,5.3-2c0.1,1,0.1,1.3,0.1,1.3
		c2.4-0.1,3.5-0.1,3.6,1.1c0.2,1.2-0.5,2.4-0.8,2.7c1,0.6,1.8,0.4-1.7,3.7c2.1,1.5,3,1.8,1.5,3.1c-1.6,1.4-1.4,1.2-1.2,1.3
		c0.2,0.6-1.2,1.6-4.8,2c3.3,0.6,4,1.3,3.8,1.6c0.5,0.5,2.2,1.7,1.5,2.6c-0.7,0.9-1.3,1.6-3.2,1.7c0.1,1.3,0.1,1.6,0.1,1.6
		s-0.8,1-5.9-0.4c0.9,1.7,1.3,2.8,1.2,3.4c-0.6,0.6-1.4,0.7-1.8,0.6c-1,0.8-1.2,1-3.4,0c-0.6,0.8-0.9,0.9-1.1,0.9
		c-0.2,0-2-0.9-2.4-1.2c-0.5,0.5-0.4,0.7-1.8-0.8c-1.1,0.8-0.3,1.7-3.2-2c-0.6,0.2-1.2-0.1-1.9-2.4c-0.3-0.9-0.9-1.1-1.2-1.2
		c-0.2,0-0.1,0.4,0.1,0.8c0.2,0.4,0.3,4,0.2,5.4c-0.1,1.4-0.8,6.9-1.1,8.2c-0.3,1.3-1.1,8.3-0.6,10.7C31.3,60.3,30.6,60.5,30.6,60.5
		z"/>
</g>
</svg>
