<svg xmlns="http://www.w3.org/2000/svg" xmlns:xlink="http://www.w3.org/1999/xlink" viewBox="0 0 1506.26 483.34"><defs><style>.cls-1,.cls-10,.cls-14,.cls-16,.cls-3,.cls-6,.cls-7{fill:none;}.cls-10,.cls-16,.cls-2,.cls-6,.cls-7,.cls-8{stroke:#000;}.cls-16,.cls-2,.cls-3,.cls-8{stroke-linecap:round;}.cls-14,.cls-16,.cls-2,.cls-3,.cls-6,.cls-7,.cls-8{stroke-miterlimit:10;}.cls-2,.cls-7,.cls-8{stroke-width:2px;}.cls-2{fill:url(#linear-gradient);}.cls-3{stroke:#273968;stroke-width:6px;}.cls-4{fill:#273968;}.cls-5{fill:#253b7e;opacity:0.5;}.cls-8{fill:url(#linear-gradient-2);}.cls-9{fill:#bbbdbe;}.cls-10{stroke-linejoin:bevel;stroke-width:5px;}.cls-11{fill:#fff;}.cls-12{fill:#a8a149;}.cls-13{fill:#f7f3aa;}.cls-14{stroke:#ed2024;stroke-width:3px;}.cls-15{fill:#ed2024;}.cls-16{stroke-width:4px;stroke-dasharray:0 15;}.cls-17{clip-path:url(#clip-path);}.cls-18{clip-path:url(#clip-path-2);}.cls-19{clip-path:url(#clip-path-3);}.cls-20{clip-path:url(#clip-path-4);}</style><linearGradient id="linear-gradient" x1="-173.15" y1="250.03" x2="111.42" y2="250.03" gradientTransform="translate(543.93 117.71) rotate(18.51)" gradientUnits="userSpaceOnUse"><stop offset="0" stop-color="#fff"/><stop offset="0.11" stop-color="#f9f9f9"/><stop offset="0.25" stop-color="#e8e8e8"/><stop offset="0.41" stop-color="#cdcdcd"/><stop offset="0.58" stop-color="#a6a6a6"/><stop offset="0.77" stop-color="#757575"/><stop offset="0.96" stop-color="#393939"/><stop offset="0.97" stop-color="#363636"/></linearGradient><linearGradient id="linear-gradient-2" x1="94.49" y1="-27.6" x2="379.05" y2="-27.6" gradientTransform="translate(858 227.69) rotate(25.13)" xlink:href="#linear-gradient"/><clipPath id="clip-path"><rect class="cls-1" x="172.74" y="138.24" width="21.46" height="26.82"/></clipPath><clipPath id="clip-path-2"><rect class="cls-1" x="1356.87" y="205.12" width="39.34" height="48.28"/></clipPath><clipPath id="clip-path-3"><rect class="cls-1" x="390.32" y="316.01" width="67.94" height="48.28"/></clipPath><clipPath id="clip-path-4"><rect class="cls-1" x="1054.09" y="287.45" width="74.29" height="47.75"/></clipPath></defs><title>light_transport0</title><g id="Layer_5" data-name="Layer 5"><path class="cls-2" d="M502.38,227.12c-64-14.33-127.72,2.35-191.24,40.53,16.69,57.07,30.69,121.63,43.24,190.61,68.55-34.65,138.82-52,210.73-52.84C552.64,333.1,534.07,270.09,502.38,227.12Z"/><line class="cls-3" x1="450.82" y1="306.7" x2="584.33" y2="296.19"/><line class="cls-3" x1="433.91" y1="293.95" x2="317.81" y2="206.45"/><polygon class="cls-4" points="450.82 306.7 434.33 279 432.64 293 419.65 298.47 450.82 306.7"/><polygon class="cls-5" points="619.08 311.89 601.44 234.1 549.89 283.81 571.38 361.24 619.08 311.89"/><polygon class="cls-6" points="619.08 311.89 601.44 234.1 549.89 283.81 571.38 361.24 619.08 311.89"/><polygon class="cls-5" points="349.03 151.65 279.17 200.17 284 262.2 355.9 214.63 349.03 151.65"/><polygon class="cls-6" points="355.9 214.63 349.03 151.65 279.17 200.17 284 262.2 355.9 214.63"/><line class="cls-7" x1="584.33" y1="296.19" x2="599.41" y2="342.36"/><polygon points="595.02 340.84 599.02 341.19 602.06 338.54 601.26 348.04 595.02 340.84"/><line class="cls-7" x1="584.12" y1="296.21" x2="620.16" y2="267.14"/><polygon points="620.3 271.79 619.2 267.92 615.65 266.02 624.8 263.4 620.3 271.79"/><line class="cls-3" x1="584.33" y1="296.19" x2="641.79" y2="291.34"/><polygon class="cls-4" points="662.89 289.56 634.18 304.22 640.21 291.47 632.13 279.92 662.89 289.56"/><line class="cls-7" x1="317.81" y1="206.45" x2="362.91" y2="176.64"/><polygon points="362.61 181.28 361.88 177.32 358.53 175.1 367.89 173.35 362.61 181.28"/><line class="cls-7" x1="317.81" y1="206.45" x2="322.77" y2="241.8"/><polygon points="318.71 239.53 322.6 240.57 326.05 238.5 323.6 247.71 318.71 239.53"/><line class="cls-3" x1="317.81" y1="206.45" x2="239.49" y2="147.42"/><path class="cls-8" d="M1164.31,193.89c-61.92-21.62-127.14-12.39-194.64,18.21,10,58.61,16.47,124.36,21,194.32,72.1-26.52,143.9-35.64,215.42-28.2C1202,305,1190.83,240.22,1164.31,193.89Z"/><line class="cls-3" x1="1082.37" y1="263.5" x2="1228.79" y2="204.65"/><line class="cls-3" x1="1059.09" y1="264.54" x2="914.01" y2="273.77"/><polygon class="cls-4" points="1080.23 263.19 1049.67 252.92 1057.51 264.64 1051.22 277.26 1080.23 263.19"/><polygon class="cls-5" points="1263.2 219.92 1246.81 141.87 1194.47 190.74 1214.73 268.5 1263.2 219.92"/><polygon class="cls-6" points="1263.2 219.92 1246.81 141.87 1194.47 190.74 1214.73 268.5 1263.2 219.92"/><polygon class="cls-5" points="901.99 211.86 880.6 294.18 924.67 338.1 948.24 255.16 901.99 211.86"/><polygon class="cls-6" points="948.24 255.16 901.99 211.86 880.6 294.18 924.67 338.1 948.24 255.16"/><line class="cls-7" x1="1228.79" y1="204.65" x2="1195.66" y2="240.17"/><polygon points="1194.87 235.59 1196.5 239.26 1200.28 240.64 1191.59 244.53 1194.87 235.59"/><line class="cls-7" x1="1228.66" y1="203.49" x2="1214.98" y2="159.26"/><polygon points="1219.35 160.85 1215.35 160.44 1212.27 163.04 1213.22 153.56 1219.35 160.85"/><line class="cls-3" x1="1228.79" y1="204.65" x2="1277.95" y2="185.02"/><polygon class="cls-4" points="1297.63 177.17 1274.43 199.56 1276.48 185.61 1265.38 176.91 1297.63 177.17"/><line class="cls-7" x1="912.29" y1="271.69" x2="881.21" y2="249.6"/><polygon points="885.65 248.21 882.22 250.31 881.36 254.25 876.35 246.14 885.65 248.21"/><line class="cls-7" x1="912.29" y1="271.69" x2="893.16" y2="321.1"/><polygon points="890.72 317.14 893.61 319.95 897.63 319.82 891.01 326.67 890.72 317.14"/><line class="cls-3" x1="914.01" y1="273.77" x2="825.38" y2="279.41"/><path class="cls-9" d="M1411.36,169.71c21.7-33.67,68.63-57.48,68.63-57.48s-44.92,7.9-89.1-4.79h0c-11.31,25.94-5,46.83,20.47,62.27"/><path class="cls-10" d="M1390.89,107.44c-11.31,25.94-5,46.83,20.47,62.27l-6.17,11.49c16.94-39.62,74.8-69,74.8-69s-55.24,9.72-103.45-9.7"/><ellipse class="cls-11" cx="1402.83" cy="137.58" rx="11.57" ry="18.24" transform="translate(8.51 344.3) rotate(-14.03)"/><ellipse cx="1400.84" cy="137.72" rx="6.21" ry="7.98" transform="translate(63.99 578.34) rotate(-23.86)"/><path class="cls-12" d="M119.67,110.74c-1.69-8.45-4.92-12.57-9.84-12.57-2.8,0-6,1.35-9.87,4.13,1.32-5.52,1-9.53-1-12.21-1.74-2.37-4.75-3.58-8.92-3.58a30.15,30.15,0,0,0-4.92.45c4.28-5.53,5.71-10,4.36-13.49S84.43,67.79,78,66.57c5.46-3.29,8.24-6.67,8.47-10.28.22-3.41-1.88-6.89-6.41-10.58h.57c5.13,0,8.61-1.38,10.33-4.11,2-3.2,1.58-8.11-1.33-15a20.78,20.78,0,0,0,8,2,7.88,7.88,0,0,0,6.08-2.48c2.27-2.48,3.27-6.66,3-12.75,4,3.89,7.47,5.8,10.66,5.8,4.37,0,7.74-3.47,10.26-10.58,2.6,6.77,6,10.19,10.17,10.19,3.32,0,6.94-2.13,11-6.49,0,5.88,1.07,9.91,3.32,12.29A7.77,7.77,0,0,0,158.08,27a20.32,20.32,0,0,0,8.57-2.38c-2.51,6.39-2.77,11-.78,14.09,1.84,2.86,5.44,4.25,11,4.25h.73c-4.07,3.79-5.95,7.45-5.57,10.9.41,3.76,3.32,7.11,8.87,10.2-5.68,2.06-9,4.81-10,8.37s.18,7.44,3.64,12.08a24,24,0,0,0-3.72-.31c-3.8,0-6.62,1.14-8.4,3.39-2.23,2.82-2.76,7.23-1.62,13.42-3.49-2.25-6.5-3.36-9.16-3.36-5.19,0-8.65,4.21-10.33,12.51-3.45-5.46-6.93-8.12-10.59-8.12S123.3,104.89,119.67,110.74Z"/><path d="M127.74,11.29c2.64,5.67,6,8.54,10.14,8.54,3.12,0,6.44-1.68,10.06-5.12.26,4.89,1.43,8.38,3.53,10.61A8.73,8.73,0,0,0,158.08,28a18.67,18.67,0,0,0,6.84-1.52c-1.86,5.59-1.81,9.8.11,12.77s5.24,4.39,10.19,4.67c-3.17,3.43-4.54,6.75-4.19,10,.4,3.67,2.9,6.93,7.61,9.91-4.83,2.1-7.69,4.82-8.7,8.27s-.15,7,2.51,11.11c-.57,0-1.11-.06-1.64-.06-4.12,0-7.2,1.27-9.18,3.77-2.14,2.71-2.86,6.69-2.16,12.08a16.43,16.43,0,0,0-7.84-2.4c-5.22,0-8.83,3.72-10.79,11.06-3.24-4.48-6.58-6.67-10.13-6.67s-7.15,2.36-10.56,7.17c-1.28-5-4-11-10.32-11-2.49,0-5.26,1-8.4,2.93.74-4.6.19-8.1-1.65-10.61s-5.22-4-9.73-4a26.74,26.74,0,0,0-2.74.15c3.41-5,4.43-9.1,3.11-12.55-1.25-3.29-4.5-5.6-9.86-7,4.43-3.08,6.71-6.3,6.93-9.77.2-3.2-1.39-6.4-4.84-9.71,4.42-.34,7.5-1.85,9.17-4.5,2-3.12,1.85-7.64-.38-13.72a18.77,18.77,0,0,0,6.22,1.23,8.86,8.86,0,0,0,6.82-2.81c2.14-2.33,3.24-6,3.33-11.12,3.48,3,6.66,4.49,9.63,4.49,4.31,0,7.71-2.93,10.3-8.92m-.07-5.82c-2.37,8.24-5.71,12.74-10.23,12.74-3.29,0-7.21-2.38-11.83-7.45,1,11.15-1.61,16.89-8,16.89-2.67,0-6-1-10-3.09,5.84,12.23,5.3,20.16-7,20.16a36.25,36.25,0,0,1-3.85-.23C87.16,51.72,90.24,59.15,75,67.1c16,2.09,17.82,9.49,7.57,21.38a34.32,34.32,0,0,1,7.46-1c8.85,0,11.84,5.55,8.15,17.42,4.85-4,8.65-5.76,11.63-5.76,5.36,0,8,5.73,9.32,14.44,3.9-7.08,7.75-10.57,11.56-10.57s7.45,3.36,11.11,10c1.41-9.89,4.8-14.37,9.81-14.37,3,0,6.57,1.61,10.66,4.61-2.93-12.37.21-18.06,8.52-18.06A28.25,28.25,0,0,1,177,86c-9.42-11-6.28-17.92,6.44-21.74-12.56-6.15-14.18-13.57-3-22.49-1.31.12-2.52.18-3.64.18-12.9,0-13.47-7.89-8.21-19.51-4.3,2.39-7.81,3.55-10.58,3.55-6.19,0-8.7-5.77-8.11-16.4q-6.9,8.24-12.09,8.23c-4.26,0-7.66-4.14-10.21-12.36Z"/><circle class="cls-13" cx="129.62" cy="60.87" r="37.96"/><path class="cls-14" d="M816.88,259.18c4.51-13.83,13.46-22.52,23.18-22.52,14.37,0,26.19,19,26.19,42.09,0,14.56-4.71,27.66-11.91,35.24"/><polygon class="cls-15" points="843.42 320.49 854.52 304.64 854.91 313.1 862.44 316.95 843.42 320.49"/><line class="cls-16" x1="670.46" y1="289.56" x2="814.85" y2="280.54"/><path class="cls-14" d="M285.69,203.43c-12.44,8.24-25.72,9.35-34.42,2.87-12.86-9.58-11.92-32.93,2.09-51.74,9.15-12.28,21.86-19.91,33.22-20.88"/><polygon class="cls-15" points="299.11 135.8 280.38 140.6 285.58 133.94 282.37 126.11 299.11 135.8"/><line class="cls-16" x1="232.68" y1="142.26" x2="179.85" y2="102.25"/><line class="cls-16" x1="1304.85" y1="174.42" x2="1374.23" y2="147.98"/><path class="cls-14" d="M1360.22,188c-9.15,9.93-21.59,13.77-32.21,9.94-15.71-5.66-22.84-26.41-15.8-46,4.62-12.83,14.32-22.3,25-25.56"/><polygon class="cls-15" points="1349.9 125.64 1332.73 134.54 1336.3 126.87 1331.41 119.97 1349.9 125.64"/><g class="cls-17"><path d="M174.33,155.92a59.54,59.54,0,0,1,.69,8.31c3-.06,5.48.69,8.25.69,4.44,0,10-2,10-7.44,0-4.5-4.1-7-9.06-8.82-2.36-.87-3.17-2.19-3.17-4.21a3.09,3.09,0,0,1,3.23-3.29c2.6,0,4.44,1.33,5.59,5.37l2.25-.29c-.17-2.08-.4-4.15-.63-5.88a15.14,15.14,0,0,0-7.38-1.62c-5.25,0-9,3.11-9,7.09,0,4.62,5.08,7.56,8,8.59,3.17,1.1,3.81,2.25,3.81,4.5a3.43,3.43,0,0,1-3.41,3.75c-4.32,0-5.76-1.9-6.8-6.86l-2.31.11"/></g><g class="cls-18"><path d="M1357.75,243.9a61.08,61.08,0,0,1,.69,8.3c3,0,5.48.69,8.25.69,4.44,0,10-1.95,10-7.43,0-4.5-4.09-7-9.05-8.82-2.37-.87-3.17-2.2-3.17-4.21a3.09,3.09,0,0,1,3.23-3.29c2.59,0,4.44,1.33,5.59,5.36l2.25-.28c-.17-2.08-.4-4.16-.64-5.89a15.23,15.23,0,0,0-7.38-1.61c-5.24,0-9,3.11-9,7.09,0,4.61,5.07,7.55,8,8.59,3.17,1.1,3.8,2.25,3.8,4.5a3.42,3.42,0,0,1-3.4,3.75c-4.32,0-5.76-1.91-6.8-6.86l-2.31.11"/><path d="M1394.53,209.33c0-1.63-1.69-2.75-3.18-2.75-1.73,0-2.57,1.68-3,3.08l-4.86,14.16a6.62,6.62,0,0,0-.47,1.63c0,.43.29,1,.75,1,.7,0,1.5-1,1.82-1.49l7.67-12.1a6.88,6.88,0,0,0,1.31-3.51"/></g><g class="cls-19"><path d="M431,322.18c-.11-1.62.81-2.54,3.17-2.54h.81a.42.42,0,0,0,.46-.46V317.8l-.11-.06h-8.94c-3.57,8.94-7.32,19.08-10.95,28.14l-11.83-28.14h-9.74l-.11.06v1.38a.47.47,0,0,0,.52.46h.8c2.25,0,2.71.64,2.6,2.54L396,350.61c-.11,1.84-1.32,2.53-3.63,2.53h-.58a.48.48,0,0,0-.46.52V355l.12.11s3.86-.11,6.11-.11c2,0,6.23.11,6.23.11l.11-.11v-1.33c0-.34-.17-.52-.46-.52h-.81c-2.36,0-3.11-.69-3-2.53l1.21-21.51c4.21,9.86,10.66,25.48,10.66,25.48a1.88,1.88,0,0,0,1.73,1.1,1.73,1.73,0,0,0,1.67-1.1s6.87-16.89,10.32-25.31L427,350.61c.18,1.78-.57,2.53-2.88,2.53h-.81a.48.48,0,0,0-.46.52V355l.12.11s4.78-.11,7-.11c2,0,7.73.11,7.73.11l.11-.11v-1.33c0-.34-.17-.52-.46-.52h-.81c-2.36,0-3-.92-3.17-2.53L431,322.18"/><path d="M452.59,357.87V341.65c0-2.8,0-5.65.14-6.26,0-.23-.1-.23-.28-.23a84.08,84.08,0,0,1-9.16,4.67,1.78,1.78,0,0,0,.7,1.26,11.11,11.11,0,0,1,4.07-1.17c.79,0,.93,1.13.93,2.71v15.24c0,3.88-1.26,4.11-4.53,4.25a1.52,1.52,0,0,0,0,1.54c2.29,0,4-.09,6.49-.09,2.24,0,3.37.05,5.7.09a1.52,1.52,0,0,0,0-1.54c-3.27-.14-4.06-.37-4.06-4.25"/></g><g class="cls-20"><path d="M1093.58,293.56c-.11-1.6.8-2.51,3.14-2.51h.79a.42.42,0,0,0,.46-.46v-1.37l-.11-.05H1089c-3.54,8.84-7.25,18.87-10.84,27.83l-11.69-27.83h-9.64l-.12.05v1.37a.47.47,0,0,0,.52.46h.8c2.22,0,2.68.63,2.56,2.51L1059,321.68c-.12,1.82-1.32,2.51-3.6,2.51h-.57a.46.46,0,0,0-.45.51V326l.11.11s3.82-.11,6-.11c2,0,6.16.11,6.16.11l.11-.11V324.7c0-.34-.17-.51-.46-.51h-.79c-2.34,0-3.08-.69-3-2.51l1.2-21.28c4.16,9.76,10.55,25.21,10.55,25.21a1.87,1.87,0,0,0,1.71,1.09,1.73,1.73,0,0,0,1.65-1.09s6.79-16.71,10.21-25l1.77,21.11c.17,1.76-.57,2.51-2.85,2.51h-.8a.47.47,0,0,0-.46.51V326l.12.11s4.73-.11,7-.11c2,0,7.64.11,7.64.11l.11-.11V324.7c0-.34-.17-.51-.45-.51h-.8c-2.34,0-3-.92-3.14-2.51l-2.45-28.12"/><path d="M1123.18,328.77l2-7.35a13.81,13.81,0,0,0,.83-3.51c0-2.78-1.34-3.7-3.33-3.7-2.63,0-4.85,1-9.57,6l0-.05.1-.41a27.06,27.06,0,0,0,1.11-4.39c0-.65-.33-1-1-1-1.71,0-4.16.32-6.61.6-.41.37-.23.88.05,1.29l2,.14a.88.88,0,0,1,.87.92,10.05,10.05,0,0,1-.51,2.36l-2.81,11.51a19,19,0,0,0-.65,2.55c0,.78.6,1.24,2.31,1.24,2,0,1.94-2,2.45-3.79l1.89-7.67c3.19-3.79,6-6.52,7.82-6.52,1.06,0,1.71.23,1.71,1.67a12.37,12.37,0,0,1-.79,3.14l-1.94,7.4a19.76,19.76,0,0,0-1,4.25c0,.87.6,1.52,2.22,1.52,2.54,0,5.08-1.57,7.53-4.3a1.1,1.1,0,0,0-1.15-.78c-1.39,1.38-2.92,2.31-3.47,2.31-.37,0-.55-.23-.55-.79a16.46,16.46,0,0,1,.59-2.63"/></g></g></svg>