<svg xmlns="http://www.w3.org/2000/svg" xmlns:xlink="http://www.w3.org/1999/xlink" viewBox="0 0 1595.02 459"><defs><style>.cls-1,.cls-14,.cls-5{fill:none;}.cls-2{fill:#999;}.cls-13,.cls-14,.cls-15,.cls-2,.cls-3,.cls-4{stroke:#000;}.cls-13,.cls-14,.cls-15,.cls-2,.cls-3,.cls-4,.cls-5{stroke-miterlimit:10;}.cls-2,.cls-5{stroke-width:2px;}.cls-3{fill:#da2027;}.cls-4{fill:#54b948;}.cls-5{stroke:#4c4c4d;}.cls-6{fill:#4c4c4d;}.cls-7{clip-path:url(#clip-path);}.cls-8{clip-path:url(#clip-path-2);}.cls-9{clip-path:url(#clip-path-3);}.cls-10{clip-path:url(#clip-path-4);}.cls-11{clip-path:url(#clip-path-5);}.cls-12{clip-path:url(#clip-path-6);}.cls-13{fill:#da1f26;}.cls-14{stroke-linecap:round;stroke-width:3px;stroke-dasharray:0 8;}.cls-15{fill:#fff;stroke-width:1.5px;}.cls-16{clip-path:url(#clip-path-7);}.cls-17{clip-path:url(#clip-path-8);}.cls-18{clip-path:url(#clip-path-9);}.cls-19{clip-path:url(#clip-path-10);}</style><clipPath id="clip-path"><rect class="cls-1" x="1552.57" y="170.41" width="25.33" height="23.84"/></clipPath><clipPath id="clip-path-2"><rect class="cls-1" x="1395.54" y="7.07" width="25.33" height="34.27"/></clipPath><clipPath id="clip-path-3"><rect class="cls-1" x="756.69" y="170.41" width="25.33" height="23.84"/></clipPath><clipPath id="clip-path-4"><rect class="cls-1" x="599.66" y="7.07" width="25.33" height="34.27"/></clipPath><clipPath id="clip-path-5"><rect class="cls-1" x="1154.83" y="170.41" width="25.33" height="23.84"/></clipPath><clipPath id="clip-path-6"><rect class="cls-1" x="997.8" y="7.07" width="25.33" height="34.27"/></clipPath><clipPath id="clip-path-7"><rect class="cls-1" x="154.66" y="382.99" width="83.96" height="73.01"/></clipPath><clipPath id="clip-path-8"><rect class="cls-1" x="550.7" y="382.15" width="76.66" height="73.01"/></clipPath><clipPath id="clip-path-9"><rect class="cls-1" x="946.38" y="380.78" width="80.31" height="73.01"/></clipPath><clipPath id="clip-path-10"><rect class="cls-1" x="1345.4" y="382.99" width="80.31" height="73.01"/></clipPath></defs><title>stokes_vector0</title><g id="Layer_2" data-name="Layer 2"><rect class="cls-2" x="828.35" y="48" width="316.35" height="316.35"/><rect class="cls-2" x="1227.37" y="48" width="316.35" height="316.35"/><rect class="cls-3" x="1394.49" y="106.95" width="27.41" height="3"/><path class="cls-3" d="M1440.63,115.68V97.1c0-3.22,0-6.48.16-7.18,0-.27-.11-.27-.32-.27A97.92,97.92,0,0,1,1430,95a2,2,0,0,0,.8,1.44c2.46-1,3.64-1.34,4.66-1.34s1.07,1.29,1.07,3.11v17.46c0,4.44-1.45,4.71-5.2,4.87a1.75,1.75,0,0,0,0,1.77c2.63-.06,4.56-.11,7.45-.11,2.57,0,3.85.05,6.53.11a1.75,1.75,0,0,0,0-1.77c-3.75-.16-4.66-.43-4.66-4.87"/><rect class="cls-3" x="853.76" y="81.13" width="27.41" height="3"/><path class="cls-3" d="M899.91,89.86V71.28c0-3.21.05-6.48.16-7.17,0-.27-.11-.27-.33-.27a96.29,96.29,0,0,1-10.49,5.35,2.1,2.1,0,0,0,.8,1.45c2.47-1,3.64-1.34,4.66-1.34s1.07,1.29,1.07,3.11V89.86c0,4.45-1.45,4.71-5.19,4.87a1.75,1.75,0,0,0,0,1.77c2.62,0,4.55-.11,7.44-.11,2.57,0,3.85.06,6.53.11a1.75,1.75,0,0,0,0-1.77c-3.75-.16-4.65-.42-4.65-4.87"/><polyline class="cls-4" points="1099.78 85.65 1099.78 82.65 1087.57 82.65 1087.57 70.55 1084.57 70.55 1084.57 82.65 1072.37 82.65 1072.37 85.65 1084.57 85.65 1084.57 97.91 1087.57 97.91 1087.57 85.65 1099.78 85.65"/><path class="cls-4" d="M1118.51,91.38V72.8c0-3.21,0-6.48.16-7.18,0-.26-.11-.26-.32-.26a97.51,97.51,0,0,1-10.5,5.35,2.12,2.12,0,0,0,.8,1.45c2.47-1,3.65-1.34,4.66-1.34s1.08,1.28,1.08,3.1V91.38c0,4.44-1.45,4.71-5.2,4.87a1.75,1.75,0,0,0,0,1.77c2.63,0,4.55-.11,7.44-.11,2.57,0,3.86.06,6.54.11a1.75,1.75,0,0,0,0-1.77c-3.75-.16-4.66-.43-4.66-4.87"/><rect class="cls-2" x="429.33" y="48" width="316.35" height="316.35"/><line class="cls-5" x1="587.51" y1="376.5" x2="587.51" y2="23.94"/><polygon class="cls-6" points="594.91 29.56 587.51 26.41 580.1 29.56 587.51 12 594.91 29.56"/><line class="cls-5" x1="416.26" y1="206.51" x2="770.08" y2="206.51"/><polygon class="cls-6" points="764.46 213.92 767.61 206.51 764.46 199.1 782.02 206.51 764.46 213.92"/><line class="cls-5" x1="986.53" y1="376.5" x2="986.53" y2="23.94"/><polygon class="cls-6" points="993.93 29.56 986.53 26.41 979.12 29.56 986.53 12 993.93 29.56"/><rect class="cls-3" x="515.49" y="86.27" width="27.41" height="3"/><path class="cls-3" d="M561.63,95V76.42c0-3.21,0-6.48.16-7.18,0-.26-.11-.26-.32-.26A96.29,96.29,0,0,1,551,74.33a2.08,2.08,0,0,0,.8,1.45c2.46-1,3.64-1.34,4.66-1.34s1.07,1.28,1.07,3.1V95c0,4.44-1.45,4.71-5.2,4.87a1.75,1.75,0,0,0,0,1.77c2.63,0,4.56-.11,7.45-.11,2.57,0,3.85.06,6.53.11a1.75,1.75,0,0,0,0-1.77c-3.75-.16-4.66-.43-4.66-4.87"/><g class="cls-7"><path d="M1561.81,189.25l2-2.88c1.06-1.49,1.1-1.49,1.87-.15l2,3.08c1,1.44.58,1.68-1.11,1.92a.41.41,0,0,0-.38.39v1.15l.19.09s3.56-.09,5.87-.09c1.87,0,4.85.09,4.85.09l.14-.09v-1.2c0-.19-.24-.29-.48-.34-1.78-.29-2.93-.91-4.47-3.22l-4.23-6.29c-.28-.43-.24-.53-.09-.72l4.28-5.19a6.13,6.13,0,0,1,4.32-2.36c.29-.05.53-.19.53-.43V171.9l-.1-.09s-2,.09-3.27.09c-2.21,0-5.62-.09-5.62-.09l-.14.14v1.16a.32.32,0,0,0,.33.33c1.73.15,1.83.68.82,2.07l-2.4,3.46c-.29.33-.34.38-.72-.15l-2.31-3.36c-1.1-1.59-.77-1.83,1.06-2a.35.35,0,0,0,.38-.38V171.9l-.14-.09s-3.65.09-6,.09c-1.87,0-4.85-.09-4.85-.09l-.14.09v1.21c0,.24.24.33.48.33,1.68,0,3,1.3,4.37,3.22l4.28,6.1c.19.25.24.29-.15.72l-4.42,5.48a6.6,6.6,0,0,1-4.32,2.26c-.29.05-.53.24-.53.48v1.06l.09.09s2.31-.09,3.75-.09c2.07,0,5.24.09,5.24.09l.19-.09v-1.15c0-.2-.14-.34-.38-.39-.87-.19-1.93-.39-.82-2"/></g><g class="cls-8"><path d="M1416.45,13c.82-2,2.21-2.93,3.6-2.93a.5.5,0,0,0,.53-.44V8.57l-.09-.1s-1.88.1-3.08.1c-2.11,0-5.38-.1-5.38-.1l-.19.15V9.77a.37.37,0,0,0,.38.34c1.49,0,2.5.53,1.92,2.26-.86,2.78-2.78,8-4.42,12l-4.47-12.11c-.52-1.49-.14-2.16,1.78-2.16a.37.37,0,0,0,.39-.39V8.57l-.2-.1s-3.55.1-5.81.1c-2,0-5.09-.1-5.09-.1l-.15.1v1.2c0,.24.19.34.48.34,1.92,0,2.5.77,3.46,3.17L1406.89,30l-.87,2.35c-1.39,3.7-2.64,5.1-3,5.1s-.62-.39-.91-.82a3,3,0,0,0-2-1.15,2.61,2.61,0,0,0-2.83,2.5c0,2,2.64,2.59,3.65,2.59,3.84,0,5.91-3.7,7.54-7.74l8-19.79"/></g><line class="cls-5" x1="814.57" y1="206.51" x2="1169.1" y2="206.51"/><polygon class="cls-6" points="1163.48 213.92 1166.63 206.51 1163.48 199.1 1181.04 206.51 1163.48 213.92"/><line class="cls-5" x1="1385.55" y1="376.5" x2="1385.55" y2="23.94"/><polygon class="cls-6" points="1392.95 29.56 1385.55 26.41 1378.14 29.56 1385.55 12 1392.95 29.56"/><line class="cls-5" x1="1211.09" y1="206.51" x2="1568.12" y2="206.51"/><polygon class="cls-6" points="1562.5 213.92 1565.65 206.51 1562.5 199.1 1580.06 206.51 1562.5 213.92"/><g class="cls-9"><path d="M765.93,189.25l2-2.88c1.06-1.49,1.11-1.49,1.88-.15l2,3.08c1,1.44.58,1.68-1.11,1.92a.41.41,0,0,0-.38.39v1.15l.19.09s3.56-.09,5.86-.09c1.88,0,4.86.09,4.86.09l.14-.09v-1.2c0-.19-.24-.29-.48-.34-1.78-.29-2.93-.91-4.47-3.22l-4.23-6.29c-.29-.43-.24-.53-.09-.72l4.27-5.19a6.16,6.16,0,0,1,4.33-2.36c.29-.05.53-.19.53-.43V171.9l-.1-.09s-2,.09-3.27.09c-2.21,0-5.62-.09-5.62-.09l-.14.14v1.16a.32.32,0,0,0,.33.33c1.73.15,1.83.68.82,2.07l-2.4,3.46c-.29.33-.34.38-.72-.15l-2.31-3.36c-1.1-1.59-.77-1.83,1.06-2a.35.35,0,0,0,.38-.38V171.9l-.14-.09s-3.65.09-6,.09c-1.87,0-4.85-.09-4.85-.09l-.15.09v1.21c0,.24.25.33.49.33,1.68,0,3,1.3,4.37,3.22l4.27,6.1c.2.25.24.29-.14.72L762.71,189a6.6,6.6,0,0,1-4.32,2.26c-.29.05-.53.24-.53.48v1.06l.09.09s2.31-.09,3.75-.09c2.07,0,5.24.09,5.24.09l.19-.09v-1.15c0-.2-.14-.34-.38-.39-.87-.19-1.93-.39-.82-2"/></g><g class="cls-10"><path d="M620.57,13c.81-2,2.21-2.93,3.6-2.93a.5.5,0,0,0,.53-.44V8.57l-.1-.1s-1.87.1-3.07.1c-2.12,0-5.38-.1-5.38-.1l-.2.15V9.77a.38.38,0,0,0,.39.34c1.49,0,2.5.53,1.92,2.26-.86,2.78-2.79,8-4.42,12l-4.47-12.11c-.53-1.49-.14-2.16,1.78-2.16a.37.37,0,0,0,.38-.39V8.57l-.19-.1s-3.55.1-5.81.1c-2,0-5.1-.1-5.1-.1l-.14.1v1.2c0,.24.19.34.48.34,1.92,0,2.5.77,3.46,3.17L611,30l-.87,2.35c-1.39,3.7-2.64,5.1-3,5.1s-.62-.39-.91-.82a3,3,0,0,0-2-1.15A2.61,2.61,0,0,0,601.4,38c0,2,2.64,2.59,3.65,2.59,3.84,0,5.91-3.7,7.54-7.74l8-19.79"/></g><g class="cls-11"><path d="M1164.07,189.25l2-2.88c1.06-1.49,1.1-1.49,1.87-.15l2,3.08c1,1.44.58,1.68-1.11,1.92a.41.41,0,0,0-.38.39v1.15l.19.09s3.56-.09,5.87-.09c1.87,0,4.85.09,4.85.09l.14-.09v-1.2c0-.19-.24-.29-.48-.34-1.78-.29-2.93-.91-4.47-3.22l-4.23-6.29c-.28-.43-.24-.53-.09-.72l4.28-5.19a6.13,6.13,0,0,1,4.32-2.36c.29-.05.53-.19.53-.43V171.9l-.1-.09s-2,.09-3.27.09c-2.21,0-5.62-.09-5.62-.09l-.14.14v1.16a.32.32,0,0,0,.33.33c1.73.15,1.83.68.82,2.07L1169,179c-.29.33-.34.38-.72-.15l-2.31-3.36c-1.1-1.59-.77-1.83,1.06-2a.35.35,0,0,0,.38-.38V171.9l-.14-.09s-3.65.09-6,.09c-1.87,0-4.85-.09-4.85-.09l-.14.09v1.21c0,.24.24.33.48.33,1.68,0,3,1.3,4.37,3.22l4.28,6.1c.19.25.24.29-.15.72l-4.42,5.48a6.6,6.6,0,0,1-4.32,2.26c-.29.05-.53.24-.53.48v1.06l.09.09s2.31-.09,3.75-.09c2.07,0,5.24.09,5.24.09l.19-.09v-1.15c0-.2-.14-.34-.38-.39-.87-.19-1.93-.39-.82-2"/></g><g class="cls-12"><path d="M1018.71,13c.82-2,2.21-2.93,3.6-2.93a.5.5,0,0,0,.53-.44V8.57l-.09-.1s-1.88.1-3.08.1c-2.11,0-5.38-.1-5.38-.1l-.19.15V9.77a.37.37,0,0,0,.38.34c1.49,0,2.5.53,1.92,2.26-.86,2.78-2.78,8-4.42,12l-4.47-12.11c-.52-1.49-.14-2.16,1.78-2.16a.37.37,0,0,0,.39-.39V8.57l-.2-.1s-3.55.1-5.81.1c-2,0-5.09-.1-5.09-.1l-.15.1v1.2c0,.24.19.34.48.34,1.92,0,2.5.77,3.46,3.17L1009.15,30l-.87,2.35c-1.39,3.7-2.64,5.1-3,5.1s-.62-.39-.91-.82a3,3,0,0,0-2-1.15,2.61,2.61,0,0,0-2.83,2.5c0,2,2.64,2.59,3.65,2.59,3.84,0,5.91-3.7,7.54-7.74l8-19.79"/></g><polygon class="cls-4" points="732.51 206.18 701.78 193.22 705.8 202.68 469.21 202.68 473.23 193.22 442.51 206.18 473.23 219.14 469.21 209.68 705.8 209.68 701.78 219.14 732.51 206.18"/><polygon class="cls-13" points="591.01 87.88 600.47 91.9 587.51 61.18 574.55 91.9 584.01 87.88 584.01 324.47 574.55 320.45 587.51 351.18 600.47 320.45 591.01 324.47 591.01 87.88"/><polygon class="cls-4" points="1076.5 134.87 1089.06 103.98 1058.17 116.54 1067.7 120.39 900.41 287.68 896.56 278.15 884 309.04 914.89 296.48 905.36 292.63 1072.65 125.34 1076.5 134.87"/><polygon class="cls-13" points="1089.06 309.04 1076.5 278.15 1072.65 287.68 905.36 120.39 914.89 116.54 884 103.98 896.56 134.87 900.41 125.34 1067.7 292.63 1058.17 296.48 1089.06 309.04"/><polyline class="cls-4" points="694.78 169.96 694.78 166.96 682.57 166.96 682.57 154.86 679.57 154.86 679.57 166.96 667.37 166.96 667.37 169.96 679.57 169.96 679.57 182.22 682.57 182.22 682.57 169.96 694.78 169.96"/><path class="cls-4" d="M713.51,175.69V157.11c0-3.21,0-6.48.16-7.18,0-.27-.11-.27-.32-.27a97.32,97.32,0,0,1-10.5,5.36,2.07,2.07,0,0,0,.8,1.44c2.47-1,3.65-1.33,4.66-1.33s1.08,1.28,1.08,3.1v17.46c0,4.44-1.45,4.71-5.2,4.87a1.75,1.75,0,0,0,0,1.77c2.63-.05,4.55-.11,7.44-.11,2.57,0,3.86.06,6.54.11a1.75,1.75,0,0,0,0-1.77c-3.75-.16-4.66-.43-4.66-4.87"/><circle class="cls-14" cx="1385.55" cy="206.51" r="142.67"/><path class="cls-13" d="M1412.61,62.55l4.94-9.24L1385.8,63.5l29.45,15.63-3.08-9.54c64.58,12.71,112.55,70.37,112.55,136.59h7C1531.72,136.32,1480.89,75.55,1412.61,62.55Z"/><path class="cls-4" d="M1531.72,206.18h-7c0,66.3-48,124-112.72,136.62l3.1-9.53-29.48,15.59,31.74,10.23-4.92-9.25C1480.82,336.91,1531.72,276.12,1531.72,206.18Z"/><rect x="584.04" y="202.5" width="7.1" height="7.38"/><rect x="982.98" y="202.82" width="7.1" height="7.38" transform="translate(142.92 758.07) rotate(-45)"/><rect class="cls-2" x="31.53" y="48.43" width="316.35" height="316.35"/><path class="cls-15" d="M74.72,213.81q0,3.08,3.82,3.07h1c.36,0,.54.22.54.65v1.61l-.13.14c-4.68-.1-7.84-.14-9.51-.14l-9.53.14-.14-.14v-1.61c0-.41.18-.62.55-.65h1a4.92,4.92,0,0,0,3-.68,2.85,2.85,0,0,0,.89-2.39V179.32a2.89,2.89,0,0,0-.87-2.38,4.91,4.91,0,0,0-3-.7h-1c-.37,0-.55-.19-.55-.58V174l.14-.14q6.8.14,9.53.14l9.51-.14.13.14v1.67a.51.51,0,0,1-.54.58h-1c-2.57,0-3.85,1-3.82,3.08Z"/><path class="cls-15" d="M96.11,192.48q5.74-4.41,10.56-4.41,5.2,0,6.87,2.87c1.12,1.91,1.68,4.71,1.68,8.37v14.5a2.18,2.18,0,0,0,.77,1.89,8,8,0,0,0,2.65,1.05l.58.13a.63.63,0,0,1,.54.65v1.61l-.13.14c-3.74-.1-6.52-.14-8.34-.14l-7.83.14-.14-.14v-1.61a.67.67,0,0,1,.55-.65l.31-.07a7.74,7.74,0,0,0,2.58-1,2.28,2.28,0,0,0,.77-2v-15a17.27,17.27,0,0,0-.57-5.34,2.26,2.26,0,0,0-2.37-1.53q-3.21,0-8.48,3.31v18.53a2.32,2.32,0,0,0,.81,2,6.59,6.59,0,0,0,2.54,1l.28.07a.69.69,0,0,1,.58.65v1.61l-.14.14c-3.55-.1-6.24-.14-8.07-.14l-8.1.14-.13-.14v-1.61a.66.66,0,0,1,.54-.65l.62-.13a7.22,7.22,0,0,0,2.63-1,2.3,2.3,0,0,0,.75-2V196.68a9.14,9.14,0,0,0-.36-3.23,1.34,1.34,0,0,0-1.18-.83L84,192.34,83.88,190a88.07,88.07,0,0,0,11.75-2.09q.48,0,.48.21L96,192.48Z"/><path class="cls-15" d="M134.91,192v17.68q0,5.11,1.81,5.09a7.35,7.35,0,0,0,4.75-1.75l1.61,1.61a11.88,11.88,0,0,1-9.88,5.16q-6,0-6-7.11V192h-3.55c-.85,0-1.27-.18-1.27-.54v-2.16c0-.36.89-.55,2.67-.58a3.27,3.27,0,0,0,3.33-2.2,20.12,20.12,0,0,0,.87-6.89l5.68-2.19v11.28h6.63c1,0,1.54.24,1.54.72v1.4c0,.8-.87,1.19-2.6,1.16Z"/><path class="cls-15" d="M171.89,211.52l1.74,1.47q-3.34,6.87-12.3,6.83-7.49,0-11.16-4.12a15.08,15.08,0,0,1-3.68-10.44q0-7.62,4.58-12.41a14.16,14.16,0,0,1,10.46-4.78q7,0,9.88,3.57a13.73,13.73,0,0,1,2.87,8.87q0,1.47-2.73,1.47h-17v1.81a13.6,13.6,0,0,0,2.73,8.67,8.35,8.35,0,0,0,6.8,3.47Q168.26,215.93,171.89,211.52Zm-17-12.34h11.21a1.24,1.24,0,0,0,.14-.75c0-2.53-.51-4.4-1.51-5.61a4.23,4.23,0,0,0-3.25-1.81,4.47,4.47,0,0,0-1.53.31,7.49,7.49,0,0,0-1.9,1.07,7,7,0,0,0-1.93,2.52A13.39,13.39,0,0,0,154.87,199.18Z"/><path class="cls-15" d="M190.93,192.48q5.74-4.41,10.56-4.41,5.19,0,6.87,2.87c1.11,1.91,1.67,4.71,1.67,8.37v14.5a2.18,2.18,0,0,0,.77,1.89,8.16,8.16,0,0,0,2.65,1.05l.58.13a.63.63,0,0,1,.55.65v1.61l-.14.14c-3.73-.1-6.51-.14-8.34-.14l-7.82.14-.14-.14v-1.61c0-.32.18-.53.55-.65l.3-.07a7.74,7.74,0,0,0,2.58-1,2.25,2.25,0,0,0,.77-2v-15a17.35,17.35,0,0,0-.56-5.34A2.28,2.28,0,0,0,199.4,192q-3.21,0-8.47,3.31v18.53a2.32,2.32,0,0,0,.8,2,6.64,6.64,0,0,0,2.55,1l.27.07a.68.68,0,0,1,.58.65v1.61l-.14.14c-3.55-.1-6.24-.14-8.06-.14l-8.1.14-.14-.14v-1.61c0-.32.18-.53.55-.65l.61-.13a7.14,7.14,0,0,0,2.63-1,2.27,2.27,0,0,0,.76-2V196.68a9.14,9.14,0,0,0-.36-3.23,1.34,1.34,0,0,0-1.18-.83l-2.87-.28-.14-2.39a88,88,0,0,0,11.76-2.09q.48,0,.48.21l-.14,4.41Z"/><path class="cls-15" d="M218.37,208.92l2.81-.14c.66,3.12,1.56,5.3,2.7,6.51s3,1.83,5.53,1.83a4.1,4.1,0,0,0,2.87-1.16,4.38,4.38,0,0,0,1.27-3.42,5.24,5.24,0,0,0-.91-3.31,8,8,0,0,0-3.71-2.12,20.63,20.63,0,0,1-6.57-4,8.32,8.32,0,0,1-3.1-6.43,7.6,7.6,0,0,1,3.1-6.12,12.09,12.09,0,0,1,7.84-2.49,20.13,20.13,0,0,1,9,2c.32,2.32.59,4.7.79,7.14l-2.73.34a10.2,10.2,0,0,0-2.67-5A6,6,0,0,0,230.4,191a4.07,4.07,0,0,0-2.76,1,3.67,3.67,0,0,0-1.17,2.95q0,3.74,3.87,5.13a26,26,0,0,1,8.06,4.41,8,8,0,0,1,2.94,6.29,7.4,7.4,0,0,1-3.69,6.78,15.87,15.87,0,0,1-8.44,2.24,40.65,40.65,0,0,1-4.86-.44,32,32,0,0,0-5.16-.38A71.59,71.59,0,0,0,218.37,208.92Z"/><path class="cls-15" d="M258.6,196.65v17.09a2.42,2.42,0,0,0,.81,2,6,6,0,0,0,2.47,1l.72.13a.63.63,0,0,1,.55.65v1.61l-.14.14c-3.78-.1-6.58-.14-8.41-.14l-8.17.14-.13-.14v-1.61a.59.59,0,0,1,.48-.65l.85-.13a5.16,5.16,0,0,0,2.51-.94,2.59,2.59,0,0,0,.77-2.07V196.68a9.66,9.66,0,0,0-.39-3.36,1.4,1.4,0,0,0-1.15-1L246.5,192l-.13-2.08a92.53,92.53,0,0,0,12-2.09q.48,0,.48.21Q258.6,193.16,258.6,196.65Zm-6.88-14.51a4.25,4.25,0,1,1,3,1.21A4,4,0,0,1,251.72,182.14Z"/><path class="cls-15" d="M277.78,192v17.68q0,5.11,1.81,5.09a7.35,7.35,0,0,0,4.75-1.75l1.61,1.61a11.86,11.86,0,0,1-9.88,5.16q-6,0-6-7.11V192H266.5c-.84,0-1.27-.18-1.27-.54v-2.16c0-.36.89-.55,2.67-.58a3.27,3.27,0,0,0,3.33-2.2,20.12,20.12,0,0,0,.87-6.89l5.68-2.19v11.28h6.63c1,0,1.54.24,1.54.72v1.4c0,.8-.87,1.19-2.6,1.16Z"/><path class="cls-15" d="M317.22,195.28,305.6,224.09a44.94,44.94,0,0,1-2,4.29,25.68,25.68,0,0,1-2.28,3.52,9,9,0,0,1-3,2.62,8,8,0,0,1-3.73.89,7.5,7.5,0,0,1-3.47-1,3.08,3.08,0,0,1-1.82-2.87,3.15,3.15,0,0,1,1.23-2.63,4.52,4.52,0,0,1,2.87-1,3.32,3.32,0,0,1,1.67.53,3.75,3.75,0,0,1,1.27,1.11c.52.8,1,1.2,1.33,1.2.21,0,.51-.23.91-.69a14.85,14.85,0,0,0,1.55-2.46,32.74,32.74,0,0,0,1.88-4.27l1.27-3.42-9.88-24.37a12,12,0,0,0-2.07-3.67,4,4,0,0,0-3-.94c-.45,0-.69-.17-.71-.51v-1.75l.23-.13q4.56.13,7.42.13c2.19,0,5,0,8.48-.13l.27.13v1.68a.53.53,0,0,1-.58.58c-1.34,0-2.22.26-2.61.77s-.39,1.3.05,2.37l6.49,17.64q4.14-10.15,6.43-17.5Q315,191,311.07,191c-.37,0-.56-.17-.58-.51v-1.68l.27-.2q4.75.13,7.86.13l4.48-.13.14.13v1.61c0,.41-.27.63-.79.65C320.13,191,318.38,192.43,317.22,195.28Z"/><polyline class="cls-4" points="1422.77 311 1422.77 308 1410.56 308 1410.56 295.9 1407.56 295.9 1407.56 308 1395.35 308 1395.35 311 1407.56 311 1407.56 323.26 1410.56 323.26 1410.56 311 1422.77 311"/><path class="cls-4" d="M1441.5,316.73V298.15c0-3.21,0-6.48.16-7.18,0-.27-.11-.27-.33-.27a96.09,96.09,0,0,1-10.49,5.36,2.07,2.07,0,0,0,.8,1.44c2.47-1,3.64-1.33,4.66-1.33s1.07,1.28,1.07,3.1v17.46c0,4.44-1.44,4.71-5.19,4.87a1.75,1.75,0,0,0,0,1.77c2.62-.05,4.55-.11,7.44-.11,2.57,0,3.86.06,6.53.11a1.75,1.75,0,0,0,0-1.77c-3.75-.16-4.65-.43-4.65-4.87"/><g class="cls-16"><path d="M169.66,437.46h1.77c11.53,0,18.48-6.35,18.48-15.06,0-5.53-3.18-10.95-14-18.13-3.53-2.35-4.71-4.47-4.71-7.42,0-4.11,2.36-8.35,7.42-8.35,2.94,0,4.94.94,5.29,3.41.36,2.83,2.36,6.12,5.42,6.12,3.29,0,4.24-2.12,4.24-4,0-4.24-6.12-9.42-13.42-9.42-10.24,0-16.48,7.54-16.48,14.72,0,4.71,2.59,9.77,10.24,14.95,6.24,4.24,7.18,8.12,7.18,10.59,0,6.47-4.71,8.71-10,8.71-3.07,0-4.71-.59-5.07-3.18s-2-6.24-5.53-6.24a4.16,4.16,0,0,0-4.35,4.13c0,4.35,5.41,8.71,13.53,9.17"/><path d="M216.56,454.76c7.34,0,18.51-7.44,18.51-29.86,0-9.44-2.29-17.55-6.49-23.08a14.56,14.56,0,0,0-11.64-6.2c-9.45,0-18.41,11.26-18.41,30.15,0,10.2,3.15,19.74,8.39,25a13.2,13.2,0,0,0,9.64,4m.38-55.8a6.28,6.28,0,0,1,4.29,1.62c3,2.48,5.54,9.73,5.54,22.51,0,8.78-.29,14.79-1.62,19.65-2.1,7.82-6.78,8.69-8.5,8.69-8.86,0-9.82-16.32-9.82-24.62C206.83,403.34,212.65,399,216.94,399Z"/></g><g class="cls-17"><path d="M565.71,436.62h1.77c11.53,0,18.48-6.35,18.48-15.06,0-5.54-3.18-10.95-14-18.13-3.53-2.36-4.71-4.48-4.71-7.42,0-4.12,2.35-8.36,7.41-8.36,3,0,5,1,5.3,3.42.36,2.82,2.36,6.12,5.42,6.12,3.29,0,4.23-2.12,4.23-4,0-4.24-6.12-9.42-13.41-9.42-10.25,0-16.49,7.53-16.49,14.72,0,4.7,2.59,9.77,10.25,14.94,6.24,4.24,7.18,8.13,7.18,10.6,0,6.47-4.71,8.71-10,8.71-3.07,0-4.72-.59-5.07-3.18s-2-6.24-5.53-6.24a4.16,4.16,0,0,0-4.35,4.12c0,4.35,5.41,8.71,13.53,9.18"/><path d="M618.33,441.33v-33.1c0-5.73.1-11.55.29-12.78,0-.48-.19-.48-.57-.48-5.25,3.24-10.31,5.63-18.7,9.54a3.67,3.67,0,0,0,1.43,2.57c4.39-1.81,6.49-2.38,8.3-2.38,1.62,0,1.91,2.28,1.91,5.53v31.1c0,7.92-2.58,8.39-9.26,8.68a3.1,3.1,0,0,0,0,3.14c4.68-.09,8.11-.18,13.27-.18,4.57,0,6.86.09,11.63.18a3.1,3.1,0,0,0,0-3.14c-6.68-.29-8.3-.76-8.3-8.68"/></g><g class="cls-18"><path d="M961.38,435.24h1.77c11.53,0,18.48-6.35,18.48-15.06,0-5.53-3.18-10.95-14-18.12-3.53-2.36-4.71-4.48-4.71-7.42,0-4.12,2.36-8.36,7.41-8.36,2.95,0,4.95.94,5.3,3.42.36,2.82,2.36,6.12,5.42,6.12,3.29,0,4.23-2.13,4.23-4,0-4.24-6.12-9.41-13.41-9.41-10.24,0-16.48,7.53-16.48,14.71,0,4.71,2.59,9.77,10.24,14.95,6.24,4.24,7.18,8.12,7.18,10.59,0,6.47-4.71,8.71-10,8.71-3.07,0-4.72-.59-5.07-3.18s-2-6.24-5.53-6.24a4.16,4.16,0,0,0-4.35,4.13c0,4.35,5.41,8.71,13.53,9.17"/><path d="M992.35,407a3.87,3.87,0,0,0,3.81,3.72c1.63,0,4.48-1.72,4.48-3.82a6.51,6.51,0,0,0-.38-2,9.34,9.34,0,0,1-.76-2.29c0-2.39,2.49-5.82,9.44-5.82,3.44,0,8.31,2.38,8.31,11.54,0,6.11-2.2,11.07-7.83,16.79l-7.06,7c-9.35,9.55-10.87,14.13-10.87,19.75,0,0,4.87-.19,7.92-.19h16.69c3,0,7.44.19,7.44.19a95.92,95.92,0,0,0,2.29-15.07,3.73,3.73,0,0,0-2.76-.48c-1.63,6.78-3.25,9.16-6.68,9.16h-17c0-4.58,6.58-11.06,7.06-11.54l9.63-9.25c5.44-5.25,9.54-9.45,9.54-16.7,0-10.3-8.39-14.5-16.12-14.5-10.59,0-17.17,7.82-17.17,13.55"/></g><g class="cls-19"><path d="M1360.4,437.46h1.77c11.53,0,18.48-6.35,18.48-15.06,0-5.53-3.18-10.95-14-18.13-3.53-2.35-4.71-4.47-4.71-7.42,0-4.11,2.36-8.35,7.41-8.35,3,0,5,.94,5.3,3.41.36,2.83,2.36,6.12,5.42,6.12,3.29,0,4.23-2.12,4.23-4,0-4.24-6.12-9.42-13.41-9.42-10.24,0-16.48,7.54-16.48,14.72,0,4.71,2.58,9.77,10.24,14.95,6.24,4.24,7.18,8.12,7.18,10.59,0,6.47-4.71,8.71-10,8.71-3.07,0-4.72-.59-5.07-3.18s-2-6.24-5.53-6.24a4.16,4.16,0,0,0-4.35,4.13c0,4.35,5.41,8.71,13.53,9.17"/><path d="M1406.06,399c4.1,0,7.91,2.48,7.91,8.58,0,4.77-5.53,12.12-15,13.45l.48,3.06a38,38,0,0,1,4.58-.2c5.43,0,12.49,1.53,12.49,12.31,0,12.69-8.49,15.27-11.83,15.27-4.86,0-5.72-2.2-6.86-3.92a5,5,0,0,0-4.11-2.48c-2,0-4,1.82-4,3.34,0,3.82,8,6.39,13.73,6.39,11.36,0,21.47-7.34,21.47-19.93,0-10.4-7.83-14.12-13.46-15.08l-.09-.18c7.82-3.73,10-7.64,10-12.69a9.89,9.89,0,0,0-3-7.54c-2.1-2.1-5.44-3.72-10.4-3.72-14,0-18,9.16-18,12.3a3.2,3.2,0,0,0,3.25,3.25c3.33,0,3.72-3.15,3.72-5,0-6.1,6.58-7.25,9.06-7.25"/></g></g></svg>