<svg id="Layer_1" data-name="Layer 1" xmlns="http://www.w3.org/2000/svg" xmlns:xlink="http://www.w3.org/1999/xlink" viewBox="0 0 1252.3 350.87"><defs><style>.cls-1,.cls-2,.cls-3,.cls-6,.cls-7{fill:none;}.cls-2{stroke:#00b5b5;stroke-width:2.1px;}.cls-2,.cls-3,.cls-6,.cls-7{stroke-miterlimit:10;}.cls-3{stroke:#f7b818;stroke-linecap:round;stroke-width:4.2px;}.cls-4{opacity:0.8;}.cls-5{opacity:0.5;isolation:isolate;}.cls-6,.cls-7{stroke:#000;}.cls-6{stroke-width:1.05px;}.cls-7{stroke-width:1.58px;}.cls-8{clip-path:url(#clip-path);}.cls-9{clip-path:url(#clip-path-2);}.cls-10{clip-path:url(#clip-path-3);}.cls-11{fill:#f7b818;}.cls-12{clip-path:url(#clip-path-4);}.cls-13{clip-path:url(#clip-path-5);}.cls-14{clip-path:url(#clip-path-6);}</style><clipPath id="clip-path"><rect class="cls-1" x="416.21" y="173.72" width="13.31" height="12.53"/></clipPath><clipPath id="clip-path-2"><rect class="cls-1" x="278.84" y="28.02" width="13.31" height="18.01"/></clipPath><clipPath id="clip-path-3"><rect class="cls-1" x="617.72" y="289.58" width="10.18" height="11.74"/></clipPath><clipPath id="clip-path-4"><rect class="cls-1" x="1008.65" y="175.71" width="13.31" height="12.53"/></clipPath><clipPath id="clip-path-5"><rect class="cls-1" x="871.28" y="30" width="13.31" height="18.01"/></clipPath><clipPath id="clip-path-6"><rect class="cls-1" x="1210.16" y="291.57" width="10.18" height="11.74"/></clipPath></defs><title>Artboard 10</title><g id="Layer_6" data-name="Layer 6"><path class="cls-2" d="M153.54,110.94c1,7.41-112.83,20.17-112,28.66.93,10.14,213.41-6.83,214.42,2.32.72,6.62-115.71,21.66-115,29.54.76,9,212.31-7.62,213.52,2.69.18,1.54-4.51,3.31-12.09,5.23"/><line class="cls-3" x1="22.61" y1="100.43" x2="287.42" y2="185.02"/><g class="cls-4"><polygon class="cls-5" points="197.58 94.92 377.27 76.79 377.44 274.09 198.28 291.12 197.58 94.92"/><polygon class="cls-6" points="197.58 94.92 198.28 291.12 377.44 274.09 377.27 76.79 197.58 94.92"/><line class="cls-7" x1="173.93" y1="195.01" x2="400.97" y2="174.56"/><polygon points="397.08 180.77 399.03 174.74 396.04 169.15 410.34 173.72 397.08 180.77"/><line class="cls-7" x1="286.07" y1="57.79" x2="287.42" y2="303.77"/><polygon points="280.26 62.25 286.08 59.74 291.93 62.19 286.02 48.38 280.26 62.25"/><g class="cls-8"><path d="M421.06,183.62l1.05-1.52c.56-.78.58-.78,1-.07l1.05,1.62c.53.75.31.88-.58,1a.21.21,0,0,0-.2.2v.61l.1,0s1.87,0,3.09,0c1,0,2.54,0,2.54,0l.08,0v-.64c0-.1-.13-.15-.25-.17a3.16,3.16,0,0,1-2.35-1.69l-2.23-3.32c-.14-.22-.12-.27,0-.37l2.25-2.73a3.23,3.23,0,0,1,2.27-1.24.24.24,0,0,0,.27-.22v-.57l0-.05s-1.05.05-1.72.05c-1.16,0-2.95-.05-2.95-.05l-.07.07v.61a.17.17,0,0,0,.15.18h0c.91.07,1,.35.43,1.08l-1.26,1.82c-.15.17-.18.2-.38-.08l-1.21-1.76c-.58-.84-.41-1,.56-1a.17.17,0,0,0,.19-.17,0,0,0,0,0,0,0v-.62l-.07-.05s-1.92.05-3.15.05c-1,0-2.55-.05-2.55-.05l-.07.05v.63c0,.12.12.18.25.18.88,0,1.58.68,2.3,1.69l2.24,3.2c.1.13.13.15-.07.38l-2.31,2.85a3.52,3.52,0,0,1-2.27,1.19.29.29,0,0,0-.28.25v.56l.05,0s1.21,0,2,0c1.09,0,2.75,0,2.75,0l.1,0v-.61a.21.21,0,0,0-.2-.2c-.46-.1-1-.21-.43-1"/></g><g class="cls-9"><path d="M289.82,31.15a2.14,2.14,0,0,1,1.9-1.54.25.25,0,0,0,.27-.23V28.8l-.05-.05s-1,.05-1.61.05c-1.11,0-2.83-.05-2.83-.05l-.1.08v.61a.2.2,0,0,0,.2.17c.78,0,1.32.28,1,1.19-.46,1.46-1.47,4.2-2.32,6.3l-2.35-6.36c-.28-.78-.07-1.14.94-1.14a.17.17,0,0,0,.19-.17,0,0,0,0,0,0,0v-.6l-.09-.05s-1.87.05-3.06.05-2.68-.05-2.68-.05l-.07.05v.64c0,.12.1.17.25.17,1,0,1.31.4,1.82,1.67l3.56,8.78-.46,1.24C283.61,43.24,283,44,282.76,44s-.32-.2-.48-.42a1.53,1.53,0,0,0-1-.61,1.39,1.39,0,0,0-1.49,1.26v0c0,1,1.39,1.37,1.92,1.37,2,0,3.11-1.95,4-4.07l4.2-10.4"/></g><g class="cls-10"><path d="M619.57,290.07h-.83a17,17,0,0,1-.56,3.63l1.09.16c.43-1.87,1.05-2.43,1.79-2.43H624c-2,3-3.84,6-5.78,8.94a1.59,1.59,0,0,0-.28.55c0,.25.3.4,1.39.4h7.52a21.08,21.08,0,0,1,.66-3.51l-1-.22c-.43,1.64-1.16,2.67-2.28,2.67h-2.92l5.6-8.65a4.12,4.12,0,0,0,.52-.91c0-.25-.4-.41-.9-.41-.08,0-.69.08-1.3.08H620a.4.4,0,0,1-.43-.3"/></g></g><path class="cls-2" d="M342.31,179.37c-29.42,7.44-102.33,17-101.62,23.12,1.23,10.61,213.78-7.28,214.9,2.53.78,7.15-115.31,21.8-114.6,30,.84,9.72,213.38-8.14,214.42,1.34.75,6.88-114.47,21.64-113.7,28.66"/><line class="cls-3" x1="287.42" y1="185.02" x2="594.87" y2="285"/><polygon class="cls-11" points="608.98 289.58 586.46 291.25 593.82 284.65 591.74 274.99 608.98 289.58"/></g><g id="Layer_6-2" data-name="Layer 6"><path class="cls-2" d="M681.25,185.66a186.6,186.6,0,0,0,61.9,10.16c36.85-.52,76-17.27,95-36.66"/><line class="cls-3" x1="615.05" y1="102.41" x2="879.87" y2="187"/><path class="cls-2" d="M838.13,159.16c4.87-5,8.4-10.15,10.22-15.26,9.46-26.73-27-47.91-61.33-39.41-37.54,9.3-61.19,43-53.71,68.94,11.45,39.72,68.86,54.72,109.25,54.17,47.36-.63,91.81-21.36,104.3-51.49a25,25,0,0,0,1.21-17"/><path class="cls-2" d="M746.73,110.77c7.5-23.65-21.84-44.76-60.87-37.15-34.64,6.74-56.22,42.38-51.93,68.48,3.45,21,23.49,35.08,47.32,43.56"/><g class="cls-4"><polygon class="cls-5" points="790.02 96.91 969.71 78.77 969.89 276.07 790.72 293.11 790.02 96.91"/><polygon class="cls-6" points="790.02 96.91 790.72 293.11 969.89 276.07 969.71 78.77 790.02 96.91"/><line class="cls-7" x1="766.37" y1="196.99" x2="993.41" y2="176.55"/><polygon points="989.53 182.76 991.47 176.72 988.48 171.13 1002.78 175.71 989.53 182.76"/><line class="cls-7" x1="878.51" y1="59.77" x2="879.87" y2="305.75"/><polygon points="872.7 64.23 878.53 61.72 884.37 64.17 878.46 50.36 872.7 64.23"/><g class="cls-12"><path d="M1013.5,185.61l1-1.52c.56-.79.58-.79,1-.08l1.05,1.62c.52.76.3.88-.59,1a.22.22,0,0,0-.2.2v.61l.1.05s1.87-.05,3.09-.05c1,0,2.55.05,2.55.05l.07-.05v-.64c0-.1-.13-.14-.25-.17A3.11,3.11,0,0,1,1019,185l-2.22-3.31c-.15-.23-.13-.28,0-.38l2.25-2.73a3.22,3.22,0,0,1,2.27-1.23.26.26,0,0,0,.28-.23v-.57l-.06-.05s-1.05.05-1.71.05c-1.17,0-3-.05-3-.05l-.07.08v.6a.17.17,0,0,0,.16.18h0c.91.08,1,.35.43,1.09l-1.26,1.81c-.15.18-.18.2-.38-.07l-1.21-1.77c-.58-.84-.4-1,.56-1.05a.19.19,0,0,0,.2-.17v-.65l-.08-.05s-1.91.05-3.15.05c-1,0-2.55-.05-2.55-.05l-.07.05v.63c0,.13.13.18.25.18.88,0,1.58.68,2.3,1.69l2.25,3.21c.1.12.12.15-.08.37l-2.31,2.85a3.48,3.48,0,0,1-2.27,1.19c-.15,0-.28.13-.28.25v.56l0,0s1.21,0,2,0c1.09,0,2.75,0,2.75,0l.1,0v-.61c0-.1-.07-.17-.2-.2-.45-.1-1-.21-.43-1.05"/></g><g class="cls-13"><path d="M882.27,33.14a2.14,2.14,0,0,1,1.89-1.55.26.26,0,0,0,.28-.22v-.58l-.06-.05s-1,.05-1.61.05c-1.11,0-2.83-.05-2.83-.05l-.1.07v.61a.19.19,0,0,0,.2.17c.79,0,1.32.28,1,1.19-.45,1.47-1.46,4.2-2.32,6.3l-2.35-6.35c-.28-.79-.07-1.14.94-1.14a.2.2,0,0,0,.2-.18v-.62l-.1-.05s-1.87.05-3.06.05-2.68-.05-2.68-.05l-.07.05v.63c0,.12.1.17.25.17,1,0,1.32.41,1.82,1.67l3.56,8.79-.46,1.23c-.73,1.95-1.39,2.68-1.58,2.68s-.32-.2-.47-.43a1.65,1.65,0,0,0-1.05-.61,1.39,1.39,0,0,0-1.49,1.27v.05c0,1,1.4,1.36,1.93,1.36,2,0,3.1-1.94,4-4.07l4.2-10.39"/></g><g class="cls-14"><path d="M1212,292.05h-.83a17.24,17.24,0,0,1-.56,3.64l1.09.15c.43-1.87,1-2.42,1.79-2.42h2.93c-2,3-3.84,6-5.78,8.93a1.91,1.91,0,0,0-.28.55c0,.25.3.41,1.39.41h7.53a19.74,19.74,0,0,1,.65-3.51l-1-.23c-.43,1.64-1.16,2.67-2.27,2.67h-2.93l5.6-8.65a4.6,4.6,0,0,0,.53-.91c0-.25-.41-.4-.91-.4-.08,0-.69.08-1.3.08h-5.15a.42.42,0,0,1-.43-.31"/></g></g><path class="cls-2" d="M861,239.2c22.87,13.38,55,19.51,78.29,21.08,37.5,2.54,77.68-12.95,97.66-34.92"/><path class="cls-2" d="M1007.54,287.73a190,190,0,0,0,35.53,3.44c41.29.05,84.49-22.15,99.51-42.16"/><line class="cls-3" x1="879.87" y1="187" x2="1187.31" y2="286.98"/><polygon class="cls-11" points="1201.43 291.57 1178.9 293.23 1186.26 286.63 1184.18 276.98 1201.43 291.57"/><path class="cls-2" d="M1142.58,249a27.33,27.33,0,0,0,5.25-10.66c6.21-31.29-27.21-47.59-61.32-38.5-37.16,9.9-58.36,41.75-52.37,67.15,9,38.16,63.81,57.64,108.32,56.4"/><path class="cls-2" d="M1036.88,225.36A50.38,50.38,0,0,0,1048,207c9.23-28.9-27-48.44-60.88-38.49-39,11.46-61,40.68-53.72,68.49,7.21,27.43,39.47,44,74.14,50.72"/><path class="cls-2" d="M948,159.16c-5.3-17.78-31.72-29-60.3-23.77-35.14,6.43-58.28,41.22-54.61,68,2.1,15.44,13,27.12,27.82,35.77"/></g></svg>