<svg xmlns="http://www.w3.org/2000/svg" xmlns:xlink="http://www.w3.org/1999/xlink" viewBox="0 0 1306.18 632.09"><defs><style>.cls-1,.cls-2,.cls-3,.cls-6,.cls-7{fill:none;}.cls-2{stroke:#00b6b6;}.cls-2,.cls-3{stroke-linecap:round;}.cls-2,.cls-3,.cls-6,.cls-7{stroke-miterlimit:10;}.cls-2,.cls-7{stroke-width:3px;}.cls-3{stroke:#f7b818;stroke-width:8px;}.cls-4{opacity:0.8;}.cls-5{opacity:0.5;}.cls-6,.cls-7{stroke:#000;}.cls-6{stroke-width:2px;}.cls-8{clip-path:url(#clip-path);}.cls-9{clip-path:url(#clip-path-2);}.cls-10{clip-path:url(#clip-path-3);}.cls-11{fill:#f7b818;}</style><clipPath id="clip-path"><rect class="cls-1" x="807.74" y="272.74" width="25.33" height="23.84"/></clipPath><clipPath id="clip-path-2"><rect class="cls-1" x="550.3" y="19.27" width="25.33" height="34.27"/></clipPath><clipPath id="clip-path-3"><rect class="cls-1" x="1239.49" y="587.34" width="19.37" height="22.35"/></clipPath></defs><title>wave0</title><g id="Layer_1" data-name="Layer 1"><path class="cls-2" d="M70.51,123.62c261.08-14.84,337,3.34,164.13,65.86-177.49,63-112.46,83.2,164.51,66,260.42-7.64,355.89,7.87,162.47,63.93"/><line class="cls-2" x1="323.07" y1="131.9" x2="152.87" y2="157.66"/><line class="cls-2" x1="315.33" y1="223.85" x2="141.57" y2="250.14"/><line class="cls-2" x1="656.83" y1="265.59" x2="483.08" y2="291.89"/><line class="cls-3" x1="29.89" y1="107.33" x2="564" y2="321.63"/><g class="cls-4"><polygon class="cls-5" points="369.96 133.48 751.96 76.48 751.96 513.48 369.96 569.48 369.96 133.48"/><polygon class="cls-6" points="369.96 133.48 369.96 569.48 751.96 513.48 751.96 76.48 369.96 133.48"/><line class="cls-7" x1="322.81" y1="356.69" x2="782.71" y2="290.11"/><polygon points="775.97 302.32 779.05 290.64 772.78 280.33 800.44 287.55 775.97 302.32"/><line class="cls-7" x1="562.96" y1="75.94" x2="562.96" y2="580.81"/><polygon points="551.85 84.36 562.96 79.64 574.07 84.36 562.96 58.03 551.85 84.36"/><g class="cls-8"><path d="M817,291.58l2-2.88c1.06-1.49,1.11-1.49,1.88-.15l2,3.08c1,1.44.57,1.68-1.11,1.92a.4.4,0,0,0-.38.39v1.15l.19.09s3.55-.09,5.86-.09c1.88,0,4.85.09,4.85.09l.15-.09v-1.2c0-.19-.24-.29-.48-.34-1.78-.29-2.93-.91-4.47-3.22L823.27,284c-.29-.43-.24-.53-.1-.72l4.28-5.19a6.18,6.18,0,0,1,4.32-2.36c.29,0,.53-.19.53-.43v-1.1l-.09-.1s-2,.1-3.27.1c-2.21,0-5.62-.1-5.62-.1l-.15.14v1.16a.33.33,0,0,0,.34.33c1.73.15,1.83.68.82,2.07l-2.41,3.46c-.28.33-.33.38-.72-.15l-2.3-3.36c-1.11-1.58-.77-1.82,1.05-2a.34.34,0,0,0,.39-.38v-1.15l-.15-.1s-3.65.1-6,.1c-1.87,0-4.85-.1-4.85-.1l-.15.1v1.2c0,.24.24.33.48.33,1.68,0,3,1.3,4.38,3.22l4.27,6.1c.19.25.24.29-.14.73l-4.42,5.47a6.62,6.62,0,0,1-4.33,2.26c-.29.05-.53.24-.53.48v1.06l.1.09s2.3-.09,3.75-.09c2.06,0,5.23.09,5.23.09l.2-.09v-1.15c0-.2-.15-.34-.39-.39-.86-.19-1.92-.38-.81-2"/></g><g class="cls-9"><path d="M571.2,25.24c.82-2,2.21-2.93,3.6-2.93a.49.49,0,0,0,.53-.43V20.77l-.09-.1s-1.88.1-3.08.1c-2.11,0-5.38-.1-5.38-.1l-.19.15V22a.37.37,0,0,0,.38.34c1.49,0,2.5.53,1.93,2.26-.87,2.78-2.79,8-4.43,12L560,24.47c-.53-1.49-.15-2.16,1.77-2.16a.37.37,0,0,0,.39-.39V20.77l-.19-.1s-3.56.1-5.82.1c-2,0-5.09-.1-5.09-.1l-.15.1V22c0,.24.2.34.49.34,1.92,0,2.49.77,3.46,3.17l6.77,16.72-.87,2.35c-1.39,3.7-2.64,5.1-3,5.1s-.63-.39-.92-.82a3,3,0,0,0-2-1.15,2.62,2.62,0,0,0-2.84,2.5c0,2,2.64,2.59,3.65,2.59,3.85,0,5.91-3.7,7.55-7.74l8-19.79"/></g><g class="cls-10"><path d="M1243,588.27h-1.58a32.53,32.53,0,0,1-1.06,6.91l2.07.29c.82-3.55,2-4.61,3.41-4.61h5.57c-3.74,5.67-7.3,11.39-11.05,17a3.69,3.69,0,0,0-.53,1.06c0,.48.58.76,2.65.76h14.32A37.73,37.73,0,0,1,1258,603l-2-.43c-.82,3.13-2.21,5.1-4.33,5.1h-5.57l10.71-16.49a8.54,8.54,0,0,0,1-1.72c0-.49-.76-.77-1.73-.77-.14,0-1.29.14-2.45.14h-9.8a.77.77,0,0,1-.82-.57"/></g></g><path class="cls-2" d="M561.62,319.42C406,367.15,411.5,407.66,730.4,388.39c253.38-10.82,348.39,4.3,162.86,65.35-168,60.79-119.47,84.45,167.51,67.21"/><line class="cls-2" x1="639.74" y1="351.53" x2="465.98" y2="377.82"/><line class="cls-2" x1="987.6" y1="399.65" x2="817.17" y2="425.44"/><line class="cls-2" x1="972.86" y1="485.89" x2="799.1" y2="512.19"/><line class="cls-3" x1="564" y1="321.63" x2="1205.72" y2="579.11"/><polygon class="cls-11" points="1231.93 589.63 1188.94 589.9 1203.76 578.32 1201.05 559.72 1231.93 589.63"/></g></svg>