<svg xmlns="http://www.w3.org/2000/svg" xmlns:xlink="http://www.w3.org/1999/xlink" viewBox="0 0 1218.91 484.7"><defs><style>.cls-1,.cls-3{fill:none;}.cls-2{fill:#999;}.cls-2,.cls-7{stroke:#000;}.cls-2,.cls-3,.cls-7{stroke-miterlimit:10;}.cls-2,.cls-3{stroke-width:2px;}.cls-3{stroke:#4c4c4d;}.cls-4{fill:#4c4c4d;}.cls-5{clip-path:url(#clip-path);}.cls-6{clip-path:url(#clip-path-2);}.cls-7{fill:#00acb5;}.cls-8{clip-path:url(#clip-path-3);}.cls-9{clip-path:url(#clip-path-4);}.cls-10{fill:#231f20;}</style><clipPath id="clip-path"><rect class="cls-1" x="373.03" y="204.55" width="25.33" height="23.84"/></clipPath><clipPath id="clip-path-2"><rect class="cls-1" x="216" y="41.22" width="25.33" height="34.27"/></clipPath><clipPath id="clip-path-3"><rect class="cls-1" x="763.16" y="56.42" width="40.32" height="41.88"/></clipPath><clipPath id="clip-path-4"><rect class="cls-1" x="1055.31" y="86.33" width="41.88" height="52.73"/></clipPath></defs><title>stokes_rotation0</title><g id="Layer_2" data-name="Layer 2"><rect class="cls-2" x="45.67" y="82.15" width="316.35" height="316.35"/><line class="cls-3" x1="203.85" y1="410.64" x2="203.85" y2="58.09"/><polygon class="cls-4" points="211.25 63.7 203.85 60.56 196.44 63.7 203.85 46.15 211.25 63.7"/><line class="cls-3" x1="32.6" y1="240.66" x2="386.42" y2="240.66"/><polygon class="cls-4" points="380.8 248.06 383.95 240.66 380.8 233.25 398.36 240.66 380.8 248.06"/><g class="cls-5"><path d="M382.27,223.4l2-2.89c1.06-1.49,1.11-1.49,1.88-.14l2,3.07c1,1.45.57,1.69-1.11,1.93a.4.4,0,0,0-.38.38v1.15l.19.1s3.56-.1,5.86-.1c1.88,0,4.85.1,4.85.1l.15-.1v-1.2c0-.19-.24-.29-.48-.33-1.78-.29-2.93-.92-4.47-3.22l-4.23-6.3c-.29-.43-.24-.53-.09-.72l4.27-5.19a6.19,6.19,0,0,1,4.33-2.35c.28-.05.52-.19.52-.43v-1.11l-.09-.1s-2,.1-3.27.1c-2.21,0-5.62-.1-5.62-.1l-.14.15v1.15a.32.32,0,0,0,.33.34c1.73.14,1.83.67.82,2.06l-2.4,3.46c-.29.34-.34.39-.72-.14l-2.31-3.36c-1.1-1.59-.77-1.83,1.06-2a.35.35,0,0,0,.38-.38v-1.16l-.14-.1s-3.66.1-6,.1c-1.87,0-4.85-.1-4.85-.1l-.15.1v1.2c0,.24.24.34.48.34,1.69,0,3,1.3,4.38,3.22l4.27,6.1c.19.24.24.29-.14.72l-4.42,5.48a6.64,6.64,0,0,1-4.33,2.26.56.56,0,0,0-.52.48v1.05l.09.1s2.31-.1,3.75-.1c2.07,0,5.24.1,5.24.1l.19-.1v-1.15a.41.41,0,0,0-.38-.38c-.87-.2-1.93-.39-.82-2"/></g><g class="cls-6"><path d="M236.91,47.19c.81-2,2.21-2.94,3.6-2.94a.49.49,0,0,0,.53-.43v-1.1l-.1-.1s-1.87.1-3.07.1c-2.12,0-5.38-.1-5.38-.1l-.2.14v1.16a.38.38,0,0,0,.39.33c1.49,0,2.5.53,1.92,2.26-.87,2.79-2.79,8-4.42,12l-4.47-12.11c-.53-1.48-.14-2.16,1.78-2.16a.36.36,0,0,0,.38-.38V42.72l-.19-.1s-3.55.1-5.81.1c-2,0-5.1-.1-5.1-.1l-.14.1v1.2c0,.24.19.33.48.33,1.92,0,2.5.77,3.46,3.17l6.78,16.73-.87,2.35c-1.39,3.7-2.64,5.09-3,5.09s-.62-.38-.91-.81a3,3,0,0,0-2-1.16,2.63,2.63,0,0,0-2.84,2.5c0,2,2.65,2.6,3.66,2.6,3.84,0,5.91-3.7,7.54-7.74l8-19.79"/></g><polygon class="cls-7" points="348.85 240.32 318.12 227.36 322.14 236.82 85.55 236.82 89.57 227.36 58.85 240.32 89.57 253.28 85.55 243.82 322.14 243.82 318.12 253.28 348.85 240.32"/><rect class="cls-2" x="751.23" y="82.48" width="316.35" height="316.35" transform="translate(96.19 713.54) rotate(-45)"/><line class="cls-3" x1="1029.84" y1="361.09" x2="780.55" y2="111.79"/><polygon class="cls-4" points="789.76 110.53 782.29 113.54 779.28 121 772.11 103.35 789.76 110.53"/><line class="cls-3" x1="788.55" y1="361.98" x2="1038.74" y2="111.79"/><polygon class="cls-4" points="1040.01 121 1036.99 113.54 1029.53 110.53 1047.18 103.35 1040.01 121"/><g class="cls-8"><path d="M772.94,93.72l2.1-3c1.1-1.56,1.15-1.56,2-.15l2.1,3.2c1,1.5.6,1.75-1.15,2a.42.42,0,0,0-.4.4v1.2l.2.1s3.7-.1,6.1-.1c1.95,0,5,.1,5,.1l.15-.1V96.12c0-.2-.25-.3-.5-.35-1.85-.3-3-1-4.65-3.35l-4.4-6.56c-.3-.44-.25-.55-.1-.75l4.45-5.4a6.42,6.42,0,0,1,4.5-2.45c.3-.05.55-.2.55-.45V75.66l-.1-.1s-2.1.1-3.4.1c-2.3,0-5.85-.1-5.85-.1l-.15.15v1.2a.34.34,0,0,0,.35.35c1.8.15,1.9.7.85,2.15l-2.5,3.6c-.3.35-.35.4-.75-.15l-2.4-3.5c-1.15-1.65-.8-1.9,1.1-2.1a.36.36,0,0,0,.4-.4v-1.2l-.15-.1s-3.8.1-6.25.1c-1.95,0-5.06-.1-5.06-.1l-.15.1v1.25c0,.25.26.35.51.35,1.75,0,3.15,1.35,4.55,3.35L774.34,87c.2.26.25.3-.15.76l-4.6,5.7a6.9,6.9,0,0,1-4.5,2.35c-.3,0-.55.25-.55.5v1.1l.1.1s2.39-.1,3.9-.1c2.15,0,5.45.1,5.45.1l.2-.1v-1.2c0-.2-.15-.35-.4-.4-.9-.2-2-.4-.85-2"/><path d="M803.43,60.08a2.67,2.67,0,0,0-2.76-2.39c-1.5,0-2.23,1.46-2.63,2.68l-4.22,12.28a5.69,5.69,0,0,0-.4,1.41c0,.37.24.86.65.86.61,0,1.29-.86,1.58-1.3l6.64-10.5a5.9,5.9,0,0,0,1.14-3"/></g><g class="cls-9"><path d="M1077.23,110.22c.85-2.1,2.3-3,3.75-3a.51.51,0,0,0,.55-.45v-1.15l-.1-.1s-2,.1-3.2.1c-2.2,0-5.6-.1-5.6-.1l-.2.15v1.2a.39.39,0,0,0,.4.35c1.55,0,2.6.55,2,2.35-.9,2.9-2.9,8.35-4.6,12.5l-4.66-12.6c-.55-1.55-.15-2.25,1.85-2.25a.38.38,0,0,0,.41-.4v-1.2l-.21-.1s-3.7.1-6,.1c-2,0-5.3-.1-5.3-.1l-.15.1v1.25c0,.25.2.35.5.35,2,0,2.6.8,3.6,3.3l7.06,17.41-.91,2.45c-1.44,3.85-2.75,5.3-3.09,5.3s-.66-.4-1-.85a3.08,3.08,0,0,0-2.1-1.2,2.73,2.73,0,0,0-3,2.6c0,2,2.75,2.7,3.8,2.7,4,0,6.16-3.85,7.86-8l8.3-20.61"/><path d="M1095.89,90a2.67,2.67,0,0,0-2.76-2.39c-1.5,0-2.23,1.46-2.63,2.67l-4.22,12.28a5.89,5.89,0,0,0-.4,1.42c0,.37.24.85.64.85.61,0,1.3-.85,1.58-1.29l6.65-10.5a5.93,5.93,0,0,0,1.14-3"/></g><polygon class="cls-7" points="1054.64 240.89 1023.92 227.93 1027.94 237.39 791.35 237.39 795.37 227.93 764.64 240.89 795.37 253.85 791.35 244.39 1027.94 244.39 1023.92 253.85 1054.64 240.89"/><path class="cls-10" d="M543.59,222a1.62,1.62,0,0,1-.41-1.27,1.85,1.85,0,0,1,.41-1.39c2.66.1,5.1.16,7.35.16,1.58,0,3.45-.06,5.58-.16a2,2,0,0,1,.41,1.37,1.49,1.49,0,0,1-.41,1.29,6.8,6.8,0,0,0-4.28,1.52,14.47,14.47,0,0,0-2.55,4.37L539,253c-.52,1.23-1.16,1.85-1.91,1.88-.92,0-1.58-.56-2-1.68l-10.23-25.31a14.47,14.47,0,0,0-2.38-4.42,7,7,0,0,0-4-1.4,1.66,1.66,0,0,1-.41-1.27,1.9,1.9,0,0,1,.41-1.39c3.21.1,5.68.16,7.43.16s4.57-.06,8.08-.16a1.92,1.92,0,0,1,.39,1.37A1.63,1.63,0,0,1,534,222c-2,.26-3.13.74-3.38,1.44s0,2,.88,3.91l5.78,15.43c.65,1.64,1.15,2.49,1.49,2.56s.83-.7,1.48-2.29l6.45-15.7c.86-2,1.09-3.39.7-4.08S545.73,222.17,543.59,222Z"/><path class="cls-10" d="M561.13,242.8a1.72,1.72,0,0,1,1.25-.39,2,2,0,0,1,1.25.31q1.29,5.43,3.13,7.36t5.66,1.94a8.15,8.15,0,0,0,4.69-1.45,4.72,4.72,0,0,0,2.11-4.14,5.7,5.7,0,0,0-1.64-4.26c-1.1-1.06-3.27-2.26-6.53-3.59s-5.47-2.77-6.79-4.32a9.8,9.8,0,0,1-2-6.58,7.79,7.79,0,0,1,3.36-6.35,12.61,12.61,0,0,1,7.93-2.6,26.73,26.73,0,0,1,3.75.28q1.92.27,4.05.72c1.41.3,2.31.48,2.67.53q-.15,4.26-.47,8.47a1.73,1.73,0,0,1-1.29.4,2.07,2.07,0,0,1-1.29-.32,11.94,11.94,0,0,0-1.3-4,5.88,5.88,0,0,0-2.17-2.29,9.76,9.76,0,0,0-2.17-.91,7,7,0,0,0-1.78-.24,6,6,0,0,0-3.88,1.39,4.52,4.52,0,0,0-1.74,3.73,5.17,5.17,0,0,0,1.81,4.39,25.47,25.47,0,0,0,6.2,3q9.38,3.48,9.37,10.63a8.9,8.9,0,0,1-1.33,4.9,8.72,8.72,0,0,1-3.4,3.16,17.21,17.21,0,0,1-4.08,1.54,16.84,16.84,0,0,1-3.92.47,28.93,28.93,0,0,1-7.27-.86,6.48,6.48,0,0,0-1.6-.15,11.33,11.33,0,0,0-2,.23C561.69,251.07,561.49,247.38,561.13,242.8Z"/><path class="cls-10" d="M594.28,253.4a4,4,0,0,1-1.24-3,4.08,4.08,0,0,1,1.24-3,4,4,0,0,1,3-1.25,4.24,4.24,0,0,1,3,7.24,4.12,4.12,0,0,1-3,1.23A4.05,4.05,0,0,1,594.28,253.4Z"/></g></svg>