<svg xmlns="http://www.w3.org/2000/svg" xmlns:xlink="http://www.w3.org/1999/xlink" viewBox="0 0 1579.44 659"><defs><style>.cls-1,.cls-10,.cls-13,.cls-3,.cls-4,.cls-5,.cls-8{fill:none;}.cls-10,.cls-2,.cls-8{stroke:#000;}.cls-2,.cls-3,.cls-4,.cls-5{stroke-linecap:round;}.cls-10,.cls-13,.cls-2,.cls-3,.cls-4,.cls-5,.cls-8{stroke-miterlimit:10;}.cls-10,.cls-13,.cls-2{stroke-width:2px;}.cls-2{fill:url(#linear-gradient);}.cls-3{stroke:#4ec2c1;}.cls-3,.cls-4{stroke-width:6px;}.cls-4{stroke:#af4c9c;}.cls-5{stroke:#565656;stroke-width:4px;}.cls-6{fill:#565656;}.cls-7{fill:#34807e;}.cls-7,.cls-9{opacity:0.5;}.cls-9{fill:#7f3976;}.cls-11{fill:#4ec2c1;}.cls-12{fill:#af4c9c;}.cls-13{stroke:#231f20;}.cls-14{fill:#231f20;}.cls-15{clip-path:url(#clip-path);}.cls-16{clip-path:url(#clip-path-2);}.cls-17{clip-path:url(#clip-path-3);}.cls-18{clip-path:url(#clip-path-4);}.cls-19{clip-path:url(#clip-path-5);}.cls-20{clip-path:url(#clip-path-6);}.cls-21{clip-path:url(#clip-path-7);}.cls-22{clip-path:url(#clip-path-8);}</style><linearGradient id="linear-gradient" x1="707.36" y1="417.96" x2="991.93" y2="417.96" gradientUnits="userSpaceOnUse"><stop offset="0" stop-color="#fff"/><stop offset="0.11" stop-color="#f9f9f9"/><stop offset="0.25" stop-color="#e8e8e8"/><stop offset="0.41" stop-color="#cdcdcd"/><stop offset="0.58" stop-color="#a6a6a6"/><stop offset="0.77" stop-color="#757575"/><stop offset="0.96" stop-color="#393939"/><stop offset="0.97" stop-color="#363636"/></linearGradient><clipPath id="clip-path"><rect class="cls-1" x="539.31" y="540.44" width="56.32" height="36.96"/></clipPath><clipPath id="clip-path-2"><rect class="cls-1" x="884.94" y="81.93" width="63.36" height="36.96"/></clipPath><clipPath id="clip-path-3"><rect class="cls-1" x="744.62" y="97.57" width="26.1" height="21.75"/></clipPath><clipPath id="clip-path-4"><rect class="cls-1" x="490.59" y="335.34" width="99.03" height="40.93"/></clipPath><clipPath id="clip-path-5"><rect class="cls-1" x="1338.79" y="221.11" width="77.91" height="40.93"/></clipPath><clipPath id="clip-path-6"><rect class="cls-1" x="838.25" y="390.88" width="67.94" height="48.28"/></clipPath><clipPath id="clip-path-7"><rect class="cls-1" x="180.31" y="349.16" width="47.36" height="32.66"/></clipPath><clipPath id="clip-path-8"><rect class="cls-1" x="1019.51" y="232.27" width="53.89" height="32.66"/></clipPath></defs><title>mueller_matrix0</title><g id="Layer_4" data-name="Layer 4"><path class="cls-2" d="M875.84,284.88C810.6,291.6,755.48,327.65,707.36,384c33.94,48.82,67.72,105.6,101.51,167,54-54.62,115.14-93.37,183.06-117C957.14,369.42,919.53,315.56,875.84,284.88Z"/><line class="cls-3" x1="827.54" y1="384.76" x2="870.22" y2="230.57"/><line class="cls-4" x1="827.54" y1="384.76" x2="687.69" y2="475.24"/><line class="cls-5" x1="827.54" y1="384.76" x2="763.16" y2="139.83"/><polygon class="cls-6" points="759.57 126.17 772.49 143.35 763.43 140.85 756.77 147.49 759.57 126.17"/><polygon class="cls-7" points="887.4 203.43 808.32 213.81 853.05 269.73 932.13 255.47 887.4 203.43"/><polygon class="cls-8" points="887.4 203.43 808.32 213.81 853.05 269.73 932.13 255.47 887.4 203.43"/><polygon class="cls-9" points="646.96 427.1 668.52 509.37 728.43 526.15 708.46 442.27 646.96 427.1"/><polygon class="cls-8" points="708.46 442.27 646.96 427.1 668.52 509.37 728.43 526.15 708.46 442.27"/><line class="cls-10" x1="868.56" y1="236.58" x2="915.92" y2="225.82"/><polygon points="914 230.06 914.72 226.1 912.36 222.83 921.74 224.5 914 230.06"/><line class="cls-10" x1="868.56" y1="236.79" x2="842.94" y2="198.22"/><polygon points="847.58 198.51 843.62 199.25 841.41 202.61 839.64 193.25 847.58 198.51"/><line class="cls-3" x1="870.22" y1="230.57" x2="894.01" y2="144.63"/><polygon class="cls-11" points="899.66 124.21 903.45 156.23 893.59 146.15 879.95 149.72 899.66 124.21"/><line class="cls-10" x1="687.69" y1="475.24" x2="675.2" y2="422.64"/><polygon points="679.45 424.51 675.48 423.84 672.24 426.23 673.82 416.83 679.45 424.51"/><line class="cls-10" x1="687.69" y1="475.24" x2="722.6" y2="482.72"/><polygon points="719.07 485.75 721.39 482.46 720.63 478.51 728.43 483.98 719.07 485.75"/><line class="cls-4" x1="687.69" y1="475.24" x2="614.22" y2="522.77"/><polygon class="cls-12" points="596.44 534.27 614.88 507.82 615.55 521.91 628.12 528.3 596.44 534.27"/><path class="cls-13" d="M1209.07,277.88c0,60.77-171.41,45-280.6,5.39"/><polygon class="cls-14" points="931.55 278.94 921.74 280.76 928.22 288.35 931.55 278.94"/><path class="cls-14" d="M1101.66,239.29v3a11.77,11.77,0,0,0-2.66-1.15,9.69,9.69,0,0,0-2.73-.39,5.78,5.78,0,0,0-3.12.68,2.31,2.31,0,0,0-1,2.07,2.26,2.26,0,0,0,.76,1.87,10.62,10.62,0,0,0,3.83,1.2l1.24.24a6,6,0,0,1,3.47,1.73,4.87,4.87,0,0,1,1.18,3.4,5.25,5.25,0,0,1-2,4.34,8.66,8.66,0,0,1-5.49,1.56,15.93,15.93,0,0,1-2.91-.29,27.66,27.66,0,0,1-3.29-.88V253.5a17.73,17.73,0,0,0,3.29,1.33,10.81,10.81,0,0,0,3,.44,5.26,5.26,0,0,0,3.16-.82,2.71,2.71,0,0,0,1.12-2.32q0-2.13-4.1-3l-.13,0-1.15-.23a7.35,7.35,0,0,1-3.88-1.75,4.53,4.53,0,0,1-1.22-3.35,5,5,0,0,1,1.82-4.16,8.15,8.15,0,0,1,5.2-1.46,14.31,14.31,0,0,1,2.89.28A15.24,15.24,0,0,1,1101.66,239.29Z"/><path class="cls-14" d="M1116.27,233.32v5.32h7V241h-7V251.2a4.18,4.18,0,0,0,.78,2.89,3.75,3.75,0,0,0,2.74.82h3.47v2.45h-3.77q-3.45,0-4.88-1.38t-1.42-4.78V241h-5v-2.39h5v-5.32Z"/><path class="cls-14" d="M1136.91,238.19a7.25,7.25,0,0,1,6,2.52c1.38,1.69,2.07,4.12,2.07,7.31s-.69,5.64-2.06,7.31a8.31,8.31,0,0,1-11.92,0q-2.06-2.51-2-7.31c0-3.19.68-5.62,2-7.31A7.24,7.24,0,0,1,1136.91,238.19Zm0,2.61a4,4,0,0,0-3.54,1.82,12.73,12.73,0,0,0,0,10.79,4,4,0,0,0,3.54,1.83,4,4,0,0,0,3.57-1.83,12.73,12.73,0,0,0,0-10.79A4,4,0,0,0,1136.91,240.8Z"/><path class="cls-14" d="M1151.17,231.35h3.18v15.06l8.08-7.77h3.74l-7.37,7.06,8.52,11.66h-3.76l-6.92-9.66-2.29,2.16v7.5h-3.18Z"/><path class="cls-14" d="M1186.57,246.46V248h-13.33v.1c-.09,2.55.4,4.39,1.46,5.5a6,6,0,0,0,4.51,1.67,10.73,10.73,0,0,0,3.08-.47,18.2,18.2,0,0,0,3.42-1.42v3.06a20.87,20.87,0,0,1-3.38,1.08,14.64,14.64,0,0,1-3.15.36,8.91,8.91,0,0,1-6.83-2.62,10.14,10.14,0,0,1-2.45-7.21,10.29,10.29,0,0,1,2.41-7.16,8.21,8.21,0,0,1,6.42-2.67,7,7,0,0,1,5.64,2.42A9.37,9.37,0,0,1,1186.57,246.46Zm-3.08-.9a5.92,5.92,0,0,0-1.41-3.35,4.35,4.35,0,0,0-3.49-1.41,4.91,4.91,0,0,0-3.66,1.47,5.17,5.17,0,0,0-1.57,3.31Z"/><path class="cls-14" d="M1204.72,239.29v3a11.58,11.58,0,0,0-2.66-1.15,9.67,9.67,0,0,0-2.72-.39,5.75,5.75,0,0,0-3.12.68,2.3,2.3,0,0,0-1,2.07,2.27,2.27,0,0,0,.77,1.87,10.54,10.54,0,0,0,3.83,1.2l1.24.24a6.06,6.06,0,0,1,3.47,1.73,4.91,4.91,0,0,1,1.17,3.4,5.22,5.22,0,0,1-2,4.34,8.61,8.61,0,0,1-5.48,1.56,15.76,15.76,0,0,1-2.91-.29,27.16,27.16,0,0,1-3.29-.88V253.5a17.19,17.19,0,0,0,3.29,1.33,10.8,10.8,0,0,0,3,.44,5.24,5.24,0,0,0,3.16-.82,2.71,2.71,0,0,0,1.12-2.32q0-2.13-4.09-3l-.13,0-1.16-.23a7.43,7.43,0,0,1-3.88-1.75,4.57,4.57,0,0,1-1.22-3.35,5,5,0,0,1,1.82-4.16,8.17,8.17,0,0,1,5.2-1.46,14.41,14.41,0,0,1,2.9.28A14.9,14.9,0,0,1,1204.72,239.29Z"/><path class="cls-14" d="M1229.53,260.54v2.84h-20.46v-2.84Z"/><path class="cls-14" d="M1236,241a5.16,5.16,0,0,1,2-2.1,5.86,5.86,0,0,1,3-.74,6.27,6.27,0,0,1,5.31,2.6,11.69,11.69,0,0,1,1.94,7.16,12,12,0,0,1-2,7.27,6.27,6.27,0,0,1-5.34,2.63,5.82,5.82,0,0,1-3-.73,5.41,5.41,0,0,1-2-2.11v2.35h-3.07v-26H1236Zm9,7a10.29,10.29,0,0,0-1.14-5.4,3.7,3.7,0,0,0-3.36-1.82,3.76,3.76,0,0,0-3.39,1.83,13.08,13.08,0,0,0,0,10.77,4,4,0,0,0,6.75,0A10.33,10.33,0,0,0,1245,248Z"/><path class="cls-14" d="M1268,246.68v10.68h-3.09v-2.77a6.41,6.41,0,0,1-2.49,2.47,7.76,7.76,0,0,1-3.63.79,6.4,6.4,0,0,1-4.57-1.61,5.71,5.71,0,0,1-1.7-4.33,5.62,5.62,0,0,1,2.1-4.74q2.1-1.62,6.16-1.62h4.13v-.49a4.25,4.25,0,0,0-1.14-3.25,5.23,5.23,0,0,0-3.58-1,11.67,11.67,0,0,0-3.17.45,13.72,13.72,0,0,0-3.13,1.32v-3.08a20.94,20.94,0,0,1,3.27-1,14.63,14.63,0,0,1,3-.33,10.46,10.46,0,0,1,4,.68,6.3,6.3,0,0,1,2.67,2.06,5.29,5.29,0,0,1,.9,2.07A18.42,18.42,0,0,1,1268,246.68Zm-6,1.27h-1a7.1,7.1,0,0,0-4,1,3.2,3.2,0,0,0-1.37,2.81,3.4,3.4,0,0,0,1,2.63,4.06,4.06,0,0,0,2.83.93,4.9,4.9,0,0,0,4-1.76,7.6,7.6,0,0,0,1.47-4.87V248Z"/><path class="cls-14" d="M1287.17,239.29v3a11.51,11.51,0,0,0-2.65-1.15,9.74,9.74,0,0,0-2.73-.39,5.78,5.78,0,0,0-3.12.68,2.32,2.32,0,0,0-1,2.07,2.27,2.27,0,0,0,.77,1.87,10.62,10.62,0,0,0,3.83,1.2l1.24.24a6,6,0,0,1,3.47,1.73,4.92,4.92,0,0,1,1.18,3.4,5.23,5.23,0,0,1-2,4.34,8.61,8.61,0,0,1-5.48,1.56,15.93,15.93,0,0,1-2.91-.29,27.66,27.66,0,0,1-3.29-.88V253.5a17.46,17.46,0,0,0,3.29,1.33,10.81,10.81,0,0,0,3,.44,5.26,5.26,0,0,0,3.16-.82,2.74,2.74,0,0,0,1.12-2.32q0-2.13-4.1-3l-.13,0-1.16-.23a7.35,7.35,0,0,1-3.87-1.75,4.53,4.53,0,0,1-1.22-3.35,5,5,0,0,1,1.82-4.16,8.15,8.15,0,0,1,5.2-1.46,14.38,14.38,0,0,1,2.89.28A14.9,14.9,0,0,1,1287.17,239.29Z"/><path class="cls-14" d="M1296.8,238.71h7.88V255h6.1v2.39H1295.5V255h6.1V241.1h-4.8Zm4.8-7.28h3.08v3.88h-3.08Z"/><path class="cls-14" d="M1328.4,239.29v3a11.58,11.58,0,0,0-2.66-1.15,9.67,9.67,0,0,0-2.72-.39,5.75,5.75,0,0,0-3.12.68,2.3,2.3,0,0,0-1,2.07,2.27,2.27,0,0,0,.77,1.87,10.54,10.54,0,0,0,3.83,1.2l1.24.24a6.06,6.06,0,0,1,3.47,1.73,4.91,4.91,0,0,1,1.17,3.4,5.22,5.22,0,0,1-2,4.34,8.61,8.61,0,0,1-5.48,1.56,15.76,15.76,0,0,1-2.91-.29,27.16,27.16,0,0,1-3.29-.88V253.5a17.19,17.19,0,0,0,3.29,1.33,10.8,10.8,0,0,0,3,.44,5.24,5.24,0,0,0,3.16-.82,2.71,2.71,0,0,0,1.12-2.32q0-2.13-4.09-3l-.13,0-1.16-.23a7.43,7.43,0,0,1-3.88-1.75,4.57,4.57,0,0,1-1.22-3.35,5,5,0,0,1,1.82-4.16,8.17,8.17,0,0,1,5.2-1.46,14.41,14.41,0,0,1,2.9.28A14.9,14.9,0,0,1,1328.4,239.29Z"/><path class="cls-13" d="M346.38,388.22c0,46.22,166.77,73,276.36,67.68"/><polygon class="cls-14" points="621.49 460.85 629.9 455.5 621.06 450.89 621.49 460.85"/><path class="cls-14" d="M256,353.2v3a11.58,11.58,0,0,0-2.66-1.15,9.69,9.69,0,0,0-2.73-.39,5.72,5.72,0,0,0-3.11.68,2.29,2.29,0,0,0-1,2.06,2.26,2.26,0,0,0,.77,1.88,10.54,10.54,0,0,0,3.83,1.2l1.23.23a6,6,0,0,1,3.47,1.74,4.85,4.85,0,0,1,1.18,3.4,5.22,5.22,0,0,1-2,4.33,8.6,8.6,0,0,1-5.49,1.57,15.74,15.74,0,0,1-2.9-.29,27.28,27.28,0,0,1-3.3-.88v-3.18a18.23,18.23,0,0,0,3.3,1.33,10.69,10.69,0,0,0,3,.44,5.26,5.26,0,0,0,3.16-.82,2.73,2.73,0,0,0,1.12-2.32c0-1.43-1.36-2.41-4.1-3l-.13,0-1.15-.24a7.31,7.31,0,0,1-3.88-1.74,4.57,4.57,0,0,1-1.22-3.36,5,5,0,0,1,1.82-4.15,8.17,8.17,0,0,1,5.2-1.46,15.08,15.08,0,0,1,2.89.27A14.8,14.8,0,0,1,256,353.2Z"/><path class="cls-14" d="M270.58,347.23v5.32h7v2.39h-7V365.1a4.2,4.2,0,0,0,.78,2.9,3.77,3.77,0,0,0,2.75.81h3.46v2.46h-3.76q-3.46,0-4.89-1.38c-.94-.93-1.42-2.52-1.42-4.79V354.94h-5v-2.39h5v-5.32Z"/><path class="cls-14" d="M291.23,352.1a7.28,7.28,0,0,1,6,2.52c1.37,1.69,2.06,4.12,2.06,7.31s-.69,5.63-2.06,7.31a8.31,8.31,0,0,1-11.92,0c-1.37-1.68-2-4.11-2-7.31s.68-5.62,2-7.31A7.25,7.25,0,0,1,291.23,352.1Zm0,2.61a4,4,0,0,0-3.55,1.82,12.73,12.73,0,0,0,0,10.79,4.37,4.37,0,0,0,7.11,0,12.73,12.73,0,0,0,0-10.79A4,4,0,0,0,291.23,354.71Z"/><path class="cls-14" d="M305.49,345.26h3.17v15.06l8.08-7.77h3.74l-7.37,7.05,8.53,11.67h-3.77L311,361.61l-2.29,2.16v7.5h-3.17Z"/><path class="cls-14" d="M340.88,360.37v1.51H327.55v.1q-.14,3.82,1.47,5.5a5.93,5.93,0,0,0,4.5,1.67,11.09,11.09,0,0,0,3.08-.47,18.2,18.2,0,0,0,3.42-1.42v3.06a20.56,20.56,0,0,1-3.38,1.08,14.64,14.64,0,0,1-3.15.36,8.88,8.88,0,0,1-6.82-2.62,10.1,10.1,0,0,1-2.46-7.21,10.29,10.29,0,0,1,2.41-7.16A8.21,8.21,0,0,1,333,352.1a7,7,0,0,1,5.64,2.42A9.31,9.31,0,0,1,340.88,360.37Zm-3.08-.9a5.92,5.92,0,0,0-1.41-3.35,4.35,4.35,0,0,0-3.49-1.41,4.91,4.91,0,0,0-3.66,1.47,5.17,5.17,0,0,0-1.57,3.31Z"/><path class="cls-14" d="M359,353.2v3a11.39,11.39,0,0,0-2.66-1.15,9.62,9.62,0,0,0-2.72-.39,5.78,5.78,0,0,0-3.12.68,2.31,2.31,0,0,0-1,2.06,2.29,2.29,0,0,0,.77,1.88,10.62,10.62,0,0,0,3.83,1.2l1.24.23a6,6,0,0,1,3.47,1.74,4.9,4.9,0,0,1,1.18,3.4,5.2,5.2,0,0,1-2,4.33,8.55,8.55,0,0,1-5.48,1.57,15.76,15.76,0,0,1-2.91-.29,27.66,27.66,0,0,1-3.29-.88v-3.18a18.15,18.15,0,0,0,3.29,1.33,10.81,10.81,0,0,0,3,.44,5.26,5.26,0,0,0,3.16-.82,2.75,2.75,0,0,0,1.12-2.32c0-1.43-1.37-2.41-4.1-3l-.13,0-1.16-.24a7.35,7.35,0,0,1-3.88-1.74,4.57,4.57,0,0,1-1.22-3.36,5,5,0,0,1,1.83-4.15,8.13,8.13,0,0,1,5.2-1.46,15.15,15.15,0,0,1,2.89.27A14.93,14.93,0,0,1,359,353.2Z"/><path class="cls-14" d="M383.84,374.45v2.84H363.38v-2.84Z"/><path class="cls-14" d="M390.3,354.94a5.16,5.16,0,0,1,2-2.11,6,6,0,0,1,3-.73,6.24,6.24,0,0,1,5.31,2.6,11.69,11.69,0,0,1,1.94,7.16,12,12,0,0,1-1.94,7.26,6.29,6.29,0,0,1-5.35,2.64,5.84,5.84,0,0,1-3-.73,5.32,5.32,0,0,1-2-2.11v2.35h-3.08v-26h3.08Zm9,7a10.29,10.29,0,0,0-1.14-5.4,3.68,3.68,0,0,0-3.36-1.82,3.76,3.76,0,0,0-3.39,1.83,13.18,13.18,0,0,0,0,10.77,3.75,3.75,0,0,0,3.39,1.84,3.7,3.7,0,0,0,3.36-1.82A10.33,10.33,0,0,0,399.34,361.93Z"/><path class="cls-14" d="M422.31,360.59v10.68h-3.09V368.5a6.43,6.43,0,0,1-2.48,2.46,7.68,7.68,0,0,1-3.64.8,6.33,6.33,0,0,1-4.56-1.62,6.37,6.37,0,0,1,.39-9.07q2.1-1.62,6.16-1.62h4.13V359a4.21,4.21,0,0,0-1.14-3.25,5.23,5.23,0,0,0-3.58-1,11.72,11.72,0,0,0-3.17.45,13.72,13.72,0,0,0-3.13,1.32V353.4a22.53,22.53,0,0,1,3.27-1,15.31,15.31,0,0,1,3-.32,10.42,10.42,0,0,1,4,.68,6.3,6.3,0,0,1,2.67,2.06,5.25,5.25,0,0,1,.9,2.06A18.6,18.6,0,0,1,422.31,360.59Zm-6,1.27h-1a7.12,7.12,0,0,0-4.05.95,3.17,3.17,0,0,0-1.36,2.81,3.4,3.4,0,0,0,1,2.63,4,4,0,0,0,2.82.93,4.89,4.89,0,0,0,4-1.76,7.5,7.5,0,0,0,1.47-4.87v-.69Z"/><path class="cls-14" d="M441.49,353.2v3a11.58,11.58,0,0,0-2.66-1.15,9.69,9.69,0,0,0-2.73-.39,5.72,5.72,0,0,0-3.11.68,2.29,2.29,0,0,0-1,2.06,2.26,2.26,0,0,0,.77,1.88,10.54,10.54,0,0,0,3.82,1.2l1.24.23a6,6,0,0,1,3.47,1.74,4.85,4.85,0,0,1,1.18,3.4,5.22,5.22,0,0,1-2,4.33,8.6,8.6,0,0,1-5.49,1.57,15.93,15.93,0,0,1-2.91-.29,27.66,27.66,0,0,1-3.29-.88v-3.18a18.45,18.45,0,0,0,3.29,1.33,10.81,10.81,0,0,0,3,.44,5.26,5.26,0,0,0,3.16-.82,2.73,2.73,0,0,0,1.12-2.32c0-1.43-1.37-2.41-4.1-3l-.13,0-1.15-.24a7.27,7.27,0,0,1-3.88-1.74,4.53,4.53,0,0,1-1.22-3.36,5,5,0,0,1,1.82-4.15,8.15,8.15,0,0,1,5.2-1.46,14.27,14.27,0,0,1,5.62,1.1Z"/><path class="cls-14" d="M451.12,352.62H459v16.26h6.1v2.39H449.81v-2.39h6.1V355h-4.79Zm4.79-7.28H459v3.88h-3.08Z"/><path class="cls-14" d="M482.71,353.2v3a11.39,11.39,0,0,0-2.66-1.15,9.67,9.67,0,0,0-2.72-.39,5.78,5.78,0,0,0-3.12.68,2.31,2.31,0,0,0-1,2.06,2.29,2.29,0,0,0,.77,1.88,10.62,10.62,0,0,0,3.83,1.2l1.24.23a6.07,6.07,0,0,1,3.47,1.74,4.9,4.9,0,0,1,1.18,3.4,5.2,5.2,0,0,1-2,4.33,8.55,8.55,0,0,1-5.48,1.57,15.76,15.76,0,0,1-2.91-.29,27.66,27.66,0,0,1-3.29-.88v-3.18a17.87,17.87,0,0,0,3.29,1.33,10.81,10.81,0,0,0,3,.44,5.26,5.26,0,0,0,3.16-.82,2.75,2.75,0,0,0,1.12-2.32c0-1.43-1.37-2.41-4.1-3l-.13,0-1.16-.24a7.35,7.35,0,0,1-3.88-1.74,4.57,4.57,0,0,1-1.22-3.36,5,5,0,0,1,1.83-4.15,8.13,8.13,0,0,1,5.2-1.46,15.15,15.15,0,0,1,2.89.27A14.93,14.93,0,0,1,482.71,353.2Z"/><g class="cls-15"><path d="M578.59,556.15a10.92,10.92,0,0,0,.28-2.28c0-6.75-7.26-10.66-9.25-11.69L568,543.89c3.29,3.4,4.14,6.58,4.14,9.08a10.22,10.22,0,0,1-.34,2.78c-1.19,5.33-3.35,10.38-7.6,10.38-2.22,0-3.24-2.38-3.52-5.84a25.72,25.72,0,0,0,3.17-6.75,3,3,0,0,0,.12-1c0-1.24-.79-2.09-2.9-2.09a4,4,0,0,0-4.25,3.45,12.76,12.76,0,0,0-.34,3.18,18.58,18.58,0,0,0,.28,3.3c-2,3.86-3.92,5.78-6.07,5.78-2.55,0-4-1-4-4.31a19.12,19.12,0,0,1,.62-4.48c1.76-7.72,7.89-12.55,9.88-13.45l-.8-1.88c-8.39,4.15-14.47,10.16-15.77,15.73a15.18,15.18,0,0,0-.46,3.34c0,5.62,4.26,7.5,9,7.5a11.31,11.31,0,0,0,8.68-3.64c1.19,2.73,3.69,3.64,6.47,3.64,7.72,0,12.6-5.17,14.3-12.43"/><path d="M591.46,561.62a30.9,30.9,0,0,0,1.06-4.37c0-.64-.46-1-1.1-1-1.66,0-3.91.32-6.35.6-.41.36-.23.87,0,1.29l2,.13a.89.89,0,0,1,.88.92,12,12,0,0,1-.46,2.35L585,571.05a31.91,31.91,0,0,0-.87,4.23c0,.88.6,1.52,2.16,1.52,2.53,0,4.83-1.56,7.27-4.28a1.19,1.19,0,0,0-1.24-.78A7.8,7.8,0,0,1,589,574c-.37,0-.51-.23-.51-.78a21.79,21.79,0,0,1,.55-2.62l2.39-9M589,550.13a2.61,2.61,0,1,0,2.57-2.21A2.46,2.46,0,0,0,589,550.13Z"/></g><g class="cls-16"><path d="M923.52,97.64a10.75,10.75,0,0,0,.28-2.27c0-6.75-7.26-10.67-9.25-11.69l-1.64,1.7c3.29,3.41,4.14,6.59,4.14,9.08a10.3,10.3,0,0,1-.34,2.79c-1.19,5.33-3.35,10.38-7.6,10.38-2.22,0-3.24-2.39-3.52-5.84A25.74,25.74,0,0,0,908.76,95a3,3,0,0,0,.12-1c0-1.25-.79-2.1-2.9-2.1a4,4,0,0,0-4.25,3.46,12.7,12.7,0,0,0-.34,3.18,18.41,18.41,0,0,0,.28,3.29c-2,3.86-3.92,5.79-6.07,5.79-2.55,0-4-1-4-4.31a19.19,19.19,0,0,1,.62-4.49c1.76-7.71,7.89-12.54,9.88-13.45l-.8-1.87c-8.39,4.14-14.47,10.16-15.77,15.72a15.27,15.27,0,0,0-.46,3.35c0,5.62,4.26,7.49,9,7.49a11.3,11.3,0,0,0,8.68-3.63c1.19,2.72,3.69,3.63,6.47,3.63,7.72,0,12.6-5.16,14.3-12.43"/><path d="M927.48,110.38c0,2.44.64,7.92,7.17,7.92a10.91,10.91,0,0,0,4.69-.88,13.82,13.82,0,0,0,7.92-12.32c0-3.31-.92-7.45-7.18-7.45-8.55,0-12.6,7.22-12.6,12.73m4.46-.36c0-4.14,1.93-10.86,7.13-10.86a3.11,3.11,0,0,1,2.94,2,9.19,9.19,0,0,1,.79,4.23c0,1.84-.24,5.79-2.08,8.37a6.34,6.34,0,0,1-5.24,2.8C934.06,116.59,931.94,114.85,931.94,110Z"/></g><g class="cls-17"><path d="M753.91,100.92h-.1l.1-2.94c0-.1-.24-.15-.33-.15a56.77,56.77,0,0,1-7.85,1.41l.09,1.59,1.92.18c.65,0,1,.38,1,2.71v11.46c0,1.31-.74,1.64-2.24,2l-.42.1a.38.38,0,0,0-.37.42v1.07l.09.1s3.79-.1,5.42-.1c1.83,0,5.38.1,5.38.1l.09-.1v-1.07a.4.4,0,0,0-.37-.42l-.19,0c-1.4-.33-2.24-.75-2.24-2V102.79c2.34-1.45,4.25-2.2,5.66-2.2,1.68,0,2,1.41,2,4.58v10c0,1.31-.79,1.64-2.24,2l-.19,0c-.24,0-.38.14-.38.42v1.07l.1.1s3.55-.1,5.23-.1c1.83,0,5.57.1,5.57.1l.09-.1v-1.07a.4.4,0,0,0-.37-.42l-.38-.1c-1.45-.37-2.29-.65-2.29-2V105.5c0-4.25-.7-7.52-5.7-7.52-2.25,0-4.68,1.12-7.06,2.94"/></g><g class="cls-18"><path d="M501.44,336.24a22.91,22.91,0,0,0-10.52,19.58c0,7.92,4.51,15.93,10.39,19.55l.51-.68c-5.62-4.43-7.24-9.59-7.24-19s1.75-14.35,7.24-18.77l-.38-.68"/><rect x="505.78" y="354.63" width="21.8" height="2.39"/><path d="M560.74,358a8.58,8.58,0,0,0,.21-1.7c0-5.07-5.45-8-6.94-8.77l-1.24,1.27a9.66,9.66,0,0,1,3.11,6.82,7.35,7.35,0,0,1-.26,2.08c-.89,4-2.51,7.8-5.7,7.8-1.66,0-2.43-1.79-2.64-4.39a19,19,0,0,0,2.38-5.07,2.2,2.2,0,0,0,.09-.76c0-.94-.6-1.58-2.17-1.58a3,3,0,0,0-3.2,2.6,10,10,0,0,0-.25,2.38,14.13,14.13,0,0,0,.21,2.47c-1.53,2.9-2.94,4.35-4.55,4.35-1.92,0-3-.77-3-3.24a14.26,14.26,0,0,1,.47-3.36,16.26,16.26,0,0,1,7.41-10.1l-.6-1.4c-6.3,3.11-10.85,7.62-11.83,11.79a11.33,11.33,0,0,0-.34,2.52c0,4.21,3.19,5.62,6.77,5.62a8.48,8.48,0,0,0,6.51-2.73c.9,2,2.77,2.73,4.85,2.73,5.8,0,9.46-3.88,10.74-9.33"/><path d="M570.53,362.06a23.73,23.73,0,0,0,.79-3.28c0-.48-.35-.72-.83-.72-1.24,0-2.93.24-4.76.45-.31.27-.17.65,0,1l1.49.11a.65.65,0,0,1,.65.69,8.9,8.9,0,0,1-.34,1.76l-1.87,7.11a23.84,23.84,0,0,0-.65,3.17c0,.66.45,1.14,1.62,1.14,1.9,0,3.62-1.17,5.45-3.21a.88.88,0,0,0-.93-.59,5.77,5.77,0,0,1-2.48,1.73c-.28,0-.38-.17-.38-.59a15,15,0,0,1,.41-2l1.8-6.76m-1.87-8.62a2,2,0,1,0,1.93-1.66A1.85,1.85,0,0,0,568.66,353.44Z"/><path d="M578.83,336.24l-.38.68c5.49,4.42,7.24,9.32,7.24,18.77s-1.62,14.57-7.24,19l.51.68c5.88-3.62,10.39-11.63,10.39-19.55a22.91,22.91,0,0,0-10.52-19.58"/></g><g class="cls-19"><path d="M1349.77,222a22.91,22.91,0,0,0-10.52,19.58c0,7.93,4.51,15.93,10.39,19.55l.51-.68c-5.62-4.43-7.24-9.58-7.24-19s1.75-14.35,7.24-18.78l-.38-.68"/><path d="M1382,243.72a8.58,8.58,0,0,0,.21-1.7c0-5.07-5.45-8-6.94-8.77l-1.24,1.28a9.64,9.64,0,0,1,3.11,6.81,7.42,7.42,0,0,1-.26,2.09c-.89,4-2.51,7.79-5.7,7.79-1.66,0-2.43-1.79-2.64-4.39a19.1,19.1,0,0,0,2.38-5.06,2.29,2.29,0,0,0,.09-.77c0-.94-.6-1.58-2.17-1.58a3,3,0,0,0-3.2,2.6,10,10,0,0,0-.25,2.38,14,14,0,0,0,.21,2.47c-1.53,2.9-2.94,4.35-4.55,4.35-1.92,0-3-.77-3-3.24a14.26,14.26,0,0,1,.47-3.36,16.23,16.23,0,0,1,7.41-10.09l-.6-1.41c-6.3,3.11-10.85,7.62-11.83,11.8a11.25,11.25,0,0,0-.34,2.51c0,4.21,3.19,5.62,6.77,5.62a8.48,8.48,0,0,0,6.51-2.73c.9,2.05,2.77,2.73,4.85,2.73,5.8,0,9.46-3.87,10.74-9.33"/><path d="M1385,253.28c0,1.84.49,5.94,5.39,5.94a8.17,8.17,0,0,0,3.52-.66,10.35,10.35,0,0,0,5.93-9.24c0-2.49-.69-5.59-5.38-5.59a9.42,9.42,0,0,0-9.46,9.55m3.35-.27c0-3.11,1.45-8.14,5.35-8.14a2.34,2.34,0,0,1,2.21,1.51,7,7,0,0,1,.59,3.18c0,1.38-.18,4.35-1.56,6.28a4.76,4.76,0,0,1-3.93,2.1C1389.9,257.94,1388.31,256.63,1388.31,253Z"/><path d="M1405.24,222l-.38.68c5.49,4.43,7.24,9.33,7.24,18.78s-1.62,14.56-7.24,19l.51.68c5.88-3.62,10.39-11.62,10.39-19.55A22.91,22.91,0,0,0,1405.24,222"/></g><g class="cls-20"><path d="M878.89,397.05c-.12-1.62.8-2.54,3.17-2.54h.8a.43.43,0,0,0,.47-.46v-1.38l-.12-.06h-8.94c-3.57,8.94-7.32,19.08-10.95,28.13L851.5,392.61h-9.74l-.12.06v1.38a.47.47,0,0,0,.52.46H843c2.25,0,2.71.63,2.59,2.54L844,425.47c-.12,1.85-1.33,2.54-3.63,2.54h-.58a.47.47,0,0,0-.46.52v1.32l.11.12s3.86-.12,6.11-.12c2,0,6.23.12,6.23.12l.11-.12v-1.32c0-.35-.17-.52-.46-.52h-.8c-2.37,0-3.12-.69-3-2.54l1.21-21.5c4.21,9.86,10.67,25.48,10.67,25.48a1.88,1.88,0,0,0,1.73,1.1,1.75,1.75,0,0,0,1.67-1.1s6.86-16.89,10.32-25.31L875,425.47c.17,1.79-.58,2.54-2.89,2.54h-.8a.48.48,0,0,0-.47.52v1.32l.12.12s4.78-.12,7-.12c2,0,7.73.12,7.73.12l.12-.12v-1.32c0-.35-.18-.52-.47-.52h-.8c-2.37,0-3-.92-3.17-2.54l-2.48-28.42"/></g><g class="cls-21"><path d="M180.3,365.31a55.05,55.05,0,0,1,.63,7.58c2.74-.05,5,.63,7.53.63,4.06,0,9.12-1.78,9.12-6.79,0-4.11-3.74-6.37-8.27-8.05-2.16-.79-2.9-2-2.9-3.85a2.82,2.82,0,0,1,3-3c2.37,0,4,1.21,5.11,4.9l2.05-.27c-.16-1.89-.36-3.79-.58-5.37a13.85,13.85,0,0,0-6.74-1.47c-4.79,0-8.21,2.84-8.21,6.47,0,4.22,4.63,6.9,7.27,7.85,2.89,1,3.47,2.05,3.47,4.11a3.12,3.12,0,0,1-3.11,3.42c-3.94,0-5.26-1.74-6.21-6.26l-2.11.1"/><path d="M210.58,367.18a28.84,28.84,0,0,0,1-4.05c0-.6-.43-.9-1-.9-1.54,0-3.63.3-5.89.55-.38.35-.21.82,0,1.2l1.84.13a.81.81,0,0,1,.81.85,11,11,0,0,1-.43,2.18l-2.3,8.79a29.34,29.34,0,0,0-.81,3.93c0,.81.55,1.4,2,1.4,2.35,0,4.48-1.45,6.75-4a1.1,1.1,0,0,0-1.16-.73,7.1,7.1,0,0,1-3.07,2.13c-.34,0-.47-.21-.47-.72a20.15,20.15,0,0,1,.51-2.43l2.22-8.37m-2.3-10.67a2.42,2.42,0,1,0,2.39-2.05A2.28,2.28,0,0,0,208.28,356.51Z"/><path d="M227.65,372.68c0-4.37-3.05-5.05-4.26-5.05a2.9,2.9,0,0,0-3,3.05c0,2.11,1.89,2.64,3.26,2.64a2.62,2.62,0,0,0,.79-.11,3,3,0,0,1,.48-.11.72.72,0,0,1,.73.74c0,1-.84,3.37-4.32,5.58l.48,1c1.58-.52,5.89-4,5.89-7.74"/></g><g class="cls-22"><path d="M1019.67,248.42a56.67,56.67,0,0,1,.63,7.59c2.73-.06,5,.63,7.53.63,4.05,0,9.11-1.79,9.11-6.79,0-4.11-3.74-6.38-8.27-8.06-2.16-.79-2.9-2-2.9-3.85a2.83,2.83,0,0,1,3-3c2.37,0,4.06,1.21,5.11,4.9l2.05-.26c-.15-1.9-.36-3.79-.57-5.37a13.92,13.92,0,0,0-6.75-1.48c-4.79,0-8.21,2.84-8.21,6.48,0,4.21,4.63,6.9,7.27,7.84,2.89,1,3.47,2.06,3.47,4.11a3.13,3.13,0,0,1-3.11,3.43c-3.94,0-5.26-1.74-6.21-6.27l-2.1.1"/><path d="M1041.51,257c0,2.26.6,7.34,6.66,7.34a10.14,10.14,0,0,0,4.35-.81,12.83,12.83,0,0,0,7.34-11.44c0-3.07-.85-6.91-6.66-6.91-7.94,0-11.69,6.7-11.69,11.82m4.14-.34c0-3.85,1.79-10.07,6.61-10.07a2.87,2.87,0,0,1,2.73,1.87,8.59,8.59,0,0,1,.73,3.93c0,1.71-.21,5.38-1.92,7.77a5.91,5.91,0,0,1-4.87,2.6C1047.61,262.8,1045.65,261.18,1045.65,256.7Z"/><path d="M1073.22,255.8c0-4.37-3-5.06-4.26-5.06a2.91,2.91,0,0,0-3.06,3.06c0,2.1,1.9,2.63,3.27,2.63a2.33,2.33,0,0,0,.79-.11,2.86,2.86,0,0,1,.47-.1.72.72,0,0,1,.74.74c0,1-.84,3.37-4.32,5.58l.47,1c1.58-.53,5.9-4,5.9-7.74"/></g></g></svg>