<?xml version="1.0" encoding="utf-8"?>
<!-- Generator: Adobe Illustrator 24.0.3, SVG Export Plug-In . SVG Version: 6.00 Build 0)  -->
<svg version="1.1" id="Layer_1" xmlns="http://www.w3.org/2000/svg" xmlns:xlink="http://www.w3.org/1999/xlink" x="0px" y="0px"
	 viewBox="0 0 371.82 113.29" style="enable-background:new 0 0 371.82 113.29;" xml:space="preserve">
<style type="text/css">
	.st0{fill:#0000FF;stroke:#0000FF;stroke-width:6;stroke-miterlimit:10;}
	.st1{fill:#C1272D;stroke:#C1272D;stroke-width:6;stroke-miterlimit:10;}
	.st2{fill:#FF0000;stroke:#FBB03B;stroke-width:6;stroke-miterlimit:10;}
	.st3{fill:#FFFF00;stroke:#8CC63F;stroke-width:6;stroke-miterlimit:10;}
	.st4{fill:none;stroke:#0000FF;stroke-width:3;stroke-miterlimit:10;}
	.st5{fill:none;stroke:#C1272D;stroke-width:3;stroke-miterlimit:10;}
	.st6{fill:none;stroke:#FBB03B;stroke-width:3;stroke-miterlimit:10;}
	.st7{fill:none;stroke:#8CC63F;stroke-width:3;stroke-miterlimit:10;}
</style>
<g>
	<path d="M0.88,103.03c0-0.74-0.01-1.34-0.05-1.9h0.95l0.06,1h0.02c0.42-0.72,1.12-1.13,2.05-1.13c1.42,0,2.47,1.19,2.47,2.95
		c0,2.09-1.28,3.12-2.64,3.12c-0.78,0-1.44-0.34-1.79-0.91H1.93v3.15H0.88V103.03z M1.93,104.57c0,0.14,0.01,0.3,0.05,0.43
		c0.18,0.73,0.83,1.24,1.57,1.24c1.12,0,1.76-0.91,1.76-2.24c0-1.16-0.6-2.16-1.71-2.16c-0.72,0-1.4,0.5-1.61,1.31
		c-0.02,0.13-0.06,0.29-0.06,0.42V104.57z"/>
	<path d="M11.79,105.55c0,0.5,0.02,1,0.08,1.39h-0.95l-0.1-0.73H10.8c-0.31,0.46-0.95,0.86-1.77,0.86c-1.18,0-1.77-0.83-1.77-1.67
		c0-1.4,1.25-2.17,3.49-2.16v-0.12c0-0.48-0.13-1.35-1.32-1.34c-0.55,0-1.12,0.16-1.52,0.43l-0.24-0.71c0.48-0.3,1.19-0.5,1.92-0.5
		c1.79,0,2.22,1.21,2.22,2.37V105.55z M10.76,103.97c-1.15-0.02-2.46,0.18-2.46,1.31c0,0.7,0.46,1.01,0.98,1.01
		c0.77,0,1.26-0.48,1.43-0.97c0.04-0.11,0.05-0.23,0.05-0.34V103.97z"/>
	<path d="M17.62,106.72c-0.28,0.13-0.89,0.34-1.67,0.34c-1.75,0-2.89-1.19-2.89-2.96c0-1.79,1.22-3.09,3.12-3.09
		c0.62,0,1.18,0.16,1.46,0.31l-0.24,0.8c-0.25-0.13-0.65-0.28-1.22-0.28c-1.33,0-2.05,1-2.05,2.19c0,1.34,0.86,2.17,2.02,2.17
		c0.6,0,1-0.14,1.3-0.28L17.62,106.72z"/>
	<path d="M19.92,103.79h0.02c0.14-0.2,0.34-0.46,0.5-0.66l1.72-2h1.26l-2.24,2.39l2.55,3.42h-1.28l-1.99-2.78l-0.54,0.6v2.18h-1.06
		v-8.52h1.06V103.79z"/>
	<path d="M25.09,104.23c0.02,1.42,0.92,2,1.98,2c0.76,0,1.22-0.13,1.61-0.3l0.19,0.76c-0.37,0.17-1.02,0.37-1.94,0.37
		c-1.77,0-2.85-1.19-2.85-2.93c0-1.75,1.04-3.13,2.73-3.13c1.89,0,2.39,1.67,2.39,2.73c0,0.22-0.01,0.37-0.04,0.49H25.09z
		 M28.17,103.47c0.01-0.67-0.28-1.71-1.45-1.71c-1.08,0-1.54,0.98-1.62,1.71H28.17z"/>
	<path d="M31.77,99.74v1.39h1.51v0.8h-1.51v3.12c0,0.72,0.2,1.13,0.79,1.13c0.29,0,0.46-0.02,0.61-0.07l0.05,0.8
		c-0.2,0.07-0.53,0.14-0.94,0.14c-0.49,0-0.89-0.17-1.14-0.44c-0.29-0.32-0.41-0.84-0.41-1.52v-3.15h-0.9v-0.8h0.9v-1.07
		L31.77,99.74z"/>
	<path d="M39.6,107.84v0.6h-6v-0.6H39.6z"/>
	<path d="M40.33,105.86c0.32,0.19,0.88,0.41,1.4,0.41c0.76,0,1.12-0.37,1.12-0.86c0-0.5-0.3-0.77-1.07-1.06
		c-1.06-0.38-1.55-0.96-1.55-1.64c0-0.94,0.77-1.7,2-1.7c0.59,0,1.1,0.16,1.42,0.36l-0.25,0.76c-0.23-0.13-0.65-0.34-1.19-0.34
		c-0.62,0-0.96,0.36-0.96,0.79c0,0.48,0.34,0.7,1.09,1c1,0.37,1.52,0.88,1.52,1.74c0,1.03-0.8,1.75-2.16,1.75
		c-0.64,0-1.22-0.17-1.63-0.41L40.33,105.86z"/>
	<path d="M45.23,103.03c0-0.74-0.01-1.34-0.05-1.9h0.95l0.06,1h0.02c0.42-0.72,1.12-1.13,2.05-1.13c1.42,0,2.47,1.19,2.47,2.95
		c0,2.09-1.28,3.12-2.64,3.12c-0.78,0-1.44-0.34-1.79-0.91h-0.02v3.15h-1.06V103.03z M46.28,104.57c0,0.14,0.01,0.3,0.05,0.43
		c0.18,0.73,0.83,1.24,1.57,1.24c1.12,0,1.76-0.91,1.76-2.24c0-1.16-0.6-2.16-1.71-2.16c-0.72,0-1.4,0.5-1.61,1.31
		c-0.02,0.13-0.06,0.29-0.06,0.42V104.57z"/>
	<path d="M52.65,104.23c0.02,1.42,0.92,2,1.98,2c0.76,0,1.22-0.13,1.61-0.3l0.19,0.76c-0.37,0.17-1.02,0.37-1.94,0.37
		c-1.77,0-2.85-1.19-2.85-2.93c0-1.75,1.04-3.13,2.73-3.13c1.89,0,2.39,1.67,2.39,2.73c0,0.22-0.01,0.37-0.04,0.49H52.65z
		 M55.74,103.47c0.01-0.67-0.28-1.71-1.45-1.71c-1.08,0-1.54,0.98-1.62,1.71H55.74z"/>
	<path d="M62.2,106.72c-0.28,0.13-0.89,0.34-1.67,0.34c-1.75,0-2.89-1.19-2.89-2.96c0-1.79,1.22-3.09,3.12-3.09
		c0.62,0,1.18,0.16,1.46,0.31l-0.24,0.8c-0.25-0.13-0.65-0.28-1.22-0.28c-1.33,0-2.05,1-2.05,2.19c0,1.34,0.86,2.17,2.02,2.17
		c0.6,0,1-0.14,1.3-0.28L62.2,106.72z"/>
	<path d="M64.87,99.74v1.39h1.51v0.8h-1.51v3.12c0,0.72,0.2,1.13,0.79,1.13c0.29,0,0.46-0.02,0.61-0.07l0.05,0.8
		c-0.2,0.07-0.53,0.14-0.94,0.14c-0.49,0-0.89-0.17-1.14-0.44c-0.29-0.32-0.41-0.84-0.41-1.52v-3.15h-0.9v-0.8h0.9v-1.07
		L64.87,99.74z"/>
	<path d="M67.57,102.94c0-0.68-0.01-1.27-0.05-1.81h0.92l0.05,1.14h0.04c0.26-0.78,0.91-1.27,1.62-1.27c0.11,0,0.19,0.01,0.29,0.02
		v1c-0.11-0.01-0.22-0.02-0.36-0.02c-0.74,0-1.27,0.56-1.42,1.34c-0.02,0.16-0.04,0.32-0.04,0.49v3.11h-1.06V102.94z"/>
	<path d="M75.52,105.55c0,0.5,0.02,1,0.08,1.39h-0.95l-0.1-0.73h-0.04c-0.31,0.46-0.95,0.86-1.77,0.86c-1.18,0-1.77-0.83-1.77-1.67
		c0-1.4,1.25-2.17,3.49-2.16v-0.12c0-0.48-0.13-1.35-1.32-1.34c-0.55,0-1.12,0.16-1.52,0.43l-0.24-0.71c0.48-0.3,1.19-0.5,1.92-0.5
		c1.79,0,2.22,1.21,2.22,2.37V105.55z M74.49,103.97c-1.15-0.02-2.46,0.18-2.46,1.31c0,0.7,0.46,1.01,0.98,1.01
		c0.77,0,1.26-0.48,1.43-0.97c0.04-0.11,0.05-0.23,0.05-0.34V103.97z"/>
	<path d="M77.22,98.42h1.06v8.52h-1.06V98.42z"/>
	<path d="M85.17,107.84v0.6h-6v-0.6H85.17z"/>
	<path d="M86.05,103.03c0-0.74-0.01-1.34-0.05-1.9h0.95l0.06,1h0.02c0.42-0.72,1.12-1.13,2.05-1.13c1.42,0,2.47,1.19,2.47,2.95
		c0,2.09-1.28,3.12-2.64,3.12c-0.78,0-1.44-0.34-1.79-0.91h-0.02v3.15h-1.06V103.03z M87.11,104.57c0,0.14,0.01,0.3,0.05,0.43
		c0.18,0.73,0.83,1.24,1.57,1.24c1.12,0,1.76-0.91,1.76-2.24c0-1.16-0.6-2.16-1.71-2.16c-0.72,0-1.4,0.5-1.61,1.31
		c-0.02,0.13-0.06,0.29-0.06,0.42V104.57z"/>
	<path d="M95.24,107.07c-1.56,0-2.78-1.15-2.78-2.99c0-1.94,1.28-3.08,2.88-3.08c1.67,0,2.79,1.21,2.79,2.97
		c0,2.16-1.5,3.09-2.88,3.09H95.24z M95.29,106.28c1.01,0,1.76-0.95,1.76-2.27c0-0.98-0.49-2.22-1.74-2.22
		c-1.24,0-1.77,1.15-1.77,2.25c0,1.27,0.72,2.23,1.74,2.23H95.29z"/>
	<path d="M99.47,98.42h1.06v8.52h-1.06V98.42z"/>
	<path d="M106.39,105.55c0,0.5,0.02,1,0.08,1.39h-0.95l-0.1-0.73h-0.04c-0.31,0.46-0.95,0.86-1.77,0.86c-1.18,0-1.77-0.83-1.77-1.67
		c0-1.4,1.25-2.17,3.49-2.16v-0.12c0-0.48-0.13-1.35-1.32-1.34c-0.55,0-1.12,0.16-1.52,0.43l-0.24-0.71c0.48-0.3,1.19-0.5,1.92-0.5
		c1.79,0,2.22,1.21,2.22,2.37V105.55z M105.36,103.97c-1.15-0.02-2.46,0.18-2.46,1.31c0,0.7,0.46,1.01,0.98,1.01
		c0.77,0,1.26-0.48,1.43-0.97c0.04-0.11,0.05-0.23,0.05-0.34V103.97z"/>
	<path d="M108.08,102.94c0-0.68-0.01-1.27-0.05-1.81h0.92l0.05,1.14h0.04c0.26-0.78,0.91-1.27,1.62-1.27c0.11,0,0.19,0.01,0.29,0.02
		v1c-0.11-0.01-0.22-0.02-0.36-0.02c-0.74,0-1.27,0.56-1.42,1.34c-0.02,0.16-0.04,0.32-0.04,0.49v3.11h-1.06V102.94z"/>
	<path d="M112.56,100.15c-0.38,0-0.64-0.3-0.64-0.65c0-0.37,0.26-0.66,0.66-0.66c0.38,0,0.65,0.29,0.65,0.66
		c0,0.35-0.25,0.65-0.66,0.65H112.56z M112.05,106.94v-5.8h1.06v5.8H112.05z"/>
	<path d="M114.2,106.33l2.63-3.42c0.26-0.32,0.49-0.6,0.77-0.91v-0.02h-3.15v-0.84h4.43v0.66l-2.6,3.38
		c-0.24,0.31-0.48,0.61-0.74,0.9v0.02h3.39v0.84h-4.71V106.33z"/>
	<path d="M120.51,104.23c0.02,1.42,0.92,2,1.98,2c0.76,0,1.22-0.13,1.61-0.3l0.19,0.76c-0.37,0.17-1.02,0.37-1.94,0.37
		c-1.77,0-2.85-1.19-2.85-2.93c0-1.75,1.04-3.13,2.73-3.13c1.89,0,2.39,1.67,2.39,2.73c0,0.22-0.01,0.37-0.04,0.49H120.51z
		 M123.6,103.47c0.01-0.67-0.28-1.71-1.45-1.71c-1.08,0-1.54,0.98-1.62,1.71H123.6z"/>
	<path d="M130.94,98.42v7.02c0,0.52,0.01,1.1,0.05,1.5h-0.95l-0.05-1.01h-0.02c-0.32,0.65-1.02,1.14-1.97,1.14
		c-1.4,0-2.49-1.19-2.49-2.95c-0.01-1.94,1.2-3.12,2.6-3.12c0.9,0,1.5,0.42,1.75,0.88h0.02v-3.45H130.94z M129.88,103.49
		c0-0.14-0.01-0.31-0.05-0.46c-0.16-0.66-0.73-1.21-1.52-1.21c-1.09,0-1.74,0.96-1.74,2.23c0,1.19,0.59,2.16,1.72,2.16
		c0.71,0,1.35-0.48,1.55-1.27c0.04-0.13,0.05-0.28,0.05-0.44V103.49z"/>
	<path d="M137.81,107.84v0.6h-6v-0.6H137.81z"/>
	<path d="M143.71,98.42v7.02c0,0.52,0.01,1.1,0.05,1.5h-0.95l-0.05-1.01h-0.02c-0.32,0.65-1.02,1.14-1.97,1.14
		c-1.4,0-2.49-1.19-2.49-2.95c-0.01-1.94,1.2-3.12,2.6-3.12c0.9,0,1.5,0.42,1.75,0.88h0.02v-3.45H143.71z M142.65,103.49
		c0-0.14-0.01-0.31-0.05-0.46c-0.16-0.66-0.73-1.21-1.52-1.21c-1.09,0-1.74,0.96-1.74,2.23c0,1.19,0.59,2.16,1.72,2.16
		c0.71,0,1.35-0.48,1.55-1.27c0.04-0.13,0.05-0.28,0.05-0.44V103.49z"/>
	<path d="M147.82,107.07c-1.56,0-2.78-1.15-2.78-2.99c0-1.94,1.28-3.08,2.88-3.08c1.67,0,2.79,1.21,2.79,2.97
		c0,2.16-1.5,3.09-2.88,3.09H147.82z M147.87,106.28c1.01,0,1.76-0.95,1.76-2.27c0-0.98-0.49-2.22-1.74-2.22
		c-1.24,0-1.77,1.15-1.77,2.25c0,1.27,0.72,2.23,1.74,2.23H147.87z"/>
	<path d="M156.91,105.34c0,0.61,0.01,1.14,0.05,1.6h-0.94l-0.06-0.95h-0.02c-0.26,0.47-0.89,1.08-1.92,1.08c-0.91,0-2-0.52-2-2.54
		v-3.39h1.06v3.2c0,1.1,0.35,1.86,1.3,1.86c0.71,0,1.2-0.49,1.39-0.97c0.06-0.14,0.1-0.34,0.1-0.54v-3.55h1.06V105.34z"/>
	<path d="M158.66,98.42h1.06v3.63h0.02c0.37-0.65,1.04-1.06,1.98-1.06c1.44,0,2.45,1.2,2.45,2.95c0,2.09-1.32,3.12-2.61,3.12
		c-0.84,0-1.5-0.32-1.94-1.09h-0.02l-0.06,0.96h-0.91c0.04-0.4,0.05-0.98,0.05-1.5V98.42z M159.72,104.61
		c0,0.13,0.01,0.26,0.04,0.38c0.2,0.73,0.83,1.24,1.58,1.24c1.12,0,1.76-0.9,1.76-2.23c0-1.18-0.6-2.17-1.73-2.17
		c-0.72,0-1.39,0.5-1.6,1.3c-0.04,0.13-0.06,0.28-0.06,0.44V104.61z"/>
	<path d="M165.49,98.42h1.06v8.52h-1.06V98.42z"/>
	<path d="M168.92,104.23c0.02,1.42,0.92,2,1.98,2c0.76,0,1.22-0.13,1.61-0.3l0.19,0.76c-0.37,0.17-1.02,0.37-1.94,0.37
		c-1.77,0-2.85-1.19-2.85-2.93c0-1.75,1.04-3.13,2.73-3.13c1.89,0,2.39,1.67,2.39,2.73c0,0.22-0.01,0.37-0.04,0.49H168.92z
		 M172,103.47c0.01-0.67-0.28-1.71-1.45-1.71c-1.08,0-1.54,0.98-1.62,1.71H172z"/>
</g>
<g>
	<line class="st0" x1="0.43" y1="90.05" x2="33.43" y2="90.05"/>
	<line class="st1" x1="40.43" y1="90.05" x2="78.43" y2="90.05"/>
	<line class="st2" x1="86.43" y1="90.05" x2="131.43" y2="90.05"/>
	<line class="st3" x1="139.43" y1="90.05" x2="172.43" y2="90.05"/>
	<polyline class="st4" points="17.43,90.05 17.43,11.55 181.43,11.55 	"/>
	<polyline class="st5" points="59.43,89.05 59.43,29.05 181.43,29.05 	"/>
	<polyline class="st6" points="109.43,87.05 109.43,47.05 181.43,47.05 	"/>
	<polyline class="st7" points="155.43,90.05 155.43,65.05 181.43,65.05 	"/>
</g>
<g>
	<path d="M187.67,61.35c0.5-0.1,1.16-0.17,2-0.17c1.03,0,1.79,0.24,2.27,0.67c0.44,0.38,0.72,0.97,0.72,1.68
		c0,0.73-0.22,1.31-0.64,1.73c-0.55,0.59-1.45,0.89-2.47,0.89c-0.31,0-0.6-0.01-0.84-0.07v3.25h-1.04V61.35z M188.71,65.22
		c0.23,0.06,0.52,0.08,0.86,0.08c1.26,0,2.03-0.61,2.03-1.72c0-1.07-0.76-1.58-1.91-1.58c-0.46,0-0.8,0.04-0.98,0.08V65.22z"/>
	<path d="M193.82,65.33c0-0.68-0.01-1.27-0.05-1.81h0.92l0.05,1.14h0.04c0.26-0.78,0.91-1.27,1.62-1.27c0.11,0,0.19,0.01,0.29,0.02
		v1c-0.11-0.01-0.22-0.02-0.36-0.02c-0.74,0-1.27,0.56-1.42,1.34c-0.02,0.16-0.04,0.32-0.04,0.49v3.11h-1.06V65.33z"/>
	<path d="M198.23,66.61c0.02,1.42,0.92,2,1.98,2c0.76,0,1.22-0.13,1.61-0.3l0.19,0.76c-0.37,0.17-1.02,0.37-1.94,0.37
		c-1.77,0-2.85-1.19-2.85-2.93c0-1.75,1.04-3.13,2.73-3.13c1.89,0,2.39,1.67,2.39,2.73c0,0.22-0.01,0.37-0.04,0.49H198.23z
		 M201.31,65.86c0.01-0.67-0.28-1.71-1.45-1.71c-1.08,0-1.54,0.98-1.62,1.71H201.31z"/>
	<path d="M207.78,69.11c-0.28,0.13-0.89,0.34-1.67,0.34c-1.75,0-2.89-1.19-2.89-2.96c0-1.79,1.22-3.09,3.12-3.09
		c0.62,0,1.18,0.16,1.46,0.31l-0.24,0.8c-0.25-0.13-0.65-0.28-1.22-0.28c-1.33,0-2.05,1-2.05,2.19c0,1.34,0.86,2.17,2.02,2.17
		c0.6,0,1-0.14,1.3-0.28L207.78,69.11z"/>
	<path d="M209.52,62.53c-0.38,0-0.64-0.3-0.64-0.65c0-0.37,0.26-0.66,0.66-0.66c0.38,0,0.65,0.29,0.65,0.66
		c0,0.35-0.25,0.65-0.66,0.65H209.52z M209.02,69.32v-5.8h1.06v5.8H209.02z"/>
	<path d="M211.68,68.24c0.32,0.19,0.88,0.41,1.4,0.41c0.76,0,1.12-0.37,1.12-0.86c0-0.5-0.3-0.77-1.07-1.06
		c-1.06-0.38-1.55-0.96-1.55-1.64c0-0.94,0.77-1.7,2-1.7c0.59,0,1.1,0.16,1.42,0.36l-0.25,0.76c-0.23-0.13-0.65-0.34-1.19-0.34
		c-0.62,0-0.96,0.36-0.96,0.79c0,0.48,0.34,0.7,1.09,1c1,0.37,1.52,0.88,1.52,1.74c0,1.03-0.8,1.75-2.16,1.75
		c-0.64,0-1.22-0.17-1.63-0.41L211.68,68.24z"/>
	<path d="M217.08,62.53c-0.38,0-0.64-0.3-0.64-0.65c0-0.37,0.26-0.66,0.66-0.66c0.38,0,0.65,0.29,0.65,0.66
		c0,0.35-0.25,0.65-0.66,0.65H217.08z M216.58,69.32v-5.8h1.06v5.8H216.58z"/>
	<path d="M221.75,69.45c-1.56,0-2.78-1.15-2.78-2.99c0-1.94,1.28-3.08,2.88-3.08c1.67,0,2.79,1.21,2.79,2.97
		c0,2.16-1.5,3.09-2.88,3.09H221.75z M221.79,68.66c1.01,0,1.76-0.95,1.76-2.27c0-0.98-0.49-2.22-1.74-2.22
		c-1.24,0-1.77,1.15-1.77,2.25c0,1.27,0.72,2.23,1.74,2.23H221.79z"/>
	<path d="M225.97,65.09c0-0.61-0.01-1.09-0.05-1.57h0.94l0.06,0.95h0.02c0.29-0.54,0.96-1.08,1.92-1.08c0.8,0,2.05,0.48,2.05,2.47
		v3.47h-1.06v-3.35c0-0.94-0.35-1.73-1.34-1.73c-0.68,0-1.22,0.49-1.42,1.08c-0.05,0.13-0.07,0.32-0.07,0.49v3.5h-1.06V65.09z"/>
	<path d="M235.03,68.24c0.32,0.19,0.88,0.41,1.4,0.41c0.76,0,1.12-0.37,1.12-0.86c0-0.5-0.3-0.77-1.07-1.06
		c-1.06-0.38-1.55-0.96-1.55-1.64c0-0.94,0.77-1.7,2-1.7c0.59,0,1.1,0.16,1.42,0.36l-0.25,0.76c-0.23-0.13-0.65-0.34-1.19-0.34
		c-0.62,0-0.96,0.36-0.96,0.79c0,0.48,0.34,0.7,1.09,1c1,0.37,1.52,0.88,1.52,1.74c0,1.03-0.8,1.75-2.16,1.75
		c-0.64,0-1.22-0.17-1.63-0.41L235.03,68.24z"/>
	<path d="M239.93,65.41c0-0.74-0.01-1.34-0.05-1.9h0.95l0.06,1h0.02c0.42-0.72,1.12-1.13,2.05-1.13c1.42,0,2.47,1.19,2.47,2.95
		c0,2.09-1.28,3.12-2.64,3.12c-0.78,0-1.44-0.34-1.79-0.91h-0.02v3.15h-1.06V65.41z M240.98,66.96c0,0.14,0.01,0.3,0.05,0.43
		c0.18,0.73,0.83,1.24,1.57,1.24c1.12,0,1.76-0.91,1.76-2.24c0-1.16-0.6-2.16-1.71-2.16c-0.72,0-1.4,0.5-1.61,1.31
		c-0.02,0.13-0.06,0.29-0.06,0.42V66.96z"/>
	<path d="M247.35,66.61c0.02,1.42,0.92,2,1.98,2c0.76,0,1.22-0.13,1.61-0.3l0.19,0.76c-0.37,0.17-1.02,0.37-1.94,0.37
		c-1.77,0-2.85-1.19-2.85-2.93c0-1.75,1.04-3.13,2.73-3.13c1.89,0,2.39,1.67,2.39,2.73c0,0.22-0.01,0.37-0.04,0.49H247.35z
		 M250.44,65.86c0.01-0.67-0.28-1.71-1.45-1.71c-1.08,0-1.54,0.98-1.62,1.71H250.44z"/>
	<path d="M256.9,69.11c-0.28,0.13-0.89,0.34-1.67,0.34c-1.75,0-2.89-1.19-2.89-2.96c0-1.79,1.22-3.09,3.12-3.09
		c0.62,0,1.18,0.16,1.46,0.31l-0.24,0.8c-0.25-0.13-0.65-0.28-1.22-0.28c-1.33,0-2.05,1-2.05,2.19c0,1.34,0.86,2.17,2.02,2.17
		c0.6,0,1-0.14,1.3-0.28L256.9,69.11z"/>
	<path d="M258.65,62.53c-0.38,0-0.64-0.3-0.64-0.65c0-0.37,0.26-0.66,0.66-0.66c0.38,0,0.65,0.29,0.65,0.66
		c0,0.35-0.25,0.65-0.66,0.65H258.65z M258.14,69.32v-5.8h1.06v5.8H258.14z"/>
	<path d="M261.05,69.32v-5h-0.8v-0.8h0.8v-0.32c0-1.52,0.91-2.52,2.54-2.52c0.54,0,1.18,0.17,1.48,0.38l-0.3,0.8
		c-0.26-0.18-0.71-0.34-1.22-0.34c-1.12,0-1.45,0.78-1.45,1.7v0.29h3.38v5.8h-1.06v-5h-2.31v5H261.05z"/>
	<path d="M267.83,66.61c0.02,1.42,0.92,2,1.98,2c0.76,0,1.22-0.13,1.61-0.3l0.19,0.76c-0.37,0.17-1.02,0.37-1.94,0.37
		c-1.77,0-2.85-1.19-2.85-2.93c0-1.75,1.04-3.13,2.73-3.13c1.9,0,2.39,1.67,2.39,2.73c0,0.22-0.01,0.37-0.04,0.49H267.83z
		 M270.91,65.86c0.01-0.67-0.28-1.71-1.45-1.71c-1.08,0-1.54,0.98-1.62,1.71H270.91z"/>
	<path d="M273.24,65.33c0-0.68-0.01-1.27-0.05-1.81h0.92l0.05,1.14h0.04c0.26-0.78,0.91-1.27,1.62-1.27c0.11,0,0.19,0.01,0.29,0.02
		v1c-0.11-0.01-0.22-0.02-0.36-0.02c-0.74,0-1.27,0.56-1.42,1.34c-0.02,0.16-0.04,0.32-0.04,0.49v3.11h-1.06V65.33z"/>
	<path d="M281.99,61c-0.88,1.19-1.5,2.73-1.5,4.92c0,2.13,0.66,3.66,1.5,4.86h-0.82c-0.76-1-1.57-2.53-1.57-4.87
		c0.01-2.35,0.82-3.9,1.57-4.91H281.99z"/>
	<path d="M285.48,69.45c-1.56,0-2.78-1.15-2.78-2.99c0-1.94,1.28-3.08,2.88-3.08c1.67,0,2.79,1.21,2.79,2.97
		c0,2.16-1.5,3.09-2.88,3.09H285.48z M285.53,68.66c1.01,0,1.76-0.95,1.76-2.27c0-0.98-0.49-2.22-1.74-2.22
		c-1.24,0-1.77,1.15-1.77,2.25c0,1.27,0.72,2.23,1.74,2.23H285.53z"/>
	<path d="M289.7,65.41c0-0.74-0.01-1.34-0.05-1.9h0.95l0.06,1h0.02c0.42-0.72,1.12-1.13,2.05-1.13c1.42,0,2.47,1.19,2.47,2.95
		c0,2.09-1.28,3.12-2.64,3.12c-0.78,0-1.44-0.34-1.79-0.91h-0.02v3.15h-1.06V65.41z M290.76,66.96c0,0.14,0.01,0.3,0.05,0.43
		c0.18,0.73,0.83,1.24,1.57,1.24c1.12,0,1.76-0.91,1.76-2.24c0-1.16-0.6-2.16-1.71-2.16c-0.72,0-1.4,0.5-1.61,1.31
		c-0.02,0.13-0.06,0.29-0.06,0.42V66.96z"/>
	<path d="M297.8,62.13v1.39h1.51v0.8h-1.51v3.12c0,0.72,0.2,1.13,0.79,1.13c0.29,0,0.46-0.02,0.61-0.07l0.05,0.8
		c-0.2,0.07-0.53,0.14-0.94,0.14c-0.49,0-0.89-0.17-1.14-0.44c-0.29-0.32-0.41-0.84-0.41-1.52v-3.15h-0.9v-0.8h0.9v-1.07
		L297.8,62.13z"/>
	<path d="M301.01,62.53c-0.38,0-0.64-0.3-0.64-0.65c0-0.37,0.26-0.66,0.66-0.66c0.38,0,0.65,0.29,0.65,0.66
		c0,0.35-0.25,0.65-0.66,0.65H301.01z M300.5,69.32v-5.8h1.06v5.8H300.5z"/>
	<path d="M305.67,69.45c-1.56,0-2.78-1.15-2.78-2.99c0-1.94,1.28-3.08,2.88-3.08c1.67,0,2.79,1.21,2.79,2.97
		c0,2.16-1.5,3.09-2.88,3.09H305.67z M305.72,68.66c1.01,0,1.76-0.95,1.76-2.27c0-0.98-0.49-2.22-1.74-2.22
		c-1.24,0-1.77,1.15-1.77,2.25c0,1.27,0.72,2.23,1.74,2.23H305.72z"/>
	<path d="M309.9,65.09c0-0.61-0.01-1.09-0.05-1.57h0.94l0.06,0.95h0.02c0.29-0.54,0.96-1.08,1.92-1.08c0.8,0,2.05,0.48,2.05,2.47
		v3.47h-1.06v-3.35c0-0.94-0.35-1.73-1.34-1.73c-0.68,0-1.22,0.49-1.42,1.08c-0.05,0.13-0.07,0.32-0.07,0.49v3.5h-1.06V65.09z"/>
	<path d="M320.65,67.93c0,0.5,0.02,1,0.08,1.39h-0.95l-0.1-0.73h-0.04c-0.31,0.46-0.95,0.86-1.77,0.86c-1.18,0-1.77-0.83-1.77-1.67
		c0-1.4,1.25-2.17,3.49-2.16v-0.12c0-0.48-0.13-1.35-1.32-1.34c-0.55,0-1.12,0.16-1.52,0.43l-0.24-0.71c0.48-0.3,1.19-0.5,1.92-0.5
		c1.79,0,2.22,1.21,2.22,2.37V67.93z M319.62,66.36c-1.15-0.02-2.46,0.18-2.46,1.31c0,0.7,0.46,1.01,0.98,1.01
		c0.77,0,1.26-0.48,1.43-0.97c0.04-0.11,0.05-0.23,0.05-0.34V66.36z"/>
	<path d="M322.34,60.81h1.06v8.52h-1.06V60.81z"/>
	<path d="M324.54,70.77c0.84-1.19,1.5-2.73,1.5-4.89c0-2.16-0.65-3.68-1.5-4.88h0.82c0.76,0.98,1.57,2.53,1.57,4.88
		c-0.01,2.35-0.82,3.87-1.57,4.89H324.54z"/>
</g>
<g>
	<path d="M188.98,48.78l-0.84,2.54h-1.08l2.75-8.08h1.26l2.76,8.08h-1.12l-0.86-2.54H188.98z M191.63,47.96l-0.8-2.33
		c-0.17-0.53-0.29-1.01-0.41-1.48h-0.04c-0.11,0.47-0.24,0.97-0.4,1.46l-0.79,2.34H191.63z"/>
	<path d="M198.97,51.11c-0.28,0.13-0.89,0.34-1.67,0.34c-1.75,0-2.89-1.19-2.89-2.96c0-1.79,1.22-3.09,3.12-3.09
		c0.62,0,1.18,0.16,1.46,0.31l-0.24,0.8c-0.25-0.13-0.65-0.28-1.22-0.28c-1.33,0-2.05,1-2.05,2.19c0,1.34,0.86,2.17,2.02,2.17
		c0.6,0,1-0.14,1.3-0.28L198.97,51.11z"/>
	<path d="M204.27,51.11c-0.28,0.13-0.89,0.34-1.67,0.34c-1.75,0-2.89-1.19-2.89-2.96c0-1.79,1.22-3.09,3.12-3.09
		c0.62,0,1.18,0.16,1.46,0.31l-0.24,0.8c-0.25-0.13-0.65-0.28-1.22-0.28c-1.33,0-2.05,1-2.05,2.19c0,1.34,0.86,2.17,2.02,2.17
		c0.6,0,1-0.14,1.3-0.28L204.27,51.11z"/>
	<path d="M207.8,51.45c-1.56,0-2.78-1.15-2.78-2.99c0-1.94,1.28-3.08,2.88-3.08c1.67,0,2.79,1.21,2.79,2.97
		c0,2.16-1.5,3.09-2.88,3.09H207.8z M207.85,50.66c1.01,0,1.76-0.95,1.76-2.27c0-0.98-0.49-2.22-1.74-2.22
		c-1.24,0-1.77,1.15-1.77,2.25c0,1.27,0.72,2.23,1.74,2.23H207.85z"/>
	<path d="M216.89,49.73c0,0.61,0.01,1.14,0.05,1.6H216l-0.06-0.95h-0.02c-0.26,0.47-0.89,1.08-1.92,1.08c-0.91,0-2-0.52-2-2.54
		v-3.39h1.06v3.2c0,1.1,0.35,1.86,1.3,1.86c0.71,0,1.2-0.49,1.39-0.97c0.06-0.14,0.1-0.34,0.1-0.54v-3.55h1.06V49.73z"/>
	<path d="M218.64,47.09c0-0.61-0.01-1.09-0.05-1.57h0.94l0.06,0.95h0.02c0.29-0.54,0.96-1.08,1.92-1.08c0.8,0,2.05,0.48,2.05,2.47
		v3.47h-1.06v-3.35c0-0.94-0.35-1.73-1.34-1.73c-0.68,0-1.22,0.49-1.42,1.08c-0.05,0.13-0.07,0.32-0.07,0.49v3.5h-1.06V47.09z"/>
	<path d="M226.52,44.13v1.39h1.51v0.8h-1.51v3.12c0,0.72,0.2,1.13,0.79,1.13c0.29,0,0.46-0.02,0.61-0.07l0.05,0.8
		c-0.2,0.07-0.53,0.14-0.94,0.14c-0.49,0-0.89-0.17-1.14-0.44c-0.29-0.32-0.41-0.84-0.41-1.52v-3.15h-0.9v-0.8h0.9v-1.07
		L226.52,44.13z"/>
	<path d="M231.86,51.32v-5h-0.8v-0.8h0.8v-0.28c0-0.82,0.19-1.56,0.68-2.03c0.4-0.38,0.92-0.54,1.4-0.54c0.38,0,0.7,0.08,0.9,0.17
		l-0.13,0.82c-0.17-0.07-0.37-0.13-0.68-0.13c-0.89,0-1.13,0.79-1.13,1.68v0.31h1.4v0.8h-1.39v5H231.86z"/>
	<path d="M237.48,51.45c-1.56,0-2.78-1.15-2.78-2.99c0-1.94,1.28-3.08,2.88-3.08c1.67,0,2.79,1.21,2.79,2.97
		c0,2.16-1.5,3.09-2.88,3.09H237.48z M237.53,50.66c1.01,0,1.76-0.95,1.76-2.27c0-0.98-0.49-2.22-1.74-2.22
		c-1.24,0-1.77,1.15-1.77,2.25c0,1.27,0.72,2.23,1.74,2.23H237.53z"/>
	<path d="M241.7,47.33c0-0.68-0.01-1.27-0.05-1.81h0.92l0.05,1.14h0.04c0.26-0.78,0.91-1.27,1.62-1.27c0.11,0,0.19,0.01,0.29,0.02v1
		c-0.11-0.01-0.22-0.02-0.36-0.02c-0.74,0-1.27,0.56-1.42,1.34c-0.02,0.16-0.04,0.32-0.04,0.49v3.11h-1.06V47.33z"/>
	<path d="M248.17,47.41c0-0.74-0.01-1.34-0.05-1.9h0.95l0.06,1h0.02c0.42-0.72,1.12-1.13,2.05-1.13c1.42,0,2.47,1.19,2.47,2.95
		c0,2.09-1.28,3.12-2.64,3.12c-0.78,0-1.44-0.34-1.79-0.91h-0.02v3.15h-1.06V47.41z M249.23,48.96c0,0.14,0.01,0.3,0.05,0.43
		c0.18,0.73,0.83,1.24,1.57,1.24c1.12,0,1.76-0.91,1.76-2.24c0-1.16-0.6-2.16-1.71-2.16c-0.72,0-1.4,0.5-1.61,1.31
		c-0.02,0.13-0.06,0.29-0.06,0.42V48.96z"/>
	<path d="M257.36,51.45c-1.56,0-2.78-1.15-2.78-2.99c0-1.94,1.28-3.08,2.88-3.08c1.67,0,2.79,1.21,2.79,2.97
		c0,2.16-1.5,3.09-2.88,3.09H257.36z M257.41,50.66c1.01,0,1.76-0.95,1.76-2.27c0-0.98-0.49-2.22-1.74-2.22
		c-1.24,0-1.77,1.15-1.77,2.25c0,1.27,0.72,2.23,1.74,2.23H257.41z"/>
	<path d="M261.59,42.81h1.06v8.52h-1.06V42.81z"/>
	<path d="M268.51,49.93c0,0.5,0.02,1,0.08,1.39h-0.95l-0.1-0.73h-0.04c-0.31,0.46-0.95,0.86-1.77,0.86c-1.18,0-1.77-0.83-1.77-1.67
		c0-1.4,1.25-2.17,3.49-2.16v-0.12c0-0.48-0.13-1.35-1.32-1.34c-0.55,0-1.12,0.16-1.52,0.43l-0.24-0.71c0.48-0.3,1.19-0.5,1.92-0.5
		c1.79,0,2.22,1.21,2.22,2.37V49.93z M267.48,48.36c-1.15-0.02-2.46,0.18-2.46,1.31c0,0.7,0.46,1.01,0.98,1.01
		c0.77,0,1.26-0.48,1.43-0.97c0.04-0.11,0.05-0.23,0.05-0.34V48.36z"/>
	<path d="M270.2,47.33c0-0.68-0.01-1.27-0.05-1.81h0.92l0.05,1.14h0.04c0.26-0.78,0.91-1.27,1.62-1.27c0.11,0,0.19,0.01,0.29,0.02v1
		c-0.11-0.01-0.22-0.02-0.36-0.02c-0.74,0-1.27,0.56-1.42,1.34c-0.02,0.16-0.04,0.32-0.04,0.49v3.11h-1.06V47.33z"/>
	<path d="M274.68,44.53c-0.38,0-0.64-0.3-0.64-0.65c0-0.37,0.26-0.66,0.66-0.66c0.38,0,0.65,0.29,0.65,0.66
		c0,0.35-0.25,0.65-0.66,0.65H274.68z M274.17,51.32v-5.8h1.06v5.8H274.17z"/>
	<path d="M276.32,50.71l2.63-3.42c0.26-0.32,0.49-0.6,0.77-0.91v-0.02h-3.15v-0.84h4.43v0.66l-2.6,3.38
		c-0.24,0.31-0.48,0.61-0.74,0.9v0.02h3.39v0.84h-4.71V50.71z"/>
	<path d="M286.21,49.93c0,0.5,0.02,1,0.08,1.39h-0.95l-0.1-0.73h-0.04c-0.31,0.46-0.95,0.86-1.77,0.86c-1.18,0-1.77-0.83-1.77-1.67
		c0-1.4,1.25-2.17,3.49-2.16v-0.12c0-0.48-0.13-1.35-1.32-1.34c-0.55,0-1.12,0.16-1.52,0.43l-0.24-0.71c0.48-0.3,1.19-0.5,1.92-0.5
		c1.79,0,2.22,1.21,2.22,2.37V49.93z M285.18,48.36c-1.15-0.02-2.46,0.18-2.46,1.31c0,0.7,0.46,1.01,0.98,1.01
		c0.77,0,1.26-0.48,1.43-0.97c0.04-0.11,0.05-0.23,0.05-0.34V48.36z"/>
	<path d="M289.13,44.13v1.39h1.51v0.8h-1.51v3.12c0,0.72,0.2,1.13,0.79,1.13c0.29,0,0.46-0.02,0.61-0.07l0.05,0.8
		c-0.2,0.07-0.53,0.14-0.94,0.14c-0.49,0-0.89-0.17-1.14-0.44c-0.29-0.32-0.41-0.84-0.41-1.52v-3.15h-0.9v-0.8h0.9v-1.07
		L289.13,44.13z"/>
	<path d="M292.33,44.53c-0.38,0-0.64-0.3-0.64-0.65c0-0.37,0.26-0.66,0.66-0.66c0.38,0,0.65,0.29,0.65,0.66
		c0,0.35-0.25,0.65-0.66,0.65H292.33z M291.83,51.32v-5.8h1.06v5.8H291.83z"/>
	<path d="M297,51.45c-1.56,0-2.78-1.15-2.78-2.99c0-1.94,1.28-3.08,2.88-3.08c1.67,0,2.79,1.21,2.79,2.97c0,2.16-1.5,3.09-2.88,3.09
		H297z M297.05,50.66c1.01,0,1.76-0.95,1.76-2.27c0-0.98-0.49-2.22-1.74-2.22c-1.24,0-1.77,1.15-1.77,2.25
		c0,1.27,0.72,2.23,1.74,2.23H297.05z"/>
	<path d="M301.22,47.09c0-0.61-0.01-1.09-0.05-1.57h0.94l0.06,0.95h0.02c0.29-0.54,0.96-1.08,1.92-1.08c0.8,0,2.05,0.48,2.05,2.47
		v3.47h-1.06v-3.35c0-0.94-0.35-1.73-1.34-1.73c-0.68,0-1.22,0.49-1.42,1.08c-0.05,0.13-0.07,0.32-0.07,0.49v3.5h-1.06V47.09z"/>
	<path d="M308.7,49.02l-0.02-0.3c-0.07-0.65,0.14-1.36,0.74-2.07c0.54-0.65,0.84-1.1,0.84-1.64c0-0.61-0.38-1.03-1.14-1.03
		c-0.43,0-0.91,0.13-1.21,0.37l-0.29-0.76c0.4-0.3,1.08-0.49,1.71-0.49c1.38,0,2,0.86,2,1.77c0,0.8-0.46,1.4-1.03,2.08
		c-0.53,0.64-0.72,1.16-0.68,1.77l0.01,0.3H308.7z M309.14,51.45c-0.41,0-0.7-0.32-0.7-0.74c0-0.44,0.3-0.76,0.71-0.76
		c0.43,0,0.71,0.31,0.71,0.76c0,0.42-0.28,0.74-0.71,0.74H309.14z"/>
	<path d="M317.58,43c-0.88,1.19-1.5,2.73-1.5,4.92c0,2.13,0.66,3.66,1.5,4.86h-0.82c-0.76-1-1.57-2.53-1.57-4.87
		c0.01-2.35,0.82-3.9,1.57-4.91H317.58z"/>
	<path d="M321.07,51.45c-1.56,0-2.78-1.15-2.78-2.99c0-1.94,1.28-3.08,2.88-3.08c1.67,0,2.79,1.21,2.79,2.97
		c0,2.16-1.5,3.09-2.88,3.09H321.07z M321.12,50.66c1.01,0,1.76-0.95,1.76-2.27c0-0.98-0.49-2.22-1.74-2.22
		c-1.24,0-1.77,1.15-1.77,2.25c0,1.27,0.72,2.23,1.74,2.23H321.12z"/>
	<path d="M325.29,47.41c0-0.74-0.01-1.34-0.05-1.9h0.95l0.06,1h0.02c0.42-0.72,1.12-1.13,2.05-1.13c1.42,0,2.47,1.19,2.47,2.95
		c0,2.09-1.28,3.12-2.64,3.12c-0.78,0-1.44-0.34-1.79-0.91h-0.02v3.15h-1.06V47.41z M326.35,48.96c0,0.14,0.01,0.3,0.05,0.43
		c0.18,0.73,0.83,1.24,1.57,1.24c1.12,0,1.76-0.91,1.76-2.24c0-1.16-0.6-2.16-1.71-2.16c-0.72,0-1.4,0.5-1.61,1.31
		c-0.02,0.13-0.06,0.29-0.06,0.42V48.96z"/>
	<path d="M333.39,44.13v1.39h1.51v0.8h-1.51v3.12c0,0.72,0.2,1.13,0.79,1.13c0.29,0,0.46-0.02,0.61-0.07l0.05,0.8
		c-0.2,0.07-0.53,0.14-0.94,0.14c-0.49,0-0.89-0.17-1.14-0.44c-0.29-0.32-0.41-0.84-0.41-1.52v-3.15h-0.9v-0.8h0.9v-1.07
		L333.39,44.13z"/>
	<path d="M336.6,44.53c-0.38,0-0.63-0.3-0.63-0.65c0-0.37,0.26-0.66,0.66-0.66c0.38,0,0.65,0.29,0.65,0.66
		c0,0.35-0.25,0.65-0.66,0.65H336.6z M336.09,51.32v-5.8h1.06v5.8H336.09z"/>
	<path d="M341.27,51.45c-1.56,0-2.78-1.15-2.78-2.99c0-1.94,1.28-3.08,2.88-3.08c1.67,0,2.79,1.21,2.79,2.97
		c0,2.16-1.5,3.09-2.88,3.09H341.27z M341.31,50.66c1.01,0,1.76-0.95,1.76-2.27c0-0.98-0.49-2.22-1.74-2.22
		c-1.24,0-1.77,1.15-1.77,2.25c0,1.27,0.72,2.23,1.74,2.23H341.31z"/>
	<path d="M345.49,47.09c0-0.61-0.01-1.09-0.05-1.57h0.94l0.06,0.95h0.02c0.29-0.54,0.96-1.08,1.92-1.08c0.8,0,2.05,0.48,2.05,2.47
		v3.47h-1.06v-3.35c0-0.94-0.35-1.73-1.34-1.73c-0.68,0-1.22,0.49-1.42,1.08c-0.05,0.13-0.07,0.32-0.07,0.49v3.5h-1.06V47.09z"/>
	<path d="M356.24,49.93c0,0.5,0.02,1,0.08,1.39h-0.95l-0.1-0.73h-0.04c-0.31,0.46-0.95,0.86-1.77,0.86c-1.17,0-1.77-0.83-1.77-1.67
		c0-1.4,1.25-2.17,3.49-2.16v-0.12c0-0.48-0.13-1.35-1.32-1.34c-0.55,0-1.12,0.16-1.52,0.43l-0.24-0.71c0.48-0.3,1.19-0.5,1.92-0.5
		c1.79,0,2.22,1.21,2.22,2.37V49.93z M355.21,48.36c-1.15-0.02-2.46,0.18-2.46,1.31c0,0.7,0.46,1.01,0.98,1.01
		c0.77,0,1.26-0.48,1.43-0.97c0.04-0.11,0.05-0.23,0.05-0.34V48.36z"/>
	<path d="M357.93,42.81h1.06v8.52h-1.06V42.81z"/>
	<path d="M360.13,52.77c0.84-1.19,1.5-2.73,1.5-4.89c0-2.16-0.65-3.68-1.5-4.88h0.82c0.75,0.98,1.57,2.53,1.57,4.88
		c-0.01,2.35-0.82,3.87-1.57,4.89H360.13z"/>
</g>
<g>
	<path d="M193.3,33.06c-0.37,0.19-1.15,0.38-2.13,0.38c-2.28,0-3.98-1.44-3.98-4.09c0-2.53,1.72-4.23,4.22-4.23
		c1,0,1.64,0.22,1.92,0.35l-0.26,0.86c-0.38-0.19-0.95-0.34-1.62-0.34c-1.9,0-3.15,1.21-3.15,3.32c0,1.98,1.14,3.24,3.09,3.24
		c0.65,0,1.3-0.13,1.72-0.34L193.3,33.06z"/>
	<path d="M196.82,33.45c-1.56,0-2.78-1.15-2.78-2.99c0-1.94,1.28-3.08,2.88-3.08c1.67,0,2.79,1.21,2.79,2.97
		c0,2.16-1.5,3.09-2.88,3.09H196.82z M196.87,32.66c1.01,0,1.76-0.95,1.76-2.27c0-0.98-0.49-2.22-1.74-2.22
		c-1.24,0-1.77,1.15-1.77,2.25c0,1.27,0.72,2.23,1.74,2.23H196.87z"/>
	<path d="M201.05,24.81h1.06v8.52h-1.06V24.81z"/>
	<path d="M206.24,33.45c-1.56,0-2.78-1.15-2.78-2.99c0-1.94,1.28-3.08,2.88-3.08c1.67,0,2.79,1.21,2.79,2.97
		c0,2.16-1.5,3.09-2.88,3.09H206.24z M206.29,32.66c1.01,0,1.76-0.95,1.76-2.27c0-0.98-0.49-2.22-1.74-2.22
		c-1.24,0-1.77,1.15-1.77,2.25c0,1.27,0.72,2.23,1.74,2.23H206.29z"/>
	<path d="M210.47,29.33c0-0.68-0.01-1.27-0.05-1.81h0.92l0.05,1.14h0.04c0.26-0.78,0.91-1.27,1.62-1.27c0.11,0,0.19,0.01,0.29,0.02
		v1c-0.11-0.01-0.22-0.02-0.36-0.02c-0.74,0-1.27,0.56-1.42,1.34c-0.02,0.16-0.04,0.32-0.04,0.49v3.11h-1.06V29.33z"/>
	<path d="M216.94,29.33c0-0.68-0.01-1.27-0.05-1.81h0.92l0.05,1.14h0.04c0.26-0.78,0.91-1.27,1.62-1.27c0.11,0,0.19,0.01,0.29,0.02
		v1c-0.11-0.01-0.22-0.02-0.36-0.02c-0.74,0-1.27,0.56-1.42,1.34c-0.02,0.16-0.04,0.32-0.04,0.49v3.11h-1.06V29.33z"/>
	<path d="M221.34,30.61c0.02,1.42,0.92,2,1.98,2c0.76,0,1.22-0.13,1.61-0.3l0.19,0.76c-0.37,0.17-1.02,0.37-1.94,0.37
		c-1.77,0-2.85-1.19-2.85-2.93c0-1.75,1.04-3.13,2.73-3.13c1.89,0,2.39,1.67,2.39,2.73c0,0.22-0.01,0.37-0.04,0.49H221.34z
		 M224.42,29.86c0.01-0.67-0.28-1.71-1.45-1.71c-1.08,0-1.54,0.98-1.62,1.71H224.42z"/>
	<path d="M226.75,29.41c0-0.74-0.01-1.34-0.05-1.9h0.95l0.06,1h0.02c0.42-0.72,1.12-1.13,2.05-1.13c1.42,0,2.47,1.19,2.47,2.95
		c0,2.09-1.28,3.12-2.64,3.12c-0.78,0-1.44-0.34-1.79-0.91h-0.02v3.15h-1.06V29.41z M227.81,30.96c0,0.14,0.01,0.3,0.05,0.43
		c0.18,0.73,0.83,1.24,1.57,1.24c1.12,0,1.76-0.91,1.76-2.24c0-1.16-0.6-2.16-1.71-2.16c-0.72,0-1.4,0.5-1.61,1.31
		c-0.02,0.13-0.06,0.29-0.06,0.42V30.96z"/>
	<path d="M233.58,29.33c0-0.68-0.01-1.27-0.05-1.81h0.92l0.05,1.14h0.04c0.26-0.78,0.91-1.27,1.62-1.27c0.11,0,0.19,0.01,0.29,0.02
		v1c-0.11-0.01-0.22-0.02-0.36-0.02c-0.74,0-1.27,0.56-1.42,1.34c-0.02,0.16-0.04,0.32-0.04,0.49v3.11h-1.06V29.33z"/>
	<path d="M237.98,30.61c0.02,1.42,0.92,2,1.98,2c0.76,0,1.22-0.13,1.61-0.3l0.19,0.76c-0.37,0.17-1.02,0.37-1.94,0.37
		c-1.77,0-2.85-1.19-2.85-2.93c0-1.75,1.04-3.13,2.73-3.13c1.9,0,2.39,1.67,2.39,2.73c0,0.22-0.01,0.37-0.04,0.49H237.98z
		 M241.07,29.86c0.01-0.67-0.28-1.71-1.45-1.71c-1.08,0-1.54,0.98-1.62,1.71H241.07z"/>
	<path d="M243.25,32.24c0.32,0.19,0.88,0.41,1.4,0.41c0.76,0,1.12-0.37,1.12-0.86c0-0.5-0.3-0.77-1.07-1.06
		c-1.06-0.38-1.55-0.96-1.55-1.64c0-0.94,0.77-1.7,2-1.7c0.59,0,1.1,0.16,1.42,0.36l-0.25,0.76c-0.23-0.13-0.65-0.34-1.19-0.34
		c-0.62,0-0.96,0.36-0.96,0.79c0,0.48,0.34,0.7,1.09,1c1,0.37,1.52,0.88,1.52,1.74c0,1.03-0.8,1.75-2.16,1.75
		c-0.64,0-1.22-0.17-1.63-0.41L243.25,32.24z"/>
	<path d="M248.75,30.61c0.02,1.42,0.92,2,1.98,2c0.76,0,1.22-0.13,1.61-0.3l0.19,0.76c-0.37,0.17-1.02,0.37-1.94,0.37
		c-1.77,0-2.85-1.19-2.85-2.93c0-1.75,1.04-3.13,2.73-3.13c1.9,0,2.39,1.67,2.39,2.73c0,0.22-0.01,0.37-0.04,0.49H248.75z
		 M251.83,29.86c0.01-0.67-0.28-1.71-1.45-1.71c-1.08,0-1.54,0.98-1.62,1.71H251.83z"/>
	<path d="M254.16,29.09c0-0.61-0.01-1.09-0.05-1.57h0.94l0.06,0.95h0.02c0.29-0.54,0.96-1.08,1.92-1.08c0.8,0,2.05,0.48,2.05,2.47
		v3.47h-1.06v-3.35c0-0.94-0.35-1.73-1.34-1.73c-0.68,0-1.22,0.49-1.42,1.08c-0.05,0.13-0.07,0.32-0.07,0.49v3.5h-1.06V29.09z"/>
	<path d="M262.04,26.13v1.39h1.51v0.8h-1.51v3.12c0,0.72,0.2,1.13,0.79,1.13c0.29,0,0.46-0.02,0.61-0.07l0.05,0.8
		c-0.2,0.07-0.53,0.14-0.94,0.14c-0.49,0-0.89-0.17-1.14-0.44c-0.29-0.32-0.41-0.84-0.41-1.52v-3.15h-0.9v-0.8h0.9v-1.07
		L262.04,26.13z"/>
	<path d="M268.83,31.93c0,0.5,0.02,1,0.08,1.39h-0.95l-0.1-0.73h-0.04c-0.31,0.46-0.95,0.86-1.77,0.86c-1.18,0-1.77-0.83-1.77-1.67
		c0-1.4,1.25-2.17,3.49-2.16v-0.12c0-0.48-0.13-1.35-1.32-1.34c-0.55,0-1.12,0.16-1.52,0.43l-0.24-0.71c0.48-0.3,1.19-0.5,1.92-0.5
		c1.79,0,2.22,1.21,2.22,2.37V31.93z M267.8,30.36c-1.15-0.02-2.46,0.18-2.46,1.31c0,0.7,0.46,1.01,0.98,1.01
		c0.77,0,1.26-0.48,1.43-0.97c0.04-0.11,0.05-0.23,0.05-0.34V30.36z"/>
	<path d="M271.75,26.13v1.39h1.51v0.8h-1.51v3.12c0,0.72,0.2,1.13,0.79,1.13c0.29,0,0.46-0.02,0.61-0.07l0.05,0.8
		c-0.2,0.07-0.53,0.14-0.94,0.14c-0.49,0-0.89-0.17-1.14-0.44c-0.29-0.32-0.41-0.84-0.41-1.52v-3.15h-0.9v-0.8h0.9v-1.07
		L271.75,26.13z"/>
	<path d="M274.95,26.53c-0.38,0-0.64-0.3-0.64-0.65c0-0.37,0.26-0.66,0.66-0.66c0.38,0,0.65,0.29,0.65,0.66
		c0,0.35-0.25,0.65-0.66,0.65H274.95z M274.45,33.32v-5.8h1.06v5.8H274.45z"/>
	<path d="M279.62,33.45c-1.56,0-2.78-1.15-2.78-2.99c0-1.94,1.28-3.08,2.88-3.08c1.67,0,2.79,1.21,2.79,2.97
		c0,2.16-1.5,3.09-2.88,3.09H279.62z M279.67,32.66c1.01,0,1.76-0.95,1.76-2.27c0-0.98-0.49-2.22-1.74-2.22
		c-1.24,0-1.77,1.15-1.77,2.25c0,1.27,0.72,2.23,1.74,2.23H279.67z"/>
	<path d="M283.85,29.09c0-0.61-0.01-1.09-0.05-1.57h0.94l0.06,0.95h0.02c0.29-0.54,0.96-1.08,1.92-1.08c0.8,0,2.05,0.48,2.05,2.47
		v3.47h-1.06v-3.35c0-0.94-0.35-1.73-1.34-1.73c-0.68,0-1.22,0.49-1.42,1.08c-0.05,0.13-0.07,0.32-0.07,0.49v3.5h-1.06V29.09z"/>
</g>
<g>
	<path d="M193.3,15.06c-0.37,0.19-1.15,0.38-2.13,0.38c-2.28,0-3.98-1.44-3.98-4.09c0-2.53,1.72-4.23,4.22-4.23
		c1,0,1.64,0.22,1.92,0.35l-0.26,0.86c-0.38-0.19-0.95-0.34-1.62-0.34c-1.9,0-3.15,1.21-3.15,3.32c0,1.98,1.14,3.24,3.09,3.24
		c0.65,0,1.3-0.13,1.72-0.34L193.3,15.06z"/>
	<path d="M196.82,15.45c-1.56,0-2.78-1.15-2.78-2.99c0-1.94,1.28-3.08,2.88-3.08c1.67,0,2.79,1.21,2.79,2.97
		c0,2.16-1.5,3.09-2.88,3.09H196.82z M196.87,14.66c1.01,0,1.76-0.95,1.76-2.27c0-0.98-0.49-2.22-1.74-2.22
		c-1.24,0-1.77,1.15-1.77,2.25c0,1.27,0.72,2.23,1.74,2.23H196.87z"/>
	<path d="M201.05,11.09c0-0.61-0.02-1.09-0.05-1.57h0.92l0.05,0.94h0.04c0.32-0.55,0.86-1.07,1.83-1.07c0.78,0,1.38,0.48,1.63,1.16
		h0.02c0.18-0.34,0.42-0.58,0.66-0.76c0.35-0.26,0.72-0.41,1.27-0.41c0.78,0,1.92,0.5,1.92,2.52v3.42h-1.03v-3.29
		c0-1.13-0.42-1.79-1.26-1.79c-0.61,0-1.07,0.44-1.26,0.95c-0.05,0.16-0.08,0.35-0.08,0.53v3.6h-1.03v-3.49
		c0-0.92-0.41-1.58-1.21-1.58c-0.65,0-1.14,0.53-1.31,1.06c-0.06,0.16-0.08,0.34-0.08,0.52v3.5h-1.03V11.09z"/>
	<path d="M211.06,11.41c0-0.74-0.01-1.34-0.05-1.9h0.95l0.06,1h0.02c0.42-0.72,1.12-1.13,2.05-1.13c1.42,0,2.47,1.19,2.47,2.95
		c0,2.09-1.28,3.12-2.64,3.12c-0.78,0-1.44-0.34-1.79-0.91h-0.02v3.15h-1.06V11.41z M212.11,12.96c0,0.14,0.01,0.3,0.05,0.43
		c0.18,0.73,0.83,1.24,1.57,1.24c1.12,0,1.76-0.91,1.76-2.24c0-1.16-0.6-2.16-1.71-2.16c-0.72,0-1.4,0.5-1.61,1.31
		c-0.02,0.13-0.06,0.29-0.06,0.42V12.96z"/>
	<path d="M222.74,13.73c0,0.61,0.01,1.14,0.05,1.6h-0.94l-0.06-0.95h-0.02c-0.26,0.47-0.89,1.08-1.92,1.08c-0.91,0-2-0.52-2-2.54
		V9.52h1.06v3.2c0,1.1,0.35,1.86,1.3,1.86c0.71,0,1.2-0.49,1.39-0.97c0.06-0.14,0.1-0.34,0.1-0.54V9.52h1.06V13.73z"/>
	<path d="M225.77,8.13v1.39h1.51v0.8h-1.51v3.12c0,0.72,0.2,1.13,0.79,1.13c0.29,0,0.46-0.02,0.61-0.07l0.05,0.8
		c-0.2,0.07-0.53,0.14-0.94,0.14c-0.49,0-0.89-0.17-1.14-0.44c-0.29-0.32-0.41-0.84-0.41-1.52v-3.15h-0.9v-0.8h0.9V8.45L225.77,8.13
		z"/>
	<path d="M232.56,13.93c0,0.5,0.02,1,0.08,1.39h-0.95l-0.1-0.73h-0.04c-0.31,0.46-0.95,0.86-1.77,0.86c-1.18,0-1.77-0.83-1.77-1.67
		c0-1.4,1.25-2.17,3.49-2.16v-0.12c0-0.48-0.13-1.35-1.32-1.34c-0.55,0-1.12,0.16-1.52,0.43l-0.24-0.71c0.48-0.3,1.19-0.5,1.92-0.5
		c1.79,0,2.22,1.21,2.22,2.37V13.93z M231.53,12.36c-1.15-0.02-2.46,0.18-2.46,1.31c0,0.7,0.46,1.01,0.98,1.01
		c0.77,0,1.26-0.48,1.43-0.97c0.04-0.11,0.05-0.23,0.05-0.34V12.36z"/>
	<path d="M235.48,8.13v1.39h1.51v0.8h-1.51v3.12c0,0.72,0.2,1.13,0.79,1.13c0.29,0,0.46-0.02,0.61-0.07l0.05,0.8
		c-0.2,0.07-0.53,0.14-0.94,0.14c-0.49,0-0.89-0.17-1.14-0.44c-0.29-0.32-0.41-0.84-0.41-1.52v-3.15h-0.9v-0.8h0.9V8.45L235.48,8.13
		z"/>
	<path d="M238.68,8.53c-0.38,0-0.64-0.3-0.64-0.65c0-0.37,0.26-0.66,0.66-0.66c0.38,0,0.65,0.29,0.65,0.66
		c0,0.35-0.25,0.65-0.66,0.65H238.68z M238.18,15.32v-5.8h1.06v5.8H238.18z"/>
	<path d="M243.35,15.45c-1.56,0-2.78-1.15-2.78-2.99c0-1.94,1.28-3.08,2.88-3.08c1.67,0,2.79,1.21,2.79,2.97
		c0,2.16-1.5,3.09-2.88,3.09H243.35z M243.39,14.66c1.01,0,1.76-0.95,1.76-2.27c0-0.98-0.49-2.22-1.74-2.22
		c-1.24,0-1.77,1.15-1.77,2.25c0,1.27,0.72,2.23,1.74,2.23H243.39z"/>
	<path d="M247.57,11.09c0-0.61-0.01-1.09-0.05-1.57h0.94l0.06,0.95h0.02c0.29-0.54,0.96-1.08,1.92-1.08c0.8,0,2.05,0.48,2.05,2.47
		v3.47h-1.06v-3.35c0-0.94-0.35-1.73-1.34-1.73c-0.68,0-1.22,0.49-1.42,1.08c-0.05,0.13-0.07,0.32-0.07,0.49v3.5h-1.06V11.09z"/>
	<path d="M258.32,13.93c0,0.5,0.02,1,0.08,1.39h-0.95l-0.1-0.73h-0.04c-0.31,0.46-0.95,0.86-1.77,0.86c-1.18,0-1.77-0.83-1.77-1.67
		c0-1.4,1.25-2.17,3.49-2.16v-0.12c0-0.48-0.13-1.35-1.32-1.34c-0.55,0-1.12,0.16-1.52,0.43l-0.24-0.71c0.48-0.3,1.19-0.5,1.92-0.5
		c1.79,0,2.22,1.21,2.22,2.37V13.93z M257.29,12.36c-1.15-0.02-2.46,0.18-2.46,1.31c0,0.7,0.46,1.01,0.98,1.01
		c0.77,0,1.26-0.48,1.43-0.97c0.04-0.11,0.05-0.23,0.05-0.34V12.36z"/>
	<path d="M260.02,6.81h1.06v8.52h-1.06V6.81z"/>
	<path d="M265.39,6.81h1.06v3.63h0.02c0.37-0.65,1.04-1.06,1.98-1.06c1.44,0,2.45,1.2,2.45,2.95c0,2.09-1.32,3.12-2.61,3.12
		c-0.84,0-1.5-0.32-1.94-1.09h-0.02l-0.06,0.96h-0.91c0.04-0.4,0.05-0.98,0.05-1.5V6.81z M266.45,13c0,0.13,0.01,0.26,0.04,0.38
		c0.2,0.73,0.83,1.24,1.58,1.24c1.12,0,1.76-0.9,1.76-2.23c0-1.18-0.6-2.17-1.73-2.17c-0.72,0-1.39,0.5-1.6,1.3
		c-0.04,0.13-0.06,0.28-0.06,0.44V13z"/>
	<path d="M276.31,13.93c0,0.5,0.02,1,0.08,1.39h-0.95l-0.1-0.73h-0.04c-0.31,0.46-0.95,0.86-1.77,0.86c-1.18,0-1.77-0.83-1.77-1.67
		c0-1.4,1.25-2.17,3.49-2.16v-0.12c0-0.48-0.13-1.35-1.32-1.34c-0.55,0-1.12,0.16-1.52,0.43l-0.24-0.71c0.48-0.3,1.19-0.5,1.92-0.5
		c1.79,0,2.22,1.21,2.22,2.37V13.93z M275.28,12.36c-1.15-0.02-2.46,0.18-2.46,1.31c0,0.7,0.46,1.01,0.98,1.01
		c0.77,0,1.26-0.48,1.43-0.97c0.04-0.11,0.05-0.23,0.05-0.34V12.36z"/>
	<path d="M282.14,15.11c-0.28,0.13-0.89,0.34-1.67,0.34c-1.75,0-2.89-1.19-2.89-2.96c0-1.79,1.22-3.09,3.12-3.09
		c0.62,0,1.18,0.16,1.46,0.31l-0.24,0.8c-0.25-0.13-0.65-0.28-1.22-0.28c-1.33,0-2.05,1-2.05,2.19c0,1.34,0.86,2.17,2.02,2.17
		c0.6,0,1-0.14,1.3-0.28L282.14,15.11z"/>
	<path d="M284.43,12.18h0.02c0.14-0.2,0.34-0.46,0.5-0.66l1.72-2h1.26l-2.24,2.39l2.55,3.42h-1.28l-1.99-2.78l-0.54,0.6v2.18h-1.06
		V6.81h1.06V12.18z"/>
	<path d="M289.61,12.61c0.02,1.42,0.92,2,1.98,2c0.76,0,1.22-0.13,1.61-0.3l0.19,0.76c-0.37,0.17-1.02,0.37-1.94,0.37
		c-1.77,0-2.85-1.19-2.85-2.93c0-1.75,1.04-3.13,2.73-3.13c1.9,0,2.39,1.67,2.39,2.73c0,0.22-0.01,0.37-0.04,0.49H289.61z
		 M292.69,11.86c0.01-0.67-0.28-1.71-1.45-1.71c-1.08,0-1.54,0.98-1.62,1.71H292.69z"/>
	<path d="M295.02,11.09c0-0.61-0.01-1.09-0.05-1.57h0.94l0.06,0.95h0.02c0.29-0.54,0.96-1.08,1.92-1.08c0.8,0,2.05,0.48,2.05,2.47
		v3.47h-1.06v-3.35c0-0.94-0.35-1.73-1.34-1.73c-0.68,0-1.22,0.49-1.42,1.08c-0.05,0.13-0.07,0.32-0.07,0.49v3.5h-1.06V11.09z"/>
	<path d="M306.69,6.81v7.02c0,0.52,0.01,1.1,0.05,1.5h-0.95l-0.05-1.01h-0.02c-0.32,0.65-1.02,1.14-1.97,1.14
		c-1.4,0-2.49-1.19-2.49-2.95c-0.01-1.94,1.2-3.12,2.6-3.12c0.9,0,1.5,0.42,1.75,0.88h0.02V6.81H306.69z M305.64,11.88
		c0-0.14-0.01-0.31-0.05-0.46c-0.16-0.66-0.73-1.21-1.52-1.21c-1.09,0-1.74,0.96-1.74,2.23c0,1.19,0.59,2.16,1.72,2.16
		c0.71,0,1.35-0.48,1.55-1.27c0.04-0.13,0.05-0.28,0.05-0.44V11.88z"/>
</g>
<g>
</g>
<g>
</g>
<g>
</g>
<g>
</g>
<g>
</g>
<g>
</g>
<g>
</g>
<g>
</g>
<g>
</g>
<g>
</g>
<g>
</g>
<g>
</g>
<g>
</g>
<g>
</g>
<g>
</g>
</svg>
